  0
SECTION
  2
HEADER
  9
$ANGBASE
  50
0.0
  9
$ANGDIR
  70
1
  9
$MEASUREMENT
  70
0
  0
ENDSEC
  0
SECTION
  2
TABLES
  0
TABLE
  2
LTYPE
  70
4
  0
LTYPE
  5
40F
  2
CONTINUOUS
  70
0
  3
Solid line
  72
65
  73
0
  40
0.0
  0
LTYPE
  5
410
  2
DASHDOT
 70
0
  3
Dash Dot ____ _ ____ _
 72
65
 73
4
 40
2.0
 49
1.25
 49
-0.25
 49
0.25
 49
-0.25
  0
LTYPE
  5
411
  2
DASHED
 70
0
  3
Dashed __ __ __ __ __
 72
65
 73
2
 40
0.75
 49
0.5
 49
-0.25
  0
LTYPE
  5
43B
  2
DOTTED
 70
0
  3
Dotted .  .  .  .
 72
65
 73
2
 40
0.2
 49
0.0
 49
-0.2
  0
ENDTAB
  0
TABLE
  2
STYLE
  70
4
  0
STYLE
  2
KICAD
  70
0
  40
0
  41
1
  42
1
  50
0
  71
0
  3
isocp.shx
  0
STYLE
  2
KICADB
  70
0
  40
0
  41
1
  42
1
  50
0
  71
0
  3
isocp.shx
  0
STYLE
  2
KICADI
  70
0
  40
0
  41
1
  42
1
  50
15
  71
0
  3
isocp.shx
  0
STYLE
  2
KICADBI
  70
0
  40
0
  41
1
  42
1
  50
15
  71
0
  3
isocp.shx
  0
ENDTAB
  0
TABLE
  2
LAYER
  70
1
  0
LAYER
  2
BLACK
  70
0
  62
7
  6
CONTINUOUS
  0
ENDTAB
  0
ENDSEC
  0
SECTION
  2
ENTITIES
0
LINE
8
BLACK
6
CONTINUOUS
10
4.414497165354331
20
-6.7427519685039368
11
4.4237221653543308
21
-6.7459188976377948
0
LINE
8
BLACK
6
CONTINUOUS
10
4.4237221653543308
20
-6.7459188976377948
11
4.4323000787401572
21
-6.7505610236220468
0
LINE
8
BLACK
6
CONTINUOUS
10
4.4323000787401572
20
-6.7505610236220468
11
4.4399969291338586
21
-6.7565517322834641
0
LINE
8
BLACK
6
CONTINUOUS
10
4.4399969291338586
20
-6.7565517322834641
11
4.4466027952755907
21
-6.7637275984251968
0
LINE
8
BLACK
6
CONTINUOUS
10
4.4466027952755907
20
-6.7637275984251968
11
4.4519374409448815
21
-6.771892874015748
0
LINE
8
BLACK
6
CONTINUOUS
10
4.4519374409448815
20
-6.771892874015748
11
4.4558553543307085
21
-6.7808248425196851
0
LINE
8
BLACK
6
CONTINUOUS
10
4.4558553543307085
20
-6.7808248425196851
11
4.4582496850393696
21
-6.7902798425196851
0
LINE
8
BLACK
6
CONTINUOUS
10
4.4582496850393696
20
-6.7902798425196851
11
4.4590551181102365
21
-6.7999999999999998
0
LINE
8
BLACK
6
CONTINUOUS
10
4.4590551181102365
20
-6.7999999999999998
11
4.4582496850393696
21
-6.8097201574803146
0
LINE
8
BLACK
6
CONTINUOUS
10
4.4582496850393696
20
-6.8097201574803146
11
4.4558553543307085
21
-6.8191751574803146
0
LINE
8
BLACK
6
CONTINUOUS
10
4.4558553543307085
20
-6.8191751574803146
11
4.4519374409448815
21
-6.8281071259842516
0
LINE
8
BLACK
6
CONTINUOUS
10
4.4519374409448815
20
-6.8281071259842516
11
4.4466027952755907
21
-6.8362724015748029
0
LINE
8
BLACK
6
CONTINUOUS
10
4.4466027952755907
20
-6.8362724015748029
11
4.4399969291338586
21
-6.8434482677165356
0
LINE
8
BLACK
6
CONTINUOUS
10
4.4399969291338586
20
-6.8434482677165356
11
4.4323000787401572
21
-6.8494389763779528
0
LINE
8
BLACK
6
CONTINUOUS
10
4.4323000787401572
20
-6.8494389763779528
11
4.4237221653543308
21
-6.8540811023622048
0
LINE
8
BLACK
6
CONTINUOUS
10
4.4237221653543308
20
-6.8540811023622048
11
4.414497165354331
21
-6.8572480314960629
0
LINE
8
BLACK
6
CONTINUOUS
10
4.414497165354331
20
-6.8572480314960629
11
4.4048767322834648
21
-6.85885342519685
0
LINE
8
BLACK
6
CONTINUOUS
10
4.4048767322834648
20
-6.85885342519685
11
4.3951232677165351
21
-6.85885342519685
0
LINE
8
BLACK
6
CONTINUOUS
10
4.3951232677165351
20
-6.85885342519685
11
4.3855028346456688
21
-6.8572480314960629
0
LINE
8
BLACK
6
CONTINUOUS
10
4.3855028346456688
20
-6.8572480314960629
11
4.376277834645669
21
-6.8540811023622048
0
LINE
8
BLACK
6
CONTINUOUS
10
4.376277834645669
20
-6.8540811023622048
11
4.3676999212598426
21
-6.8494389763779528
0
LINE
8
BLACK
6
CONTINUOUS
10
4.3676999212598426
20
-6.8494389763779528
11
4.3600030708661413
21
-6.8434482677165356
0
LINE
8
BLACK
6
CONTINUOUS
10
4.3600030708661413
20
-6.8434482677165356
11
4.3533972047244092
21
-6.8362724015748029
0
LINE
8
BLACK
6
CONTINUOUS
10
4.3533972047244092
20
-6.8362724015748029
11
4.3480625590551183
21
-6.8281071259842516
0
LINE
8
BLACK
6
CONTINUOUS
10
4.3480625590551183
20
-6.8281071259842516
11
4.3441446456692914
21
-6.8191751574803146
0
LINE
8
BLACK
6
CONTINUOUS
10
4.3441446456692914
20
-6.8191751574803146
11
4.3417503149606302
21
-6.8097201574803146
0
LINE
8
BLACK
6
CONTINUOUS
10
4.3417503149606302
20
-6.8097201574803146
11
4.3409448818897634
21
-6.7999999999999998
0
LINE
8
BLACK
6
CONTINUOUS
10
4.3409448818897634
20
-6.7999999999999998
11
4.3417503149606302
21
-6.7902798425196851
0
LINE
8
BLACK
6
CONTINUOUS
10
4.3417503149606302
20
-6.7902798425196851
11
4.3441446456692914
21
-6.7808248425196851
0
LINE
8
BLACK
6
CONTINUOUS
10
4.3441446456692914
20
-6.7808248425196851
11
4.3480625590551183
21
-6.771892874015748
0
LINE
8
BLACK
6
CONTINUOUS
10
4.3480625590551183
20
-6.771892874015748
11
4.3533972047244092
21
-6.7637275984251968
0
LINE
8
BLACK
6
CONTINUOUS
10
4.3533972047244092
20
-6.7637275984251968
11
4.3600030708661413
21
-6.7565517322834641
0
LINE
8
BLACK
6
CONTINUOUS
10
4.3600030708661413
20
-6.7565517322834641
11
4.3676999212598426
21
-6.7505610236220468
0
LINE
8
BLACK
6
CONTINUOUS
10
4.3676999212598426
20
-6.7505610236220468
11
4.376277834645669
21
-6.7459188976377948
0
LINE
8
BLACK
6
CONTINUOUS
10
4.376277834645669
20
-6.7459188976377948
11
4.3855028346456688
21
-6.7427519685039368
0
LINE
8
BLACK
6
CONTINUOUS
10
4.3855028346456688
20
-6.7427519685039368
11
4.3951232677165351
21
-6.7411465748031496
0
LINE
8
BLACK
6
CONTINUOUS
10
4.3951232677165351
20
-6.7411465748031496
11
4.4048767322834648
21
-6.7411465748031496
0
LINE
8
BLACK
6
CONTINUOUS
10
4.4048767322834648
20
-6.7411465748031496
11
4.414497165354331
21
-6.7427519685039368
0
LINE
8
BLACK
6
CONTINUOUS
10
6.0144971653543307
20
-6.7427519685039368
11
6.0237221653543305
21
-6.7459188976377948
0
LINE
8
BLACK
6
CONTINUOUS
10
6.0237221653543305
20
-6.7459188976377948
11
6.0323000787401577
21
-6.7505610236220468
0
LINE
8
BLACK
6
CONTINUOUS
10
6.0323000787401577
20
-6.7505610236220468
11
6.0399969291338582
21
-6.7565517322834641
0
LINE
8
BLACK
6
CONTINUOUS
10
6.0399969291338582
20
-6.7565517322834641
11
6.0466027952755903
21
-6.7637275984251968
0
LINE
8
BLACK
6
CONTINUOUS
10
6.0466027952755903
20
-6.7637275984251968
11
6.0519374409448821
21
-6.771892874015748
0
LINE
8
BLACK
6
CONTINUOUS
10
6.0519374409448821
20
-6.771892874015748
11
6.0558553543307081
21
-6.7808248425196851
0
LINE
8
BLACK
6
CONTINUOUS
10
6.0558553543307081
20
-6.7808248425196851
11
6.0582496850393701
21
-6.7902798425196851
0
LINE
8
BLACK
6
CONTINUOUS
10
6.0582496850393701
20
-6.7902798425196851
11
6.0590551181102361
21
-6.7999999999999998
0
LINE
8
BLACK
6
CONTINUOUS
10
6.0590551181102361
20
-6.7999999999999998
11
6.0582496850393701
21
-6.8097201574803146
0
LINE
8
BLACK
6
CONTINUOUS
10
6.0582496850393701
20
-6.8097201574803146
11
6.0558553543307081
21
-6.8191751574803146
0
LINE
8
BLACK
6
CONTINUOUS
10
6.0558553543307081
20
-6.8191751574803146
11
6.0519374409448821
21
-6.8281071259842516
0
LINE
8
BLACK
6
CONTINUOUS
10
6.0519374409448821
20
-6.8281071259842516
11
6.0466027952755903
21
-6.8362724015748029
0
LINE
8
BLACK
6
CONTINUOUS
10
6.0466027952755903
20
-6.8362724015748029
11
6.0399969291338582
21
-6.8434482677165356
0
LINE
8
BLACK
6
CONTINUOUS
10
6.0399969291338582
20
-6.8434482677165356
11
6.0323000787401577
21
-6.8494389763779528
0
LINE
8
BLACK
6
CONTINUOUS
10
6.0323000787401577
20
-6.8494389763779528
11
6.0237221653543305
21
-6.8540811023622048
0
LINE
8
BLACK
6
CONTINUOUS
10
6.0237221653543305
20
-6.8540811023622048
11
6.0144971653543307
21
-6.8572480314960629
0
LINE
8
BLACK
6
CONTINUOUS
10
6.0144971653543307
20
-6.8572480314960629
11
6.0048767322834644
21
-6.85885342519685
0
LINE
8
BLACK
6
CONTINUOUS
10
6.0048767322834644
20
-6.85885342519685
11
5.9951232677165356
21
-6.85885342519685
0
LINE
8
BLACK
6
CONTINUOUS
10
5.9951232677165356
20
-6.85885342519685
11
5.9855028346456693
21
-6.8572480314960629
0
LINE
8
BLACK
6
CONTINUOUS
10
5.9855028346456693
20
-6.8572480314960629
11
5.9762778346456695
21
-6.8540811023622048
0
LINE
8
BLACK
6
CONTINUOUS
10
5.9762778346456695
20
-6.8540811023622048
11
5.9676999212598423
21
-6.8494389763779528
0
LINE
8
BLACK
6
CONTINUOUS
10
5.9676999212598423
20
-6.8494389763779528
11
5.9600030708661418
21
-6.8434482677165356
0
LINE
8
BLACK
6
CONTINUOUS
10
5.9600030708661418
20
-6.8434482677165356
11
5.9533972047244097
21
-6.8362724015748029
0
LINE
8
BLACK
6
CONTINUOUS
10
5.9533972047244097
20
-6.8362724015748029
11
5.9480625590551179
21
-6.8281071259842516
0
LINE
8
BLACK
6
CONTINUOUS
10
5.9480625590551179
20
-6.8281071259842516
11
5.944144645669291
21
-6.8191751574803146
0
LINE
8
BLACK
6
CONTINUOUS
10
5.944144645669291
20
-6.8191751574803146
11
5.9417503149606299
21
-6.8097201574803146
0
LINE
8
BLACK
6
CONTINUOUS
10
5.9417503149606299
20
-6.8097201574803146
11
5.9409448818897639
21
-6.7999999999999998
0
LINE
8
BLACK
6
CONTINUOUS
10
5.9409448818897639
20
-6.7999999999999998
11
5.9417503149606299
21
-6.7902798425196851
0
LINE
8
BLACK
6
CONTINUOUS
10
5.9417503149606299
20
-6.7902798425196851
11
5.944144645669291
21
-6.7808248425196851
0
LINE
8
BLACK
6
CONTINUOUS
10
5.944144645669291
20
-6.7808248425196851
11
5.9480625590551179
21
-6.771892874015748
0
LINE
8
BLACK
6
CONTINUOUS
10
5.9480625590551179
20
-6.771892874015748
11
5.9533972047244097
21
-6.7637275984251968
0
LINE
8
BLACK
6
CONTINUOUS
10
5.9533972047244097
20
-6.7637275984251968
11
5.9600030708661418
21
-6.7565517322834641
0
LINE
8
BLACK
6
CONTINUOUS
10
5.9600030708661418
20
-6.7565517322834641
11
5.9676999212598423
21
-6.7505610236220468
0
LINE
8
BLACK
6
CONTINUOUS
10
5.9676999212598423
20
-6.7505610236220468
11
5.9762778346456695
21
-6.7459188976377948
0
LINE
8
BLACK
6
CONTINUOUS
10
5.9762778346456695
20
-6.7459188976377948
11
5.9855028346456693
21
-6.7427519685039368
0
LINE
8
BLACK
6
CONTINUOUS
10
5.9855028346456693
20
-6.7427519685039368
11
5.9951232677165356
21
-6.7411465748031496
0
LINE
8
BLACK
6
CONTINUOUS
10
5.9951232677165356
20
-6.7411465748031496
11
6.0048767322834644
21
-6.7411465748031496
0
LINE
8
BLACK
6
CONTINUOUS
10
6.0048767322834644
20
-6.7411465748031496
11
6.0144971653543307
21
-6.7427519685039368
0
LINE
8
BLACK
6
CONTINUOUS
10
5.2046319685039366
20
-6.5806741338582677
11
5.2061792125984248
21
-6.5819724409448819
0
LINE
8
BLACK
6
CONTINUOUS
10
5.2061792125984248
20
-6.5819724409448819
11
5.2065299606299211
21
-6.5839615748031495
0
LINE
8
BLACK
6
CONTINUOUS
10
5.2065299606299211
20
-6.5839615748031495
11
5.2055200393700787
21
-6.585710748031496
0
LINE
8
BLACK
6
CONTINUOUS
10
5.2055200393700787
20
-6.585710748031496
11
5.2036220472440942
21
-6.5864015748031495
0
LINE
8
BLACK
6
CONTINUOUS
10
5.2036220472440942
20
-6.5864015748031495
11
5.1563779527559053
21
-6.5864015748031495
0
LINE
8
BLACK
6
CONTINUOUS
10
5.1563779527559053
20
-6.5864015748031495
11
5.1553680314960628
21
-6.5862235039370081
0
LINE
8
BLACK
6
CONTINUOUS
10
5.1553680314960628
20
-6.5862235039370081
11
5.1538207874015747
21
-6.5849251968503939
0
LINE
8
BLACK
6
CONTINUOUS
10
5.1538207874015747
20
-6.5849251968503939
11
5.1534700393700783
21
-6.5829360629921254
0
LINE
8
BLACK
6
CONTINUOUS
10
5.1534700393700783
20
-6.5829360629921254
11
5.1544799606299208
21
-6.5811868897637797
0
LINE
8
BLACK
6
CONTINUOUS
10
5.1544799606299208
20
-6.5811868897637797
11
5.1563779527559053
21
-6.5804960629921254
0
LINE
8
BLACK
6
CONTINUOUS
10
5.1563779527559053
20
-6.5804960629921254
11
5.2036220472440942
21
-6.5804960629921254
0
LINE
8
BLACK
6
CONTINUOUS
10
5.2036220472440942
20
-6.5804960629921254
11
5.2046319685039366
21
-6.5806741338582677
0
LINE
8
BLACK
6
CONTINUOUS
10
5.2046319685039366
20
-6.5117764960629918
11
5.2061792125984248
21
-6.513074803149606
0
LINE
8
BLACK
6
CONTINUOUS
10
5.2061792125984248
20
-6.513074803149606
11
5.2065299606299211
21
-6.5150639370078736
0
LINE
8
BLACK
6
CONTINUOUS
10
5.2065299606299211
20
-6.5150639370078736
11
5.2055200393700787
21
-6.5168131102362201
0
LINE
8
BLACK
6
CONTINUOUS
10
5.2055200393700787
20
-6.5168131102362201
11
5.2036220472440942
21
-6.5175039370078736
0
LINE
8
BLACK
6
CONTINUOUS
10
5.2036220472440942
20
-6.5175039370078736
11
5.1563779527559053
21
-6.5175039370078736
0
LINE
8
BLACK
6
CONTINUOUS
10
5.1563779527559053
20
-6.5175039370078736
11
5.1553680314960628
21
-6.5173258661417321
0
LINE
8
BLACK
6
CONTINUOUS
10
5.1553680314960628
20
-6.5173258661417321
11
5.1538207874015747
21
-6.516027559055118
0
LINE
8
BLACK
6
CONTINUOUS
10
5.1538207874015747
20
-6.516027559055118
11
5.1534700393700783
21
-6.5140384251968504
0
LINE
8
BLACK
6
CONTINUOUS
10
5.1534700393700783
20
-6.5140384251968504
11
5.1544799606299208
21
-6.5122892519685038
0
LINE
8
BLACK
6
CONTINUOUS
10
5.1544799606299208
20
-6.5122892519685038
11
5.1563779527559053
21
-6.5115984251968504
0
LINE
8
BLACK
6
CONTINUOUS
10
5.1563779527559053
20
-6.5115984251968504
11
5.2036220472440942
21
-6.5115984251968504
0
LINE
8
BLACK
6
CONTINUOUS
10
5.2036220472440942
20
-6.5115984251968504
11
5.2046319685039366
21
-6.5117764960629918
0
LINE
8
BLACK
6
CONTINUOUS
10
5.1609747244094484
20
-6.4420359842519686
11
5.1611441338582678
21
-6.4420250787401576
0
LINE
8
BLACK
6
CONTINUOUS
10
5.1611441338582678
20
-6.4420250787401576
11
5.1618347244094487
21
-6.4425325196850389
0
LINE
8
BLACK
6
CONTINUOUS
10
5.1618347244094487
20
-6.4425325196850389
11
5.1625768503937008
21
-6.4429610236220469
0
LINE
8
BLACK
6
CONTINUOUS
10
5.1625768503937008
20
-6.4429610236220469
11
5.1626348818897636
21
-6.4431205118110233
0
LINE
8
BLACK
6
CONTINUOUS
10
5.1626348818897636
20
-6.4431205118110233
11
5.1627717716535431
21
-6.4432211023622044
0
LINE
8
BLACK
6
CONTINUOUS
10
5.1627717716535431
20
-6.4432211023622044
11
5.1663590944881888
21
-6.4486021259842516
0
LINE
8
BLACK
6
CONTINUOUS
10
5.1663590944881888
20
-6.4486021259842516
11
5.1695630708661415
21
-6.4518061023622044
0
LINE
8
BLACK
6
CONTINUOUS
10
5.1695630708661415
20
-6.4518061023622044
11
5.1728840157480311
21
-6.4534665748031497
0
LINE
8
BLACK
6
CONTINUOUS
10
5.1728840157480311
20
-6.4534665748031497
11
5.1737076771653543
21
-6.4540774803149601
0
LINE
8
BLACK
6
CONTINUOUS
10
5.1737076771653543
20
-6.4540774803149601
11
5.1745109448818898
21
-6.4559306692913383
0
LINE
8
BLACK
6
CONTINUOUS
10
5.1745109448818898
20
-6.4559306692913383
11
5.1739350787401577
21
-6.4578666929133854
0
LINE
8
BLACK
6
CONTINUOUS
10
5.1739350787401577
20
-6.4578666929133854
11
5.172249527559055
21
-6.4589795275590554
0
LINE
8
BLACK
6
CONTINUOUS
10
5.172249527559055
20
-6.4589795275590554
11
5.170242992125984
21
-6.4587486220472439
0
LINE
8
BLACK
6
CONTINUOUS
10
5.170242992125984
20
-6.4587486220472439
11
5.1664934645669289
21
-6.4568738582677163
0
LINE
8
BLACK
6
CONTINUOUS
10
5.1664934645669289
20
-6.4568738582677163
11
5.1657843700787405
21
-6.4563479133858266
0
LINE
8
BLACK
6
CONTINUOUS
10
5.1657843700787405
20
-6.4563479133858266
11
5.1657260629921256
21
-6.4563207480314961
0
LINE
8
BLACK
6
CONTINUOUS
10
5.1657260629921256
20
-6.4563207480314961
11
5.1632676771653543
21
-6.453862362204724
0
LINE
8
BLACK
6
CONTINUOUS
10
5.1632676771653543
20
-6.453862362204724
11
5.1632676771653543
21
-6.4812763385826768
0
LINE
8
BLACK
6
CONTINUOUS
10
5.1632676771653543
20
-6.4812763385826768
11
5.1715635039370076
21
-6.4812763385826768
0
LINE
8
BLACK
6
CONTINUOUS
10
5.1715635039370076
20
-6.4812763385826768
11
5.17257342519685
21
-6.4814544094488191
0
LINE
8
BLACK
6
CONTINUOUS
10
5.17257342519685
20
-6.4814544094488191
11
5.1741206692913382
21
-6.4827527165354333
0
LINE
8
BLACK
6
CONTINUOUS
10
5.1741206692913382
20
-6.4827527165354333
11
5.1744714173228346
21
-6.4847418503937009
0
LINE
8
BLACK
6
CONTINUOUS
10
5.1744714173228346
20
-6.4847418503937009
11
5.1734614960629921
21
-6.4864910236220474
0
LINE
8
BLACK
6
CONTINUOUS
10
5.1734614960629921
20
-6.4864910236220474
11
5.1715635039370076
21
-6.4871818503937009
0
LINE
8
BLACK
6
CONTINUOUS
10
5.1715635039370076
20
-6.4871818503937009
11
5.1490663385826769
21
-6.4871818503937009
0
LINE
8
BLACK
6
CONTINUOUS
10
5.1490663385826769
20
-6.4871818503937009
11
5.1480564173228345
21
-6.4870037795275586
0
LINE
8
BLACK
6
CONTINUOUS
10
5.1480564173228345
20
-6.4870037795275586
11
5.1465091732283463
21
-6.4857054724409444
0
LINE
8
BLACK
6
CONTINUOUS
10
5.1465091732283463
20
-6.4857054724409444
11
5.14615842519685
21
-6.4837163385826768
0
LINE
8
BLACK
6
CONTINUOUS
10
5.14615842519685
20
-6.4837163385826768
11
5.1471683464566924
21
-6.4819671653543303
0
LINE
8
BLACK
6
CONTINUOUS
10
5.1471683464566924
20
-6.4819671653543303
11
5.1490663385826769
21
-6.4812763385826768
0
LINE
8
BLACK
6
CONTINUOUS
10
5.1490663385826769
20
-6.4812763385826768
11
5.1573621653543302
21
-6.4812763385826768
0
LINE
8
BLACK
6
CONTINUOUS
10
5.1573621653543302
20
-6.4812763385826768
11
5.1573621653543302
21
-6.4448590157480314
0
LINE
8
BLACK
6
CONTINUOUS
10
5.1573621653543302
20
-6.4448590157480314
11
5.1575402362204725
21
-6.443849094488189
0
LINE
8
BLACK
6
CONTINUOUS
10
5.1575402362204725
20
-6.443849094488189
11
5.1576493307086615
21
-6.4437190157480311
0
LINE
8
BLACK
6
CONTINUOUS
10
5.1576493307086615
20
-6.4437190157480311
11
5.1576680314960628
21
-6.4435502755905514
0
LINE
8
BLACK
6
CONTINUOUS
10
5.1576680314960628
20
-6.4435502755905514
11
5.1582876377952758
21
-6.4429583464566926
0
LINE
8
BLACK
6
CONTINUOUS
10
5.1582876377952758
20
-6.4429583464566926
11
5.1588385433070867
21
-6.4423018503937008
0
LINE
8
BLACK
6
CONTINUOUS
10
5.1588385433070867
20
-6.4423018503937008
11
5.1590057480314959
21
-6.442272362204724
0
LINE
8
BLACK
6
CONTINUOUS
10
5.1590057480314959
20
-6.442272362204724
11
5.1591285433070864
21
-6.4421550787401571
0
LINE
8
BLACK
6
CONTINUOUS
10
5.1591285433070864
20
-6.4421550787401571
11
5.1599836614173231
21
-6.4420999212598424
0
LINE
8
BLACK
6
CONTINUOUS
10
5.1599836614173231
20
-6.4420999212598424
11
5.1608276771653543
21
-6.4419511023622045
0
LINE
8
BLACK
6
CONTINUOUS
10
5.1608276771653543
20
-6.4419511023622045
11
5.1609747244094484
21
-6.4420359842519686
0
LINE
8
BLACK
6
CONTINUOUS
10
5.2094423228346454
20
-6.4419738582677164
11
5.2095715748031495
21
-6.4419511023622045
0
LINE
8
BLACK
6
CONTINUOUS
10
5.2095715748031495
20
-6.4419511023622045
11
5.2096851574803145
21
-6.442016692913386
0
LINE
8
BLACK
6
CONTINUOUS
10
5.2096851574803145
20
-6.442016692913386
11
5.2100687401574799
21
-6.4420843307086617
0
LINE
8
BLACK
6
CONTINUOUS
10
5.2100687401574799
20
-6.4420843307086617
11
5.2106564173228342
21
-6.4425774409448815
0
LINE
8
BLACK
6
CONTINUOUS
10
5.2106564173228342
20
-6.4425774409448815
11
5.211320748031496
21
-6.4429610236220469
0
LINE
8
BLACK
6
CONTINUOUS
10
5.211320748031496
20
-6.4429610236220469
11
5.2114118503937004
21
-6.4432113385826773
0
LINE
8
BLACK
6
CONTINUOUS
10
5.2114118503937004
20
-6.4432113385826773
11
5.211615984251968
21
-6.4433826377952759
0
LINE
8
BLACK
6
CONTINUOUS
10
5.211615984251968
20
-6.4433826377952759
11
5.2117492125984253
21
-6.4441381889763782
0
LINE
8
BLACK
6
CONTINUOUS
10
5.2117492125984253
20
-6.4441381889763782
11
5.2120115748031495
21
-6.4448590157480314
0
LINE
8
BLACK
6
CONTINUOUS
10
5.2120115748031495
20
-6.4448590157480314
11
5.2120115748031495
21
-6.4842290944881888
0
LINE
8
BLACK
6
CONTINUOUS
10
5.2120115748031495
20
-6.4842290944881888
11
5.2119439370078737
21
-6.4846125984251968
0
LINE
8
BLACK
6
CONTINUOUS
10
5.2119439370078737
20
-6.4846125984251968
11
5.2119667322834644
21
-6.4847418503937009
0
LINE
8
BLACK
6
CONTINUOUS
10
5.2119667322834644
20
-6.4847418503937009
11
5.2119011023622042
21
-6.4848554330708659
0
LINE
8
BLACK
6
CONTINUOUS
10
5.2119011023622042
20
-6.4848554330708659
11
5.2118335039370081
21
-6.4852390157480313
0
LINE
8
BLACK
6
CONTINUOUS
10
5.2118335039370081
20
-6.4852390157480313
11
5.2113403543307086
21
-6.4858266929133856
0
LINE
8
BLACK
6
CONTINUOUS
10
5.2113403543307086
20
-6.4858266929133856
11
5.210956811023622
21
-6.4864910236220474
0
LINE
8
BLACK
6
CONTINUOUS
10
5.210956811023622
20
-6.4864910236220474
11
5.2107064566929129
21
-6.4865821259842518
0
LINE
8
BLACK
6
CONTINUOUS
10
5.2107064566929129
20
-6.4865821259842518
11
5.2105351968503939
21
-6.4867862598425194
0
LINE
8
BLACK
6
CONTINUOUS
10
5.2105351968503939
20
-6.4867862598425194
11
5.2097796062992128
21
-6.4869194881889758
0
LINE
8
BLACK
6
CONTINUOUS
10
5.2097796062992128
20
-6.4869194881889758
11
5.2090588188976374
21
-6.4871818503937009
0
LINE
8
BLACK
6
CONTINUOUS
10
5.2090588188976374
20
-6.4871818503937009
11
5.1996849999999997
21
-6.4871818503937009
0
LINE
8
BLACK
6
CONTINUOUS
10
5.1996849999999997
20
-6.4871818503937009
11
5.198815590551181
21
-6.4870285433070869
0
LINE
8
BLACK
6
CONTINUOUS
10
5.198815590551181
20
-6.4870285433070869
11
5.1987512204724409
21
-6.4870303149606299
0
LINE
8
BLACK
6
CONTINUOUS
10
5.1987512204724409
20
-6.4870303149606299
11
5.193126968503937
21
-6.4851555511811023
0
LINE
8
BLACK
6
CONTINUOUS
10
5.193126968503937
20
-6.4851555511811023
11
5.1922251968503934
21
-6.4846672440944877
0
LINE
8
BLACK
6
CONTINUOUS
10
5.1922251968503934
20
-6.4846672440944877
11
5.1921327952755902
21
-6.4845168503937005
0
LINE
8
BLACK
6
CONTINUOUS
10
5.1921327952755902
20
-6.4845168503937005
11
5.1919727952755901
21
-6.4844422440944882
0
LINE
8
BLACK
6
CONTINUOUS
10
5.1919727952755901
20
-6.4844422440944882
11
5.188223267716535
21
-6.4806926771653544
0
LINE
8
BLACK
6
CONTINUOUS
10
5.188223267716535
20
-6.4806926771653544
11
5.1877168503937003
21
-6.479969488188976
0
LINE
8
BLACK
6
CONTINUOUS
10
5.1877168503937003
20
-6.479969488188976
11
5.1876701574803148
21
-6.479925275590551
0
LINE
8
BLACK
6
CONTINUOUS
10
5.1876701574803148
20
-6.479925275590551
11
5.1857953937007872
21
-6.4761757480314959
0
LINE
8
BLACK
6
CONTINUOUS
10
5.1857953937007872
20
-6.4761757480314959
11
5.1856500787401574
21
-6.4756872834645671
0
LINE
8
BLACK
6
CONTINUOUS
10
5.1856500787401574
20
-6.4756872834645671
11
5.185571811023622
21
-6.4755713779527557
0
LINE
8
BLACK
6
CONTINUOUS
10
5.185571811023622
20
-6.4755713779527557
11
5.1836970472440944
21
-6.4680723228346455
0
LINE
8
BLACK
6
CONTINUOUS
10
5.1836970472440944
20
-6.4680723228346455
11
5.1836555511811024
21
-6.4674844094488186
0
LINE
8
BLACK
6
CONTINUOUS
10
5.1836555511811024
20
-6.4674844094488186
11
5.1836088976377948
21
-6.4673561811023621
0
LINE
8
BLACK
6
CONTINUOUS
10
5.1836088976377948
20
-6.4673561811023621
11
5.1836088976377948
21
-6.4617318897637794
0
LINE
8
BLACK
6
CONTINUOUS
10
5.1836088976377948
20
-6.4617318897637794
11
5.1837112204724409
21
-6.4611514960629917
0
LINE
8
BLACK
6
CONTINUOUS
10
5.1837112204724409
20
-6.4611514960629917
11
5.1836970472440944
21
-6.461015748031496
0
LINE
8
BLACK
6
CONTINUOUS
10
5.1836970472440944
20
-6.461015748031496
11
5.185571811023622
21
-6.4535166929133858
0
LINE
8
BLACK
6
CONTINUOUS
10
5.185571811023622
20
-6.4535166929133858
11
5.1857793700787402
21
-6.4530512204724406
0
LINE
8
BLACK
6
CONTINUOUS
10
5.1857793700787402
20
-6.4530512204724406
11
5.1857953937007872
21
-6.4529123228346457
0
LINE
8
BLACK
6
CONTINUOUS
10
5.1857953937007872
20
-6.4529123228346457
11
5.1876701574803148
21
-6.4491627952755906
0
LINE
8
BLACK
6
CONTINUOUS
10
5.1876701574803148
20
-6.4491627952755906
11
5.1881960629921258
21
-6.4484537007874012
0
LINE
8
BLACK
6
CONTINUOUS
10
5.1881960629921258
20
-6.4484537007874012
11
5.188223267716535
21
-6.4483953937007872
0
LINE
8
BLACK
6
CONTINUOUS
10
5.188223267716535
20
-6.4483953937007872
11
5.1919727952755901
21
-6.4446458661417321
0
LINE
8
BLACK
6
CONTINUOUS
10
5.1919727952755901
20
-6.4446458661417321
11
5.192812834645669
21
-6.4440576377952752
0
LINE
8
BLACK
6
CONTINUOUS
10
5.192812834645669
20
-6.4440576377952752
11
5.1929887401574799
21
-6.4440422440944882
0
LINE
8
BLACK
6
CONTINUOUS
10
5.1929887401574799
20
-6.4440422440944882
11
5.193126968503937
21
-6.443932559055118
0
LINE
8
BLACK
6
CONTINUOUS
10
5.193126968503937
20
-6.443932559055118
11
5.1987512204724409
21
-6.4420577952755904
0
LINE
8
BLACK
6
CONTINUOUS
10
5.1987512204724409
20
-6.4420577952755904
11
5.1996244488188976
21
-6.441928267716535
0
LINE
8
BLACK
6
CONTINUOUS
10
5.1996244488188976
20
-6.441928267716535
11
5.1996849999999997
21
-6.4419062598425194
0
LINE
8
BLACK
6
CONTINUOUS
10
5.1996849999999997
20
-6.4419062598425194
11
5.2090588188976374
21
-6.4419062598425194
0
LINE
8
BLACK
6
CONTINUOUS
10
5.2090588188976374
20
-6.4419062598425194
11
5.2094423228346454
21
-6.4419738582677164
0
LINE
8
BLACK
6
CONTINUOUS
10
5.1956557480314958
20
-6.4493145669291341
11
5.1927379133858267
21
-6.4522324015748032
0
LINE
8
BLACK
6
CONTINUOUS
10
5.1927379133858267
20
-6.4522324015748032
11
5.1912224015748034
21
-6.4552633858267718
0
LINE
8
BLACK
6
CONTINUOUS
10
5.1912224015748034
20
-6.4552633858267718
11
5.1895144094488188
21
-6.462095433070866
0
LINE
8
BLACK
6
CONTINUOUS
10
5.1895144094488188
20
-6.462095433070866
11
5.1895144094488188
21
-6.4669926377952756
0
LINE
8
BLACK
6
CONTINUOUS
10
5.1895144094488188
20
-6.4669926377952756
11
5.1912224015748034
21
-6.4738246850393697
0
LINE
8
BLACK
6
CONTINUOUS
10
5.1912224015748034
20
-6.4738246850393697
11
5.1927379133858267
21
-6.4768556692913384
0
LINE
8
BLACK
6
CONTINUOUS
10
5.1927379133858267
20
-6.4768556692913384
11
5.1956557480314958
21
-6.4797735433070862
0
LINE
8
BLACK
6
CONTINUOUS
10
5.1956557480314958
20
-6.4797735433070862
11
5.2001641338582676
21
-6.4812763385826768
0
LINE
8
BLACK
6
CONTINUOUS
10
5.2001641338582676
20
-6.4812763385826768
11
5.2061060629921263
21
-6.4812763385826768
0
LINE
8
BLACK
6
CONTINUOUS
10
5.2061060629921263
20
-6.4812763385826768
11
5.2061060629921263
21
-6.4478117716535435
0
LINE
8
BLACK
6
CONTINUOUS
10
5.2061060629921263
20
-6.4478117716535435
11
5.2001641338582676
21
-6.4478117716535435
0
LINE
8
BLACK
6
CONTINUOUS
10
5.2001641338582676
20
-6.4478117716535435
11
5.1956557480314958
21
-6.4493145669291341
0
LINE
8
BLACK
6
CONTINUOUS
10
5.2882209842519687
20
-6.4014377952755908
11
5.2883555511811027
21
-6.401426062992126
0
LINE
8
BLACK
6
CONTINUOUS
10
5.2883555511811027
20
-6.401426062992126
11
5.2890837007874012
21
-6.4019359055118112
0
LINE
8
BLACK
6
CONTINUOUS
10
5.2890837007874012
20
-6.4019359055118112
11
5.2898532283464563
21
-6.4023802362204725
0
LINE
8
BLACK
6
CONTINUOUS
10
5.2898532283464563
20
-6.4023802362204725
11
5.2898993700787402
21
-6.4025070866141727
0
LINE
8
BLACK
6
CONTINUOUS
10
5.2898993700787402
20
-6.4025070866141727
11
5.2900100787401572
21
-6.4025846062992127
0
LINE
8
BLACK
6
CONTINUOUS
10
5.2900100787401572
20
-6.4025846062992127
11
5.2902400787401573
21
-6.4034431102362204
0
LINE
8
BLACK
6
CONTINUOUS
10
5.2902400787401573
20
-6.4034431102362204
11
5.2905440551181098
21
-6.4042782283464561
0
LINE
8
BLACK
6
CONTINUOUS
10
5.2905440551181098
20
-6.4042782283464561
11
5.2905440551181098
21
-6.4286501574803152
0
LINE
8
BLACK
6
CONTINUOUS
10
5.2905440551181098
20
-6.4286501574803152
11
5.2903659842519684
21
-6.4296600787401577
0
LINE
8
BLACK
6
CONTINUOUS
10
5.2903659842519684
20
-6.4296600787401577
11
5.2890676771653542
21
-6.4312073228346458
0
LINE
8
BLACK
6
CONTINUOUS
10
5.2890676771653542
20
-6.4312073228346458
11
5.2870785433070866
21
-6.4315580708661413
0
LINE
8
BLACK
6
CONTINUOUS
10
5.2870785433070866
20
-6.4315580708661413
11
5.28532937007874
21
-6.4305481496062988
0
LINE
8
BLACK
6
CONTINUOUS
10
5.28532937007874
20
-6.4305481496062988
11
5.2846385433070866
21
-6.4286501574803152
0
LINE
8
BLACK
6
CONTINUOUS
10
5.2846385433070866
20
-6.4286501574803152
11
5.2846385433070866
21
-6.4114067716535432
0
LINE
8
BLACK
6
CONTINUOUS
10
5.2846385433070866
20
-6.4114067716535432
11
5.2671820078740152
21
-6.4288633070866137
0
LINE
8
BLACK
6
CONTINUOUS
10
5.2671820078740152
20
-6.4288633070866137
11
5.2663419685039372
21
-6.4294514960629918
0
LINE
8
BLACK
6
CONTINUOUS
10
5.2663419685039372
20
-6.4294514960629918
11
5.2661661023622042
21
-6.4294668503937009
0
LINE
8
BLACK
6
CONTINUOUS
10
5.2661661023622042
20
-6.4294668503937009
11
5.2660278346456693
21
-6.4295766141732278
0
LINE
8
BLACK
6
CONTINUOUS
10
5.2660278346456693
20
-6.4295766141732278
11
5.2604035433070866
21
-6.4314513779527553
0
LINE
8
BLACK
6
CONTINUOUS
10
5.2604035433070866
20
-6.4314513779527553
11
5.2595303543307086
21
-6.4315808267716532
0
LINE
8
BLACK
6
CONTINUOUS
10
5.2595303543307086
20
-6.4315808267716532
11
5.2594698031496065
21
-6.4316029133858263
0
LINE
8
BLACK
6
CONTINUOUS
10
5.2594698031496065
20
-6.4316029133858263
11
5.2557202755905514
21
-6.4316029133858263
0
LINE
8
BLACK
6
CONTINUOUS
10
5.2557202755905514
20
-6.4316029133858263
11
5.2547103543307081
21
-6.4314248425196849
0
LINE
8
BLACK
6
CONTINUOUS
10
5.2547103543307081
20
-6.4314248425196849
11
5.2545750787401575
21
-6.4313113385826775
0
LINE
8
BLACK
6
CONTINUOUS
10
5.2545750787401575
20
-6.4313113385826775
11
5.254399763779527
21
-6.4312911811023623
0
LINE
8
BLACK
6
CONTINUOUS
10
5.254399763779527
20
-6.4312911811023623
11
5.2506502362204719
21
-6.4294164173228348
0
LINE
8
BLACK
6
CONTINUOUS
10
5.2506502362204719
20
-6.4294164173228348
11
5.2499411417322834
21
-6.4288905118110238
0
LINE
8
BLACK
6
CONTINUOUS
10
5.2499411417322834
20
-6.4288905118110238
11
5.2498828346456694
21
-6.4288633070866137
0
LINE
8
BLACK
6
CONTINUOUS
10
5.2498828346456694
20
-6.4288633070866137
11
5.2480080708661418
21
-6.4269885433070861
0
LINE
8
BLACK
6
CONTINUOUS
10
5.2480080708661418
20
-6.4269885433070861
11
5.2475017716535435
21
-6.4262654330708662
0
LINE
8
BLACK
6
CONTINUOUS
10
5.2475017716535435
20
-6.4262654330708662
11
5.2474549606299208
21
-6.4262211417322836
0
LINE
8
BLACK
6
CONTINUOUS
10
5.2474549606299208
20
-6.4262211417322836
11
5.2455801968503932
21
-6.4224716141732285
0
LINE
8
BLACK
6
CONTINUOUS
10
5.2455801968503932
20
-6.4224716141732285
11
5.2452878346456693
21
-6.4214886614173228
0
LINE
8
BLACK
6
CONTINUOUS
10
5.2452878346456693
20
-6.4214886614173228
11
5.2453288188976375
21
-6.4213169685039366
0
LINE
8
BLACK
6
CONTINUOUS
10
5.2453288188976375
20
-6.4213169685039366
11
5.2452684645669292
21
-6.421151102362205
0
LINE
8
BLACK
6
CONTINUOUS
10
5.2452684645669292
20
-6.421151102362205
11
5.2452684645669292
21
-6.4117772834645672
0
LINE
8
BLACK
6
CONTINUOUS
10
5.2452684645669292
20
-6.4117772834645672
11
5.2454465354330706
21
-6.4107673622047239
0
LINE
8
BLACK
6
CONTINUOUS
10
5.2454465354330706
20
-6.4107673622047239
11
5.2455600000000002
21
-6.4106320866141733
0
LINE
8
BLACK
6
CONTINUOUS
10
5.2455600000000002
20
-6.4106320866141733
11
5.2455801968503932
21
-6.4104567716535428
0
LINE
8
BLACK
6
CONTINUOUS
10
5.2455801968503932
20
-6.4104567716535428
11
5.2474549606299208
21
-6.4067072440944877
0
LINE
8
BLACK
6
CONTINUOUS
10
5.2474549606299208
20
-6.4067072440944877
11
5.2479808661417318
21
-6.4059981496062992
0
LINE
8
BLACK
6
CONTINUOUS
10
5.2479808661417318
20
-6.4059981496062992
11
5.2480080708661418
21
-6.4059398425196852
0
LINE
8
BLACK
6
CONTINUOUS
10
5.2480080708661418
20
-6.4059398425196852
11
5.2498828346456694
21
-6.4040650787401576
0
LINE
8
BLACK
6
CONTINUOUS
10
5.2498828346456694
20
-6.4040650787401576
11
5.2507228740157483
21
-6.4034768897637795
0
LINE
8
BLACK
6
CONTINUOUS
10
5.2507228740157483
20
-6.4034768897637795
11
5.2527349606299207
21
-6.4033008661417323
0
LINE
8
BLACK
6
CONTINUOUS
10
5.2527349606299207
20
-6.4033008661417323
11
5.2543895275590549
21
-6.4044593700787402
0
LINE
8
BLACK
6
CONTINUOUS
10
5.2543895275590549
20
-6.4044593700787402
11
5.2549122440944878
21
-6.4064103543307089
0
LINE
8
BLACK
6
CONTINUOUS
10
5.2549122440944878
20
-6.4064103543307089
11
5.2540586614173224
21
-6.4082409055118106
0
LINE
8
BLACK
6
CONTINUOUS
10
5.2540586614173224
20
-6.4082409055118106
11
5.2525227165354327
21
-6.4097768503937003
0
LINE
8
BLACK
6
CONTINUOUS
10
5.2525227165354327
20
-6.4097768503937003
11
5.2511739763779524
21
-6.4124743307086609
0
LINE
8
BLACK
6
CONTINUOUS
10
5.2511739763779524
20
-6.4124743307086609
11
5.2511739763779524
21
-6.4204540551181104
0
LINE
8
BLACK
6
CONTINUOUS
10
5.2511739763779524
20
-6.4204540551181104
11
5.2525227165354327
21
-6.423151535433071
0
LINE
8
BLACK
6
CONTINUOUS
10
5.2525227165354327
20
-6.423151535433071
11
5.2537198425196845
21
-6.4243486614173229
0
LINE
8
BLACK
6
CONTINUOUS
10
5.2537198425196845
20
-6.4243486614173229
11
5.2564173228346451
21
-6.4256974015748032
0
LINE
8
BLACK
6
CONTINUOUS
10
5.2564173228346451
20
-6.4256974015748032
11
5.2589906692913386
21
-6.4256974015748032
0
LINE
8
BLACK
6
CONTINUOUS
10
5.2589906692913386
20
-6.4256974015748032
11
5.2634990551181104
21
-6.4241945669291338
0
LINE
8
BLACK
6
CONTINUOUS
10
5.2634990551181104
20
-6.4241945669291338
11
5.2855033858267717
21
-6.4021903149606301
0
LINE
8
BLACK
6
CONTINUOUS
10
5.2855033858267717
20
-6.4021903149606301
11
5.2860314173228344
21
-6.4018205118110236
0
LINE
8
BLACK
6
CONTINUOUS
10
5.2860314173228344
20
-6.4018205118110236
11
5.2861149212598422
21
-6.4017210629921255
0
LINE
8
BLACK
6
CONTINUOUS
10
5.2861149212598422
20
-6.4017210629921255
11
5.2861932283464563
21
-6.4017072440944878
0
LINE
8
BLACK
6
CONTINUOUS
10
5.2861932283464563
20
-6.4017072440944878
11
5.2863434251968506
21
-6.4016020866141732
0
LINE
8
BLACK
6
CONTINUOUS
10
5.2863434251968506
20
-6.4016020866141732
11
5.2872289763779525
21
-6.4015246062992128
0
LINE
8
BLACK
6
CONTINUOUS
10
5.2872289763779525
20
-6.4015246062992128
11
5.2881040551181098
21
-6.40137031496063
0
LINE
8
BLACK
6
CONTINUOUS
10
5.2881040551181098
20
-6.40137031496063
11
5.2882209842519687
21
-6.4014377952755908
0
LINE
8
BLACK
6
CONTINUOUS
10
5.1847894488188979
20
-6.4208473622047242
11
5.1863366929133861
21
-6.4221456692913383
0
LINE
8
BLACK
6
CONTINUOUS
10
5.1863366929133861
20
-6.4221456692913383
11
5.1866874409448815
21
-6.4241348031496059
0
LINE
8
BLACK
6
CONTINUOUS
10
5.1866874409448815
20
-6.4241348031496059
11
5.1856775196850391
21
-6.4258839763779525
0
LINE
8
BLACK
6
CONTINUOUS
10
5.1856775196850391
20
-6.4258839763779525
11
5.1837795275590546
21
-6.4265748031496059
0
LINE
8
BLACK
6
CONTINUOUS
10
5.1837795275590546
20
-6.4265748031496059
11
5.1562204724409444
21
-6.4265748031496059
0
LINE
8
BLACK
6
CONTINUOUS
10
5.1562204724409444
20
-6.4265748031496059
11
5.1552105511811019
21
-6.4263967322834645
0
LINE
8
BLACK
6
CONTINUOUS
10
5.1552105511811019
20
-6.4263967322834645
11
5.1536633070866138
21
-6.4250984251968504
0
LINE
8
BLACK
6
CONTINUOUS
10
5.1536633070866138
20
-6.4250984251968504
11
5.1533125590551183
21
-6.4231092913385828
0
LINE
8
BLACK
6
CONTINUOUS
10
5.1533125590551183
20
-6.4231092913385828
11
5.1543224803149608
21
-6.4213601181102362
0
LINE
8
BLACK
6
CONTINUOUS
10
5.1543224803149608
20
-6.4213601181102362
11
5.1562204724409444
21
-6.4206692913385828
0
LINE
8
BLACK
6
CONTINUOUS
10
5.1562204724409444
20
-6.4206692913385828
11
5.1837795275590546
21
-6.4206692913385828
0
LINE
8
BLACK
6
CONTINUOUS
10
5.1837795275590546
20
-6.4206692913385828
11
5.1847894488188979
21
-6.4208473622047242
0
LINE
8
BLACK
6
CONTINUOUS
10
5.1388562598425196
20
-6.3507218110236217
11
5.1390256692913381
21
-6.3507109055118107
0
LINE
8
BLACK
6
CONTINUOUS
10
5.1390256692913381
20
-6.3507109055118107
11
5.1397162598425199
21
-6.3512183464566929
0
LINE
8
BLACK
6
CONTINUOUS
10
5.1397162598425199
20
-6.3512183464566929
11
5.1404583858267712
21
-6.3516468503937009
0
LINE
8
BLACK
6
CONTINUOUS
10
5.1404583858267712
20
-6.3516468503937009
11
5.1405164173228348
21
-6.3518063385826773
0
LINE
8
BLACK
6
CONTINUOUS
10
5.1405164173228348
20
-6.3518063385826773
11
5.1406533070866143
21
-6.3519069291338583
0
LINE
8
BLACK
6
CONTINUOUS
10
5.1406533070866143
20
-6.3519069291338583
11
5.14424062992126
21
-6.3572879527559056
0
LINE
8
BLACK
6
CONTINUOUS
10
5.14424062992126
20
-6.3572879527559056
11
5.1474446062992127
21
-6.3604919291338584
0
LINE
8
BLACK
6
CONTINUOUS
10
5.1474446062992127
20
-6.3604919291338584
11
5.1507655511811024
21
-6.3621524015748028
0
LINE
8
BLACK
6
CONTINUOUS
10
5.1507655511811024
20
-6.3621524015748028
11
5.1515892125984255
21
-6.3627633070866141
0
LINE
8
BLACK
6
CONTINUOUS
10
5.1515892125984255
20
-6.3627633070866141
11
5.1523924803149601
21
-6.3646164960629923
0
LINE
8
BLACK
6
CONTINUOUS
10
5.1523924803149601
20
-6.3646164960629923
11
5.151816614173228
21
-6.3665525196850394
0
LINE
8
BLACK
6
CONTINUOUS
10
5.151816614173228
20
-6.3665525196850394
11
5.1501310629921262
21
-6.3676653543307085
0
LINE
8
BLACK
6
CONTINUOUS
10
5.1501310629921262
20
-6.3676653543307085
11
5.1481245275590553
21
-6.3674344488188979
0
LINE
8
BLACK
6
CONTINUOUS
10
5.1481245275590553
20
-6.3674344488188979
11
5.1443750000000001
21
-6.3655596850393703
0
LINE
8
BLACK
6
CONTINUOUS
10
5.1443750000000001
20
-6.3655596850393703
11
5.1436659055118108
21
-6.3650337401574806
0
LINE
8
BLACK
6
CONTINUOUS
10
5.1436659055118108
20
-6.3650337401574806
11
5.1436075984251968
21
-6.3650065748031492
0
LINE
8
BLACK
6
CONTINUOUS
10
5.1436075984251968
20
-6.3650065748031492
11
5.1411492125984255
21
-6.362548188976378
0
LINE
8
BLACK
6
CONTINUOUS
10
5.1411492125984255
20
-6.362548188976378
11
5.1411492125984255
21
-6.3899621653543308
0
LINE
8
BLACK
6
CONTINUOUS
10
5.1411492125984255
20
-6.3899621653543308
11
5.1494450393700788
21
-6.3899621653543308
0
LINE
8
BLACK
6
CONTINUOUS
10
5.1494450393700788
20
-6.3899621653543308
11
5.1504549606299213
21
-6.3901402362204722
0
LINE
8
BLACK
6
CONTINUOUS
10
5.1504549606299213
20
-6.3901402362204722
11
5.1520022047244094
21
-6.3914385433070864
0
LINE
8
BLACK
6
CONTINUOUS
10
5.1520022047244094
20
-6.3914385433070864
11
5.1523529527559058
21
-6.393427677165354
0
LINE
8
BLACK
6
CONTINUOUS
10
5.1523529527559058
20
-6.393427677165354
11
5.1513430314960633
21
-6.3951768503937005
0
LINE
8
BLACK
6
CONTINUOUS
10
5.1513430314960633
20
-6.3951768503937005
11
5.1494450393700788
21
-6.395867677165354
0
LINE
8
BLACK
6
CONTINUOUS
10
5.1494450393700788
20
-6.395867677165354
11
5.1269478740157481
21
-6.395867677165354
0
LINE
8
BLACK
6
CONTINUOUS
10
5.1269478740157481
20
-6.395867677165354
11
5.1259379527559057
21
-6.3956896062992126
0
LINE
8
BLACK
6
CONTINUOUS
10
5.1259379527559057
20
-6.3956896062992126
11
5.1243907086614175
21
-6.3943912992125984
0
LINE
8
BLACK
6
CONTINUOUS
10
5.1243907086614175
20
-6.3943912992125984
11
5.1240399606299212
21
-6.3924021653543308
0
LINE
8
BLACK
6
CONTINUOUS
10
5.1240399606299212
20
-6.3924021653543308
11
5.1250498818897636
21
-6.3906529921259843
0
LINE
8
BLACK
6
CONTINUOUS
10
5.1250498818897636
20
-6.3906529921259843
11
5.1269478740157481
21
-6.3899621653543308
0
LINE
8
BLACK
6
CONTINUOUS
10
5.1269478740157481
20
-6.3899621653543308
11
5.1352437007874014
21
-6.3899621653543308
0
LINE
8
BLACK
6
CONTINUOUS
10
5.1352437007874014
20
-6.3899621653543308
11
5.1352437007874014
21
-6.3535448425196845
0
LINE
8
BLACK
6
CONTINUOUS
10
5.1352437007874014
20
-6.3535448425196845
11
5.1354217716535429
21
-6.3525349212598421
0
LINE
8
BLACK
6
CONTINUOUS
10
5.1354217716535429
20
-6.3525349212598421
11
5.1355308661417318
21
-6.3524048425196851
0
LINE
8
BLACK
6
CONTINUOUS
10
5.1355308661417318
20
-6.3524048425196851
11
5.135549566929134
21
-6.3522361023622045
0
LINE
8
BLACK
6
CONTINUOUS
10
5.135549566929134
20
-6.3522361023622045
11
5.1361691732283461
21
-6.3516441732283466
0
LINE
8
BLACK
6
CONTINUOUS
10
5.1361691732283461
20
-6.3516441732283466
11
5.136720078740157
21
-6.350987677165354
0
LINE
8
BLACK
6
CONTINUOUS
10
5.136720078740157
20
-6.350987677165354
11
5.1368872834645671
21
-6.350958188976378
0
LINE
8
BLACK
6
CONTINUOUS
10
5.1368872834645671
20
-6.350958188976378
11
5.1370100787401576
21
-6.3508409055118111
0
LINE
8
BLACK
6
CONTINUOUS
10
5.1370100787401576
20
-6.3508409055118111
11
5.1378651968503934
21
-6.3507857480314955
0
LINE
8
BLACK
6
CONTINUOUS
10
5.1378651968503934
20
-6.3507857480314955
11
5.1387092125984255
21
-6.3506369291338585
0
LINE
8
BLACK
6
CONTINUOUS
10
5.1387092125984255
20
-6.3506369291338585
11
5.1388562598425196
21
-6.3507218110236217
0
LINE
8
BLACK
6
CONTINUOUS
10
5.1910770472440948
20
-6.3516468503937009
11
5.1917678740157482
21
-6.3535448425196845
0
LINE
8
BLACK
6
CONTINUOUS
10
5.1917678740157482
20
-6.3535448425196845
11
5.1917678740157482
21
-6.385415826771653
0
LINE
8
BLACK
6
CONTINUOUS
10
5.1917678740157482
20
-6.385415826771653
11
5.1915898031496059
21
-6.3864257480314963
0
LINE
8
BLACK
6
CONTINUOUS
10
5.1915898031496059
20
-6.3864257480314963
11
5.1914762992125985
21
-6.3865609842519682
0
LINE
8
BLACK
6
CONTINUOUS
10
5.1914762992125985
20
-6.3865609842519682
11
5.1914561417322833
21
-6.3867363385826774
0
LINE
8
BLACK
6
CONTINUOUS
10
5.1914561417322833
20
-6.3867363385826774
11
5.1895813779527558
21
-6.3904858661417325
0
LINE
8
BLACK
6
CONTINUOUS
10
5.1895813779527558
20
-6.3904858661417325
11
5.189055433070866
21
-6.3911949212598422
0
LINE
8
BLACK
6
CONTINUOUS
10
5.189055433070866
20
-6.3911949212598422
11
5.1890282677165356
21
-6.391253267716535
0
LINE
8
BLACK
6
CONTINUOUS
10
5.1890282677165356
20
-6.391253267716535
11
5.1871535433070868
21
-6.3931280314960626
0
LINE
8
BLACK
6
CONTINUOUS
10
5.1871535433070868
20
-6.3931280314960626
11
5.1864303543307084
21
-6.3936344094488184
0
LINE
8
BLACK
6
CONTINUOUS
10
5.1864303543307084
20
-6.3936344094488184
11
5.1863861023622047
21
-6.3936811811023624
0
LINE
8
BLACK
6
CONTINUOUS
10
5.1863861023622047
20
-6.3936811811023624
11
5.1826365748031495
21
-6.3955559448818899
0
LINE
8
BLACK
6
CONTINUOUS
10
5.1826365748031495
20
-6.3955559448818899
11
5.1816536220472438
21
-6.3958483070866139
0
LINE
8
BLACK
6
CONTINUOUS
10
5.1816536220472438
20
-6.3958483070866139
11
5.1814819291338585
21
-6.395807283464567
0
LINE
8
BLACK
6
CONTINUOUS
10
5.1814819291338585
20
-6.395807283464567
11
5.181316062992126
21
-6.395867677165354
0
LINE
8
BLACK
6
CONTINUOUS
10
5.181316062992126
20
-6.395867677165354
11
5.1738170078740158
21
-6.395867677165354
0
LINE
8
BLACK
6
CONTINUOUS
10
5.1738170078740158
20
-6.395867677165354
11
5.1728070866141733
21
-6.3956896062992126
0
LINE
8
BLACK
6
CONTINUOUS
10
5.1728070866141733
20
-6.3956896062992126
11
5.1726718110236218
21
-6.3955761023622042
0
LINE
8
BLACK
6
CONTINUOUS
10
5.1726718110236218
20
-6.3955761023622042
11
5.1724964960629922
21
-6.3955559448818899
0
LINE
8
BLACK
6
CONTINUOUS
10
5.1724964960629922
20
-6.3955559448818899
11
5.1687469685039371
21
-6.3936811811023624
0
LINE
8
BLACK
6
CONTINUOUS
10
5.1687469685039371
20
-6.3936811811023624
11
5.168037834645669
21
-6.3931551968503939
0
LINE
8
BLACK
6
CONTINUOUS
10
5.168037834645669
20
-6.3931551968503939
11
5.167979527559055
21
-6.3931280314960626
0
LINE
8
BLACK
6
CONTINUOUS
10
5.167979527559055
20
-6.3931280314960626
11
5.1661047637795274
21
-6.3912532283464563
0
LINE
8
BLACK
6
CONTINUOUS
10
5.1661047637795274
20
-6.3912532283464563
11
5.1655984645669291
21
-6.3905301574803151
0
LINE
8
BLACK
6
CONTINUOUS
10
5.1655984645669291
20
-6.3905301574803151
11
5.165551692913386
21
-6.3904858661417325
0
LINE
8
BLACK
6
CONTINUOUS
10
5.165551692913386
20
-6.3904858661417325
11
5.1636769291338585
21
-6.3867363385826774
0
LINE
8
BLACK
6
CONTINUOUS
10
5.1636769291338585
20
-6.3867363385826774
11
5.1633845669291336
21
-6.3857533858267717
0
LINE
8
BLACK
6
CONTINUOUS
10
5.1633845669291336
20
-6.3857533858267717
11
5.1634255511811018
21
-6.3855816929133855
0
LINE
8
BLACK
6
CONTINUOUS
10
5.1634255511811018
20
-6.3855816929133855
11
5.1633651968503935
21
-6.385415826771653
0
LINE
8
BLACK
6
CONTINUOUS
10
5.1633651968503935
20
-6.385415826771653
11
5.1633651968503935
21
-6.379330708661417
0
LINE
8
BLACK
6
CONTINUOUS
10
5.1633651968503935
20
-6.379330708661417
11
5.1562204724409444
21
-6.379330708661417
0
LINE
8
BLACK
6
CONTINUOUS
10
5.1562204724409444
20
-6.379330708661417
11
5.1552105511811019
21
-6.3791526377952756
0
LINE
8
BLACK
6
CONTINUOUS
10
5.1552105511811019
20
-6.3791526377952756
11
5.1536633070866138
21
-6.3778543307086615
0
LINE
8
BLACK
6
CONTINUOUS
10
5.1536633070866138
20
-6.3778543307086615
11
5.1533125590551183
21
-6.3758651968503939
0
LINE
8
BLACK
6
CONTINUOUS
10
5.1533125590551183
20
-6.3758651968503939
11
5.1543224803149608
21
-6.3741160236220473
0
LINE
8
BLACK
6
CONTINUOUS
10
5.1543224803149608
20
-6.3741160236220473
11
5.1562204724409444
21
-6.3734251968503939
0
LINE
8
BLACK
6
CONTINUOUS
10
5.1562204724409444
20
-6.3734251968503939
11
5.1633651968503935
21
-6.3734251968503939
0
LINE
8
BLACK
6
CONTINUOUS
10
5.1633651968503935
20
-6.3734251968503939
11
5.1633651968503935
21
-6.3535448425196845
0
LINE
8
BLACK
6
CONTINUOUS
10
5.1633651968503935
20
-6.3535448425196845
11
5.1635432677165349
21
-6.3525349212598421
0
LINE
8
BLACK
6
CONTINUOUS
10
5.1635432677165349
20
-6.3525349212598421
11
5.1648415748031491
21
-6.350987677165354
0
LINE
8
BLACK
6
CONTINUOUS
10
5.1648415748031491
20
-6.350987677165354
11
5.1668307086614176
21
-6.3506369291338585
0
LINE
8
BLACK
6
CONTINUOUS
10
5.1668307086614176
20
-6.3506369291338585
11
5.1685798818897633
21
-6.3516468503937009
0
LINE
8
BLACK
6
CONTINUOUS
10
5.1685798818897633
20
-6.3516468503937009
11
5.1692707086614176
21
-6.3535448425196845
0
LINE
8
BLACK
6
CONTINUOUS
10
5.1692707086614176
20
-6.3535448425196845
11
5.1692707086614176
21
-6.3734251968503939
0
LINE
8
BLACK
6
CONTINUOUS
10
5.1692707086614176
20
-6.3734251968503939
11
5.1837795275590546
21
-6.3734251968503939
0
LINE
8
BLACK
6
CONTINUOUS
10
5.1837795275590546
20
-6.3734251968503939
11
5.1847894488188979
21
-6.3736032677165353
0
LINE
8
BLACK
6
CONTINUOUS
10
5.1847894488188979
20
-6.3736032677165353
11
5.1858623622047242
21
-6.3745035433070862
0
LINE
8
BLACK
6
CONTINUOUS
10
5.1858623622047242
20
-6.3745035433070862
11
5.1858623622047242
21
-6.3535448425196845
0
LINE
8
BLACK
6
CONTINUOUS
10
5.1858623622047242
20
-6.3535448425196845
11
5.1860404330708656
21
-6.3525349212598421
0
LINE
8
BLACK
6
CONTINUOUS
10
5.1860404330708656
20
-6.3525349212598421
11
5.1873387401574798
21
-6.350987677165354
0
LINE
8
BLACK
6
CONTINUOUS
10
5.1873387401574798
20
-6.350987677165354
11
5.1893278740157482
21
-6.3506369291338585
0
LINE
8
BLACK
6
CONTINUOUS
10
5.1893278740157482
20
-6.3506369291338585
11
5.1910770472440948
21
-6.3516468503937009
0
LINE
8
BLACK
6
CONTINUOUS
10
5.1856775196850391
20
-6.3786398818897636
11
5.1837795275590546
21
-6.379330708661417
0
LINE
8
BLACK
6
CONTINUOUS
10
5.1837795275590546
20
-6.379330708661417
11
5.1692707086614176
21
-6.379330708661417
0
LINE
8
BLACK
6
CONTINUOUS
10
5.1692707086614176
20
-6.379330708661417
11
5.1692707086614176
21
-6.3847187795275593
0
LINE
8
BLACK
6
CONTINUOUS
10
5.1692707086614176
20
-6.3847187795275593
11
5.1706194488188979
21
-6.3874162598425199
0
LINE
8
BLACK
6
CONTINUOUS
10
5.1706194488188979
20
-6.3874162598425199
11
5.1718165748031497
21
-6.3886134251968505
0
LINE
8
BLACK
6
CONTINUOUS
10
5.1718165748031497
20
-6.3886134251968505
11
5.1745140551181104
21
-6.3899621653543308
0
LINE
8
BLACK
6
CONTINUOUS
10
5.1745140551181104
20
-6.3899621653543308
11
5.1806190157480314
21
-6.3899621653543308
0
LINE
8
BLACK
6
CONTINUOUS
10
5.1806190157480314
20
-6.3899621653543308
11
5.1833164566929133
21
-6.3886134251968505
0
LINE
8
BLACK
6
CONTINUOUS
10
5.1833164566929133
20
-6.3886134251968505
11
5.1845135826771651
21
-6.3874162598425199
0
LINE
8
BLACK
6
CONTINUOUS
10
5.1845135826771651
20
-6.3874162598425199
11
5.1858623622047242
21
-6.3847187795275593
0
LINE
8
BLACK
6
CONTINUOUS
10
5.1858623622047242
20
-6.3847187795275593
11
5.1858623622047242
21
-6.3783197244094483
0
LINE
8
BLACK
6
CONTINUOUS
10
5.1858623622047242
20
-6.3783197244094483
11
5.1856775196850391
21
-6.3786398818897636
0
LINE
8
BLACK
6
CONTINUOUS
10
5.27129874015748
20
-6.3639324803149604
11
5.2714345275590553
21
-6.3639183070866139
0
LINE
8
BLACK
6
CONTINUOUS
10
5.2714345275590553
20
-6.3639183070866139
11
5.2789335826771655
21
-6.3657930708661414
0
LINE
8
BLACK
6
CONTINUOUS
10
5.2789335826771655
20
-6.3657930708661414
11
5.2793990157480311
21
-6.3660006299212597
0
LINE
8
BLACK
6
CONTINUOUS
10
5.2793990157480311
20
-6.3660006299212597
11
5.2795379527559056
21
-6.3660166535433067
0
LINE
8
BLACK
6
CONTINUOUS
10
5.2795379527559056
20
-6.3660166535433067
11
5.2832874803149608
21
-6.3678914173228343
0
LINE
8
BLACK
6
CONTINUOUS
10
5.2832874803149608
20
-6.3678914173228343
11
5.2839965354330705
21
-6.3684173228346452
0
LINE
8
BLACK
6
CONTINUOUS
10
5.2839965354330705
20
-6.3684173228346452
11
5.2840548818897632
21
-6.3684445275590553
0
LINE
8
BLACK
6
CONTINUOUS
10
5.2840548818897632
20
-6.3684445275590553
11
5.2878044488188971
21
-6.3721940551181104
0
LINE
8
BLACK
6
CONTINUOUS
10
5.2878044488188971
20
-6.3721940551181104
11
5.288392677165354
21
-6.3730340944881885
0
LINE
8
BLACK
6
CONTINUOUS
10
5.288392677165354
20
-6.3730340944881885
11
5.2884080314960631
21
-6.3732100000000003
0
LINE
8
BLACK
6
CONTINUOUS
10
5.2884080314960631
20
-6.3732100000000003
11
5.2885177559055121
21
-6.3733482283464564
0
LINE
8
BLACK
6
CONTINUOUS
10
5.2885177559055121
20
-6.3733482283464564
11
5.2903925196850397
21
-6.3789724803149603
0
LINE
8
BLACK
6
CONTINUOUS
10
5.2903925196850397
20
-6.3789724803149603
11
5.2905220078740154
21
-6.3798457086614171
0
LINE
8
BLACK
6
CONTINUOUS
10
5.2905220078740154
20
-6.3798457086614171
11
5.2905440551181098
21
-6.3799062598425191
0
LINE
8
BLACK
6
CONTINUOUS
10
5.2905440551181098
20
-6.3799062598425191
11
5.2905440551181098
21
-6.3836557874015742
0
LINE
8
BLACK
6
CONTINUOUS
10
5.2905440551181098
20
-6.3836557874015742
11
5.2903907480314958
21
-6.384525157480315
0
LINE
8
BLACK
6
CONTINUOUS
10
5.2903907480314958
20
-6.384525157480315
11
5.2903925196850397
21
-6.3845895669291339
0
LINE
8
BLACK
6
CONTINUOUS
10
5.2903925196850397
20
-6.3845895669291339
11
5.2885177559055121
21
-6.3902138188976378
0
LINE
8
BLACK
6
CONTINUOUS
10
5.2885177559055121
20
-6.3902138188976378
11
5.2880294488188975
21
-6.3911155905511814
0
LINE
8
BLACK
6
CONTINUOUS
10
5.2880294488188975
20
-6.3911155905511814
11
5.2878790157480315
21
-6.3912079921259837
0
LINE
8
BLACK
6
CONTINUOUS
10
5.2878790157480315
20
-6.3912079921259837
11
5.2878044094488184
21
-6.3913680314960626
0
LINE
8
BLACK
6
CONTINUOUS
10
5.2878044094488184
20
-6.3913680314960626
11
5.285929606299212
21
-6.3932427952755901
0
LINE
8
BLACK
6
CONTINUOUS
10
5.285929606299212
20
-6.3932427952755901
11
5.285089566929134
21
-6.3938309842519683
0
LINE
8
BLACK
6
CONTINUOUS
10
5.285089566929134
20
-6.3938309842519683
11
5.2830774803149607
21
-6.3940069685039367
0
LINE
8
BLACK
6
CONTINUOUS
10
5.2830774803149607
20
-6.3940069685039367
11
5.2814229527559053
21
-6.3928484645669288
0
LINE
8
BLACK
6
CONTINUOUS
10
5.2814229527559053
20
-6.3928484645669288
11
5.2809002362204724
21
-6.3908974803149601
0
LINE
8
BLACK
6
CONTINUOUS
10
5.2809002362204724
20
-6.3908974803149601
11
5.2817538582677166
21
-6.3890668897637797
0
LINE
8
BLACK
6
CONTINUOUS
10
5.2817538582677166
20
-6.3890668897637797
11
5.283135748031496
21
-6.3876850000000003
0
LINE
8
BLACK
6
CONTINUOUS
10
5.283135748031496
20
-6.3876850000000003
11
5.2846385433070866
21
-6.3831766535433072
0
LINE
8
BLACK
6
CONTINUOUS
10
5.2846385433070866
20
-6.3831766535433072
11
5.2846385433070866
21
-6.3803853937007871
0
LINE
8
BLACK
6
CONTINUOUS
10
5.2846385433070866
20
-6.3803853937007871
11
5.283135748031496
21
-6.3758770078740152
0
LINE
8
BLACK
6
CONTINUOUS
10
5.283135748031496
20
-6.3758770078740152
11
5.2802178740157482
21
-6.3729591732283462
0
LINE
8
BLACK
6
CONTINUOUS
10
5.2802178740157482
20
-6.3729591732283462
11
5.2771868897637795
21
-6.3714436614173229
0
LINE
8
BLACK
6
CONTINUOUS
10
5.2771868897637795
20
-6.3714436614173229
11
5.2703548425196853
21
-6.3697356692913383
0
LINE
8
BLACK
6
CONTINUOUS
10
5.2703548425196853
20
-6.3697356692913383
11
5.2654576377952758
21
-6.3697356692913383
0
LINE
8
BLACK
6
CONTINUOUS
10
5.2654576377952758
20
-6.3697356692913383
11
5.2586255905511807
21
-6.3714436614173229
0
LINE
8
BLACK
6
CONTINUOUS
10
5.2586255905511807
20
-6.3714436614173229
11
5.255594606299212
21
-6.3729591732283462
0
LINE
8
BLACK
6
CONTINUOUS
10
5.255594606299212
20
-6.3729591732283462
11
5.252676771653543
21
-6.3758769685039365
0
LINE
8
BLACK
6
CONTINUOUS
10
5.252676771653543
20
-6.3758769685039365
11
5.2511739763779524
21
-6.3803853937007871
0
LINE
8
BLACK
6
CONTINUOUS
10
5.2511739763779524
20
-6.3803853937007871
11
5.2511739763779524
21
-6.3831766141732285
0
LINE
8
BLACK
6
CONTINUOUS
10
5.2511739763779524
20
-6.3831766141732285
11
5.252676771653543
21
-6.387685039370079
0
LINE
8
BLACK
6
CONTINUOUS
10
5.252676771653543
20
-6.387685039370079
11
5.2540586614173224
21
-6.3890669291338584
0
LINE
8
BLACK
6
CONTINUOUS
10
5.2540586614173224
20
-6.3890669291338584
11
5.2546468503937005
21
-6.3899069685039365
0
LINE
8
BLACK
6
CONTINUOUS
10
5.2546468503937005
20
-6.3899069685039365
11
5.2548228740157477
21
-6.3919190551181098
0
LINE
8
BLACK
6
CONTINUOUS
10
5.2548228740157477
20
-6.3919190551181098
11
5.2536643700787398
21
-6.3935736220472439
0
LINE
8
BLACK
6
CONTINUOUS
10
5.2536643700787398
20
-6.3935736220472439
11
5.2517133858267719
21
-6.3940963385826768
0
LINE
8
BLACK
6
CONTINUOUS
10
5.2517133858267719
20
-6.3940963385826768
11
5.2498828346456694
21
-6.3932427559055114
0
LINE
8
BLACK
6
CONTINUOUS
10
5.2498828346456694
20
-6.3932427559055114
11
5.2480080708661418
21
-6.3913679921259838
0
LINE
8
BLACK
6
CONTINUOUS
10
5.2480080708661418
20
-6.3913679921259838
11
5.2474198818897637
21
-6.3905279527559058
0
LINE
8
BLACK
6
CONTINUOUS
10
5.2474198818897637
20
-6.3905279527559058
11
5.2474044881889759
21
-6.3903520866141728
0
LINE
8
BLACK
6
CONTINUOUS
10
5.2474044881889759
20
-6.3903520866141728
11
5.2472947637795277
21
-6.3902138188976378
0
LINE
8
BLACK
6
CONTINUOUS
10
5.2472947637795277
20
-6.3902138188976378
11
5.2454200000000002
21
-6.3845895275590552
0
LINE
8
BLACK
6
CONTINUOUS
10
5.2454200000000002
20
-6.3845895275590552
11
5.2452905118110236
21
-6.3837163385826772
0
LINE
8
BLACK
6
CONTINUOUS
10
5.2452905118110236
20
-6.3837163385826772
11
5.2452684645669292
21
-6.3836557874015742
0
LINE
8
BLACK
6
CONTINUOUS
10
5.2452684645669292
20
-6.3836557874015742
11
5.2452684645669292
21
-6.3799062598425191
0
LINE
8
BLACK
6
CONTINUOUS
10
5.2452684645669292
20
-6.3799062598425191
11
5.2454217322834644
21
-6.3790368503937005
0
LINE
8
BLACK
6
CONTINUOUS
10
5.2454217322834644
20
-6.3790368503937005
11
5.2454200000000002
21
-6.3789725196850391
0
LINE
8
BLACK
6
CONTINUOUS
10
5.2454200000000002
20
-6.3789725196850391
11
5.2472947637795277
21
-6.3733482283464564
0
LINE
8
BLACK
6
CONTINUOUS
10
5.2472947637795277
20
-6.3733482283464564
11
5.2477830314960627
21
-6.3724464566929129
0
LINE
8
BLACK
6
CONTINUOUS
10
5.2477830314960627
20
-6.3724464566929129
11
5.2479334645669287
21
-6.372354015748031
0
LINE
8
BLACK
6
CONTINUOUS
10
5.2479334645669287
20
-6.372354015748031
11
5.2480080708661418
21
-6.3721940551181104
0
LINE
8
BLACK
6
CONTINUOUS
10
5.2480080708661418
20
-6.3721940551181104
11
5.251757598425197
21
-6.3684445275590553
0
LINE
8
BLACK
6
CONTINUOUS
10
5.251757598425197
20
-6.3684445275590553
11
5.2524807480314957
21
-6.3679381102362207
0
LINE
8
BLACK
6
CONTINUOUS
10
5.2524807480314957
20
-6.3679381102362207
11
5.2525249999999994
21
-6.3678914173228343
0
LINE
8
BLACK
6
CONTINUOUS
10
5.2525249999999994
20
-6.3678914173228343
11
5.2562745275590546
21
-6.3660166535433067
0
LINE
8
BLACK
6
CONTINUOUS
10
5.2562745275590546
20
-6.3660166535433067
11
5.2567629527559054
21
-6.3658713385826768
0
LINE
8
BLACK
6
CONTINUOUS
10
5.2567629527559054
20
-6.3658713385826768
11
5.2568788976377956
21
-6.3657930708661414
0
LINE
8
BLACK
6
CONTINUOUS
10
5.2568788976377956
20
-6.3657930708661414
11
5.2643779527559058
21
-6.3639183070866139
0
LINE
8
BLACK
6
CONTINUOUS
10
5.2643779527559058
20
-6.3639183070866139
11
5.264965826771653
21
-6.3638768110236219
0
LINE
8
BLACK
6
CONTINUOUS
10
5.264965826771653
20
-6.3638768110236219
11
5.2650940944881892
21
-6.3638301574803151
0
LINE
8
BLACK
6
CONTINUOUS
10
5.2650940944881892
20
-6.3638301574803151
11
5.2707183858267719
21
-6.3638301574803151
0
LINE
8
BLACK
6
CONTINUOUS
10
5.2707183858267719
20
-6.3638301574803151
11
5.27129874015748
21
-6.3639324803149604
0
LINE
8
BLACK
6
CONTINUOUS
10
4.6606459448818898
20
-6.3428961417322833
11
4.6621931889763779
21
-6.3441944488188975
0
LINE
8
BLACK
6
CONTINUOUS
10
4.6621931889763779
20
-6.3441944488188975
11
4.6625439370078743
21
-6.3461835826771651
0
LINE
8
BLACK
6
CONTINUOUS
10
4.6625439370078743
20
-6.3461835826771651
11
4.6615340157480318
21
-6.3479327559055116
0
LINE
8
BLACK
6
CONTINUOUS
10
4.6615340157480318
20
-6.3479327559055116
11
4.6596360236220473
21
-6.3486235826771651
0
LINE
8
BLACK
6
CONTINUOUS
10
4.6596360236220473
20
-6.3486235826771651
11
4.6417712598425194
21
-6.3486235826771651
0
LINE
8
BLACK
6
CONTINUOUS
10
4.6417712598425194
20
-6.3486235826771651
11
4.6506096062992128
21
-6.3587245275590547
0
LINE
8
BLACK
6
CONTINUOUS
10
4.6506096062992128
20
-6.3587245275590547
11
4.6508394881889759
21
-6.3591043700787404
0
LINE
8
BLACK
6
CONTINUOUS
10
4.6508394881889759
20
-6.3591043700787404
11
4.6509446062992126
21
-6.3591925590551179
0
LINE
8
BLACK
6
CONTINUOUS
10
4.6509446062992126
20
-6.3591925590551179
11
4.6509658267716532
21
-6.3593131102362204
0
LINE
8
BLACK
6
CONTINUOUS
10
4.6509658267716532
20
-6.3593131102362204
11
4.6511406299212599
21
-6.3596018503937009
0
LINE
8
BLACK
6
CONTINUOUS
10
4.6511406299212599
20
-6.3596018503937009
11
4.6511570866141732
21
-6.3603976771653539
0
LINE
8
BLACK
6
CONTINUOUS
10
4.6511570866141732
20
-6.3603976771653539
11
4.651295354330709
21
-6.3611816929133855
0
LINE
8
BLACK
6
CONTINUOUS
10
4.651295354330709
20
-6.3611816929133855
11
4.6511775590551183
21
-6.3613856692913382
0
LINE
8
BLACK
6
CONTINUOUS
10
4.6511775590551183
20
-6.3613856692913382
11
4.6511824409448819
21
-6.3616212204724407
0
LINE
8
BLACK
6
CONTINUOUS
10
4.6511824409448819
20
-6.3616212204724407
11
4.6506834251968501
21
-6.3622414960629916
0
LINE
8
BLACK
6
CONTINUOUS
10
4.6506834251968501
20
-6.3622414960629916
11
4.6502854330708656
21
-6.3629308661417321
0
LINE
8
BLACK
6
CONTINUOUS
10
4.6502854330708656
20
-6.3629308661417321
11
4.6500640551181105
21
-6.3630114173228343
0
LINE
8
BLACK
6
CONTINUOUS
10
4.6500640551181105
20
-6.3630114173228343
11
4.6499164173228342
21
-6.3631950000000002
0
LINE
8
BLACK
6
CONTINUOUS
10
4.6499164173228342
20
-6.3631950000000002
11
4.6491354330708656
21
-6.3633494094488183
0
LINE
8
BLACK
6
CONTINUOUS
10
4.6491354330708656
20
-6.3633494094488183
11
4.648387440944882
21
-6.3636216929133855
0
LINE
8
BLACK
6
CONTINUOUS
10
4.648387440944882
20
-6.3636216929133855
11
4.6434601968503939
21
-6.3636216929133855
0
LINE
8
BLACK
6
CONTINUOUS
10
4.6434601968503939
20
-6.3636216929133855
11
4.6407627165354333
21
-6.3649704330708659
0
LINE
8
BLACK
6
CONTINUOUS
10
4.6407627165354333
20
-6.3649704330708659
11
4.6395655905511806
21
-6.3661675590551177
0
LINE
8
BLACK
6
CONTINUOUS
10
4.6395655905511806
20
-6.3661675590551177
11
4.6382168503937002
21
-6.3688650393700783
0
LINE
8
BLACK
6
CONTINUOUS
10
4.6382168503937002
20
-6.3688650393700783
11
4.6382168503937002
21
-6.3768447637795278
0
LINE
8
BLACK
6
CONTINUOUS
10
4.6382168503937002
20
-6.3768447637795278
11
4.6395655905511806
21
-6.3795422440944884
0
LINE
8
BLACK
6
CONTINUOUS
10
4.6395655905511806
20
-6.3795422440944884
11
4.6407627165354333
21
-6.380739409448819
0
LINE
8
BLACK
6
CONTINUOUS
10
4.6407627165354333
20
-6.380739409448819
11
4.6434601968503939
21
-6.3820881496062993
0
LINE
8
BLACK
6
CONTINUOUS
10
4.6434601968503939
20
-6.3820881496062993
11
4.6533146850393701
21
-6.3820881496062993
0
LINE
8
BLACK
6
CONTINUOUS
10
4.6533146850393701
20
-6.3820881496062993
11
4.656012125984252
21
-6.380739409448819
0
LINE
8
BLACK
6
CONTINUOUS
10
4.656012125984252
20
-6.380739409448819
11
4.6575480708661416
21
-6.3792034645669293
0
LINE
8
BLACK
6
CONTINUOUS
10
4.6575480708661416
20
-6.3792034645669293
11
4.6583881102362206
21
-6.3786152362204724
0
LINE
8
BLACK
6
CONTINUOUS
10
4.6583881102362206
20
-6.3786152362204724
11
4.6604002362204726
21
-6.3784391732283465
0
LINE
8
BLACK
6
CONTINUOUS
10
4.6604002362204726
20
-6.3784391732283465
11
4.6620547637795271
21
-6.3795976771653544
0
LINE
8
BLACK
6
CONTINUOUS
10
4.6620547637795271
20
-6.3795976771653544
11
4.6625775196850396
21
-6.3815486614173231
0
LINE
8
BLACK
6
CONTINUOUS
10
4.6625775196850396
20
-6.3815486614173231
11
4.6617239370078742
21
-6.3833792519685035
0
LINE
8
BLACK
6
CONTINUOUS
10
4.6617239370078742
20
-6.3833792519685035
11
4.6598492125984254
21
-6.3852540157480311
0
LINE
8
BLACK
6
CONTINUOUS
10
4.6598492125984254
20
-6.3852540157480311
11
4.6591260236220471
21
-6.385760393700787
0
LINE
8
BLACK
6
CONTINUOUS
10
4.6591260236220471
20
-6.385760393700787
11
4.6590817716535433
21
-6.3858071653543309
0
LINE
8
BLACK
6
CONTINUOUS
10
4.6590817716535433
20
-6.3858071653543309
11
4.6553322440944882
21
-6.3876819291338585
0
LINE
8
BLACK
6
CONTINUOUS
10
4.6553322440944882
20
-6.3876819291338585
11
4.6543492913385824
21
-6.3879742913385824
0
LINE
8
BLACK
6
CONTINUOUS
10
4.6543492913385824
20
-6.3879742913385824
11
4.6541775984251972
21
-6.3879332677165355
0
LINE
8
BLACK
6
CONTINUOUS
10
4.6541775984251972
20
-6.3879332677165355
11
4.6540117322834647
21
-6.3879936614173225
0
LINE
8
BLACK
6
CONTINUOUS
10
4.6540117322834647
20
-6.3879936614173225
11
4.6427631496062993
21
-6.3879936614173225
0
LINE
8
BLACK
6
CONTINUOUS
10
4.6427631496062993
20
-6.3879936614173225
11
4.6417532283464569
21
-6.3878155905511811
0
LINE
8
BLACK
6
CONTINUOUS
10
4.6417532283464569
20
-6.3878155905511811
11
4.6416179527559054
21
-6.3877020866141727
0
LINE
8
BLACK
6
CONTINUOUS
10
4.6416179527559054
20
-6.3877020866141727
11
4.6414426377952758
21
-6.3876819291338585
0
LINE
8
BLACK
6
CONTINUOUS
10
4.6414426377952758
20
-6.3876819291338585
11
4.6376931102362207
21
-6.3858071653543309
0
LINE
8
BLACK
6
CONTINUOUS
10
4.6376931102362207
20
-6.3858071653543309
11
4.6369839763779526
21
-6.3852811811023624
0
LINE
8
BLACK
6
CONTINUOUS
10
4.6369839763779526
20
-6.3852811811023624
11
4.6369256692913385
21
-6.3852540157480311
0
LINE
8
BLACK
6
CONTINUOUS
10
4.6369256692913385
20
-6.3852540157480311
11
4.635050905511811
21
-6.3833792125984248
0
LINE
8
BLACK
6
CONTINUOUS
10
4.635050905511811
20
-6.3833792125984248
11
4.6345446062992126
21
-6.3826561417322836
0
LINE
8
BLACK
6
CONTINUOUS
10
4.6345446062992126
20
-6.3826561417322836
11
4.6344978346456696
21
-6.382611850393701
0
LINE
8
BLACK
6
CONTINUOUS
10
4.6344978346456696
20
-6.382611850393701
11
4.632623070866142
21
-6.3788623228346459
0
LINE
8
BLACK
6
CONTINUOUS
10
4.632623070866142
20
-6.3788623228346459
11
4.6323307086614172
21
-6.3778793700787402
0
LINE
8
BLACK
6
CONTINUOUS
10
4.6323307086614172
20
-6.3778793700787402
11
4.6323716929133854
21
-6.377707677165354
0
LINE
8
BLACK
6
CONTINUOUS
10
4.6323716929133854
20
-6.377707677165354
11
4.6323113385826771
21
-6.3775418110236215
0
LINE
8
BLACK
6
CONTINUOUS
10
4.6323113385826771
20
-6.3775418110236215
11
4.6323113385826771
21
-6.3681679921259837
0
LINE
8
BLACK
6
CONTINUOUS
10
4.6323113385826771
20
-6.3681679921259837
11
4.6324894094488185
21
-6.3671580708661413
0
LINE
8
BLACK
6
CONTINUOUS
10
4.6324894094488185
20
-6.3671580708661413
11
4.6326028740157481
21
-6.3670227952755907
0
LINE
8
BLACK
6
CONTINUOUS
10
4.6326028740157481
20
-6.3670227952755907
11
4.632623070866142
21
-6.3668474803149602
0
LINE
8
BLACK
6
CONTINUOUS
10
4.632623070866142
20
-6.3668474803149602
11
4.6344978346456696
21
-6.3630979527559051
0
LINE
8
BLACK
6
CONTINUOUS
10
4.6344978346456696
20
-6.3630979527559051
11
4.6350237401574805
21
-6.3623888582677166
0
LINE
8
BLACK
6
CONTINUOUS
10
4.6350237401574805
20
-6.3623888582677166
11
4.6350509448818897
21
-6.3623305511811026
0
LINE
8
BLACK
6
CONTINUOUS
10
4.6350509448818897
20
-6.3623305511811026
11
4.6369257086614173
21
-6.360455787401575
0
LINE
8
BLACK
6
CONTINUOUS
10
4.6369257086614173
20
-6.360455787401575
11
4.6376487795275594
21
-6.3599494881889767
0
LINE
8
BLACK
6
CONTINUOUS
10
4.6376487795275594
20
-6.3599494881889767
11
4.6376931102362207
21
-6.359902677165354
0
LINE
8
BLACK
6
CONTINUOUS
10
4.6376931102362207
20
-6.359902677165354
11
4.6414426377952758
21
-6.3580279133858264
0
LINE
8
BLACK
6
CONTINUOUS
10
4.6414426377952758
20
-6.3580279133858264
11
4.6420062992125981
21
-6.3578602362204721
0
LINE
8
BLACK
6
CONTINUOUS
10
4.6420062992125981
20
-6.3578602362204721
11
4.6330419291338583
21
-6.3476152362204719
0
LINE
8
BLACK
6
CONTINUOUS
10
4.6330419291338583
20
-6.3476152362204719
11
4.6328120078740156
21
-6.3472353543307083
0
LINE
8
BLACK
6
CONTINUOUS
10
4.6328120078740156
20
-6.3472353543307083
11
4.6327069291338585
21
-6.3471472047244095
0
LINE
8
BLACK
6
CONTINUOUS
10
4.6327069291338585
20
-6.3471472047244095
11
4.6326856692913383
21
-6.3470266141732283
0
LINE
8
BLACK
6
CONTINUOUS
10
4.6326856692913383
20
-6.3470266141732283
11
4.6325109055118112
21
-6.3467379133858266
0
LINE
8
BLACK
6
CONTINUOUS
10
4.6325109055118112
20
-6.3467379133858266
11
4.6324944094488192
21
-6.3459420472440939
0
LINE
8
BLACK
6
CONTINUOUS
10
4.6324944094488192
20
-6.3459420472440939
11
4.6323561811023621
21
-6.3451580708661419
0
LINE
8
BLACK
6
CONTINUOUS
10
4.6323561811023621
20
-6.3451580708661419
11
4.632473937007874
21
-6.3449540551181105
0
LINE
8
BLACK
6
CONTINUOUS
10
4.632473937007874
20
-6.3449540551181105
11
4.6324690944881892
21
-6.3447185826771655
0
LINE
8
BLACK
6
CONTINUOUS
10
4.6324690944881892
20
-6.3447185826771655
11
4.6329680314960626
21
-6.3440983070866137
0
LINE
8
BLACK
6
CONTINUOUS
10
4.6329680314960626
20
-6.3440983070866137
11
4.6333661023622046
21
-6.3434088976377954
0
LINE
8
BLACK
6
CONTINUOUS
10
4.6333661023622046
20
-6.3434088976377954
11
4.6335874409448818
21
-6.3433283070866144
0
LINE
8
BLACK
6
CONTINUOUS
10
4.6335874409448818
20
-6.3433283070866144
11
4.633735118110236
21
-6.3431447637795273
0
LINE
8
BLACK
6
CONTINUOUS
10
4.633735118110236
20
-6.3431447637795273
11
4.6345160629921258
21
-6.3429903149606295
0
LINE
8
BLACK
6
CONTINUOUS
10
4.6345160629921258
20
-6.3429903149606295
11
4.6352640944881891
21
-6.3427180708661419
0
LINE
8
BLACK
6
CONTINUOUS
10
4.6352640944881891
20
-6.3427180708661419
11
4.6596360236220473
21
-6.3427180708661419
0
LINE
8
BLACK
6
CONTINUOUS
10
4.6596360236220473
20
-6.3427180708661419
11
4.6606459448818898
21
-6.3428961417322833
0
LINE
8
BLACK
6
CONTINUOUS
10
4.6993932677165358
20
-6.3437728346456694
11
4.7000840944881892
21
-6.3456708267716531
0
LINE
8
BLACK
6
CONTINUOUS
10
4.7000840944881892
20
-6.3456708267716531
11
4.7000840944881892
21
-6.3775418110236215
0
LINE
8
BLACK
6
CONTINUOUS
10
4.7000840944881892
20
-6.3775418110236215
11
4.6999060236220469
21
-6.3785517322834648
0
LINE
8
BLACK
6
CONTINUOUS
10
4.6999060236220469
20
-6.3785517322834648
11
4.6997925196850394
21
-6.3786869685039367
0
LINE
8
BLACK
6
CONTINUOUS
10
4.6997925196850394
20
-6.3786869685039367
11
4.6997723622047243
21
-6.3788623228346459
0
LINE
8
BLACK
6
CONTINUOUS
10
4.6997723622047243
20
-6.3788623228346459
11
4.6978975984251967
21
-6.382611850393701
0
LINE
8
BLACK
6
CONTINUOUS
10
4.6978975984251967
20
-6.382611850393701
11
4.697371653543307
21
-6.3833209055118107
0
LINE
8
BLACK
6
CONTINUOUS
10
4.697371653543307
20
-6.3833209055118107
11
4.6973444881889765
21
-6.3833792519685035
0
LINE
8
BLACK
6
CONTINUOUS
10
4.6973444881889765
20
-6.3833792519685035
11
4.6954697637795277
21
-6.3852540157480311
0
LINE
8
BLACK
6
CONTINUOUS
10
4.6954697637795277
20
-6.3852540157480311
11
4.6947465748031494
21
-6.385760393700787
0
LINE
8
BLACK
6
CONTINUOUS
10
4.6947465748031494
20
-6.385760393700787
11
4.6947023228346456
21
-6.3858071653543309
0
LINE
8
BLACK
6
CONTINUOUS
10
4.6947023228346456
20
-6.3858071653543309
11
4.6909527952755905
21
-6.3876819291338585
0
LINE
8
BLACK
6
CONTINUOUS
10
4.6909527952755905
20
-6.3876819291338585
11
4.6899698425196847
21
-6.3879742913385824
0
LINE
8
BLACK
6
CONTINUOUS
10
4.6899698425196847
20
-6.3879742913385824
11
4.6897981496062995
21
-6.3879332677165355
0
LINE
8
BLACK
6
CONTINUOUS
10
4.6897981496062995
20
-6.3879332677165355
11
4.689632283464567
21
-6.3879936614173225
0
LINE
8
BLACK
6
CONTINUOUS
10
4.689632283464567
20
-6.3879936614173225
11
4.6821332283464567
21
-6.3879936614173225
0
LINE
8
BLACK
6
CONTINUOUS
10
4.6821332283464567
20
-6.3879936614173225
11
4.6811233070866143
21
-6.3878155905511811
0
LINE
8
BLACK
6
CONTINUOUS
10
4.6811233070866143
20
-6.3878155905511811
11
4.6809880314960628
21
-6.3877020866141727
0
LINE
8
BLACK
6
CONTINUOUS
10
4.6809880314960628
20
-6.3877020866141727
11
4.6808127165354332
21
-6.3876819291338585
0
LINE
8
BLACK
6
CONTINUOUS
10
4.6808127165354332
20
-6.3876819291338585
11
4.6770631889763781
21
-6.3858071653543309
0
LINE
8
BLACK
6
CONTINUOUS
10
4.6770631889763781
20
-6.3858071653543309
11
4.67635405511811
21
-6.3852811811023624
0
LINE
8
BLACK
6
CONTINUOUS
10
4.67635405511811
20
-6.3852811811023624
11
4.6762957480314959
21
-6.3852540157480311
0
LINE
8
BLACK
6
CONTINUOUS
10
4.6762957480314959
20
-6.3852540157480311
11
4.6744209842519684
21
-6.3833792125984248
0
LINE
8
BLACK
6
CONTINUOUS
10
4.6744209842519684
20
-6.3833792125984248
11
4.67391468503937
21
-6.3826561417322836
0
LINE
8
BLACK
6
CONTINUOUS
10
4.67391468503937
20
-6.3826561417322836
11
4.673867913385827
21
-6.382611850393701
0
LINE
8
BLACK
6
CONTINUOUS
10
4.673867913385827
20
-6.382611850393701
11
4.6719931496062994
21
-6.3788623228346459
0
LINE
8
BLACK
6
CONTINUOUS
10
4.6719931496062994
20
-6.3788623228346459
11
4.6717007874015746
21
-6.3778793700787402
0
LINE
8
BLACK
6
CONTINUOUS
10
4.6717007874015746
20
-6.3778793700787402
11
4.6717417716535428
21
-6.377707677165354
0
LINE
8
BLACK
6
CONTINUOUS
10
4.6717417716535428
20
-6.377707677165354
11
4.6716814173228345
21
-6.3775418110236215
0
LINE
8
BLACK
6
CONTINUOUS
10
4.6716814173228345
20
-6.3775418110236215
11
4.6716814173228345
21
-6.3456708267716531
0
LINE
8
BLACK
6
CONTINUOUS
10
4.6716814173228345
20
-6.3456708267716531
11
4.6718594881889759
21
-6.3446609055118106
0
LINE
8
BLACK
6
CONTINUOUS
10
4.6718594881889759
20
-6.3446609055118106
11
4.6731577952755901
21
-6.3431136614173225
0
LINE
8
BLACK
6
CONTINUOUS
10
4.6731577952755901
20
-6.3431136614173225
11
4.6751469291338585
21
-6.342762913385827
0
LINE
8
BLACK
6
CONTINUOUS
10
4.6751469291338585
20
-6.342762913385827
11
4.6768961023622042
21
-6.3437728346456694
0
LINE
8
BLACK
6
CONTINUOUS
10
4.6768961023622042
20
-6.3437728346456694
11
4.6775869291338585
21
-6.3456708267716531
0
LINE
8
BLACK
6
CONTINUOUS
10
4.6775869291338585
20
-6.3456708267716531
11
4.6775869291338585
21
-6.3768447637795278
0
LINE
8
BLACK
6
CONTINUOUS
10
4.6775869291338585
20
-6.3768447637795278
11
4.6789356692913389
21
-6.3795422440944884
0
LINE
8
BLACK
6
CONTINUOUS
10
4.6789356692913389
20
-6.3795422440944884
11
4.6801327952755907
21
-6.380739409448819
0
LINE
8
BLACK
6
CONTINUOUS
10
4.6801327952755907
20
-6.380739409448819
11
4.6828302755905513
21
-6.3820881496062993
0
LINE
8
BLACK
6
CONTINUOUS
10
4.6828302755905513
20
-6.3820881496062993
11
4.6889352362204724
21
-6.3820881496062993
0
LINE
8
BLACK
6
CONTINUOUS
10
4.6889352362204724
20
-6.3820881496062993
11
4.6916326771653543
21
-6.380739409448819
0
LINE
8
BLACK
6
CONTINUOUS
10
4.6916326771653543
20
-6.380739409448819
11
4.6928298031496061
21
-6.3795422440944884
0
LINE
8
BLACK
6
CONTINUOUS
10
4.6928298031496061
20
-6.3795422440944884
11
4.6941785826771651
21
-6.3768447637795278
0
LINE
8
BLACK
6
CONTINUOUS
10
4.6941785826771651
20
-6.3768447637795278
11
4.6941785826771651
21
-6.3456708267716531
0
LINE
8
BLACK
6
CONTINUOUS
10
4.6941785826771651
20
-6.3456708267716531
11
4.6943566535433066
21
-6.3446609055118106
0
LINE
8
BLACK
6
CONTINUOUS
10
4.6943566535433066
20
-6.3446609055118106
11
4.6956549606299207
21
-6.3431136614173225
0
LINE
8
BLACK
6
CONTINUOUS
10
4.6956549606299207
20
-6.3431136614173225
11
4.6976440944881892
21
-6.342762913385827
0
LINE
8
BLACK
6
CONTINUOUS
10
4.6976440944881892
20
-6.342762913385827
11
4.6993932677165358
21
-6.3437728346456694
0
LINE
8
BLACK
6
CONTINUOUS
10
5.8383739763779525
20
-6.336085118110236
11
5.8385092125984253
21
-6.3361985826771656
0
LINE
8
BLACK
6
CONTINUOUS
10
5.8385092125984253
20
-6.3361985826771656
11
5.8386845669291336
21
-6.3362187795275586
0
LINE
8
BLACK
6
CONTINUOUS
10
5.8386845669291336
20
-6.3362187795275586
11
5.8424340944881887
21
-6.3380935433070862
0
LINE
8
BLACK
6
CONTINUOUS
10
5.8424340944881887
20
-6.3380935433070862
11
5.8431431496062993
21
-6.3386194488188972
0
LINE
8
BLACK
6
CONTINUOUS
10
5.8431431496062993
20
-6.3386194488188972
11
5.8432014960629921
21
-6.3386466535433073
0
LINE
8
BLACK
6
CONTINUOUS
10
5.8432014960629921
20
-6.3386466535433073
11
5.8450762598425197
21
-6.3405214173228348
0
LINE
8
BLACK
6
CONTINUOUS
10
5.8450762598425197
20
-6.3405214173228348
11
5.8456644488188978
21
-6.3413614566929128
0
LINE
8
BLACK
6
CONTINUOUS
10
5.8456644488188978
20
-6.3413614566929128
11
5.845840472440945
21
-6.3433735433070861
0
LINE
8
BLACK
6
CONTINUOUS
10
5.845840472440945
20
-6.3433735433070861
11
5.8446819685039371
21
-6.3450281102362203
0
LINE
8
BLACK
6
CONTINUOUS
10
5.8446819685039371
20
-6.3450281102362203
11
5.8427309842519684
21
-6.3455508267716532
0
LINE
8
BLACK
6
CONTINUOUS
10
5.8427309842519684
20
-6.3455508267716532
11
5.8409004330708658
21
-6.3446972440944878
0
LINE
8
BLACK
6
CONTINUOUS
10
5.8409004330708658
20
-6.3446972440944878
11
5.8393644881889761
21
-6.3431612992125981
0
LINE
8
BLACK
6
CONTINUOUS
10
5.8393644881889761
20
-6.3431612992125981
11
5.8366670078740155
21
-6.3418125590551178
0
LINE
8
BLACK
6
CONTINUOUS
10
5.8366670078740155
20
-6.3418125590551178
11
5.8286872834645669
21
-6.3418125590551178
0
LINE
8
BLACK
6
CONTINUOUS
10
5.8286872834645669
20
-6.3418125590551178
11
5.8259898031496062
21
-6.3431612992125981
0
LINE
8
BLACK
6
CONTINUOUS
10
5.8259898031496062
20
-6.3431612992125981
11
5.8247926771653544
21
-6.3443584251968499
0
LINE
8
BLACK
6
CONTINUOUS
10
5.8247926771653544
20
-6.3443584251968499
11
5.8234439370078741
21
-6.3470559055118105
0
LINE
8
BLACK
6
CONTINUOUS
10
5.8234439370078741
20
-6.3470559055118105
11
5.8234439370078741
21
-6.3496292125984253
0
LINE
8
BLACK
6
CONTINUOUS
10
5.8234439370078741
20
-6.3496292125984253
11
5.8249467322834647
21
-6.3541376377952759
0
LINE
8
BLACK
6
CONTINUOUS
10
5.8249467322834647
20
-6.3541376377952759
11
5.8469510236220472
21
-6.3761419685039371
0
LINE
8
BLACK
6
CONTINUOUS
10
5.8469510236220472
20
-6.3761419685039371
11
5.8473207874015749
21
-6.3766699999999998
0
LINE
8
BLACK
6
CONTINUOUS
10
5.8473207874015749
20
-6.3766699999999998
11
5.8474202755905509
21
-6.3767535039370076
0
LINE
8
BLACK
6
CONTINUOUS
10
5.8474202755905509
20
-6.3767535039370076
11
5.8474340551181099
21
-6.3768318110236217
0
LINE
8
BLACK
6
CONTINUOUS
10
5.8474340551181099
20
-6.3768318110236217
11
5.8475392519685041
21
-6.376982007874016
0
LINE
8
BLACK
6
CONTINUOUS
10
5.8475392519685041
20
-6.376982007874016
11
5.8476166929133857
21
-6.3778675590551179
0
LINE
8
BLACK
6
CONTINUOUS
10
5.8476166929133857
20
-6.3778675590551179
11
5.8477710236220473
21
-6.3787426377952752
0
LINE
8
BLACK
6
CONTINUOUS
10
5.8477710236220473
20
-6.3787426377952752
11
5.8477035039370078
21
-6.3788595669291341
0
LINE
8
BLACK
6
CONTINUOUS
10
5.8477035039370078
20
-6.3788595669291341
11
5.8477152755905513
21
-6.3789941338582672
0
LINE
8
BLACK
6
CONTINUOUS
10
5.8477152755905513
20
-6.3789941338582672
11
5.8472053937007873
21
-6.3797222834645666
0
LINE
8
BLACK
6
CONTINUOUS
10
5.8472053937007873
20
-6.3797222834645666
11
5.8467611023622048
21
-6.3804918110236217
0
LINE
8
BLACK
6
CONTINUOUS
10
5.8467611023622048
20
-6.3804918110236217
11
5.846634212598425
21
-6.3805379527559056
0
LINE
8
BLACK
6
CONTINUOUS
10
5.846634212598425
20
-6.3805379527559056
11
5.8465567322834646
21
-6.3806486614173226
0
LINE
8
BLACK
6
CONTINUOUS
10
5.8465567322834646
20
-6.3806486614173226
11
5.8456981889763782
21
-6.3808786614173227
0
LINE
8
BLACK
6
CONTINUOUS
10
5.8456981889763782
20
-6.3808786614173227
11
5.8448631102362203
21
-6.3811826377952752
0
LINE
8
BLACK
6
CONTINUOUS
10
5.8448631102362203
20
-6.3811826377952752
11
5.8204911811023621
21
-6.3811826377952752
0
LINE
8
BLACK
6
CONTINUOUS
10
5.8204911811023621
20
-6.3811826377952752
11
5.8194812598425196
21
-6.3810045669291338
0
LINE
8
BLACK
6
CONTINUOUS
10
5.8194812598425196
20
-6.3810045669291338
11
5.8179340157480315
21
-6.3797062598425196
0
LINE
8
BLACK
6
CONTINUOUS
10
5.8179340157480315
20
-6.3797062598425196
11
5.8175832677165351
21
-6.377717125984252
0
LINE
8
BLACK
6
CONTINUOUS
10
5.8175832677165351
20
-6.377717125984252
11
5.8185931889763776
21
-6.3759679527559054
0
LINE
8
BLACK
6
CONTINUOUS
10
5.8185931889763776
20
-6.3759679527559054
11
5.8204911811023621
21
-6.375277125984252
0
LINE
8
BLACK
6
CONTINUOUS
10
5.8204911811023621
20
-6.375277125984252
11
5.8377345275590553
21
-6.375277125984252
0
LINE
8
BLACK
6
CONTINUOUS
10
5.8377345275590553
20
-6.375277125984252
11
5.8202780314960627
21
-6.3578205905511807
0
LINE
8
BLACK
6
CONTINUOUS
10
5.8202780314960627
20
-6.3578205905511807
11
5.8196898425196846
21
-6.3569805511811026
0
LINE
8
BLACK
6
CONTINUOUS
10
5.8196898425196846
20
-6.3569805511811026
11
5.8196744488188976
21
-6.3568046850393696
0
LINE
8
BLACK
6
CONTINUOUS
10
5.8196744488188976
20
-6.3568046850393696
11
5.8195647244094486
21
-6.3566664173228347
0
LINE
8
BLACK
6
CONTINUOUS
10
5.8195647244094486
20
-6.3566664173228347
11
5.8176899606299211
21
-6.351042125984252
0
LINE
8
BLACK
6
CONTINUOUS
10
5.8176899606299211
20
-6.351042125984252
11
5.8175604724409444
21
-6.350168937007874
0
LINE
8
BLACK
6
CONTINUOUS
10
5.8175604724409444
20
-6.350168937007874
11
5.81753842519685
21
-6.350108385826772
0
LINE
8
BLACK
6
CONTINUOUS
10
5.81753842519685
20
-6.350108385826772
11
5.81753842519685
21
-6.346358858267716
0
LINE
8
BLACK
6
CONTINUOUS
10
5.81753842519685
20
-6.346358858267716
11
5.8177164960629923
21
-6.3453489370078735
0
LINE
8
BLACK
6
CONTINUOUS
10
5.8177164960629923
20
-6.3453489370078735
11
5.8178299606299211
21
-6.3452136614173229
0
LINE
8
BLACK
6
CONTINUOUS
10
5.8178299606299211
20
-6.3452136614173229
11
5.817850157480315
21
-6.3450383464566924
0
LINE
8
BLACK
6
CONTINUOUS
10
5.817850157480315
20
-6.3450383464566924
11
5.8197249212598425
21
-6.3412888188976373
0
LINE
8
BLACK
6
CONTINUOUS
10
5.8197249212598425
20
-6.3412888188976373
11
5.8202508267716535
21
-6.3405797244094488
0
LINE
8
BLACK
6
CONTINUOUS
10
5.8202508267716535
20
-6.3405797244094488
11
5.8202780314960627
21
-6.3405214173228348
0
LINE
8
BLACK
6
CONTINUOUS
10
5.8202780314960627
20
-6.3405214173228348
11
5.8221527952755903
21
-6.3386466535433073
0
LINE
8
BLACK
6
CONTINUOUS
10
5.8221527952755903
20
-6.3386466535433073
11
5.8228758661417324
21
-6.3381403543307089
0
LINE
8
BLACK
6
CONTINUOUS
10
5.8228758661417324
20
-6.3381403543307089
11
5.8229201968503936
21
-6.3380935433070862
0
LINE
8
BLACK
6
CONTINUOUS
10
5.8229201968503936
20
-6.3380935433070862
11
5.8266697244094487
21
-6.3362187795275586
0
LINE
8
BLACK
6
CONTINUOUS
10
5.8266697244094487
20
-6.3362187795275586
11
5.8276526377952758
21
-6.3359264173228347
0
LINE
8
BLACK
6
CONTINUOUS
10
5.8276526377952758
20
-6.3359264173228347
11
5.827824330708661
21
-6.3359674015748029
0
LINE
8
BLACK
6
CONTINUOUS
10
5.827824330708661
20
-6.3359674015748029
11
5.8279902362204723
21
-6.3359070472440946
0
LINE
8
BLACK
6
CONTINUOUS
10
5.8279902362204723
20
-6.3359070472440946
11
5.8373640551181101
21
-6.3359070472440946
0
LINE
8
BLACK
6
CONTINUOUS
10
5.8373640551181101
20
-6.3359070472440946
11
5.8383739763779525
21
-6.336085118110236
0
LINE
8
BLACK
6
CONTINUOUS
10
5.8846203543307087
20
-6.3369618110236221
11
5.8853111811023622
21
-6.3388598031496057
0
LINE
8
BLACK
6
CONTINUOUS
10
5.8853111811023622
20
-6.3388598031496057
11
5.8853111811023622
21
-6.3707307874015751
0
LINE
8
BLACK
6
CONTINUOUS
10
5.8853111811023622
20
-6.3707307874015751
11
5.8851331102362208
21
-6.3717407086614175
0
LINE
8
BLACK
6
CONTINUOUS
10
5.8851331102362208
20
-6.3717407086614175
11
5.8850196062992124
21
-6.3718759448818894
0
LINE
8
BLACK
6
CONTINUOUS
10
5.8850196062992124
20
-6.3718759448818894
11
5.8849994488188972
21
-6.3720512992125986
0
LINE
8
BLACK
6
CONTINUOUS
10
5.8849994488188972
20
-6.3720512992125986
11
5.8831246850393697
21
-6.3758008267716537
0
LINE
8
BLACK
6
CONTINUOUS
10
5.8831246850393697
20
-6.3758008267716537
11
5.88259874015748
21
-6.3765098818897634
0
LINE
8
BLACK
6
CONTINUOUS
10
5.88259874015748
20
-6.3765098818897634
11
5.8825715748031495
21
-6.3765682283464562
0
LINE
8
BLACK
6
CONTINUOUS
10
5.8825715748031495
20
-6.3765682283464562
11
5.8806968503937007
21
-6.3784429921259838
0
LINE
8
BLACK
6
CONTINUOUS
10
5.8806968503937007
20
-6.3784429921259838
11
5.8799736614173224
21
-6.3789493700787396
0
LINE
8
BLACK
6
CONTINUOUS
10
5.8799736614173224
20
-6.3789493700787396
11
5.8799294094488186
21
-6.3789961417322836
0
LINE
8
BLACK
6
CONTINUOUS
10
5.8799294094488186
20
-6.3789961417322836
11
5.8761798818897635
21
-6.3808709055118111
0
LINE
8
BLACK
6
CONTINUOUS
10
5.8761798818897635
20
-6.3808709055118111
11
5.8751969291338577
21
-6.3811632677165351
0
LINE
8
BLACK
6
CONTINUOUS
10
5.8751969291338577
20
-6.3811632677165351
11
5.8750252362204725
21
-6.3811222440944881
0
LINE
8
BLACK
6
CONTINUOUS
10
5.8750252362204725
20
-6.3811222440944881
11
5.8748593700787399
21
-6.3811826377952752
0
LINE
8
BLACK
6
CONTINUOUS
10
5.8748593700787399
20
-6.3811826377952752
11
5.8673603149606297
21
-6.3811826377952752
0
LINE
8
BLACK
6
CONTINUOUS
10
5.8673603149606297
20
-6.3811826377952752
11
5.8663503937007873
21
-6.3810045669291338
0
LINE
8
BLACK
6
CONTINUOUS
10
5.8663503937007873
20
-6.3810045669291338
11
5.8662151181102358
21
-6.3808910629921263
0
LINE
8
BLACK
6
CONTINUOUS
10
5.8662151181102358
20
-6.3808910629921263
11
5.8660398031496062
21
-6.3808709055118111
0
LINE
8
BLACK
6
CONTINUOUS
10
5.8660398031496062
20
-6.3808709055118111
11
5.862290275590551
21
-6.3789961417322836
0
LINE
8
BLACK
6
CONTINUOUS
10
5.862290275590551
20
-6.3789961417322836
11
5.861581141732283
21
-6.3784701574803151
0
LINE
8
BLACK
6
CONTINUOUS
10
5.861581141732283
20
-6.3784701574803151
11
5.8615228346456689
21
-6.3784429921259838
0
LINE
8
BLACK
6
CONTINUOUS
10
5.8615228346456689
20
-6.3784429921259838
11
5.8596480708661414
21
-6.3765681889763774
0
LINE
8
BLACK
6
CONTINUOUS
10
5.8596480708661414
20
-6.3765681889763774
11
5.859141771653543
21
-6.3758451181102362
0
LINE
8
BLACK
6
CONTINUOUS
10
5.859141771653543
20
-6.3758451181102362
11
5.8590949999999999
21
-6.3758008267716537
0
LINE
8
BLACK
6
CONTINUOUS
10
5.8590949999999999
20
-6.3758008267716537
11
5.8572202362204724
21
-6.3720512992125986
0
LINE
8
BLACK
6
CONTINUOUS
10
5.8572202362204724
20
-6.3720512992125986
11
5.8569278740157475
21
-6.3710683464566928
0
LINE
8
BLACK
6
CONTINUOUS
10
5.8569278740157475
20
-6.3710683464566928
11
5.8569688582677166
21
-6.3708966535433067
0
LINE
8
BLACK
6
CONTINUOUS
10
5.8569688582677166
20
-6.3708966535433067
11
5.8569085039370075
21
-6.3707307874015751
0
LINE
8
BLACK
6
CONTINUOUS
10
5.8569085039370075
20
-6.3707307874015751
11
5.8569085039370075
21
-6.3388598031496057
0
LINE
8
BLACK
6
CONTINUOUS
10
5.8569085039370075
20
-6.3388598031496057
11
5.8570865748031498
21
-6.3378498818897633
0
LINE
8
BLACK
6
CONTINUOUS
10
5.8570865748031498
20
-6.3378498818897633
11
5.8583848818897639
21
-6.3363026377952751
0
LINE
8
BLACK
6
CONTINUOUS
10
5.8583848818897639
20
-6.3363026377952751
11
5.8603740157480315
21
-6.3359518897637797
0
LINE
8
BLACK
6
CONTINUOUS
10
5.8603740157480315
20
-6.3359518897637797
11
5.8621231889763781
21
-6.3369618110236221
0
LINE
8
BLACK
6
CONTINUOUS
10
5.8621231889763781
20
-6.3369618110236221
11
5.8628140157480315
21
-6.3388598031496057
0
LINE
8
BLACK
6
CONTINUOUS
10
5.8628140157480315
20
-6.3388598031496057
11
5.8628140157480315
21
-6.3700337401574805
0
LINE
8
BLACK
6
CONTINUOUS
10
5.8628140157480315
20
-6.3700337401574805
11
5.8641627559055118
21
-6.3727312204724411
0
LINE
8
BLACK
6
CONTINUOUS
10
5.8641627559055118
20
-6.3727312204724411
11
5.8653598818897636
21
-6.3739283858267717
0
LINE
8
BLACK
6
CONTINUOUS
10
5.8653598818897636
20
-6.3739283858267717
11
5.8680573622047243
21
-6.375277125984252
0
LINE
8
BLACK
6
CONTINUOUS
10
5.8680573622047243
20
-6.375277125984252
11
5.8741623228346453
21
-6.375277125984252
0
LINE
8
BLACK
6
CONTINUOUS
10
5.8741623228346453
20
-6.375277125984252
11
5.8768597637795272
21
-6.3739283858267717
0
LINE
8
BLACK
6
CONTINUOUS
10
5.8768597637795272
20
-6.3739283858267717
11
5.878056889763779
21
-6.3727312204724411
0
LINE
8
BLACK
6
CONTINUOUS
10
5.878056889763779
20
-6.3727312204724411
11
5.8794056692913381
21
-6.3700337401574805
0
LINE
8
BLACK
6
CONTINUOUS
10
5.8794056692913381
20
-6.3700337401574805
11
5.8794056692913381
21
-6.3388598031496057
0
LINE
8
BLACK
6
CONTINUOUS
10
5.8794056692913381
20
-6.3388598031496057
11
5.8795837401574804
21
-6.3378498818897633
0
LINE
8
BLACK
6
CONTINUOUS
10
5.8795837401574804
20
-6.3378498818897633
11
5.8808820472440946
21
-6.3363026377952751
0
LINE
8
BLACK
6
CONTINUOUS
10
5.8808820472440946
20
-6.3363026377952751
11
5.8828711811023622
21
-6.3359518897637797
0
LINE
8
BLACK
6
CONTINUOUS
10
5.8828711811023622
20
-6.3359518897637797
11
5.8846203543307087
21
-6.3369618110236221
0
LINE
8
BLACK
6
CONTINUOUS
10
5.0229914960629918
20
-6.334837716535433
11
5.0245387401574799
21
-6.3361360236220472
0
LINE
8
BLACK
6
CONTINUOUS
10
5.0245387401574799
20
-6.3361360236220472
11
5.0248894881889763
21
-6.3381251574803148
0
LINE
8
BLACK
6
CONTINUOUS
10
5.0248894881889763
20
-6.3381251574803148
11
5.0238795669291338
21
-6.3398743307086614
0
LINE
8
BLACK
6
CONTINUOUS
10
5.0238795669291338
20
-6.3398743307086614
11
5.0219815748031493
21
-6.3405651574803148
0
LINE
8
BLACK
6
CONTINUOUS
10
5.0219815748031493
20
-6.3405651574803148
11
5.0041168110236223
21
-6.3405651574803148
0
LINE
8
BLACK
6
CONTINUOUS
10
5.0041168110236223
20
-6.3405651574803148
11
5.0129551574803148
21
-6.3506661023622044
0
LINE
8
BLACK
6
CONTINUOUS
10
5.0129551574803148
20
-6.3506661023622044
11
5.0131850393700788
21
-6.3510459448818892
0
LINE
8
BLACK
6
CONTINUOUS
10
5.0131850393700788
20
-6.3510459448818892
11
5.0132901574803146
21
-6.3511341338582676
0
LINE
8
BLACK
6
CONTINUOUS
10
5.0132901574803146
20
-6.3511341338582676
11
5.0133113779527561
21
-6.3512546850393701
0
LINE
8
BLACK
6
CONTINUOUS
10
5.0133113779527561
20
-6.3512546850393701
11
5.0134861811023619
21
-6.3515434251968506
0
LINE
8
BLACK
6
CONTINUOUS
10
5.0134861811023619
20
-6.3515434251968506
11
5.0135026377952752
21
-6.3523392519685036
0
LINE
8
BLACK
6
CONTINUOUS
10
5.0135026377952752
20
-6.3523392519685036
11
5.013640905511811
21
-6.3531232677165352
0
LINE
8
BLACK
6
CONTINUOUS
10
5.013640905511811
20
-6.3531232677165352
11
5.0135231102362203
21
-6.3533272440944879
0
LINE
8
BLACK
6
CONTINUOUS
10
5.0135231102362203
20
-6.3533272440944879
11
5.0135279921259839
21
-6.3535627952755904
0
LINE
8
BLACK
6
CONTINUOUS
10
5.0135279921259839
20
-6.3535627952755904
11
5.013028976377953
21
-6.3541830708661413
0
LINE
8
BLACK
6
CONTINUOUS
10
5.013028976377953
20
-6.3541830708661413
11
5.0126309842519685
21
-6.3548724409448818
0
LINE
8
BLACK
6
CONTINUOUS
10
5.0126309842519685
20
-6.3548724409448818
11
5.0124096062992125
21
-6.354952992125984
0
LINE
8
BLACK
6
CONTINUOUS
10
5.0124096062992125
20
-6.354952992125984
11
5.0122619685039371
21
-6.3551365748031499
0
LINE
8
BLACK
6
CONTINUOUS
10
5.0122619685039371
20
-6.3551365748031499
11
5.0114809842519685
21
-6.355290984251968
0
LINE
8
BLACK
6
CONTINUOUS
10
5.0114809842519685
20
-6.355290984251968
11
5.010732992125984
21
-6.3555632677165352
0
LINE
8
BLACK
6
CONTINUOUS
10
5.010732992125984
20
-6.3555632677165352
11
5.0058057480314959
21
-6.3555632677165352
0
LINE
8
BLACK
6
CONTINUOUS
10
5.0058057480314959
20
-6.3555632677165352
11
5.0031082677165353
21
-6.3569120078740156
0
LINE
8
BLACK
6
CONTINUOUS
10
5.0031082677165353
20
-6.3569120078740156
11
5.0019111417322835
21
-6.3581091338582674
0
LINE
8
BLACK
6
CONTINUOUS
10
5.0019111417322835
20
-6.3581091338582674
11
5.0005624015748031
21
-6.360806614173228
0
LINE
8
BLACK
6
CONTINUOUS
10
5.0005624015748031
20
-6.360806614173228
11
5.0005624015748031
21
-6.3687863385826766
0
LINE
8
BLACK
6
CONTINUOUS
10
5.0005624015748031
20
-6.3687863385826766
11
5.0019111417322835
21
-6.3714838188976373
0
LINE
8
BLACK
6
CONTINUOUS
10
5.0019111417322835
20
-6.3714838188976373
11
5.0031082677165353
21
-6.3726809842519687
0
LINE
8
BLACK
6
CONTINUOUS
10
5.0031082677165353
20
-6.3726809842519687
11
5.0058057480314959
21
-6.374029724409449
0
LINE
8
BLACK
6
CONTINUOUS
10
5.0058057480314959
20
-6.374029724409449
11
5.0156602362204721
21
-6.374029724409449
0
LINE
8
BLACK
6
CONTINUOUS
10
5.0156602362204721
20
-6.374029724409449
11
5.018357677165354
21
-6.3726809842519687
0
LINE
8
BLACK
6
CONTINUOUS
10
5.018357677165354
20
-6.3726809842519687
11
5.0198936220472437
21
-6.371145039370079
0
LINE
8
BLACK
6
CONTINUOUS
10
5.0198936220472437
20
-6.371145039370079
11
5.0207336614173226
21
-6.3705568110236221
0
LINE
8
BLACK
6
CONTINUOUS
10
5.0207336614173226
20
-6.3705568110236221
11
5.0227457874015746
21
-6.3703807480314962
0
LINE
8
BLACK
6
CONTINUOUS
10
5.0227457874015746
20
-6.3703807480314962
11
5.02440031496063
21
-6.3715392519685041
0
LINE
8
BLACK
6
CONTINUOUS
10
5.02440031496063
20
-6.3715392519685041
11
5.0249230708661417
21
-6.3734902362204719
0
LINE
8
BLACK
6
CONTINUOUS
10
5.0249230708661417
20
-6.3734902362204719
11
5.0240694881889763
21
-6.3753208267716532
0
LINE
8
BLACK
6
CONTINUOUS
10
5.0240694881889763
20
-6.3753208267716532
11
5.0221947637795274
21
-6.3771955905511808
0
LINE
8
BLACK
6
CONTINUOUS
10
5.0221947637795274
20
-6.3771955905511808
11
5.0214715748031491
21
-6.3777019685039367
0
LINE
8
BLACK
6
CONTINUOUS
10
5.0214715748031491
20
-6.3777019685039367
11
5.0214273228346453
21
-6.3777487401574806
0
LINE
8
BLACK
6
CONTINUOUS
10
5.0214273228346453
20
-6.3777487401574806
11
5.0176777952755902
21
-6.3796235039370082
0
LINE
8
BLACK
6
CONTINUOUS
10
5.0176777952755902
20
-6.3796235039370082
11
5.0166948425196853
21
-6.3799158661417321
0
LINE
8
BLACK
6
CONTINUOUS
10
5.0166948425196853
20
-6.3799158661417321
11
5.0165231496062992
21
-6.3798748425196852
0
LINE
8
BLACK
6
CONTINUOUS
10
5.0165231496062992
20
-6.3798748425196852
11
5.0163572834645667
21
-6.3799352362204722
0
LINE
8
BLACK
6
CONTINUOUS
10
5.0163572834645667
20
-6.3799352362204722
11
5.0051087007874013
21
-6.3799352362204722
0
LINE
8
BLACK
6
CONTINUOUS
10
5.0051087007874013
20
-6.3799352362204722
11
5.0040987795275589
21
-6.3797571653543308
0
LINE
8
BLACK
6
CONTINUOUS
10
5.0040987795275589
20
-6.3797571653543308
11
5.0039635039370074
21
-6.3796436614173224
0
LINE
8
BLACK
6
CONTINUOUS
10
5.0039635039370074
20
-6.3796436614173224
11
5.0037881889763778
21
-6.3796235039370082
0
LINE
8
BLACK
6
CONTINUOUS
10
5.0037881889763778
20
-6.3796235039370082
11
5.0000386614173227
21
-6.3777487401574806
0
LINE
8
BLACK
6
CONTINUOUS
10
5.0000386614173227
20
-6.3777487401574806
11
4.9993295275590546
21
-6.3772227559055112
0
LINE
8
BLACK
6
CONTINUOUS
10
4.9993295275590546
20
-6.3772227559055112
11
4.9992712204724405
21
-6.3771955905511808
0
LINE
8
BLACK
6
CONTINUOUS
10
4.9992712204724405
20
-6.3771955905511808
11
4.997396456692913
21
-6.3753207874015745
0
LINE
8
BLACK
6
CONTINUOUS
10
4.997396456692913
20
-6.3753207874015745
11
4.9968901574803146
21
-6.3745977165354333
0
LINE
8
BLACK
6
CONTINUOUS
10
4.9968901574803146
20
-6.3745977165354333
11
4.9968433858267716
21
-6.3745534251968499
0
LINE
8
BLACK
6
CONTINUOUS
10
4.9968433858267716
20
-6.3745534251968499
11
4.994968622047244
21
-6.3708038976377948
0
LINE
8
BLACK
6
CONTINUOUS
10
4.994968622047244
20
-6.3708038976377948
11
4.9946762598425192
21
-6.3698209448818899
0
LINE
8
BLACK
6
CONTINUOUS
10
4.9946762598425192
20
-6.3698209448818899
11
4.9947172440944883
21
-6.3696492519685037
0
LINE
8
BLACK
6
CONTINUOUS
10
4.9947172440944883
20
-6.3696492519685037
11
4.9946568897637791
21
-6.3694833858267712
0
LINE
8
BLACK
6
CONTINUOUS
10
4.9946568897637791
20
-6.3694833858267712
11
4.9946568897637791
21
-6.3601095669291334
0
LINE
8
BLACK
6
CONTINUOUS
10
4.9946568897637791
20
-6.3601095669291334
11
4.9948349606299214
21
-6.359099645669291
0
LINE
8
BLACK
6
CONTINUOUS
10
4.9948349606299214
20
-6.359099645669291
11
4.9949484251968501
21
-6.3589643700787404
0
LINE
8
BLACK
6
CONTINUOUS
10
4.9949484251968501
20
-6.3589643700787404
11
4.994968622047244
21
-6.3587890551181099
0
LINE
8
BLACK
6
CONTINUOUS
10
4.994968622047244
20
-6.3587890551181099
11
4.9968433858267716
21
-6.3550395275590548
0
LINE
8
BLACK
6
CONTINUOUS
10
4.9968433858267716
20
-6.3550395275590548
11
4.9973692913385825
21
-6.3543304330708663
0
LINE
8
BLACK
6
CONTINUOUS
10
4.9973692913385825
20
-6.3543304330708663
11
4.9973964960629917
21
-6.3542721259842514
0
LINE
8
BLACK
6
CONTINUOUS
10
4.9973964960629917
20
-6.3542721259842514
11
4.9992712598425193
21
-6.3523973622047238
0
LINE
8
BLACK
6
CONTINUOUS
10
4.9992712598425193
20
-6.3523973622047238
11
4.9999943307086614
21
-6.3518910629921255
0
LINE
8
BLACK
6
CONTINUOUS
10
4.9999943307086614
20
-6.3518910629921255
11
5.0000386614173227
21
-6.3518442519685037
0
LINE
8
BLACK
6
CONTINUOUS
10
5.0000386614173227
20
-6.3518442519685037
11
5.0037881889763778
21
-6.3499694881889761
0
LINE
8
BLACK
6
CONTINUOUS
10
5.0037881889763778
20
-6.3499694881889761
11
5.004351850393701
21
-6.3498018110236218
0
LINE
8
BLACK
6
CONTINUOUS
10
5.004351850393701
20
-6.3498018110236218
11
4.9953874803149603
21
-6.3395568110236216
0
LINE
8
BLACK
6
CONTINUOUS
10
4.9953874803149603
20
-6.3395568110236216
11
4.9951575590551176
21
-6.339176929133858
0
LINE
8
BLACK
6
CONTINUOUS
10
4.9951575590551176
20
-6.339176929133858
11
4.9950524803149605
21
-6.3390887795275592
0
LINE
8
BLACK
6
CONTINUOUS
10
4.9950524803149605
20
-6.3390887795275592
11
4.9950312204724412
21
-6.338968188976378
0
LINE
8
BLACK
6
CONTINUOUS
10
4.9950312204724412
20
-6.338968188976378
11
4.9948564566929132
21
-6.3386794881889763
0
LINE
8
BLACK
6
CONTINUOUS
10
4.9948564566929132
20
-6.3386794881889763
11
4.9948399606299212
21
-6.3378836220472436
0
LINE
8
BLACK
6
CONTINUOUS
10
4.9948399606299212
20
-6.3378836220472436
11
4.9947017322834641
21
-6.3370996456692916
0
LINE
8
BLACK
6
CONTINUOUS
10
4.9947017322834641
20
-6.3370996456692916
11
4.994819488188976
21
-6.3368956299212593
0
LINE
8
BLACK
6
CONTINUOUS
10
4.994819488188976
20
-6.3368956299212593
11
4.9948146456692912
21
-6.3366601574803152
0
LINE
8
BLACK
6
CONTINUOUS
10
4.9948146456692912
20
-6.3366601574803152
11
4.9953135826771655
21
-6.3360398818897634
0
LINE
8
BLACK
6
CONTINUOUS
10
4.9953135826771655
20
-6.3360398818897634
11
4.9957116535433066
21
-6.3353504724409451
0
LINE
8
BLACK
6
CONTINUOUS
10
4.9957116535433066
20
-6.3353504724409451
11
4.9959329921259839
21
-6.3352698818897633
0
LINE
8
BLACK
6
CONTINUOUS
10
4.9959329921259839
20
-6.3352698818897633
11
4.9960806692913389
21
-6.335086338582677
0
LINE
8
BLACK
6
CONTINUOUS
10
4.9960806692913389
20
-6.335086338582677
11
4.9968616141732278
21
-6.3349318897637792
0
LINE
8
BLACK
6
CONTINUOUS
10
4.9968616141732278
20
-6.3349318897637792
11
4.9976096456692911
21
-6.3346596456692916
0
LINE
8
BLACK
6
CONTINUOUS
10
4.9976096456692911
20
-6.3346596456692916
11
5.0219815748031493
21
-6.3346596456692916
0
LINE
8
BLACK
6
CONTINUOUS
10
5.0219815748031493
20
-6.3346596456692916
11
5.0229914960629918
21
-6.334837716535433
0
LINE
8
BLACK
6
CONTINUOUS
10
5.0472229133858271
20
-6.3348129133858269
11
5.0472872834645672
21
-6.3348111811023617
0
LINE
8
BLACK
6
CONTINUOUS
10
5.0472872834645672
20
-6.3348111811023617
11
5.0529115748031499
21
-6.3366859448818893
0
LINE
8
BLACK
6
CONTINUOUS
10
5.0529115748031499
20
-6.3366859448818893
11
5.0538133464566926
21
-6.3371742125984252
0
LINE
8
BLACK
6
CONTINUOUS
10
5.0538133464566926
20
-6.3371742125984252
11
5.0539057480314957
21
-6.3373246456692911
0
LINE
8
BLACK
6
CONTINUOUS
10
5.0539057480314957
20
-6.3373246456692911
11
5.0540657480314959
21
-6.3373992519685034
0
LINE
8
BLACK
6
CONTINUOUS
10
5.0540657480314959
20
-6.3373992519685034
11
5.057815275590551
21
-6.3411487795275585
0
LINE
8
BLACK
6
CONTINUOUS
10
5.057815275590551
20
-6.3411487795275585
11
5.0583216535433069
21
-6.3418719291338581
0
LINE
8
BLACK
6
CONTINUOUS
10
5.0583216535433069
20
-6.3418719291338581
11
5.0583683858267712
21
-6.3419161811023619
0
LINE
8
BLACK
6
CONTINUOUS
10
5.0583683858267712
20
-6.3419161811023619
11
5.0602431496062987
21
-6.345665708661417
0
LINE
8
BLACK
6
CONTINUOUS
10
5.0602431496062987
20
-6.345665708661417
11
5.0603884251968498
21
-6.3461541338582679
0
LINE
8
BLACK
6
CONTINUOUS
10
5.0603884251968498
20
-6.3461541338582679
11
5.0604667322834649
21
-6.3462700787401571
0
LINE
8
BLACK
6
CONTINUOUS
10
5.0604667322834649
20
-6.3462700787401571
11
5.0623414960629924
21
-6.3537691338582674
0
LINE
8
BLACK
6
CONTINUOUS
10
5.0623414960629924
20
-6.3537691338582674
11
5.0623829527559057
21
-6.3543570078740155
0
LINE
8
BLACK
6
CONTINUOUS
10
5.0623829527559057
20
-6.3543570078740155
11
5.0624296456692912
21
-6.3544852755905508
0
LINE
8
BLACK
6
CONTINUOUS
10
5.0624296456692912
20
-6.3544852755905508
11
5.0624296456692912
21
-6.3601095669291334
0
LINE
8
BLACK
6
CONTINUOUS
10
5.0624296456692912
20
-6.3601095669291334
11
5.0623272834645672
21
-6.3606899212598424
0
LINE
8
BLACK
6
CONTINUOUS
10
5.0623272834645672
20
-6.3606899212598424
11
5.0623414960629924
21
-6.3608257086614168
0
LINE
8
BLACK
6
CONTINUOUS
10
5.0623414960629924
20
-6.3608257086614168
11
5.0604667322834649
21
-6.3683247637795271
0
LINE
8
BLACK
6
CONTINUOUS
10
5.0604667322834649
20
-6.3683247637795271
11
5.0602591338582679
21
-6.3687901968503935
0
LINE
8
BLACK
6
CONTINUOUS
10
5.0602591338582679
20
-6.3687901968503935
11
5.0602431496062987
21
-6.3689291338582672
0
LINE
8
BLACK
6
CONTINUOUS
10
5.0602431496062987
20
-6.3689291338582672
11
5.0583683858267712
21
-6.3726786614173223
0
LINE
8
BLACK
6
CONTINUOUS
10
5.0583683858267712
20
-6.3726786614173223
11
5.057842519685039
21
-6.3733876377952754
0
LINE
8
BLACK
6
CONTINUOUS
10
5.057842519685039
20
-6.3733876377952754
11
5.0578153149606297
21
-6.3734460236220469
0
LINE
8
BLACK
6
CONTINUOUS
10
5.0578153149606297
20
-6.3734460236220469
11
5.0540657480314959
21
-6.3771956299212595
0
LINE
8
BLACK
6
CONTINUOUS
10
5.0540657480314959
20
-6.3771956299212595
11
5.053225708661417
21
-6.3777838188976377
0
LINE
8
BLACK
6
CONTINUOUS
10
5.053225708661417
20
-6.3777838188976377
11
5.0530498425196848
21
-6.3777991732283459
0
LINE
8
BLACK
6
CONTINUOUS
10
5.0530498425196848
20
-6.3777991732283459
11
5.0529115748031499
21
-6.3779089370078736
0
LINE
8
BLACK
6
CONTINUOUS
10
5.0529115748031499
20
-6.3779089370078736
11
5.0472872834645672
21
-6.3797837007874012
0
LINE
8
BLACK
6
CONTINUOUS
10
5.0472872834645672
20
-6.3797837007874012
11
5.0464140944881892
21
-6.3799131496062991
0
LINE
8
BLACK
6
CONTINUOUS
10
5.0464140944881892
20
-6.3799131496062991
11
5.0463535433070863
21
-6.3799352362204722
0
LINE
8
BLACK
6
CONTINUOUS
10
5.0463535433070863
20
-6.3799352362204722
11
5.0426040157480312
21
-6.3799352362204722
0
LINE
8
BLACK
6
CONTINUOUS
10
5.0426040157480312
20
-6.3799352362204722
11
5.0417346062992126
21
-6.3797819291338582
0
LINE
8
BLACK
6
CONTINUOUS
10
5.0417346062992126
20
-6.3797819291338582
11
5.0416702362204724
21
-6.3797837007874012
0
LINE
8
BLACK
6
CONTINUOUS
10
5.0416702362204724
20
-6.3797837007874012
11
5.0360459842519685
21
-6.3779089370078736
0
LINE
8
BLACK
6
CONTINUOUS
10
5.0360459842519685
20
-6.3779089370078736
11
5.0351442125984249
21
-6.3774206299212599
0
LINE
8
BLACK
6
CONTINUOUS
10
5.0351442125984249
20
-6.3774206299212599
11
5.035051771653543
21
-6.377270196850394
0
LINE
8
BLACK
6
CONTINUOUS
10
5.035051771653543
20
-6.377270196850394
11
5.0348917716535428
21
-6.3771955905511808
0
LINE
8
BLACK
6
CONTINUOUS
10
5.0348917716535428
20
-6.3771955905511808
11
5.0330170078740153
21
-6.3753207874015745
0
LINE
8
BLACK
6
CONTINUOUS
10
5.0330170078740153
20
-6.3753207874015745
11
5.032428818897638
21
-6.3744807480314956
0
LINE
8
BLACK
6
CONTINUOUS
10
5.032428818897638
20
-6.3744807480314956
11
5.0322528346456687
21
-6.3724686614173223
0
LINE
8
BLACK
6
CONTINUOUS
10
5.0322528346456687
20
-6.3724686614173223
11
5.0334113385826766
21
-6.3708141338582678
0
LINE
8
BLACK
6
CONTINUOUS
10
5.0334113385826766
20
-6.3708141338582678
11
5.0353623228346454
21
-6.3702914173228349
0
LINE
8
BLACK
6
CONTINUOUS
10
5.0353623228346454
20
-6.3702914173228349
11
5.0371929133858266
21
-6.371145039370079
0
LINE
8
BLACK
6
CONTINUOUS
10
5.0371929133858266
20
-6.371145039370079
11
5.0385747637795273
21
-6.3725269291338584
0
LINE
8
BLACK
6
CONTINUOUS
10
5.0385747637795273
20
-6.3725269291338584
11
5.0430831496062991
21
-6.374029724409449
0
LINE
8
BLACK
6
CONTINUOUS
10
5.0430831496062991
20
-6.374029724409449
11
5.0458744094488184
21
-6.374029724409449
0
LINE
8
BLACK
6
CONTINUOUS
10
5.0458744094488184
20
-6.374029724409449
11
5.0503827952755902
21
-6.3725268897637797
0
LINE
8
BLACK
6
CONTINUOUS
10
5.0503827952755902
20
-6.3725268897637797
11
5.0533005905511814
21
-6.3696090551181097
0
LINE
8
BLACK
6
CONTINUOUS
10
5.0533005905511814
20
-6.3696090551181097
11
5.0548161023622047
21
-6.3665780708661419
0
LINE
8
BLACK
6
CONTINUOUS
10
5.0548161023622047
20
-6.3665780708661419
11
5.056524133858268
21
-6.3597460236220469
0
LINE
8
BLACK
6
CONTINUOUS
10
5.056524133858268
20
-6.3597460236220469
11
5.056524133858268
21
-6.3548488188976373
0
LINE
8
BLACK
6
CONTINUOUS
10
5.056524133858268
20
-6.3548488188976373
11
5.0548161023622047
21
-6.3480167716535432
0
LINE
8
BLACK
6
CONTINUOUS
10
5.0548161023622047
20
-6.3480167716535432
11
5.0533006299212602
21
-6.3449857874015745
0
LINE
8
BLACK
6
CONTINUOUS
10
5.0533006299212602
20
-6.3449857874015745
11
5.0503827952755902
21
-6.3420679527559054
0
LINE
8
BLACK
6
CONTINUOUS
10
5.0503827952755902
20
-6.3420679527559054
11
5.0458744094488184
21
-6.3405651574803148
0
LINE
8
BLACK
6
CONTINUOUS
10
5.0458744094488184
20
-6.3405651574803148
11
5.0430831496062991
21
-6.3405651574803148
0
LINE
8
BLACK
6
CONTINUOUS
10
5.0430831496062991
20
-6.3405651574803148
11
5.0385747637795273
21
-6.3420679527559054
0
LINE
8
BLACK
6
CONTINUOUS
10
5.0385747637795273
20
-6.3420679527559054
11
5.0371928740157479
21
-6.3434498425196848
0
LINE
8
BLACK
6
CONTINUOUS
10
5.0371928740157479
20
-6.3434498425196848
11
5.036352834645669
21
-6.3440380314960629
0
LINE
8
BLACK
6
CONTINUOUS
10
5.036352834645669
20
-6.3440380314960629
11
5.0343407480314957
21
-6.3442140944881888
0
LINE
8
BLACK
6
CONTINUOUS
10
5.0343407480314957
20
-6.3442140944881888
11
5.0326861811023624
21
-6.3430555511811022
0
LINE
8
BLACK
6
CONTINUOUS
10
5.0326861811023624
20
-6.3430555511811022
11
5.0321634645669286
21
-6.3411046062992122
0
LINE
8
BLACK
6
CONTINUOUS
10
5.0321634645669286
20
-6.3411046062992122
11
5.033017047244094
21
-6.339274015748031
0
LINE
8
BLACK
6
CONTINUOUS
10
5.033017047244094
20
-6.339274015748031
11
5.0348918110236216
21
-6.3373992519685034
0
LINE
8
BLACK
6
CONTINUOUS
10
5.0348918110236216
20
-6.3373992519685034
11
5.0357318503937005
21
-6.3368110629921262
0
LINE
8
BLACK
6
CONTINUOUS
10
5.0357318503937005
20
-6.3368110629921262
11
5.0359076771653539
21
-6.3367956692913383
0
LINE
8
BLACK
6
CONTINUOUS
10
5.0359076771653539
20
-6.3367956692913383
11
5.0360459842519685
21
-6.3366859448818893
0
LINE
8
BLACK
6
CONTINUOUS
10
5.0360459842519685
20
-6.3366859448818893
11
5.0416702362204724
21
-6.3348111811023617
0
LINE
8
BLACK
6
CONTINUOUS
10
5.0416702362204724
20
-6.3348111811023617
11
5.0425434645669291
21
-6.3346816535433073
0
LINE
8
BLACK
6
CONTINUOUS
10
5.0425434645669291
20
-6.3346816535433073
11
5.0426040157480312
21
-6.3346596456692916
0
LINE
8
BLACK
6
CONTINUOUS
10
5.0426040157480312
20
-6.3346596456692916
11
5.0463535433070863
21
-6.3346596456692916
0
LINE
8
BLACK
6
CONTINUOUS
10
5.0463535433070863
20
-6.3346596456692916
11
5.0472229133858271
21
-6.3348129133858269
0
LINE
8
BLACK
6
CONTINUOUS
10
4.9755803543307087
20
-6.1047401968503934
11
4.9757096062992128
21
-6.1047174409448814
0
LINE
8
BLACK
6
CONTINUOUS
10
4.9757096062992128
20
-6.1047174409448814
11
4.9758231889763778
21
-6.1047830314960629
0
LINE
8
BLACK
6
CONTINUOUS
10
4.9758231889763778
20
-6.1047830314960629
11
4.9762067716535432
21
-6.1048506692913387
0
LINE
8
BLACK
6
CONTINUOUS
10
4.9762067716535432
20
-6.1048506692913387
11
4.9767944488188975
21
-6.1053437795275594
0
LINE
8
BLACK
6
CONTINUOUS
10
4.9767944488188975
20
-6.1053437795275594
11
4.9774587795275593
21
-6.1057273622047239
0
LINE
8
BLACK
6
CONTINUOUS
10
4.9774587795275593
20
-6.1057273622047239
11
4.9775498818897637
21
-6.1059776771653542
0
LINE
8
BLACK
6
CONTINUOUS
10
4.9775498818897637
20
-6.1059776771653542
11
4.9777540157480313
21
-6.1061489763779528
0
LINE
8
BLACK
6
CONTINUOUS
10
4.9777540157480313
20
-6.1061489763779528
11
4.9778872440944877
21
-6.1069045275590552
0
LINE
8
BLACK
6
CONTINUOUS
10
4.9778872440944877
20
-6.1069045275590552
11
4.9781496062992128
21
-6.1076253543307084
0
LINE
8
BLACK
6
CONTINUOUS
10
4.9781496062992128
20
-6.1076253543307084
11
4.9781496062992128
21
-6.2710111811023621
0
LINE
8
BLACK
6
CONTINUOUS
10
4.9781496062992128
20
-6.2710111811023621
11
4.978081968503937
21
-6.27139468503937
0
LINE
8
BLACK
6
CONTINUOUS
10
4.978081968503937
20
-6.27139468503937
11
4.9781047637795277
21
-6.2715239370078741
0
LINE
8
BLACK
6
CONTINUOUS
10
4.9781047637795277
20
-6.2715239370078741
11
4.9780391338582675
21
-6.2716375196850391
0
LINE
8
BLACK
6
CONTINUOUS
10
4.9780391338582675
20
-6.2716375196850391
11
4.9779715354330705
21
-6.2720211023622046
0
LINE
8
BLACK
6
CONTINUOUS
10
4.9779715354330705
20
-6.2720211023622046
11
4.9774783858267719
21
-6.2726087795275589
0
LINE
8
BLACK
6
CONTINUOUS
10
4.9774783858267719
20
-6.2726087795275589
11
4.9770948425196853
21
-6.2732731102362207
0
LINE
8
BLACK
6
CONTINUOUS
10
4.9770948425196853
20
-6.2732731102362207
11
4.9768444881889762
21
-6.273364212598425
0
LINE
8
BLACK
6
CONTINUOUS
10
4.9768444881889762
20
-6.273364212598425
11
4.9766732283464563
21
-6.2735683464566927
0
LINE
8
BLACK
6
CONTINUOUS
10
4.9766732283464563
20
-6.2735683464566927
11
4.9759176377952752
21
-6.2737015748031491
0
LINE
8
BLACK
6
CONTINUOUS
10
4.9759176377952752
20
-6.2737015748031491
11
4.9751968503937007
21
-6.2739639370078741
0
LINE
8
BLACK
6
CONTINUOUS
10
4.9751968503937007
20
-6.2739639370078741
11
4.9736220472440946
21
-6.2739639370078741
0
LINE
8
BLACK
6
CONTINUOUS
10
4.9736220472440946
20
-6.2739639370078741
11
4.9736220472440946
21
-6.3251450393700788
0
LINE
8
BLACK
6
CONTINUOUS
10
4.9736220472440946
20
-6.3251450393700788
11
4.9734439763779523
21
-6.3261549606299212
0
LINE
8
BLACK
6
CONTINUOUS
10
4.9734439763779523
20
-6.3261549606299212
11
4.9721456692913382
21
-6.3277022047244094
0
LINE
8
BLACK
6
CONTINUOUS
10
4.9721456692913382
20
-6.3277022047244094
11
4.9701565354330706
21
-6.3280529527559057
0
LINE
8
BLACK
6
CONTINUOUS
10
4.9701565354330706
20
-6.3280529527559057
11
4.968407362204724
21
-6.3270430314960633
0
LINE
8
BLACK
6
CONTINUOUS
10
4.968407362204724
20
-6.3270430314960633
11
4.9677165354330706
21
-6.3251450393700788
0
LINE
8
BLACK
6
CONTINUOUS
10
4.9677165354330706
20
-6.3251450393700788
11
4.9677165354330706
21
-6.2710111811023621
0
LINE
8
BLACK
6
CONTINUOUS
10
4.9677165354330706
20
-6.2710111811023621
11
4.9677841338582676
21
-6.2706276377952754
0
LINE
8
BLACK
6
CONTINUOUS
10
4.9677841338582676
20
-6.2706276377952754
11
4.9677613779527556
21
-6.2704984251968501
0
LINE
8
BLACK
6
CONTINUOUS
10
4.9677613779527556
20
-6.2704984251968501
11
4.9678269685039371
21
-6.2703848031496063
0
LINE
8
BLACK
6
CONTINUOUS
10
4.9678269685039371
20
-6.2703848031496063
11
4.9678946062992129
21
-6.2700012598425197
0
LINE
8
BLACK
6
CONTINUOUS
10
4.9678946062992129
20
-6.2700012598425197
11
4.9683877165354327
21
-6.2694135433070866
0
LINE
8
BLACK
6
CONTINUOUS
10
4.9683877165354327
20
-6.2694135433070866
11
4.9687712992125981
21
-6.2687492519685035
0
LINE
8
BLACK
6
CONTINUOUS
10
4.9687712992125981
20
-6.2687492519685035
11
4.9690216141732284
21
-6.2686581102362204
0
LINE
8
BLACK
6
CONTINUOUS
10
4.9690216141732284
20
-6.2686581102362204
11
4.969192913385827
21
-6.2684540157480315
0
LINE
8
BLACK
6
CONTINUOUS
10
4.969192913385827
20
-6.2684540157480315
11
4.9699484645669294
21
-6.2683207480314955
0
LINE
8
BLACK
6
CONTINUOUS
10
4.9699484645669294
20
-6.2683207480314955
11
4.9706692913385826
21
-6.2680584251968501
0
LINE
8
BLACK
6
CONTINUOUS
10
4.9706692913385826
20
-6.2680584251968501
11
4.9722440944881887
21
-6.2680584251968501
0
LINE
8
BLACK
6
CONTINUOUS
10
4.9722440944881887
20
-6.2680584251968501
11
4.9722440944881887
21
-6.1105781102362204
0
LINE
8
BLACK
6
CONTINUOUS
10
4.9722440944881887
20
-6.1105781102362204
11
4.9706692913385826
21
-6.1105781102362204
0
LINE
8
BLACK
6
CONTINUOUS
10
4.9706692913385826
20
-6.1105781102362204
11
4.9696593700787401
21
-6.110400039370079
0
LINE
8
BLACK
6
CONTINUOUS
10
4.9696593700787401
20
-6.110400039370079
11
4.968112125984252
21
-6.1091017322834649
0
LINE
8
BLACK
6
CONTINUOUS
10
4.968112125984252
20
-6.1091017322834649
11
4.9677613779527556
21
-6.1071125984251964
0
LINE
8
BLACK
6
CONTINUOUS
10
4.9677613779527556
20
-6.1071125984251964
11
4.9687712992125981
21
-6.1053634251968498
0
LINE
8
BLACK
6
CONTINUOUS
10
4.9687712992125981
20
-6.1053634251968498
11
4.9706692913385826
21
-6.1046725984251964
0
LINE
8
BLACK
6
CONTINUOUS
10
4.9706692913385826
20
-6.1046725984251964
11
4.9751968503937007
21
-6.1046725984251964
0
LINE
8
BLACK
6
CONTINUOUS
10
4.9751968503937007
20
-6.1046725984251964
11
4.9755803543307087
21
-6.1047401968503934
0
LINE
8
BLACK
6
CONTINUOUS
10
5.7710527952755903
20
-6.3164935826771655
11
5.7711820472440944
21
-6.3164708267716536
0
LINE
8
BLACK
6
CONTINUOUS
10
5.7711820472440944
20
-6.3164708267716536
11
5.7712956299212594
21
-6.3165364173228342
0
LINE
8
BLACK
6
CONTINUOUS
10
5.7712956299212594
20
-6.3165364173228342
11
5.7716792125984249
21
-6.31660405511811
0
LINE
8
BLACK
6
CONTINUOUS
10
5.7716792125984249
20
-6.31660405511811
11
5.7722668897637792
21
-6.3170971653543306
0
LINE
8
BLACK
6
CONTINUOUS
10
5.7722668897637792
20
-6.3170971653543306
11
5.772931220472441
21
-6.3174807480314961
0
LINE
8
BLACK
6
CONTINUOUS
10
5.772931220472441
20
-6.3174807480314961
11
5.7730223228346453
21
-6.3177310629921255
0
LINE
8
BLACK
6
CONTINUOUS
10
5.7730223228346453
20
-6.3177310629921255
11
5.773226456692913
21
-6.3179023622047241
0
LINE
8
BLACK
6
CONTINUOUS
10
5.773226456692913
20
-6.3179023622047241
11
5.7733596850393702
21
-6.3186579133858265
0
LINE
8
BLACK
6
CONTINUOUS
10
5.7733596850393702
20
-6.3186579133858265
11
5.7736220472440944
21
-6.3193787401574806
0
LINE
8
BLACK
6
CONTINUOUS
10
5.7736220472440944
20
-6.3193787401574806
11
5.7736220472440944
21
-6.3209535433070867
0
LINE
8
BLACK
6
CONTINUOUS
10
5.7736220472440944
20
-6.3209535433070867
11
5.9311023622047241
21
-6.3209535433070867
0
LINE
8
BLACK
6
CONTINUOUS
10
5.9311023622047241
20
-6.3209535433070867
11
5.9311023622047241
21
-6.3193787401574806
0
LINE
8
BLACK
6
CONTINUOUS
10
5.9311023622047241
20
-6.3193787401574806
11
5.9312804330708664
21
-6.3183688188976372
0
LINE
8
BLACK
6
CONTINUOUS
10
5.9312804330708664
20
-6.3183688188976372
11
5.9325787401574805
21
-6.3168215748031491
0
LINE
8
BLACK
6
CONTINUOUS
10
5.9325787401574805
20
-6.3168215748031491
11
5.9345678740157481
21
-6.3164708267716536
0
LINE
8
BLACK
6
CONTINUOUS
10
5.9345678740157481
20
-6.3164708267716536
11
5.9363170472440947
21
-6.3174807480314961
0
LINE
8
BLACK
6
CONTINUOUS
10
5.9363170472440947
20
-6.3174807480314961
11
5.9370078740157481
21
-6.3193787401574806
0
LINE
8
BLACK
6
CONTINUOUS
10
5.9370078740157481
20
-6.3193787401574806
11
5.9370078740157481
21
-6.3239062992125987
0
LINE
8
BLACK
6
CONTINUOUS
10
5.9370078740157481
20
-6.3239062992125987
11
5.9369402362204724
21
-6.3242898031496058
0
LINE
8
BLACK
6
CONTINUOUS
10
5.9369402362204724
20
-6.3242898031496058
11
5.9369630314960631
21
-6.3244190551181099
0
LINE
8
BLACK
6
CONTINUOUS
10
5.9369630314960631
20
-6.3244190551181099
11
5.9368974015748028
21
-6.3245326377952757
0
LINE
8
BLACK
6
CONTINUOUS
10
5.9368974015748028
20
-6.3245326377952757
11
5.9368298031496058
21
-6.3249162204724412
0
LINE
8
BLACK
6
CONTINUOUS
10
5.9368298031496058
20
-6.3249162204724412
11
5.9363366535433073
21
-6.3255038976377955
0
LINE
8
BLACK
6
CONTINUOUS
10
5.9363366535433073
20
-6.3255038976377955
11
5.9359531102362206
21
-6.3261682283464564
0
LINE
8
BLACK
6
CONTINUOUS
10
5.9359531102362206
20
-6.3261682283464564
11
5.9357027559055116
21
-6.3262593307086616
0
LINE
8
BLACK
6
CONTINUOUS
10
5.9357027559055116
20
-6.3262593307086616
11
5.9355314960629917
21
-6.3264634645669293
0
LINE
8
BLACK
6
CONTINUOUS
10
5.9355314960629917
20
-6.3264634645669293
11
5.9347759055118106
21
-6.3265966929133857
0
LINE
8
BLACK
6
CONTINUOUS
10
5.9347759055118106
20
-6.3265966929133857
11
5.9340551181102361
21
-6.3268590551181099
0
LINE
8
BLACK
6
CONTINUOUS
10
5.9340551181102361
20
-6.3268590551181099
11
5.7706692913385824
21
-6.3268590551181099
0
LINE
8
BLACK
6
CONTINUOUS
10
5.7706692913385824
20
-6.3268590551181099
11
5.7702857480314957
21
-6.3267914173228341
0
LINE
8
BLACK
6
CONTINUOUS
10
5.7702857480314957
20
-6.3267914173228341
11
5.7701565354330704
21
-6.3268142125984248
0
LINE
8
BLACK
6
CONTINUOUS
10
5.7701565354330704
20
-6.3268142125984248
11
5.7700429133858266
21
-6.3267485826771654
0
LINE
8
BLACK
6
CONTINUOUS
10
5.7700429133858266
20
-6.3267485826771654
11
5.76965937007874
21
-6.3266809842519685
0
LINE
8
BLACK
6
CONTINUOUS
10
5.76965937007874
20
-6.3266809842519685
11
5.7690716535433069
21
-6.326187834645669
0
LINE
8
BLACK
6
CONTINUOUS
10
5.7690716535433069
20
-6.326187834645669
11
5.7684073622047247
21
-6.3258042913385824
0
LINE
8
BLACK
6
CONTINUOUS
10
5.7684073622047247
20
-6.3258042913385824
11
5.7683162204724407
21
-6.3255539370078742
0
LINE
8
BLACK
6
CONTINUOUS
10
5.7683162204724407
20
-6.3255539370078742
11
5.7681121259842518
21
-6.3253826771653543
0
LINE
8
BLACK
6
CONTINUOUS
10
5.7681121259842518
20
-6.3253826771653543
11
5.7679788582677167
21
-6.3246270866141732
0
LINE
8
BLACK
6
CONTINUOUS
10
5.7679788582677167
20
-6.3246270866141732
11
5.7677165354330704
21
-6.3239062992125987
0
LINE
8
BLACK
6
CONTINUOUS
10
5.7677165354330704
20
-6.3239062992125987
11
5.7677165354330704
21
-6.3223314960629917
0
LINE
8
BLACK
6
CONTINUOUS
10
5.7677165354330704
20
-6.3223314960629917
11
5.7165354330708658
21
-6.3223314960629917
0
LINE
8
BLACK
6
CONTINUOUS
10
5.7165354330708658
20
-6.3223314960629917
11
5.7155255118110233
21
-6.3221534251968503
0
LINE
8
BLACK
6
CONTINUOUS
10
5.7155255118110233
20
-6.3221534251968503
11
5.7139782677165352
21
-6.3208551181102361
0
LINE
8
BLACK
6
CONTINUOUS
10
5.7139782677165352
20
-6.3208551181102361
11
5.7136275196850397
21
-6.3188659842519685
0
LINE
8
BLACK
6
CONTINUOUS
10
5.7136275196850397
20
-6.3188659842519685
11
5.7146374409448821
21
-6.317116811023622
0
LINE
8
BLACK
6
CONTINUOUS
10
5.7146374409448821
20
-6.317116811023622
11
5.7165354330708658
21
-6.3164259842519686
0
LINE
8
BLACK
6
CONTINUOUS
10
5.7165354330708658
20
-6.3164259842519686
11
5.7706692913385824
21
-6.3164259842519686
0
LINE
8
BLACK
6
CONTINUOUS
10
5.7706692913385824
20
-6.3164259842519686
11
5.7710527952755903
21
-6.3164935826771655
0
LINE
8
BLACK
6
CONTINUOUS
10
6.1237092125984249
20
-6.2697743307086613
11
6.124822047244094
21
-6.271459881889764
0
LINE
8
BLACK
6
CONTINUOUS
10
6.124822047244094
20
-6.271459881889764
11
6.1245911417322834
21
-6.2734664173228349
0
LINE
8
BLACK
6
CONTINUOUS
10
6.1245911417322834
20
-6.2734664173228349
11
6.1227163779527558
21
-6.2772159448818901
0
LINE
8
BLACK
6
CONTINUOUS
10
6.1227163779527558
20
-6.2772159448818901
11
6.1221904330708661
21
-6.2779249999999998
0
LINE
8
BLACK
6
CONTINUOUS
10
6.1221904330708661
20
-6.2779249999999998
11
6.1221632677165356
21
-6.2779833464566925
0
LINE
8
BLACK
6
CONTINUOUS
10
6.1221632677165356
20
-6.2779833464566925
11
6.1197048818897635
21
-6.2804417322834647
0
LINE
8
BLACK
6
CONTINUOUS
10
6.1197048818897635
20
-6.2804417322834647
11
6.1471188582677163
21
-6.2804417322834647
0
LINE
8
BLACK
6
CONTINUOUS
10
6.1471188582677163
20
-6.2804417322834647
11
6.1471188582677163
21
-6.2721459055118105
0
LINE
8
BLACK
6
CONTINUOUS
10
6.1471188582677163
20
-6.2721459055118105
11
6.1472969291338577
21
-6.2711359842519681
0
LINE
8
BLACK
6
CONTINUOUS
10
6.1472969291338577
20
-6.2711359842519681
11
6.1485952362204719
21
-6.2695887401574799
0
LINE
8
BLACK
6
CONTINUOUS
10
6.1485952362204719
20
-6.2695887401574799
11
6.1505843700787404
21
-6.2692379921259844
0
LINE
8
BLACK
6
CONTINUOUS
10
6.1505843700787404
20
-6.2692379921259844
11
6.152333543307086
21
-6.2702479133858269
0
LINE
8
BLACK
6
CONTINUOUS
10
6.152333543307086
20
-6.2702479133858269
11
6.1530243700787404
21
-6.2721459055118105
0
LINE
8
BLACK
6
CONTINUOUS
10
6.1530243700787404
20
-6.2721459055118105
11
6.1530243700787404
21
-6.2946430708661412
0
LINE
8
BLACK
6
CONTINUOUS
10
6.1530243700787404
20
-6.2946430708661412
11
6.1528462992125981
21
-6.2956529921259845
0
LINE
8
BLACK
6
CONTINUOUS
10
6.1528462992125981
20
-6.2956529921259845
11
6.1515479921259839
21
-6.2972002362204726
0
LINE
8
BLACK
6
CONTINUOUS
10
6.1515479921259839
20
-6.2972002362204726
11
6.1495588582677163
21
-6.2975509842519681
0
LINE
8
BLACK
6
CONTINUOUS
10
6.1495588582677163
20
-6.2975509842519681
11
6.1478096850393698
21
-6.2965410629921257
0
LINE
8
BLACK
6
CONTINUOUS
10
6.1478096850393698
20
-6.2965410629921257
11
6.1471188582677163
21
-6.2946430708661412
0
LINE
8
BLACK
6
CONTINUOUS
10
6.1471188582677163
20
-6.2946430708661412
11
6.1471188582677163
21
-6.2863472440944879
0
LINE
8
BLACK
6
CONTINUOUS
10
6.1471188582677163
20
-6.2863472440944879
11
6.1107015354330709
21
-6.2863472440944879
0
LINE
8
BLACK
6
CONTINUOUS
10
6.1107015354330709
20
-6.2863472440944879
11
6.1096916141732285
21
-6.2861691732283465
0
LINE
8
BLACK
6
CONTINUOUS
10
6.1096916141732285
20
-6.2861691732283465
11
6.1095615354330706
21
-6.2860600393700787
0
LINE
8
BLACK
6
CONTINUOUS
10
6.1095615354330706
20
-6.2860600393700787
11
6.10939279527559
21
-6.2860413779527562
0
LINE
8
BLACK
6
CONTINUOUS
10
6.10939279527559
20
-6.2860413779527562
11
6.1088008661417321
21
-6.2854217322834645
0
LINE
8
BLACK
6
CONTINUOUS
10
6.1088008661417321
20
-6.2854217322834645
11
6.1081443700787403
21
-6.2848708661417323
0
LINE
8
BLACK
6
CONTINUOUS
10
6.1081443700787403
20
-6.2848708661417323
11
6.1081148818897635
21
-6.2847036220472443
0
LINE
8
BLACK
6
CONTINUOUS
10
6.1081148818897635
20
-6.2847036220472443
11
6.1079975984251966
21
-6.2845808661417317
0
LINE
8
BLACK
6
CONTINUOUS
10
6.1079975984251966
20
-6.2845808661417317
11
6.1079424409448819
21
-6.2837257086614171
0
LINE
8
BLACK
6
CONTINUOUS
10
6.1079424409448819
20
-6.2837257086614171
11
6.107793622047244
21
-6.2828817322834647
0
LINE
8
BLACK
6
CONTINUOUS
10
6.107793622047244
20
-6.2828817322834647
11
6.107878503937008
21
-6.282734645669291
0
LINE
8
BLACK
6
CONTINUOUS
10
6.107878503937008
20
-6.282734645669291
11
6.1078675984251971
21
-6.2825652755905512
0
LINE
8
BLACK
6
CONTINUOUS
10
6.1078675984251971
20
-6.2825652755905512
11
6.1083750393700784
21
-6.2818746456692915
0
LINE
8
BLACK
6
CONTINUOUS
10
6.1083750393700784
20
-6.2818746456692915
11
6.1088035433070864
21
-6.2811325590551181
0
LINE
8
BLACK
6
CONTINUOUS
10
6.1088035433070864
20
-6.2811325590551181
11
6.1089630314960628
21
-6.2810744881889766
0
LINE
8
BLACK
6
CONTINUOUS
10
6.1089630314960628
20
-6.2810744881889766
11
6.1090636220472438
21
-6.280937637795275
0
LINE
8
BLACK
6
CONTINUOUS
10
6.1090636220472438
20
-6.280937637795275
11
6.1144446456692911
21
-6.2773502755905515
0
LINE
8
BLACK
6
CONTINUOUS
10
6.1144446456692911
20
-6.2773502755905515
11
6.1176486220472439
21
-6.2741463385826775
0
LINE
8
BLACK
6
CONTINUOUS
10
6.1176486220472439
20
-6.2741463385826775
11
6.1193090944881892
21
-6.270825393700787
0
LINE
8
BLACK
6
CONTINUOUS
10
6.1193090944881892
20
-6.270825393700787
11
6.1199199999999996
21
-6.2700017322834647
0
LINE
8
BLACK
6
CONTINUOUS
10
6.1199199999999996
20
-6.2700017322834647
11
6.1217731889763778
21
-6.2691984645669292
0
LINE
8
BLACK
6
CONTINUOUS
10
6.1217731889763778
20
-6.2691984645669292
11
6.1237092125984249
21
-6.2697743307086613
0
LINE
8
BLACK
6
CONTINUOUS
10
6.0360020866141735
20
-6.248031929133858
11
6.0366929133858269
21
-6.2499299212598425
0
LINE
8
BLACK
6
CONTINUOUS
10
6.0366929133858269
20
-6.2499299212598425
11
6.0366929133858269
21
-6.2774889763779527
0
LINE
8
BLACK
6
CONTINUOUS
10
6.0366929133858269
20
-6.2774889763779527
11
6.0365148425196846
21
-6.2784988976377951
0
LINE
8
BLACK
6
CONTINUOUS
10
6.0365148425196846
20
-6.2784988976377951
11
6.0352165354330705
21
-6.2800461417322833
0
LINE
8
BLACK
6
CONTINUOUS
10
6.0352165354330705
20
-6.2800461417322833
11
6.0332274015748029
21
-6.2803968897637796
0
LINE
8
BLACK
6
CONTINUOUS
10
6.0332274015748029
20
-6.2803968897637796
11
6.0314782283464563
21
-6.2793869685039372
0
LINE
8
BLACK
6
CONTINUOUS
10
6.0314782283464563
20
-6.2793869685039372
11
6.0307874015748029
21
-6.2774889763779527
0
LINE
8
BLACK
6
CONTINUOUS
10
6.0307874015748029
20
-6.2774889763779527
11
6.0307874015748029
21
-6.2499299212598425
0
LINE
8
BLACK
6
CONTINUOUS
10
6.0307874015748029
20
-6.2499299212598425
11
6.0309654724409452
21
-6.24892
0
LINE
8
BLACK
6
CONTINUOUS
10
6.0309654724409452
20
-6.24892
11
6.0322637795275593
21
-6.2473727559055119
0
LINE
8
BLACK
6
CONTINUOUS
10
6.0322637795275593
20
-6.2473727559055119
11
6.0342529133858269
21
-6.2470220078740155
0
LINE
8
BLACK
6
CONTINUOUS
10
6.0342529133858269
20
-6.2470220078740155
11
6.0360020866141735
21
-6.248031929133858
0
LINE
8
BLACK
6
CONTINUOUS
10
6.0832461811023624
20
-6.248031929133858
11
6.0839370078740158
21
-6.2499299212598425
0
LINE
8
BLACK
6
CONTINUOUS
10
6.0839370078740158
20
-6.2499299212598425
11
6.0839370078740158
21
-6.2774889763779527
0
LINE
8
BLACK
6
CONTINUOUS
10
6.0839370078740158
20
-6.2774889763779527
11
6.0837589370078735
21
-6.2784988976377951
0
LINE
8
BLACK
6
CONTINUOUS
10
6.0837589370078735
20
-6.2784988976377951
11
6.0824606299212594
21
-6.2800461417322833
0
LINE
8
BLACK
6
CONTINUOUS
10
6.0824606299212594
20
-6.2800461417322833
11
6.0804714960629918
21
-6.2803968897637796
0
LINE
8
BLACK
6
CONTINUOUS
10
6.0804714960629918
20
-6.2803968897637796
11
6.0787223228346452
21
-6.2793869685039372
0
LINE
8
BLACK
6
CONTINUOUS
10
6.0787223228346452
20
-6.2793869685039372
11
6.0780314960629918
21
-6.2774889763779527
0
LINE
8
BLACK
6
CONTINUOUS
10
6.0780314960629918
20
-6.2774889763779527
11
6.0780314960629918
21
-6.2499299212598425
0
LINE
8
BLACK
6
CONTINUOUS
10
6.0780314960629918
20
-6.2499299212598425
11
6.0782095669291341
21
-6.24892
0
LINE
8
BLACK
6
CONTINUOUS
10
6.0782095669291341
20
-6.24892
11
6.0795078740157482
21
-6.2473727559055119
0
LINE
8
BLACK
6
CONTINUOUS
10
6.0795078740157482
20
-6.2473727559055119
11
6.0814970078740158
21
-6.2470220078740155
0
LINE
8
BLACK
6
CONTINUOUS
10
6.0814970078740158
20
-6.2470220078740155
11
6.0832461811023624
21
-6.248031929133858
0
LINE
8
BLACK
6
CONTINUOUS
10
5.1189548425196847
20
-6.0546854724409451
11
5.1196456692913381
21
-6.0565834645669288
0
LINE
8
BLACK
6
CONTINUOUS
10
5.1196456692913381
20
-6.0565834645669288
11
5.1196456692913381
21
-6.1107173228346454
0
LINE
8
BLACK
6
CONTINUOUS
10
5.1196456692913381
20
-6.1107173228346454
11
5.1195780314960633
21
-6.1111008267716533
0
LINE
8
BLACK
6
CONTINUOUS
10
5.1195780314960633
20
-6.1111008267716533
11
5.1196008267716531
21
-6.1112300787401574
0
LINE
8
BLACK
6
CONTINUOUS
10
5.1196008267716531
20
-6.1112300787401574
11
5.1195351968503937
21
-6.1113436614173224
0
LINE
8
BLACK
6
CONTINUOUS
10
5.1195351968503937
20
-6.1113436614173224
11
5.1194675984251967
21
-6.1117272440944879
0
LINE
8
BLACK
6
CONTINUOUS
10
5.1194675984251967
20
-6.1117272440944879
11
5.1189744488188973
21
-6.1123149212598422
0
LINE
8
BLACK
6
CONTINUOUS
10
5.1189744488188973
20
-6.1123149212598422
11
5.1185909055118106
21
-6.112979251968504
0
LINE
8
BLACK
6
CONTINUOUS
10
5.1185909055118106
20
-6.112979251968504
11
5.1183405511811024
21
-6.1130703543307083
0
LINE
8
BLACK
6
CONTINUOUS
10
5.1183405511811024
20
-6.1130703543307083
11
5.1181692913385826
21
-6.113274488188976
0
LINE
8
BLACK
6
CONTINUOUS
10
5.1181692913385826
20
-6.113274488188976
11
5.1174137007874014
21
-6.1134077165354332
0
LINE
8
BLACK
6
CONTINUOUS
10
5.1174137007874014
20
-6.1134077165354332
11
5.116692913385827
21
-6.1136700787401574
0
LINE
8
BLACK
6
CONTINUOUS
10
5.116692913385827
20
-6.1136700787401574
11
5.11511811023622
21
-6.1136700787401574
0
LINE
8
BLACK
6
CONTINUOUS
10
5.11511811023622
20
-6.1136700787401574
11
5.11511811023622
21
-6.2711503937007871
0
LINE
8
BLACK
6
CONTINUOUS
10
5.11511811023622
20
-6.2711503937007871
11
5.116692913385827
21
-6.2711503937007871
0
LINE
8
BLACK
6
CONTINUOUS
10
5.116692913385827
20
-6.2711503937007871
11
5.1177028346456694
21
-6.2713284645669294
0
LINE
8
BLACK
6
CONTINUOUS
10
5.1177028346456694
20
-6.2713284645669294
11
5.1192500787401576
21
-6.2726267716535435
0
LINE
8
BLACK
6
CONTINUOUS
10
5.1192500787401576
20
-6.2726267716535435
11
5.1196008267716531
21
-6.2746159055118111
0
LINE
8
BLACK
6
CONTINUOUS
10
5.1196008267716531
20
-6.2746159055118111
11
5.1185909055118106
21
-6.2763650787401577
0
LINE
8
BLACK
6
CONTINUOUS
10
5.1185909055118106
20
-6.2763650787401577
11
5.116692913385827
21
-6.2770559055118111
0
LINE
8
BLACK
6
CONTINUOUS
10
5.116692913385827
20
-6.2770559055118111
11
5.1121653543307088
21
-6.2770559055118111
0
LINE
8
BLACK
6
CONTINUOUS
10
5.1121653543307088
20
-6.2770559055118111
11
5.1117818110236222
21
-6.2769882677165354
0
LINE
8
BLACK
6
CONTINUOUS
10
5.1117818110236222
20
-6.2769882677165354
11
5.1116525984251968
21
-6.2770110629921261
0
LINE
8
BLACK
6
CONTINUOUS
10
5.1116525984251968
20
-6.2770110629921261
11
5.1115389763779531
21
-6.2769454330708658
0
LINE
8
BLACK
6
CONTINUOUS
10
5.1115389763779531
20
-6.2769454330708658
11
5.1111554330708664
21
-6.2768778346456688
0
LINE
8
BLACK
6
CONTINUOUS
10
5.1111554330708664
20
-6.2768778346456688
11
5.1105677165354333
21
-6.2763846850393703
0
LINE
8
BLACK
6
CONTINUOUS
10
5.1105677165354333
20
-6.2763846850393703
11
5.1099034251968503
21
-6.2760011417322836
0
LINE
8
BLACK
6
CONTINUOUS
10
5.1099034251968503
20
-6.2760011417322836
11
5.1098122834645672
21
-6.2757507874015745
0
LINE
8
BLACK
6
CONTINUOUS
10
5.1098122834645672
20
-6.2757507874015745
11
5.1096081889763783
21
-6.2755795275590547
0
LINE
8
BLACK
6
CONTINUOUS
10
5.1096081889763783
20
-6.2755795275590547
11
5.1094749212598423
21
-6.2748239370078736
0
LINE
8
BLACK
6
CONTINUOUS
10
5.1094749212598423
20
-6.2748239370078736
11
5.1092125984251968
21
-6.2741031496062991
0
LINE
8
BLACK
6
CONTINUOUS
10
5.1092125984251968
20
-6.2741031496062991
11
5.1092125984251968
21
-6.1107173228346454
0
LINE
8
BLACK
6
CONTINUOUS
10
5.1092125984251968
20
-6.1107173228346454
11
5.1092801968503938
21
-6.1103337795275587
0
LINE
8
BLACK
6
CONTINUOUS
10
5.1092801968503938
20
-6.1103337795275587
11
5.1092574409448819
21
-6.1102045669291334
0
LINE
8
BLACK
6
CONTINUOUS
10
5.1092574409448819
20
-6.1102045669291334
11
5.1093230314960625
21
-6.1100909448818896
0
LINE
8
BLACK
6
CONTINUOUS
10
5.1093230314960625
20
-6.1100909448818896
11
5.1093906692913382
21
-6.109707401574803
0
LINE
8
BLACK
6
CONTINUOUS
10
5.1093906692913382
20
-6.109707401574803
11
5.1098837795275589
21
-6.1091196850393699
0
LINE
8
BLACK
6
CONTINUOUS
10
5.1098837795275589
20
-6.1091196850393699
11
5.1102673622047243
21
-6.1084553937007868
0
LINE
8
BLACK
6
CONTINUOUS
10
5.1102673622047243
20
-6.1084553937007868
11
5.1105176771653547
21
-6.1083642519685037
0
LINE
8
BLACK
6
CONTINUOUS
10
5.1105176771653547
20
-6.1083642519685037
11
5.1106889763779524
21
-6.1081601574803148
0
LINE
8
BLACK
6
CONTINUOUS
10
5.1106889763779524
20
-6.1081601574803148
11
5.1114445275590548
21
-6.1080268897637797
0
LINE
8
BLACK
6
CONTINUOUS
10
5.1114445275590548
20
-6.1080268897637797
11
5.1121653543307088
21
-6.1077645669291334
0
LINE
8
BLACK
6
CONTINUOUS
10
5.1121653543307088
20
-6.1077645669291334
11
5.113740157480315
21
-6.1077645669291334
0
LINE
8
BLACK
6
CONTINUOUS
10
5.113740157480315
20
-6.1077645669291334
11
5.113740157480315
21
-6.0565834645669288
0
LINE
8
BLACK
6
CONTINUOUS
10
5.113740157480315
20
-6.0565834645669288
11
5.1139182283464564
21
-6.0555735433070863
0
LINE
8
BLACK
6
CONTINUOUS
10
5.1139182283464564
20
-6.0555735433070863
11
5.1152165354330705
21
-6.0540262992125982
0
LINE
8
BLACK
6
CONTINUOUS
10
5.1152165354330705
20
-6.0540262992125982
11
5.1172056692913381
21
-6.0536755511811018
0
LINE
8
BLACK
6
CONTINUOUS
10
5.1172056692913381
20
-6.0536755511811018
11
5.1189548425196847
21
-6.0546854724409451
0
LINE
8
BLACK
6
CONTINUOUS
10
5.4629425590551177
20
-6.1078321653543304
11
5.4630718110236218
21
-6.1078094094488184
0
LINE
8
BLACK
6
CONTINUOUS
10
5.4630718110236218
20
-6.1078094094488184
11
5.4631853937007877
21
-6.1078749999999999
0
LINE
8
BLACK
6
CONTINUOUS
10
5.4631853937007877
20
-6.1078749999999999
11
5.4635689763779522
21
-6.1079426377952757
0
LINE
8
BLACK
6
CONTINUOUS
10
5.4635689763779522
20
-6.1079426377952757
11
5.4641566535433066
21
-6.1084357480314964
0
LINE
8
BLACK
6
CONTINUOUS
10
5.4641566535433066
20
-6.1084357480314964
11
5.4648209842519684
21
-6.1088193307086609
0
LINE
8
BLACK
6
CONTINUOUS
10
5.4648209842519684
20
-6.1088193307086609
11
5.4649120866141727
21
-6.1090696456692912
0
LINE
8
BLACK
6
CONTINUOUS
10
5.4649120866141727
20
-6.1090696456692912
11
5.4651162204724404
21
-6.1092409448818898
0
LINE
8
BLACK
6
CONTINUOUS
10
5.4651162204724404
20
-6.1092409448818898
11
5.4652494488188976
21
-6.1099964960629922
0
LINE
8
BLACK
6
CONTINUOUS
10
5.4652494488188976
20
-6.1099964960629922
11
5.4655118110236218
21
-6.1107173228346454
0
LINE
8
BLACK
6
CONTINUOUS
10
5.4655118110236218
20
-6.1107173228346454
11
5.4655118110236218
21
-6.2741031496062991
0
LINE
8
BLACK
6
CONTINUOUS
10
5.4655118110236218
20
-6.2741031496062991
11
5.4654441732283461
21
-6.274486653543307
0
LINE
8
BLACK
6
CONTINUOUS
10
5.4654441732283461
20
-6.274486653543307
11
5.4654669685039368
21
-6.2746159055118111
0
LINE
8
BLACK
6
CONTINUOUS
10
5.4654669685039368
20
-6.2746159055118111
11
5.4654013385826774
21
-6.2747294881889761
0
LINE
8
BLACK
6
CONTINUOUS
10
5.4654013385826774
20
-6.2747294881889761
11
5.4653337401574804
21
-6.2751130708661416
0
LINE
8
BLACK
6
CONTINUOUS
10
5.4653337401574804
20
-6.2751130708661416
11
5.464840590551181
21
-6.2757007480314959
0
LINE
8
BLACK
6
CONTINUOUS
10
5.464840590551181
20
-6.2757007480314959
11
5.4644570472440943
21
-6.2763650787401577
0
LINE
8
BLACK
6
CONTINUOUS
10
5.4644570472440943
20
-6.2763650787401577
11
5.4642066929133861
21
-6.276456181102362
0
LINE
8
BLACK
6
CONTINUOUS
10
5.4642066929133861
20
-6.276456181102362
11
5.4640354330708663
21
-6.2766603149606297
0
LINE
8
BLACK
6
CONTINUOUS
10
5.4640354330708663
20
-6.2766603149606297
11
5.4632798425196851
21
-6.2767935433070861
0
LINE
8
BLACK
6
CONTINUOUS
10
5.4632798425196851
20
-6.2767935433070861
11
5.4625590551181098
21
-6.2770559055118111
0
LINE
8
BLACK
6
CONTINUOUS
10
5.4625590551181098
20
-6.2770559055118111
11
5.4580314960629916
21
-6.2770559055118111
0
LINE
8
BLACK
6
CONTINUOUS
10
5.4580314960629916
20
-6.2770559055118111
11
5.4570215748031492
21
-6.2768778346456688
0
LINE
8
BLACK
6
CONTINUOUS
10
5.4570215748031492
20
-6.2768778346456688
11
5.4554743307086611
21
-6.2755795275590547
0
LINE
8
BLACK
6
CONTINUOUS
10
5.4554743307086611
20
-6.2755795275590547
11
5.4551235826771656
21
-6.2735903937007871
0
LINE
8
BLACK
6
CONTINUOUS
10
5.4551235826771656
20
-6.2735903937007871
11
5.456133503937008
21
-6.2718412204724405
0
LINE
8
BLACK
6
CONTINUOUS
10
5.456133503937008
20
-6.2718412204724405
11
5.4580314960629916
21
-6.2711503937007871
0
LINE
8
BLACK
6
CONTINUOUS
10
5.4580314960629916
20
-6.2711503937007871
11
5.4596062992125987
21
-6.2711503937007871
0
LINE
8
BLACK
6
CONTINUOUS
10
5.4596062992125987
20
-6.2711503937007871
11
5.4596062992125987
21
-6.1136700787401574
0
LINE
8
BLACK
6
CONTINUOUS
10
5.4596062992125987
20
-6.1136700787401574
11
5.4580314960629916
21
-6.1136700787401574
0
LINE
8
BLACK
6
CONTINUOUS
10
5.4580314960629916
20
-6.1136700787401574
11
5.4570215748031492
21
-6.113492007874016
0
LINE
8
BLACK
6
CONTINUOUS
10
5.4570215748031492
20
-6.113492007874016
11
5.4554743307086611
21
-6.1121937007874019
0
LINE
8
BLACK
6
CONTINUOUS
10
5.4554743307086611
20
-6.1121937007874019
11
5.4551235826771656
21
-6.1102045669291334
0
LINE
8
BLACK
6
CONTINUOUS
10
5.4551235826771656
20
-6.1102045669291334
11
5.456133503937008
21
-6.1084553937007868
0
LINE
8
BLACK
6
CONTINUOUS
10
5.456133503937008
20
-6.1084553937007868
11
5.4580314960629916
21
-6.1077645669291334
0
LINE
8
BLACK
6
CONTINUOUS
10
5.4580314960629916
20
-6.1077645669291334
11
5.4625590551181098
21
-6.1077645669291334
0
LINE
8
BLACK
6
CONTINUOUS
10
5.4625590551181098
20
-6.1077645669291334
11
5.4629425590551177
21
-6.1078321653543304
0
LINE
8
BLACK
6
CONTINUOUS
10
5.0186398818897633
20
-6.2443224803149606
11
5.0193307086614176
21
-6.2462204724409451
0
LINE
8
BLACK
6
CONTINUOUS
10
5.0193307086614176
20
-6.2462204724409451
11
5.0193307086614176
21
-6.2737795275590553
0
LINE
8
BLACK
6
CONTINUOUS
10
5.0193307086614176
20
-6.2737795275590553
11
5.0191526377952753
21
-6.2747894488188978
0
LINE
8
BLACK
6
CONTINUOUS
10
5.0191526377952753
20
-6.2747894488188978
11
5.0178543307086612
21
-6.2763366929133859
0
LINE
8
BLACK
6
CONTINUOUS
10
5.0178543307086612
20
-6.2763366929133859
11
5.0158651968503936
21
-6.2766874409448814
0
LINE
8
BLACK
6
CONTINUOUS
10
5.0158651968503936
20
-6.2766874409448814
11
5.014116023622047
21
-6.275677519685039
0
LINE
8
BLACK
6
CONTINUOUS
10
5.014116023622047
20
-6.275677519685039
11
5.0134251968503936
21
-6.2737795275590553
0
LINE
8
BLACK
6
CONTINUOUS
10
5.0134251968503936
20
-6.2737795275590553
11
5.0134251968503936
21
-6.2462204724409451
0
LINE
8
BLACK
6
CONTINUOUS
10
5.0134251968503936
20
-6.2462204724409451
11
5.013603267716535
21
-6.2452105511811018
0
LINE
8
BLACK
6
CONTINUOUS
10
5.013603267716535
20
-6.2452105511811018
11
5.0149015748031491
21
-6.2436633070866137
0
LINE
8
BLACK
6
CONTINUOUS
10
5.0149015748031491
20
-6.2436633070866137
11
5.0168907086614176
21
-6.2433125590551182
0
LINE
8
BLACK
6
CONTINUOUS
10
5.0168907086614176
20
-6.2433125590551182
11
5.0186398818897633
21
-6.2443224803149606
0
LINE
8
BLACK
6
CONTINUOUS
10
5.0658839763779531
20
-6.2443224803149606
11
5.0665748031496065
21
-6.2462204724409451
0
LINE
8
BLACK
6
CONTINUOUS
10
5.0665748031496065
20
-6.2462204724409451
11
5.0665748031496065
21
-6.2737795275590553
0
LINE
8
BLACK
6
CONTINUOUS
10
5.0665748031496065
20
-6.2737795275590553
11
5.0663967322834642
21
-6.2747894488188978
0
LINE
8
BLACK
6
CONTINUOUS
10
5.0663967322834642
20
-6.2747894488188978
11
5.0650984251968501
21
-6.2763366929133859
0
LINE
8
BLACK
6
CONTINUOUS
10
5.0650984251968501
20
-6.2763366929133859
11
5.0631092913385825
21
-6.2766874409448814
0
LINE
8
BLACK
6
CONTINUOUS
10
5.0631092913385825
20
-6.2766874409448814
11
5.0613601181102359
21
-6.275677519685039
0
LINE
8
BLACK
6
CONTINUOUS
10
5.0613601181102359
20
-6.275677519685039
11
5.0606692913385825
21
-6.2737795275590553
0
LINE
8
BLACK
6
CONTINUOUS
10
5.0606692913385825
20
-6.2737795275590553
11
5.0606692913385825
21
-6.2462204724409451
0
LINE
8
BLACK
6
CONTINUOUS
10
5.0606692913385825
20
-6.2462204724409451
11
5.0608473622047239
21
-6.2452105511811018
0
LINE
8
BLACK
6
CONTINUOUS
10
5.0608473622047239
20
-6.2452105511811018
11
5.062145669291338
21
-6.2436633070866137
0
LINE
8
BLACK
6
CONTINUOUS
10
5.062145669291338
20
-6.2436633070866137
11
5.0641348031496065
21
-6.2433125590551182
0
LINE
8
BLACK
6
CONTINUOUS
10
5.0641348031496065
20
-6.2433125590551182
11
5.0658839763779531
21
-6.2443224803149606
0
LINE
8
BLACK
6
CONTINUOUS
10
4.6303406299212595
20
-6.1048506692913387
11
4.6318878740157476
21
-6.1061489763779528
0
LINE
8
BLACK
6
CONTINUOUS
10
4.6318878740157476
20
-6.1061489763779528
11
4.632238622047244
21
-6.1081381102362204
0
LINE
8
BLACK
6
CONTINUOUS
10
4.632238622047244
20
-6.1081381102362204
11
4.6312287007874016
21
-6.109887283464567
0
LINE
8
BLACK
6
CONTINUOUS
10
4.6312287007874016
20
-6.109887283464567
11
4.629330708661417
21
-6.1105781102362204
0
LINE
8
BLACK
6
CONTINUOUS
10
4.629330708661417
20
-6.1105781102362204
11
4.6277559055118109
21
-6.1105781102362204
0
LINE
8
BLACK
6
CONTINUOUS
10
4.6277559055118109
20
-6.1105781102362204
11
4.6277559055118109
21
-6.2680584251968501
0
LINE
8
BLACK
6
CONTINUOUS
10
4.6277559055118109
20
-6.2680584251968501
11
4.629330708661417
21
-6.2680584251968501
0
LINE
8
BLACK
6
CONTINUOUS
10
4.629330708661417
20
-6.2680584251968501
11
4.6303406299212595
21
-6.2682364960629924
0
LINE
8
BLACK
6
CONTINUOUS
10
4.6303406299212595
20
-6.2682364960629924
11
4.6318878740157476
21
-6.2695348031496065
0
LINE
8
BLACK
6
CONTINUOUS
10
4.6318878740157476
20
-6.2695348031496065
11
4.632238622047244
21
-6.2715239370078741
0
LINE
8
BLACK
6
CONTINUOUS
10
4.632238622047244
20
-6.2715239370078741
11
4.6312287007874016
21
-6.2732731102362207
0
LINE
8
BLACK
6
CONTINUOUS
10
4.6312287007874016
20
-6.2732731102362207
11
4.629330708661417
21
-6.2739639370078741
0
LINE
8
BLACK
6
CONTINUOUS
10
4.629330708661417
20
-6.2739639370078741
11
4.6248031496062989
21
-6.2739639370078741
0
LINE
8
BLACK
6
CONTINUOUS
10
4.6248031496062989
20
-6.2739639370078741
11
4.6244196062992122
21
-6.2738962992125984
0
LINE
8
BLACK
6
CONTINUOUS
10
4.6244196062992122
20
-6.2738962992125984
11
4.6242903937007869
21
-6.2739190944881891
0
LINE
8
BLACK
6
CONTINUOUS
10
4.6242903937007869
20
-6.2739190944881891
11
4.6241767716535431
21
-6.2738534645669288
0
LINE
8
BLACK
6
CONTINUOUS
10
4.6241767716535431
20
-6.2738534645669288
11
4.6237932283464565
21
-6.2737858661417318
0
LINE
8
BLACK
6
CONTINUOUS
10
4.6237932283464565
20
-6.2737858661417318
11
4.6232055118110233
21
-6.2732927165354333
0
LINE
8
BLACK
6
CONTINUOUS
10
4.6232055118110233
20
-6.2732927165354333
11
4.6225412204724412
21
-6.2729091732283466
0
LINE
8
BLACK
6
CONTINUOUS
10
4.6225412204724412
20
-6.2729091732283466
11
4.6224500787401572
21
-6.2726588188976375
0
LINE
8
BLACK
6
CONTINUOUS
10
4.6224500787401572
20
-6.2726588188976375
11
4.6222459842519683
21
-6.2724875590551177
0
LINE
8
BLACK
6
CONTINUOUS
10
4.6222459842519683
20
-6.2724875590551177
11
4.6221127165354332
21
-6.2717319685039365
0
LINE
8
BLACK
6
CONTINUOUS
10
4.6221127165354332
20
-6.2717319685039365
11
4.6218503937007869
21
-6.2710111811023621
0
LINE
8
BLACK
6
CONTINUOUS
10
4.6218503937007869
20
-6.2710111811023621
11
4.6218503937007869
21
-6.1076253543307084
0
LINE
8
BLACK
6
CONTINUOUS
10
4.6218503937007869
20
-6.1076253543307084
11
4.6219179921259839
21
-6.1072418110236217
0
LINE
8
BLACK
6
CONTINUOUS
10
4.6219179921259839
20
-6.1072418110236217
11
4.6218952362204719
21
-6.1071125984251964
0
LINE
8
BLACK
6
CONTINUOUS
10
4.6218952362204719
20
-6.1071125984251964
11
4.6219608267716534
21
-6.1069989763779526
0
LINE
8
BLACK
6
CONTINUOUS
10
4.6219608267716534
20
-6.1069989763779526
11
4.6220284645669292
21
-6.106615433070866
0
LINE
8
BLACK
6
CONTINUOUS
10
4.6220284645669292
20
-6.106615433070866
11
4.6225215748031498
21
-6.1060277165354329
0
LINE
8
BLACK
6
CONTINUOUS
10
4.6225215748031498
20
-6.1060277165354329
11
4.6229051574803153
21
-6.1053634251968498
0
LINE
8
BLACK
6
CONTINUOUS
10
4.6229051574803153
20
-6.1053634251968498
11
4.6231554724409447
21
-6.1052722834645667
0
LINE
8
BLACK
6
CONTINUOUS
10
4.6231554724409447
20
-6.1052722834645667
11
4.6233267716535433
21
-6.1050681889763778
0
LINE
8
BLACK
6
CONTINUOUS
10
4.6233267716535433
20
-6.1050681889763778
11
4.6240823228346457
21
-6.1049349212598427
0
LINE
8
BLACK
6
CONTINUOUS
10
4.6240823228346457
20
-6.1049349212598427
11
4.6248031496062989
21
-6.1046725984251964
0
LINE
8
BLACK
6
CONTINUOUS
10
4.6248031496062989
20
-6.1046725984251964
11
4.629330708661417
21
-6.1046725984251964
0
LINE
8
BLACK
6
CONTINUOUS
10
4.629330708661417
20
-6.1046725984251964
11
4.6303406299212595
21
-6.1048506692913387
0
LINE
8
BLACK
6
CONTINUOUS
10
6.1337790551181097
20
-6.2299253937007872
11
6.133914842519685
21
-6.2299112204724407
0
LINE
8
BLACK
6
CONTINUOUS
10
6.133914842519685
20
-6.2299112204724407
11
6.1414138976377952
21
-6.2317859842519683
0
LINE
8
BLACK
6
CONTINUOUS
10
6.1414138976377952
20
-6.2317859842519683
11
6.1418793307086617
21
-6.2319935433070865
0
LINE
8
BLACK
6
CONTINUOUS
10
6.1418793307086617
20
-6.2319935433070865
11
6.1420182677165354
21
-6.2320095669291335
0
LINE
8
BLACK
6
CONTINUOUS
10
6.1420182677165354
20
-6.2320095669291335
11
6.1457677952755905
21
-6.2338843307086611
0
LINE
8
BLACK
6
CONTINUOUS
10
6.1457677952755905
20
-6.2338843307086611
11
6.1464768503937011
21
-6.2344102362204721
0
LINE
8
BLACK
6
CONTINUOUS
10
6.1464768503937011
20
-6.2344102362204721
11
6.1465351968503938
21
-6.2344374409448822
0
LINE
8
BLACK
6
CONTINUOUS
10
6.1465351968503938
20
-6.2344374409448822
11
6.1502847637795277
21
-6.2381869685039373
0
LINE
8
BLACK
6
CONTINUOUS
10
6.1502847637795277
20
-6.2381869685039373
11
6.1508729921259837
21
-6.2390270078740153
0
LINE
8
BLACK
6
CONTINUOUS
10
6.1508729921259837
20
-6.2390270078740153
11
6.1508883464566928
21
-6.2392029133858262
0
LINE
8
BLACK
6
CONTINUOUS
10
6.1508883464566928
20
-6.2392029133858262
11
6.1509980708661418
21
-6.2393411417322833
0
LINE
8
BLACK
6
CONTINUOUS
10
6.1509980708661418
20
-6.2393411417322833
11
6.1528728346456694
21
-6.2449653937007872
0
LINE
8
BLACK
6
CONTINUOUS
10
6.1528728346456694
20
-6.2449653937007872
11
6.1530023228346451
21
-6.2458386220472439
0
LINE
8
BLACK
6
CONTINUOUS
10
6.1530023228346451
20
-6.2458386220472439
11
6.1530243700787404
21
-6.245899173228346
0
LINE
8
BLACK
6
CONTINUOUS
10
6.1530243700787404
20
-6.245899173228346
11
6.1530243700787404
21
-6.2496487007874011
0
LINE
8
BLACK
6
CONTINUOUS
10
6.1530243700787404
20
-6.2496487007874011
11
6.1528710629921255
21
-6.2505180708661419
0
LINE
8
BLACK
6
CONTINUOUS
10
6.1528710629921255
20
-6.2505180708661419
11
6.1528728346456694
21
-6.2505824803149608
0
LINE
8
BLACK
6
CONTINUOUS
10
6.1528728346456694
20
-6.2505824803149608
11
6.1509980708661418
21
-6.2562067322834647
0
LINE
8
BLACK
6
CONTINUOUS
10
6.1509980708661418
20
-6.2562067322834647
11
6.1505097637795272
21
-6.2571085039370073
0
LINE
8
BLACK
6
CONTINUOUS
10
6.1505097637795272
20
-6.2571085039370073
11
6.1503593307086613
21
-6.2572009055118105
0
LINE
8
BLACK
6
CONTINUOUS
10
6.1503593307086613
20
-6.2572009055118105
11
6.150284724409449
21
-6.2573609448818894
0
LINE
8
BLACK
6
CONTINUOUS
10
6.150284724409449
20
-6.2573609448818894
11
6.1484099212598426
21
-6.259235708661417
0
LINE
8
BLACK
6
CONTINUOUS
10
6.1484099212598426
20
-6.259235708661417
11
6.1475698818897637
21
-6.2598238976377951
0
LINE
8
BLACK
6
CONTINUOUS
10
6.1475698818897637
20
-6.2598238976377951
11
6.1455577952755904
21
-6.2599998818897635
0
LINE
8
BLACK
6
CONTINUOUS
10
6.1455577952755904
20
-6.2599998818897635
11
6.1439032677165351
21
-6.2588413779527556
0
LINE
8
BLACK
6
CONTINUOUS
10
6.1439032677165351
20
-6.2588413779527556
11
6.1433805511811022
21
-6.2568903937007869
0
LINE
8
BLACK
6
CONTINUOUS
10
6.1433805511811022
20
-6.2568903937007869
11
6.1442341732283463
21
-6.2550598031496065
0
LINE
8
BLACK
6
CONTINUOUS
10
6.1442341732283463
20
-6.2550598031496065
11
6.1456160629921257
21
-6.2536779133858262
0
LINE
8
BLACK
6
CONTINUOUS
10
6.1456160629921257
20
-6.2536779133858262
11
6.1471188582677163
21
-6.2491695669291341
0
LINE
8
BLACK
6
CONTINUOUS
10
6.1471188582677163
20
-6.2491695669291341
11
6.1471188582677163
21
-6.2463783070866139
0
LINE
8
BLACK
6
CONTINUOUS
10
6.1471188582677163
20
-6.2463783070866139
11
6.1456160629921257
21
-6.2418699212598421
0
LINE
8
BLACK
6
CONTINUOUS
10
6.1456160629921257
20
-6.2418699212598421
11
6.1426981889763779
21
-6.238952086614173
0
LINE
8
BLACK
6
CONTINUOUS
10
6.1426981889763779
20
-6.238952086614173
11
6.1396672047244092
21
-6.2374365748031497
0
LINE
8
BLACK
6
CONTINUOUS
10
6.1396672047244092
20
-6.2374365748031497
11
6.132835157480315
21
-6.2357285826771651
0
LINE
8
BLACK
6
CONTINUOUS
10
6.132835157480315
20
-6.2357285826771651
11
6.1279379527559055
21
-6.2357285826771651
0
LINE
8
BLACK
6
CONTINUOUS
10
6.1279379527559055
20
-6.2357285826771651
11
6.1211059055118104
21
-6.2374365748031497
0
LINE
8
BLACK
6
CONTINUOUS
10
6.1211059055118104
20
-6.2374365748031497
11
6.1180749212598426
21
-6.238952086614173
0
LINE
8
BLACK
6
CONTINUOUS
10
6.1180749212598426
20
-6.238952086614173
11
6.1151570866141727
21
-6.2418698818897633
0
LINE
8
BLACK
6
CONTINUOUS
10
6.1151570866141727
20
-6.2418698818897633
11
6.113654291338583
21
-6.2463783070866139
0
LINE
8
BLACK
6
CONTINUOUS
10
6.113654291338583
20
-6.2463783070866139
11
6.113654291338583
21
-6.2491695275590553
0
LINE
8
BLACK
6
CONTINUOUS
10
6.113654291338583
20
-6.2491695275590553
11
6.1151570866141727
21
-6.253677952755905
0
LINE
8
BLACK
6
CONTINUOUS
10
6.1151570866141727
20
-6.253677952755905
11
6.116538976377953
21
-6.2550598425196853
0
LINE
8
BLACK
6
CONTINUOUS
10
6.116538976377953
20
-6.2550598425196853
11
6.1171271653543302
21
-6.2558998818897633
0
LINE
8
BLACK
6
CONTINUOUS
10
6.1171271653543302
20
-6.2558998818897633
11
6.1173031889763774
21
-6.2579119685039366
0
LINE
8
BLACK
6
CONTINUOUS
10
6.1173031889763774
20
-6.2579119685039366
11
6.1161446850393704
21
-6.2595665354330707
0
LINE
8
BLACK
6
CONTINUOUS
10
6.1161446850393704
20
-6.2595665354330707
11
6.1141937007874017
21
-6.2600892519685036
0
LINE
8
BLACK
6
CONTINUOUS
10
6.1141937007874017
20
-6.2600892519685036
11
6.1123631496062991
21
-6.2592356692913382
0
LINE
8
BLACK
6
CONTINUOUS
10
6.1123631496062991
20
-6.2592356692913382
11
6.1104883858267716
21
-6.2573609055118107
0
LINE
8
BLACK
6
CONTINUOUS
10
6.1104883858267716
20
-6.2573609055118107
11
6.1099001968503934
21
-6.2565208661417318
0
LINE
8
BLACK
6
CONTINUOUS
10
6.1099001968503934
20
-6.2565208661417318
11
6.1098848031496065
21
-6.2563449999999996
0
LINE
8
BLACK
6
CONTINUOUS
10
6.1098848031496065
20
-6.2563449999999996
11
6.1097750787401575
21
-6.2562067322834647
0
LINE
8
BLACK
6
CONTINUOUS
10
6.1097750787401575
20
-6.2562067322834647
11
6.1079003149606299
21
-6.250582440944882
0
LINE
8
BLACK
6
CONTINUOUS
10
6.1079003149606299
20
-6.250582440944882
11
6.1077708267716533
21
-6.249709251968504
0
LINE
8
BLACK
6
CONTINUOUS
10
6.1077708267716533
20
-6.249709251968504
11
6.1077487795275589
21
-6.2496487007874011
0
LINE
8
BLACK
6
CONTINUOUS
10
6.1077487795275589
20
-6.2496487007874011
11
6.1077487795275589
21
-6.245899173228346
0
LINE
8
BLACK
6
CONTINUOUS
10
6.1077487795275589
20
-6.245899173228346
11
6.1079020472440941
21
-6.2450297637795273
0
LINE
8
BLACK
6
CONTINUOUS
10
6.1079020472440941
20
-6.2450297637795273
11
6.1079003149606299
21
-6.2449654330708659
0
LINE
8
BLACK
6
CONTINUOUS
10
6.1079003149606299
20
-6.2449654330708659
11
6.1097750787401575
21
-6.2393411417322833
0
LINE
8
BLACK
6
CONTINUOUS
10
6.1097750787401575
20
-6.2393411417322833
11
6.1102633464566924
21
-6.2384393700787397
0
LINE
8
BLACK
6
CONTINUOUS
10
6.1102633464566924
20
-6.2384393700787397
11
6.1104137795275593
21
-6.2383469291338578
0
LINE
8
BLACK
6
CONTINUOUS
10
6.1104137795275593
20
-6.2383469291338578
11
6.1104883858267716
21
-6.2381869685039373
0
LINE
8
BLACK
6
CONTINUOUS
10
6.1104883858267716
20
-6.2381869685039373
11
6.1142379133858267
21
-6.2344374409448822
0
LINE
8
BLACK
6
CONTINUOUS
10
6.1142379133858267
20
-6.2344374409448822
11
6.1149610629921263
21
-6.2339310236220475
0
LINE
8
BLACK
6
CONTINUOUS
10
6.1149610629921263
20
-6.2339310236220475
11
6.11500531496063
21
-6.2338843307086611
0
LINE
8
BLACK
6
CONTINUOUS
10
6.11500531496063
20
-6.2338843307086611
11
6.1187548425196852
21
-6.2320095669291335
0
LINE
8
BLACK
6
CONTINUOUS
10
6.1187548425196852
20
-6.2320095669291335
11
6.1192432677165352
21
-6.2318642519685037
0
LINE
8
BLACK
6
CONTINUOUS
10
6.1192432677165352
20
-6.2318642519685037
11
6.1193592125984253
21
-6.2317859842519683
0
LINE
8
BLACK
6
CONTINUOUS
10
6.1193592125984253
20
-6.2317859842519683
11
6.1268582677165355
21
-6.2299112204724407
0
LINE
8
BLACK
6
CONTINUOUS
10
6.1268582677165355
20
-6.2299112204724407
11
6.1274461417322836
21
-6.2298697244094488
0
LINE
8
BLACK
6
CONTINUOUS
10
6.1274461417322836
20
-6.2298697244094488
11
6.1275744094488189
21
-6.229823070866142
0
LINE
8
BLACK
6
CONTINUOUS
10
6.1275744094488189
20
-6.229823070866142
11
6.1331987007874016
21
-6.229823070866142
0
LINE
8
BLACK
6
CONTINUOUS
10
6.1331987007874016
20
-6.229823070866142
11
6.1337790551181097
21
-6.2299253937007872
0
LINE
8
BLACK
6
CONTINUOUS
10
5.934438622047244
20
-5.9706274409448818
11
5.9345678740157481
21
-5.9706046850393699
0
LINE
8
BLACK
6
CONTINUOUS
10
5.9345678740157481
20
-5.9706046850393699
11
5.9346814566929131
21
-5.9706702755905514
0
LINE
8
BLACK
6
CONTINUOUS
10
5.9346814566929131
20
-5.9706702755905514
11
5.9350650393700786
21
-5.9707379133858263
0
LINE
8
BLACK
6
CONTINUOUS
10
5.9350650393700786
20
-5.9707379133858263
11
5.9356527165354329
21
-5.9712310236220469
0
LINE
8
BLACK
6
CONTINUOUS
10
5.9356527165354329
20
-5.9712310236220469
11
5.9363170472440947
21
-5.9716146062992124
0
LINE
8
BLACK
6
CONTINUOUS
10
5.9363170472440947
20
-5.9716146062992124
11
5.936408149606299
21
-5.9718649212598427
0
LINE
8
BLACK
6
CONTINUOUS
10
5.936408149606299
20
-5.9718649212598427
11
5.9366122834645667
21
-5.9720362204724404
0
LINE
8
BLACK
6
CONTINUOUS
10
5.9366122834645667
20
-5.9720362204724404
11
5.9367455118110231
21
-5.9727917716535428
0
LINE
8
BLACK
6
CONTINUOUS
10
5.9367455118110231
20
-5.9727917716535428
11
5.9370078740157481
21
-5.9735125984251969
0
LINE
8
BLACK
6
CONTINUOUS
10
5.9370078740157481
20
-5.9735125984251969
11
5.9370078740157481
21
-5.978040157480315
0
LINE
8
BLACK
6
CONTINUOUS
10
5.9370078740157481
20
-5.978040157480315
11
5.9368298031496058
21
-5.9790500787401575
0
LINE
8
BLACK
6
CONTINUOUS
10
5.9368298031496058
20
-5.9790500787401575
11
5.9355314960629917
21
-5.9805973228346456
0
LINE
8
BLACK
6
CONTINUOUS
10
5.9355314960629917
20
-5.9805973228346456
11
5.9335423622047241
21
-5.980948070866142
0
LINE
8
BLACK
6
CONTINUOUS
10
5.9335423622047241
20
-5.980948070866142
11
5.9317931889763775
21
-5.9799381496062987
0
LINE
8
BLACK
6
CONTINUOUS
10
5.9317931889763775
20
-5.9799381496062987
11
5.9311023622047241
21
-5.978040157480315
0
LINE
8
BLACK
6
CONTINUOUS
10
5.9311023622047241
20
-5.978040157480315
11
5.9311023622047241
21
-5.9764653543307089
0
LINE
8
BLACK
6
CONTINUOUS
10
5.9311023622047241
20
-5.9764653543307089
11
5.7736220472440944
21
-5.9764653543307089
0
LINE
8
BLACK
6
CONTINUOUS
10
5.7736220472440944
20
-5.9764653543307089
11
5.7736220472440944
21
-5.978040157480315
0
LINE
8
BLACK
6
CONTINUOUS
10
5.7736220472440944
20
-5.978040157480315
11
5.773443976377953
21
-5.9790500787401575
0
LINE
8
BLACK
6
CONTINUOUS
10
5.773443976377953
20
-5.9790500787401575
11
5.7721456692913389
21
-5.9805973228346456
0
LINE
8
BLACK
6
CONTINUOUS
10
5.7721456692913389
20
-5.9805973228346456
11
5.7701565354330704
21
-5.980948070866142
0
LINE
8
BLACK
6
CONTINUOUS
10
5.7701565354330704
20
-5.980948070866142
11
5.7684073622047247
21
-5.9799381496062987
0
LINE
8
BLACK
6
CONTINUOUS
10
5.7684073622047247
20
-5.9799381496062987
11
5.7677165354330704
21
-5.978040157480315
0
LINE
8
BLACK
6
CONTINUOUS
10
5.7677165354330704
20
-5.978040157480315
11
5.7677165354330704
21
-5.9735125984251969
0
LINE
8
BLACK
6
CONTINUOUS
10
5.7677165354330704
20
-5.9735125984251969
11
5.7677841338582674
21
-5.9731290551181102
0
LINE
8
BLACK
6
CONTINUOUS
10
5.7677841338582674
20
-5.9731290551181102
11
5.7677613779527555
21
-5.9729998425196849
0
LINE
8
BLACK
6
CONTINUOUS
10
5.7677613779527555
20
-5.9729998425196849
11
5.7678269685039369
21
-5.9728862204724411
0
LINE
8
BLACK
6
CONTINUOUS
10
5.7678269685039369
20
-5.9728862204724411
11
5.7678946062992127
21
-5.9725026771653544
0
LINE
8
BLACK
6
CONTINUOUS
10
5.7678946062992127
20
-5.9725026771653544
11
5.7683877165354334
21
-5.9719149606299213
0
LINE
8
BLACK
6
CONTINUOUS
10
5.7683877165354334
20
-5.9719149606299213
11
5.7687712992125979
21
-5.9712506692913383
0
LINE
8
BLACK
6
CONTINUOUS
10
5.7687712992125979
20
-5.9712506692913383
11
5.7690216141732282
21
-5.9711595275590552
0
LINE
8
BLACK
6
CONTINUOUS
10
5.7690216141732282
20
-5.9711595275590552
11
5.7691929133858268
21
-5.9709554330708663
0
LINE
8
BLACK
6
CONTINUOUS
10
5.7691929133858268
20
-5.9709554330708663
11
5.7699484645669292
21
-5.9708221653543303
0
LINE
8
BLACK
6
CONTINUOUS
10
5.7699484645669292
20
-5.9708221653543303
11
5.7706692913385824
21
-5.9705598425196849
0
LINE
8
BLACK
6
CONTINUOUS
10
5.7706692913385824
20
-5.9705598425196849
11
5.9340551181102361
21
-5.9705598425196849
0
LINE
8
BLACK
6
CONTINUOUS
10
5.9340551181102361
20
-5.9705598425196849
11
5.934438622047244
21
-5.9706274409448818
0
LINE
8
BLACK
6
CONTINUOUS
10
4.414497165354331
20
-5.1427519685039371
11
4.4237221653543308
21
-5.1459188976377952
0
LINE
8
BLACK
6
CONTINUOUS
10
4.4237221653543308
20
-5.1459188976377952
11
4.4323000787401572
21
-5.1505610236220472
0
LINE
8
BLACK
6
CONTINUOUS
10
4.4323000787401572
20
-5.1505610236220472
11
4.4399969291338586
21
-5.1565517322834644
0
LINE
8
BLACK
6
CONTINUOUS
10
4.4399969291338586
20
-5.1565517322834644
11
4.4466027952755907
21
-5.1637275984251971
0
LINE
8
BLACK
6
CONTINUOUS
10
4.4466027952755907
20
-5.1637275984251971
11
4.4519374409448815
21
-5.1718928740157475
0
LINE
8
BLACK
6
CONTINUOUS
10
4.4519374409448815
20
-5.1718928740157475
11
4.4558553543307085
21
-5.1808248425196846
0
LINE
8
BLACK
6
CONTINUOUS
10
4.4558553543307085
20
-5.1808248425196846
11
4.4582496850393696
21
-5.1902798425196845
0
LINE
8
BLACK
6
CONTINUOUS
10
4.4582496850393696
20
-5.1902798425196845
11
4.4590551181102365
21
-5.2000000000000002
0
LINE
8
BLACK
6
CONTINUOUS
10
4.4590551181102365
20
-5.2000000000000002
11
4.4582496850393696
21
-5.2097201574803149
0
LINE
8
BLACK
6
CONTINUOUS
10
4.4582496850393696
20
-5.2097201574803149
11
4.4558553543307085
21
-5.2191751574803149
0
LINE
8
BLACK
6
CONTINUOUS
10
4.4558553543307085
20
-5.2191751574803149
11
4.4519374409448815
21
-5.228107125984252
0
LINE
8
BLACK
6
CONTINUOUS
10
4.4519374409448815
20
-5.228107125984252
11
4.4466027952755907
21
-5.2362724015748032
0
LINE
8
BLACK
6
CONTINUOUS
10
4.4466027952755907
20
-5.2362724015748032
11
4.4399969291338586
21
-5.243448267716535
0
LINE
8
BLACK
6
CONTINUOUS
10
4.4399969291338586
20
-5.243448267716535
11
4.4323000787401572
21
-5.2494389763779523
0
LINE
8
BLACK
6
CONTINUOUS
10
4.4323000787401572
20
-5.2494389763779523
11
4.4237221653543308
21
-5.2540811023622043
0
LINE
8
BLACK
6
CONTINUOUS
10
4.4237221653543308
20
-5.2540811023622043
11
4.414497165354331
21
-5.2572480314960632
0
LINE
8
BLACK
6
CONTINUOUS
10
4.414497165354331
20
-5.2572480314960632
11
4.4048767322834648
21
-5.2588534251968504
0
LINE
8
BLACK
6
CONTINUOUS
10
4.4048767322834648
20
-5.2588534251968504
11
4.3951232677165351
21
-5.2588534251968504
0
LINE
8
BLACK
6
CONTINUOUS
10
4.3951232677165351
20
-5.2588534251968504
11
4.3855028346456688
21
-5.2572480314960632
0
LINE
8
BLACK
6
CONTINUOUS
10
4.3855028346456688
20
-5.2572480314960632
11
4.376277834645669
21
-5.2540811023622043
0
LINE
8
BLACK
6
CONTINUOUS
10
4.376277834645669
20
-5.2540811023622043
11
4.3676999212598426
21
-5.2494389763779523
0
LINE
8
BLACK
6
CONTINUOUS
10
4.3676999212598426
20
-5.2494389763779523
11
4.3600030708661413
21
-5.243448267716535
0
LINE
8
BLACK
6
CONTINUOUS
10
4.3600030708661413
20
-5.243448267716535
11
4.3533972047244092
21
-5.2362724015748032
0
LINE
8
BLACK
6
CONTINUOUS
10
4.3533972047244092
20
-5.2362724015748032
11
4.3480625590551183
21
-5.228107125984252
0
LINE
8
BLACK
6
CONTINUOUS
10
4.3480625590551183
20
-5.228107125984252
11
4.3441446456692914
21
-5.2191751574803149
0
LINE
8
BLACK
6
CONTINUOUS
10
4.3441446456692914
20
-5.2191751574803149
11
4.3417503149606302
21
-5.2097201574803149
0
LINE
8
BLACK
6
CONTINUOUS
10
4.3417503149606302
20
-5.2097201574803149
11
4.3409448818897634
21
-5.2000000000000002
0
LINE
8
BLACK
6
CONTINUOUS
10
4.3409448818897634
20
-5.2000000000000002
11
4.3417503149606302
21
-5.1902798425196845
0
LINE
8
BLACK
6
CONTINUOUS
10
4.3417503149606302
20
-5.1902798425196845
11
4.3441446456692914
21
-5.1808248425196846
0
LINE
8
BLACK
6
CONTINUOUS
10
4.3441446456692914
20
-5.1808248425196846
11
4.3480625590551183
21
-5.1718928740157475
0
LINE
8
BLACK
6
CONTINUOUS
10
4.3480625590551183
20
-5.1718928740157475
11
4.3533972047244092
21
-5.1637275984251971
0
LINE
8
BLACK
6
CONTINUOUS
10
4.3533972047244092
20
-5.1637275984251971
11
4.3600030708661413
21
-5.1565517322834644
0
LINE
8
BLACK
6
CONTINUOUS
10
4.3600030708661413
20
-5.1565517322834644
11
4.3676999212598426
21
-5.1505610236220472
0
LINE
8
BLACK
6
CONTINUOUS
10
4.3676999212598426
20
-5.1505610236220472
11
4.376277834645669
21
-5.1459188976377952
0
LINE
8
BLACK
6
CONTINUOUS
10
4.376277834645669
20
-5.1459188976377952
11
4.3855028346456688
21
-5.1427519685039371
0
LINE
8
BLACK
6
CONTINUOUS
10
4.3855028346456688
20
-5.1427519685039371
11
4.3951232677165351
21
-5.1411465748031491
0
LINE
8
BLACK
6
CONTINUOUS
10
4.3951232677165351
20
-5.1411465748031491
11
4.4048767322834648
21
-5.1411465748031491
0
LINE
8
BLACK
6
CONTINUOUS
10
4.4048767322834648
20
-5.1411465748031491
11
4.414497165354331
21
-5.1427519685039371
0
LINE
8
BLACK
6
CONTINUOUS
10
6.0144971653543307
20
-5.1427519685039371
11
6.0237221653543305
21
-5.1459188976377952
0
LINE
8
BLACK
6
CONTINUOUS
10
6.0237221653543305
20
-5.1459188976377952
11
6.0323000787401577
21
-5.1505610236220472
0
LINE
8
BLACK
6
CONTINUOUS
10
6.0323000787401577
20
-5.1505610236220472
11
6.0399969291338582
21
-5.1565517322834644
0
LINE
8
BLACK
6
CONTINUOUS
10
6.0399969291338582
20
-5.1565517322834644
11
6.0466027952755903
21
-5.1637275984251971
0
LINE
8
BLACK
6
CONTINUOUS
10
6.0466027952755903
20
-5.1637275984251971
11
6.0519374409448821
21
-5.1718928740157475
0
LINE
8
BLACK
6
CONTINUOUS
10
6.0519374409448821
20
-5.1718928740157475
11
6.0558553543307081
21
-5.1808248425196846
0
LINE
8
BLACK
6
CONTINUOUS
10
6.0558553543307081
20
-5.1808248425196846
11
6.0582496850393701
21
-5.1902798425196845
0
LINE
8
BLACK
6
CONTINUOUS
10
6.0582496850393701
20
-5.1902798425196845
11
6.0590551181102361
21
-5.2000000000000002
0
LINE
8
BLACK
6
CONTINUOUS
10
6.0590551181102361
20
-5.2000000000000002
11
6.0582496850393701
21
-5.2097201574803149
0
LINE
8
BLACK
6
CONTINUOUS
10
6.0582496850393701
20
-5.2097201574803149
11
6.0558553543307081
21
-5.2191751574803149
0
LINE
8
BLACK
6
CONTINUOUS
10
6.0558553543307081
20
-5.2191751574803149
11
6.0519374409448821
21
-5.228107125984252
0
LINE
8
BLACK
6
CONTINUOUS
10
6.0519374409448821
20
-5.228107125984252
11
6.0466027952755903
21
-5.2362724015748032
0
LINE
8
BLACK
6
CONTINUOUS
10
6.0466027952755903
20
-5.2362724015748032
11
6.0399969291338582
21
-5.243448267716535
0
LINE
8
BLACK
6
CONTINUOUS
10
6.0399969291338582
20
-5.243448267716535
11
6.0323000787401577
21
-5.2494389763779523
0
LINE
8
BLACK
6
CONTINUOUS
10
6.0323000787401577
20
-5.2494389763779523
11
6.0237221653543305
21
-5.2540811023622043
0
LINE
8
BLACK
6
CONTINUOUS
10
6.0237221653543305
20
-5.2540811023622043
11
6.0144971653543307
21
-5.2572480314960632
0
LINE
8
BLACK
6
CONTINUOUS
10
6.0144971653543307
20
-5.2572480314960632
11
6.0048767322834644
21
-5.2588534251968504
0
LINE
8
BLACK
6
CONTINUOUS
10
6.0048767322834644
20
-5.2588534251968504
11
5.9951232677165356
21
-5.2588534251968504
0
LINE
8
BLACK
6
CONTINUOUS
10
5.9951232677165356
20
-5.2588534251968504
11
5.9855028346456693
21
-5.2572480314960632
0
LINE
8
BLACK
6
CONTINUOUS
10
5.9855028346456693
20
-5.2572480314960632
11
5.9762778346456695
21
-5.2540811023622043
0
LINE
8
BLACK
6
CONTINUOUS
10
5.9762778346456695
20
-5.2540811023622043
11
5.9676999212598423
21
-5.2494389763779523
0
LINE
8
BLACK
6
CONTINUOUS
10
5.9676999212598423
20
-5.2494389763779523
11
5.9600030708661418
21
-5.243448267716535
0
LINE
8
BLACK
6
CONTINUOUS
10
5.9600030708661418
20
-5.243448267716535
11
5.9533972047244097
21
-5.2362724015748032
0
LINE
8
BLACK
6
CONTINUOUS
10
5.9533972047244097
20
-5.2362724015748032
11
5.9480625590551179
21
-5.228107125984252
0
LINE
8
BLACK
6
CONTINUOUS
10
5.9480625590551179
20
-5.228107125984252
11
5.944144645669291
21
-5.2191751574803149
0
LINE
8
BLACK
6
CONTINUOUS
10
5.944144645669291
20
-5.2191751574803149
11
5.9417503149606299
21
-5.2097201574803149
0
LINE
8
BLACK
6
CONTINUOUS
10
5.9417503149606299
20
-5.2097201574803149
11
5.9409448818897639
21
-5.2000000000000002
0
LINE
8
BLACK
6
CONTINUOUS
10
5.9409448818897639
20
-5.2000000000000002
11
5.9417503149606299
21
-5.1902798425196845
0
LINE
8
BLACK
6
CONTINUOUS
10
5.9417503149606299
20
-5.1902798425196845
11
5.944144645669291
21
-5.1808248425196846
0
LINE
8
BLACK
6
CONTINUOUS
10
5.944144645669291
20
-5.1808248425196846
11
5.9480625590551179
21
-5.1718928740157475
0
LINE
8
BLACK
6
CONTINUOUS
10
5.9480625590551179
20
-5.1718928740157475
11
5.9533972047244097
21
-5.1637275984251971
0
LINE
8
BLACK
6
CONTINUOUS
10
5.9533972047244097
20
-5.1637275984251971
11
5.9600030708661418
21
-5.1565517322834644
0
LINE
8
BLACK
6
CONTINUOUS
10
5.9600030708661418
20
-5.1565517322834644
11
5.9676999212598423
21
-5.1505610236220472
0
LINE
8
BLACK
6
CONTINUOUS
10
5.9676999212598423
20
-5.1505610236220472
11
5.9762778346456695
21
-5.1459188976377952
0
LINE
8
BLACK
6
CONTINUOUS
10
5.9762778346456695
20
-5.1459188976377952
11
5.9855028346456693
21
-5.1427519685039371
0
LINE
8
BLACK
6
CONTINUOUS
10
5.9855028346456693
20
-5.1427519685039371
11
5.9951232677165356
21
-5.1411465748031491
0
LINE
8
BLACK
6
CONTINUOUS
10
5.9951232677165356
20
-5.1411465748031491
11
6.0048767322834644
21
-5.1411465748031491
0
LINE
8
BLACK
6
CONTINUOUS
10
6.0048767322834644
20
-5.1411465748031491
11
6.0144971653543307
21
-5.1427519685039371
0
CIRCLE
8
BLACK
10
5.1319999999999997
20
-6.7720000000000002
40
0.0068897637795276
0
CIRCLE
8
BLACK
10
5.1319999999999997
20
-6.6719999999999997
40
0.0068897637795276
0
CIRCLE
8
BLACK
10
5.2320000000000002
20
-6.7720000000000002
40
0.0068897637795276
0
CIRCLE
8
BLACK
10
5.2320000000000002
20
-6.6719999999999997
40
0.0068897637795276
0
CIRCLE
8
BLACK
10
5.3319999999999999
20
-6.7720000000000002
40
0.0068897637795276
0
CIRCLE
8
BLACK
10
5.3319999999999999
20
-6.6719999999999997
40
0.0068897637795276
0
CIRCLE
8
BLACK
10
4.4199999999999999
20
-6.0348511811023622
40
0.0068897637795276
0
CIRCLE
8
BLACK
10
4.5199999999999996
20
-6.0348511811023622
40
0.0068897637795276
0
CIRCLE
8
BLACK
10
4.4199999999999999
20
-6.1348511811023618
40
0.0068897637795276
0
CIRCLE
8
BLACK
10
4.5199999999999996
20
-6.1348511811023618
40
0.0068897637795276
0
CIRCLE
8
BLACK
10
4.4199999999999999
20
-6.2348511811023624
40
0.0068897637795276
0
CIRCLE
8
BLACK
10
4.5199999999999996
20
-6.2348511811023624
40
0.0068897637795276
0
CIRCLE
8
BLACK
10
5.1623622047244098
20
-5.6187094488188976
40
0.0068897637795276
0
CIRCLE
8
BLACK
10
5.2623622047244094
20
-5.6187094488188976
40
0.0068897637795276
0
CIRCLE
8
BLACK
10
5.1623622047244098
20
-5.7187094488188972
40
0.0068897637795276
0
CIRCLE
8
BLACK
10
5.2623622047244094
20
-5.7187094488188972
40
0.0068897637795276
0
CIRCLE
8
BLACK
10
5.1623622047244098
20
-5.8187094488188977
40
0.0068897637795276
0
CIRCLE
8
BLACK
10
5.2623622047244094
20
-5.8187094488188977
40
0.0068897637795276
0
CIRCLE
8
BLACK
10
4.4139370078740159
20
-5.6205992125984254
40
0.0068897637795276
0
CIRCLE
8
BLACK
10
4.5139370078740155
20
-5.6205992125984254
40
0.0068897637795276
0
CIRCLE
8
BLACK
10
4.4139370078740159
20
-5.7205992125984251
40
0.0068897637795276
0
CIRCLE
8
BLACK
10
4.5139370078740155
20
-5.7205992125984251
40
0.0068897637795276
0
CIRCLE
8
BLACK
10
4.4139370078740159
20
-5.8205992125984247
40
0.0068897637795276
0
CIRCLE
8
BLACK
10
4.5139370078740155
20
-5.8205992125984247
40
0.0068897637795276
0
CIRCLE
8
BLACK
10
5.4123622047244098
20
-5.6187094488188976
40
0.0068897637795276
0
CIRCLE
8
BLACK
10
5.5123622047244094
20
-5.6187094488188976
40
0.0068897637795276
0
CIRCLE
8
BLACK
10
5.4123622047244098
20
-5.7187094488188972
40
0.0068897637795276
0
CIRCLE
8
BLACK
10
5.5123622047244094
20
-5.7187094488188972
40
0.0068897637795276
0
CIRCLE
8
BLACK
10
5.4123622047244098
20
-5.8187094488188977
40
0.0068897637795276
0
CIRCLE
8
BLACK
10
5.5123622047244094
20
-5.8187094488188977
40
0.0068897637795276
0
CIRCLE
8
BLACK
10
4.6623622047244098
20
-5.6187094488188976
40
0.0068897637795276
0
CIRCLE
8
BLACK
10
4.7623622047244094
20
-5.6187094488188976
40
0.0068897637795276
0
CIRCLE
8
BLACK
10
4.6623622047244098
20
-5.7187094488188972
40
0.0068897637795276
0
CIRCLE
8
BLACK
10
4.7623622047244094
20
-5.7187094488188972
40
0.0068897637795276
0
CIRCLE
8
BLACK
10
4.6623622047244098
20
-5.8187094488188977
40
0.0068897637795276
0
CIRCLE
8
BLACK
10
4.7623622047244094
20
-5.8187094488188977
40
0.0068897637795276
0
CIRCLE
8
BLACK
10
5.6623622047244089
20
-5.6187094488188976
40
0.0068897637795276
0
CIRCLE
8
BLACK
10
5.7623622047244094
20
-5.6187094488188976
40
0.0068897637795276
0
CIRCLE
8
BLACK
10
5.6623622047244089
20
-5.7187094488188972
40
0.0068897637795276
0
CIRCLE
8
BLACK
10
5.7623622047244094
20
-5.7187094488188972
40
0.0068897637795276
0
CIRCLE
8
BLACK
10
5.6623622047244089
20
-5.8187094488188977
40
0.0068897637795276
0
CIRCLE
8
BLACK
10
5.7623622047244094
20
-5.8187094488188977
40
0.0068897637795276
0
CIRCLE
8
BLACK
10
4.9088188976377953
20
-5.6229614173228342
40
0.0068897637795276
0
CIRCLE
8
BLACK
10
5.008818897637795
20
-5.6229614173228342
40
0.0068897637795276
0
CIRCLE
8
BLACK
10
4.9088188976377953
20
-5.7229614173228347
40
0.0068897637795276
0
CIRCLE
8
BLACK
10
5.008818897637795
20
-5.7229614173228347
40
0.0068897637795276
0
CIRCLE
8
BLACK
10
4.9088188976377953
20
-5.8229614173228343
40
0.0068897637795276
0
CIRCLE
8
BLACK
10
5.008818897637795
20
-5.8229614173228343
40
0.0068897637795276
0
CIRCLE
8
BLACK
10
5.9109999999999996
20
-5.6209999999999996
40
0.0068897637795276
0
CIRCLE
8
BLACK
10
6.0110000000000001
20
-5.6209999999999996
40
0.0068897637795276
0
CIRCLE
8
BLACK
10
5.9109999999999996
20
-5.7210000000000001
40
0.0068897637795276
0
CIRCLE
8
BLACK
10
6.0110000000000001
20
-5.7210000000000001
40
0.0068897637795276
0
CIRCLE
8
BLACK
10
5.9109999999999996
20
-5.8209999999999997
40
0.0068897637795276
0
CIRCLE
8
BLACK
10
6.0110000000000001
20
-5.8209999999999997
40
0.0068897637795276
0
CIRCLE
8
BLACK
10
4.3999999999999995
20
-6.7999999999999998
40
0.0068897637795276
0
CIRCLE
8
BLACK
10
6.
20
-6.7999999999999998
40
0.0068897637795276
0
CIRCLE
8
BLACK
10
4.3999999999999995
20
-5.2000000000000002
40
0.0068897637795276
0
CIRCLE
8
BLACK
10
6.
20
-5.2000000000000002
40
0.0068897637795276
  0
ENDSEC
  0
EOF
