  0
SECTION
  2
HEADER
  9
$ANGBASE
  50
0.0
  9
$ANGDIR
  70
1
  9
$MEASUREMENT
  70
0
  0
ENDSEC
  0
SECTION
  2
TABLES
  0
TABLE
  2
LTYPE
  70
4
  0
LTYPE
  5
40F
  2
CONTINUOUS
  70
0
  3
Solid line
  72
65
  73
0
  40
0.0
  0
LTYPE
  5
410
  2
DASHDOT
 70
0
  3
Dash Dot ____ _ ____ _
 72
65
 73
4
 40
2.0
 49
1.25
 49
-0.25
 49
0.25
 49
-0.25
  0
LTYPE
  5
411
  2
DASHED
 70
0
  3
Dashed __ __ __ __ __
 72
65
 73
2
 40
0.75
 49
0.5
 49
-0.25
  0
LTYPE
  5
43B
  2
DOTTED
 70
0
  3
Dotted .  .  .  .
 72
65
 73
2
 40
0.2
 49
0.0
 49
-0.2
  0
ENDTAB
  0
TABLE
  2
STYLE
  70
4
  0
STYLE
  2
KICAD
  70
0
  40
0
  41
1
  42
1
  50
0
  71
0
  3
isocp.shx
  0
STYLE
  2
KICADB
  70
0
  40
0
  41
1
  42
1
  50
0
  71
0
  3
isocp.shx
  0
STYLE
  2
KICADI
  70
0
  40
0
  41
1
  42
1
  50
15
  71
0
  3
isocp.shx
  0
STYLE
  2
KICADBI
  70
0
  40
0
  41
1
  42
1
  50
15
  71
0
  3
isocp.shx
  0
ENDTAB
  0
TABLE
  2
LAYER
  70
1
  0
LAYER
  2
BLACK
  70
0
  62
7
  6
CONTINUOUS
  0
ENDTAB
  0
ENDSEC
  0
SECTION
  2
ENTITIES
0
LINE
8
BLACK
6
CONTINUOUS
10
4.4208596850393702
20
-6.6727615354330707
11
4.4344942913385825
21
-6.6757627559055113
0
LINE
8
BLACK
6
CONTINUOUS
10
4.4344942913385825
20
-6.6757627559055113
11
4.4477244881889764
21
-6.6802205118110232
0
LINE
8
BLACK
6
CONTINUOUS
10
4.4477244881889764
20
-6.6802205118110232
11
4.4603951968503939
21
-6.6860825984251964
0
LINE
8
BLACK
6
CONTINUOUS
10
4.4603951968503939
20
-6.6860825984251964
11
4.4723577952755909
21
-6.6932802755905509
0
LINE
8
BLACK
6
CONTINUOUS
10
4.4723577952755909
20
-6.6932802755905509
11
4.4834720472440948
21
-6.7017290944881891
0
LINE
8
BLACK
6
CONTINUOUS
10
4.4834720472440948
20
-6.7017290944881891
11
4.4936076771653539
21
-6.7113300787401577
0
LINE
8
BLACK
6
CONTINUOUS
10
4.4936076771653539
20
-6.7113300787401577
11
4.5026458661417319
21
-6.7219706299212598
0
LINE
8
BLACK
6
CONTINUOUS
10
4.5026458661417319
20
-6.7219706299212598
11
4.5104805905511807
21
-6.7335260236220469
0
LINE
8
BLACK
6
CONTINUOUS
10
4.5104805905511807
20
-6.7335260236220469
11
4.5170200393700783
21
-6.7458607480314958
0
LINE
8
BLACK
6
CONTINUOUS
10
4.5170200393700783
20
-6.7458607480314958
11
4.5221875590551184
21
-6.7588301968503934
0
LINE
8
BLACK
6
CONTINUOUS
10
4.5221875590551184
20
-6.7588301968503934
11
4.5259225196850394
21
-6.7722823622047246
0
LINE
8
BLACK
6
CONTINUOUS
10
4.5259225196850394
20
-6.7722823622047246
11
4.5281811811023625
21
-6.7860594488188974
0
LINE
8
BLACK
6
CONTINUOUS
10
4.5281811811023625
20
-6.7860594488188974
11
4.5289370078740152
21
-6.7999999999999998
0
LINE
8
BLACK
6
CONTINUOUS
10
4.5289370078740152
20
-6.7999999999999998
11
4.5281811811023625
21
-6.8139405511811022
0
LINE
8
BLACK
6
CONTINUOUS
10
4.5281811811023625
20
-6.8139405511811022
11
4.5259225196850394
21
-6.8277176377952751
0
LINE
8
BLACK
6
CONTINUOUS
10
4.5259225196850394
20
-6.8277176377952751
11
4.5221875590551184
21
-6.8411698031496062
0
LINE
8
BLACK
6
CONTINUOUS
10
4.5221875590551184
20
-6.8411698031496062
11
4.5170200393700783
21
-6.8541392519685038
0
LINE
8
BLACK
6
CONTINUOUS
10
4.5170200393700783
20
-6.8541392519685038
11
4.5104805905511807
21
-6.8664739763779528
0
LINE
8
BLACK
6
CONTINUOUS
10
4.5104805905511807
20
-6.8664739763779528
11
4.5026458661417319
21
-6.8780293700787398
0
LINE
8
BLACK
6
CONTINUOUS
10
4.5026458661417319
20
-6.8780293700787398
11
4.4936076771653539
21
-6.8886699212598428
0
LINE
8
BLACK
6
CONTINUOUS
10
4.4936076771653539
20
-6.8886699212598428
11
4.4834720472440948
21
-6.8982709055118105
0
LINE
8
BLACK
6
CONTINUOUS
10
4.4834720472440948
20
-6.8982709055118105
11
4.4723577952755909
21
-6.9067197244094487
0
LINE
8
BLACK
6
CONTINUOUS
10
4.4723577952755909
20
-6.9067197244094487
11
4.4603951968503939
21
-6.9139174015748033
0
LINE
8
BLACK
6
CONTINUOUS
10
4.4603951968503939
20
-6.9139174015748033
11
4.4477244881889764
21
-6.9197794881889765
0
LINE
8
BLACK
6
CONTINUOUS
10
4.4477244881889764
20
-6.9197794881889765
11
4.4344942913385825
21
-6.9242372440944884
0
LINE
8
BLACK
6
CONTINUOUS
10
4.4344942913385825
20
-6.9242372440944884
11
4.4208596850393702
21
-6.9272384645669289
0
LINE
8
BLACK
6
CONTINUOUS
10
4.4208596850393702
20
-6.9272384645669289
11
4.4069805118110237
21
-6.928747913385827
0
LINE
8
BLACK
6
CONTINUOUS
10
4.4069805118110237
20
-6.928747913385827
11
4.3930194881889761
21
-6.928747913385827
0
LINE
8
BLACK
6
CONTINUOUS
10
4.3930194881889761
20
-6.928747913385827
11
4.3791403149606296
21
-6.9272384645669289
0
LINE
8
BLACK
6
CONTINUOUS
10
4.3791403149606296
20
-6.9272384645669289
11
4.3655057086614173
21
-6.9242372440944884
0
LINE
8
BLACK
6
CONTINUOUS
10
4.3655057086614173
20
-6.9242372440944884
11
4.3522755118110235
21
-6.9197794881889765
0
LINE
8
BLACK
6
CONTINUOUS
10
4.3522755118110235
20
-6.9197794881889765
11
4.3396048031496059
21
-6.9139174015748033
0
LINE
8
BLACK
6
CONTINUOUS
10
4.3396048031496059
20
-6.9139174015748033
11
4.327642204724409
21
-6.9067197244094487
0
LINE
8
BLACK
6
CONTINUOUS
10
4.327642204724409
20
-6.9067197244094487
11
4.3165279527559051
21
-6.8982709055118105
0
LINE
8
BLACK
6
CONTINUOUS
10
4.3165279527559051
20
-6.8982709055118105
11
4.3063923228346459
21
-6.8886699212598428
0
LINE
8
BLACK
6
CONTINUOUS
10
4.3063923228346459
20
-6.8886699212598428
11
4.2973541338582679
21
-6.8780293700787398
0
LINE
8
BLACK
6
CONTINUOUS
10
4.2973541338582679
20
-6.8780293700787398
11
4.2895194094488192
21
-6.8664739763779528
0
LINE
8
BLACK
6
CONTINUOUS
10
4.2895194094488192
20
-6.8664739763779528
11
4.2829799606299215
21
-6.8541392519685038
0
LINE
8
BLACK
6
CONTINUOUS
10
4.2829799606299215
20
-6.8541392519685038
11
4.2778124409448814
21
-6.8411698031496062
0
LINE
8
BLACK
6
CONTINUOUS
10
4.2778124409448814
20
-6.8411698031496062
11
4.2740774803149604
21
-6.8277176377952751
0
LINE
8
BLACK
6
CONTINUOUS
10
4.2740774803149604
20
-6.8277176377952751
11
4.2718188188976374
21
-6.8139405511811022
0
LINE
8
BLACK
6
CONTINUOUS
10
4.2718188188976374
20
-6.8139405511811022
11
4.2710629921259837
21
-6.7999999999999998
0
LINE
8
BLACK
6
CONTINUOUS
10
4.2710629921259837
20
-6.7999999999999998
11
4.2718188188976374
21
-6.7860594488188974
0
LINE
8
BLACK
6
CONTINUOUS
10
4.2718188188976374
20
-6.7860594488188974
11
4.2740774803149604
21
-6.7722823622047246
0
LINE
8
BLACK
6
CONTINUOUS
10
4.2740774803149604
20
-6.7722823622047246
11
4.2778124409448814
21
-6.7588301968503934
0
LINE
8
BLACK
6
CONTINUOUS
10
4.2778124409448814
20
-6.7588301968503934
11
4.2829799606299215
21
-6.7458607480314958
0
LINE
8
BLACK
6
CONTINUOUS
10
4.2829799606299215
20
-6.7458607480314958
11
4.2895194094488192
21
-6.7335260236220469
0
LINE
8
BLACK
6
CONTINUOUS
10
4.2895194094488192
20
-6.7335260236220469
11
4.2973541338582679
21
-6.7219706299212598
0
LINE
8
BLACK
6
CONTINUOUS
10
4.2973541338582679
20
-6.7219706299212598
11
4.3063923228346459
21
-6.7113300787401577
0
LINE
8
BLACK
6
CONTINUOUS
10
4.3063923228346459
20
-6.7113300787401577
11
4.3165279527559051
21
-6.7017290944881891
0
LINE
8
BLACK
6
CONTINUOUS
10
4.3165279527559051
20
-6.7017290944881891
11
4.327642204724409
21
-6.6932802755905509
0
LINE
8
BLACK
6
CONTINUOUS
10
4.327642204724409
20
-6.6932802755905509
11
4.3396048031496059
21
-6.6860825984251964
0
LINE
8
BLACK
6
CONTINUOUS
10
4.3396048031496059
20
-6.6860825984251964
11
4.3522755118110235
21
-6.6802205118110232
0
LINE
8
BLACK
6
CONTINUOUS
10
4.3522755118110235
20
-6.6802205118110232
11
4.3655057086614173
21
-6.6757627559055113
0
LINE
8
BLACK
6
CONTINUOUS
10
4.3655057086614173
20
-6.6757627559055113
11
4.3791403149606296
21
-6.6727615354330707
0
LINE
8
BLACK
6
CONTINUOUS
10
4.3791403149606296
20
-6.6727615354330707
11
4.3930194881889761
21
-6.6712520866141727
0
LINE
8
BLACK
6
CONTINUOUS
10
4.3930194881889761
20
-6.6712520866141727
11
4.4069805118110237
21
-6.6712520866141727
0
LINE
8
BLACK
6
CONTINUOUS
10
4.4069805118110237
20
-6.6712520866141727
11
4.4208596850393702
21
-6.6727615354330707
0
LINE
8
BLACK
6
CONTINUOUS
10
4.2736310236220474
20
-6.8142383464566931
11
4.2760198031496062
21
-6.8282976771653541
0
LINE
8
BLACK
6
CONTINUOUS
10
4.2760198031496062
20
-6.8282976771653541
11
4.2799676771653541
21
-6.8420011023622047
0
LINE
8
BLACK
6
CONTINUOUS
10
4.2799676771653541
20
-6.8420011023622047
11
4.2854250787401575
21
-6.8551763779527555
0
LINE
8
BLACK
6
CONTINUOUS
10
4.2854250787401575
20
-6.8551763779527555
11
4.2923232677165357
21
-6.8676577559055119
0
LINE
8
BLACK
6
CONTINUOUS
10
4.2923232677165357
20
-6.8676577559055119
11
4.3005755905511807
21
-6.8792883070866138
0
LINE
8
BLACK
6
CONTINUOUS
10
4.3005755905511807
20
-6.8792883070866138
11
4.3100782283464563
21
-6.889921771653543
0
LINE
8
BLACK
6
CONTINUOUS
10
4.3100782283464563
20
-6.889921771653543
11
4.3207116929133855
21
-6.8994244094488186
0
LINE
8
BLACK
6
CONTINUOUS
10
4.3207116929133855
20
-6.8994244094488186
11
4.3323422440944883
21
-6.9076767322834645
0
LINE
8
BLACK
6
CONTINUOUS
10
4.3323422440944883
20
-6.9076767322834645
11
4.3448236220472438
21
-6.9145749212598426
0
LINE
8
BLACK
6
CONTINUOUS
10
4.3448236220472438
20
-6.9145749212598426
11
4.3579988976377955
21
-6.9200323228346452
0
LINE
8
BLACK
6
CONTINUOUS
10
4.3579988976377955
20
-6.9200323228346452
11
4.3717023228346452
21
-6.9239801968503931
0
LINE
8
BLACK
6
CONTINUOUS
10
4.3717023228346452
20
-6.9239801968503931
11
4.385761653543307
21
-6.9263689763779528
0
LINE
8
BLACK
6
CONTINUOUS
10
4.385761653543307
20
-6.9263689763779528
11
4.3999999999999995
21
-6.9271685826771652
0
LINE
8
BLACK
6
CONTINUOUS
10
4.3999999999999995
20
-6.9271685826771652
11
4.4142383464566928
21
-6.9263689763779528
0
LINE
8
BLACK
6
CONTINUOUS
10
4.4142383464566928
20
-6.9263689763779528
11
4.4282976771653546
21
-6.9239801968503931
0
LINE
8
BLACK
6
CONTINUOUS
10
4.4282976771653546
20
-6.9239801968503931
11
4.4420011023622044
21
-6.9200323228346452
0
LINE
8
BLACK
6
CONTINUOUS
10
4.4420011023622044
20
-6.9200323228346452
11
4.455176377952756
21
-6.9145749212598426
0
LINE
8
BLACK
6
CONTINUOUS
10
4.455176377952756
20
-6.9145749212598426
11
4.4676577559055115
21
-6.9076767322834645
0
LINE
8
BLACK
6
CONTINUOUS
10
4.4676577559055115
20
-6.9076767322834645
11
4.4792883070866143
21
-6.8994244094488186
0
LINE
8
BLACK
6
CONTINUOUS
10
4.4792883070866143
20
-6.8994244094488186
11
4.4899217716535436
21
-6.889921771653543
0
LINE
8
BLACK
6
CONTINUOUS
10
4.4899217716535436
20
-6.889921771653543
11
4.4994244094488192
21
-6.8792883070866138
0
LINE
8
BLACK
6
CONTINUOUS
10
4.4994244094488192
20
-6.8792883070866138
11
4.5076767322834641
21
-6.8676577559055119
0
LINE
8
BLACK
6
CONTINUOUS
10
4.5076767322834641
20
-6.8676577559055119
11
4.5145749212598423
21
-6.8551763779527555
0
LINE
8
BLACK
6
CONTINUOUS
10
4.5145749212598423
20
-6.8551763779527555
11
4.5200323228346457
21
-6.8420011023622047
0
LINE
8
BLACK
6
CONTINUOUS
10
4.5200323228346457
20
-6.8420011023622047
11
4.5239801968503937
21
-6.8282976771653541
0
LINE
8
BLACK
6
CONTINUOUS
10
4.5239801968503937
20
-6.8282976771653541
11
4.5263689763779524
21
-6.8142383464566931
0
LINE
8
BLACK
6
CONTINUOUS
10
4.5263689763779524
20
-6.8142383464566931
11
4.5271685826771648
21
-6.7999999999999998
0
LINE
8
BLACK
6
CONTINUOUS
10
4.5271685826771648
20
-6.7999999999999998
11
4.5263689763779524
21
-6.7857616535433065
0
LINE
8
BLACK
6
CONTINUOUS
10
4.5263689763779524
20
-6.7857616535433065
11
4.5239801968503937
21
-6.7717023228346456
0
LINE
8
BLACK
6
CONTINUOUS
10
4.5239801968503937
20
-6.7717023228346456
11
4.5200323228346457
21
-6.7579988976377949
0
LINE
8
BLACK
6
CONTINUOUS
10
4.5200323228346457
20
-6.7579988976377949
11
4.5145749212598423
21
-6.7448236220472442
0
LINE
8
BLACK
6
CONTINUOUS
10
4.5145749212598423
20
-6.7448236220472442
11
4.5076767322834641
21
-6.7323422440944878
0
LINE
8
BLACK
6
CONTINUOUS
10
4.5076767322834641
20
-6.7323422440944878
11
4.4994244094488192
21
-6.7207116929133859
0
LINE
8
BLACK
6
CONTINUOUS
10
4.4994244094488192
20
-6.7207116929133859
11
4.4899217716535436
21
-6.7100782283464566
0
LINE
8
BLACK
6
CONTINUOUS
10
4.4899217716535436
20
-6.7100782283464566
11
4.4792883070866143
21
-6.700575590551181
0
LINE
8
BLACK
6
CONTINUOUS
10
4.4792883070866143
20
-6.700575590551181
11
4.4676577559055115
21
-6.6923232677165352
0
LINE
8
BLACK
6
CONTINUOUS
10
4.4676577559055115
20
-6.6923232677165352
11
4.455176377952756
21
-6.685425078740157
0
LINE
8
BLACK
6
CONTINUOUS
10
4.455176377952756
20
-6.685425078740157
11
4.4420011023622044
21
-6.6799676771653544
0
LINE
8
BLACK
6
CONTINUOUS
10
4.4420011023622044
20
-6.6799676771653544
11
4.4282976771653546
21
-6.6760198031496065
0
LINE
8
BLACK
6
CONTINUOUS
10
4.4282976771653546
20
-6.6760198031496065
11
4.4142383464566928
21
-6.6736310236220469
0
LINE
8
BLACK
6
CONTINUOUS
10
4.4142383464566928
20
-6.6736310236220469
11
4.3999999999999995
21
-6.6728314173228345
0
LINE
8
BLACK
6
CONTINUOUS
10
4.3999999999999995
20
-6.6728314173228345
11
4.385761653543307
21
-6.6736310236220469
0
LINE
8
BLACK
6
CONTINUOUS
10
4.385761653543307
20
-6.6736310236220469
11
4.3717023228346452
21
-6.6760198031496065
0
LINE
8
BLACK
6
CONTINUOUS
10
4.3717023228346452
20
-6.6760198031496065
11
4.3579988976377955
21
-6.6799676771653544
0
LINE
8
BLACK
6
CONTINUOUS
10
4.3579988976377955
20
-6.6799676771653544
11
4.3448236220472438
21
-6.685425078740157
0
LINE
8
BLACK
6
CONTINUOUS
10
4.3448236220472438
20
-6.685425078740157
11
4.3323422440944883
21
-6.6923232677165352
0
LINE
8
BLACK
6
CONTINUOUS
10
4.3323422440944883
20
-6.6923232677165352
11
4.3207116929133855
21
-6.700575590551181
0
LINE
8
BLACK
6
CONTINUOUS
10
4.3207116929133855
20
-6.700575590551181
11
4.3100782283464563
21
-6.7100782283464566
0
LINE
8
BLACK
6
CONTINUOUS
10
4.3100782283464563
20
-6.7100782283464566
11
4.3005755905511807
21
-6.7207116929133859
0
LINE
8
BLACK
6
CONTINUOUS
10
4.3005755905511807
20
-6.7207116929133859
11
4.2923232677165357
21
-6.7323422440944878
0
LINE
8
BLACK
6
CONTINUOUS
10
4.2923232677165357
20
-6.7323422440944878
11
4.2854250787401575
21
-6.7448236220472442
0
LINE
8
BLACK
6
CONTINUOUS
10
4.2854250787401575
20
-6.7448236220472442
11
4.2799676771653541
21
-6.7579988976377949
0
LINE
8
BLACK
6
CONTINUOUS
10
4.2799676771653541
20
-6.7579988976377949
11
4.2760198031496062
21
-6.7717023228346456
0
LINE
8
BLACK
6
CONTINUOUS
10
4.2760198031496062
20
-6.7717023228346456
11
4.2736310236220474
21
-6.7857616535433065
0
LINE
8
BLACK
6
CONTINUOUS
10
4.2736310236220474
20
-6.7857616535433065
11
4.2728314173228341
21
-6.7999999999999998
0
LINE
8
BLACK
6
CONTINUOUS
10
4.2728314173228341
20
-6.7999999999999998
11
4.2736310236220474
21
-6.8142383464566931
0
LINE
8
BLACK
6
CONTINUOUS
10
6.0208596850393699
20
-6.6727615354330707
11
6.0344942913385822
21
-6.6757627559055113
0
LINE
8
BLACK
6
CONTINUOUS
10
6.0344942913385822
20
-6.6757627559055113
11
6.047724488188976
21
-6.6802205118110232
0
LINE
8
BLACK
6
CONTINUOUS
10
6.047724488188976
20
-6.6802205118110232
11
6.0603951968503935
21
-6.6860825984251964
0
LINE
8
BLACK
6
CONTINUOUS
10
6.0603951968503935
20
-6.6860825984251964
11
6.0723577952755905
21
-6.6932802755905509
0
LINE
8
BLACK
6
CONTINUOUS
10
6.0723577952755905
20
-6.6932802755905509
11
6.0834720472440944
21
-6.7017290944881891
0
LINE
8
BLACK
6
CONTINUOUS
10
6.0834720472440944
20
-6.7017290944881891
11
6.0936076771653545
21
-6.7113300787401577
0
LINE
8
BLACK
6
CONTINUOUS
10
6.0936076771653545
20
-6.7113300787401577
11
6.1026458661417324
21
-6.7219706299212598
0
LINE
8
BLACK
6
CONTINUOUS
10
6.1026458661417324
20
-6.7219706299212598
11
6.1104805905511812
21
-6.7335260236220469
0
LINE
8
BLACK
6
CONTINUOUS
10
6.1104805905511812
20
-6.7335260236220469
11
6.1170200393700789
21
-6.7458607480314958
0
LINE
8
BLACK
6
CONTINUOUS
10
6.1170200393700789
20
-6.7458607480314958
11
6.122187559055118
21
-6.7588301968503934
0
LINE
8
BLACK
6
CONTINUOUS
10
6.122187559055118
20
-6.7588301968503934
11
6.1259225196850391
21
-6.7722823622047246
0
LINE
8
BLACK
6
CONTINUOUS
10
6.1259225196850391
20
-6.7722823622047246
11
6.1281811811023621
21
-6.7860594488188974
0
LINE
8
BLACK
6
CONTINUOUS
10
6.1281811811023621
20
-6.7860594488188974
11
6.1289370078740157
21
-6.7999999999999998
0
LINE
8
BLACK
6
CONTINUOUS
10
6.1289370078740157
20
-6.7999999999999998
11
6.1281811811023621
21
-6.8139405511811022
0
LINE
8
BLACK
6
CONTINUOUS
10
6.1281811811023621
20
-6.8139405511811022
11
6.1259225196850391
21
-6.8277176377952751
0
LINE
8
BLACK
6
CONTINUOUS
10
6.1259225196850391
20
-6.8277176377952751
11
6.122187559055118
21
-6.8411698031496062
0
LINE
8
BLACK
6
CONTINUOUS
10
6.122187559055118
20
-6.8411698031496062
11
6.1170200393700789
21
-6.8541392519685038
0
LINE
8
BLACK
6
CONTINUOUS
10
6.1170200393700789
20
-6.8541392519685038
11
6.1104805905511812
21
-6.8664739763779528
0
LINE
8
BLACK
6
CONTINUOUS
10
6.1104805905511812
20
-6.8664739763779528
11
6.1026458661417324
21
-6.8780293700787398
0
LINE
8
BLACK
6
CONTINUOUS
10
6.1026458661417324
20
-6.8780293700787398
11
6.0936076771653545
21
-6.8886699212598428
0
LINE
8
BLACK
6
CONTINUOUS
10
6.0936076771653545
20
-6.8886699212598428
11
6.0834720472440944
21
-6.8982709055118105
0
LINE
8
BLACK
6
CONTINUOUS
10
6.0834720472440944
20
-6.8982709055118105
11
6.0723577952755905
21
-6.9067197244094487
0
LINE
8
BLACK
6
CONTINUOUS
10
6.0723577952755905
20
-6.9067197244094487
11
6.0603951968503935
21
-6.9139174015748033
0
LINE
8
BLACK
6
CONTINUOUS
10
6.0603951968503935
20
-6.9139174015748033
11
6.047724488188976
21
-6.9197794881889765
0
LINE
8
BLACK
6
CONTINUOUS
10
6.047724488188976
20
-6.9197794881889765
11
6.0344942913385822
21
-6.9242372440944884
0
LINE
8
BLACK
6
CONTINUOUS
10
6.0344942913385822
20
-6.9242372440944884
11
6.0208596850393699
21
-6.9272384645669289
0
LINE
8
BLACK
6
CONTINUOUS
10
6.0208596850393699
20
-6.9272384645669289
11
6.0069805118110233
21
-6.928747913385827
0
LINE
8
BLACK
6
CONTINUOUS
10
6.0069805118110233
20
-6.928747913385827
11
5.9930194881889767
21
-6.928747913385827
0
LINE
8
BLACK
6
CONTINUOUS
10
5.9930194881889767
20
-6.928747913385827
11
5.9791403149606301
21
-6.9272384645669289
0
LINE
8
BLACK
6
CONTINUOUS
10
5.9791403149606301
20
-6.9272384645669289
11
5.9655057086614169
21
-6.9242372440944884
0
LINE
8
BLACK
6
CONTINUOUS
10
5.9655057086614169
20
-6.9242372440944884
11
5.9522755118110231
21
-6.9197794881889765
0
LINE
8
BLACK
6
CONTINUOUS
10
5.9522755118110231
20
-6.9197794881889765
11
5.9396048031496065
21
-6.9139174015748033
0
LINE
8
BLACK
6
CONTINUOUS
10
5.9396048031496065
20
-6.9139174015748033
11
5.9276422047244095
21
-6.9067197244094487
0
LINE
8
BLACK
6
CONTINUOUS
10
5.9276422047244095
20
-6.9067197244094487
11
5.9165279527559056
21
-6.8982709055118105
0
LINE
8
BLACK
6
CONTINUOUS
10
5.9165279527559056
20
-6.8982709055118105
11
5.9063923228346455
21
-6.8886699212598428
0
LINE
8
BLACK
6
CONTINUOUS
10
5.9063923228346455
20
-6.8886699212598428
11
5.8973541338582676
21
-6.8780293700787398
0
LINE
8
BLACK
6
CONTINUOUS
10
5.8973541338582676
20
-6.8780293700787398
11
5.8895194094488188
21
-6.8664739763779528
0
LINE
8
BLACK
6
CONTINUOUS
10
5.8895194094488188
20
-6.8664739763779528
11
5.8829799606299211
21
-6.8541392519685038
0
LINE
8
BLACK
6
CONTINUOUS
10
5.8829799606299211
20
-6.8541392519685038
11
5.877812440944882
21
-6.8411698031496062
0
LINE
8
BLACK
6
CONTINUOUS
10
5.877812440944882
20
-6.8411698031496062
11
5.8740774803149609
21
-6.8277176377952751
0
LINE
8
BLACK
6
CONTINUOUS
10
5.8740774803149609
20
-6.8277176377952751
11
5.8718188188976379
21
-6.8139405511811022
0
LINE
8
BLACK
6
CONTINUOUS
10
5.8718188188976379
20
-6.8139405511811022
11
5.8710629921259843
21
-6.7999999999999998
0
LINE
8
BLACK
6
CONTINUOUS
10
5.8710629921259843
20
-6.7999999999999998
11
5.8718188188976379
21
-6.7860594488188974
0
LINE
8
BLACK
6
CONTINUOUS
10
5.8718188188976379
20
-6.7860594488188974
11
5.8740774803149609
21
-6.7722823622047246
0
LINE
8
BLACK
6
CONTINUOUS
10
5.8740774803149609
20
-6.7722823622047246
11
5.877812440944882
21
-6.7588301968503934
0
LINE
8
BLACK
6
CONTINUOUS
10
5.877812440944882
20
-6.7588301968503934
11
5.8829799606299211
21
-6.7458607480314958
0
LINE
8
BLACK
6
CONTINUOUS
10
5.8829799606299211
20
-6.7458607480314958
11
5.8895194094488188
21
-6.7335260236220469
0
LINE
8
BLACK
6
CONTINUOUS
10
5.8895194094488188
20
-6.7335260236220469
11
5.8973541338582676
21
-6.7219706299212598
0
LINE
8
BLACK
6
CONTINUOUS
10
5.8973541338582676
20
-6.7219706299212598
11
5.9063923228346455
21
-6.7113300787401577
0
LINE
8
BLACK
6
CONTINUOUS
10
5.9063923228346455
20
-6.7113300787401577
11
5.9165279527559056
21
-6.7017290944881891
0
LINE
8
BLACK
6
CONTINUOUS
10
5.9165279527559056
20
-6.7017290944881891
11
5.9276422047244095
21
-6.6932802755905509
0
LINE
8
BLACK
6
CONTINUOUS
10
5.9276422047244095
20
-6.6932802755905509
11
5.9396048031496065
21
-6.6860825984251964
0
LINE
8
BLACK
6
CONTINUOUS
10
5.9396048031496065
20
-6.6860825984251964
11
5.9522755118110231
21
-6.6802205118110232
0
LINE
8
BLACK
6
CONTINUOUS
10
5.9522755118110231
20
-6.6802205118110232
11
5.9655057086614169
21
-6.6757627559055113
0
LINE
8
BLACK
6
CONTINUOUS
10
5.9655057086614169
20
-6.6757627559055113
11
5.9791403149606301
21
-6.6727615354330707
0
LINE
8
BLACK
6
CONTINUOUS
10
5.9791403149606301
20
-6.6727615354330707
11
5.9930194881889767
21
-6.6712520866141727
0
LINE
8
BLACK
6
CONTINUOUS
10
5.9930194881889767
20
-6.6712520866141727
11
6.0069805118110233
21
-6.6712520866141727
0
LINE
8
BLACK
6
CONTINUOUS
10
6.0069805118110233
20
-6.6712520866141727
11
6.0208596850393699
21
-6.6727615354330707
0
LINE
8
BLACK
6
CONTINUOUS
10
5.873631023622047
20
-6.8142383464566931
11
5.8760198031496058
21
-6.8282976771653541
0
LINE
8
BLACK
6
CONTINUOUS
10
5.8760198031496058
20
-6.8282976771653541
11
5.8799676771653546
21
-6.8420011023622047
0
LINE
8
BLACK
6
CONTINUOUS
10
5.8799676771653546
20
-6.8420011023622047
11
5.8854250787401572
21
-6.8551763779527555
0
LINE
8
BLACK
6
CONTINUOUS
10
5.8854250787401572
20
-6.8551763779527555
11
5.8923232677165354
21
-6.8676577559055119
0
LINE
8
BLACK
6
CONTINUOUS
10
5.8923232677165354
20
-6.8676577559055119
11
5.9005755905511812
21
-6.8792883070866138
0
LINE
8
BLACK
6
CONTINUOUS
10
5.9005755905511812
20
-6.8792883070866138
11
5.9100782283464568
21
-6.889921771653543
0
LINE
8
BLACK
6
CONTINUOUS
10
5.9100782283464568
20
-6.889921771653543
11
5.9207116929133861
21
-6.8994244094488186
0
LINE
8
BLACK
6
CONTINUOUS
10
5.9207116929133861
20
-6.8994244094488186
11
5.932342244094488
21
-6.9076767322834645
0
LINE
8
BLACK
6
CONTINUOUS
10
5.932342244094488
20
-6.9076767322834645
11
5.9448236220472443
21
-6.9145749212598426
0
LINE
8
BLACK
6
CONTINUOUS
10
5.9448236220472443
20
-6.9145749212598426
11
5.9579988976377951
21
-6.9200323228346452
0
LINE
8
BLACK
6
CONTINUOUS
10
5.9579988976377951
20
-6.9200323228346452
11
5.9717023228346457
21
-6.9239801968503931
0
LINE
8
BLACK
6
CONTINUOUS
10
5.9717023228346457
20
-6.9239801968503931
11
5.9857616535433067
21
-6.9263689763779528
0
LINE
8
BLACK
6
CONTINUOUS
10
5.9857616535433067
20
-6.9263689763779528
11
6.
21
-6.9271685826771652
0
LINE
8
BLACK
6
CONTINUOUS
10
6.
20
-6.9271685826771652
11
6.0142383464566924
21
-6.9263689763779528
0
LINE
8
BLACK
6
CONTINUOUS
10
6.0142383464566924
20
-6.9263689763779528
11
6.0282976771653543
21
-6.9239801968503931
0
LINE
8
BLACK
6
CONTINUOUS
10
6.0282976771653543
20
-6.9239801968503931
11
6.0420011023622049
21
-6.9200323228346452
0
LINE
8
BLACK
6
CONTINUOUS
10
6.0420011023622049
20
-6.9200323228346452
11
6.0551763779527557
21
-6.9145749212598426
0
LINE
8
BLACK
6
CONTINUOUS
10
6.0551763779527557
20
-6.9145749212598426
11
6.067657755905512
21
-6.9076767322834645
0
LINE
8
BLACK
6
CONTINUOUS
10
6.067657755905512
20
-6.9076767322834645
11
6.0792883070866139
21
-6.8994244094488186
0
LINE
8
BLACK
6
CONTINUOUS
10
6.0792883070866139
20
-6.8994244094488186
11
6.0899217716535432
21
-6.889921771653543
0
LINE
8
BLACK
6
CONTINUOUS
10
6.0899217716535432
20
-6.889921771653543
11
6.0994244094488188
21
-6.8792883070866138
0
LINE
8
BLACK
6
CONTINUOUS
10
6.0994244094488188
20
-6.8792883070866138
11
6.1076767322834646
21
-6.8676577559055119
0
LINE
8
BLACK
6
CONTINUOUS
10
6.1076767322834646
20
-6.8676577559055119
11
6.1145749212598428
21
-6.8551763779527555
0
LINE
8
BLACK
6
CONTINUOUS
10
6.1145749212598428
20
-6.8551763779527555
11
6.1200323228346454
21
-6.8420011023622047
0
LINE
8
BLACK
6
CONTINUOUS
10
6.1200323228346454
20
-6.8420011023622047
11
6.1239801968503933
21
-6.8282976771653541
0
LINE
8
BLACK
6
CONTINUOUS
10
6.1239801968503933
20
-6.8282976771653541
11
6.126368976377953
21
-6.8142383464566931
0
LINE
8
BLACK
6
CONTINUOUS
10
6.126368976377953
20
-6.8142383464566931
11
6.1271685826771654
21
-6.7999999999999998
0
LINE
8
BLACK
6
CONTINUOUS
10
6.1271685826771654
20
-6.7999999999999998
11
6.126368976377953
21
-6.7857616535433065
0
LINE
8
BLACK
6
CONTINUOUS
10
6.126368976377953
20
-6.7857616535433065
11
6.1239801968503933
21
-6.7717023228346456
0
LINE
8
BLACK
6
CONTINUOUS
10
6.1239801968503933
20
-6.7717023228346456
11
6.1200323228346454
21
-6.7579988976377949
0
LINE
8
BLACK
6
CONTINUOUS
10
6.1200323228346454
20
-6.7579988976377949
11
6.1145749212598428
21
-6.7448236220472442
0
LINE
8
BLACK
6
CONTINUOUS
10
6.1145749212598428
20
-6.7448236220472442
11
6.1076767322834646
21
-6.7323422440944878
0
LINE
8
BLACK
6
CONTINUOUS
10
6.1076767322834646
20
-6.7323422440944878
11
6.0994244094488188
21
-6.7207116929133859
0
LINE
8
BLACK
6
CONTINUOUS
10
6.0994244094488188
20
-6.7207116929133859
11
6.0899217716535432
21
-6.7100782283464566
0
LINE
8
BLACK
6
CONTINUOUS
10
6.0899217716535432
20
-6.7100782283464566
11
6.0792883070866139
21
-6.700575590551181
0
LINE
8
BLACK
6
CONTINUOUS
10
6.0792883070866139
20
-6.700575590551181
11
6.067657755905512
21
-6.6923232677165352
0
LINE
8
BLACK
6
CONTINUOUS
10
6.067657755905512
20
-6.6923232677165352
11
6.0551763779527557
21
-6.685425078740157
0
LINE
8
BLACK
6
CONTINUOUS
10
6.0551763779527557
20
-6.685425078740157
11
6.0420011023622049
21
-6.6799676771653544
0
LINE
8
BLACK
6
CONTINUOUS
10
6.0420011023622049
20
-6.6799676771653544
11
6.0282976771653543
21
-6.6760198031496065
0
LINE
8
BLACK
6
CONTINUOUS
10
6.0282976771653543
20
-6.6760198031496065
11
6.0142383464566924
21
-6.6736310236220469
0
LINE
8
BLACK
6
CONTINUOUS
10
6.0142383464566924
20
-6.6736310236220469
11
6.
21
-6.6728314173228345
0
LINE
8
BLACK
6
CONTINUOUS
10
6.
20
-6.6728314173228345
11
5.9857616535433067
21
-6.6736310236220469
0
LINE
8
BLACK
6
CONTINUOUS
10
5.9857616535433067
20
-6.6736310236220469
11
5.9717023228346457
21
-6.6760198031496065
0
LINE
8
BLACK
6
CONTINUOUS
10
5.9717023228346457
20
-6.6760198031496065
11
5.9579988976377951
21
-6.6799676771653544
0
LINE
8
BLACK
6
CONTINUOUS
10
5.9579988976377951
20
-6.6799676771653544
11
5.9448236220472443
21
-6.685425078740157
0
LINE
8
BLACK
6
CONTINUOUS
10
5.9448236220472443
20
-6.685425078740157
11
5.932342244094488
21
-6.6923232677165352
0
LINE
8
BLACK
6
CONTINUOUS
10
5.932342244094488
20
-6.6923232677165352
11
5.9207116929133861
21
-6.700575590551181
0
LINE
8
BLACK
6
CONTINUOUS
10
5.9207116929133861
20
-6.700575590551181
11
5.9100782283464568
21
-6.7100782283464566
0
LINE
8
BLACK
6
CONTINUOUS
10
5.9100782283464568
20
-6.7100782283464566
11
5.9005755905511812
21
-6.7207116929133859
0
LINE
8
BLACK
6
CONTINUOUS
10
5.9005755905511812
20
-6.7207116929133859
11
5.8923232677165354
21
-6.7323422440944878
0
LINE
8
BLACK
6
CONTINUOUS
10
5.8923232677165354
20
-6.7323422440944878
11
5.8854250787401572
21
-6.7448236220472442
0
LINE
8
BLACK
6
CONTINUOUS
10
5.8854250787401572
20
-6.7448236220472442
11
5.8799676771653546
21
-6.7579988976377949
0
LINE
8
BLACK
6
CONTINUOUS
10
5.8799676771653546
20
-6.7579988976377949
11
5.8760198031496058
21
-6.7717023228346456
0
LINE
8
BLACK
6
CONTINUOUS
10
5.8760198031496058
20
-6.7717023228346456
11
5.873631023622047
21
-6.7857616535433065
0
LINE
8
BLACK
6
CONTINUOUS
10
5.873631023622047
20
-6.7857616535433065
11
5.8728314173228346
21
-6.7999999999999998
0
LINE
8
BLACK
6
CONTINUOUS
10
5.8728314173228346
20
-6.7999999999999998
11
5.873631023622047
21
-6.8142383464566931
0
LINE
8
BLACK
6
CONTINUOUS
10
5.2744881889763775
20
-6.5086456692913384
11
5.2751841732283467
21
-6.5089339370078738
0
LINE
8
BLACK
6
CONTINUOUS
10
5.2751841732283467
20
-6.5089339370078738
11
5.2754724409448821
21
-6.5096299212598421
0
LINE
8
BLACK
6
CONTINUOUS
10
5.2754724409448821
20
-6.5096299212598421
11
5.2754724409448821
21
-6.5883700787401569
0
LINE
8
BLACK
6
CONTINUOUS
10
5.2754724409448821
20
-6.5883700787401569
11
5.2751841732283467
21
-6.589066062992126
0
LINE
8
BLACK
6
CONTINUOUS
10
5.2751841732283467
20
-6.589066062992126
11
5.2744881889763775
21
-6.5893543307086615
0
LINE
8
BLACK
6
CONTINUOUS
10
5.2744881889763775
20
-6.5893543307086615
11
5.0855118110236219
21
-6.5893543307086615
0
LINE
8
BLACK
6
CONTINUOUS
10
5.0855118110236219
20
-6.5893543307086615
11
5.0848158267716537
21
-6.589066062992126
0
LINE
8
BLACK
6
CONTINUOUS
10
5.0848158267716537
20
-6.589066062992126
11
5.0845275590551182
21
-6.5883700787401569
0
LINE
8
BLACK
6
CONTINUOUS
10
5.0845275590551182
20
-6.5883700787401569
11
5.0845275590551182
21
-6.5096299212598421
0
LINE
8
BLACK
6
CONTINUOUS
10
5.0845275590551182
20
-6.5096299212598421
11
5.0848158267716537
21
-6.5089339370078738
0
LINE
8
BLACK
6
CONTINUOUS
10
5.0848158267716537
20
-6.5089339370078738
11
5.0855118110236219
21
-6.5086456692913384
0
LINE
8
BLACK
6
CONTINUOUS
10
5.0855118110236219
20
-6.5086456692913384
11
5.2744881889763775
21
-6.5086456692913384
0
LINE
8
BLACK
6
CONTINUOUS
10
5.0864960629921256
20
-6.5106141732283467
11
5.0864960629921256
21
-6.5873858267716532
0
LINE
8
BLACK
6
CONTINUOUS
10
5.0864960629921256
20
-6.5873858267716532
11
5.2735039370078738
21
-6.5873858267716532
0
LINE
8
BLACK
6
CONTINUOUS
10
5.2735039370078738
20
-6.5873858267716532
11
5.2735039370078738
21
-6.5106141732283467
0
LINE
8
BLACK
6
CONTINUOUS
10
5.2735039370078738
20
-6.5106141732283467
11
5.0864960629921256
21
-6.5106141732283467
0
LINE
8
BLACK
6
CONTINUOUS
10
5.2428346456692916
20
-6.3694881889763781
11
5.2435306299212598
21
-6.3697764566929136
0
LINE
8
BLACK
6
CONTINUOUS
10
5.2435306299212598
20
-6.3697764566929136
11
5.2438188976377953
21
-6.3704724409448819
0
LINE
8
BLACK
6
CONTINUOUS
10
5.2438188976377953
20
-6.3704724409448819
11
5.2438188976377953
21
-6.429527559055118
0
LINE
8
BLACK
6
CONTINUOUS
10
5.2438188976377953
20
-6.429527559055118
11
5.2435306299212598
21
-6.4302235433070862
0
LINE
8
BLACK
6
CONTINUOUS
10
5.2435306299212598
20
-6.4302235433070862
11
5.2428346456692916
21
-6.4305118110236217
0
LINE
8
BLACK
6
CONTINUOUS
10
5.2428346456692916
20
-6.4305118110236217
11
5.0971653543307083
21
-6.4305118110236217
0
LINE
8
BLACK
6
CONTINUOUS
10
5.0971653543307083
20
-6.4305118110236217
11
5.09646937007874
21
-6.4302235433070862
0
LINE
8
BLACK
6
CONTINUOUS
10
5.09646937007874
20
-6.4302235433070862
11
5.0961811023622046
21
-6.429527559055118
0
LINE
8
BLACK
6
CONTINUOUS
10
5.0961811023622046
20
-6.429527559055118
11
5.0961811023622046
21
-6.3704724409448819
0
LINE
8
BLACK
6
CONTINUOUS
10
5.0961811023622046
20
-6.3704724409448819
11
5.09646937007874
21
-6.3697764566929136
0
LINE
8
BLACK
6
CONTINUOUS
10
5.09646937007874
20
-6.3697764566929136
11
5.0971653543307083
21
-6.3694881889763781
0
LINE
8
BLACK
6
CONTINUOUS
10
5.0971653543307083
20
-6.3694881889763781
11
5.2428346456692916
21
-6.3694881889763781
0
LINE
8
BLACK
6
CONTINUOUS
10
5.0981496062992129
20
-6.3714566929133856
11
5.0981496062992129
21
-6.4285433070866143
0
LINE
8
BLACK
6
CONTINUOUS
10
5.0981496062992129
20
-6.4285433070866143
11
5.241850393700787
21
-6.4285433070866143
0
LINE
8
BLACK
6
CONTINUOUS
10
5.241850393700787
20
-6.4285433070866143
11
5.241850393700787
21
-6.3714566929133856
0
LINE
8
BLACK
6
CONTINUOUS
10
5.241850393700787
20
-6.3714566929133856
11
5.0981496062992129
21
-6.3714566929133856
0
LINE
8
BLACK
6
CONTINUOUS
10
5.4704330708661413
20
-6.0457566929133861
11
5.4711290551181104
21
-6.0460449606299207
0
LINE
8
BLACK
6
CONTINUOUS
10
5.4711290551181104
20
-6.0460449606299207
11
5.4714173228346459
21
-6.0467409448818898
0
LINE
8
BLACK
6
CONTINUOUS
10
5.4714173228346459
20
-6.0467409448818898
11
5.4714173228346459
21
-6.3380795275590547
0
LINE
8
BLACK
6
CONTINUOUS
10
5.4714173228346459
20
-6.3380795275590547
11
5.4711290551181104
21
-6.3387755118110238
0
LINE
8
BLACK
6
CONTINUOUS
10
5.4711290551181104
20
-6.3387755118110238
11
5.4704330708661413
21
-6.3390637795275593
0
LINE
8
BLACK
6
CONTINUOUS
10
5.4704330708661413
20
-6.3390637795275593
11
5.1042913385826774
21
-6.3390637795275593
0
LINE
8
BLACK
6
CONTINUOUS
10
5.1042913385826774
20
-6.3390637795275593
11
5.1035953543307082
21
-6.3387755118110238
0
LINE
8
BLACK
6
CONTINUOUS
10
5.1035953543307082
20
-6.3387755118110238
11
5.1033070866141728
21
-6.3380795275590547
0
LINE
8
BLACK
6
CONTINUOUS
10
5.1033070866141728
20
-6.3380795275590547
11
5.1033070866141728
21
-6.0467409448818898
0
LINE
8
BLACK
6
CONTINUOUS
10
5.1033070866141728
20
-6.0467409448818898
11
5.1035953543307082
21
-6.0460449606299207
0
LINE
8
BLACK
6
CONTINUOUS
10
5.1035953543307082
20
-6.0460449606299207
11
5.1042913385826774
21
-6.0457566929133861
0
LINE
8
BLACK
6
CONTINUOUS
10
5.1042913385826774
20
-6.0457566929133861
11
5.4704330708661413
21
-6.0457566929133861
0
LINE
8
BLACK
6
CONTINUOUS
10
5.1052755905511811
20
-6.0477251968503936
11
5.1052755905511811
21
-6.337095275590551
0
LINE
8
BLACK
6
CONTINUOUS
10
5.1052755905511811
20
-6.337095275590551
11
5.4694488188976376
21
-6.337095275590551
0
LINE
8
BLACK
6
CONTINUOUS
10
5.4694488188976376
20
-6.337095275590551
11
5.4694488188976376
21
-6.0477251968503936
0
LINE
8
BLACK
6
CONTINUOUS
10
5.4694488188976376
20
-6.0477251968503936
11
5.1052755905511811
21
-6.0477251968503936
0
LINE
8
BLACK
6
CONTINUOUS
10
6.0868897637795278
20
-6.1898905511811027
11
6.0875857480314961
21
-6.1901788188976372
0
LINE
8
BLACK
6
CONTINUOUS
10
6.0875857480314961
20
-6.1901788188976372
11
6.0878740157480316
21
-6.1908748031496064
0
LINE
8
BLACK
6
CONTINUOUS
10
6.0878740157480316
20
-6.1908748031496064
11
6.0878740157480316
21
-6.3365440944881888
0
LINE
8
BLACK
6
CONTINUOUS
10
6.0878740157480316
20
-6.3365440944881888
11
6.0875857480314961
21
-6.337240078740157
0
LINE
8
BLACK
6
CONTINUOUS
10
6.0875857480314961
20
-6.337240078740157
11
6.0868897637795278
21
-6.3375283464566925
0
LINE
8
BLACK
6
CONTINUOUS
10
6.0868897637795278
20
-6.3375283464566925
11
6.0278346456692908
21
-6.3375283464566925
0
LINE
8
BLACK
6
CONTINUOUS
10
6.0278346456692908
20
-6.3375283464566925
11
6.0271386614173226
21
-6.337240078740157
0
LINE
8
BLACK
6
CONTINUOUS
10
6.0271386614173226
20
-6.337240078740157
11
6.0268503937007871
21
-6.3365440944881888
0
LINE
8
BLACK
6
CONTINUOUS
10
6.0268503937007871
20
-6.3365440944881888
11
6.0268503937007871
21
-6.1908748031496064
0
LINE
8
BLACK
6
CONTINUOUS
10
6.0268503937007871
20
-6.1908748031496064
11
6.0271386614173226
21
-6.1901788188976372
0
LINE
8
BLACK
6
CONTINUOUS
10
6.0271386614173226
20
-6.1901788188976372
11
6.0278346456692908
21
-6.1898905511811027
0
LINE
8
BLACK
6
CONTINUOUS
10
6.0278346456692908
20
-6.1898905511811027
11
6.0868897637795278
21
-6.1898905511811027
0
LINE
8
BLACK
6
CONTINUOUS
10
6.0288188976377954
20
-6.1918590551181101
11
6.0288188976377954
21
-6.3355598425196851
0
LINE
8
BLACK
6
CONTINUOUS
10
6.0288188976377954
20
-6.3355598425196851
11
6.0859055118110232
21
-6.3355598425196851
0
LINE
8
BLACK
6
CONTINUOUS
10
6.0859055118110232
20
-6.3355598425196851
11
6.0859055118110232
21
-6.1918590551181101
0
LINE
8
BLACK
6
CONTINUOUS
10
6.0859055118110232
20
-6.1918590551181101
11
6.0288188976377954
21
-6.1918590551181101
0
LINE
8
BLACK
6
CONTINUOUS
10
4.9830708661417322
20
-6.0426647244094482
11
4.9837668503937005
21
-6.0429529921259837
0
LINE
8
BLACK
6
CONTINUOUS
10
4.9837668503937005
20
-6.0429529921259837
11
4.9840551181102359
21
-6.0436489763779528
0
LINE
8
BLACK
6
CONTINUOUS
10
4.9840551181102359
20
-6.0436489763779528
11
4.9840551181102359
21
-6.3349875590551177
0
LINE
8
BLACK
6
CONTINUOUS
10
4.9840551181102359
20
-6.3349875590551177
11
4.9837668503937005
21
-6.3356835433070868
0
LINE
8
BLACK
6
CONTINUOUS
10
4.9837668503937005
20
-6.3356835433070868
11
4.9830708661417322
21
-6.3359718110236223
0
LINE
8
BLACK
6
CONTINUOUS
10
4.9830708661417322
20
-6.3359718110236223
11
4.6169291338582674
21
-6.3359718110236223
0
LINE
8
BLACK
6
CONTINUOUS
10
4.6169291338582674
20
-6.3359718110236223
11
4.6162331496062992
21
-6.3356835433070868
0
LINE
8
BLACK
6
CONTINUOUS
10
4.6162331496062992
20
-6.3356835433070868
11
4.6159448818897637
21
-6.3349875590551177
0
LINE
8
BLACK
6
CONTINUOUS
10
4.6159448818897637
20
-6.3349875590551177
11
4.6159448818897637
21
-6.0436489763779528
0
LINE
8
BLACK
6
CONTINUOUS
10
4.6159448818897637
20
-6.0436489763779528
11
4.6162331496062992
21
-6.0429529921259837
0
LINE
8
BLACK
6
CONTINUOUS
10
4.6162331496062992
20
-6.0429529921259837
11
4.6169291338582674
21
-6.0426647244094482
0
LINE
8
BLACK
6
CONTINUOUS
10
4.6169291338582674
20
-6.0426647244094482
11
4.9830708661417322
21
-6.0426647244094482
0
LINE
8
BLACK
6
CONTINUOUS
10
4.6179133858267711
20
-6.0446332283464566
11
4.6179133858267711
21
-6.334003307086614
0
LINE
8
BLACK
6
CONTINUOUS
10
4.6179133858267711
20
-6.334003307086614
11
4.9820866141732285
21
-6.334003307086614
0
LINE
8
BLACK
6
CONTINUOUS
10
4.9820866141732285
20
-6.334003307086614
11
4.9820866141732285
21
-6.0446332283464566
0
LINE
8
BLACK
6
CONTINUOUS
10
4.9820866141732285
20
-6.0446332283464566
11
4.6179133858267711
21
-6.0446332283464566
0
LINE
8
BLACK
6
CONTINUOUS
10
5.0695275590551176
20
-6.1861811023622044
11
5.0702235433070868
21
-6.1864693700787399
0
LINE
8
BLACK
6
CONTINUOUS
10
5.0702235433070868
20
-6.1864693700787399
11
5.0705118110236223
21
-6.1871653543307081
0
LINE
8
BLACK
6
CONTINUOUS
10
5.0705118110236223
20
-6.1871653543307081
11
5.0705118110236223
21
-6.3328346456692914
0
LINE
8
BLACK
6
CONTINUOUS
10
5.0705118110236223
20
-6.3328346456692914
11
5.0702235433070868
21
-6.3335306299212597
0
LINE
8
BLACK
6
CONTINUOUS
10
5.0702235433070868
20
-6.3335306299212597
11
5.0695275590551176
21
-6.3338188976377952
0
LINE
8
BLACK
6
CONTINUOUS
10
5.0695275590551176
20
-6.3338188976377952
11
5.0104724409448815
21
-6.3338188976377952
0
LINE
8
BLACK
6
CONTINUOUS
10
5.0104724409448815
20
-6.3338188976377952
11
5.0097764566929133
21
-6.3335306299212597
0
LINE
8
BLACK
6
CONTINUOUS
10
5.0097764566929133
20
-6.3335306299212597
11
5.0094881889763778
21
-6.3328346456692914
0
LINE
8
BLACK
6
CONTINUOUS
10
5.0094881889763778
20
-6.3328346456692914
11
5.0094881889763778
21
-6.1871653543307081
0
LINE
8
BLACK
6
CONTINUOUS
10
5.0094881889763778
20
-6.1871653543307081
11
5.0097764566929133
21
-6.1864693700787399
0
LINE
8
BLACK
6
CONTINUOUS
10
5.0097764566929133
20
-6.1864693700787399
11
5.0104724409448815
21
-6.1861811023622044
0
LINE
8
BLACK
6
CONTINUOUS
10
5.0104724409448815
20
-6.1861811023622044
11
5.0695275590551176
21
-6.1861811023622044
0
LINE
8
BLACK
6
CONTINUOUS
10
5.0114566929133861
20
-6.1881496062992127
11
5.0114566929133861
21
-6.3318503937007868
0
LINE
8
BLACK
6
CONTINUOUS
10
5.0114566929133861
20
-6.3318503937007868
11
5.0685433070866139
21
-6.3318503937007868
0
LINE
8
BLACK
6
CONTINUOUS
10
5.0685433070866139
20
-6.3318503937007868
11
5.0685433070866139
21
-6.1881496062992127
0
LINE
8
BLACK
6
CONTINUOUS
10
5.0685433070866139
20
-6.1881496062992127
11
5.0114566929133861
21
-6.1881496062992127
0
LINE
8
BLACK
6
CONTINUOUS
10
5.9980314960629917
20
-5.9646543307086617
11
5.9987274803149608
21
-5.9649425984251971
0
LINE
8
BLACK
6
CONTINUOUS
10
5.9987274803149608
20
-5.9649425984251971
11
5.9990157480314963
21
-5.9656385826771654
0
LINE
8
BLACK
6
CONTINUOUS
10
5.9990157480314963
20
-5.9656385826771654
11
5.9990157480314963
21
-6.3317803149606302
0
LINE
8
BLACK
6
CONTINUOUS
10
5.9990157480314963
20
-6.3317803149606302
11
5.9987274803149608
21
-6.3324762992125985
0
LINE
8
BLACK
6
CONTINUOUS
10
5.9987274803149608
20
-6.3324762992125985
11
5.9980314960629917
21
-6.3327645669291339
0
LINE
8
BLACK
6
CONTINUOUS
10
5.9980314960629917
20
-6.3327645669291339
11
5.7066929133858268
21
-6.3327645669291339
0
LINE
8
BLACK
6
CONTINUOUS
10
5.7066929133858268
20
-6.3327645669291339
11
5.7059969291338577
21
-6.3324762992125985
0
LINE
8
BLACK
6
CONTINUOUS
10
5.7059969291338577
20
-6.3324762992125985
11
5.7057086614173231
21
-6.3317803149606302
0
LINE
8
BLACK
6
CONTINUOUS
10
5.7057086614173231
20
-6.3317803149606302
11
5.7057086614173231
21
-5.9656385826771654
0
LINE
8
BLACK
6
CONTINUOUS
10
5.7057086614173231
20
-5.9656385826771654
11
5.7059969291338577
21
-5.9649425984251971
0
LINE
8
BLACK
6
CONTINUOUS
10
5.7059969291338577
20
-5.9649425984251971
11
5.7066929133858268
21
-5.9646543307086617
0
LINE
8
BLACK
6
CONTINUOUS
10
5.7066929133858268
20
-5.9646543307086617
11
5.9980314960629917
21
-5.9646543307086617
0
LINE
8
BLACK
6
CONTINUOUS
10
5.7076771653543306
20
-5.9666228346456691
11
5.7076771653543306
21
-6.3307960629921256
0
LINE
8
BLACK
6
CONTINUOUS
10
5.7076771653543306
20
-6.3307960629921256
11
5.997047244094488
21
-6.3307960629921256
0
LINE
8
BLACK
6
CONTINUOUS
10
5.997047244094488
20
-6.3307960629921256
11
5.997047244094488
21
-5.9666228346456691
0
LINE
8
BLACK
6
CONTINUOUS
10
5.997047244094488
20
-5.9666228346456691
11
5.7076771653543306
21
-5.9666228346456691
0
LINE
8
BLACK
6
CONTINUOUS
10
4.4208596850393702
20
-5.0727615354330711
11
4.4344942913385825
21
-5.0757627559055116
0
LINE
8
BLACK
6
CONTINUOUS
10
4.4344942913385825
20
-5.0757627559055116
11
4.4477244881889764
21
-5.0802205118110235
0
LINE
8
BLACK
6
CONTINUOUS
10
4.4477244881889764
20
-5.0802205118110235
11
4.4603951968503939
21
-5.0860825984251967
0
LINE
8
BLACK
6
CONTINUOUS
10
4.4603951968503939
20
-5.0860825984251967
11
4.4723577952755909
21
-5.0932802755905513
0
LINE
8
BLACK
6
CONTINUOUS
10
4.4723577952755909
20
-5.0932802755905513
11
4.4834720472440948
21
-5.1017290944881886
0
LINE
8
BLACK
6
CONTINUOUS
10
4.4834720472440948
20
-5.1017290944881886
11
4.4936076771653539
21
-5.1113300787401572
0
LINE
8
BLACK
6
CONTINUOUS
10
4.4936076771653539
20
-5.1113300787401572
11
4.5026458661417319
21
-5.1219706299212593
0
LINE
8
BLACK
6
CONTINUOUS
10
4.5026458661417319
20
-5.1219706299212593
11
4.5104805905511807
21
-5.1335260236220472
0
LINE
8
BLACK
6
CONTINUOUS
10
4.5104805905511807
20
-5.1335260236220472
11
4.5170200393700783
21
-5.1458607480314962
0
LINE
8
BLACK
6
CONTINUOUS
10
4.5170200393700783
20
-5.1458607480314962
11
4.5221875590551184
21
-5.1588301968503938
0
LINE
8
BLACK
6
CONTINUOUS
10
4.5221875590551184
20
-5.1588301968503938
11
4.5259225196850394
21
-5.172282362204724
0
LINE
8
BLACK
6
CONTINUOUS
10
4.5259225196850394
20
-5.172282362204724
11
4.5281811811023625
21
-5.1860594488188978
0
LINE
8
BLACK
6
CONTINUOUS
10
4.5281811811023625
20
-5.1860594488188978
11
4.5289370078740152
21
-5.2000000000000002
0
LINE
8
BLACK
6
CONTINUOUS
10
4.5289370078740152
20
-5.2000000000000002
11
4.5281811811023625
21
-5.2139405511811026
0
LINE
8
BLACK
6
CONTINUOUS
10
4.5281811811023625
20
-5.2139405511811026
11
4.5259225196850394
21
-5.2277176377952754
0
LINE
8
BLACK
6
CONTINUOUS
10
4.5259225196850394
20
-5.2277176377952754
11
4.5221875590551184
21
-5.2411698031496066
0
LINE
8
BLACK
6
CONTINUOUS
10
4.5221875590551184
20
-5.2411698031496066
11
4.5170200393700783
21
-5.2541392519685042
0
LINE
8
BLACK
6
CONTINUOUS
10
4.5170200393700783
20
-5.2541392519685042
11
4.5104805905511807
21
-5.2664739763779522
0
LINE
8
BLACK
6
CONTINUOUS
10
4.5104805905511807
20
-5.2664739763779522
11
4.5026458661417319
21
-5.2780293700787402
0
LINE
8
BLACK
6
CONTINUOUS
10
4.5026458661417319
20
-5.2780293700787402
11
4.4936076771653539
21
-5.2886699212598423
0
LINE
8
BLACK
6
CONTINUOUS
10
4.4936076771653539
20
-5.2886699212598423
11
4.4834720472440948
21
-5.2982709055118109
0
LINE
8
BLACK
6
CONTINUOUS
10
4.4834720472440948
20
-5.2982709055118109
11
4.4723577952755909
21
-5.3067197244094491
0
LINE
8
BLACK
6
CONTINUOUS
10
4.4723577952755909
20
-5.3067197244094491
11
4.4603951968503939
21
-5.3139174015748027
0
LINE
8
BLACK
6
CONTINUOUS
10
4.4603951968503939
20
-5.3139174015748027
11
4.4477244881889764
21
-5.3197794881889759
0
LINE
8
BLACK
6
CONTINUOUS
10
4.4477244881889764
20
-5.3197794881889759
11
4.4344942913385825
21
-5.3242372440944878
0
LINE
8
BLACK
6
CONTINUOUS
10
4.4344942913385825
20
-5.3242372440944878
11
4.4208596850393702
21
-5.3272384645669293
0
LINE
8
BLACK
6
CONTINUOUS
10
4.4208596850393702
20
-5.3272384645669293
11
4.4069805118110237
21
-5.3287479133858264
0
LINE
8
BLACK
6
CONTINUOUS
10
4.4069805118110237
20
-5.3287479133858264
11
4.3930194881889761
21
-5.3287479133858264
0
LINE
8
BLACK
6
CONTINUOUS
10
4.3930194881889761
20
-5.3287479133858264
11
4.3791403149606296
21
-5.3272384645669293
0
LINE
8
BLACK
6
CONTINUOUS
10
4.3791403149606296
20
-5.3272384645669293
11
4.3655057086614173
21
-5.3242372440944878
0
LINE
8
BLACK
6
CONTINUOUS
10
4.3655057086614173
20
-5.3242372440944878
11
4.3522755118110235
21
-5.3197794881889759
0
LINE
8
BLACK
6
CONTINUOUS
10
4.3522755118110235
20
-5.3197794881889759
11
4.3396048031496059
21
-5.3139174015748027
0
LINE
8
BLACK
6
CONTINUOUS
10
4.3396048031496059
20
-5.3139174015748027
11
4.327642204724409
21
-5.3067197244094491
0
LINE
8
BLACK
6
CONTINUOUS
10
4.327642204724409
20
-5.3067197244094491
11
4.3165279527559051
21
-5.2982709055118109
0
LINE
8
BLACK
6
CONTINUOUS
10
4.3165279527559051
20
-5.2982709055118109
11
4.3063923228346459
21
-5.2886699212598423
0
LINE
8
BLACK
6
CONTINUOUS
10
4.3063923228346459
20
-5.2886699212598423
11
4.2973541338582679
21
-5.2780293700787402
0
LINE
8
BLACK
6
CONTINUOUS
10
4.2973541338582679
20
-5.2780293700787402
11
4.2895194094488192
21
-5.2664739763779522
0
LINE
8
BLACK
6
CONTINUOUS
10
4.2895194094488192
20
-5.2664739763779522
11
4.2829799606299215
21
-5.2541392519685042
0
LINE
8
BLACK
6
CONTINUOUS
10
4.2829799606299215
20
-5.2541392519685042
11
4.2778124409448814
21
-5.2411698031496066
0
LINE
8
BLACK
6
CONTINUOUS
10
4.2778124409448814
20
-5.2411698031496066
11
4.2740774803149604
21
-5.2277176377952754
0
LINE
8
BLACK
6
CONTINUOUS
10
4.2740774803149604
20
-5.2277176377952754
11
4.2718188188976374
21
-5.2139405511811026
0
LINE
8
BLACK
6
CONTINUOUS
10
4.2718188188976374
20
-5.2139405511811026
11
4.2710629921259837
21
-5.2000000000000002
0
LINE
8
BLACK
6
CONTINUOUS
10
4.2710629921259837
20
-5.2000000000000002
11
4.2718188188976374
21
-5.1860594488188978
0
LINE
8
BLACK
6
CONTINUOUS
10
4.2718188188976374
20
-5.1860594488188978
11
4.2740774803149604
21
-5.172282362204724
0
LINE
8
BLACK
6
CONTINUOUS
10
4.2740774803149604
20
-5.172282362204724
11
4.2778124409448814
21
-5.1588301968503938
0
LINE
8
BLACK
6
CONTINUOUS
10
4.2778124409448814
20
-5.1588301968503938
11
4.2829799606299215
21
-5.1458607480314962
0
LINE
8
BLACK
6
CONTINUOUS
10
4.2829799606299215
20
-5.1458607480314962
11
4.2895194094488192
21
-5.1335260236220472
0
LINE
8
BLACK
6
CONTINUOUS
10
4.2895194094488192
20
-5.1335260236220472
11
4.2973541338582679
21
-5.1219706299212593
0
LINE
8
BLACK
6
CONTINUOUS
10
4.2973541338582679
20
-5.1219706299212593
11
4.3063923228346459
21
-5.1113300787401572
0
LINE
8
BLACK
6
CONTINUOUS
10
4.3063923228346459
20
-5.1113300787401572
11
4.3165279527559051
21
-5.1017290944881886
0
LINE
8
BLACK
6
CONTINUOUS
10
4.3165279527559051
20
-5.1017290944881886
11
4.327642204724409
21
-5.0932802755905513
0
LINE
8
BLACK
6
CONTINUOUS
10
4.327642204724409
20
-5.0932802755905513
11
4.3396048031496059
21
-5.0860825984251967
0
LINE
8
BLACK
6
CONTINUOUS
10
4.3396048031496059
20
-5.0860825984251967
11
4.3522755118110235
21
-5.0802205118110235
0
LINE
8
BLACK
6
CONTINUOUS
10
4.3522755118110235
20
-5.0802205118110235
11
4.3655057086614173
21
-5.0757627559055116
0
LINE
8
BLACK
6
CONTINUOUS
10
4.3655057086614173
20
-5.0757627559055116
11
4.3791403149606296
21
-5.0727615354330711
0
LINE
8
BLACK
6
CONTINUOUS
10
4.3791403149606296
20
-5.0727615354330711
11
4.3930194881889761
21
-5.071252086614173
0
LINE
8
BLACK
6
CONTINUOUS
10
4.3930194881889761
20
-5.071252086614173
11
4.4069805118110237
21
-5.071252086614173
0
LINE
8
BLACK
6
CONTINUOUS
10
4.4069805118110237
20
-5.071252086614173
11
4.4208596850393702
21
-5.0727615354330711
0
LINE
8
BLACK
6
CONTINUOUS
10
4.2736310236220474
20
-5.2142383464566926
11
4.2760198031496062
21
-5.2282976771653544
0
LINE
8
BLACK
6
CONTINUOUS
10
4.2760198031496062
20
-5.2282976771653544
11
4.2799676771653541
21
-5.2420011023622042
0
LINE
8
BLACK
6
CONTINUOUS
10
4.2799676771653541
20
-5.2420011023622042
11
4.2854250787401575
21
-5.2551763779527558
0
LINE
8
BLACK
6
CONTINUOUS
10
4.2854250787401575
20
-5.2551763779527558
11
4.2923232677165357
21
-5.2676577559055113
0
LINE
8
BLACK
6
CONTINUOUS
10
4.2923232677165357
20
-5.2676577559055113
11
4.3005755905511807
21
-5.2792883070866141
0
LINE
8
BLACK
6
CONTINUOUS
10
4.3005755905511807
20
-5.2792883070866141
11
4.3100782283464563
21
-5.2899217716535434
0
LINE
8
BLACK
6
CONTINUOUS
10
4.3100782283464563
20
-5.2899217716535434
11
4.3207116929133855
21
-5.299424409448819
0
LINE
8
BLACK
6
CONTINUOUS
10
4.3207116929133855
20
-5.299424409448819
11
4.3323422440944883
21
-5.3076767322834648
0
LINE
8
BLACK
6
CONTINUOUS
10
4.3323422440944883
20
-5.3076767322834648
11
4.3448236220472438
21
-5.3145749212598421
0
LINE
8
BLACK
6
CONTINUOUS
10
4.3448236220472438
20
-5.3145749212598421
11
4.3579988976377955
21
-5.3200323228346456
0
LINE
8
BLACK
6
CONTINUOUS
10
4.3579988976377955
20
-5.3200323228346456
11
4.3717023228346452
21
-5.3239801968503935
0
LINE
8
BLACK
6
CONTINUOUS
10
4.3717023228346452
20
-5.3239801968503935
11
4.385761653543307
21
-5.3263689763779523
0
LINE
8
BLACK
6
CONTINUOUS
10
4.385761653543307
20
-5.3263689763779523
11
4.3999999999999995
21
-5.3271685826771655
0
LINE
8
BLACK
6
CONTINUOUS
10
4.3999999999999995
20
-5.3271685826771655
11
4.4142383464566928
21
-5.3263689763779523
0
LINE
8
BLACK
6
CONTINUOUS
10
4.4142383464566928
20
-5.3263689763779523
11
4.4282976771653546
21
-5.3239801968503935
0
LINE
8
BLACK
6
CONTINUOUS
10
4.4282976771653546
20
-5.3239801968503935
11
4.4420011023622044
21
-5.3200323228346456
0
LINE
8
BLACK
6
CONTINUOUS
10
4.4420011023622044
20
-5.3200323228346456
11
4.455176377952756
21
-5.3145749212598421
0
LINE
8
BLACK
6
CONTINUOUS
10
4.455176377952756
20
-5.3145749212598421
11
4.4676577559055115
21
-5.3076767322834648
0
LINE
8
BLACK
6
CONTINUOUS
10
4.4676577559055115
20
-5.3076767322834648
11
4.4792883070866143
21
-5.299424409448819
0
LINE
8
BLACK
6
CONTINUOUS
10
4.4792883070866143
20
-5.299424409448819
11
4.4899217716535436
21
-5.2899217716535434
0
LINE
8
BLACK
6
CONTINUOUS
10
4.4899217716535436
20
-5.2899217716535434
11
4.4994244094488192
21
-5.2792883070866141
0
LINE
8
BLACK
6
CONTINUOUS
10
4.4994244094488192
20
-5.2792883070866141
11
4.5076767322834641
21
-5.2676577559055113
0
LINE
8
BLACK
6
CONTINUOUS
10
4.5076767322834641
20
-5.2676577559055113
11
4.5145749212598423
21
-5.2551763779527558
0
LINE
8
BLACK
6
CONTINUOUS
10
4.5145749212598423
20
-5.2551763779527558
11
4.5200323228346457
21
-5.2420011023622042
0
LINE
8
BLACK
6
CONTINUOUS
10
4.5200323228346457
20
-5.2420011023622042
11
4.5239801968503937
21
-5.2282976771653544
0
LINE
8
BLACK
6
CONTINUOUS
10
4.5239801968503937
20
-5.2282976771653544
11
4.5263689763779524
21
-5.2142383464566926
0
LINE
8
BLACK
6
CONTINUOUS
10
4.5263689763779524
20
-5.2142383464566926
11
4.5271685826771648
21
-5.2000000000000002
0
LINE
8
BLACK
6
CONTINUOUS
10
4.5271685826771648
20
-5.2000000000000002
11
4.5263689763779524
21
-5.1857616535433069
0
LINE
8
BLACK
6
CONTINUOUS
10
4.5263689763779524
20
-5.1857616535433069
11
4.5239801968503937
21
-5.1717023228346459
0
LINE
8
BLACK
6
CONTINUOUS
10
4.5239801968503937
20
-5.1717023228346459
11
4.5200323228346457
21
-5.1579988976377953
0
LINE
8
BLACK
6
CONTINUOUS
10
4.5200323228346457
20
-5.1579988976377953
11
4.5145749212598423
21
-5.1448236220472436
0
LINE
8
BLACK
6
CONTINUOUS
10
4.5145749212598423
20
-5.1448236220472436
11
4.5076767322834641
21
-5.1323422440944881
0
LINE
8
BLACK
6
CONTINUOUS
10
4.5076767322834641
20
-5.1323422440944881
11
4.4994244094488192
21
-5.1207116929133853
0
LINE
8
BLACK
6
CONTINUOUS
10
4.4994244094488192
20
-5.1207116929133853
11
4.4899217716535436
21
-5.110078228346457
0
LINE
8
BLACK
6
CONTINUOUS
10
4.4899217716535436
20
-5.110078228346457
11
4.4792883070866143
21
-5.1005755905511814
0
LINE
8
BLACK
6
CONTINUOUS
10
4.4792883070866143
20
-5.1005755905511814
11
4.4676577559055115
21
-5.0923232677165355
0
LINE
8
BLACK
6
CONTINUOUS
10
4.4676577559055115
20
-5.0923232677165355
11
4.455176377952756
21
-5.0854250787401574
0
LINE
8
BLACK
6
CONTINUOUS
10
4.455176377952756
20
-5.0854250787401574
11
4.4420011023622044
21
-5.0799676771653539
0
LINE
8
BLACK
6
CONTINUOUS
10
4.4420011023622044
20
-5.0799676771653539
11
4.4282976771653546
21
-5.076019803149606
0
LINE
8
BLACK
6
CONTINUOUS
10
4.4282976771653546
20
-5.076019803149606
11
4.4142383464566928
21
-5.0736310236220472
0
LINE
8
BLACK
6
CONTINUOUS
10
4.4142383464566928
20
-5.0736310236220472
11
4.3999999999999995
21
-5.0728314173228348
0
LINE
8
BLACK
6
CONTINUOUS
10
4.3999999999999995
20
-5.0728314173228348
11
4.385761653543307
21
-5.0736310236220472
0
LINE
8
BLACK
6
CONTINUOUS
10
4.385761653543307
20
-5.0736310236220472
11
4.3717023228346452
21
-5.076019803149606
0
LINE
8
BLACK
6
CONTINUOUS
10
4.3717023228346452
20
-5.076019803149606
11
4.3579988976377955
21
-5.0799676771653539
0
LINE
8
BLACK
6
CONTINUOUS
10
4.3579988976377955
20
-5.0799676771653539
11
4.3448236220472438
21
-5.0854250787401574
0
LINE
8
BLACK
6
CONTINUOUS
10
4.3448236220472438
20
-5.0854250787401574
11
4.3323422440944883
21
-5.0923232677165355
0
LINE
8
BLACK
6
CONTINUOUS
10
4.3323422440944883
20
-5.0923232677165355
11
4.3207116929133855
21
-5.1005755905511814
0
LINE
8
BLACK
6
CONTINUOUS
10
4.3207116929133855
20
-5.1005755905511814
11
4.3100782283464563
21
-5.110078228346457
0
LINE
8
BLACK
6
CONTINUOUS
10
4.3100782283464563
20
-5.110078228346457
11
4.3005755905511807
21
-5.1207116929133853
0
LINE
8
BLACK
6
CONTINUOUS
10
4.3005755905511807
20
-5.1207116929133853
11
4.2923232677165357
21
-5.1323422440944881
0
LINE
8
BLACK
6
CONTINUOUS
10
4.2923232677165357
20
-5.1323422440944881
11
4.2854250787401575
21
-5.1448236220472436
0
LINE
8
BLACK
6
CONTINUOUS
10
4.2854250787401575
20
-5.1448236220472436
11
4.2799676771653541
21
-5.1579988976377953
0
LINE
8
BLACK
6
CONTINUOUS
10
4.2799676771653541
20
-5.1579988976377953
11
4.2760198031496062
21
-5.1717023228346459
0
LINE
8
BLACK
6
CONTINUOUS
10
4.2760198031496062
20
-5.1717023228346459
11
4.2736310236220474
21
-5.1857616535433069
0
LINE
8
BLACK
6
CONTINUOUS
10
4.2736310236220474
20
-5.1857616535433069
11
4.2728314173228341
21
-5.2000000000000002
0
LINE
8
BLACK
6
CONTINUOUS
10
4.2728314173228341
20
-5.2000000000000002
11
4.2736310236220474
21
-5.2142383464566926
0
LINE
8
BLACK
6
CONTINUOUS
10
6.0208596850393699
20
-5.0727615354330711
11
6.0344942913385822
21
-5.0757627559055116
0
LINE
8
BLACK
6
CONTINUOUS
10
6.0344942913385822
20
-5.0757627559055116
11
6.047724488188976
21
-5.0802205118110235
0
LINE
8
BLACK
6
CONTINUOUS
10
6.047724488188976
20
-5.0802205118110235
11
6.0603951968503935
21
-5.0860825984251967
0
LINE
8
BLACK
6
CONTINUOUS
10
6.0603951968503935
20
-5.0860825984251967
11
6.0723577952755905
21
-5.0932802755905513
0
LINE
8
BLACK
6
CONTINUOUS
10
6.0723577952755905
20
-5.0932802755905513
11
6.0834720472440944
21
-5.1017290944881886
0
LINE
8
BLACK
6
CONTINUOUS
10
6.0834720472440944
20
-5.1017290944881886
11
6.0936076771653545
21
-5.1113300787401572
0
LINE
8
BLACK
6
CONTINUOUS
10
6.0936076771653545
20
-5.1113300787401572
11
6.1026458661417324
21
-5.1219706299212593
0
LINE
8
BLACK
6
CONTINUOUS
10
6.1026458661417324
20
-5.1219706299212593
11
6.1104805905511812
21
-5.1335260236220472
0
LINE
8
BLACK
6
CONTINUOUS
10
6.1104805905511812
20
-5.1335260236220472
11
6.1170200393700789
21
-5.1458607480314962
0
LINE
8
BLACK
6
CONTINUOUS
10
6.1170200393700789
20
-5.1458607480314962
11
6.122187559055118
21
-5.1588301968503938
0
LINE
8
BLACK
6
CONTINUOUS
10
6.122187559055118
20
-5.1588301968503938
11
6.1259225196850391
21
-5.172282362204724
0
LINE
8
BLACK
6
CONTINUOUS
10
6.1259225196850391
20
-5.172282362204724
11
6.1281811811023621
21
-5.1860594488188978
0
LINE
8
BLACK
6
CONTINUOUS
10
6.1281811811023621
20
-5.1860594488188978
11
6.1289370078740157
21
-5.2000000000000002
0
LINE
8
BLACK
6
CONTINUOUS
10
6.1289370078740157
20
-5.2000000000000002
11
6.1281811811023621
21
-5.2139405511811026
0
LINE
8
BLACK
6
CONTINUOUS
10
6.1281811811023621
20
-5.2139405511811026
11
6.1259225196850391
21
-5.2277176377952754
0
LINE
8
BLACK
6
CONTINUOUS
10
6.1259225196850391
20
-5.2277176377952754
11
6.122187559055118
21
-5.2411698031496066
0
LINE
8
BLACK
6
CONTINUOUS
10
6.122187559055118
20
-5.2411698031496066
11
6.1170200393700789
21
-5.2541392519685042
0
LINE
8
BLACK
6
CONTINUOUS
10
6.1170200393700789
20
-5.2541392519685042
11
6.1104805905511812
21
-5.2664739763779522
0
LINE
8
BLACK
6
CONTINUOUS
10
6.1104805905511812
20
-5.2664739763779522
11
6.1026458661417324
21
-5.2780293700787402
0
LINE
8
BLACK
6
CONTINUOUS
10
6.1026458661417324
20
-5.2780293700787402
11
6.0936076771653545
21
-5.2886699212598423
0
LINE
8
BLACK
6
CONTINUOUS
10
6.0936076771653545
20
-5.2886699212598423
11
6.0834720472440944
21
-5.2982709055118109
0
LINE
8
BLACK
6
CONTINUOUS
10
6.0834720472440944
20
-5.2982709055118109
11
6.0723577952755905
21
-5.3067197244094491
0
LINE
8
BLACK
6
CONTINUOUS
10
6.0723577952755905
20
-5.3067197244094491
11
6.0603951968503935
21
-5.3139174015748027
0
LINE
8
BLACK
6
CONTINUOUS
10
6.0603951968503935
20
-5.3139174015748027
11
6.047724488188976
21
-5.3197794881889759
0
LINE
8
BLACK
6
CONTINUOUS
10
6.047724488188976
20
-5.3197794881889759
11
6.0344942913385822
21
-5.3242372440944878
0
LINE
8
BLACK
6
CONTINUOUS
10
6.0344942913385822
20
-5.3242372440944878
11
6.0208596850393699
21
-5.3272384645669293
0
LINE
8
BLACK
6
CONTINUOUS
10
6.0208596850393699
20
-5.3272384645669293
11
6.0069805118110233
21
-5.3287479133858264
0
LINE
8
BLACK
6
CONTINUOUS
10
6.0069805118110233
20
-5.3287479133858264
11
5.9930194881889767
21
-5.3287479133858264
0
LINE
8
BLACK
6
CONTINUOUS
10
5.9930194881889767
20
-5.3287479133858264
11
5.9791403149606301
21
-5.3272384645669293
0
LINE
8
BLACK
6
CONTINUOUS
10
5.9791403149606301
20
-5.3272384645669293
11
5.9655057086614169
21
-5.3242372440944878
0
LINE
8
BLACK
6
CONTINUOUS
10
5.9655057086614169
20
-5.3242372440944878
11
5.9522755118110231
21
-5.3197794881889759
0
LINE
8
BLACK
6
CONTINUOUS
10
5.9522755118110231
20
-5.3197794881889759
11
5.9396048031496065
21
-5.3139174015748027
0
LINE
8
BLACK
6
CONTINUOUS
10
5.9396048031496065
20
-5.3139174015748027
11
5.9276422047244095
21
-5.3067197244094491
0
LINE
8
BLACK
6
CONTINUOUS
10
5.9276422047244095
20
-5.3067197244094491
11
5.9165279527559056
21
-5.2982709055118109
0
LINE
8
BLACK
6
CONTINUOUS
10
5.9165279527559056
20
-5.2982709055118109
11
5.9063923228346455
21
-5.2886699212598423
0
LINE
8
BLACK
6
CONTINUOUS
10
5.9063923228346455
20
-5.2886699212598423
11
5.8973541338582676
21
-5.2780293700787402
0
LINE
8
BLACK
6
CONTINUOUS
10
5.8973541338582676
20
-5.2780293700787402
11
5.8895194094488188
21
-5.2664739763779522
0
LINE
8
BLACK
6
CONTINUOUS
10
5.8895194094488188
20
-5.2664739763779522
11
5.8829799606299211
21
-5.2541392519685042
0
LINE
8
BLACK
6
CONTINUOUS
10
5.8829799606299211
20
-5.2541392519685042
11
5.877812440944882
21
-5.2411698031496066
0
LINE
8
BLACK
6
CONTINUOUS
10
5.877812440944882
20
-5.2411698031496066
11
5.8740774803149609
21
-5.2277176377952754
0
LINE
8
BLACK
6
CONTINUOUS
10
5.8740774803149609
20
-5.2277176377952754
11
5.8718188188976379
21
-5.2139405511811026
0
LINE
8
BLACK
6
CONTINUOUS
10
5.8718188188976379
20
-5.2139405511811026
11
5.8710629921259843
21
-5.2000000000000002
0
LINE
8
BLACK
6
CONTINUOUS
10
5.8710629921259843
20
-5.2000000000000002
11
5.8718188188976379
21
-5.1860594488188978
0
LINE
8
BLACK
6
CONTINUOUS
10
5.8718188188976379
20
-5.1860594488188978
11
5.8740774803149609
21
-5.172282362204724
0
LINE
8
BLACK
6
CONTINUOUS
10
5.8740774803149609
20
-5.172282362204724
11
5.877812440944882
21
-5.1588301968503938
0
LINE
8
BLACK
6
CONTINUOUS
10
5.877812440944882
20
-5.1588301968503938
11
5.8829799606299211
21
-5.1458607480314962
0
LINE
8
BLACK
6
CONTINUOUS
10
5.8829799606299211
20
-5.1458607480314962
11
5.8895194094488188
21
-5.1335260236220472
0
LINE
8
BLACK
6
CONTINUOUS
10
5.8895194094488188
20
-5.1335260236220472
11
5.8973541338582676
21
-5.1219706299212593
0
LINE
8
BLACK
6
CONTINUOUS
10
5.8973541338582676
20
-5.1219706299212593
11
5.9063923228346455
21
-5.1113300787401572
0
LINE
8
BLACK
6
CONTINUOUS
10
5.9063923228346455
20
-5.1113300787401572
11
5.9165279527559056
21
-5.1017290944881886
0
LINE
8
BLACK
6
CONTINUOUS
10
5.9165279527559056
20
-5.1017290944881886
11
5.9276422047244095
21
-5.0932802755905513
0
LINE
8
BLACK
6
CONTINUOUS
10
5.9276422047244095
20
-5.0932802755905513
11
5.9396048031496065
21
-5.0860825984251967
0
LINE
8
BLACK
6
CONTINUOUS
10
5.9396048031496065
20
-5.0860825984251967
11
5.9522755118110231
21
-5.0802205118110235
0
LINE
8
BLACK
6
CONTINUOUS
10
5.9522755118110231
20
-5.0802205118110235
11
5.9655057086614169
21
-5.0757627559055116
0
LINE
8
BLACK
6
CONTINUOUS
10
5.9655057086614169
20
-5.0757627559055116
11
5.9791403149606301
21
-5.0727615354330711
0
LINE
8
BLACK
6
CONTINUOUS
10
5.9791403149606301
20
-5.0727615354330711
11
5.9930194881889767
21
-5.071252086614173
0
LINE
8
BLACK
6
CONTINUOUS
10
5.9930194881889767
20
-5.071252086614173
11
6.0069805118110233
21
-5.071252086614173
0
LINE
8
BLACK
6
CONTINUOUS
10
6.0069805118110233
20
-5.071252086614173
11
6.0208596850393699
21
-5.0727615354330711
0
LINE
8
BLACK
6
CONTINUOUS
10
5.873631023622047
20
-5.2142383464566926
11
5.8760198031496058
21
-5.2282976771653544
0
LINE
8
BLACK
6
CONTINUOUS
10
5.8760198031496058
20
-5.2282976771653544
11
5.8799676771653546
21
-5.2420011023622042
0
LINE
8
BLACK
6
CONTINUOUS
10
5.8799676771653546
20
-5.2420011023622042
11
5.8854250787401572
21
-5.2551763779527558
0
LINE
8
BLACK
6
CONTINUOUS
10
5.8854250787401572
20
-5.2551763779527558
11
5.8923232677165354
21
-5.2676577559055113
0
LINE
8
BLACK
6
CONTINUOUS
10
5.8923232677165354
20
-5.2676577559055113
11
5.9005755905511812
21
-5.2792883070866141
0
LINE
8
BLACK
6
CONTINUOUS
10
5.9005755905511812
20
-5.2792883070866141
11
5.9100782283464568
21
-5.2899217716535434
0
LINE
8
BLACK
6
CONTINUOUS
10
5.9100782283464568
20
-5.2899217716535434
11
5.9207116929133861
21
-5.299424409448819
0
LINE
8
BLACK
6
CONTINUOUS
10
5.9207116929133861
20
-5.299424409448819
11
5.932342244094488
21
-5.3076767322834648
0
LINE
8
BLACK
6
CONTINUOUS
10
5.932342244094488
20
-5.3076767322834648
11
5.9448236220472443
21
-5.3145749212598421
0
LINE
8
BLACK
6
CONTINUOUS
10
5.9448236220472443
20
-5.3145749212598421
11
5.9579988976377951
21
-5.3200323228346456
0
LINE
8
BLACK
6
CONTINUOUS
10
5.9579988976377951
20
-5.3200323228346456
11
5.9717023228346457
21
-5.3239801968503935
0
LINE
8
BLACK
6
CONTINUOUS
10
5.9717023228346457
20
-5.3239801968503935
11
5.9857616535433067
21
-5.3263689763779523
0
LINE
8
BLACK
6
CONTINUOUS
10
5.9857616535433067
20
-5.3263689763779523
11
6.
21
-5.3271685826771655
0
LINE
8
BLACK
6
CONTINUOUS
10
6.
20
-5.3271685826771655
11
6.0142383464566924
21
-5.3263689763779523
0
LINE
8
BLACK
6
CONTINUOUS
10
6.0142383464566924
20
-5.3263689763779523
11
6.0282976771653543
21
-5.3239801968503935
0
LINE
8
BLACK
6
CONTINUOUS
10
6.0282976771653543
20
-5.3239801968503935
11
6.0420011023622049
21
-5.3200323228346456
0
LINE
8
BLACK
6
CONTINUOUS
10
6.0420011023622049
20
-5.3200323228346456
11
6.0551763779527557
21
-5.3145749212598421
0
LINE
8
BLACK
6
CONTINUOUS
10
6.0551763779527557
20
-5.3145749212598421
11
6.067657755905512
21
-5.3076767322834648
0
LINE
8
BLACK
6
CONTINUOUS
10
6.067657755905512
20
-5.3076767322834648
11
6.0792883070866139
21
-5.299424409448819
0
LINE
8
BLACK
6
CONTINUOUS
10
6.0792883070866139
20
-5.299424409448819
11
6.0899217716535432
21
-5.2899217716535434
0
LINE
8
BLACK
6
CONTINUOUS
10
6.0899217716535432
20
-5.2899217716535434
11
6.0994244094488188
21
-5.2792883070866141
0
LINE
8
BLACK
6
CONTINUOUS
10
6.0994244094488188
20
-5.2792883070866141
11
6.1076767322834646
21
-5.2676577559055113
0
LINE
8
BLACK
6
CONTINUOUS
10
6.1076767322834646
20
-5.2676577559055113
11
6.1145749212598428
21
-5.2551763779527558
0
LINE
8
BLACK
6
CONTINUOUS
10
6.1145749212598428
20
-5.2551763779527558
11
6.1200323228346454
21
-5.2420011023622042
0
LINE
8
BLACK
6
CONTINUOUS
10
6.1200323228346454
20
-5.2420011023622042
11
6.1239801968503933
21
-5.2282976771653544
0
LINE
8
BLACK
6
CONTINUOUS
10
6.1239801968503933
20
-5.2282976771653544
11
6.126368976377953
21
-5.2142383464566926
0
LINE
8
BLACK
6
CONTINUOUS
10
6.126368976377953
20
-5.2142383464566926
11
6.1271685826771654
21
-5.2000000000000002
0
LINE
8
BLACK
6
CONTINUOUS
10
6.1271685826771654
20
-5.2000000000000002
11
6.126368976377953
21
-5.1857616535433069
0
LINE
8
BLACK
6
CONTINUOUS
10
6.126368976377953
20
-5.1857616535433069
11
6.1239801968503933
21
-5.1717023228346459
0
LINE
8
BLACK
6
CONTINUOUS
10
6.1239801968503933
20
-5.1717023228346459
11
6.1200323228346454
21
-5.1579988976377953
0
LINE
8
BLACK
6
CONTINUOUS
10
6.1200323228346454
20
-5.1579988976377953
11
6.1145749212598428
21
-5.1448236220472436
0
LINE
8
BLACK
6
CONTINUOUS
10
6.1145749212598428
20
-5.1448236220472436
11
6.1076767322834646
21
-5.1323422440944881
0
LINE
8
BLACK
6
CONTINUOUS
10
6.1076767322834646
20
-5.1323422440944881
11
6.0994244094488188
21
-5.1207116929133853
0
LINE
8
BLACK
6
CONTINUOUS
10
6.0994244094488188
20
-5.1207116929133853
11
6.0899217716535432
21
-5.110078228346457
0
LINE
8
BLACK
6
CONTINUOUS
10
6.0899217716535432
20
-5.110078228346457
11
6.0792883070866139
21
-5.1005755905511814
0
LINE
8
BLACK
6
CONTINUOUS
10
6.0792883070866139
20
-5.1005755905511814
11
6.067657755905512
21
-5.0923232677165355
0
LINE
8
BLACK
6
CONTINUOUS
10
6.067657755905512
20
-5.0923232677165355
11
6.0551763779527557
21
-5.0854250787401574
0
LINE
8
BLACK
6
CONTINUOUS
10
6.0551763779527557
20
-5.0854250787401574
11
6.0420011023622049
21
-5.0799676771653539
0
LINE
8
BLACK
6
CONTINUOUS
10
6.0420011023622049
20
-5.0799676771653539
11
6.0282976771653543
21
-5.076019803149606
0
LINE
8
BLACK
6
CONTINUOUS
10
6.0282976771653543
20
-5.076019803149606
11
6.0142383464566924
21
-5.0736310236220472
0
LINE
8
BLACK
6
CONTINUOUS
10
6.0142383464566924
20
-5.0736310236220472
11
6.
21
-5.0728314173228348
0
LINE
8
BLACK
6
CONTINUOUS
10
6.
20
-5.0728314173228348
11
5.9857616535433067
21
-5.0736310236220472
0
LINE
8
BLACK
6
CONTINUOUS
10
5.9857616535433067
20
-5.0736310236220472
11
5.9717023228346457
21
-5.076019803149606
0
LINE
8
BLACK
6
CONTINUOUS
10
5.9717023228346457
20
-5.076019803149606
11
5.9579988976377951
21
-5.0799676771653539
0
LINE
8
BLACK
6
CONTINUOUS
10
5.9579988976377951
20
-5.0799676771653539
11
5.9448236220472443
21
-5.0854250787401574
0
LINE
8
BLACK
6
CONTINUOUS
10
5.9448236220472443
20
-5.0854250787401574
11
5.932342244094488
21
-5.0923232677165355
0
LINE
8
BLACK
6
CONTINUOUS
10
5.932342244094488
20
-5.0923232677165355
11
5.9207116929133861
21
-5.1005755905511814
0
LINE
8
BLACK
6
CONTINUOUS
10
5.9207116929133861
20
-5.1005755905511814
11
5.9100782283464568
21
-5.110078228346457
0
LINE
8
BLACK
6
CONTINUOUS
10
5.9100782283464568
20
-5.110078228346457
11
5.9005755905511812
21
-5.1207116929133853
0
LINE
8
BLACK
6
CONTINUOUS
10
5.9005755905511812
20
-5.1207116929133853
11
5.8923232677165354
21
-5.1323422440944881
0
LINE
8
BLACK
6
CONTINUOUS
10
5.8923232677165354
20
-5.1323422440944881
11
5.8854250787401572
21
-5.1448236220472436
0
LINE
8
BLACK
6
CONTINUOUS
10
5.8854250787401572
20
-5.1448236220472436
11
5.8799676771653546
21
-5.1579988976377953
0
LINE
8
BLACK
6
CONTINUOUS
10
5.8799676771653546
20
-5.1579988976377953
11
5.8760198031496058
21
-5.1717023228346459
0
LINE
8
BLACK
6
CONTINUOUS
10
5.8760198031496058
20
-5.1717023228346459
11
5.873631023622047
21
-5.1857616535433069
0
LINE
8
BLACK
6
CONTINUOUS
10
5.873631023622047
20
-5.1857616535433069
11
5.8728314173228346
21
-5.2000000000000002
0
LINE
8
BLACK
6
CONTINUOUS
10
5.8728314173228346
20
-5.2000000000000002
11
5.873631023622047
21
-5.2142383464566926
  0
ENDSEC
  0
EOF
