  0
SECTION
  2
HEADER
  9
$ANGBASE
  50
0.0
  9
$ANGDIR
  70
1
  9
$MEASUREMENT
  70
0
  0
ENDSEC
  0
SECTION
  2
TABLES
  0
TABLE
  2
LTYPE
  70
4
  0
LTYPE
  5
40F
  2
CONTINUOUS
  70
0
  3
Solid line
  72
65
  73
0
  40
0.0
  0
LTYPE
  5
410
  2
DASHDOT
 70
0
  3
Dash Dot ____ _ ____ _
 72
65
 73
4
 40
2.0
 49
1.25
 49
-0.25
 49
0.25
 49
-0.25
  0
LTYPE
  5
411
  2
DASHED
 70
0
  3
Dashed __ __ __ __ __
 72
65
 73
2
 40
0.75
 49
0.5
 49
-0.25
  0
LTYPE
  5
43B
  2
DOTTED
 70
0
  3
Dotted .  .  .  .
 72
65
 73
2
 40
0.2
 49
0.0
 49
-0.2
  0
ENDTAB
  0
TABLE
  2
STYLE
  70
4
  0
STYLE
  2
KICAD
  70
0
  40
0
  41
1
  42
1
  50
0
  71
0
  3
isocp.shx
  0
STYLE
  2
KICADB
  70
0
  40
0
  41
1
  42
1
  50
0
  71
0
  3
isocp.shx
  0
STYLE
  2
KICADI
  70
0
  40
0
  41
1
  42
1
  50
15
  71
0
  3
isocp.shx
  0
STYLE
  2
KICADBI
  70
0
  40
0
  41
1
  42
1
  50
15
  71
0
  3
isocp.shx
  0
ENDTAB
  0
TABLE
  2
LAYER
  70
1
  0
LAYER
  2
BLACK
  70
0
  62
7
  6
CONTINUOUS
  0
ENDTAB
  0
ENDSEC
  0
SECTION
  2
ENTITIES
0
LINE
8
BLACK
6
CONTINUOUS
10
4.4135547637795272
20
-6.6796982283464565
11
4.42693905511811
21
-6.6819723228346453
0
LINE
8
BLACK
6
CONTINUOUS
10
4.42693905511811
20
-6.6819723228346453
11
4.4399845669291338
21
-6.6857306692913383
0
LINE
8
BLACK
6
CONTINUOUS
10
4.4399845669291338
20
-6.6857306692913383
11
4.4525272440944885
21
-6.6909260236220467
0
LINE
8
BLACK
6
CONTINUOUS
10
4.4525272440944885
20
-6.6909260236220467
11
4.4644094094488187
21
-6.6974930314960632
0
LINE
8
BLACK
6
CONTINUOUS
10
4.4644094094488187
20
-6.6974930314960632
11
4.4754815354330706
21
-6.7053491338582676
0
LINE
8
BLACK
6
CONTINUOUS
10
4.4754815354330706
20
-6.7053491338582676
11
4.485604448818898
21
-6.7143955511811022
0
LINE
8
BLACK
6
CONTINUOUS
10
4.485604448818898
20
-6.7143955511811022
11
4.4946508661417326
21
-6.7245184645669287
0
LINE
8
BLACK
6
CONTINUOUS
10
4.4946508661417326
20
-6.7245184645669287
11
4.5025069685039369
21
-6.7355905905511806
0
LINE
8
BLACK
6
CONTINUOUS
10
4.5025069685039369
20
-6.7355905905511806
11
4.5090739763779526
21
-6.7474727559055117
0
LINE
8
BLACK
6
CONTINUOUS
10
4.5090739763779526
20
-6.7474727559055117
11
4.514269330708661
21
-6.7600154330708664
0
LINE
8
BLACK
6
CONTINUOUS
10
4.514269330708661
20
-6.7600154330708664
11
4.518027677165354
21
-6.7730609448818893
0
LINE
8
BLACK
6
CONTINUOUS
10
4.518027677165354
20
-6.7730609448818893
11
4.5203017716535436
21
-6.7864452362204721
0
LINE
8
BLACK
6
CONTINUOUS
10
4.5203017716535436
20
-6.7864452362204721
11
4.5210629921259837
21
-6.7999999999999998
0
LINE
8
BLACK
6
CONTINUOUS
10
4.5210629921259837
20
-6.7999999999999998
11
4.5203017716535436
21
-6.8135547637795275
0
LINE
8
BLACK
6
CONTINUOUS
10
4.5203017716535436
20
-6.8135547637795275
11
4.518027677165354
21
-6.8269390551181104
0
LINE
8
BLACK
6
CONTINUOUS
10
4.518027677165354
20
-6.8269390551181104
11
4.514269330708661
21
-6.8399845669291341
0
LINE
8
BLACK
6
CONTINUOUS
10
4.514269330708661
20
-6.8399845669291341
11
4.5090739763779526
21
-6.852527244094488
0
LINE
8
BLACK
6
CONTINUOUS
10
4.5090739763779526
20
-6.852527244094488
11
4.5025069685039369
21
-6.8644094094488191
0
LINE
8
BLACK
6
CONTINUOUS
10
4.5025069685039369
20
-6.8644094094488191
11
4.4946508661417326
21
-6.8754815354330709
0
LINE
8
BLACK
6
CONTINUOUS
10
4.4946508661417326
20
-6.8754815354330709
11
4.485604448818898
21
-6.8856044488188974
0
LINE
8
BLACK
6
CONTINUOUS
10
4.485604448818898
20
-6.8856044488188974
11
4.4754815354330706
21
-6.8946508661417321
0
LINE
8
BLACK
6
CONTINUOUS
10
4.4754815354330706
20
-6.8946508661417321
11
4.4644094094488187
21
-6.9025069685039364
0
LINE
8
BLACK
6
CONTINUOUS
10
4.4644094094488187
20
-6.9025069685039364
11
4.4525272440944885
21
-6.909073976377953
0
LINE
8
BLACK
6
CONTINUOUS
10
4.4525272440944885
20
-6.909073976377953
11
4.4399845669291338
21
-6.9142693307086613
0
LINE
8
BLACK
6
CONTINUOUS
10
4.4399845669291338
20
-6.9142693307086613
11
4.42693905511811
21
-6.9180276771653544
0
LINE
8
BLACK
6
CONTINUOUS
10
4.42693905511811
20
-6.9180276771653544
11
4.4135547637795272
21
-6.9203017716535431
0
LINE
8
BLACK
6
CONTINUOUS
10
4.4135547637795272
20
-6.9203017716535431
11
4.3999999999999995
21
-6.9210629921259841
0
LINE
8
BLACK
6
CONTINUOUS
10
4.3999999999999995
20
-6.9210629921259841
11
4.3864452362204727
21
-6.9203017716535431
0
LINE
8
BLACK
6
CONTINUOUS
10
4.3864452362204727
20
-6.9203017716535431
11
4.3730609448818898
21
-6.9180276771653544
0
LINE
8
BLACK
6
CONTINUOUS
10
4.3730609448818898
20
-6.9180276771653544
11
4.360015433070866
21
-6.9142693307086613
0
LINE
8
BLACK
6
CONTINUOUS
10
4.360015433070866
20
-6.9142693307086613
11
4.3474727559055113
21
-6.909073976377953
0
LINE
8
BLACK
6
CONTINUOUS
10
4.3474727559055113
20
-6.909073976377953
11
4.3355905905511811
21
-6.9025069685039364
0
LINE
8
BLACK
6
CONTINUOUS
10
4.3355905905511811
20
-6.9025069685039364
11
4.3245184645669292
21
-6.8946508661417321
0
LINE
8
BLACK
6
CONTINUOUS
10
4.3245184645669292
20
-6.8946508661417321
11
4.3143955511811019
21
-6.8856044488188974
0
LINE
8
BLACK
6
CONTINUOUS
10
4.3143955511811019
20
-6.8856044488188974
11
4.3053491338582672
21
-6.8754815354330709
0
LINE
8
BLACK
6
CONTINUOUS
10
4.3053491338582672
20
-6.8754815354330709
11
4.2974930314960629
21
-6.8644094094488191
0
LINE
8
BLACK
6
CONTINUOUS
10
4.2974930314960629
20
-6.8644094094488191
11
4.2909260236220472
21
-6.852527244094488
0
LINE
8
BLACK
6
CONTINUOUS
10
4.2909260236220472
20
-6.852527244094488
11
4.2857306692913388
21
-6.8399845669291341
0
LINE
8
BLACK
6
CONTINUOUS
10
4.2857306692913388
20
-6.8399845669291341
11
4.2819723228346458
21
-6.8269390551181104
0
LINE
8
BLACK
6
CONTINUOUS
10
4.2819723228346458
20
-6.8269390551181104
11
4.2796982283464562
21
-6.8135547637795275
0
LINE
8
BLACK
6
CONTINUOUS
10
4.2796982283464562
20
-6.8135547637795275
11
4.2789370078740152
21
-6.7999999999999998
0
LINE
8
BLACK
6
CONTINUOUS
10
4.2789370078740152
20
-6.7999999999999998
11
4.2796982283464562
21
-6.7864452362204721
0
LINE
8
BLACK
6
CONTINUOUS
10
4.2796982283464562
20
-6.7864452362204721
11
4.2819723228346458
21
-6.7730609448818893
0
LINE
8
BLACK
6
CONTINUOUS
10
4.2819723228346458
20
-6.7730609448818893
11
4.2857306692913388
21
-6.7600154330708664
0
LINE
8
BLACK
6
CONTINUOUS
10
4.2857306692913388
20
-6.7600154330708664
11
4.2909260236220472
21
-6.7474727559055117
0
LINE
8
BLACK
6
CONTINUOUS
10
4.2909260236220472
20
-6.7474727559055117
11
4.2974930314960629
21
-6.7355905905511806
0
LINE
8
BLACK
6
CONTINUOUS
10
4.2974930314960629
20
-6.7355905905511806
11
4.3053491338582672
21
-6.7245184645669287
0
LINE
8
BLACK
6
CONTINUOUS
10
4.3053491338582672
20
-6.7245184645669287
11
4.3143955511811019
21
-6.7143955511811022
0
LINE
8
BLACK
6
CONTINUOUS
10
4.3143955511811019
20
-6.7143955511811022
11
4.3245184645669292
21
-6.7053491338582676
0
LINE
8
BLACK
6
CONTINUOUS
10
4.3245184645669292
20
-6.7053491338582676
11
4.3355905905511811
21
-6.6974930314960632
0
LINE
8
BLACK
6
CONTINUOUS
10
4.3355905905511811
20
-6.6974930314960632
11
4.3474727559055113
21
-6.6909260236220467
0
LINE
8
BLACK
6
CONTINUOUS
10
4.3474727559055113
20
-6.6909260236220467
11
4.360015433070866
21
-6.6857306692913383
0
LINE
8
BLACK
6
CONTINUOUS
10
4.360015433070866
20
-6.6857306692913383
11
4.3730609448818898
21
-6.6819723228346453
0
LINE
8
BLACK
6
CONTINUOUS
10
4.3730609448818898
20
-6.6819723228346453
11
4.3864452362204727
21
-6.6796982283464565
0
LINE
8
BLACK
6
CONTINUOUS
10
4.3864452362204727
20
-6.6796982283464565
11
4.3999999999999995
21
-6.6789370078740156
0
LINE
8
BLACK
6
CONTINUOUS
10
4.3999999999999995
20
-6.6789370078740156
11
4.4135547637795272
21
-6.6796982283464565
0
LINE
8
BLACK
6
CONTINUOUS
10
4.2854273228346456
20
-6.813391614173228
11
4.2877566929133861
21
-6.8266021653543305
0
LINE
8
BLACK
6
CONTINUOUS
10
4.2877566929133861
20
-6.8266021653543305
11
4.291603976377953
21
-6.8394529133858271
0
LINE
8
BLACK
6
CONTINUOUS
10
4.291603976377953
20
-6.8394529133858271
11
4.296917125984252
21
-6.8517701574803151
0
LINE
8
BLACK
6
CONTINUOUS
10
4.296917125984252
20
-6.8517701574803151
11
4.3036242913385827
21
-6.8633873228346456
0
LINE
8
BLACK
6
CONTINUOUS
10
4.3036242913385827
20
-6.8633873228346456
11
4.3116347637795274
21
-6.8741472440944884
0
LINE
8
BLACK
6
CONTINUOUS
10
4.3116347637795274
20
-6.8741472440944884
11
4.3208402362204721
21
-6.8839044488188978
0
LINE
8
BLACK
6
CONTINUOUS
10
4.3208402362204721
20
-6.8839044488188978
11
4.3311161811023622
21
-6.8925270078740155
0
LINE
8
BLACK
6
CONTINUOUS
10
4.3311161811023622
20
-6.8925270078740155
11
4.3423236614173231
21
-6.8998983070866142
0
LINE
8
BLACK
6
CONTINUOUS
10
4.3423236614173231
20
-6.8998983070866142
11
4.3543111417322837
21
-6.9059186614173225
0
LINE
8
BLACK
6
CONTINUOUS
10
4.3543111417322837
20
-6.9059186614173225
11
4.3669164960629923
21
-6.9105066141732285
0
LINE
8
BLACK
6
CONTINUOUS
10
4.3669164960629923
20
-6.9105066141732285
11
4.3799692125984251
21
-6.9136001574803148
0
LINE
8
BLACK
6
CONTINUOUS
10
4.3799692125984251
20
-6.9136001574803148
11
4.3932928346456688
21
-6.9151574803149609
0
LINE
8
BLACK
6
CONTINUOUS
10
4.3932928346456688
20
-6.9151574803149609
11
4.406707165354331
21
-6.9151574803149609
0
LINE
8
BLACK
6
CONTINUOUS
10
4.406707165354331
20
-6.9151574803149609
11
4.4200307874015747
21
-6.9136001574803148
0
LINE
8
BLACK
6
CONTINUOUS
10
4.4200307874015747
20
-6.9136001574803148
11
4.4330835039370076
21
-6.9105066141732285
0
LINE
8
BLACK
6
CONTINUOUS
10
4.4330835039370076
20
-6.9105066141732285
11
4.4456888582677161
21
-6.9059186614173225
0
LINE
8
BLACK
6
CONTINUOUS
10
4.4456888582677161
20
-6.9059186614173225
11
4.4576763385826768
21
-6.8998983070866142
0
LINE
8
BLACK
6
CONTINUOUS
10
4.4576763385826768
20
-6.8998983070866142
11
4.4688838188976376
21
-6.8925270078740155
0
LINE
8
BLACK
6
CONTINUOUS
10
4.4688838188976376
20
-6.8925270078740155
11
4.4791597637795277
21
-6.8839044488188978
0
LINE
8
BLACK
6
CONTINUOUS
10
4.4791597637795277
20
-6.8839044488188978
11
4.4883652362204725
21
-6.8741472440944884
0
LINE
8
BLACK
6
CONTINUOUS
10
4.4883652362204725
20
-6.8741472440944884
11
4.4963757086614171
21
-6.8633873228346456
0
LINE
8
BLACK
6
CONTINUOUS
10
4.4963757086614171
20
-6.8633873228346456
11
4.5030828740157478
21
-6.8517701574803151
0
LINE
8
BLACK
6
CONTINUOUS
10
4.5030828740157478
20
-6.8517701574803151
11
4.5083960236220468
21
-6.8394529133858271
0
LINE
8
BLACK
6
CONTINUOUS
10
4.5083960236220468
20
-6.8394529133858271
11
4.5122433070866137
21
-6.8266021653543305
0
LINE
8
BLACK
6
CONTINUOUS
10
4.5122433070866137
20
-6.8266021653543305
11
4.5145726771653543
21
-6.813391614173228
0
LINE
8
BLACK
6
CONTINUOUS
10
4.5145726771653543
20
-6.813391614173228
11
4.5153526377952753
21
-6.7999999999999998
0
LINE
8
BLACK
6
CONTINUOUS
10
4.5153526377952753
20
-6.7999999999999998
11
4.5145726771653543
21
-6.7866083858267716
0
LINE
8
BLACK
6
CONTINUOUS
10
4.5145726771653543
20
-6.7866083858267716
11
4.5122433070866137
21
-6.7733978346456691
0
LINE
8
BLACK
6
CONTINUOUS
10
4.5122433070866137
20
-6.7733978346456691
11
4.5083960236220468
21
-6.7605470866141735
0
LINE
8
BLACK
6
CONTINUOUS
10
4.5083960236220468
20
-6.7605470866141735
11
4.5030828740157478
21
-6.7482298425196845
0
LINE
8
BLACK
6
CONTINUOUS
10
4.5030828740157478
20
-6.7482298425196845
11
4.4963757086614171
21
-6.7366126771653541
0
LINE
8
BLACK
6
CONTINUOUS
10
4.4963757086614171
20
-6.7366126771653541
11
4.4883652362204725
21
-6.7258527559055112
0
LINE
8
BLACK
6
CONTINUOUS
10
4.4883652362204725
20
-6.7258527559055112
11
4.4791597637795277
21
-6.7160955511811018
0
LINE
8
BLACK
6
CONTINUOUS
10
4.4791597637795277
20
-6.7160955511811018
11
4.4688838188976376
21
-6.7074729921259841
0
LINE
8
BLACK
6
CONTINUOUS
10
4.4688838188976376
20
-6.7074729921259841
11
4.4576763385826768
21
-6.7001016929133854
0
LINE
8
BLACK
6
CONTINUOUS
10
4.4576763385826768
20
-6.7001016929133854
11
4.4456888582677161
21
-6.6940813385826772
0
LINE
8
BLACK
6
CONTINUOUS
10
4.4456888582677161
20
-6.6940813385826772
11
4.4330835039370076
21
-6.6894933858267711
0
LINE
8
BLACK
6
CONTINUOUS
10
4.4330835039370076
20
-6.6894933858267711
11
4.4200307874015747
21
-6.6863998425196849
0
LINE
8
BLACK
6
CONTINUOUS
10
4.4200307874015747
20
-6.6863998425196849
11
4.406707165354331
21
-6.6848425196850396
0
LINE
8
BLACK
6
CONTINUOUS
10
4.406707165354331
20
-6.6848425196850396
11
4.3932928346456688
21
-6.6848425196850396
0
LINE
8
BLACK
6
CONTINUOUS
10
4.3932928346456688
20
-6.6848425196850396
11
4.3799692125984251
21
-6.6863998425196849
0
LINE
8
BLACK
6
CONTINUOUS
10
4.3799692125984251
20
-6.6863998425196849
11
4.3669164960629923
21
-6.6894933858267711
0
LINE
8
BLACK
6
CONTINUOUS
10
4.3669164960629923
20
-6.6894933858267711
11
4.3543111417322837
21
-6.6940813385826772
0
LINE
8
BLACK
6
CONTINUOUS
10
4.3543111417322837
20
-6.6940813385826772
11
4.3423236614173231
21
-6.7001016929133854
0
LINE
8
BLACK
6
CONTINUOUS
10
4.3423236614173231
20
-6.7001016929133854
11
4.3311161811023622
21
-6.7074729921259841
0
LINE
8
BLACK
6
CONTINUOUS
10
4.3311161811023622
20
-6.7074729921259841
11
4.3208402362204721
21
-6.7160955511811018
0
LINE
8
BLACK
6
CONTINUOUS
10
4.3208402362204721
20
-6.7160955511811018
11
4.3116347637795274
21
-6.7258527559055112
0
LINE
8
BLACK
6
CONTINUOUS
10
4.3116347637795274
20
-6.7258527559055112
11
4.3036242913385827
21
-6.7366126771653541
0
LINE
8
BLACK
6
CONTINUOUS
10
4.3036242913385827
20
-6.7366126771653541
11
4.296917125984252
21
-6.7482298425196845
0
LINE
8
BLACK
6
CONTINUOUS
10
4.296917125984252
20
-6.7482298425196845
11
4.291603976377953
21
-6.7605470866141735
0
LINE
8
BLACK
6
CONTINUOUS
10
4.291603976377953
20
-6.7605470866141735
11
4.2877566929133861
21
-6.7733978346456691
0
LINE
8
BLACK
6
CONTINUOUS
10
4.2877566929133861
20
-6.7733978346456691
11
4.2854273228346456
21
-6.7866083858267716
0
LINE
8
BLACK
6
CONTINUOUS
10
4.2854273228346456
20
-6.7866083858267716
11
4.2846473622047245
21
-6.7999999999999998
0
LINE
8
BLACK
6
CONTINUOUS
10
4.2846473622047245
20
-6.7999999999999998
11
4.2854273228346456
21
-6.813391614173228
0
LINE
8
BLACK
6
CONTINUOUS
10
6.0135547637795277
20
-6.6796982283464565
11
6.0269390551181097
21
-6.6819723228346453
0
LINE
8
BLACK
6
CONTINUOUS
10
6.0269390551181097
20
-6.6819723228346453
11
6.0399845669291334
21
-6.6857306692913383
0
LINE
8
BLACK
6
CONTINUOUS
10
6.0399845669291334
20
-6.6857306692913383
11
6.0525272440944882
21
-6.6909260236220467
0
LINE
8
BLACK
6
CONTINUOUS
10
6.0525272440944882
20
-6.6909260236220467
11
6.0644094094488183
21
-6.6974930314960632
0
LINE
8
BLACK
6
CONTINUOUS
10
6.0644094094488183
20
-6.6974930314960632
11
6.0754815354330711
21
-6.7053491338582676
0
LINE
8
BLACK
6
CONTINUOUS
10
6.0754815354330711
20
-6.7053491338582676
11
6.0856044488188976
21
-6.7143955511811022
0
LINE
8
BLACK
6
CONTINUOUS
10
6.0856044488188976
20
-6.7143955511811022
11
6.0946508661417322
21
-6.7245184645669287
0
LINE
8
BLACK
6
CONTINUOUS
10
6.0946508661417322
20
-6.7245184645669287
11
6.1025069685039366
21
-6.7355905905511806
0
LINE
8
BLACK
6
CONTINUOUS
10
6.1025069685039366
20
-6.7355905905511806
11
6.1090739763779522
21
-6.7474727559055117
0
LINE
8
BLACK
6
CONTINUOUS
10
6.1090739763779522
20
-6.7474727559055117
11
6.1142693307086615
21
-6.7600154330708664
0
LINE
8
BLACK
6
CONTINUOUS
10
6.1142693307086615
20
-6.7600154330708664
11
6.1180276771653546
21
-6.7730609448818893
0
LINE
8
BLACK
6
CONTINUOUS
10
6.1180276771653546
20
-6.7730609448818893
11
6.1203017716535433
21
-6.7864452362204721
0
LINE
8
BLACK
6
CONTINUOUS
10
6.1203017716535433
20
-6.7864452362204721
11
6.1210629921259843
21
-6.7999999999999998
0
LINE
8
BLACK
6
CONTINUOUS
10
6.1210629921259843
20
-6.7999999999999998
11
6.1203017716535433
21
-6.8135547637795275
0
LINE
8
BLACK
6
CONTINUOUS
10
6.1203017716535433
20
-6.8135547637795275
11
6.1180276771653546
21
-6.8269390551181104
0
LINE
8
BLACK
6
CONTINUOUS
10
6.1180276771653546
20
-6.8269390551181104
11
6.1142693307086615
21
-6.8399845669291341
0
LINE
8
BLACK
6
CONTINUOUS
10
6.1142693307086615
20
-6.8399845669291341
11
6.1090739763779522
21
-6.852527244094488
0
LINE
8
BLACK
6
CONTINUOUS
10
6.1090739763779522
20
-6.852527244094488
11
6.1025069685039366
21
-6.8644094094488191
0
LINE
8
BLACK
6
CONTINUOUS
10
6.1025069685039366
20
-6.8644094094488191
11
6.0946508661417322
21
-6.8754815354330709
0
LINE
8
BLACK
6
CONTINUOUS
10
6.0946508661417322
20
-6.8754815354330709
11
6.0856044488188976
21
-6.8856044488188974
0
LINE
8
BLACK
6
CONTINUOUS
10
6.0856044488188976
20
-6.8856044488188974
11
6.0754815354330711
21
-6.8946508661417321
0
LINE
8
BLACK
6
CONTINUOUS
10
6.0754815354330711
20
-6.8946508661417321
11
6.0644094094488183
21
-6.9025069685039364
0
LINE
8
BLACK
6
CONTINUOUS
10
6.0644094094488183
20
-6.9025069685039364
11
6.0525272440944882
21
-6.909073976377953
0
LINE
8
BLACK
6
CONTINUOUS
10
6.0525272440944882
20
-6.909073976377953
11
6.0399845669291334
21
-6.9142693307086613
0
LINE
8
BLACK
6
CONTINUOUS
10
6.0399845669291334
20
-6.9142693307086613
11
6.0269390551181097
21
-6.9180276771653544
0
LINE
8
BLACK
6
CONTINUOUS
10
6.0269390551181097
20
-6.9180276771653544
11
6.0135547637795277
21
-6.9203017716535431
0
LINE
8
BLACK
6
CONTINUOUS
10
6.0135547637795277
20
-6.9203017716535431
11
6.
21
-6.9210629921259841
0
LINE
8
BLACK
6
CONTINUOUS
10
6.
20
-6.9210629921259841
11
5.9864452362204723
21
-6.9203017716535431
0
LINE
8
BLACK
6
CONTINUOUS
10
5.9864452362204723
20
-6.9203017716535431
11
5.9730609448818894
21
-6.9180276771653544
0
LINE
8
BLACK
6
CONTINUOUS
10
5.9730609448818894
20
-6.9180276771653544
11
5.9600154330708657
21
-6.9142693307086613
0
LINE
8
BLACK
6
CONTINUOUS
10
5.9600154330708657
20
-6.9142693307086613
11
5.9474727559055118
21
-6.909073976377953
0
LINE
8
BLACK
6
CONTINUOUS
10
5.9474727559055118
20
-6.909073976377953
11
5.9355905905511808
21
-6.9025069685039364
0
LINE
8
BLACK
6
CONTINUOUS
10
5.9355905905511808
20
-6.9025069685039364
11
5.9245184645669289
21
-6.8946508661417321
0
LINE
8
BLACK
6
CONTINUOUS
10
5.9245184645669289
20
-6.8946508661417321
11
5.9143955511811024
21
-6.8856044488188974
0
LINE
8
BLACK
6
CONTINUOUS
10
5.9143955511811024
20
-6.8856044488188974
11
5.9053491338582678
21
-6.8754815354330709
0
LINE
8
BLACK
6
CONTINUOUS
10
5.9053491338582678
20
-6.8754815354330709
11
5.8974930314960625
21
-6.8644094094488191
0
LINE
8
BLACK
6
CONTINUOUS
10
5.8974930314960625
20
-6.8644094094488191
11
5.8909260236220469
21
-6.852527244094488
0
LINE
8
BLACK
6
CONTINUOUS
10
5.8909260236220469
20
-6.852527244094488
11
5.8857306692913385
21
-6.8399845669291341
0
LINE
8
BLACK
6
CONTINUOUS
10
5.8857306692913385
20
-6.8399845669291341
11
5.8819723228346454
21
-6.8269390551181104
0
LINE
8
BLACK
6
CONTINUOUS
10
5.8819723228346454
20
-6.8269390551181104
11
5.8796982283464567
21
-6.8135547637795275
0
LINE
8
BLACK
6
CONTINUOUS
10
5.8796982283464567
20
-6.8135547637795275
11
5.8789370078740157
21
-6.7999999999999998
0
LINE
8
BLACK
6
CONTINUOUS
10
5.8789370078740157
20
-6.7999999999999998
11
5.8796982283464567
21
-6.7864452362204721
0
LINE
8
BLACK
6
CONTINUOUS
10
5.8796982283464567
20
-6.7864452362204721
11
5.8819723228346454
21
-6.7730609448818893
0
LINE
8
BLACK
6
CONTINUOUS
10
5.8819723228346454
20
-6.7730609448818893
11
5.8857306692913385
21
-6.7600154330708664
0
LINE
8
BLACK
6
CONTINUOUS
10
5.8857306692913385
20
-6.7600154330708664
11
5.8909260236220469
21
-6.7474727559055117
0
LINE
8
BLACK
6
CONTINUOUS
10
5.8909260236220469
20
-6.7474727559055117
11
5.8974930314960625
21
-6.7355905905511806
0
LINE
8
BLACK
6
CONTINUOUS
10
5.8974930314960625
20
-6.7355905905511806
11
5.9053491338582678
21
-6.7245184645669287
0
LINE
8
BLACK
6
CONTINUOUS
10
5.9053491338582678
20
-6.7245184645669287
11
5.9143955511811024
21
-6.7143955511811022
0
LINE
8
BLACK
6
CONTINUOUS
10
5.9143955511811024
20
-6.7143955511811022
11
5.9245184645669289
21
-6.7053491338582676
0
LINE
8
BLACK
6
CONTINUOUS
10
5.9245184645669289
20
-6.7053491338582676
11
5.9355905905511808
21
-6.6974930314960632
0
LINE
8
BLACK
6
CONTINUOUS
10
5.9355905905511808
20
-6.6974930314960632
11
5.9474727559055118
21
-6.6909260236220467
0
LINE
8
BLACK
6
CONTINUOUS
10
5.9474727559055118
20
-6.6909260236220467
11
5.9600154330708657
21
-6.6857306692913383
0
LINE
8
BLACK
6
CONTINUOUS
10
5.9600154330708657
20
-6.6857306692913383
11
5.9730609448818894
21
-6.6819723228346453
0
LINE
8
BLACK
6
CONTINUOUS
10
5.9730609448818894
20
-6.6819723228346453
11
5.9864452362204723
21
-6.6796982283464565
0
LINE
8
BLACK
6
CONTINUOUS
10
5.9864452362204723
20
-6.6796982283464565
11
6.
21
-6.6789370078740156
0
LINE
8
BLACK
6
CONTINUOUS
10
6.
20
-6.6789370078740156
11
6.0135547637795277
21
-6.6796982283464565
0
LINE
8
BLACK
6
CONTINUOUS
10
5.8854273228346452
20
-6.813391614173228
11
5.8877566929133858
21
-6.8266021653543305
0
LINE
8
BLACK
6
CONTINUOUS
10
5.8877566929133858
20
-6.8266021653543305
11
5.8916039763779526
21
-6.8394529133858271
0
LINE
8
BLACK
6
CONTINUOUS
10
5.8916039763779526
20
-6.8394529133858271
11
5.8969171259842517
21
-6.8517701574803151
0
LINE
8
BLACK
6
CONTINUOUS
10
5.8969171259842517
20
-6.8517701574803151
11
5.9036242913385824
21
-6.8633873228346456
0
LINE
8
BLACK
6
CONTINUOUS
10
5.9036242913385824
20
-6.8633873228346456
11
5.911634763779527
21
-6.8741472440944884
0
LINE
8
BLACK
6
CONTINUOUS
10
5.911634763779527
20
-6.8741472440944884
11
5.9208402362204726
21
-6.8839044488188978
0
LINE
8
BLACK
6
CONTINUOUS
10
5.9208402362204726
20
-6.8839044488188978
11
5.9311161811023618
21
-6.8925270078740155
0
LINE
8
BLACK
6
CONTINUOUS
10
5.9311161811023618
20
-6.8925270078740155
11
5.9423236614173227
21
-6.8998983070866142
0
LINE
8
BLACK
6
CONTINUOUS
10
5.9423236614173227
20
-6.8998983070866142
11
5.9543111417322834
21
-6.9059186614173225
0
LINE
8
BLACK
6
CONTINUOUS
10
5.9543111417322834
20
-6.9059186614173225
11
5.9669164960629919
21
-6.9105066141732285
0
LINE
8
BLACK
6
CONTINUOUS
10
5.9669164960629919
20
-6.9105066141732285
11
5.9799692125984247
21
-6.9136001574803148
0
LINE
8
BLACK
6
CONTINUOUS
10
5.9799692125984247
20
-6.9136001574803148
11
5.9932928346456693
21
-6.9151574803149609
0
LINE
8
BLACK
6
CONTINUOUS
10
5.9932928346456693
20
-6.9151574803149609
11
6.0067071653543307
21
-6.9151574803149609
0
LINE
8
BLACK
6
CONTINUOUS
10
6.0067071653543307
20
-6.9151574803149609
11
6.0200307874015744
21
-6.9136001574803148
0
LINE
8
BLACK
6
CONTINUOUS
10
6.0200307874015744
20
-6.9136001574803148
11
6.0330835039370081
21
-6.9105066141732285
0
LINE
8
BLACK
6
CONTINUOUS
10
6.0330835039370081
20
-6.9105066141732285
11
6.0456888582677166
21
-6.9059186614173225
0
LINE
8
BLACK
6
CONTINUOUS
10
6.0456888582677166
20
-6.9059186614173225
11
6.0576763385826773
21
-6.8998983070866142
0
LINE
8
BLACK
6
CONTINUOUS
10
6.0576763385826773
20
-6.8998983070866142
11
6.0688838188976373
21
-6.8925270078740155
0
LINE
8
BLACK
6
CONTINUOUS
10
6.0688838188976373
20
-6.8925270078740155
11
6.0791597637795274
21
-6.8839044488188978
0
LINE
8
BLACK
6
CONTINUOUS
10
6.0791597637795274
20
-6.8839044488188978
11
6.0883652362204721
21
-6.8741472440944884
0
LINE
8
BLACK
6
CONTINUOUS
10
6.0883652362204721
20
-6.8741472440944884
11
6.0963757086614168
21
-6.8633873228346456
0
LINE
8
BLACK
6
CONTINUOUS
10
6.0963757086614168
20
-6.8633873228346456
11
6.1030828740157474
21
-6.8517701574803151
0
LINE
8
BLACK
6
CONTINUOUS
10
6.1030828740157474
20
-6.8517701574803151
11
6.1083960236220474
21
-6.8394529133858271
0
LINE
8
BLACK
6
CONTINUOUS
10
6.1083960236220474
20
-6.8394529133858271
11
6.1122433070866142
21
-6.8266021653543305
0
LINE
8
BLACK
6
CONTINUOUS
10
6.1122433070866142
20
-6.8266021653543305
11
6.1145726771653539
21
-6.813391614173228
0
LINE
8
BLACK
6
CONTINUOUS
10
6.1145726771653539
20
-6.813391614173228
11
6.1153526377952758
21
-6.7999999999999998
0
LINE
8
BLACK
6
CONTINUOUS
10
6.1153526377952758
20
-6.7999999999999998
11
6.1145726771653539
21
-6.7866083858267716
0
LINE
8
BLACK
6
CONTINUOUS
10
6.1145726771653539
20
-6.7866083858267716
11
6.1122433070866142
21
-6.7733978346456691
0
LINE
8
BLACK
6
CONTINUOUS
10
6.1122433070866142
20
-6.7733978346456691
11
6.1083960236220474
21
-6.7605470866141735
0
LINE
8
BLACK
6
CONTINUOUS
10
6.1083960236220474
20
-6.7605470866141735
11
6.1030828740157474
21
-6.7482298425196845
0
LINE
8
BLACK
6
CONTINUOUS
10
6.1030828740157474
20
-6.7482298425196845
11
6.0963757086614168
21
-6.7366126771653541
0
LINE
8
BLACK
6
CONTINUOUS
10
6.0963757086614168
20
-6.7366126771653541
11
6.0883652362204721
21
-6.7258527559055112
0
LINE
8
BLACK
6
CONTINUOUS
10
6.0883652362204721
20
-6.7258527559055112
11
6.0791597637795274
21
-6.7160955511811018
0
LINE
8
BLACK
6
CONTINUOUS
10
6.0791597637795274
20
-6.7160955511811018
11
6.0688838188976373
21
-6.7074729921259841
0
LINE
8
BLACK
6
CONTINUOUS
10
6.0688838188976373
20
-6.7074729921259841
11
6.0576763385826773
21
-6.7001016929133854
0
LINE
8
BLACK
6
CONTINUOUS
10
6.0576763385826773
20
-6.7001016929133854
11
6.0456888582677166
21
-6.6940813385826772
0
LINE
8
BLACK
6
CONTINUOUS
10
6.0456888582677166
20
-6.6940813385826772
11
6.0330835039370081
21
-6.6894933858267711
0
LINE
8
BLACK
6
CONTINUOUS
10
6.0330835039370081
20
-6.6894933858267711
11
6.0200307874015744
21
-6.6863998425196849
0
LINE
8
BLACK
6
CONTINUOUS
10
6.0200307874015744
20
-6.6863998425196849
11
6.0067071653543307
21
-6.6848425196850396
0
LINE
8
BLACK
6
CONTINUOUS
10
6.0067071653543307
20
-6.6848425196850396
11
5.9932928346456693
21
-6.6848425196850396
0
LINE
8
BLACK
6
CONTINUOUS
10
5.9932928346456693
20
-6.6848425196850396
11
5.9799692125984247
21
-6.6863998425196849
0
LINE
8
BLACK
6
CONTINUOUS
10
5.9799692125984247
20
-6.6863998425196849
11
5.9669164960629919
21
-6.6894933858267711
0
LINE
8
BLACK
6
CONTINUOUS
10
5.9669164960629919
20
-6.6894933858267711
11
5.9543111417322834
21
-6.6940813385826772
0
LINE
8
BLACK
6
CONTINUOUS
10
5.9543111417322834
20
-6.6940813385826772
11
5.9423236614173227
21
-6.7001016929133854
0
LINE
8
BLACK
6
CONTINUOUS
10
5.9423236614173227
20
-6.7001016929133854
11
5.9311161811023618
21
-6.7074729921259841
0
LINE
8
BLACK
6
CONTINUOUS
10
5.9311161811023618
20
-6.7074729921259841
11
5.9208402362204726
21
-6.7160955511811018
0
LINE
8
BLACK
6
CONTINUOUS
10
5.9208402362204726
20
-6.7160955511811018
11
5.911634763779527
21
-6.7258527559055112
0
LINE
8
BLACK
6
CONTINUOUS
10
5.911634763779527
20
-6.7258527559055112
11
5.9036242913385824
21
-6.7366126771653541
0
LINE
8
BLACK
6
CONTINUOUS
10
5.9036242913385824
20
-6.7366126771653541
11
5.8969171259842517
21
-6.7482298425196845
0
LINE
8
BLACK
6
CONTINUOUS
10
5.8969171259842517
20
-6.7482298425196845
11
5.8916039763779526
21
-6.7605470866141735
0
LINE
8
BLACK
6
CONTINUOUS
10
5.8916039763779526
20
-6.7605470866141735
11
5.8877566929133858
21
-6.7733978346456691
0
LINE
8
BLACK
6
CONTINUOUS
10
5.8877566929133858
20
-6.7733978346456691
11
5.8854273228346452
21
-6.7866083858267716
0
LINE
8
BLACK
6
CONTINUOUS
10
5.8854273228346452
20
-6.7866083858267716
11
5.8846473622047242
21
-6.7999999999999998
0
LINE
8
BLACK
6
CONTINUOUS
10
5.8846473622047242
20
-6.7999999999999998
11
5.8854273228346452
21
-6.813391614173228
0
LINE
8
BLACK
6
CONTINUOUS
10
4.4135547637795272
20
-5.0796982283464569
11
4.42693905511811
21
-5.0819723228346456
0
LINE
8
BLACK
6
CONTINUOUS
10
4.42693905511811
20
-5.0819723228346456
11
4.4399845669291338
21
-5.0857306692913387
0
LINE
8
BLACK
6
CONTINUOUS
10
4.4399845669291338
20
-5.0857306692913387
11
4.4525272440944885
21
-5.090926023622047
0
LINE
8
BLACK
6
CONTINUOUS
10
4.4525272440944885
20
-5.090926023622047
11
4.4644094094488187
21
-5.0974930314960627
0
LINE
8
BLACK
6
CONTINUOUS
10
4.4644094094488187
20
-5.0974930314960627
11
4.4754815354330706
21
-5.1053491338582679
0
LINE
8
BLACK
6
CONTINUOUS
10
4.4754815354330706
20
-5.1053491338582679
11
4.485604448818898
21
-5.1143955511811026
0
LINE
8
BLACK
6
CONTINUOUS
10
4.485604448818898
20
-5.1143955511811026
11
4.4946508661417326
21
-5.1245184645669291
0
LINE
8
BLACK
6
CONTINUOUS
10
4.4946508661417326
20
-5.1245184645669291
11
4.5025069685039369
21
-5.1355905905511809
0
LINE
8
BLACK
6
CONTINUOUS
10
4.5025069685039369
20
-5.1355905905511809
11
4.5090739763779526
21
-5.147472755905512
0
LINE
8
BLACK
6
CONTINUOUS
10
4.5090739763779526
20
-5.147472755905512
11
4.514269330708661
21
-5.1600154330708659
0
LINE
8
BLACK
6
CONTINUOUS
10
4.514269330708661
20
-5.1600154330708659
11
4.518027677165354
21
-5.1730609448818896
0
LINE
8
BLACK
6
CONTINUOUS
10
4.518027677165354
20
-5.1730609448818896
11
4.5203017716535436
21
-5.1864452362204725
0
LINE
8
BLACK
6
CONTINUOUS
10
4.5203017716535436
20
-5.1864452362204725
11
4.5210629921259837
21
-5.2000000000000002
0
LINE
8
BLACK
6
CONTINUOUS
10
4.5210629921259837
20
-5.2000000000000002
11
4.5203017716535436
21
-5.2135547637795279
0
LINE
8
BLACK
6
CONTINUOUS
10
4.5203017716535436
20
-5.2135547637795279
11
4.518027677165354
21
-5.2269390551181099
0
LINE
8
BLACK
6
CONTINUOUS
10
4.518027677165354
20
-5.2269390551181099
11
4.514269330708661
21
-5.2399845669291336
0
LINE
8
BLACK
6
CONTINUOUS
10
4.514269330708661
20
-5.2399845669291336
11
4.5090739763779526
21
-5.2525272440944883
0
LINE
8
BLACK
6
CONTINUOUS
10
4.5090739763779526
20
-5.2525272440944883
11
4.5025069685039369
21
-5.2644094094488185
0
LINE
8
BLACK
6
CONTINUOUS
10
4.5025069685039369
20
-5.2644094094488185
11
4.4946508661417326
21
-5.2754815354330704
0
LINE
8
BLACK
6
CONTINUOUS
10
4.4946508661417326
20
-5.2754815354330704
11
4.485604448818898
21
-5.2856044488188978
0
LINE
8
BLACK
6
CONTINUOUS
10
4.485604448818898
20
-5.2856044488188978
11
4.4754815354330706
21
-5.2946508661417324
0
LINE
8
BLACK
6
CONTINUOUS
10
4.4754815354330706
20
-5.2946508661417324
11
4.4644094094488187
21
-5.3025069685039368
0
LINE
8
BLACK
6
CONTINUOUS
10
4.4644094094488187
20
-5.3025069685039368
11
4.4525272440944885
21
-5.3090739763779524
0
LINE
8
BLACK
6
CONTINUOUS
10
4.4525272440944885
20
-5.3090739763779524
11
4.4399845669291338
21
-5.3142693307086617
0
LINE
8
BLACK
6
CONTINUOUS
10
4.4399845669291338
20
-5.3142693307086617
11
4.42693905511811
21
-5.3180276771653539
0
LINE
8
BLACK
6
CONTINUOUS
10
4.42693905511811
20
-5.3180276771653539
11
4.4135547637795272
21
-5.3203017716535435
0
LINE
8
BLACK
6
CONTINUOUS
10
4.4135547637795272
20
-5.3203017716535435
11
4.3999999999999995
21
-5.3210629921259844
0
LINE
8
BLACK
6
CONTINUOUS
10
4.3999999999999995
20
-5.3210629921259844
11
4.3864452362204727
21
-5.3203017716535435
0
LINE
8
BLACK
6
CONTINUOUS
10
4.3864452362204727
20
-5.3203017716535435
11
4.3730609448818898
21
-5.3180276771653539
0
LINE
8
BLACK
6
CONTINUOUS
10
4.3730609448818898
20
-5.3180276771653539
11
4.360015433070866
21
-5.3142693307086617
0
LINE
8
BLACK
6
CONTINUOUS
10
4.360015433070866
20
-5.3142693307086617
11
4.3474727559055113
21
-5.3090739763779524
0
LINE
8
BLACK
6
CONTINUOUS
10
4.3474727559055113
20
-5.3090739763779524
11
4.3355905905511811
21
-5.3025069685039368
0
LINE
8
BLACK
6
CONTINUOUS
10
4.3355905905511811
20
-5.3025069685039368
11
4.3245184645669292
21
-5.2946508661417324
0
LINE
8
BLACK
6
CONTINUOUS
10
4.3245184645669292
20
-5.2946508661417324
11
4.3143955511811019
21
-5.2856044488188978
0
LINE
8
BLACK
6
CONTINUOUS
10
4.3143955511811019
20
-5.2856044488188978
11
4.3053491338582672
21
-5.2754815354330704
0
LINE
8
BLACK
6
CONTINUOUS
10
4.3053491338582672
20
-5.2754815354330704
11
4.2974930314960629
21
-5.2644094094488185
0
LINE
8
BLACK
6
CONTINUOUS
10
4.2974930314960629
20
-5.2644094094488185
11
4.2909260236220472
21
-5.2525272440944883
0
LINE
8
BLACK
6
CONTINUOUS
10
4.2909260236220472
20
-5.2525272440944883
11
4.2857306692913388
21
-5.2399845669291336
0
LINE
8
BLACK
6
CONTINUOUS
10
4.2857306692913388
20
-5.2399845669291336
11
4.2819723228346458
21
-5.2269390551181099
0
LINE
8
BLACK
6
CONTINUOUS
10
4.2819723228346458
20
-5.2269390551181099
11
4.2796982283464562
21
-5.2135547637795279
0
LINE
8
BLACK
6
CONTINUOUS
10
4.2796982283464562
20
-5.2135547637795279
11
4.2789370078740152
21
-5.2000000000000002
0
LINE
8
BLACK
6
CONTINUOUS
10
4.2789370078740152
20
-5.2000000000000002
11
4.2796982283464562
21
-5.1864452362204725
0
LINE
8
BLACK
6
CONTINUOUS
10
4.2796982283464562
20
-5.1864452362204725
11
4.2819723228346458
21
-5.1730609448818896
0
LINE
8
BLACK
6
CONTINUOUS
10
4.2819723228346458
20
-5.1730609448818896
11
4.2857306692913388
21
-5.1600154330708659
0
LINE
8
BLACK
6
CONTINUOUS
10
4.2857306692913388
20
-5.1600154330708659
11
4.2909260236220472
21
-5.147472755905512
0
LINE
8
BLACK
6
CONTINUOUS
10
4.2909260236220472
20
-5.147472755905512
11
4.2974930314960629
21
-5.1355905905511809
0
LINE
8
BLACK
6
CONTINUOUS
10
4.2974930314960629
20
-5.1355905905511809
11
4.3053491338582672
21
-5.1245184645669291
0
LINE
8
BLACK
6
CONTINUOUS
10
4.3053491338582672
20
-5.1245184645669291
11
4.3143955511811019
21
-5.1143955511811026
0
LINE
8
BLACK
6
CONTINUOUS
10
4.3143955511811019
20
-5.1143955511811026
11
4.3245184645669292
21
-5.1053491338582679
0
LINE
8
BLACK
6
CONTINUOUS
10
4.3245184645669292
20
-5.1053491338582679
11
4.3355905905511811
21
-5.0974930314960627
0
LINE
8
BLACK
6
CONTINUOUS
10
4.3355905905511811
20
-5.0974930314960627
11
4.3474727559055113
21
-5.090926023622047
0
LINE
8
BLACK
6
CONTINUOUS
10
4.3474727559055113
20
-5.090926023622047
11
4.360015433070866
21
-5.0857306692913387
0
LINE
8
BLACK
6
CONTINUOUS
10
4.360015433070866
20
-5.0857306692913387
11
4.3730609448818898
21
-5.0819723228346456
0
LINE
8
BLACK
6
CONTINUOUS
10
4.3730609448818898
20
-5.0819723228346456
11
4.3864452362204727
21
-5.0796982283464569
0
LINE
8
BLACK
6
CONTINUOUS
10
4.3864452362204727
20
-5.0796982283464569
11
4.3999999999999995
21
-5.0789370078740159
0
LINE
8
BLACK
6
CONTINUOUS
10
4.3999999999999995
20
-5.0789370078740159
11
4.4135547637795272
21
-5.0796982283464569
0
LINE
8
BLACK
6
CONTINUOUS
10
4.2854273228346456
20
-5.2133916141732284
11
4.2877566929133861
21
-5.2266021653543309
0
LINE
8
BLACK
6
CONTINUOUS
10
4.2877566929133861
20
-5.2266021653543309
11
4.291603976377953
21
-5.2394529133858265
0
LINE
8
BLACK
6
CONTINUOUS
10
4.291603976377953
20
-5.2394529133858265
11
4.296917125984252
21
-5.2517701574803146
0
LINE
8
BLACK
6
CONTINUOUS
10
4.296917125984252
20
-5.2517701574803146
11
4.3036242913385827
21
-5.2633873228346459
0
LINE
8
BLACK
6
CONTINUOUS
10
4.3036242913385827
20
-5.2633873228346459
11
4.3116347637795274
21
-5.2741472440944879
0
LINE
8
BLACK
6
CONTINUOUS
10
4.3116347637795274
20
-5.2741472440944879
11
4.3208402362204721
21
-5.2839044488188973
0
LINE
8
BLACK
6
CONTINUOUS
10
4.3208402362204721
20
-5.2839044488188973
11
4.3311161811023622
21
-5.2925270078740159
0
LINE
8
BLACK
6
CONTINUOUS
10
4.3311161811023622
20
-5.2925270078740159
11
4.3423236614173231
21
-5.2998983070866137
0
LINE
8
BLACK
6
CONTINUOUS
10
4.3423236614173231
20
-5.2998983070866137
11
4.3543111417322837
21
-5.3059186614173228
0
LINE
8
BLACK
6
CONTINUOUS
10
4.3543111417322837
20
-5.3059186614173228
11
4.3669164960629923
21
-5.310506614173228
0
LINE
8
BLACK
6
CONTINUOUS
10
4.3669164960629923
20
-5.310506614173228
11
4.3799692125984251
21
-5.3136001574803151
0
LINE
8
BLACK
6
CONTINUOUS
10
4.3799692125984251
20
-5.3136001574803151
11
4.3932928346456688
21
-5.3151574803149604
0
LINE
8
BLACK
6
CONTINUOUS
10
4.3932928346456688
20
-5.3151574803149604
11
4.406707165354331
21
-5.3151574803149604
0
LINE
8
BLACK
6
CONTINUOUS
10
4.406707165354331
20
-5.3151574803149604
11
4.4200307874015747
21
-5.3136001574803151
0
LINE
8
BLACK
6
CONTINUOUS
10
4.4200307874015747
20
-5.3136001574803151
11
4.4330835039370076
21
-5.310506614173228
0
LINE
8
BLACK
6
CONTINUOUS
10
4.4330835039370076
20
-5.310506614173228
11
4.4456888582677161
21
-5.3059186614173228
0
LINE
8
BLACK
6
CONTINUOUS
10
4.4456888582677161
20
-5.3059186614173228
11
4.4576763385826768
21
-5.2998983070866137
0
LINE
8
BLACK
6
CONTINUOUS
10
4.4576763385826768
20
-5.2998983070866137
11
4.4688838188976376
21
-5.2925270078740159
0
LINE
8
BLACK
6
CONTINUOUS
10
4.4688838188976376
20
-5.2925270078740159
11
4.4791597637795277
21
-5.2839044488188973
0
LINE
8
BLACK
6
CONTINUOUS
10
4.4791597637795277
20
-5.2839044488188973
11
4.4883652362204725
21
-5.2741472440944879
0
LINE
8
BLACK
6
CONTINUOUS
10
4.4883652362204725
20
-5.2741472440944879
11
4.4963757086614171
21
-5.2633873228346459
0
LINE
8
BLACK
6
CONTINUOUS
10
4.4963757086614171
20
-5.2633873228346459
11
4.5030828740157478
21
-5.2517701574803146
0
LINE
8
BLACK
6
CONTINUOUS
10
4.5030828740157478
20
-5.2517701574803146
11
4.5083960236220468
21
-5.2394529133858265
0
LINE
8
BLACK
6
CONTINUOUS
10
4.5083960236220468
20
-5.2394529133858265
11
4.5122433070866137
21
-5.2266021653543309
0
LINE
8
BLACK
6
CONTINUOUS
10
4.5122433070866137
20
-5.2266021653543309
11
4.5145726771653543
21
-5.2133916141732284
0
LINE
8
BLACK
6
CONTINUOUS
10
4.5145726771653543
20
-5.2133916141732284
11
4.5153526377952753
21
-5.2000000000000002
0
LINE
8
BLACK
6
CONTINUOUS
10
4.5153526377952753
20
-5.2000000000000002
11
4.5145726771653543
21
-5.186608385826772
0
LINE
8
BLACK
6
CONTINUOUS
10
4.5145726771653543
20
-5.186608385826772
11
4.5122433070866137
21
-5.1733978346456695
0
LINE
8
BLACK
6
CONTINUOUS
10
4.5122433070866137
20
-5.1733978346456695
11
4.5083960236220468
21
-5.1605470866141729
0
LINE
8
BLACK
6
CONTINUOUS
10
4.5083960236220468
20
-5.1605470866141729
11
4.5030828740157478
21
-5.1482298425196849
0
LINE
8
BLACK
6
CONTINUOUS
10
4.5030828740157478
20
-5.1482298425196849
11
4.4963757086614171
21
-5.1366126771653544
0
LINE
8
BLACK
6
CONTINUOUS
10
4.4963757086614171
20
-5.1366126771653544
11
4.4883652362204725
21
-5.1258527559055116
0
LINE
8
BLACK
6
CONTINUOUS
10
4.4883652362204725
20
-5.1258527559055116
11
4.4791597637795277
21
-5.1160955511811022
0
LINE
8
BLACK
6
CONTINUOUS
10
4.4791597637795277
20
-5.1160955511811022
11
4.4688838188976376
21
-5.1074729921259845
0
LINE
8
BLACK
6
CONTINUOUS
10
4.4688838188976376
20
-5.1074729921259845
11
4.4576763385826768
21
-5.1001016929133858
0
LINE
8
BLACK
6
CONTINUOUS
10
4.4576763385826768
20
-5.1001016929133858
11
4.4456888582677161
21
-5.0940813385826766
0
LINE
8
BLACK
6
CONTINUOUS
10
4.4456888582677161
20
-5.0940813385826766
11
4.4330835039370076
21
-5.0894933858267715
0
LINE
8
BLACK
6
CONTINUOUS
10
4.4330835039370076
20
-5.0894933858267715
11
4.4200307874015747
21
-5.0863998425196852
0
LINE
8
BLACK
6
CONTINUOUS
10
4.4200307874015747
20
-5.0863998425196852
11
4.406707165354331
21
-5.0848425196850391
0
LINE
8
BLACK
6
CONTINUOUS
10
4.406707165354331
20
-5.0848425196850391
11
4.3932928346456688
21
-5.0848425196850391
0
LINE
8
BLACK
6
CONTINUOUS
10
4.3932928346456688
20
-5.0848425196850391
11
4.3799692125984251
21
-5.0863998425196852
0
LINE
8
BLACK
6
CONTINUOUS
10
4.3799692125984251
20
-5.0863998425196852
11
4.3669164960629923
21
-5.0894933858267715
0
LINE
8
BLACK
6
CONTINUOUS
10
4.3669164960629923
20
-5.0894933858267715
11
4.3543111417322837
21
-5.0940813385826766
0
LINE
8
BLACK
6
CONTINUOUS
10
4.3543111417322837
20
-5.0940813385826766
11
4.3423236614173231
21
-5.1001016929133858
0
LINE
8
BLACK
6
CONTINUOUS
10
4.3423236614173231
20
-5.1001016929133858
11
4.3311161811023622
21
-5.1074729921259845
0
LINE
8
BLACK
6
CONTINUOUS
10
4.3311161811023622
20
-5.1074729921259845
11
4.3208402362204721
21
-5.1160955511811022
0
LINE
8
BLACK
6
CONTINUOUS
10
4.3208402362204721
20
-5.1160955511811022
11
4.3116347637795274
21
-5.1258527559055116
0
LINE
8
BLACK
6
CONTINUOUS
10
4.3116347637795274
20
-5.1258527559055116
11
4.3036242913385827
21
-5.1366126771653544
0
LINE
8
BLACK
6
CONTINUOUS
10
4.3036242913385827
20
-5.1366126771653544
11
4.296917125984252
21
-5.1482298425196849
0
LINE
8
BLACK
6
CONTINUOUS
10
4.296917125984252
20
-5.1482298425196849
11
4.291603976377953
21
-5.1605470866141729
0
LINE
8
BLACK
6
CONTINUOUS
10
4.291603976377953
20
-5.1605470866141729
11
4.2877566929133861
21
-5.1733978346456695
0
LINE
8
BLACK
6
CONTINUOUS
10
4.2877566929133861
20
-5.1733978346456695
11
4.2854273228346456
21
-5.186608385826772
0
LINE
8
BLACK
6
CONTINUOUS
10
4.2854273228346456
20
-5.186608385826772
11
4.2846473622047245
21
-5.2000000000000002
0
LINE
8
BLACK
6
CONTINUOUS
10
4.2846473622047245
20
-5.2000000000000002
11
4.2854273228346456
21
-5.2133916141732284
0
LINE
8
BLACK
6
CONTINUOUS
10
6.0135547637795277
20
-5.0796982283464569
11
6.0269390551181097
21
-5.0819723228346456
0
LINE
8
BLACK
6
CONTINUOUS
10
6.0269390551181097
20
-5.0819723228346456
11
6.0399845669291334
21
-5.0857306692913387
0
LINE
8
BLACK
6
CONTINUOUS
10
6.0399845669291334
20
-5.0857306692913387
11
6.0525272440944882
21
-5.090926023622047
0
LINE
8
BLACK
6
CONTINUOUS
10
6.0525272440944882
20
-5.090926023622047
11
6.0644094094488183
21
-5.0974930314960627
0
LINE
8
BLACK
6
CONTINUOUS
10
6.0644094094488183
20
-5.0974930314960627
11
6.0754815354330711
21
-5.1053491338582679
0
LINE
8
BLACK
6
CONTINUOUS
10
6.0754815354330711
20
-5.1053491338582679
11
6.0856044488188976
21
-5.1143955511811026
0
LINE
8
BLACK
6
CONTINUOUS
10
6.0856044488188976
20
-5.1143955511811026
11
6.0946508661417322
21
-5.1245184645669291
0
LINE
8
BLACK
6
CONTINUOUS
10
6.0946508661417322
20
-5.1245184645669291
11
6.1025069685039366
21
-5.1355905905511809
0
LINE
8
BLACK
6
CONTINUOUS
10
6.1025069685039366
20
-5.1355905905511809
11
6.1090739763779522
21
-5.147472755905512
0
LINE
8
BLACK
6
CONTINUOUS
10
6.1090739763779522
20
-5.147472755905512
11
6.1142693307086615
21
-5.1600154330708659
0
LINE
8
BLACK
6
CONTINUOUS
10
6.1142693307086615
20
-5.1600154330708659
11
6.1180276771653546
21
-5.1730609448818896
0
LINE
8
BLACK
6
CONTINUOUS
10
6.1180276771653546
20
-5.1730609448818896
11
6.1203017716535433
21
-5.1864452362204725
0
LINE
8
BLACK
6
CONTINUOUS
10
6.1203017716535433
20
-5.1864452362204725
11
6.1210629921259843
21
-5.2000000000000002
0
LINE
8
BLACK
6
CONTINUOUS
10
6.1210629921259843
20
-5.2000000000000002
11
6.1203017716535433
21
-5.2135547637795279
0
LINE
8
BLACK
6
CONTINUOUS
10
6.1203017716535433
20
-5.2135547637795279
11
6.1180276771653546
21
-5.2269390551181099
0
LINE
8
BLACK
6
CONTINUOUS
10
6.1180276771653546
20
-5.2269390551181099
11
6.1142693307086615
21
-5.2399845669291336
0
LINE
8
BLACK
6
CONTINUOUS
10
6.1142693307086615
20
-5.2399845669291336
11
6.1090739763779522
21
-5.2525272440944883
0
LINE
8
BLACK
6
CONTINUOUS
10
6.1090739763779522
20
-5.2525272440944883
11
6.1025069685039366
21
-5.2644094094488185
0
LINE
8
BLACK
6
CONTINUOUS
10
6.1025069685039366
20
-5.2644094094488185
11
6.0946508661417322
21
-5.2754815354330704
0
LINE
8
BLACK
6
CONTINUOUS
10
6.0946508661417322
20
-5.2754815354330704
11
6.0856044488188976
21
-5.2856044488188978
0
LINE
8
BLACK
6
CONTINUOUS
10
6.0856044488188976
20
-5.2856044488188978
11
6.0754815354330711
21
-5.2946508661417324
0
LINE
8
BLACK
6
CONTINUOUS
10
6.0754815354330711
20
-5.2946508661417324
11
6.0644094094488183
21
-5.3025069685039368
0
LINE
8
BLACK
6
CONTINUOUS
10
6.0644094094488183
20
-5.3025069685039368
11
6.0525272440944882
21
-5.3090739763779524
0
LINE
8
BLACK
6
CONTINUOUS
10
6.0525272440944882
20
-5.3090739763779524
11
6.0399845669291334
21
-5.3142693307086617
0
LINE
8
BLACK
6
CONTINUOUS
10
6.0399845669291334
20
-5.3142693307086617
11
6.0269390551181097
21
-5.3180276771653539
0
LINE
8
BLACK
6
CONTINUOUS
10
6.0269390551181097
20
-5.3180276771653539
11
6.0135547637795277
21
-5.3203017716535435
0
LINE
8
BLACK
6
CONTINUOUS
10
6.0135547637795277
20
-5.3203017716535435
11
6.
21
-5.3210629921259844
0
LINE
8
BLACK
6
CONTINUOUS
10
6.
20
-5.3210629921259844
11
5.9864452362204723
21
-5.3203017716535435
0
LINE
8
BLACK
6
CONTINUOUS
10
5.9864452362204723
20
-5.3203017716535435
11
5.9730609448818894
21
-5.3180276771653539
0
LINE
8
BLACK
6
CONTINUOUS
10
5.9730609448818894
20
-5.3180276771653539
11
5.9600154330708657
21
-5.3142693307086617
0
LINE
8
BLACK
6
CONTINUOUS
10
5.9600154330708657
20
-5.3142693307086617
11
5.9474727559055118
21
-5.3090739763779524
0
LINE
8
BLACK
6
CONTINUOUS
10
5.9474727559055118
20
-5.3090739763779524
11
5.9355905905511808
21
-5.3025069685039368
0
LINE
8
BLACK
6
CONTINUOUS
10
5.9355905905511808
20
-5.3025069685039368
11
5.9245184645669289
21
-5.2946508661417324
0
LINE
8
BLACK
6
CONTINUOUS
10
5.9245184645669289
20
-5.2946508661417324
11
5.9143955511811024
21
-5.2856044488188978
0
LINE
8
BLACK
6
CONTINUOUS
10
5.9143955511811024
20
-5.2856044488188978
11
5.9053491338582678
21
-5.2754815354330704
0
LINE
8
BLACK
6
CONTINUOUS
10
5.9053491338582678
20
-5.2754815354330704
11
5.8974930314960625
21
-5.2644094094488185
0
LINE
8
BLACK
6
CONTINUOUS
10
5.8974930314960625
20
-5.2644094094488185
11
5.8909260236220469
21
-5.2525272440944883
0
LINE
8
BLACK
6
CONTINUOUS
10
5.8909260236220469
20
-5.2525272440944883
11
5.8857306692913385
21
-5.2399845669291336
0
LINE
8
BLACK
6
CONTINUOUS
10
5.8857306692913385
20
-5.2399845669291336
11
5.8819723228346454
21
-5.2269390551181099
0
LINE
8
BLACK
6
CONTINUOUS
10
5.8819723228346454
20
-5.2269390551181099
11
5.8796982283464567
21
-5.2135547637795279
0
LINE
8
BLACK
6
CONTINUOUS
10
5.8796982283464567
20
-5.2135547637795279
11
5.8789370078740157
21
-5.2000000000000002
0
LINE
8
BLACK
6
CONTINUOUS
10
5.8789370078740157
20
-5.2000000000000002
11
5.8796982283464567
21
-5.1864452362204725
0
LINE
8
BLACK
6
CONTINUOUS
10
5.8796982283464567
20
-5.1864452362204725
11
5.8819723228346454
21
-5.1730609448818896
0
LINE
8
BLACK
6
CONTINUOUS
10
5.8819723228346454
20
-5.1730609448818896
11
5.8857306692913385
21
-5.1600154330708659
0
LINE
8
BLACK
6
CONTINUOUS
10
5.8857306692913385
20
-5.1600154330708659
11
5.8909260236220469
21
-5.147472755905512
0
LINE
8
BLACK
6
CONTINUOUS
10
5.8909260236220469
20
-5.147472755905512
11
5.8974930314960625
21
-5.1355905905511809
0
LINE
8
BLACK
6
CONTINUOUS
10
5.8974930314960625
20
-5.1355905905511809
11
5.9053491338582678
21
-5.1245184645669291
0
LINE
8
BLACK
6
CONTINUOUS
10
5.9053491338582678
20
-5.1245184645669291
11
5.9143955511811024
21
-5.1143955511811026
0
LINE
8
BLACK
6
CONTINUOUS
10
5.9143955511811024
20
-5.1143955511811026
11
5.9245184645669289
21
-5.1053491338582679
0
LINE
8
BLACK
6
CONTINUOUS
10
5.9245184645669289
20
-5.1053491338582679
11
5.9355905905511808
21
-5.0974930314960627
0
LINE
8
BLACK
6
CONTINUOUS
10
5.9355905905511808
20
-5.0974930314960627
11
5.9474727559055118
21
-5.090926023622047
0
LINE
8
BLACK
6
CONTINUOUS
10
5.9474727559055118
20
-5.090926023622047
11
5.9600154330708657
21
-5.0857306692913387
0
LINE
8
BLACK
6
CONTINUOUS
10
5.9600154330708657
20
-5.0857306692913387
11
5.9730609448818894
21
-5.0819723228346456
0
LINE
8
BLACK
6
CONTINUOUS
10
5.9730609448818894
20
-5.0819723228346456
11
5.9864452362204723
21
-5.0796982283464569
0
LINE
8
BLACK
6
CONTINUOUS
10
5.9864452362204723
20
-5.0796982283464569
11
6.
21
-5.0789370078740159
0
LINE
8
BLACK
6
CONTINUOUS
10
6.
20
-5.0789370078740159
11
6.0135547637795277
21
-5.0796982283464569
0
LINE
8
BLACK
6
CONTINUOUS
10
5.8854273228346452
20
-5.2133916141732284
11
5.8877566929133858
21
-5.2266021653543309
0
LINE
8
BLACK
6
CONTINUOUS
10
5.8877566929133858
20
-5.2266021653543309
11
5.8916039763779526
21
-5.2394529133858265
0
LINE
8
BLACK
6
CONTINUOUS
10
5.8916039763779526
20
-5.2394529133858265
11
5.8969171259842517
21
-5.2517701574803146
0
LINE
8
BLACK
6
CONTINUOUS
10
5.8969171259842517
20
-5.2517701574803146
11
5.9036242913385824
21
-5.2633873228346459
0
LINE
8
BLACK
6
CONTINUOUS
10
5.9036242913385824
20
-5.2633873228346459
11
5.911634763779527
21
-5.2741472440944879
0
LINE
8
BLACK
6
CONTINUOUS
10
5.911634763779527
20
-5.2741472440944879
11
5.9208402362204726
21
-5.2839044488188973
0
LINE
8
BLACK
6
CONTINUOUS
10
5.9208402362204726
20
-5.2839044488188973
11
5.9311161811023618
21
-5.2925270078740159
0
LINE
8
BLACK
6
CONTINUOUS
10
5.9311161811023618
20
-5.2925270078740159
11
5.9423236614173227
21
-5.2998983070866137
0
LINE
8
BLACK
6
CONTINUOUS
10
5.9423236614173227
20
-5.2998983070866137
11
5.9543111417322834
21
-5.3059186614173228
0
LINE
8
BLACK
6
CONTINUOUS
10
5.9543111417322834
20
-5.3059186614173228
11
5.9669164960629919
21
-5.310506614173228
0
LINE
8
BLACK
6
CONTINUOUS
10
5.9669164960629919
20
-5.310506614173228
11
5.9799692125984247
21
-5.3136001574803151
0
LINE
8
BLACK
6
CONTINUOUS
10
5.9799692125984247
20
-5.3136001574803151
11
5.9932928346456693
21
-5.3151574803149604
0
LINE
8
BLACK
6
CONTINUOUS
10
5.9932928346456693
20
-5.3151574803149604
11
6.0067071653543307
21
-5.3151574803149604
0
LINE
8
BLACK
6
CONTINUOUS
10
6.0067071653543307
20
-5.3151574803149604
11
6.0200307874015744
21
-5.3136001574803151
0
LINE
8
BLACK
6
CONTINUOUS
10
6.0200307874015744
20
-5.3136001574803151
11
6.0330835039370081
21
-5.310506614173228
0
LINE
8
BLACK
6
CONTINUOUS
10
6.0330835039370081
20
-5.310506614173228
11
6.0456888582677166
21
-5.3059186614173228
0
LINE
8
BLACK
6
CONTINUOUS
10
6.0456888582677166
20
-5.3059186614173228
11
6.0576763385826773
21
-5.2998983070866137
0
LINE
8
BLACK
6
CONTINUOUS
10
6.0576763385826773
20
-5.2998983070866137
11
6.0688838188976373
21
-5.2925270078740159
0
LINE
8
BLACK
6
CONTINUOUS
10
6.0688838188976373
20
-5.2925270078740159
11
6.0791597637795274
21
-5.2839044488188973
0
LINE
8
BLACK
6
CONTINUOUS
10
6.0791597637795274
20
-5.2839044488188973
11
6.0883652362204721
21
-5.2741472440944879
0
LINE
8
BLACK
6
CONTINUOUS
10
6.0883652362204721
20
-5.2741472440944879
11
6.0963757086614168
21
-5.2633873228346459
0
LINE
8
BLACK
6
CONTINUOUS
10
6.0963757086614168
20
-5.2633873228346459
11
6.1030828740157474
21
-5.2517701574803146
0
LINE
8
BLACK
6
CONTINUOUS
10
6.1030828740157474
20
-5.2517701574803146
11
6.1083960236220474
21
-5.2394529133858265
0
LINE
8
BLACK
6
CONTINUOUS
10
6.1083960236220474
20
-5.2394529133858265
11
6.1122433070866142
21
-5.2266021653543309
0
LINE
8
BLACK
6
CONTINUOUS
10
6.1122433070866142
20
-5.2266021653543309
11
6.1145726771653539
21
-5.2133916141732284
0
LINE
8
BLACK
6
CONTINUOUS
10
6.1145726771653539
20
-5.2133916141732284
11
6.1153526377952758
21
-5.2000000000000002
0
LINE
8
BLACK
6
CONTINUOUS
10
6.1153526377952758
20
-5.2000000000000002
11
6.1145726771653539
21
-5.186608385826772
0
LINE
8
BLACK
6
CONTINUOUS
10
6.1145726771653539
20
-5.186608385826772
11
6.1122433070866142
21
-5.1733978346456695
0
LINE
8
BLACK
6
CONTINUOUS
10
6.1122433070866142
20
-5.1733978346456695
11
6.1083960236220474
21
-5.1605470866141729
0
LINE
8
BLACK
6
CONTINUOUS
10
6.1083960236220474
20
-5.1605470866141729
11
6.1030828740157474
21
-5.1482298425196849
0
LINE
8
BLACK
6
CONTINUOUS
10
6.1030828740157474
20
-5.1482298425196849
11
6.0963757086614168
21
-5.1366126771653544
0
LINE
8
BLACK
6
CONTINUOUS
10
6.0963757086614168
20
-5.1366126771653544
11
6.0883652362204721
21
-5.1258527559055116
0
LINE
8
BLACK
6
CONTINUOUS
10
6.0883652362204721
20
-5.1258527559055116
11
6.0791597637795274
21
-5.1160955511811022
0
LINE
8
BLACK
6
CONTINUOUS
10
6.0791597637795274
20
-5.1160955511811022
11
6.0688838188976373
21
-5.1074729921259845
0
LINE
8
BLACK
6
CONTINUOUS
10
6.0688838188976373
20
-5.1074729921259845
11
6.0576763385826773
21
-5.1001016929133858
0
LINE
8
BLACK
6
CONTINUOUS
10
6.0576763385826773
20
-5.1001016929133858
11
6.0456888582677166
21
-5.0940813385826766
0
LINE
8
BLACK
6
CONTINUOUS
10
6.0456888582677166
20
-5.0940813385826766
11
6.0330835039370081
21
-5.0894933858267715
0
LINE
8
BLACK
6
CONTINUOUS
10
6.0330835039370081
20
-5.0894933858267715
11
6.0200307874015744
21
-5.0863998425196852
0
LINE
8
BLACK
6
CONTINUOUS
10
6.0200307874015744
20
-5.0863998425196852
11
6.0067071653543307
21
-5.0848425196850391
0
LINE
8
BLACK
6
CONTINUOUS
10
6.0067071653543307
20
-5.0848425196850391
11
5.9932928346456693
21
-5.0848425196850391
0
LINE
8
BLACK
6
CONTINUOUS
10
5.9932928346456693
20
-5.0848425196850391
11
5.9799692125984247
21
-5.0863998425196852
0
LINE
8
BLACK
6
CONTINUOUS
10
5.9799692125984247
20
-5.0863998425196852
11
5.9669164960629919
21
-5.0894933858267715
0
LINE
8
BLACK
6
CONTINUOUS
10
5.9669164960629919
20
-5.0894933858267715
11
5.9543111417322834
21
-5.0940813385826766
0
LINE
8
BLACK
6
CONTINUOUS
10
5.9543111417322834
20
-5.0940813385826766
11
5.9423236614173227
21
-5.1001016929133858
0
LINE
8
BLACK
6
CONTINUOUS
10
5.9423236614173227
20
-5.1001016929133858
11
5.9311161811023618
21
-5.1074729921259845
0
LINE
8
BLACK
6
CONTINUOUS
10
5.9311161811023618
20
-5.1074729921259845
11
5.9208402362204726
21
-5.1160955511811022
0
LINE
8
BLACK
6
CONTINUOUS
10
5.9208402362204726
20
-5.1160955511811022
11
5.911634763779527
21
-5.1258527559055116
0
LINE
8
BLACK
6
CONTINUOUS
10
5.911634763779527
20
-5.1258527559055116
11
5.9036242913385824
21
-5.1366126771653544
0
LINE
8
BLACK
6
CONTINUOUS
10
5.9036242913385824
20
-5.1366126771653544
11
5.8969171259842517
21
-5.1482298425196849
0
LINE
8
BLACK
6
CONTINUOUS
10
5.8969171259842517
20
-5.1482298425196849
11
5.8916039763779526
21
-5.1605470866141729
0
LINE
8
BLACK
6
CONTINUOUS
10
5.8916039763779526
20
-5.1605470866141729
11
5.8877566929133858
21
-5.1733978346456695
0
LINE
8
BLACK
6
CONTINUOUS
10
5.8877566929133858
20
-5.1733978346456695
11
5.8854273228346452
21
-5.186608385826772
0
LINE
8
BLACK
6
CONTINUOUS
10
5.8854273228346452
20
-5.186608385826772
11
5.8846473622047242
21
-5.2000000000000002
0
LINE
8
BLACK
6
CONTINUOUS
10
5.8846473622047242
20
-5.2000000000000002
11
5.8854273228346452
21
-5.2133916141732284
  0
ENDSEC
  0
EOF
