  0
SECTION
  2
HEADER
  9
$ANGBASE
  50
0.0
  9
$ANGDIR
  70
1
  9
$MEASUREMENT
  70
0
  0
ENDSEC
  0
SECTION
  2
TABLES
  0
TABLE
  2
LTYPE
  70
4
  0
LTYPE
  5
40F
  2
CONTINUOUS
  70
0
  3
Solid line
  72
65
  73
0
  40
0.0
  0
LTYPE
  5
410
  2
DASHDOT
 70
0
  3
Dash Dot ____ _ ____ _
 72
65
 73
4
 40
2.0
 49
1.25
 49
-0.25
 49
0.25
 49
-0.25
  0
LTYPE
  5
411
  2
DASHED
 70
0
  3
Dashed __ __ __ __ __
 72
65
 73
2
 40
0.75
 49
0.5
 49
-0.25
  0
LTYPE
  5
43B
  2
DOTTED
 70
0
  3
Dotted .  .  .  .
 72
65
 73
2
 40
0.2
 49
0.0
 49
-0.2
  0
ENDTAB
  0
TABLE
  2
STYLE
  70
4
  0
STYLE
  2
KICAD
  70
0
  40
0
  41
1
  42
1
  50
0
  71
0
  3
isocp.shx
  0
STYLE
  2
KICADB
  70
0
  40
0
  41
1
  42
1
  50
0
  71
0
  3
isocp.shx
  0
STYLE
  2
KICADI
  70
0
  40
0
  41
1
  42
1
  50
15
  71
0
  3
isocp.shx
  0
STYLE
  2
KICADBI
  70
0
  40
0
  41
1
  42
1
  50
15
  71
0
  3
isocp.shx
  0
ENDTAB
  0
TABLE
  2
LAYER
  70
1
  0
LAYER
  2
BLACK
  70
0
  62
7
  6
CONTINUOUS
  0
ENDTAB
  0
ENDSEC
  0
SECTION
  2
ENTITIES
0
LINE
8
BLACK
6
CONTINUOUS
10
6.1903835039370074
20
-5.0071148425196847
11
6.1905127559055115
21
-5.0070920866141728
0
LINE
8
BLACK
6
CONTINUOUS
10
6.1905127559055115
20
-5.0070920866141728
11
6.1906263385826774
21
-5.0071576771653543
0
LINE
8
BLACK
6
CONTINUOUS
10
6.1906263385826774
20
-5.0071576771653543
11
6.191009921259842
21
-5.0072253149606301
0
LINE
8
BLACK
6
CONTINUOUS
10
6.191009921259842
20
-5.0072253149606301
11
6.1915975984251963
21
-5.0077184251968498
0
LINE
8
BLACK
6
CONTINUOUS
10
6.1915975984251963
20
-5.0077184251968498
11
6.1922619291338581
21
-5.0081020078740153
0
LINE
8
BLACK
6
CONTINUOUS
10
6.1922619291338581
20
-5.0081020078740153
11
6.1923530314960624
21
-5.0083523228346456
0
LINE
8
BLACK
6
CONTINUOUS
10
6.1923530314960624
20
-5.0083523228346456
11
6.192557165354331
21
-5.0085236220472442
0
LINE
8
BLACK
6
CONTINUOUS
10
6.192557165354331
20
-5.0085236220472442
11
6.1926903937007873
21
-5.0092791732283466
0
LINE
8
BLACK
6
CONTINUOUS
10
6.1926903937007873
20
-5.0092791732283466
11
6.1929527559055115
21
-5.0099999999999998
0
LINE
8
BLACK
6
CONTINUOUS
10
6.1929527559055115
20
-5.0099999999999998
11
6.1929527559055115
21
-6.9900000000000002
0
LINE
8
BLACK
6
CONTINUOUS
10
6.1929527559055115
20
-6.9900000000000002
11
6.1928851181102358
21
-6.9903835039370081
0
LINE
8
BLACK
6
CONTINUOUS
10
6.1928851181102358
20
-6.9903835039370081
11
6.1929079133858265
21
-6.9905127559055114
0
LINE
8
BLACK
6
CONTINUOUS
10
6.1929079133858265
20
-6.9905127559055114
11
6.1928422834645671
21
-6.9906263385826772
0
LINE
8
BLACK
6
CONTINUOUS
10
6.1928422834645671
20
-6.9906263385826772
11
6.1927746850393701
21
-6.9910099212598427
0
LINE
8
BLACK
6
CONTINUOUS
10
6.1927746850393701
20
-6.9910099212598427
11
6.1922815354330707
21
-6.991597598425197
0
LINE
8
BLACK
6
CONTINUOUS
10
6.1922815354330707
20
-6.991597598425197
11
6.191897992125984
21
-6.9922619291338579
0
LINE
8
BLACK
6
CONTINUOUS
10
6.191897992125984
20
-6.9922619291338579
11
6.1916476377952758
21
-6.9923530314960631
0
LINE
8
BLACK
6
CONTINUOUS
10
6.1916476377952758
20
-6.9923530314960631
11
6.191476377952756
21
-6.9925571653543308
0
LINE
8
BLACK
6
CONTINUOUS
10
6.191476377952756
20
-6.9925571653543308
11
6.1907207874015748
21
-6.9926903937007872
0
LINE
8
BLACK
6
CONTINUOUS
10
6.1907207874015748
20
-6.9926903937007872
11
6.1899999999999995
21
-6.9929527559055114
0
LINE
8
BLACK
6
CONTINUOUS
10
6.1899999999999995
20
-6.9929527559055114
11
4.21
21
-6.9929527559055114
0
LINE
8
BLACK
6
CONTINUOUS
10
4.21
20
-6.9929527559055114
11
4.2096164566929133
21
-6.9928851181102365
0
LINE
8
BLACK
6
CONTINUOUS
10
4.2096164566929133
20
-6.9928851181102365
11
4.2094872440944879
21
-6.9929079133858263
0
LINE
8
BLACK
6
CONTINUOUS
10
4.2094872440944879
20
-6.9929079133858263
11
4.2093736220472442
21
-6.9928422834645669
0
LINE
8
BLACK
6
CONTINUOUS
10
4.2093736220472442
20
-6.9928422834645669
11
4.2089900787401575
21
-6.9927746850393699
0
LINE
8
BLACK
6
CONTINUOUS
10
4.2089900787401575
20
-6.9927746850393699
11
4.2084023622047244
21
-6.9922815354330705
0
LINE
8
BLACK
6
CONTINUOUS
10
4.2084023622047244
20
-6.9922815354330705
11
4.2077380708661414
21
-6.9918979921259838
0
LINE
8
BLACK
6
CONTINUOUS
10
4.2077380708661414
20
-6.9918979921259838
11
4.2076469291338583
21
-6.9916476377952756
0
LINE
8
BLACK
6
CONTINUOUS
10
4.2076469291338583
20
-6.9916476377952756
11
4.2074428346456694
21
-6.9914763779527558
0
LINE
8
BLACK
6
CONTINUOUS
10
4.2074428346456694
20
-6.9914763779527558
11
4.2073095669291334
21
-6.9907207874015747
0
LINE
8
BLACK
6
CONTINUOUS
10
4.2073095669291334
20
-6.9907207874015747
11
4.2070472440944879
21
-6.9900000000000002
0
LINE
8
BLACK
6
CONTINUOUS
10
4.2070472440944879
20
-6.9900000000000002
11
4.2070472440944879
21
-5.0099999999999998
0
LINE
8
BLACK
6
CONTINUOUS
10
4.2070472440944879
20
-5.0099999999999998
11
4.2071148425196849
21
-5.0096164566929131
0
LINE
8
BLACK
6
CONTINUOUS
10
4.2071148425196849
20
-5.0096164566929131
11
4.207092086614173
21
-5.0094872440944878
0
LINE
8
BLACK
6
CONTINUOUS
10
4.207092086614173
20
-5.0094872440944878
11
4.2071576771653545
21
-5.009373622047244
0
LINE
8
BLACK
6
CONTINUOUS
10
4.2071576771653545
20
-5.009373622047244
11
4.2072253149606302
21
-5.0089900787401573
0
LINE
8
BLACK
6
CONTINUOUS
10
4.2072253149606302
20
-5.0089900787401573
11
4.20771842519685
21
-5.0084023622047242
0
LINE
8
BLACK
6
CONTINUOUS
10
4.20771842519685
20
-5.0084023622047242
11
4.2081020078740154
21
-5.0077380708661412
0
LINE
8
BLACK
6
CONTINUOUS
10
4.2081020078740154
20
-5.0077380708661412
11
4.2083523228346458
21
-5.0076469291338581
0
LINE
8
BLACK
6
CONTINUOUS
10
4.2083523228346458
20
-5.0076469291338581
11
4.2085236220472444
21
-5.0074428346456692
0
LINE
8
BLACK
6
CONTINUOUS
10
4.2085236220472444
20
-5.0074428346456692
11
4.2092791732283468
21
-5.0073095669291341
0
LINE
8
BLACK
6
CONTINUOUS
10
4.2092791732283468
20
-5.0073095669291341
11
4.21
21
-5.0070472440944878
0
LINE
8
BLACK
6
CONTINUOUS
10
4.21
20
-5.0070472440944878
11
6.1899999999999995
21
-5.0070472440944878
0
LINE
8
BLACK
6
CONTINUOUS
10
6.1899999999999995
20
-5.0070472440944878
11
6.1903835039370074
21
-5.0071148425196847
0
LINE
8
BLACK
6
CONTINUOUS
10
4.212952755905512
20
-5.0129527559055118
11
4.212952755905512
21
-6.9870472440944882
0
LINE
8
BLACK
6
CONTINUOUS
10
4.212952755905512
20
-6.9870472440944882
11
6.1870472440944884
21
-6.9870472440944882
0
LINE
8
BLACK
6
CONTINUOUS
10
6.1870472440944884
20
-6.9870472440944882
11
6.1870472440944884
21
-5.0129527559055118
0
LINE
8
BLACK
6
CONTINUOUS
10
6.1870472440944884
20
-5.0129527559055118
11
4.212952755905512
21
-5.0129527559055118
  0
ENDSEC
  0
EOF
