  0
SECTION
  2
HEADER
  9
$ANGBASE
  50
0.0
  9
$ANGDIR
  70
1
  9
$MEASUREMENT
  70
0
  0
ENDSEC
  0
SECTION
  2
TABLES
  0
TABLE
  2
LTYPE
  70
4
  0
LTYPE
  5
40F
  2
CONTINUOUS
  70
0
  3
Solid line
  72
65
  73
0
  40
0.0
  0
LTYPE
  5
410
  2
DASHDOT
 70
0
  3
Dash Dot ____ _ ____ _
 72
65
 73
4
 40
2.0
 49
1.25
 49
-0.25
 49
0.25
 49
-0.25
  0
LTYPE
  5
411
  2
DASHED
 70
0
  3
Dashed __ __ __ __ __
 72
65
 73
2
 40
0.75
 49
0.5
 49
-0.25
  0
LTYPE
  5
43B
  2
DOTTED
 70
0
  3
Dotted .  .  .  .
 72
65
 73
2
 40
0.2
 49
0.0
 49
-0.2
  0
ENDTAB
  0
TABLE
  2
STYLE
  70
4
  0
STYLE
  2
KICAD
  70
0
  40
0
  41
1
  42
1
  50
0
  71
0
  3
isocp.shx
  0
STYLE
  2
KICADB
  70
0
  40
0
  41
1
  42
1
  50
0
  71
0
  3
isocp.shx
  0
STYLE
  2
KICADI
  70
0
  40
0
  41
1
  42
1
  50
15
  71
0
  3
isocp.shx
  0
STYLE
  2
KICADBI
  70
0
  40
0
  41
1
  42
1
  50
15
  71
0
  3
isocp.shx
  0
ENDTAB
  0
TABLE
  2
LAYER
  70
1
  0
LAYER
  2
BLACK
  70
0
  62
7
  6
CONTINUOUS
  0
ENDTAB
  0
ENDSEC
  0
SECTION
  2
ENTITIES
0
LINE
8
BLACK
6
CONTINUOUS
10
5.1563779527559053
20
-6.5745905511811022
11
5.0973228346456692
21
-6.5745905511811022
0
LINE
8
BLACK
6
CONTINUOUS
10
5.0973228346456692
20
-6.5745905511811022
11
5.0973228346456692
21
-6.5234094488188976
0
LINE
8
BLACK
6
CONTINUOUS
10
5.0973228346456692
20
-6.5234094488188976
11
5.1563779527559053
21
-6.5234094488188976
0
LINE
8
BLACK
6
CONTINUOUS
10
5.1563779527559053
20
-6.5234094488188976
11
5.1563779527559053
21
-6.5745905511811022
0
LINE
8
BLACK
6
CONTINUOUS
10
5.2626771653543303
20
-6.5745905511811022
11
5.2036220472440942
21
-6.5745905511811022
0
LINE
8
BLACK
6
CONTINUOUS
10
5.2036220472440942
20
-6.5745905511811022
11
5.2036220472440942
21
-6.5234094488188976
0
LINE
8
BLACK
6
CONTINUOUS
10
5.2036220472440942
20
-6.5234094488188976
11
5.2626771653543303
21
-6.5234094488188976
0
LINE
8
BLACK
6
CONTINUOUS
10
5.2626771653543303
20
-6.5234094488188976
11
5.2626771653543303
21
-6.5745905511811022
0
LINE
8
BLACK
6
CONTINUOUS
10
5.1562204724409444
20
-6.4147637795275587
11
5.1089763779527555
21
-6.4147637795275587
0
LINE
8
BLACK
6
CONTINUOUS
10
5.1089763779527555
20
-6.4147637795275587
11
5.1089763779527555
21
-6.3852362204724411
0
LINE
8
BLACK
6
CONTINUOUS
10
5.1089763779527555
20
-6.3852362204724411
11
5.1562204724409444
21
-6.3852362204724411
0
LINE
8
BLACK
6
CONTINUOUS
10
5.1562204724409444
20
-6.3852362204724411
11
5.1562204724409444
21
-6.4147637795275587
0
LINE
8
BLACK
6
CONTINUOUS
10
5.2310236220472444
20
-6.4147637795275587
11
5.1837795275590546
21
-6.4147637795275587
0
LINE
8
BLACK
6
CONTINUOUS
10
5.1837795275590546
20
-6.4147637795275587
11
5.1837795275590546
21
-6.3852362204724411
0
LINE
8
BLACK
6
CONTINUOUS
10
5.1837795275590546
20
-6.3852362204724411
11
5.2310236220472444
21
-6.3852362204724411
0
LINE
8
BLACK
6
CONTINUOUS
10
5.2310236220472444
20
-6.3852362204724411
11
5.2310236220472444
21
-6.4147637795275587
0
LINE
8
BLACK
6
CONTINUOUS
10
5.1491732283464566
20
-6.3282370078740158
11
5.1255511811023622
21
-6.3282370078740158
0
LINE
8
BLACK
6
CONTINUOUS
10
5.1255511811023622
20
-6.3282370078740158
11
5.1255511811023622
21
-6.2691818897637797
0
LINE
8
BLACK
6
CONTINUOUS
10
5.1255511811023622
20
-6.2691818897637797
11
5.1491732283464566
21
-6.2691818897637797
0
LINE
8
BLACK
6
CONTINUOUS
10
5.1491732283464566
20
-6.2691818897637797
11
5.1491732283464566
21
-6.3282370078740158
0
LINE
8
BLACK
6
CONTINUOUS
10
5.1991732283464565
20
-6.3282370078740158
11
5.175551181102362
21
-6.3282370078740158
0
LINE
8
BLACK
6
CONTINUOUS
10
5.175551181102362
20
-6.3282370078740158
11
5.175551181102362
21
-6.2691818897637797
0
LINE
8
BLACK
6
CONTINUOUS
10
5.175551181102362
20
-6.2691818897637797
11
5.1991732283464565
21
-6.2691818897637797
0
LINE
8
BLACK
6
CONTINUOUS
10
5.1991732283464565
20
-6.2691818897637797
11
5.1991732283464565
21
-6.3282370078740158
0
LINE
8
BLACK
6
CONTINUOUS
10
5.2491732283464563
20
-6.3282370078740158
11
5.2255511811023618
21
-6.3282370078740158
0
LINE
8
BLACK
6
CONTINUOUS
10
5.2255511811023618
20
-6.3282370078740158
11
5.2255511811023618
21
-6.2691818897637797
0
LINE
8
BLACK
6
CONTINUOUS
10
5.2255511811023618
20
-6.2691818897637797
11
5.2491732283464563
21
-6.2691818897637797
0
LINE
8
BLACK
6
CONTINUOUS
10
5.2491732283464563
20
-6.2691818897637797
11
5.2491732283464563
21
-6.3282370078740158
0
LINE
8
BLACK
6
CONTINUOUS
10
5.299173228346457
20
-6.3282370078740158
11
5.2755511811023617
21
-6.3282370078740158
0
LINE
8
BLACK
6
CONTINUOUS
10
5.2755511811023617
20
-6.3282370078740158
11
5.2755511811023617
21
-6.2691818897637797
0
LINE
8
BLACK
6
CONTINUOUS
10
5.2755511811023617
20
-6.2691818897637797
11
5.299173228346457
21
-6.2691818897637797
0
LINE
8
BLACK
6
CONTINUOUS
10
5.299173228346457
20
-6.2691818897637797
11
5.299173228346457
21
-6.3282370078740158
0
LINE
8
BLACK
6
CONTINUOUS
10
5.3491732283464568
20
-6.3282370078740158
11
5.3255511811023624
21
-6.3282370078740158
0
LINE
8
BLACK
6
CONTINUOUS
10
5.3255511811023624
20
-6.3282370078740158
11
5.3255511811023624
21
-6.2691818897637797
0
LINE
8
BLACK
6
CONTINUOUS
10
5.3255511811023624
20
-6.2691818897637797
11
5.3491732283464568
21
-6.2691818897637797
0
LINE
8
BLACK
6
CONTINUOUS
10
5.3491732283464568
20
-6.2691818897637797
11
5.3491732283464568
21
-6.3282370078740158
0
LINE
8
BLACK
6
CONTINUOUS
10
5.3991732283464566
20
-6.3282370078740158
11
5.3755511811023622
21
-6.3282370078740158
0
LINE
8
BLACK
6
CONTINUOUS
10
5.3755511811023622
20
-6.3282370078740158
11
5.3755511811023622
21
-6.2691818897637797
0
LINE
8
BLACK
6
CONTINUOUS
10
5.3755511811023622
20
-6.2691818897637797
11
5.3991732283464566
21
-6.2691818897637797
0
LINE
8
BLACK
6
CONTINUOUS
10
5.3991732283464566
20
-6.2691818897637797
11
5.3991732283464566
21
-6.3282370078740158
0
LINE
8
BLACK
6
CONTINUOUS
10
5.4491732283464565
20
-6.3282370078740158
11
5.425551181102362
21
-6.3282370078740158
0
LINE
8
BLACK
6
CONTINUOUS
10
5.425551181102362
20
-6.3282370078740158
11
5.425551181102362
21
-6.2691818897637797
0
LINE
8
BLACK
6
CONTINUOUS
10
5.425551181102362
20
-6.2691818897637797
11
5.4491732283464565
21
-6.2691818897637797
0
LINE
8
BLACK
6
CONTINUOUS
10
5.4491732283464565
20
-6.2691818897637797
11
5.4491732283464565
21
-6.3282370078740158
0
LINE
8
BLACK
6
CONTINUOUS
10
4.6618110236220476
20
-6.3251450393700788
11
4.6381889763779522
21
-6.3251450393700788
0
LINE
8
BLACK
6
CONTINUOUS
10
4.6381889763779522
20
-6.3251450393700788
11
4.6381889763779522
21
-6.2660899212598427
0
LINE
8
BLACK
6
CONTINUOUS
10
4.6381889763779522
20
-6.2660899212598427
11
4.6618110236220476
21
-6.2660899212598427
0
LINE
8
BLACK
6
CONTINUOUS
10
4.6618110236220476
20
-6.2660899212598427
11
4.6618110236220476
21
-6.3251450393700788
0
LINE
8
BLACK
6
CONTINUOUS
10
4.7118110236220474
20
-6.3251450393700788
11
4.688188976377953
21
-6.3251450393700788
0
LINE
8
BLACK
6
CONTINUOUS
10
4.688188976377953
20
-6.3251450393700788
11
4.688188976377953
21
-6.2660899212598427
0
LINE
8
BLACK
6
CONTINUOUS
10
4.688188976377953
20
-6.2660899212598427
11
4.7118110236220474
21
-6.2660899212598427
0
LINE
8
BLACK
6
CONTINUOUS
10
4.7118110236220474
20
-6.2660899212598427
11
4.7118110236220474
21
-6.3251450393700788
0
LINE
8
BLACK
6
CONTINUOUS
10
4.7618110236220472
20
-6.3251450393700788
11
4.7381889763779528
21
-6.3251450393700788
0
LINE
8
BLACK
6
CONTINUOUS
10
4.7381889763779528
20
-6.3251450393700788
11
4.7381889763779528
21
-6.2660899212598427
0
LINE
8
BLACK
6
CONTINUOUS
10
4.7381889763779528
20
-6.2660899212598427
11
4.7618110236220472
21
-6.2660899212598427
0
LINE
8
BLACK
6
CONTINUOUS
10
4.7618110236220472
20
-6.2660899212598427
11
4.7618110236220472
21
-6.3251450393700788
0
LINE
8
BLACK
6
CONTINUOUS
10
4.811811023622047
20
-6.3251450393700788
11
4.7881889763779526
21
-6.3251450393700788
0
LINE
8
BLACK
6
CONTINUOUS
10
4.7881889763779526
20
-6.3251450393700788
11
4.7881889763779526
21
-6.2660899212598427
0
LINE
8
BLACK
6
CONTINUOUS
10
4.7881889763779526
20
-6.2660899212598427
11
4.811811023622047
21
-6.2660899212598427
0
LINE
8
BLACK
6
CONTINUOUS
10
4.811811023622047
20
-6.2660899212598427
11
4.811811023622047
21
-6.3251450393700788
0
LINE
8
BLACK
6
CONTINUOUS
10
4.8618110236220469
20
-6.3251450393700788
11
4.8381889763779524
21
-6.3251450393700788
0
LINE
8
BLACK
6
CONTINUOUS
10
4.8381889763779524
20
-6.3251450393700788
11
4.8381889763779524
21
-6.2660899212598427
0
LINE
8
BLACK
6
CONTINUOUS
10
4.8381889763779524
20
-6.2660899212598427
11
4.8618110236220469
21
-6.2660899212598427
0
LINE
8
BLACK
6
CONTINUOUS
10
4.8618110236220469
20
-6.2660899212598427
11
4.8618110236220469
21
-6.3251450393700788
0
LINE
8
BLACK
6
CONTINUOUS
10
4.9118110236220467
20
-6.3251450393700788
11
4.8881889763779522
21
-6.3251450393700788
0
LINE
8
BLACK
6
CONTINUOUS
10
4.8881889763779522
20
-6.3251450393700788
11
4.8881889763779522
21
-6.2660899212598427
0
LINE
8
BLACK
6
CONTINUOUS
10
4.8881889763779522
20
-6.2660899212598427
11
4.9118110236220467
21
-6.2660899212598427
0
LINE
8
BLACK
6
CONTINUOUS
10
4.9118110236220467
20
-6.2660899212598427
11
4.9118110236220467
21
-6.3251450393700788
0
LINE
8
BLACK
6
CONTINUOUS
10
4.9618110236220474
20
-6.3251450393700788
11
4.938188976377953
21
-6.3251450393700788
0
LINE
8
BLACK
6
CONTINUOUS
10
4.938188976377953
20
-6.3251450393700788
11
4.938188976377953
21
-6.2660899212598427
0
LINE
8
BLACK
6
CONTINUOUS
10
4.938188976377953
20
-6.2660899212598427
11
4.9618110236220474
21
-6.2660899212598427
0
LINE
8
BLACK
6
CONTINUOUS
10
4.9618110236220474
20
-6.2660899212598427
11
4.9618110236220474
21
-6.3251450393700788
0
LINE
8
BLACK
6
CONTINUOUS
10
6.0721259842519686
20
-6.3247330708661416
11
6.0425984251968501
21
-6.3247330708661416
0
LINE
8
BLACK
6
CONTINUOUS
10
6.0425984251968501
20
-6.3247330708661416
11
6.0425984251968501
21
-6.2774889763779527
0
LINE
8
BLACK
6
CONTINUOUS
10
6.0425984251968501
20
-6.2774889763779527
11
6.0721259842519686
21
-6.2774889763779527
0
LINE
8
BLACK
6
CONTINUOUS
10
6.0721259842519686
20
-6.2774889763779527
11
6.0721259842519686
21
-6.3247330708661416
0
LINE
8
BLACK
6
CONTINUOUS
10
5.0547637795275593
20
-6.3210236220472442
11
5.0252362204724408
21
-6.3210236220472442
0
LINE
8
BLACK
6
CONTINUOUS
10
5.0252362204724408
20
-6.3210236220472442
11
5.0252362204724408
21
-6.2737795275590553
0
LINE
8
BLACK
6
CONTINUOUS
10
5.0252362204724408
20
-6.2737795275590553
11
5.0547637795275593
21
-6.2737795275590553
0
LINE
8
BLACK
6
CONTINUOUS
10
5.0547637795275593
20
-6.2737795275590553
11
5.0547637795275593
21
-6.3210236220472442
0
LINE
8
BLACK
6
CONTINUOUS
10
5.7755905511811019
20
-6.3105204724409445
11
5.7165354330708658
21
-6.3105204724409445
0
LINE
8
BLACK
6
CONTINUOUS
10
5.7165354330708658
20
-6.3105204724409445
11
5.7165354330708658
21
-6.28689842519685
0
LINE
8
BLACK
6
CONTINUOUS
10
5.7165354330708658
20
-6.28689842519685
11
5.7755905511811019
21
-6.28689842519685
0
LINE
8
BLACK
6
CONTINUOUS
10
5.7755905511811019
20
-6.28689842519685
11
5.7755905511811019
21
-6.3105204724409445
0
LINE
8
BLACK
6
CONTINUOUS
10
5.9881889763779528
20
-6.3105204724409445
11
5.9291338582677167
21
-6.3105204724409445
0
LINE
8
BLACK
6
CONTINUOUS
10
5.9291338582677167
20
-6.3105204724409445
11
5.9291338582677167
21
-6.28689842519685
0
LINE
8
BLACK
6
CONTINUOUS
10
5.9291338582677167
20
-6.28689842519685
11
5.9881889763779528
21
-6.28689842519685
0
LINE
8
BLACK
6
CONTINUOUS
10
5.9881889763779528
20
-6.28689842519685
11
5.9881889763779528
21
-6.3105204724409445
0
LINE
8
BLACK
6
CONTINUOUS
10
5.7755905511811019
20
-6.2605204724409447
11
5.7165354330708658
21
-6.2605204724409447
0
LINE
8
BLACK
6
CONTINUOUS
10
5.7165354330708658
20
-6.2605204724409447
11
5.7165354330708658
21
-6.2368984251968502
0
LINE
8
BLACK
6
CONTINUOUS
10
5.7165354330708658
20
-6.2368984251968502
11
5.7755905511811019
21
-6.2368984251968502
0
LINE
8
BLACK
6
CONTINUOUS
10
5.7755905511811019
20
-6.2368984251968502
11
5.7755905511811019
21
-6.2605204724409447
0
LINE
8
BLACK
6
CONTINUOUS
10
5.9881889763779528
20
-6.2605204724409447
11
5.9291338582677167
21
-6.2605204724409447
0
LINE
8
BLACK
6
CONTINUOUS
10
5.9291338582677167
20
-6.2605204724409447
11
5.9291338582677167
21
-6.2368984251968502
0
LINE
8
BLACK
6
CONTINUOUS
10
5.9291338582677167
20
-6.2368984251968502
11
5.9881889763779528
21
-6.2368984251968502
0
LINE
8
BLACK
6
CONTINUOUS
10
5.9881889763779528
20
-6.2368984251968502
11
5.9881889763779528
21
-6.2605204724409447
0
LINE
8
BLACK
6
CONTINUOUS
10
6.0721259842519686
20
-6.2499299212598425
11
6.0425984251968501
21
-6.2499299212598425
0
LINE
8
BLACK
6
CONTINUOUS
10
6.0425984251968501
20
-6.2499299212598425
11
6.0425984251968501
21
-6.2026858267716536
0
LINE
8
BLACK
6
CONTINUOUS
10
6.0425984251968501
20
-6.2026858267716536
11
6.0721259842519686
21
-6.2026858267716536
0
LINE
8
BLACK
6
CONTINUOUS
10
6.0721259842519686
20
-6.2026858267716536
11
6.0721259842519686
21
-6.2499299212598425
0
LINE
8
BLACK
6
CONTINUOUS
10
5.0547637795275593
20
-6.2462204724409451
11
5.0252362204724408
21
-6.2462204724409451
0
LINE
8
BLACK
6
CONTINUOUS
10
5.0252362204724408
20
-6.2462204724409451
11
5.0252362204724408
21
-6.1989763779527554
0
LINE
8
BLACK
6
CONTINUOUS
10
5.0252362204724408
20
-6.1989763779527554
11
5.0547637795275593
21
-6.1989763779527554
0
LINE
8
BLACK
6
CONTINUOUS
10
5.0547637795275593
20
-6.1989763779527554
11
5.0547637795275593
21
-6.2462204724409451
0
LINE
8
BLACK
6
CONTINUOUS
10
5.7755905511811019
20
-6.2105204724409449
11
5.7165354330708658
21
-6.2105204724409449
0
LINE
8
BLACK
6
CONTINUOUS
10
5.7165354330708658
20
-6.2105204724409449
11
5.7165354330708658
21
-6.1868984251968504
0
LINE
8
BLACK
6
CONTINUOUS
10
5.7165354330708658
20
-6.1868984251968504
11
5.7755905511811019
21
-6.1868984251968504
0
LINE
8
BLACK
6
CONTINUOUS
10
5.7755905511811019
20
-6.1868984251968504
11
5.7755905511811019
21
-6.2105204724409449
0
LINE
8
BLACK
6
CONTINUOUS
10
5.9881889763779528
20
-6.2105204724409449
11
5.9291338582677167
21
-6.2105204724409449
0
LINE
8
BLACK
6
CONTINUOUS
10
5.9291338582677167
20
-6.2105204724409449
11
5.9291338582677167
21
-6.1868984251968504
0
LINE
8
BLACK
6
CONTINUOUS
10
5.9291338582677167
20
-6.1868984251968504
11
5.9881889763779528
21
-6.1868984251968504
0
LINE
8
BLACK
6
CONTINUOUS
10
5.9881889763779528
20
-6.1868984251968504
11
5.9881889763779528
21
-6.2105204724409449
0
LINE
8
BLACK
6
CONTINUOUS
10
5.7755905511811019
20
-6.160520472440945
11
5.7165354330708658
21
-6.160520472440945
0
LINE
8
BLACK
6
CONTINUOUS
10
5.7165354330708658
20
-6.160520472440945
11
5.7165354330708658
21
-6.1368984251968506
0
LINE
8
BLACK
6
CONTINUOUS
10
5.7165354330708658
20
-6.1368984251968506
11
5.7755905511811019
21
-6.1368984251968506
0
LINE
8
BLACK
6
CONTINUOUS
10
5.7755905511811019
20
-6.1368984251968506
11
5.7755905511811019
21
-6.160520472440945
0
LINE
8
BLACK
6
CONTINUOUS
10
5.9881889763779528
20
-6.160520472440945
11
5.9291338582677167
21
-6.160520472440945
0
LINE
8
BLACK
6
CONTINUOUS
10
5.9291338582677167
20
-6.160520472440945
11
5.9291338582677167
21
-6.1368984251968506
0
LINE
8
BLACK
6
CONTINUOUS
10
5.9291338582677167
20
-6.1368984251968506
11
5.9881889763779528
21
-6.1368984251968506
0
LINE
8
BLACK
6
CONTINUOUS
10
5.9881889763779528
20
-6.1368984251968506
11
5.9881889763779528
21
-6.160520472440945
0
LINE
8
BLACK
6
CONTINUOUS
10
5.1491732283464566
20
-6.1156385826771649
11
5.1255511811023622
21
-6.1156385826771649
0
LINE
8
BLACK
6
CONTINUOUS
10
5.1255511811023622
20
-6.1156385826771649
11
5.1255511811023622
21
-6.0565834645669288
0
LINE
8
BLACK
6
CONTINUOUS
10
5.1255511811023622
20
-6.0565834645669288
11
5.1491732283464566
21
-6.0565834645669288
0
LINE
8
BLACK
6
CONTINUOUS
10
5.1491732283464566
20
-6.0565834645669288
11
5.1491732283464566
21
-6.1156385826771649
0
LINE
8
BLACK
6
CONTINUOUS
10
5.1991732283464565
20
-6.1156385826771649
11
5.175551181102362
21
-6.1156385826771649
0
LINE
8
BLACK
6
CONTINUOUS
10
5.175551181102362
20
-6.1156385826771649
11
5.175551181102362
21
-6.0565834645669288
0
LINE
8
BLACK
6
CONTINUOUS
10
5.175551181102362
20
-6.0565834645669288
11
5.1991732283464565
21
-6.0565834645669288
0
LINE
8
BLACK
6
CONTINUOUS
10
5.1991732283464565
20
-6.0565834645669288
11
5.1991732283464565
21
-6.1156385826771649
0
LINE
8
BLACK
6
CONTINUOUS
10
5.2491732283464563
20
-6.1156385826771649
11
5.2255511811023618
21
-6.1156385826771649
0
LINE
8
BLACK
6
CONTINUOUS
10
5.2255511811023618
20
-6.1156385826771649
11
5.2255511811023618
21
-6.0565834645669288
0
LINE
8
BLACK
6
CONTINUOUS
10
5.2255511811023618
20
-6.0565834645669288
11
5.2491732283464563
21
-6.0565834645669288
0
LINE
8
BLACK
6
CONTINUOUS
10
5.2491732283464563
20
-6.0565834645669288
11
5.2491732283464563
21
-6.1156385826771649
0
LINE
8
BLACK
6
CONTINUOUS
10
5.299173228346457
20
-6.1156385826771649
11
5.2755511811023617
21
-6.1156385826771649
0
LINE
8
BLACK
6
CONTINUOUS
10
5.2755511811023617
20
-6.1156385826771649
11
5.2755511811023617
21
-6.0565834645669288
0
LINE
8
BLACK
6
CONTINUOUS
10
5.2755511811023617
20
-6.0565834645669288
11
5.299173228346457
21
-6.0565834645669288
0
LINE
8
BLACK
6
CONTINUOUS
10
5.299173228346457
20
-6.0565834645669288
11
5.299173228346457
21
-6.1156385826771649
0
LINE
8
BLACK
6
CONTINUOUS
10
5.3491732283464568
20
-6.1156385826771649
11
5.3255511811023624
21
-6.1156385826771649
0
LINE
8
BLACK
6
CONTINUOUS
10
5.3255511811023624
20
-6.1156385826771649
11
5.3255511811023624
21
-6.0565834645669288
0
LINE
8
BLACK
6
CONTINUOUS
10
5.3255511811023624
20
-6.0565834645669288
11
5.3491732283464568
21
-6.0565834645669288
0
LINE
8
BLACK
6
CONTINUOUS
10
5.3491732283464568
20
-6.0565834645669288
11
5.3491732283464568
21
-6.1156385826771649
0
LINE
8
BLACK
6
CONTINUOUS
10
5.3991732283464566
20
-6.1156385826771649
11
5.3755511811023622
21
-6.1156385826771649
0
LINE
8
BLACK
6
CONTINUOUS
10
5.3755511811023622
20
-6.1156385826771649
11
5.3755511811023622
21
-6.0565834645669288
0
LINE
8
BLACK
6
CONTINUOUS
10
5.3755511811023622
20
-6.0565834645669288
11
5.3991732283464566
21
-6.0565834645669288
0
LINE
8
BLACK
6
CONTINUOUS
10
5.3991732283464566
20
-6.0565834645669288
11
5.3991732283464566
21
-6.1156385826771649
0
LINE
8
BLACK
6
CONTINUOUS
10
5.4491732283464565
20
-6.1156385826771649
11
5.425551181102362
21
-6.1156385826771649
0
LINE
8
BLACK
6
CONTINUOUS
10
5.425551181102362
20
-6.1156385826771649
11
5.425551181102362
21
-6.0565834645669288
0
LINE
8
BLACK
6
CONTINUOUS
10
5.425551181102362
20
-6.0565834645669288
11
5.4491732283464565
21
-6.0565834645669288
0
LINE
8
BLACK
6
CONTINUOUS
10
5.4491732283464565
20
-6.0565834645669288
11
5.4491732283464565
21
-6.1156385826771649
0
LINE
8
BLACK
6
CONTINUOUS
10
4.6618110236220476
20
-6.1125466141732279
11
4.6381889763779522
21
-6.1125466141732279
0
LINE
8
BLACK
6
CONTINUOUS
10
4.6381889763779522
20
-6.1125466141732279
11
4.6381889763779522
21
-6.0534914960629918
0
LINE
8
BLACK
6
CONTINUOUS
10
4.6381889763779522
20
-6.0534914960629918
11
4.6618110236220476
21
-6.0534914960629918
0
LINE
8
BLACK
6
CONTINUOUS
10
4.6618110236220476
20
-6.0534914960629918
11
4.6618110236220476
21
-6.1125466141732279
0
LINE
8
BLACK
6
CONTINUOUS
10
4.7118110236220474
20
-6.1125466141732279
11
4.688188976377953
21
-6.1125466141732279
0
LINE
8
BLACK
6
CONTINUOUS
10
4.688188976377953
20
-6.1125466141732279
11
4.688188976377953
21
-6.0534914960629918
0
LINE
8
BLACK
6
CONTINUOUS
10
4.688188976377953
20
-6.0534914960629918
11
4.7118110236220474
21
-6.0534914960629918
0
LINE
8
BLACK
6
CONTINUOUS
10
4.7118110236220474
20
-6.0534914960629918
11
4.7118110236220474
21
-6.1125466141732279
0
LINE
8
BLACK
6
CONTINUOUS
10
4.7618110236220472
20
-6.1125466141732279
11
4.7381889763779528
21
-6.1125466141732279
0
LINE
8
BLACK
6
CONTINUOUS
10
4.7381889763779528
20
-6.1125466141732279
11
4.7381889763779528
21
-6.0534914960629918
0
LINE
8
BLACK
6
CONTINUOUS
10
4.7381889763779528
20
-6.0534914960629918
11
4.7618110236220472
21
-6.0534914960629918
0
LINE
8
BLACK
6
CONTINUOUS
10
4.7618110236220472
20
-6.0534914960629918
11
4.7618110236220472
21
-6.1125466141732279
0
LINE
8
BLACK
6
CONTINUOUS
10
4.811811023622047
20
-6.1125466141732279
11
4.7881889763779526
21
-6.1125466141732279
0
LINE
8
BLACK
6
CONTINUOUS
10
4.7881889763779526
20
-6.1125466141732279
11
4.7881889763779526
21
-6.0534914960629918
0
LINE
8
BLACK
6
CONTINUOUS
10
4.7881889763779526
20
-6.0534914960629918
11
4.811811023622047
21
-6.0534914960629918
0
LINE
8
BLACK
6
CONTINUOUS
10
4.811811023622047
20
-6.0534914960629918
11
4.811811023622047
21
-6.1125466141732279
0
LINE
8
BLACK
6
CONTINUOUS
10
4.8618110236220469
20
-6.1125466141732279
11
4.8381889763779524
21
-6.1125466141732279
0
LINE
8
BLACK
6
CONTINUOUS
10
4.8381889763779524
20
-6.1125466141732279
11
4.8381889763779524
21
-6.0534914960629918
0
LINE
8
BLACK
6
CONTINUOUS
10
4.8381889763779524
20
-6.0534914960629918
11
4.8618110236220469
21
-6.0534914960629918
0
LINE
8
BLACK
6
CONTINUOUS
10
4.8618110236220469
20
-6.0534914960629918
11
4.8618110236220469
21
-6.1125466141732279
0
LINE
8
BLACK
6
CONTINUOUS
10
4.9118110236220467
20
-6.1125466141732279
11
4.8881889763779522
21
-6.1125466141732279
0
LINE
8
BLACK
6
CONTINUOUS
10
4.8881889763779522
20
-6.1125466141732279
11
4.8881889763779522
21
-6.0534914960629918
0
LINE
8
BLACK
6
CONTINUOUS
10
4.8881889763779522
20
-6.0534914960629918
11
4.9118110236220467
21
-6.0534914960629918
0
LINE
8
BLACK
6
CONTINUOUS
10
4.9118110236220467
20
-6.0534914960629918
11
4.9118110236220467
21
-6.1125466141732279
0
LINE
8
BLACK
6
CONTINUOUS
10
4.9618110236220474
20
-6.1125466141732279
11
4.938188976377953
21
-6.1125466141732279
0
LINE
8
BLACK
6
CONTINUOUS
10
4.938188976377953
20
-6.1125466141732279
11
4.938188976377953
21
-6.0534914960629918
0
LINE
8
BLACK
6
CONTINUOUS
10
4.938188976377953
20
-6.0534914960629918
11
4.9618110236220474
21
-6.0534914960629918
0
LINE
8
BLACK
6
CONTINUOUS
10
4.9618110236220474
20
-6.0534914960629918
11
4.9618110236220474
21
-6.1125466141732279
0
LINE
8
BLACK
6
CONTINUOUS
10
5.7755905511811019
20
-6.1105204724409443
11
5.7165354330708658
21
-6.1105204724409443
0
LINE
8
BLACK
6
CONTINUOUS
10
5.7165354330708658
20
-6.1105204724409443
11
5.7165354330708658
21
-6.0868984251968499
0
LINE
8
BLACK
6
CONTINUOUS
10
5.7165354330708658
20
-6.0868984251968499
11
5.7755905511811019
21
-6.0868984251968499
0
LINE
8
BLACK
6
CONTINUOUS
10
5.7755905511811019
20
-6.0868984251968499
11
5.7755905511811019
21
-6.1105204724409443
0
LINE
8
BLACK
6
CONTINUOUS
10
5.9881889763779528
20
-6.1105204724409443
11
5.9291338582677167
21
-6.1105204724409443
0
LINE
8
BLACK
6
CONTINUOUS
10
5.9291338582677167
20
-6.1105204724409443
11
5.9291338582677167
21
-6.0868984251968499
0
LINE
8
BLACK
6
CONTINUOUS
10
5.9291338582677167
20
-6.0868984251968499
11
5.9881889763779528
21
-6.0868984251968499
0
LINE
8
BLACK
6
CONTINUOUS
10
5.9881889763779528
20
-6.0868984251968499
11
5.9881889763779528
21
-6.1105204724409443
0
LINE
8
BLACK
6
CONTINUOUS
10
5.7755905511811019
20
-6.0605204724409445
11
5.7165354330708658
21
-6.0605204724409445
0
LINE
8
BLACK
6
CONTINUOUS
10
5.7165354330708658
20
-6.0605204724409445
11
5.7165354330708658
21
-6.03689842519685
0
LINE
8
BLACK
6
CONTINUOUS
10
5.7165354330708658
20
-6.03689842519685
11
5.7755905511811019
21
-6.03689842519685
0
LINE
8
BLACK
6
CONTINUOUS
10
5.7755905511811019
20
-6.03689842519685
11
5.7755905511811019
21
-6.0605204724409445
0
LINE
8
BLACK
6
CONTINUOUS
10
5.9881889763779528
20
-6.0605204724409445
11
5.9291338582677167
21
-6.0605204724409445
0
LINE
8
BLACK
6
CONTINUOUS
10
5.9291338582677167
20
-6.0605204724409445
11
5.9291338582677167
21
-6.03689842519685
0
LINE
8
BLACK
6
CONTINUOUS
10
5.9291338582677167
20
-6.03689842519685
11
5.9881889763779528
21
-6.03689842519685
0
LINE
8
BLACK
6
CONTINUOUS
10
5.9881889763779528
20
-6.03689842519685
11
5.9881889763779528
21
-6.0605204724409445
0
LINE
8
BLACK
6
CONTINUOUS
10
5.7755905511811019
20
-6.0105204724409447
11
5.7165354330708658
21
-6.0105204724409447
0
LINE
8
BLACK
6
CONTINUOUS
10
5.7165354330708658
20
-6.0105204724409447
11
5.7165354330708658
21
-5.9868984251968502
0
LINE
8
BLACK
6
CONTINUOUS
10
5.7165354330708658
20
-5.9868984251968502
11
5.7755905511811019
21
-5.9868984251968502
0
LINE
8
BLACK
6
CONTINUOUS
10
5.7755905511811019
20
-5.9868984251968502
11
5.7755905511811019
21
-6.0105204724409447
0
LINE
8
BLACK
6
CONTINUOUS
10
5.9881889763779528
20
-6.0105204724409447
11
5.9291338582677167
21
-6.0105204724409447
0
LINE
8
BLACK
6
CONTINUOUS
10
5.9291338582677167
20
-6.0105204724409447
11
5.9291338582677167
21
-5.9868984251968502
0
LINE
8
BLACK
6
CONTINUOUS
10
5.9291338582677167
20
-5.9868984251968502
11
5.9881889763779528
21
-5.9868984251968502
0
LINE
8
BLACK
6
CONTINUOUS
10
5.9881889763779528
20
-5.9868984251968502
11
5.9881889763779528
21
-6.0105204724409447
  0
ENDSEC
  0
EOF
