  0
SECTION
  2
HEADER
  9
$ANGBASE
  50
0.0
  9
$ANGDIR
  70
1
  9
$MEASUREMENT
  70
0
  0
ENDSEC
  0
SECTION
  2
TABLES
  0
TABLE
  2
LTYPE
  70
4
  0
LTYPE
  5
40F
  2
CONTINUOUS
  70
0
  3
Solid line
  72
65
  73
0
  40
0.0
  0
LTYPE
  5
410
  2
DASHDOT
 70
0
  3
Dash Dot ____ _ ____ _
 72
65
 73
4
 40
2.0
 49
1.25
 49
-0.25
 49
0.25
 49
-0.25
  0
LTYPE
  5
411
  2
DASHED
 70
0
  3
Dashed __ __ __ __ __
 72
65
 73
2
 40
0.75
 49
0.5
 49
-0.25
  0
LTYPE
  5
43B
  2
DOTTED
 70
0
  3
Dotted .  .  .  .
 72
65
 73
2
 40
0.2
 49
0.0
 49
-0.2
  0
ENDTAB
  0
TABLE
  2
STYLE
  70
4
  0
STYLE
  2
KICAD
  70
0
  40
0
  41
1
  42
1
  50
0
  71
0
  3
isocp.shx
  0
STYLE
  2
KICADB
  70
0
  40
0
  41
1
  42
1
  50
0
  71
0
  3
isocp.shx
  0
STYLE
  2
KICADI
  70
0
  40
0
  41
1
  42
1
  50
15
  71
0
  3
isocp.shx
  0
STYLE
  2
KICADBI
  70
0
  40
0
  41
1
  42
1
  50
15
  71
0
  3
isocp.shx
  0
ENDTAB
  0
TABLE
  2
LAYER
  70
1
  0
LAYER
  2
BLACK
  70
0
  62
7
  6
CONTINUOUS
  0
ENDTAB
  0
ENDSEC
  0
SECTION
  2
ENTITIES
0
LINE
8
BLACK
6
CONTINUOUS
10
4.4148931496062991
20
-6.7347489370078737
11
4.424451968503937
21
-6.7376974409448813
0
LINE
8
BLACK
6
CONTINUOUS
10
4.424451968503937
20
-6.7376974409448813
11
4.4334645669291337
21
-6.7420376771653538
0
LINE
8
BLACK
6
CONTINUOUS
10
4.4334645669291337
20
-6.7420376771653538
11
4.441729645669291
21
-6.7476726771653546
0
LINE
8
BLACK
6
CONTINUOUS
10
4.441729645669291
20
-6.7476726771653546
11
4.4490625196850395
21
-6.7544766141732282
0
LINE
8
BLACK
6
CONTINUOUS
10
4.4490625196850395
20
-6.7544766141732282
11
4.4552994488188977
21
-6.7622974803149605
0
LINE
8
BLACK
6
CONTINUOUS
10
4.4552994488188977
20
-6.7622974803149605
11
4.4603010629921256
21
-6.7709605511811022
0
LINE
8
BLACK
6
CONTINUOUS
10
4.4603010629921256
20
-6.7709605511811022
11
4.4639556692913382
21
-6.7802722834645666
0
LINE
8
BLACK
6
CONTINUOUS
10
4.4639556692913382
20
-6.7802722834645666
11
4.4661815748031497
21
-6.7900247244094487
0
LINE
8
BLACK
6
CONTINUOUS
10
4.4661815748031497
20
-6.7900247244094487
11
4.466929133858268
21
-6.7999999999999998
0
LINE
8
BLACK
6
CONTINUOUS
10
4.466929133858268
20
-6.7999999999999998
11
4.4661815748031497
21
-6.8099752755905509
0
LINE
8
BLACK
6
CONTINUOUS
10
4.4661815748031497
20
-6.8099752755905509
11
4.4639556692913382
21
-6.8197277165354331
0
LINE
8
BLACK
6
CONTINUOUS
10
4.4639556692913382
20
-6.8197277165354331
11
4.4603010629921256
21
-6.8290394488188975
0
LINE
8
BLACK
6
CONTINUOUS
10
4.4603010629921256
20
-6.8290394488188975
11
4.4552994488188977
21
-6.8377025196850392
0
LINE
8
BLACK
6
CONTINUOUS
10
4.4552994488188977
20
-6.8377025196850392
11
4.4490625196850395
21
-6.8455233858267714
0
LINE
8
BLACK
6
CONTINUOUS
10
4.4490625196850395
20
-6.8455233858267714
11
4.441729645669291
21
-6.8523273228346451
0
LINE
8
BLACK
6
CONTINUOUS
10
4.441729645669291
20
-6.8523273228346451
11
4.4334645669291337
21
-6.8579623228346458
0
LINE
8
BLACK
6
CONTINUOUS
10
4.4334645669291337
20
-6.8579623228346458
11
4.424451968503937
21
-6.8623025590551183
0
LINE
8
BLACK
6
CONTINUOUS
10
4.424451968503937
20
-6.8623025590551183
11
4.4148931496062991
21
-6.865251062992126
0
LINE
8
BLACK
6
CONTINUOUS
10
4.4148931496062991
20
-6.865251062992126
11
4.4050016141732282
21
-6.8667419685039368
0
LINE
8
BLACK
6
CONTINUOUS
10
4.4050016141732282
20
-6.8667419685039368
11
4.3949983858267716
21
-6.8667419685039368
0
LINE
8
BLACK
6
CONTINUOUS
10
4.3949983858267716
20
-6.8667419685039368
11
4.3851068503937007
21
-6.865251062992126
0
LINE
8
BLACK
6
CONTINUOUS
10
4.3851068503937007
20
-6.865251062992126
11
4.3755480314960629
21
-6.8623025590551183
0
LINE
8
BLACK
6
CONTINUOUS
10
4.3755480314960629
20
-6.8623025590551183
11
4.3665354330708661
21
-6.8579623228346458
0
LINE
8
BLACK
6
CONTINUOUS
10
4.3665354330708661
20
-6.8579623228346458
11
4.3582703543307089
21
-6.8523273228346451
0
LINE
8
BLACK
6
CONTINUOUS
10
4.3582703543307089
20
-6.8523273228346451
11
4.3509374803149603
21
-6.8455233858267714
0
LINE
8
BLACK
6
CONTINUOUS
10
4.3509374803149603
20
-6.8455233858267714
11
4.3447005511811021
21
-6.8377025196850392
0
LINE
8
BLACK
6
CONTINUOUS
10
4.3447005511811021
20
-6.8377025196850392
11
4.3396989370078742
21
-6.8290394488188975
0
LINE
8
BLACK
6
CONTINUOUS
10
4.3396989370078742
20
-6.8290394488188975
11
4.3360443307086616
21
-6.8197277165354331
0
LINE
8
BLACK
6
CONTINUOUS
10
4.3360443307086616
20
-6.8197277165354331
11
4.3338184251968501
21
-6.8099752755905509
0
LINE
8
BLACK
6
CONTINUOUS
10
4.3338184251968501
20
-6.8099752755905509
11
4.3330708661417319
21
-6.7999999999999998
0
LINE
8
BLACK
6
CONTINUOUS
10
4.3330708661417319
20
-6.7999999999999998
11
4.3338184251968501
21
-6.7900247244094487
0
LINE
8
BLACK
6
CONTINUOUS
10
4.3338184251968501
20
-6.7900247244094487
11
4.3360443307086616
21
-6.7802722834645666
0
LINE
8
BLACK
6
CONTINUOUS
10
4.3360443307086616
20
-6.7802722834645666
11
4.3396989370078742
21
-6.7709605511811022
0
LINE
8
BLACK
6
CONTINUOUS
10
4.3396989370078742
20
-6.7709605511811022
11
4.3447005511811021
21
-6.7622974803149605
0
LINE
8
BLACK
6
CONTINUOUS
10
4.3447005511811021
20
-6.7622974803149605
11
4.3509374803149603
21
-6.7544766141732282
0
LINE
8
BLACK
6
CONTINUOUS
10
4.3509374803149603
20
-6.7544766141732282
11
4.3582703543307089
21
-6.7476726771653546
0
LINE
8
BLACK
6
CONTINUOUS
10
4.3582703543307089
20
-6.7476726771653546
11
4.3665354330708661
21
-6.7420376771653538
0
LINE
8
BLACK
6
CONTINUOUS
10
4.3665354330708661
20
-6.7420376771653538
11
4.3755480314960629
21
-6.7376974409448813
0
LINE
8
BLACK
6
CONTINUOUS
10
4.3755480314960629
20
-6.7376974409448813
11
4.3851068503937007
21
-6.7347489370078737
0
LINE
8
BLACK
6
CONTINUOUS
10
4.3851068503937007
20
-6.7347489370078737
11
4.3949983858267716
21
-6.7332580314960628
0
LINE
8
BLACK
6
CONTINUOUS
10
4.3949983858267716
20
-6.7332580314960628
11
4.4050016141732282
21
-6.7332580314960628
0
LINE
8
BLACK
6
CONTINUOUS
10
4.4050016141732282
20
-6.7332580314960628
11
4.4148931496062991
21
-6.7347489370078737
0
LINE
8
BLACK
6
CONTINUOUS
10
6.0148931496062987
20
-6.7347489370078737
11
6.0244519685039366
21
-6.7376974409448813
0
LINE
8
BLACK
6
CONTINUOUS
10
6.0244519685039366
20
-6.7376974409448813
11
6.0334645669291334
21
-6.7420376771653538
0
LINE
8
BLACK
6
CONTINUOUS
10
6.0334645669291334
20
-6.7420376771653538
11
6.0417296456692915
21
-6.7476726771653546
0
LINE
8
BLACK
6
CONTINUOUS
10
6.0417296456692915
20
-6.7476726771653546
11
6.0490625196850392
21
-6.7544766141732282
0
LINE
8
BLACK
6
CONTINUOUS
10
6.0490625196850392
20
-6.7544766141732282
11
6.0552994488188974
21
-6.7622974803149605
0
LINE
8
BLACK
6
CONTINUOUS
10
6.0552994488188974
20
-6.7622974803149605
11
6.0603010629921261
21
-6.7709605511811022
0
LINE
8
BLACK
6
CONTINUOUS
10
6.0603010629921261
20
-6.7709605511811022
11
6.0639556692913388
21
-6.7802722834645666
0
LINE
8
BLACK
6
CONTINUOUS
10
6.0639556692913388
20
-6.7802722834645666
11
6.0661815748031493
21
-6.7900247244094487
0
LINE
8
BLACK
6
CONTINUOUS
10
6.0661815748031493
20
-6.7900247244094487
11
6.0669291338582676
21
-6.7999999999999998
0
LINE
8
BLACK
6
CONTINUOUS
10
6.0669291338582676
20
-6.7999999999999998
11
6.0661815748031493
21
-6.8099752755905509
0
LINE
8
BLACK
6
CONTINUOUS
10
6.0661815748031493
20
-6.8099752755905509
11
6.0639556692913388
21
-6.8197277165354331
0
LINE
8
BLACK
6
CONTINUOUS
10
6.0639556692913388
20
-6.8197277165354331
11
6.0603010629921261
21
-6.8290394488188975
0
LINE
8
BLACK
6
CONTINUOUS
10
6.0603010629921261
20
-6.8290394488188975
11
6.0552994488188974
21
-6.8377025196850392
0
LINE
8
BLACK
6
CONTINUOUS
10
6.0552994488188974
20
-6.8377025196850392
11
6.0490625196850392
21
-6.8455233858267714
0
LINE
8
BLACK
6
CONTINUOUS
10
6.0490625196850392
20
-6.8455233858267714
11
6.0417296456692915
21
-6.8523273228346451
0
LINE
8
BLACK
6
CONTINUOUS
10
6.0417296456692915
20
-6.8523273228346451
11
6.0334645669291334
21
-6.8579623228346458
0
LINE
8
BLACK
6
CONTINUOUS
10
6.0334645669291334
20
-6.8579623228346458
11
6.0244519685039366
21
-6.8623025590551183
0
LINE
8
BLACK
6
CONTINUOUS
10
6.0244519685039366
20
-6.8623025590551183
11
6.0148931496062987
21
-6.865251062992126
0
LINE
8
BLACK
6
CONTINUOUS
10
6.0148931496062987
20
-6.865251062992126
11
6.0050016141732279
21
-6.8667419685039368
0
LINE
8
BLACK
6
CONTINUOUS
10
6.0050016141732279
20
-6.8667419685039368
11
5.9949983858267712
21
-6.8667419685039368
0
LINE
8
BLACK
6
CONTINUOUS
10
5.9949983858267712
20
-6.8667419685039368
11
5.9851068503937004
21
-6.865251062992126
0
LINE
8
BLACK
6
CONTINUOUS
10
5.9851068503937004
20
-6.865251062992126
11
5.9755480314960625
21
-6.8623025590551183
0
LINE
8
BLACK
6
CONTINUOUS
10
5.9755480314960625
20
-6.8623025590551183
11
5.9665354330708658
21
-6.8579623228346458
0
LINE
8
BLACK
6
CONTINUOUS
10
5.9665354330708658
20
-6.8579623228346458
11
5.9582703543307085
21
-6.8523273228346451
0
LINE
8
BLACK
6
CONTINUOUS
10
5.9582703543307085
20
-6.8523273228346451
11
5.9509374803149608
21
-6.8455233858267714
0
LINE
8
BLACK
6
CONTINUOUS
10
5.9509374803149608
20
-6.8455233858267714
11
5.9447005511811026
21
-6.8377025196850392
0
LINE
8
BLACK
6
CONTINUOUS
10
5.9447005511811026
20
-6.8377025196850392
11
5.9396989370078739
21
-6.8290394488188975
0
LINE
8
BLACK
6
CONTINUOUS
10
5.9396989370078739
20
-6.8290394488188975
11
5.9360443307086612
21
-6.8197277165354331
0
LINE
8
BLACK
6
CONTINUOUS
10
5.9360443307086612
20
-6.8197277165354331
11
5.9338184251968507
21
-6.8099752755905509
0
LINE
8
BLACK
6
CONTINUOUS
10
5.9338184251968507
20
-6.8099752755905509
11
5.9330708661417324
21
-6.7999999999999998
0
LINE
8
BLACK
6
CONTINUOUS
10
5.9330708661417324
20
-6.7999999999999998
11
5.9338184251968507
21
-6.7900247244094487
0
LINE
8
BLACK
6
CONTINUOUS
10
5.9338184251968507
20
-6.7900247244094487
11
5.9360443307086612
21
-6.7802722834645666
0
LINE
8
BLACK
6
CONTINUOUS
10
5.9360443307086612
20
-6.7802722834645666
11
5.9396989370078739
21
-6.7709605511811022
0
LINE
8
BLACK
6
CONTINUOUS
10
5.9396989370078739
20
-6.7709605511811022
11
5.9447005511811026
21
-6.7622974803149605
0
LINE
8
BLACK
6
CONTINUOUS
10
5.9447005511811026
20
-6.7622974803149605
11
5.9509374803149608
21
-6.7544766141732282
0
LINE
8
BLACK
6
CONTINUOUS
10
5.9509374803149608
20
-6.7544766141732282
11
5.9582703543307085
21
-6.7476726771653546
0
LINE
8
BLACK
6
CONTINUOUS
10
5.9582703543307085
20
-6.7476726771653546
11
5.9665354330708658
21
-6.7420376771653538
0
LINE
8
BLACK
6
CONTINUOUS
10
5.9665354330708658
20
-6.7420376771653538
11
5.9755480314960625
21
-6.7376974409448813
0
LINE
8
BLACK
6
CONTINUOUS
10
5.9755480314960625
20
-6.7376974409448813
11
5.9851068503937004
21
-6.7347489370078737
0
LINE
8
BLACK
6
CONTINUOUS
10
5.9851068503937004
20
-6.7347489370078737
11
5.9949983858267712
21
-6.7332580314960628
0
LINE
8
BLACK
6
CONTINUOUS
10
5.9949983858267712
20
-6.7332580314960628
11
6.0050016141732279
21
-6.7332580314960628
0
LINE
8
BLACK
6
CONTINUOUS
10
6.0050016141732279
20
-6.7332580314960628
11
6.0148931496062987
21
-6.7347489370078737
0
LINE
8
BLACK
6
CONTINUOUS
10
5.1650132677165352
20
-6.7347253543307088
11
5.1675677559055115
21
-6.7364322440944884
0
LINE
8
BLACK
6
CONTINUOUS
10
5.1675677559055115
20
-6.7364322440944884
11
5.1692746456692911
21
-6.7389867322834647
0
LINE
8
BLACK
6
CONTINUOUS
10
5.1692746456692911
20
-6.7389867322834647
11
5.1698740157480314
21
-6.742
0
LINE
8
BLACK
6
CONTINUOUS
10
5.1698740157480314
20
-6.742
11
5.1698740157480314
21
-6.8019999999999996
0
LINE
8
BLACK
6
CONTINUOUS
10
5.1698740157480314
20
-6.8019999999999996
11
5.1692746456692911
21
-6.8050132677165349
0
LINE
8
BLACK
6
CONTINUOUS
10
5.1692746456692911
20
-6.8050132677165349
11
5.1675677559055115
21
-6.8075677559055112
0
LINE
8
BLACK
6
CONTINUOUS
10
5.1675677559055115
20
-6.8075677559055112
11
5.1650132677165352
21
-6.8092746456692907
0
LINE
8
BLACK
6
CONTINUOUS
10
5.1650132677165352
20
-6.8092746456692907
11
5.1619999999999999
21
-6.8098740157480311
0
LINE
8
BLACK
6
CONTINUOUS
10
5.1619999999999999
20
-6.8098740157480311
11
5.1020000000000003
21
-6.8098740157480311
0
LINE
8
BLACK
6
CONTINUOUS
10
5.1020000000000003
20
-6.8098740157480311
11
5.0989867322834641
21
-6.8092746456692907
0
LINE
8
BLACK
6
CONTINUOUS
10
5.0989867322834641
20
-6.8092746456692907
11
5.0964322440944878
21
-6.8075677559055112
0
LINE
8
BLACK
6
CONTINUOUS
10
5.0964322440944878
20
-6.8075677559055112
11
5.0947253543307083
21
-6.8050132677165349
0
LINE
8
BLACK
6
CONTINUOUS
10
5.0947253543307083
20
-6.8050132677165349
11
5.0941259842519688
21
-6.8019999999999996
0
LINE
8
BLACK
6
CONTINUOUS
10
5.0941259842519688
20
-6.8019999999999996
11
5.0941259842519688
21
-6.742
0
LINE
8
BLACK
6
CONTINUOUS
10
5.0941259842519688
20
-6.742
11
5.0947253543307083
21
-6.7389867322834647
0
LINE
8
BLACK
6
CONTINUOUS
10
5.0947253543307083
20
-6.7389867322834647
11
5.0964322440944878
21
-6.7364322440944884
0
LINE
8
BLACK
6
CONTINUOUS
10
5.0964322440944878
20
-6.7364322440944884
11
5.0989867322834641
21
-6.7347253543307088
0
LINE
8
BLACK
6
CONTINUOUS
10
5.0989867322834641
20
-6.7347253543307088
11
5.1020000000000003
21
-6.7341259842519685
0
LINE
8
BLACK
6
CONTINUOUS
10
5.1020000000000003
20
-6.7341259842519685
11
5.1619999999999999
21
-6.7341259842519685
0
LINE
8
BLACK
6
CONTINUOUS
10
5.1619999999999999
20
-6.7341259842519685
11
5.1650132677165352
21
-6.7347253543307088
0
LINE
8
BLACK
6
CONTINUOUS
10
5.2650132677165349
20
-6.7347253543307088
11
5.2675677559055121
21
-6.7364322440944884
0
LINE
8
BLACK
6
CONTINUOUS
10
5.2675677559055121
20
-6.7364322440944884
11
5.2692746456692916
21
-6.7389867322834647
0
LINE
8
BLACK
6
CONTINUOUS
10
5.2692746456692916
20
-6.7389867322834647
11
5.269874015748031
21
-6.742
0
LINE
8
BLACK
6
CONTINUOUS
10
5.269874015748031
20
-6.742
11
5.269874015748031
21
-6.8019999999999996
0
LINE
8
BLACK
6
CONTINUOUS
10
5.269874015748031
20
-6.8019999999999996
11
5.2692746456692916
21
-6.8050132677165349
0
LINE
8
BLACK
6
CONTINUOUS
10
5.2692746456692916
20
-6.8050132677165349
11
5.2675677559055121
21
-6.8075677559055112
0
LINE
8
BLACK
6
CONTINUOUS
10
5.2675677559055121
20
-6.8075677559055112
11
5.2650132677165349
21
-6.8092746456692907
0
LINE
8
BLACK
6
CONTINUOUS
10
5.2650132677165349
20
-6.8092746456692907
11
5.2619999999999996
21
-6.8098740157480311
0
LINE
8
BLACK
6
CONTINUOUS
10
5.2619999999999996
20
-6.8098740157480311
11
5.202
21
-6.8098740157480311
0
LINE
8
BLACK
6
CONTINUOUS
10
5.202
20
-6.8098740157480311
11
5.1989867322834646
21
-6.8092746456692907
0
LINE
8
BLACK
6
CONTINUOUS
10
5.1989867322834646
20
-6.8092746456692907
11
5.1964322440944883
21
-6.8075677559055112
0
LINE
8
BLACK
6
CONTINUOUS
10
5.1964322440944883
20
-6.8075677559055112
11
5.1947253543307088
21
-6.8050132677165349
0
LINE
8
BLACK
6
CONTINUOUS
10
5.1947253543307088
20
-6.8050132677165349
11
5.1941259842519685
21
-6.8019999999999996
0
LINE
8
BLACK
6
CONTINUOUS
10
5.1941259842519685
20
-6.8019999999999996
11
5.1941259842519685
21
-6.742
0
LINE
8
BLACK
6
CONTINUOUS
10
5.1941259842519685
20
-6.742
11
5.1947253543307088
21
-6.7389867322834647
0
LINE
8
BLACK
6
CONTINUOUS
10
5.1947253543307088
20
-6.7389867322834647
11
5.1964322440944883
21
-6.7364322440944884
0
LINE
8
BLACK
6
CONTINUOUS
10
5.1964322440944883
20
-6.7364322440944884
11
5.1989867322834646
21
-6.7347253543307088
0
LINE
8
BLACK
6
CONTINUOUS
10
5.1989867322834646
20
-6.7347253543307088
11
5.202
21
-6.7341259842519685
0
LINE
8
BLACK
6
CONTINUOUS
10
5.202
20
-6.7341259842519685
11
5.2619999999999996
21
-6.7341259842519685
0
LINE
8
BLACK
6
CONTINUOUS
10
5.2619999999999996
20
-6.7341259842519685
11
5.2650132677165349
21
-6.7347253543307088
0
LINE
8
BLACK
6
CONTINUOUS
10
5.3650132677165354
20
-6.7347253543307088
11
5.3675677559055117
21
-6.7364322440944884
0
LINE
8
BLACK
6
CONTINUOUS
10
5.3675677559055117
20
-6.7364322440944884
11
5.3692746456692912
21
-6.7389867322834647
0
LINE
8
BLACK
6
CONTINUOUS
10
5.3692746456692912
20
-6.7389867322834647
11
5.3698740157480316
21
-6.742
0
LINE
8
BLACK
6
CONTINUOUS
10
5.3698740157480316
20
-6.742
11
5.3698740157480316
21
-6.8019999999999996
0
LINE
8
BLACK
6
CONTINUOUS
10
5.3698740157480316
20
-6.8019999999999996
11
5.3692746456692912
21
-6.8050132677165349
0
LINE
8
BLACK
6
CONTINUOUS
10
5.3692746456692912
20
-6.8050132677165349
11
5.3675677559055117
21
-6.8075677559055112
0
LINE
8
BLACK
6
CONTINUOUS
10
5.3675677559055117
20
-6.8075677559055112
11
5.3650132677165354
21
-6.8092746456692907
0
LINE
8
BLACK
6
CONTINUOUS
10
5.3650132677165354
20
-6.8092746456692907
11
5.3620000000000001
21
-6.8098740157480311
0
LINE
8
BLACK
6
CONTINUOUS
10
5.3620000000000001
20
-6.8098740157480311
11
5.3019999999999996
21
-6.8098740157480311
0
LINE
8
BLACK
6
CONTINUOUS
10
5.3019999999999996
20
-6.8098740157480311
11
5.2989867322834643
21
-6.8092746456692907
0
LINE
8
BLACK
6
CONTINUOUS
10
5.2989867322834643
20
-6.8092746456692907
11
5.296432244094488
21
-6.8075677559055112
0
LINE
8
BLACK
6
CONTINUOUS
10
5.296432244094488
20
-6.8075677559055112
11
5.2947253543307085
21
-6.8050132677165349
0
LINE
8
BLACK
6
CONTINUOUS
10
5.2947253543307085
20
-6.8050132677165349
11
5.2941259842519681
21
-6.8019999999999996
0
LINE
8
BLACK
6
CONTINUOUS
10
5.2941259842519681
20
-6.8019999999999996
11
5.2941259842519681
21
-6.742
0
LINE
8
BLACK
6
CONTINUOUS
10
5.2941259842519681
20
-6.742
11
5.2947253543307085
21
-6.7389867322834647
0
LINE
8
BLACK
6
CONTINUOUS
10
5.2947253543307085
20
-6.7389867322834647
11
5.296432244094488
21
-6.7364322440944884
0
LINE
8
BLACK
6
CONTINUOUS
10
5.296432244094488
20
-6.7364322440944884
11
5.2989867322834643
21
-6.7347253543307088
0
LINE
8
BLACK
6
CONTINUOUS
10
5.2989867322834643
20
-6.7347253543307088
11
5.3019999999999996
21
-6.7341259842519685
0
LINE
8
BLACK
6
CONTINUOUS
10
5.3019999999999996
20
-6.7341259842519685
11
5.3620000000000001
21
-6.7341259842519685
0
LINE
8
BLACK
6
CONTINUOUS
10
5.3620000000000001
20
-6.7341259842519685
11
5.3650132677165354
21
-6.7347253543307088
0
LINE
8
BLACK
6
CONTINUOUS
10
5.1650132677165352
20
-6.6347253543307083
11
5.1675677559055115
21
-6.6364322440944878
0
LINE
8
BLACK
6
CONTINUOUS
10
5.1675677559055115
20
-6.6364322440944878
11
5.1692746456692911
21
-6.6389867322834641
0
LINE
8
BLACK
6
CONTINUOUS
10
5.1692746456692911
20
-6.6389867322834641
11
5.1698740157480314
21
-6.6419999999999995
0
LINE
8
BLACK
6
CONTINUOUS
10
5.1698740157480314
20
-6.6419999999999995
11
5.1698740157480314
21
-6.702
0
LINE
8
BLACK
6
CONTINUOUS
10
5.1698740157480314
20
-6.702
11
5.1692746456692911
21
-6.7050132677165353
0
LINE
8
BLACK
6
CONTINUOUS
10
5.1692746456692911
20
-6.7050132677165353
11
5.1675677559055115
21
-6.7075677559055116
0
LINE
8
BLACK
6
CONTINUOUS
10
5.1675677559055115
20
-6.7075677559055116
11
5.1650132677165352
21
-6.7092746456692911
0
LINE
8
BLACK
6
CONTINUOUS
10
5.1650132677165352
20
-6.7092746456692911
11
5.1619999999999999
21
-6.7098740157480314
0
LINE
8
BLACK
6
CONTINUOUS
10
5.1619999999999999
20
-6.7098740157480314
11
5.1020000000000003
21
-6.7098740157480314
0
LINE
8
BLACK
6
CONTINUOUS
10
5.1020000000000003
20
-6.7098740157480314
11
5.0989867322834641
21
-6.7092746456692911
0
LINE
8
BLACK
6
CONTINUOUS
10
5.0989867322834641
20
-6.7092746456692911
11
5.0964322440944878
21
-6.7075677559055116
0
LINE
8
BLACK
6
CONTINUOUS
10
5.0964322440944878
20
-6.7075677559055116
11
5.0947253543307083
21
-6.7050132677165353
0
LINE
8
BLACK
6
CONTINUOUS
10
5.0947253543307083
20
-6.7050132677165353
11
5.0941259842519688
21
-6.702
0
LINE
8
BLACK
6
CONTINUOUS
10
5.0941259842519688
20
-6.702
11
5.0941259842519688
21
-6.6419999999999995
0
LINE
8
BLACK
6
CONTINUOUS
10
5.0941259842519688
20
-6.6419999999999995
11
5.0947253543307083
21
-6.6389867322834641
0
LINE
8
BLACK
6
CONTINUOUS
10
5.0947253543307083
20
-6.6389867322834641
11
5.0964322440944878
21
-6.6364322440944878
0
LINE
8
BLACK
6
CONTINUOUS
10
5.0964322440944878
20
-6.6364322440944878
11
5.0989867322834641
21
-6.6347253543307083
0
LINE
8
BLACK
6
CONTINUOUS
10
5.0989867322834641
20
-6.6347253543307083
11
5.1020000000000003
21
-6.634125984251968
0
LINE
8
BLACK
6
CONTINUOUS
10
5.1020000000000003
20
-6.634125984251968
11
5.1619999999999999
21
-6.634125984251968
0
LINE
8
BLACK
6
CONTINUOUS
10
5.1619999999999999
20
-6.634125984251968
11
5.1650132677165352
21
-6.6347253543307083
0
LINE
8
BLACK
6
CONTINUOUS
10
5.2650132677165349
20
-6.6347253543307083
11
5.2675677559055121
21
-6.6364322440944878
0
LINE
8
BLACK
6
CONTINUOUS
10
5.2675677559055121
20
-6.6364322440944878
11
5.2692746456692916
21
-6.6389867322834641
0
LINE
8
BLACK
6
CONTINUOUS
10
5.2692746456692916
20
-6.6389867322834641
11
5.269874015748031
21
-6.6419999999999995
0
LINE
8
BLACK
6
CONTINUOUS
10
5.269874015748031
20
-6.6419999999999995
11
5.269874015748031
21
-6.702
0
LINE
8
BLACK
6
CONTINUOUS
10
5.269874015748031
20
-6.702
11
5.2692746456692916
21
-6.7050132677165353
0
LINE
8
BLACK
6
CONTINUOUS
10
5.2692746456692916
20
-6.7050132677165353
11
5.2675677559055121
21
-6.7075677559055116
0
LINE
8
BLACK
6
CONTINUOUS
10
5.2675677559055121
20
-6.7075677559055116
11
5.2650132677165349
21
-6.7092746456692911
0
LINE
8
BLACK
6
CONTINUOUS
10
5.2650132677165349
20
-6.7092746456692911
11
5.2619999999999996
21
-6.7098740157480314
0
LINE
8
BLACK
6
CONTINUOUS
10
5.2619999999999996
20
-6.7098740157480314
11
5.202
21
-6.7098740157480314
0
LINE
8
BLACK
6
CONTINUOUS
10
5.202
20
-6.7098740157480314
11
5.1989867322834646
21
-6.7092746456692911
0
LINE
8
BLACK
6
CONTINUOUS
10
5.1989867322834646
20
-6.7092746456692911
11
5.1964322440944883
21
-6.7075677559055116
0
LINE
8
BLACK
6
CONTINUOUS
10
5.1964322440944883
20
-6.7075677559055116
11
5.1947253543307088
21
-6.7050132677165353
0
LINE
8
BLACK
6
CONTINUOUS
10
5.1947253543307088
20
-6.7050132677165353
11
5.1941259842519685
21
-6.702
0
LINE
8
BLACK
6
CONTINUOUS
10
5.1941259842519685
20
-6.702
11
5.1941259842519685
21
-6.6419999999999995
0
LINE
8
BLACK
6
CONTINUOUS
10
5.1941259842519685
20
-6.6419999999999995
11
5.1947253543307088
21
-6.6389867322834641
0
LINE
8
BLACK
6
CONTINUOUS
10
5.1947253543307088
20
-6.6389867322834641
11
5.1964322440944883
21
-6.6364322440944878
0
LINE
8
BLACK
6
CONTINUOUS
10
5.1964322440944883
20
-6.6364322440944878
11
5.1989867322834646
21
-6.6347253543307083
0
LINE
8
BLACK
6
CONTINUOUS
10
5.1989867322834646
20
-6.6347253543307083
11
5.202
21
-6.634125984251968
0
LINE
8
BLACK
6
CONTINUOUS
10
5.202
20
-6.634125984251968
11
5.2619999999999996
21
-6.634125984251968
0
LINE
8
BLACK
6
CONTINUOUS
10
5.2619999999999996
20
-6.634125984251968
11
5.2650132677165349
21
-6.6347253543307083
0
LINE
8
BLACK
6
CONTINUOUS
10
5.3650132677165354
20
-6.6347253543307083
11
5.3675677559055117
21
-6.6364322440944878
0
LINE
8
BLACK
6
CONTINUOUS
10
5.3675677559055117
20
-6.6364322440944878
11
5.3692746456692912
21
-6.6389867322834641
0
LINE
8
BLACK
6
CONTINUOUS
10
5.3692746456692912
20
-6.6389867322834641
11
5.3698740157480316
21
-6.6419999999999995
0
LINE
8
BLACK
6
CONTINUOUS
10
5.3698740157480316
20
-6.6419999999999995
11
5.3698740157480316
21
-6.702
0
LINE
8
BLACK
6
CONTINUOUS
10
5.3698740157480316
20
-6.702
11
5.3692746456692912
21
-6.7050132677165353
0
LINE
8
BLACK
6
CONTINUOUS
10
5.3692746456692912
20
-6.7050132677165353
11
5.3675677559055117
21
-6.7075677559055116
0
LINE
8
BLACK
6
CONTINUOUS
10
5.3675677559055117
20
-6.7075677559055116
11
5.3650132677165354
21
-6.7092746456692911
0
LINE
8
BLACK
6
CONTINUOUS
10
5.3650132677165354
20
-6.7092746456692911
11
5.3620000000000001
21
-6.7098740157480314
0
LINE
8
BLACK
6
CONTINUOUS
10
5.3620000000000001
20
-6.7098740157480314
11
5.3019999999999996
21
-6.7098740157480314
0
LINE
8
BLACK
6
CONTINUOUS
10
5.3019999999999996
20
-6.7098740157480314
11
5.2989867322834643
21
-6.7092746456692911
0
LINE
8
BLACK
6
CONTINUOUS
10
5.2989867322834643
20
-6.7092746456692911
11
5.296432244094488
21
-6.7075677559055116
0
LINE
8
BLACK
6
CONTINUOUS
10
5.296432244094488
20
-6.7075677559055116
11
5.2947253543307085
21
-6.7050132677165353
0
LINE
8
BLACK
6
CONTINUOUS
10
5.2947253543307085
20
-6.7050132677165353
11
5.2941259842519681
21
-6.702
0
LINE
8
BLACK
6
CONTINUOUS
10
5.2941259842519681
20
-6.702
11
5.2941259842519681
21
-6.6419999999999995
0
LINE
8
BLACK
6
CONTINUOUS
10
5.2941259842519681
20
-6.6419999999999995
11
5.2947253543307085
21
-6.6389867322834641
0
LINE
8
BLACK
6
CONTINUOUS
10
5.2947253543307085
20
-6.6389867322834641
11
5.296432244094488
21
-6.6364322440944878
0
LINE
8
BLACK
6
CONTINUOUS
10
5.296432244094488
20
-6.6364322440944878
11
5.2989867322834643
21
-6.6347253543307083
0
LINE
8
BLACK
6
CONTINUOUS
10
5.2989867322834643
20
-6.6347253543307083
11
5.3019999999999996
21
-6.634125984251968
0
LINE
8
BLACK
6
CONTINUOUS
10
5.3019999999999996
20
-6.634125984251968
11
5.3620000000000001
21
-6.634125984251968
0
LINE
8
BLACK
6
CONTINUOUS
10
5.3620000000000001
20
-6.634125984251968
11
5.3650132677165354
21
-6.6347253543307083
0
LINE
8
BLACK
6
CONTINUOUS
10
4.4530132677165355
20
-6.197576535433071
11
4.4555677559055118
21
-6.1992834251968505
0
LINE
8
BLACK
6
CONTINUOUS
10
4.4555677559055118
20
-6.1992834251968505
11
4.4572746456692913
21
-6.2018379133858268
0
LINE
8
BLACK
6
CONTINUOUS
10
4.4572746456692913
20
-6.2018379133858268
11
4.4578740157480317
21
-6.2048511811023621
0
LINE
8
BLACK
6
CONTINUOUS
10
4.4578740157480317
20
-6.2048511811023621
11
4.4578740157480317
21
-6.2648511811023617
0
LINE
8
BLACK
6
CONTINUOUS
10
4.4578740157480317
20
-6.2648511811023617
11
4.4572746456692913
21
-6.2678644488188979
0
LINE
8
BLACK
6
CONTINUOUS
10
4.4572746456692913
20
-6.2678644488188979
11
4.4555677559055118
21
-6.2704189370078742
0
LINE
8
BLACK
6
CONTINUOUS
10
4.4555677559055118
20
-6.2704189370078742
11
4.4530132677165355
21
-6.2721258267716538
0
LINE
8
BLACK
6
CONTINUOUS
10
4.4530132677165355
20
-6.2721258267716538
11
4.4500000000000002
21
-6.2727251968503932
0
LINE
8
BLACK
6
CONTINUOUS
10
4.4500000000000002
20
-6.2727251968503932
11
4.3899999999999997
21
-6.2727251968503932
0
LINE
8
BLACK
6
CONTINUOUS
10
4.3899999999999997
20
-6.2727251968503932
11
4.3869867322834644
21
-6.2721258267716538
0
LINE
8
BLACK
6
CONTINUOUS
10
4.3869867322834644
20
-6.2721258267716538
11
4.3844322440944881
21
-6.2704189370078742
0
LINE
8
BLACK
6
CONTINUOUS
10
4.3844322440944881
20
-6.2704189370078742
11
4.3827253543307085
21
-6.2678644488188979
0
LINE
8
BLACK
6
CONTINUOUS
10
4.3827253543307085
20
-6.2678644488188979
11
4.3821259842519682
21
-6.2648511811023617
0
LINE
8
BLACK
6
CONTINUOUS
10
4.3821259842519682
20
-6.2648511811023617
11
4.3821259842519682
21
-6.2048511811023621
0
LINE
8
BLACK
6
CONTINUOUS
10
4.3821259842519682
20
-6.2048511811023621
11
4.3827253543307085
21
-6.2018379133858268
0
LINE
8
BLACK
6
CONTINUOUS
10
4.3827253543307085
20
-6.2018379133858268
11
4.3844322440944881
21
-6.1992834251968505
0
LINE
8
BLACK
6
CONTINUOUS
10
4.3844322440944881
20
-6.1992834251968505
11
4.3869867322834644
21
-6.197576535433071
0
LINE
8
BLACK
6
CONTINUOUS
10
4.3869867322834644
20
-6.197576535433071
11
4.3899999999999997
21
-6.1969771653543306
0
LINE
8
BLACK
6
CONTINUOUS
10
4.3899999999999997
20
-6.1969771653543306
11
4.4500000000000002
21
-6.1969771653543306
0
LINE
8
BLACK
6
CONTINUOUS
10
4.4500000000000002
20
-6.1969771653543306
11
4.4530132677165355
21
-6.197576535433071
0
LINE
8
BLACK
6
CONTINUOUS
10
4.5530132677165351
20
-6.197576535433071
11
4.5555677559055114
21
-6.1992834251968505
0
LINE
8
BLACK
6
CONTINUOUS
10
4.5555677559055114
20
-6.1992834251968505
11
4.557274645669291
21
-6.2018379133858268
0
LINE
8
BLACK
6
CONTINUOUS
10
4.557274645669291
20
-6.2018379133858268
11
4.5578740157480313
21
-6.2048511811023621
0
LINE
8
BLACK
6
CONTINUOUS
10
4.5578740157480313
20
-6.2048511811023621
11
4.5578740157480313
21
-6.2648511811023617
0
LINE
8
BLACK
6
CONTINUOUS
10
4.5578740157480313
20
-6.2648511811023617
11
4.557274645669291
21
-6.2678644488188979
0
LINE
8
BLACK
6
CONTINUOUS
10
4.557274645669291
20
-6.2678644488188979
11
4.5555677559055114
21
-6.2704189370078742
0
LINE
8
BLACK
6
CONTINUOUS
10
4.5555677559055114
20
-6.2704189370078742
11
4.5530132677165351
21
-6.2721258267716538
0
LINE
8
BLACK
6
CONTINUOUS
10
4.5530132677165351
20
-6.2721258267716538
11
4.5499999999999998
21
-6.2727251968503932
0
LINE
8
BLACK
6
CONTINUOUS
10
4.5499999999999998
20
-6.2727251968503932
11
4.4900000000000002
21
-6.2727251968503932
0
LINE
8
BLACK
6
CONTINUOUS
10
4.4900000000000002
20
-6.2727251968503932
11
4.4869867322834649
21
-6.2721258267716538
0
LINE
8
BLACK
6
CONTINUOUS
10
4.4869867322834649
20
-6.2721258267716538
11
4.4844322440944877
21
-6.2704189370078742
0
LINE
8
BLACK
6
CONTINUOUS
10
4.4844322440944877
20
-6.2704189370078742
11
4.4827253543307082
21
-6.2678644488188979
0
LINE
8
BLACK
6
CONTINUOUS
10
4.4827253543307082
20
-6.2678644488188979
11
4.4821259842519687
21
-6.2648511811023617
0
LINE
8
BLACK
6
CONTINUOUS
10
4.4821259842519687
20
-6.2648511811023617
11
4.4821259842519687
21
-6.2048511811023621
0
LINE
8
BLACK
6
CONTINUOUS
10
4.4821259842519687
20
-6.2048511811023621
11
4.4827253543307082
21
-6.2018379133858268
0
LINE
8
BLACK
6
CONTINUOUS
10
4.4827253543307082
20
-6.2018379133858268
11
4.4844322440944877
21
-6.1992834251968505
0
LINE
8
BLACK
6
CONTINUOUS
10
4.4844322440944877
20
-6.1992834251968505
11
4.4869867322834649
21
-6.197576535433071
0
LINE
8
BLACK
6
CONTINUOUS
10
4.4869867322834649
20
-6.197576535433071
11
4.4900000000000002
21
-6.1969771653543306
0
LINE
8
BLACK
6
CONTINUOUS
10
4.4900000000000002
20
-6.1969771653543306
11
4.5499999999999998
21
-6.1969771653543306
0
LINE
8
BLACK
6
CONTINUOUS
10
4.5499999999999998
20
-6.1969771653543306
11
4.5530132677165351
21
-6.197576535433071
0
LINE
8
BLACK
6
CONTINUOUS
10
4.4530132677165355
20
-6.0975765354330704
11
4.4555677559055118
21
-6.09928342519685
0
LINE
8
BLACK
6
CONTINUOUS
10
4.4555677559055118
20
-6.09928342519685
11
4.4572746456692913
21
-6.1018379133858263
0
LINE
8
BLACK
6
CONTINUOUS
10
4.4572746456692913
20
-6.1018379133858263
11
4.4578740157480317
21
-6.1048511811023625
0
LINE
8
BLACK
6
CONTINUOUS
10
4.4578740157480317
20
-6.1048511811023625
11
4.4578740157480317
21
-6.1648511811023621
0
LINE
8
BLACK
6
CONTINUOUS
10
4.4578740157480317
20
-6.1648511811023621
11
4.4572746456692913
21
-6.1678644488188974
0
LINE
8
BLACK
6
CONTINUOUS
10
4.4572746456692913
20
-6.1678644488188974
11
4.4555677559055118
21
-6.1704189370078737
0
LINE
8
BLACK
6
CONTINUOUS
10
4.4555677559055118
20
-6.1704189370078737
11
4.4530132677165355
21
-6.1721258267716532
0
LINE
8
BLACK
6
CONTINUOUS
10
4.4530132677165355
20
-6.1721258267716532
11
4.4500000000000002
21
-6.1727251968503936
0
LINE
8
BLACK
6
CONTINUOUS
10
4.4500000000000002
20
-6.1727251968503936
11
4.3899999999999997
21
-6.1727251968503936
0
LINE
8
BLACK
6
CONTINUOUS
10
4.3899999999999997
20
-6.1727251968503936
11
4.3869867322834644
21
-6.1721258267716532
0
LINE
8
BLACK
6
CONTINUOUS
10
4.3869867322834644
20
-6.1721258267716532
11
4.3844322440944881
21
-6.1704189370078737
0
LINE
8
BLACK
6
CONTINUOUS
10
4.3844322440944881
20
-6.1704189370078737
11
4.3827253543307085
21
-6.1678644488188974
0
LINE
8
BLACK
6
CONTINUOUS
10
4.3827253543307085
20
-6.1678644488188974
11
4.3821259842519682
21
-6.1648511811023621
0
LINE
8
BLACK
6
CONTINUOUS
10
4.3821259842519682
20
-6.1648511811023621
11
4.3821259842519682
21
-6.1048511811023625
0
LINE
8
BLACK
6
CONTINUOUS
10
4.3821259842519682
20
-6.1048511811023625
11
4.3827253543307085
21
-6.1018379133858263
0
LINE
8
BLACK
6
CONTINUOUS
10
4.3827253543307085
20
-6.1018379133858263
11
4.3844322440944881
21
-6.09928342519685
0
LINE
8
BLACK
6
CONTINUOUS
10
4.3844322440944881
20
-6.09928342519685
11
4.3869867322834644
21
-6.0975765354330704
0
LINE
8
BLACK
6
CONTINUOUS
10
4.3869867322834644
20
-6.0975765354330704
11
4.3899999999999997
21
-6.096977165354331
0
LINE
8
BLACK
6
CONTINUOUS
10
4.3899999999999997
20
-6.096977165354331
11
4.4500000000000002
21
-6.096977165354331
0
LINE
8
BLACK
6
CONTINUOUS
10
4.4500000000000002
20
-6.096977165354331
11
4.4530132677165355
21
-6.0975765354330704
0
LINE
8
BLACK
6
CONTINUOUS
10
4.5530132677165351
20
-6.0975765354330704
11
4.5555677559055114
21
-6.09928342519685
0
LINE
8
BLACK
6
CONTINUOUS
10
4.5555677559055114
20
-6.09928342519685
11
4.557274645669291
21
-6.1018379133858263
0
LINE
8
BLACK
6
CONTINUOUS
10
4.557274645669291
20
-6.1018379133858263
11
4.5578740157480313
21
-6.1048511811023625
0
LINE
8
BLACK
6
CONTINUOUS
10
4.5578740157480313
20
-6.1048511811023625
11
4.5578740157480313
21
-6.1648511811023621
0
LINE
8
BLACK
6
CONTINUOUS
10
4.5578740157480313
20
-6.1648511811023621
11
4.557274645669291
21
-6.1678644488188974
0
LINE
8
BLACK
6
CONTINUOUS
10
4.557274645669291
20
-6.1678644488188974
11
4.5555677559055114
21
-6.1704189370078737
0
LINE
8
BLACK
6
CONTINUOUS
10
4.5555677559055114
20
-6.1704189370078737
11
4.5530132677165351
21
-6.1721258267716532
0
LINE
8
BLACK
6
CONTINUOUS
10
4.5530132677165351
20
-6.1721258267716532
11
4.5499999999999998
21
-6.1727251968503936
0
LINE
8
BLACK
6
CONTINUOUS
10
4.5499999999999998
20
-6.1727251968503936
11
4.4900000000000002
21
-6.1727251968503936
0
LINE
8
BLACK
6
CONTINUOUS
10
4.4900000000000002
20
-6.1727251968503936
11
4.4869867322834649
21
-6.1721258267716532
0
LINE
8
BLACK
6
CONTINUOUS
10
4.4869867322834649
20
-6.1721258267716532
11
4.4844322440944877
21
-6.1704189370078737
0
LINE
8
BLACK
6
CONTINUOUS
10
4.4844322440944877
20
-6.1704189370078737
11
4.4827253543307082
21
-6.1678644488188974
0
LINE
8
BLACK
6
CONTINUOUS
10
4.4827253543307082
20
-6.1678644488188974
11
4.4821259842519687
21
-6.1648511811023621
0
LINE
8
BLACK
6
CONTINUOUS
10
4.4821259842519687
20
-6.1648511811023621
11
4.4821259842519687
21
-6.1048511811023625
0
LINE
8
BLACK
6
CONTINUOUS
10
4.4821259842519687
20
-6.1048511811023625
11
4.4827253543307082
21
-6.1018379133858263
0
LINE
8
BLACK
6
CONTINUOUS
10
4.4827253543307082
20
-6.1018379133858263
11
4.4844322440944877
21
-6.09928342519685
0
LINE
8
BLACK
6
CONTINUOUS
10
4.4844322440944877
20
-6.09928342519685
11
4.4869867322834649
21
-6.0975765354330704
0
LINE
8
BLACK
6
CONTINUOUS
10
4.4869867322834649
20
-6.0975765354330704
11
4.4900000000000002
21
-6.096977165354331
0
LINE
8
BLACK
6
CONTINUOUS
10
4.4900000000000002
20
-6.096977165354331
11
4.5499999999999998
21
-6.096977165354331
0
LINE
8
BLACK
6
CONTINUOUS
10
4.5499999999999998
20
-6.096977165354331
11
4.5530132677165351
21
-6.0975765354330704
0
LINE
8
BLACK
6
CONTINUOUS
10
4.4530132677165355
20
-5.9975765354330708
11
4.4555677559055118
21
-5.9992834251968503
0
LINE
8
BLACK
6
CONTINUOUS
10
4.4555677559055118
20
-5.9992834251968503
11
4.4572746456692913
21
-6.0018379133858266
0
LINE
8
BLACK
6
CONTINUOUS
10
4.4572746456692913
20
-6.0018379133858266
11
4.4578740157480317
21
-6.0048511811023619
0
LINE
8
BLACK
6
CONTINUOUS
10
4.4578740157480317
20
-6.0048511811023619
11
4.4578740157480317
21
-6.0648511811023624
0
LINE
8
BLACK
6
CONTINUOUS
10
4.4578740157480317
20
-6.0648511811023624
11
4.4572746456692913
21
-6.0678644488188977
0
LINE
8
BLACK
6
CONTINUOUS
10
4.4572746456692913
20
-6.0678644488188977
11
4.4555677559055118
21
-6.070418937007874
0
LINE
8
BLACK
6
CONTINUOUS
10
4.4555677559055118
20
-6.070418937007874
11
4.4530132677165355
21
-6.0721258267716536
0
LINE
8
BLACK
6
CONTINUOUS
10
4.4530132677165355
20
-6.0721258267716536
11
4.4500000000000002
21
-6.0727251968503939
0
LINE
8
BLACK
6
CONTINUOUS
10
4.4500000000000002
20
-6.0727251968503939
11
4.3899999999999997
21
-6.0727251968503939
0
LINE
8
BLACK
6
CONTINUOUS
10
4.3899999999999997
20
-6.0727251968503939
11
4.3869867322834644
21
-6.0721258267716536
0
LINE
8
BLACK
6
CONTINUOUS
10
4.3869867322834644
20
-6.0721258267716536
11
4.3844322440944881
21
-6.070418937007874
0
LINE
8
BLACK
6
CONTINUOUS
10
4.3844322440944881
20
-6.070418937007874
11
4.3827253543307085
21
-6.0678644488188977
0
LINE
8
BLACK
6
CONTINUOUS
10
4.3827253543307085
20
-6.0678644488188977
11
4.3821259842519682
21
-6.0648511811023624
0
LINE
8
BLACK
6
CONTINUOUS
10
4.3821259842519682
20
-6.0648511811023624
11
4.3821259842519682
21
-6.0048511811023619
0
LINE
8
BLACK
6
CONTINUOUS
10
4.3821259842519682
20
-6.0048511811023619
11
4.3827253543307085
21
-6.0018379133858266
0
LINE
8
BLACK
6
CONTINUOUS
10
4.3827253543307085
20
-6.0018379133858266
11
4.3844322440944881
21
-5.9992834251968503
0
LINE
8
BLACK
6
CONTINUOUS
10
4.3844322440944881
20
-5.9992834251968503
11
4.3869867322834644
21
-5.9975765354330708
0
LINE
8
BLACK
6
CONTINUOUS
10
4.3869867322834644
20
-5.9975765354330708
11
4.3899999999999997
21
-5.9969771653543305
0
LINE
8
BLACK
6
CONTINUOUS
10
4.3899999999999997
20
-5.9969771653543305
11
4.4500000000000002
21
-5.9969771653543305
0
LINE
8
BLACK
6
CONTINUOUS
10
4.4500000000000002
20
-5.9969771653543305
11
4.4530132677165355
21
-5.9975765354330708
0
LINE
8
BLACK
6
CONTINUOUS
10
4.5530132677165351
20
-5.9975765354330708
11
4.5555677559055114
21
-5.9992834251968503
0
LINE
8
BLACK
6
CONTINUOUS
10
4.5555677559055114
20
-5.9992834251968503
11
4.557274645669291
21
-6.0018379133858266
0
LINE
8
BLACK
6
CONTINUOUS
10
4.557274645669291
20
-6.0018379133858266
11
4.5578740157480313
21
-6.0048511811023619
0
LINE
8
BLACK
6
CONTINUOUS
10
4.5578740157480313
20
-6.0048511811023619
11
4.5578740157480313
21
-6.0648511811023624
0
LINE
8
BLACK
6
CONTINUOUS
10
4.5578740157480313
20
-6.0648511811023624
11
4.557274645669291
21
-6.0678644488188977
0
LINE
8
BLACK
6
CONTINUOUS
10
4.557274645669291
20
-6.0678644488188977
11
4.5555677559055114
21
-6.070418937007874
0
LINE
8
BLACK
6
CONTINUOUS
10
4.5555677559055114
20
-6.070418937007874
11
4.5530132677165351
21
-6.0721258267716536
0
LINE
8
BLACK
6
CONTINUOUS
10
4.5530132677165351
20
-6.0721258267716536
11
4.5499999999999998
21
-6.0727251968503939
0
LINE
8
BLACK
6
CONTINUOUS
10
4.5499999999999998
20
-6.0727251968503939
11
4.4900000000000002
21
-6.0727251968503939
0
LINE
8
BLACK
6
CONTINUOUS
10
4.4900000000000002
20
-6.0727251968503939
11
4.4869867322834649
21
-6.0721258267716536
0
LINE
8
BLACK
6
CONTINUOUS
10
4.4869867322834649
20
-6.0721258267716536
11
4.4844322440944877
21
-6.070418937007874
0
LINE
8
BLACK
6
CONTINUOUS
10
4.4844322440944877
20
-6.070418937007874
11
4.4827253543307082
21
-6.0678644488188977
0
LINE
8
BLACK
6
CONTINUOUS
10
4.4827253543307082
20
-6.0678644488188977
11
4.4821259842519687
21
-6.0648511811023624
0
LINE
8
BLACK
6
CONTINUOUS
10
4.4821259842519687
20
-6.0648511811023624
11
4.4821259842519687
21
-6.0048511811023619
0
LINE
8
BLACK
6
CONTINUOUS
10
4.4821259842519687
20
-6.0048511811023619
11
4.4827253543307082
21
-6.0018379133858266
0
LINE
8
BLACK
6
CONTINUOUS
10
4.4827253543307082
20
-6.0018379133858266
11
4.4844322440944877
21
-5.9992834251968503
0
LINE
8
BLACK
6
CONTINUOUS
10
4.4844322440944877
20
-5.9992834251968503
11
4.4869867322834649
21
-5.9975765354330708
0
LINE
8
BLACK
6
CONTINUOUS
10
4.4869867322834649
20
-5.9975765354330708
11
4.4900000000000002
21
-5.9969771653543305
0
LINE
8
BLACK
6
CONTINUOUS
10
4.4900000000000002
20
-5.9969771653543305
11
4.5499999999999998
21
-5.9969771653543305
0
LINE
8
BLACK
6
CONTINUOUS
10
4.5499999999999998
20
-5.9969771653543305
11
4.5530132677165351
21
-5.9975765354330708
0
LINE
8
BLACK
6
CONTINUOUS
10
4.9418321653543309
20
-5.7856867716535429
11
4.9443866535433072
21
-5.7873936614173225
0
LINE
8
BLACK
6
CONTINUOUS
10
4.9443866535433072
20
-5.7873936614173225
11
4.9460935433070867
21
-5.7899481496062988
0
LINE
8
BLACK
6
CONTINUOUS
10
4.9460935433070867
20
-5.7899481496062988
11
4.9466929133858271
21
-5.7929614173228341
0
LINE
8
BLACK
6
CONTINUOUS
10
4.9466929133858271
20
-5.7929614173228341
11
4.9466929133858271
21
-5.8529614173228346
0
LINE
8
BLACK
6
CONTINUOUS
10
4.9466929133858271
20
-5.8529614173228346
11
4.9460935433070867
21
-5.8559746850393699
0
LINE
8
BLACK
6
CONTINUOUS
10
4.9460935433070867
20
-5.8559746850393699
11
4.9443866535433072
21
-5.8585291732283462
0
LINE
8
BLACK
6
CONTINUOUS
10
4.9443866535433072
20
-5.8585291732283462
11
4.9418321653543309
21
-5.8602360629921257
0
LINE
8
BLACK
6
CONTINUOUS
10
4.9418321653543309
20
-5.8602360629921257
11
4.9388188976377956
21
-5.8608354330708661
0
LINE
8
BLACK
6
CONTINUOUS
10
4.9388188976377956
20
-5.8608354330708661
11
4.8788188976377951
21
-5.8608354330708661
0
LINE
8
BLACK
6
CONTINUOUS
10
4.8788188976377951
20
-5.8608354330708661
11
4.8758056299212598
21
-5.8602360629921257
0
LINE
8
BLACK
6
CONTINUOUS
10
4.8758056299212598
20
-5.8602360629921257
11
4.8732511417322835
21
-5.8585291732283462
0
LINE
8
BLACK
6
CONTINUOUS
10
4.8732511417322835
20
-5.8585291732283462
11
4.8715442519685039
21
-5.8559746850393699
0
LINE
8
BLACK
6
CONTINUOUS
10
4.8715442519685039
20
-5.8559746850393699
11
4.8709448818897636
21
-5.8529614173228346
0
LINE
8
BLACK
6
CONTINUOUS
10
4.8709448818897636
20
-5.8529614173228346
11
4.8709448818897636
21
-5.7929614173228341
0
LINE
8
BLACK
6
CONTINUOUS
10
4.8709448818897636
20
-5.7929614173228341
11
4.8715442519685039
21
-5.7899481496062988
0
LINE
8
BLACK
6
CONTINUOUS
10
4.8715442519685039
20
-5.7899481496062988
11
4.8732511417322835
21
-5.7873936614173225
0
LINE
8
BLACK
6
CONTINUOUS
10
4.8732511417322835
20
-5.7873936614173225
11
4.8758056299212598
21
-5.7856867716535429
0
LINE
8
BLACK
6
CONTINUOUS
10
4.8758056299212598
20
-5.7856867716535429
11
4.8788188976377951
21
-5.7850874015748026
0
LINE
8
BLACK
6
CONTINUOUS
10
4.8788188976377951
20
-5.7850874015748026
11
4.9388188976377956
21
-5.7850874015748026
0
LINE
8
BLACK
6
CONTINUOUS
10
4.9388188976377956
20
-5.7850874015748026
11
4.9418321653543309
21
-5.7856867716535429
0
LINE
8
BLACK
6
CONTINUOUS
10
5.0418321653543305
20
-5.7856867716535429
11
5.0443866535433068
21
-5.7873936614173225
0
LINE
8
BLACK
6
CONTINUOUS
10
5.0443866535433068
20
-5.7873936614173225
11
5.0460935433070864
21
-5.7899481496062988
0
LINE
8
BLACK
6
CONTINUOUS
10
5.0460935433070864
20
-5.7899481496062988
11
5.0466929133858267
21
-5.7929614173228341
0
LINE
8
BLACK
6
CONTINUOUS
10
5.0466929133858267
20
-5.7929614173228341
11
5.0466929133858267
21
-5.8529614173228346
0
LINE
8
BLACK
6
CONTINUOUS
10
5.0466929133858267
20
-5.8529614173228346
11
5.0460935433070864
21
-5.8559746850393699
0
LINE
8
BLACK
6
CONTINUOUS
10
5.0460935433070864
20
-5.8559746850393699
11
5.0443866535433068
21
-5.8585291732283462
0
LINE
8
BLACK
6
CONTINUOUS
10
5.0443866535433068
20
-5.8585291732283462
11
5.0418321653543305
21
-5.8602360629921257
0
LINE
8
BLACK
6
CONTINUOUS
10
5.0418321653543305
20
-5.8602360629921257
11
5.0388188976377952
21
-5.8608354330708661
0
LINE
8
BLACK
6
CONTINUOUS
10
5.0388188976377952
20
-5.8608354330708661
11
4.9788188976377947
21
-5.8608354330708661
0
LINE
8
BLACK
6
CONTINUOUS
10
4.9788188976377947
20
-5.8608354330708661
11
4.9758056299212594
21
-5.8602360629921257
0
LINE
8
BLACK
6
CONTINUOUS
10
4.9758056299212594
20
-5.8602360629921257
11
4.9732511417322831
21
-5.8585291732283462
0
LINE
8
BLACK
6
CONTINUOUS
10
4.9732511417322831
20
-5.8585291732283462
11
4.9715442519685036
21
-5.8559746850393699
0
LINE
8
BLACK
6
CONTINUOUS
10
4.9715442519685036
20
-5.8559746850393699
11
4.9709448818897632
21
-5.8529614173228346
0
LINE
8
BLACK
6
CONTINUOUS
10
4.9709448818897632
20
-5.8529614173228346
11
4.9709448818897632
21
-5.7929614173228341
0
LINE
8
BLACK
6
CONTINUOUS
10
4.9709448818897632
20
-5.7929614173228341
11
4.9715442519685036
21
-5.7899481496062988
0
LINE
8
BLACK
6
CONTINUOUS
10
4.9715442519685036
20
-5.7899481496062988
11
4.9732511417322831
21
-5.7873936614173225
0
LINE
8
BLACK
6
CONTINUOUS
10
4.9732511417322831
20
-5.7873936614173225
11
4.9758056299212594
21
-5.7856867716535429
0
LINE
8
BLACK
6
CONTINUOUS
10
4.9758056299212594
20
-5.7856867716535429
11
4.9788188976377947
21
-5.7850874015748026
0
LINE
8
BLACK
6
CONTINUOUS
10
4.9788188976377947
20
-5.7850874015748026
11
5.0388188976377952
21
-5.7850874015748026
0
LINE
8
BLACK
6
CONTINUOUS
10
5.0388188976377952
20
-5.7850874015748026
11
5.0418321653543305
21
-5.7856867716535429
0
LINE
8
BLACK
6
CONTINUOUS
10
5.9440132677165352
20
-5.7837253543307083
11
5.9465677559055115
21
-5.7854322440944879
0
LINE
8
BLACK
6
CONTINUOUS
10
5.9465677559055115
20
-5.7854322440944879
11
5.948274645669291
21
-5.7879867322834642
0
LINE
8
BLACK
6
CONTINUOUS
10
5.948274645669291
20
-5.7879867322834642
11
5.9488740157480313
21
-5.7909999999999995
0
LINE
8
BLACK
6
CONTINUOUS
10
5.9488740157480313
20
-5.7909999999999995
11
5.9488740157480313
21
-5.851
0
LINE
8
BLACK
6
CONTINUOUS
10
5.9488740157480313
20
-5.851
11
5.948274645669291
21
-5.8540132677165353
0
LINE
8
BLACK
6
CONTINUOUS
10
5.948274645669291
20
-5.8540132677165353
11
5.9465677559055115
21
-5.8565677559055116
0
LINE
8
BLACK
6
CONTINUOUS
10
5.9465677559055115
20
-5.8565677559055116
11
5.9440132677165352
21
-5.8582746456692911
0
LINE
8
BLACK
6
CONTINUOUS
10
5.9440132677165352
20
-5.8582746456692911
11
5.9409999999999998
21
-5.8588740157480315
0
LINE
8
BLACK
6
CONTINUOUS
10
5.9409999999999998
20
-5.8588740157480315
11
5.8810000000000002
21
-5.8588740157480315
0
LINE
8
BLACK
6
CONTINUOUS
10
5.8810000000000002
20
-5.8588740157480315
11
5.877986732283464
21
-5.8582746456692911
0
LINE
8
BLACK
6
CONTINUOUS
10
5.877986732283464
20
-5.8582746456692911
11
5.8754322440944877
21
-5.8565677559055116
0
LINE
8
BLACK
6
CONTINUOUS
10
5.8754322440944877
20
-5.8565677559055116
11
5.8737253543307082
21
-5.8540132677165353
0
LINE
8
BLACK
6
CONTINUOUS
10
5.8737253543307082
20
-5.8540132677165353
11
5.8731259842519687
21
-5.851
0
LINE
8
BLACK
6
CONTINUOUS
10
5.8731259842519687
20
-5.851
11
5.8731259842519687
21
-5.7909999999999995
0
LINE
8
BLACK
6
CONTINUOUS
10
5.8731259842519687
20
-5.7909999999999995
11
5.8737253543307082
21
-5.7879867322834642
0
LINE
8
BLACK
6
CONTINUOUS
10
5.8737253543307082
20
-5.7879867322834642
11
5.8754322440944877
21
-5.7854322440944879
0
LINE
8
BLACK
6
CONTINUOUS
10
5.8754322440944877
20
-5.7854322440944879
11
5.877986732283464
21
-5.7837253543307083
0
LINE
8
BLACK
6
CONTINUOUS
10
5.877986732283464
20
-5.7837253543307083
11
5.8810000000000002
21
-5.783125984251968
0
LINE
8
BLACK
6
CONTINUOUS
10
5.8810000000000002
20
-5.783125984251968
11
5.9409999999999998
21
-5.783125984251968
0
LINE
8
BLACK
6
CONTINUOUS
10
5.9409999999999998
20
-5.783125984251968
11
5.9440132677165352
21
-5.7837253543307083
0
LINE
8
BLACK
6
CONTINUOUS
10
6.0440132677165357
20
-5.7837253543307083
11
6.046567755905512
21
-5.7854322440944879
0
LINE
8
BLACK
6
CONTINUOUS
10
6.046567755905512
20
-5.7854322440944879
11
6.0482746456692915
21
-5.7879867322834642
0
LINE
8
BLACK
6
CONTINUOUS
10
6.0482746456692915
20
-5.7879867322834642
11
6.048874015748031
21
-5.7909999999999995
0
LINE
8
BLACK
6
CONTINUOUS
10
6.048874015748031
20
-5.7909999999999995
11
6.048874015748031
21
-5.851
0
LINE
8
BLACK
6
CONTINUOUS
10
6.048874015748031
20
-5.851
11
6.0482746456692915
21
-5.8540132677165353
0
LINE
8
BLACK
6
CONTINUOUS
10
6.0482746456692915
20
-5.8540132677165353
11
6.046567755905512
21
-5.8565677559055116
0
LINE
8
BLACK
6
CONTINUOUS
10
6.046567755905512
20
-5.8565677559055116
11
6.0440132677165357
21
-5.8582746456692911
0
LINE
8
BLACK
6
CONTINUOUS
10
6.0440132677165357
20
-5.8582746456692911
11
6.0409999999999995
21
-5.8588740157480315
0
LINE
8
BLACK
6
CONTINUOUS
10
6.0409999999999995
20
-5.8588740157480315
11
5.9809999999999999
21
-5.8588740157480315
0
LINE
8
BLACK
6
CONTINUOUS
10
5.9809999999999999
20
-5.8588740157480315
11
5.9779867322834646
21
-5.8582746456692911
0
LINE
8
BLACK
6
CONTINUOUS
10
5.9779867322834646
20
-5.8582746456692911
11
5.9754322440944883
21
-5.8565677559055116
0
LINE
8
BLACK
6
CONTINUOUS
10
5.9754322440944883
20
-5.8565677559055116
11
5.9737253543307087
21
-5.8540132677165353
0
LINE
8
BLACK
6
CONTINUOUS
10
5.9737253543307087
20
-5.8540132677165353
11
5.9731259842519684
21
-5.851
0
LINE
8
BLACK
6
CONTINUOUS
10
5.9731259842519684
20
-5.851
11
5.9731259842519684
21
-5.7909999999999995
0
LINE
8
BLACK
6
CONTINUOUS
10
5.9731259842519684
20
-5.7909999999999995
11
5.9737253543307087
21
-5.7879867322834642
0
LINE
8
BLACK
6
CONTINUOUS
10
5.9737253543307087
20
-5.7879867322834642
11
5.9754322440944883
21
-5.7854322440944879
0
LINE
8
BLACK
6
CONTINUOUS
10
5.9754322440944883
20
-5.7854322440944879
11
5.9779867322834646
21
-5.7837253543307083
0
LINE
8
BLACK
6
CONTINUOUS
10
5.9779867322834646
20
-5.7837253543307083
11
5.9809999999999999
21
-5.783125984251968
0
LINE
8
BLACK
6
CONTINUOUS
10
5.9809999999999999
20
-5.783125984251968
11
6.0409999999999995
21
-5.783125984251968
0
LINE
8
BLACK
6
CONTINUOUS
10
6.0409999999999995
20
-5.783125984251968
11
6.0440132677165357
21
-5.7837253543307083
0
LINE
8
BLACK
6
CONTINUOUS
10
4.4469502755905514
20
-5.7833245669291333
11
4.4495047637795277
21
-5.7850314566929129
0
LINE
8
BLACK
6
CONTINUOUS
10
4.4495047637795277
20
-5.7850314566929129
11
4.4512116535433073
21
-5.78758594488189
0
LINE
8
BLACK
6
CONTINUOUS
10
4.4512116535433073
20
-5.78758594488189
11
4.4518110236220467
21
-5.7905992125984254
0
LINE
8
BLACK
6
CONTINUOUS
10
4.4518110236220467
20
-5.7905992125984254
11
4.4518110236220467
21
-5.850599212598425
0
LINE
8
BLACK
6
CONTINUOUS
10
4.4518110236220467
20
-5.850599212598425
11
4.4512116535433073
21
-5.8536124803149603
0
LINE
8
BLACK
6
CONTINUOUS
10
4.4512116535433073
20
-5.8536124803149603
11
4.4495047637795277
21
-5.8561669685039366
0
LINE
8
BLACK
6
CONTINUOUS
10
4.4495047637795277
20
-5.8561669685039366
11
4.4469502755905514
21
-5.8578738582677161
0
LINE
8
BLACK
6
CONTINUOUS
10
4.4469502755905514
20
-5.8578738582677161
11
4.4439370078740152
21
-5.8584732283464565
0
LINE
8
BLACK
6
CONTINUOUS
10
4.4439370078740152
20
-5.8584732283464565
11
4.3839370078740156
21
-5.8584732283464565
0
LINE
8
BLACK
6
CONTINUOUS
10
4.3839370078740156
20
-5.8584732283464565
11
4.3809237401574803
21
-5.8578738582677161
0
LINE
8
BLACK
6
CONTINUOUS
10
4.3809237401574803
20
-5.8578738582677161
11
4.378369251968504
21
-5.8561669685039366
0
LINE
8
BLACK
6
CONTINUOUS
10
4.378369251968504
20
-5.8561669685039366
11
4.3766623622047245
21
-5.8536124803149603
0
LINE
8
BLACK
6
CONTINUOUS
10
4.3766623622047245
20
-5.8536124803149603
11
4.3760629921259842
21
-5.850599212598425
0
LINE
8
BLACK
6
CONTINUOUS
10
4.3760629921259842
20
-5.850599212598425
11
4.3760629921259842
21
-5.7905992125984254
0
LINE
8
BLACK
6
CONTINUOUS
10
4.3760629921259842
20
-5.7905992125984254
11
4.3766623622047245
21
-5.78758594488189
0
LINE
8
BLACK
6
CONTINUOUS
10
4.3766623622047245
20
-5.78758594488189
11
4.378369251968504
21
-5.7850314566929129
0
LINE
8
BLACK
6
CONTINUOUS
10
4.378369251968504
20
-5.7850314566929129
11
4.3809237401574803
21
-5.7833245669291333
0
LINE
8
BLACK
6
CONTINUOUS
10
4.3809237401574803
20
-5.7833245669291333
11
4.3839370078740156
21
-5.7827251968503939
0
LINE
8
BLACK
6
CONTINUOUS
10
4.3839370078740156
20
-5.7827251968503939
11
4.4439370078740152
21
-5.7827251968503939
0
LINE
8
BLACK
6
CONTINUOUS
10
4.4439370078740152
20
-5.7827251968503939
11
4.4469502755905514
21
-5.7833245669291333
0
LINE
8
BLACK
6
CONTINUOUS
10
4.5469502755905511
20
-5.7833245669291333
11
4.5495047637795274
21
-5.7850314566929129
0
LINE
8
BLACK
6
CONTINUOUS
10
4.5495047637795274
20
-5.7850314566929129
11
4.5512116535433069
21
-5.78758594488189
0
LINE
8
BLACK
6
CONTINUOUS
10
4.5512116535433069
20
-5.78758594488189
11
4.5518110236220473
21
-5.7905992125984254
0
LINE
8
BLACK
6
CONTINUOUS
10
4.5518110236220473
20
-5.7905992125984254
11
4.5518110236220473
21
-5.850599212598425
0
LINE
8
BLACK
6
CONTINUOUS
10
4.5518110236220473
20
-5.850599212598425
11
4.5512116535433069
21
-5.8536124803149603
0
LINE
8
BLACK
6
CONTINUOUS
10
4.5512116535433069
20
-5.8536124803149603
11
4.5495047637795274
21
-5.8561669685039366
0
LINE
8
BLACK
6
CONTINUOUS
10
4.5495047637795274
20
-5.8561669685039366
11
4.5469502755905511
21
-5.8578738582677161
0
LINE
8
BLACK
6
CONTINUOUS
10
4.5469502755905511
20
-5.8578738582677161
11
4.5439370078740158
21
-5.8584732283464565
0
LINE
8
BLACK
6
CONTINUOUS
10
4.5439370078740158
20
-5.8584732283464565
11
4.4839370078740153
21
-5.8584732283464565
0
LINE
8
BLACK
6
CONTINUOUS
10
4.4839370078740153
20
-5.8584732283464565
11
4.48092374015748
21
-5.8578738582677161
0
LINE
8
BLACK
6
CONTINUOUS
10
4.48092374015748
20
-5.8578738582677161
11
4.4783692519685037
21
-5.8561669685039366
0
LINE
8
BLACK
6
CONTINUOUS
10
4.4783692519685037
20
-5.8561669685039366
11
4.4766623622047241
21
-5.8536124803149603
0
LINE
8
BLACK
6
CONTINUOUS
10
4.4766623622047241
20
-5.8536124803149603
11
4.4760629921259838
21
-5.850599212598425
0
LINE
8
BLACK
6
CONTINUOUS
10
4.4760629921259838
20
-5.850599212598425
11
4.4760629921259838
21
-5.7905992125984254
0
LINE
8
BLACK
6
CONTINUOUS
10
4.4760629921259838
20
-5.7905992125984254
11
4.4766623622047241
21
-5.78758594488189
0
LINE
8
BLACK
6
CONTINUOUS
10
4.4766623622047241
20
-5.78758594488189
11
4.4783692519685037
21
-5.7850314566929129
0
LINE
8
BLACK
6
CONTINUOUS
10
4.4783692519685037
20
-5.7850314566929129
11
4.48092374015748
21
-5.7833245669291333
0
LINE
8
BLACK
6
CONTINUOUS
10
4.48092374015748
20
-5.7833245669291333
11
4.4839370078740153
21
-5.7827251968503939
0
LINE
8
BLACK
6
CONTINUOUS
10
4.4839370078740153
20
-5.7827251968503939
11
4.5439370078740158
21
-5.7827251968503939
0
LINE
8
BLACK
6
CONTINUOUS
10
4.5439370078740158
20
-5.7827251968503939
11
4.5469502755905511
21
-5.7833245669291333
0
LINE
8
BLACK
6
CONTINUOUS
10
4.6953754724409444
20
-5.7814348031496063
11
4.6979299606299207
21
-5.7831416929133859
0
LINE
8
BLACK
6
CONTINUOUS
10
4.6979299606299207
20
-5.7831416929133859
11
4.6996368503937003
21
-5.7856961811023622
0
LINE
8
BLACK
6
CONTINUOUS
10
4.6996368503937003
20
-5.7856961811023622
11
4.7002362204724406
21
-5.7887094488188975
0
LINE
8
BLACK
6
CONTINUOUS
10
4.7002362204724406
20
-5.7887094488188975
11
4.7002362204724406
21
-5.8487094488188971
0
LINE
8
BLACK
6
CONTINUOUS
10
4.7002362204724406
20
-5.8487094488188971
11
4.6996368503937003
21
-5.8517227165354333
0
LINE
8
BLACK
6
CONTINUOUS
10
4.6996368503937003
20
-5.8517227165354333
11
4.6979299606299207
21
-5.8542772047244096
0
LINE
8
BLACK
6
CONTINUOUS
10
4.6979299606299207
20
-5.8542772047244096
11
4.6953754724409444
21
-5.8559840944881891
0
LINE
8
BLACK
6
CONTINUOUS
10
4.6953754724409444
20
-5.8559840944881891
11
4.6923622047244091
21
-5.8565834645669286
0
LINE
8
BLACK
6
CONTINUOUS
10
4.6923622047244091
20
-5.8565834645669286
11
4.6323622047244095
21
-5.8565834645669286
0
LINE
8
BLACK
6
CONTINUOUS
10
4.6323622047244095
20
-5.8565834645669286
11
4.6293489370078742
21
-5.8559840944881891
0
LINE
8
BLACK
6
CONTINUOUS
10
4.6293489370078742
20
-5.8559840944881891
11
4.6267944488188979
21
-5.8542772047244096
0
LINE
8
BLACK
6
CONTINUOUS
10
4.6267944488188979
20
-5.8542772047244096
11
4.6250875590551184
21
-5.8517227165354333
0
LINE
8
BLACK
6
CONTINUOUS
10
4.6250875590551184
20
-5.8517227165354333
11
4.624488188976378
21
-5.8487094488188971
0
LINE
8
BLACK
6
CONTINUOUS
10
4.624488188976378
20
-5.8487094488188971
11
4.624488188976378
21
-5.7887094488188975
0
LINE
8
BLACK
6
CONTINUOUS
10
4.624488188976378
20
-5.7887094488188975
11
4.6250875590551184
21
-5.7856961811023622
0
LINE
8
BLACK
6
CONTINUOUS
10
4.6250875590551184
20
-5.7856961811023622
11
4.6267944488188979
21
-5.7831416929133859
0
LINE
8
BLACK
6
CONTINUOUS
10
4.6267944488188979
20
-5.7831416929133859
11
4.6293489370078742
21
-5.7814348031496063
0
LINE
8
BLACK
6
CONTINUOUS
10
4.6293489370078742
20
-5.7814348031496063
11
4.6323622047244095
21
-5.780835433070866
0
LINE
8
BLACK
6
CONTINUOUS
10
4.6323622047244095
20
-5.780835433070866
11
4.6923622047244091
21
-5.780835433070866
0
LINE
8
BLACK
6
CONTINUOUS
10
4.6923622047244091
20
-5.780835433070866
11
4.6953754724409444
21
-5.7814348031496063
0
LINE
8
BLACK
6
CONTINUOUS
10
4.795375472440945
20
-5.7814348031496063
11
4.7979299606299213
21
-5.7831416929133859
0
LINE
8
BLACK
6
CONTINUOUS
10
4.7979299606299213
20
-5.7831416929133859
11
4.7996368503937008
21
-5.7856961811023622
0
LINE
8
BLACK
6
CONTINUOUS
10
4.7996368503937008
20
-5.7856961811023622
11
4.8002362204724411
21
-5.7887094488188975
0
LINE
8
BLACK
6
CONTINUOUS
10
4.8002362204724411
20
-5.7887094488188975
11
4.8002362204724411
21
-5.8487094488188971
0
LINE
8
BLACK
6
CONTINUOUS
10
4.8002362204724411
20
-5.8487094488188971
11
4.7996368503937008
21
-5.8517227165354333
0
LINE
8
BLACK
6
CONTINUOUS
10
4.7996368503937008
20
-5.8517227165354333
11
4.7979299606299213
21
-5.8542772047244096
0
LINE
8
BLACK
6
CONTINUOUS
10
4.7979299606299213
20
-5.8542772047244096
11
4.795375472440945
21
-5.8559840944881891
0
LINE
8
BLACK
6
CONTINUOUS
10
4.795375472440945
20
-5.8559840944881891
11
4.7923622047244097
21
-5.8565834645669286
0
LINE
8
BLACK
6
CONTINUOUS
10
4.7923622047244097
20
-5.8565834645669286
11
4.7323622047244092
21
-5.8565834645669286
0
LINE
8
BLACK
6
CONTINUOUS
10
4.7323622047244092
20
-5.8565834645669286
11
4.7293489370078738
21
-5.8559840944881891
0
LINE
8
BLACK
6
CONTINUOUS
10
4.7293489370078738
20
-5.8559840944881891
11
4.7267944488188975
21
-5.8542772047244096
0
LINE
8
BLACK
6
CONTINUOUS
10
4.7267944488188975
20
-5.8542772047244096
11
4.725087559055118
21
-5.8517227165354333
0
LINE
8
BLACK
6
CONTINUOUS
10
4.725087559055118
20
-5.8517227165354333
11
4.7244881889763777
21
-5.8487094488188971
0
LINE
8
BLACK
6
CONTINUOUS
10
4.7244881889763777
20
-5.8487094488188971
11
4.7244881889763777
21
-5.7887094488188975
0
LINE
8
BLACK
6
CONTINUOUS
10
4.7244881889763777
20
-5.7887094488188975
11
4.725087559055118
21
-5.7856961811023622
0
LINE
8
BLACK
6
CONTINUOUS
10
4.725087559055118
20
-5.7856961811023622
11
4.7267944488188975
21
-5.7831416929133859
0
LINE
8
BLACK
6
CONTINUOUS
10
4.7267944488188975
20
-5.7831416929133859
11
4.7293489370078738
21
-5.7814348031496063
0
LINE
8
BLACK
6
CONTINUOUS
10
4.7293489370078738
20
-5.7814348031496063
11
4.7323622047244092
21
-5.780835433070866
0
LINE
8
BLACK
6
CONTINUOUS
10
4.7323622047244092
20
-5.780835433070866
11
4.7923622047244097
21
-5.780835433070866
0
LINE
8
BLACK
6
CONTINUOUS
10
4.7923622047244097
20
-5.780835433070866
11
4.795375472440945
21
-5.7814348031496063
0
LINE
8
BLACK
6
CONTINUOUS
10
5.1953754724409444
20
-5.7814348031496063
11
5.1979299606299207
21
-5.7831416929133859
0
LINE
8
BLACK
6
CONTINUOUS
10
5.1979299606299207
20
-5.7831416929133859
11
5.1996368503937003
21
-5.7856961811023622
0
LINE
8
BLACK
6
CONTINUOUS
10
5.1996368503937003
20
-5.7856961811023622
11
5.2002362204724406
21
-5.7887094488188975
0
LINE
8
BLACK
6
CONTINUOUS
10
5.2002362204724406
20
-5.7887094488188975
11
5.2002362204724406
21
-5.8487094488188971
0
LINE
8
BLACK
6
CONTINUOUS
10
5.2002362204724406
20
-5.8487094488188971
11
5.1996368503937003
21
-5.8517227165354333
0
LINE
8
BLACK
6
CONTINUOUS
10
5.1996368503937003
20
-5.8517227165354333
11
5.1979299606299207
21
-5.8542772047244096
0
LINE
8
BLACK
6
CONTINUOUS
10
5.1979299606299207
20
-5.8542772047244096
11
5.1953754724409444
21
-5.8559840944881891
0
LINE
8
BLACK
6
CONTINUOUS
10
5.1953754724409444
20
-5.8559840944881891
11
5.1923622047244091
21
-5.8565834645669286
0
LINE
8
BLACK
6
CONTINUOUS
10
5.1923622047244091
20
-5.8565834645669286
11
5.1323622047244095
21
-5.8565834645669286
0
LINE
8
BLACK
6
CONTINUOUS
10
5.1323622047244095
20
-5.8565834645669286
11
5.1293489370078742
21
-5.8559840944881891
0
LINE
8
BLACK
6
CONTINUOUS
10
5.1293489370078742
20
-5.8559840944881891
11
5.1267944488188979
21
-5.8542772047244096
0
LINE
8
BLACK
6
CONTINUOUS
10
5.1267944488188979
20
-5.8542772047244096
11
5.1250875590551184
21
-5.8517227165354333
0
LINE
8
BLACK
6
CONTINUOUS
10
5.1250875590551184
20
-5.8517227165354333
11
5.124488188976378
21
-5.8487094488188971
0
LINE
8
BLACK
6
CONTINUOUS
10
5.124488188976378
20
-5.8487094488188971
11
5.124488188976378
21
-5.7887094488188975
0
LINE
8
BLACK
6
CONTINUOUS
10
5.124488188976378
20
-5.7887094488188975
11
5.1250875590551184
21
-5.7856961811023622
0
LINE
8
BLACK
6
CONTINUOUS
10
5.1250875590551184
20
-5.7856961811023622
11
5.1267944488188979
21
-5.7831416929133859
0
LINE
8
BLACK
6
CONTINUOUS
10
5.1267944488188979
20
-5.7831416929133859
11
5.1293489370078742
21
-5.7814348031496063
0
LINE
8
BLACK
6
CONTINUOUS
10
5.1293489370078742
20
-5.7814348031496063
11
5.1323622047244095
21
-5.780835433070866
0
LINE
8
BLACK
6
CONTINUOUS
10
5.1323622047244095
20
-5.780835433070866
11
5.1923622047244091
21
-5.780835433070866
0
LINE
8
BLACK
6
CONTINUOUS
10
5.1923622047244091
20
-5.780835433070866
11
5.1953754724409444
21
-5.7814348031496063
0
LINE
8
BLACK
6
CONTINUOUS
10
5.295375472440945
20
-5.7814348031496063
11
5.2979299606299213
21
-5.7831416929133859
0
LINE
8
BLACK
6
CONTINUOUS
10
5.2979299606299213
20
-5.7831416929133859
11
5.2996368503937008
21
-5.7856961811023622
0
LINE
8
BLACK
6
CONTINUOUS
10
5.2996368503937008
20
-5.7856961811023622
11
5.3002362204724411
21
-5.7887094488188975
0
LINE
8
BLACK
6
CONTINUOUS
10
5.3002362204724411
20
-5.7887094488188975
11
5.3002362204724411
21
-5.8487094488188971
0
LINE
8
BLACK
6
CONTINUOUS
10
5.3002362204724411
20
-5.8487094488188971
11
5.2996368503937008
21
-5.8517227165354333
0
LINE
8
BLACK
6
CONTINUOUS
10
5.2996368503937008
20
-5.8517227165354333
11
5.2979299606299213
21
-5.8542772047244096
0
LINE
8
BLACK
6
CONTINUOUS
10
5.2979299606299213
20
-5.8542772047244096
11
5.295375472440945
21
-5.8559840944881891
0
LINE
8
BLACK
6
CONTINUOUS
10
5.295375472440945
20
-5.8559840944881891
11
5.2923622047244097
21
-5.8565834645669286
0
LINE
8
BLACK
6
CONTINUOUS
10
5.2923622047244097
20
-5.8565834645669286
11
5.2323622047244092
21
-5.8565834645669286
0
LINE
8
BLACK
6
CONTINUOUS
10
5.2323622047244092
20
-5.8565834645669286
11
5.2293489370078738
21
-5.8559840944881891
0
LINE
8
BLACK
6
CONTINUOUS
10
5.2293489370078738
20
-5.8559840944881891
11
5.2267944488188975
21
-5.8542772047244096
0
LINE
8
BLACK
6
CONTINUOUS
10
5.2267944488188975
20
-5.8542772047244096
11
5.225087559055118
21
-5.8517227165354333
0
LINE
8
BLACK
6
CONTINUOUS
10
5.225087559055118
20
-5.8517227165354333
11
5.2244881889763777
21
-5.8487094488188971
0
LINE
8
BLACK
6
CONTINUOUS
10
5.2244881889763777
20
-5.8487094488188971
11
5.2244881889763777
21
-5.7887094488188975
0
LINE
8
BLACK
6
CONTINUOUS
10
5.2244881889763777
20
-5.7887094488188975
11
5.225087559055118
21
-5.7856961811023622
0
LINE
8
BLACK
6
CONTINUOUS
10
5.225087559055118
20
-5.7856961811023622
11
5.2267944488188975
21
-5.7831416929133859
0
LINE
8
BLACK
6
CONTINUOUS
10
5.2267944488188975
20
-5.7831416929133859
11
5.2293489370078738
21
-5.7814348031496063
0
LINE
8
BLACK
6
CONTINUOUS
10
5.2293489370078738
20
-5.7814348031496063
11
5.2323622047244092
21
-5.780835433070866
0
LINE
8
BLACK
6
CONTINUOUS
10
5.2323622047244092
20
-5.780835433070866
11
5.2923622047244097
21
-5.780835433070866
0
LINE
8
BLACK
6
CONTINUOUS
10
5.2923622047244097
20
-5.780835433070866
11
5.295375472440945
21
-5.7814348031496063
0
LINE
8
BLACK
6
CONTINUOUS
10
5.4453754724409444
20
-5.7814348031496063
11
5.4479299606299207
21
-5.7831416929133859
0
LINE
8
BLACK
6
CONTINUOUS
10
5.4479299606299207
20
-5.7831416929133859
11
5.4496368503937003
21
-5.7856961811023622
0
LINE
8
BLACK
6
CONTINUOUS
10
5.4496368503937003
20
-5.7856961811023622
11
5.4502362204724406
21
-5.7887094488188975
0
LINE
8
BLACK
6
CONTINUOUS
10
5.4502362204724406
20
-5.7887094488188975
11
5.4502362204724406
21
-5.8487094488188971
0
LINE
8
BLACK
6
CONTINUOUS
10
5.4502362204724406
20
-5.8487094488188971
11
5.4496368503937003
21
-5.8517227165354333
0
LINE
8
BLACK
6
CONTINUOUS
10
5.4496368503937003
20
-5.8517227165354333
11
5.4479299606299207
21
-5.8542772047244096
0
LINE
8
BLACK
6
CONTINUOUS
10
5.4479299606299207
20
-5.8542772047244096
11
5.4453754724409444
21
-5.8559840944881891
0
LINE
8
BLACK
6
CONTINUOUS
10
5.4453754724409444
20
-5.8559840944881891
11
5.4423622047244091
21
-5.8565834645669286
0
LINE
8
BLACK
6
CONTINUOUS
10
5.4423622047244091
20
-5.8565834645669286
11
5.3823622047244095
21
-5.8565834645669286
0
LINE
8
BLACK
6
CONTINUOUS
10
5.3823622047244095
20
-5.8565834645669286
11
5.3793489370078742
21
-5.8559840944881891
0
LINE
8
BLACK
6
CONTINUOUS
10
5.3793489370078742
20
-5.8559840944881891
11
5.3767944488188979
21
-5.8542772047244096
0
LINE
8
BLACK
6
CONTINUOUS
10
5.3767944488188979
20
-5.8542772047244096
11
5.3750875590551184
21
-5.8517227165354333
0
LINE
8
BLACK
6
CONTINUOUS
10
5.3750875590551184
20
-5.8517227165354333
11
5.374488188976378
21
-5.8487094488188971
0
LINE
8
BLACK
6
CONTINUOUS
10
5.374488188976378
20
-5.8487094488188971
11
5.374488188976378
21
-5.7887094488188975
0
LINE
8
BLACK
6
CONTINUOUS
10
5.374488188976378
20
-5.7887094488188975
11
5.3750875590551184
21
-5.7856961811023622
0
LINE
8
BLACK
6
CONTINUOUS
10
5.3750875590551184
20
-5.7856961811023622
11
5.3767944488188979
21
-5.7831416929133859
0
LINE
8
BLACK
6
CONTINUOUS
10
5.3767944488188979
20
-5.7831416929133859
11
5.3793489370078742
21
-5.7814348031496063
0
LINE
8
BLACK
6
CONTINUOUS
10
5.3793489370078742
20
-5.7814348031496063
11
5.3823622047244095
21
-5.780835433070866
0
LINE
8
BLACK
6
CONTINUOUS
10
5.3823622047244095
20
-5.780835433070866
11
5.4423622047244091
21
-5.780835433070866
0
LINE
8
BLACK
6
CONTINUOUS
10
5.4423622047244091
20
-5.780835433070866
11
5.4453754724409444
21
-5.7814348031496063
0
LINE
8
BLACK
6
CONTINUOUS
10
5.545375472440945
20
-5.7814348031496063
11
5.5479299606299213
21
-5.7831416929133859
0
LINE
8
BLACK
6
CONTINUOUS
10
5.5479299606299213
20
-5.7831416929133859
11
5.5496368503937008
21
-5.7856961811023622
0
LINE
8
BLACK
6
CONTINUOUS
10
5.5496368503937008
20
-5.7856961811023622
11
5.5502362204724411
21
-5.7887094488188975
0
LINE
8
BLACK
6
CONTINUOUS
10
5.5502362204724411
20
-5.7887094488188975
11
5.5502362204724411
21
-5.8487094488188971
0
LINE
8
BLACK
6
CONTINUOUS
10
5.5502362204724411
20
-5.8487094488188971
11
5.5496368503937008
21
-5.8517227165354333
0
LINE
8
BLACK
6
CONTINUOUS
10
5.5496368503937008
20
-5.8517227165354333
11
5.5479299606299213
21
-5.8542772047244096
0
LINE
8
BLACK
6
CONTINUOUS
10
5.5479299606299213
20
-5.8542772047244096
11
5.545375472440945
21
-5.8559840944881891
0
LINE
8
BLACK
6
CONTINUOUS
10
5.545375472440945
20
-5.8559840944881891
11
5.5423622047244097
21
-5.8565834645669286
0
LINE
8
BLACK
6
CONTINUOUS
10
5.5423622047244097
20
-5.8565834645669286
11
5.4823622047244092
21
-5.8565834645669286
0
LINE
8
BLACK
6
CONTINUOUS
10
5.4823622047244092
20
-5.8565834645669286
11
5.4793489370078738
21
-5.8559840944881891
0
LINE
8
BLACK
6
CONTINUOUS
10
5.4793489370078738
20
-5.8559840944881891
11
5.4767944488188975
21
-5.8542772047244096
0
LINE
8
BLACK
6
CONTINUOUS
10
5.4767944488188975
20
-5.8542772047244096
11
5.475087559055118
21
-5.8517227165354333
0
LINE
8
BLACK
6
CONTINUOUS
10
5.475087559055118
20
-5.8517227165354333
11
5.4744881889763777
21
-5.8487094488188971
0
LINE
8
BLACK
6
CONTINUOUS
10
5.4744881889763777
20
-5.8487094488188971
11
5.4744881889763777
21
-5.7887094488188975
0
LINE
8
BLACK
6
CONTINUOUS
10
5.4744881889763777
20
-5.7887094488188975
11
5.475087559055118
21
-5.7856961811023622
0
LINE
8
BLACK
6
CONTINUOUS
10
5.475087559055118
20
-5.7856961811023622
11
5.4767944488188975
21
-5.7831416929133859
0
LINE
8
BLACK
6
CONTINUOUS
10
5.4767944488188975
20
-5.7831416929133859
11
5.4793489370078738
21
-5.7814348031496063
0
LINE
8
BLACK
6
CONTINUOUS
10
5.4793489370078738
20
-5.7814348031496063
11
5.4823622047244092
21
-5.780835433070866
0
LINE
8
BLACK
6
CONTINUOUS
10
5.4823622047244092
20
-5.780835433070866
11
5.5423622047244097
21
-5.780835433070866
0
LINE
8
BLACK
6
CONTINUOUS
10
5.5423622047244097
20
-5.780835433070866
11
5.545375472440945
21
-5.7814348031496063
0
LINE
8
BLACK
6
CONTINUOUS
10
5.6953754724409444
20
-5.7814348031496063
11
5.6979299606299207
21
-5.7831416929133859
0
LINE
8
BLACK
6
CONTINUOUS
10
5.6979299606299207
20
-5.7831416929133859
11
5.6996368503937003
21
-5.7856961811023622
0
LINE
8
BLACK
6
CONTINUOUS
10
5.6996368503937003
20
-5.7856961811023622
11
5.7002362204724406
21
-5.7887094488188975
0
LINE
8
BLACK
6
CONTINUOUS
10
5.7002362204724406
20
-5.7887094488188975
11
5.7002362204724406
21
-5.8487094488188971
0
LINE
8
BLACK
6
CONTINUOUS
10
5.7002362204724406
20
-5.8487094488188971
11
5.6996368503937003
21
-5.8517227165354333
0
LINE
8
BLACK
6
CONTINUOUS
10
5.6996368503937003
20
-5.8517227165354333
11
5.6979299606299207
21
-5.8542772047244096
0
LINE
8
BLACK
6
CONTINUOUS
10
5.6979299606299207
20
-5.8542772047244096
11
5.6953754724409444
21
-5.8559840944881891
0
LINE
8
BLACK
6
CONTINUOUS
10
5.6953754724409444
20
-5.8559840944881891
11
5.6923622047244091
21
-5.8565834645669286
0
LINE
8
BLACK
6
CONTINUOUS
10
5.6923622047244091
20
-5.8565834645669286
11
5.6323622047244095
21
-5.8565834645669286
0
LINE
8
BLACK
6
CONTINUOUS
10
5.6323622047244095
20
-5.8565834645669286
11
5.6293489370078742
21
-5.8559840944881891
0
LINE
8
BLACK
6
CONTINUOUS
10
5.6293489370078742
20
-5.8559840944881891
11
5.6267944488188979
21
-5.8542772047244096
0
LINE
8
BLACK
6
CONTINUOUS
10
5.6267944488188979
20
-5.8542772047244096
11
5.6250875590551184
21
-5.8517227165354333
0
LINE
8
BLACK
6
CONTINUOUS
10
5.6250875590551184
20
-5.8517227165354333
11
5.624488188976378
21
-5.8487094488188971
0
LINE
8
BLACK
6
CONTINUOUS
10
5.624488188976378
20
-5.8487094488188971
11
5.624488188976378
21
-5.7887094488188975
0
LINE
8
BLACK
6
CONTINUOUS
10
5.624488188976378
20
-5.7887094488188975
11
5.6250875590551184
21
-5.7856961811023622
0
LINE
8
BLACK
6
CONTINUOUS
10
5.6250875590551184
20
-5.7856961811023622
11
5.6267944488188979
21
-5.7831416929133859
0
LINE
8
BLACK
6
CONTINUOUS
10
5.6267944488188979
20
-5.7831416929133859
11
5.6293489370078742
21
-5.7814348031496063
0
LINE
8
BLACK
6
CONTINUOUS
10
5.6293489370078742
20
-5.7814348031496063
11
5.6323622047244095
21
-5.780835433070866
0
LINE
8
BLACK
6
CONTINUOUS
10
5.6323622047244095
20
-5.780835433070866
11
5.6923622047244091
21
-5.780835433070866
0
LINE
8
BLACK
6
CONTINUOUS
10
5.6923622047244091
20
-5.780835433070866
11
5.6953754724409444
21
-5.7814348031496063
0
LINE
8
BLACK
6
CONTINUOUS
10
5.795375472440945
20
-5.7814348031496063
11
5.7979299606299213
21
-5.7831416929133859
0
LINE
8
BLACK
6
CONTINUOUS
10
5.7979299606299213
20
-5.7831416929133859
11
5.7996368503937008
21
-5.7856961811023622
0
LINE
8
BLACK
6
CONTINUOUS
10
5.7996368503937008
20
-5.7856961811023622
11
5.8002362204724411
21
-5.7887094488188975
0
LINE
8
BLACK
6
CONTINUOUS
10
5.8002362204724411
20
-5.7887094488188975
11
5.8002362204724411
21
-5.8487094488188971
0
LINE
8
BLACK
6
CONTINUOUS
10
5.8002362204724411
20
-5.8487094488188971
11
5.7996368503937008
21
-5.8517227165354333
0
LINE
8
BLACK
6
CONTINUOUS
10
5.7996368503937008
20
-5.8517227165354333
11
5.7979299606299213
21
-5.8542772047244096
0
LINE
8
BLACK
6
CONTINUOUS
10
5.7979299606299213
20
-5.8542772047244096
11
5.795375472440945
21
-5.8559840944881891
0
LINE
8
BLACK
6
CONTINUOUS
10
5.795375472440945
20
-5.8559840944881891
11
5.7923622047244097
21
-5.8565834645669286
0
LINE
8
BLACK
6
CONTINUOUS
10
5.7923622047244097
20
-5.8565834645669286
11
5.7323622047244092
21
-5.8565834645669286
0
LINE
8
BLACK
6
CONTINUOUS
10
5.7323622047244092
20
-5.8565834645669286
11
5.7293489370078738
21
-5.8559840944881891
0
LINE
8
BLACK
6
CONTINUOUS
10
5.7293489370078738
20
-5.8559840944881891
11
5.7267944488188975
21
-5.8542772047244096
0
LINE
8
BLACK
6
CONTINUOUS
10
5.7267944488188975
20
-5.8542772047244096
11
5.725087559055118
21
-5.8517227165354333
0
LINE
8
BLACK
6
CONTINUOUS
10
5.725087559055118
20
-5.8517227165354333
11
5.7244881889763777
21
-5.8487094488188971
0
LINE
8
BLACK
6
CONTINUOUS
10
5.7244881889763777
20
-5.8487094488188971
11
5.7244881889763777
21
-5.7887094488188975
0
LINE
8
BLACK
6
CONTINUOUS
10
5.7244881889763777
20
-5.7887094488188975
11
5.725087559055118
21
-5.7856961811023622
0
LINE
8
BLACK
6
CONTINUOUS
10
5.725087559055118
20
-5.7856961811023622
11
5.7267944488188975
21
-5.7831416929133859
0
LINE
8
BLACK
6
CONTINUOUS
10
5.7267944488188975
20
-5.7831416929133859
11
5.7293489370078738
21
-5.7814348031496063
0
LINE
8
BLACK
6
CONTINUOUS
10
5.7293489370078738
20
-5.7814348031496063
11
5.7323622047244092
21
-5.780835433070866
0
LINE
8
BLACK
6
CONTINUOUS
10
5.7323622047244092
20
-5.780835433070866
11
5.7923622047244097
21
-5.780835433070866
0
LINE
8
BLACK
6
CONTINUOUS
10
5.7923622047244097
20
-5.780835433070866
11
5.795375472440945
21
-5.7814348031496063
0
LINE
8
BLACK
6
CONTINUOUS
10
4.9418321653543309
20
-5.6856867716535433
11
4.9443866535433072
21
-5.6873936614173228
0
LINE
8
BLACK
6
CONTINUOUS
10
4.9443866535433072
20
-5.6873936614173228
11
4.9460935433070867
21
-5.6899481496062991
0
LINE
8
BLACK
6
CONTINUOUS
10
4.9460935433070867
20
-5.6899481496062991
11
4.9466929133858271
21
-5.6929614173228344
0
LINE
8
BLACK
6
CONTINUOUS
10
4.9466929133858271
20
-5.6929614173228344
11
4.9466929133858271
21
-5.7529614173228349
0
LINE
8
BLACK
6
CONTINUOUS
10
4.9466929133858271
20
-5.7529614173228349
11
4.9460935433070867
21
-5.7559746850393703
0
LINE
8
BLACK
6
CONTINUOUS
10
4.9460935433070867
20
-5.7559746850393703
11
4.9443866535433072
21
-5.7585291732283466
0
LINE
8
BLACK
6
CONTINUOUS
10
4.9443866535433072
20
-5.7585291732283466
11
4.9418321653543309
21
-5.7602360629921261
0
LINE
8
BLACK
6
CONTINUOUS
10
4.9418321653543309
20
-5.7602360629921261
11
4.9388188976377956
21
-5.7608354330708664
0
LINE
8
BLACK
6
CONTINUOUS
10
4.9388188976377956
20
-5.7608354330708664
11
4.8788188976377951
21
-5.7608354330708664
0
LINE
8
BLACK
6
CONTINUOUS
10
4.8788188976377951
20
-5.7608354330708664
11
4.8758056299212598
21
-5.7602360629921261
0
LINE
8
BLACK
6
CONTINUOUS
10
4.8758056299212598
20
-5.7602360629921261
11
4.8732511417322835
21
-5.7585291732283466
0
LINE
8
BLACK
6
CONTINUOUS
10
4.8732511417322835
20
-5.7585291732283466
11
4.8715442519685039
21
-5.7559746850393703
0
LINE
8
BLACK
6
CONTINUOUS
10
4.8715442519685039
20
-5.7559746850393703
11
4.8709448818897636
21
-5.7529614173228349
0
LINE
8
BLACK
6
CONTINUOUS
10
4.8709448818897636
20
-5.7529614173228349
11
4.8709448818897636
21
-5.6929614173228344
0
LINE
8
BLACK
6
CONTINUOUS
10
4.8709448818897636
20
-5.6929614173228344
11
4.8715442519685039
21
-5.6899481496062991
0
LINE
8
BLACK
6
CONTINUOUS
10
4.8715442519685039
20
-5.6899481496062991
11
4.8732511417322835
21
-5.6873936614173228
0
LINE
8
BLACK
6
CONTINUOUS
10
4.8732511417322835
20
-5.6873936614173228
11
4.8758056299212598
21
-5.6856867716535433
0
LINE
8
BLACK
6
CONTINUOUS
10
4.8758056299212598
20
-5.6856867716535433
11
4.8788188976377951
21
-5.685087401574803
0
LINE
8
BLACK
6
CONTINUOUS
10
4.8788188976377951
20
-5.685087401574803
11
4.9388188976377956
21
-5.685087401574803
0
LINE
8
BLACK
6
CONTINUOUS
10
4.9388188976377956
20
-5.685087401574803
11
4.9418321653543309
21
-5.6856867716535433
0
LINE
8
BLACK
6
CONTINUOUS
10
5.0418321653543305
20
-5.6856867716535433
11
5.0443866535433068
21
-5.6873936614173228
0
LINE
8
BLACK
6
CONTINUOUS
10
5.0443866535433068
20
-5.6873936614173228
11
5.0460935433070864
21
-5.6899481496062991
0
LINE
8
BLACK
6
CONTINUOUS
10
5.0460935433070864
20
-5.6899481496062991
11
5.0466929133858267
21
-5.6929614173228344
0
LINE
8
BLACK
6
CONTINUOUS
10
5.0466929133858267
20
-5.6929614173228344
11
5.0466929133858267
21
-5.7529614173228349
0
LINE
8
BLACK
6
CONTINUOUS
10
5.0466929133858267
20
-5.7529614173228349
11
5.0460935433070864
21
-5.7559746850393703
0
LINE
8
BLACK
6
CONTINUOUS
10
5.0460935433070864
20
-5.7559746850393703
11
5.0443866535433068
21
-5.7585291732283466
0
LINE
8
BLACK
6
CONTINUOUS
10
5.0443866535433068
20
-5.7585291732283466
11
5.0418321653543305
21
-5.7602360629921261
0
LINE
8
BLACK
6
CONTINUOUS
10
5.0418321653543305
20
-5.7602360629921261
11
5.0388188976377952
21
-5.7608354330708664
0
LINE
8
BLACK
6
CONTINUOUS
10
5.0388188976377952
20
-5.7608354330708664
11
4.9788188976377947
21
-5.7608354330708664
0
LINE
8
BLACK
6
CONTINUOUS
10
4.9788188976377947
20
-5.7608354330708664
11
4.9758056299212594
21
-5.7602360629921261
0
LINE
8
BLACK
6
CONTINUOUS
10
4.9758056299212594
20
-5.7602360629921261
11
4.9732511417322831
21
-5.7585291732283466
0
LINE
8
BLACK
6
CONTINUOUS
10
4.9732511417322831
20
-5.7585291732283466
11
4.9715442519685036
21
-5.7559746850393703
0
LINE
8
BLACK
6
CONTINUOUS
10
4.9715442519685036
20
-5.7559746850393703
11
4.9709448818897632
21
-5.7529614173228349
0
LINE
8
BLACK
6
CONTINUOUS
10
4.9709448818897632
20
-5.7529614173228349
11
4.9709448818897632
21
-5.6929614173228344
0
LINE
8
BLACK
6
CONTINUOUS
10
4.9709448818897632
20
-5.6929614173228344
11
4.9715442519685036
21
-5.6899481496062991
0
LINE
8
BLACK
6
CONTINUOUS
10
4.9715442519685036
20
-5.6899481496062991
11
4.9732511417322831
21
-5.6873936614173228
0
LINE
8
BLACK
6
CONTINUOUS
10
4.9732511417322831
20
-5.6873936614173228
11
4.9758056299212594
21
-5.6856867716535433
0
LINE
8
BLACK
6
CONTINUOUS
10
4.9758056299212594
20
-5.6856867716535433
11
4.9788188976377947
21
-5.685087401574803
0
LINE
8
BLACK
6
CONTINUOUS
10
4.9788188976377947
20
-5.685087401574803
11
5.0388188976377952
21
-5.685087401574803
0
LINE
8
BLACK
6
CONTINUOUS
10
5.0388188976377952
20
-5.685087401574803
11
5.0418321653543305
21
-5.6856867716535433
0
LINE
8
BLACK
6
CONTINUOUS
10
5.9440132677165352
20
-5.6837253543307087
11
5.9465677559055115
21
-5.6854322440944882
0
LINE
8
BLACK
6
CONTINUOUS
10
5.9465677559055115
20
-5.6854322440944882
11
5.948274645669291
21
-5.6879867322834645
0
LINE
8
BLACK
6
CONTINUOUS
10
5.948274645669291
20
-5.6879867322834645
11
5.9488740157480313
21
-5.6909999999999998
0
LINE
8
BLACK
6
CONTINUOUS
10
5.9488740157480313
20
-5.6909999999999998
11
5.9488740157480313
21
-5.7509999999999994
0
LINE
8
BLACK
6
CONTINUOUS
10
5.9488740157480313
20
-5.7509999999999994
11
5.948274645669291
21
-5.7540132677165357
0
LINE
8
BLACK
6
CONTINUOUS
10
5.948274645669291
20
-5.7540132677165357
11
5.9465677559055115
21
-5.756567755905512
0
LINE
8
BLACK
6
CONTINUOUS
10
5.9465677559055115
20
-5.756567755905512
11
5.9440132677165352
21
-5.7582746456692915
0
LINE
8
BLACK
6
CONTINUOUS
10
5.9440132677165352
20
-5.7582746456692915
11
5.9409999999999998
21
-5.7588740157480309
0
LINE
8
BLACK
6
CONTINUOUS
10
5.9409999999999998
20
-5.7588740157480309
11
5.8810000000000002
21
-5.7588740157480309
0
LINE
8
BLACK
6
CONTINUOUS
10
5.8810000000000002
20
-5.7588740157480309
11
5.877986732283464
21
-5.7582746456692915
0
LINE
8
BLACK
6
CONTINUOUS
10
5.877986732283464
20
-5.7582746456692915
11
5.8754322440944877
21
-5.756567755905512
0
LINE
8
BLACK
6
CONTINUOUS
10
5.8754322440944877
20
-5.756567755905512
11
5.8737253543307082
21
-5.7540132677165357
0
LINE
8
BLACK
6
CONTINUOUS
10
5.8737253543307082
20
-5.7540132677165357
11
5.8731259842519687
21
-5.7509999999999994
0
LINE
8
BLACK
6
CONTINUOUS
10
5.8731259842519687
20
-5.7509999999999994
11
5.8731259842519687
21
-5.6909999999999998
0
LINE
8
BLACK
6
CONTINUOUS
10
5.8731259842519687
20
-5.6909999999999998
11
5.8737253543307082
21
-5.6879867322834645
0
LINE
8
BLACK
6
CONTINUOUS
10
5.8737253543307082
20
-5.6879867322834645
11
5.8754322440944877
21
-5.6854322440944882
0
LINE
8
BLACK
6
CONTINUOUS
10
5.8754322440944877
20
-5.6854322440944882
11
5.877986732283464
21
-5.6837253543307087
0
LINE
8
BLACK
6
CONTINUOUS
10
5.877986732283464
20
-5.6837253543307087
11
5.8810000000000002
21
-5.6831259842519684
0
LINE
8
BLACK
6
CONTINUOUS
10
5.8810000000000002
20
-5.6831259842519684
11
5.9409999999999998
21
-5.6831259842519684
0
LINE
8
BLACK
6
CONTINUOUS
10
5.9409999999999998
20
-5.6831259842519684
11
5.9440132677165352
21
-5.6837253543307087
0
LINE
8
BLACK
6
CONTINUOUS
10
6.0440132677165357
20
-5.6837253543307087
11
6.046567755905512
21
-5.6854322440944882
0
LINE
8
BLACK
6
CONTINUOUS
10
6.046567755905512
20
-5.6854322440944882
11
6.0482746456692915
21
-5.6879867322834645
0
LINE
8
BLACK
6
CONTINUOUS
10
6.0482746456692915
20
-5.6879867322834645
11
6.048874015748031
21
-5.6909999999999998
0
LINE
8
BLACK
6
CONTINUOUS
10
6.048874015748031
20
-5.6909999999999998
11
6.048874015748031
21
-5.7509999999999994
0
LINE
8
BLACK
6
CONTINUOUS
10
6.048874015748031
20
-5.7509999999999994
11
6.0482746456692915
21
-5.7540132677165357
0
LINE
8
BLACK
6
CONTINUOUS
10
6.0482746456692915
20
-5.7540132677165357
11
6.046567755905512
21
-5.756567755905512
0
LINE
8
BLACK
6
CONTINUOUS
10
6.046567755905512
20
-5.756567755905512
11
6.0440132677165357
21
-5.7582746456692915
0
LINE
8
BLACK
6
CONTINUOUS
10
6.0440132677165357
20
-5.7582746456692915
11
6.0409999999999995
21
-5.7588740157480309
0
LINE
8
BLACK
6
CONTINUOUS
10
6.0409999999999995
20
-5.7588740157480309
11
5.9809999999999999
21
-5.7588740157480309
0
LINE
8
BLACK
6
CONTINUOUS
10
5.9809999999999999
20
-5.7588740157480309
11
5.9779867322834646
21
-5.7582746456692915
0
LINE
8
BLACK
6
CONTINUOUS
10
5.9779867322834646
20
-5.7582746456692915
11
5.9754322440944883
21
-5.756567755905512
0
LINE
8
BLACK
6
CONTINUOUS
10
5.9754322440944883
20
-5.756567755905512
11
5.9737253543307087
21
-5.7540132677165357
0
LINE
8
BLACK
6
CONTINUOUS
10
5.9737253543307087
20
-5.7540132677165357
11
5.9731259842519684
21
-5.7509999999999994
0
LINE
8
BLACK
6
CONTINUOUS
10
5.9731259842519684
20
-5.7509999999999994
11
5.9731259842519684
21
-5.6909999999999998
0
LINE
8
BLACK
6
CONTINUOUS
10
5.9731259842519684
20
-5.6909999999999998
11
5.9737253543307087
21
-5.6879867322834645
0
LINE
8
BLACK
6
CONTINUOUS
10
5.9737253543307087
20
-5.6879867322834645
11
5.9754322440944883
21
-5.6854322440944882
0
LINE
8
BLACK
6
CONTINUOUS
10
5.9754322440944883
20
-5.6854322440944882
11
5.9779867322834646
21
-5.6837253543307087
0
LINE
8
BLACK
6
CONTINUOUS
10
5.9779867322834646
20
-5.6837253543307087
11
5.9809999999999999
21
-5.6831259842519684
0
LINE
8
BLACK
6
CONTINUOUS
10
5.9809999999999999
20
-5.6831259842519684
11
6.0409999999999995
21
-5.6831259842519684
0
LINE
8
BLACK
6
CONTINUOUS
10
6.0409999999999995
20
-5.6831259842519684
11
6.0440132677165357
21
-5.6837253543307087
0
LINE
8
BLACK
6
CONTINUOUS
10
4.4469502755905514
20
-5.6833245669291337
11
4.4495047637795277
21
-5.6850314566929132
0
LINE
8
BLACK
6
CONTINUOUS
10
4.4495047637795277
20
-5.6850314566929132
11
4.4512116535433073
21
-5.6875859448818895
0
LINE
8
BLACK
6
CONTINUOUS
10
4.4512116535433073
20
-5.6875859448818895
11
4.4518110236220467
21
-5.6905992125984248
0
LINE
8
BLACK
6
CONTINUOUS
10
4.4518110236220467
20
-5.6905992125984248
11
4.4518110236220467
21
-5.7505992125984253
0
LINE
8
BLACK
6
CONTINUOUS
10
4.4518110236220467
20
-5.7505992125984253
11
4.4512116535433073
21
-5.7536124803149606
0
LINE
8
BLACK
6
CONTINUOUS
10
4.4512116535433073
20
-5.7536124803149606
11
4.4495047637795277
21
-5.7561669685039369
0
LINE
8
BLACK
6
CONTINUOUS
10
4.4495047637795277
20
-5.7561669685039369
11
4.4469502755905514
21
-5.7578738582677165
0
LINE
8
BLACK
6
CONTINUOUS
10
4.4469502755905514
20
-5.7578738582677165
11
4.4439370078740152
21
-5.7584732283464568
0
LINE
8
BLACK
6
CONTINUOUS
10
4.4439370078740152
20
-5.7584732283464568
11
4.3839370078740156
21
-5.7584732283464568
0
LINE
8
BLACK
6
CONTINUOUS
10
4.3839370078740156
20
-5.7584732283464568
11
4.3809237401574803
21
-5.7578738582677165
0
LINE
8
BLACK
6
CONTINUOUS
10
4.3809237401574803
20
-5.7578738582677165
11
4.378369251968504
21
-5.7561669685039369
0
LINE
8
BLACK
6
CONTINUOUS
10
4.378369251968504
20
-5.7561669685039369
11
4.3766623622047245
21
-5.7536124803149606
0
LINE
8
BLACK
6
CONTINUOUS
10
4.3766623622047245
20
-5.7536124803149606
11
4.3760629921259842
21
-5.7505992125984253
0
LINE
8
BLACK
6
CONTINUOUS
10
4.3760629921259842
20
-5.7505992125984253
11
4.3760629921259842
21
-5.6905992125984248
0
LINE
8
BLACK
6
CONTINUOUS
10
4.3760629921259842
20
-5.6905992125984248
11
4.3766623622047245
21
-5.6875859448818895
0
LINE
8
BLACK
6
CONTINUOUS
10
4.3766623622047245
20
-5.6875859448818895
11
4.378369251968504
21
-5.6850314566929132
0
LINE
8
BLACK
6
CONTINUOUS
10
4.378369251968504
20
-5.6850314566929132
11
4.3809237401574803
21
-5.6833245669291337
0
LINE
8
BLACK
6
CONTINUOUS
10
4.3809237401574803
20
-5.6833245669291337
11
4.3839370078740156
21
-5.6827251968503933
0
LINE
8
BLACK
6
CONTINUOUS
10
4.3839370078740156
20
-5.6827251968503933
11
4.4439370078740152
21
-5.6827251968503933
0
LINE
8
BLACK
6
CONTINUOUS
10
4.4439370078740152
20
-5.6827251968503933
11
4.4469502755905514
21
-5.6833245669291337
0
LINE
8
BLACK
6
CONTINUOUS
10
4.5469502755905511
20
-5.6833245669291337
11
4.5495047637795274
21
-5.6850314566929132
0
LINE
8
BLACK
6
CONTINUOUS
10
4.5495047637795274
20
-5.6850314566929132
11
4.5512116535433069
21
-5.6875859448818895
0
LINE
8
BLACK
6
CONTINUOUS
10
4.5512116535433069
20
-5.6875859448818895
11
4.5518110236220473
21
-5.6905992125984248
0
LINE
8
BLACK
6
CONTINUOUS
10
4.5518110236220473
20
-5.6905992125984248
11
4.5518110236220473
21
-5.7505992125984253
0
LINE
8
BLACK
6
CONTINUOUS
10
4.5518110236220473
20
-5.7505992125984253
11
4.5512116535433069
21
-5.7536124803149606
0
LINE
8
BLACK
6
CONTINUOUS
10
4.5512116535433069
20
-5.7536124803149606
11
4.5495047637795274
21
-5.7561669685039369
0
LINE
8
BLACK
6
CONTINUOUS
10
4.5495047637795274
20
-5.7561669685039369
11
4.5469502755905511
21
-5.7578738582677165
0
LINE
8
BLACK
6
CONTINUOUS
10
4.5469502755905511
20
-5.7578738582677165
11
4.5439370078740158
21
-5.7584732283464568
0
LINE
8
BLACK
6
CONTINUOUS
10
4.5439370078740158
20
-5.7584732283464568
11
4.4839370078740153
21
-5.7584732283464568
0
LINE
8
BLACK
6
CONTINUOUS
10
4.4839370078740153
20
-5.7584732283464568
11
4.48092374015748
21
-5.7578738582677165
0
LINE
8
BLACK
6
CONTINUOUS
10
4.48092374015748
20
-5.7578738582677165
11
4.4783692519685037
21
-5.7561669685039369
0
LINE
8
BLACK
6
CONTINUOUS
10
4.4783692519685037
20
-5.7561669685039369
11
4.4766623622047241
21
-5.7536124803149606
0
LINE
8
BLACK
6
CONTINUOUS
10
4.4766623622047241
20
-5.7536124803149606
11
4.4760629921259838
21
-5.7505992125984253
0
LINE
8
BLACK
6
CONTINUOUS
10
4.4760629921259838
20
-5.7505992125984253
11
4.4760629921259838
21
-5.6905992125984248
0
LINE
8
BLACK
6
CONTINUOUS
10
4.4760629921259838
20
-5.6905992125984248
11
4.4766623622047241
21
-5.6875859448818895
0
LINE
8
BLACK
6
CONTINUOUS
10
4.4766623622047241
20
-5.6875859448818895
11
4.4783692519685037
21
-5.6850314566929132
0
LINE
8
BLACK
6
CONTINUOUS
10
4.4783692519685037
20
-5.6850314566929132
11
4.48092374015748
21
-5.6833245669291337
0
LINE
8
BLACK
6
CONTINUOUS
10
4.48092374015748
20
-5.6833245669291337
11
4.4839370078740153
21
-5.6827251968503933
0
LINE
8
BLACK
6
CONTINUOUS
10
4.4839370078740153
20
-5.6827251968503933
11
4.5439370078740158
21
-5.6827251968503933
0
LINE
8
BLACK
6
CONTINUOUS
10
4.5439370078740158
20
-5.6827251968503933
11
4.5469502755905511
21
-5.6833245669291337
0
LINE
8
BLACK
6
CONTINUOUS
10
4.6953754724409444
20
-5.6814348031496058
11
4.6979299606299207
21
-5.6831416929133853
0
LINE
8
BLACK
6
CONTINUOUS
10
4.6979299606299207
20
-5.6831416929133853
11
4.6996368503937003
21
-5.6856961811023616
0
LINE
8
BLACK
6
CONTINUOUS
10
4.6996368503937003
20
-5.6856961811023616
11
4.7002362204724406
21
-5.6887094488188978
0
LINE
8
BLACK
6
CONTINUOUS
10
4.7002362204724406
20
-5.6887094488188978
11
4.7002362204724406
21
-5.7487094488188974
0
LINE
8
BLACK
6
CONTINUOUS
10
4.7002362204724406
20
-5.7487094488188974
11
4.6996368503937003
21
-5.7517227165354328
0
LINE
8
BLACK
6
CONTINUOUS
10
4.6996368503937003
20
-5.7517227165354328
11
4.6979299606299207
21
-5.7542772047244091
0
LINE
8
BLACK
6
CONTINUOUS
10
4.6979299606299207
20
-5.7542772047244091
11
4.6953754724409444
21
-5.7559840944881886
0
LINE
8
BLACK
6
CONTINUOUS
10
4.6953754724409444
20
-5.7559840944881886
11
4.6923622047244091
21
-5.7565834645669289
0
LINE
8
BLACK
6
CONTINUOUS
10
4.6923622047244091
20
-5.7565834645669289
11
4.6323622047244095
21
-5.7565834645669289
0
LINE
8
BLACK
6
CONTINUOUS
10
4.6323622047244095
20
-5.7565834645669289
11
4.6293489370078742
21
-5.7559840944881886
0
LINE
8
BLACK
6
CONTINUOUS
10
4.6293489370078742
20
-5.7559840944881886
11
4.6267944488188979
21
-5.7542772047244091
0
LINE
8
BLACK
6
CONTINUOUS
10
4.6267944488188979
20
-5.7542772047244091
11
4.6250875590551184
21
-5.7517227165354328
0
LINE
8
BLACK
6
CONTINUOUS
10
4.6250875590551184
20
-5.7517227165354328
11
4.624488188976378
21
-5.7487094488188974
0
LINE
8
BLACK
6
CONTINUOUS
10
4.624488188976378
20
-5.7487094488188974
11
4.624488188976378
21
-5.6887094488188978
0
LINE
8
BLACK
6
CONTINUOUS
10
4.624488188976378
20
-5.6887094488188978
11
4.6250875590551184
21
-5.6856961811023616
0
LINE
8
BLACK
6
CONTINUOUS
10
4.6250875590551184
20
-5.6856961811023616
11
4.6267944488188979
21
-5.6831416929133853
0
LINE
8
BLACK
6
CONTINUOUS
10
4.6267944488188979
20
-5.6831416929133853
11
4.6293489370078742
21
-5.6814348031496058
0
LINE
8
BLACK
6
CONTINUOUS
10
4.6293489370078742
20
-5.6814348031496058
11
4.6323622047244095
21
-5.6808354330708664
0
LINE
8
BLACK
6
CONTINUOUS
10
4.6323622047244095
20
-5.6808354330708664
11
4.6923622047244091
21
-5.6808354330708664
0
LINE
8
BLACK
6
CONTINUOUS
10
4.6923622047244091
20
-5.6808354330708664
11
4.6953754724409444
21
-5.6814348031496058
0
LINE
8
BLACK
6
CONTINUOUS
10
4.795375472440945
20
-5.6814348031496058
11
4.7979299606299213
21
-5.6831416929133853
0
LINE
8
BLACK
6
CONTINUOUS
10
4.7979299606299213
20
-5.6831416929133853
11
4.7996368503937008
21
-5.6856961811023616
0
LINE
8
BLACK
6
CONTINUOUS
10
4.7996368503937008
20
-5.6856961811023616
11
4.8002362204724411
21
-5.6887094488188978
0
LINE
8
BLACK
6
CONTINUOUS
10
4.8002362204724411
20
-5.6887094488188978
11
4.8002362204724411
21
-5.7487094488188974
0
LINE
8
BLACK
6
CONTINUOUS
10
4.8002362204724411
20
-5.7487094488188974
11
4.7996368503937008
21
-5.7517227165354328
0
LINE
8
BLACK
6
CONTINUOUS
10
4.7996368503937008
20
-5.7517227165354328
11
4.7979299606299213
21
-5.7542772047244091
0
LINE
8
BLACK
6
CONTINUOUS
10
4.7979299606299213
20
-5.7542772047244091
11
4.795375472440945
21
-5.7559840944881886
0
LINE
8
BLACK
6
CONTINUOUS
10
4.795375472440945
20
-5.7559840944881886
11
4.7923622047244097
21
-5.7565834645669289
0
LINE
8
BLACK
6
CONTINUOUS
10
4.7923622047244097
20
-5.7565834645669289
11
4.7323622047244092
21
-5.7565834645669289
0
LINE
8
BLACK
6
CONTINUOUS
10
4.7323622047244092
20
-5.7565834645669289
11
4.7293489370078738
21
-5.7559840944881886
0
LINE
8
BLACK
6
CONTINUOUS
10
4.7293489370078738
20
-5.7559840944881886
11
4.7267944488188975
21
-5.7542772047244091
0
LINE
8
BLACK
6
CONTINUOUS
10
4.7267944488188975
20
-5.7542772047244091
11
4.725087559055118
21
-5.7517227165354328
0
LINE
8
BLACK
6
CONTINUOUS
10
4.725087559055118
20
-5.7517227165354328
11
4.7244881889763777
21
-5.7487094488188974
0
LINE
8
BLACK
6
CONTINUOUS
10
4.7244881889763777
20
-5.7487094488188974
11
4.7244881889763777
21
-5.6887094488188978
0
LINE
8
BLACK
6
CONTINUOUS
10
4.7244881889763777
20
-5.6887094488188978
11
4.725087559055118
21
-5.6856961811023616
0
LINE
8
BLACK
6
CONTINUOUS
10
4.725087559055118
20
-5.6856961811023616
11
4.7267944488188975
21
-5.6831416929133853
0
LINE
8
BLACK
6
CONTINUOUS
10
4.7267944488188975
20
-5.6831416929133853
11
4.7293489370078738
21
-5.6814348031496058
0
LINE
8
BLACK
6
CONTINUOUS
10
4.7293489370078738
20
-5.6814348031496058
11
4.7323622047244092
21
-5.6808354330708664
0
LINE
8
BLACK
6
CONTINUOUS
10
4.7323622047244092
20
-5.6808354330708664
11
4.7923622047244097
21
-5.6808354330708664
0
LINE
8
BLACK
6
CONTINUOUS
10
4.7923622047244097
20
-5.6808354330708664
11
4.795375472440945
21
-5.6814348031496058
0
LINE
8
BLACK
6
CONTINUOUS
10
5.1953754724409444
20
-5.6814348031496058
11
5.1979299606299207
21
-5.6831416929133853
0
LINE
8
BLACK
6
CONTINUOUS
10
5.1979299606299207
20
-5.6831416929133853
11
5.1996368503937003
21
-5.6856961811023616
0
LINE
8
BLACK
6
CONTINUOUS
10
5.1996368503937003
20
-5.6856961811023616
11
5.2002362204724406
21
-5.6887094488188978
0
LINE
8
BLACK
6
CONTINUOUS
10
5.2002362204724406
20
-5.6887094488188978
11
5.2002362204724406
21
-5.7487094488188974
0
LINE
8
BLACK
6
CONTINUOUS
10
5.2002362204724406
20
-5.7487094488188974
11
5.1996368503937003
21
-5.7517227165354328
0
LINE
8
BLACK
6
CONTINUOUS
10
5.1996368503937003
20
-5.7517227165354328
11
5.1979299606299207
21
-5.7542772047244091
0
LINE
8
BLACK
6
CONTINUOUS
10
5.1979299606299207
20
-5.7542772047244091
11
5.1953754724409444
21
-5.7559840944881886
0
LINE
8
BLACK
6
CONTINUOUS
10
5.1953754724409444
20
-5.7559840944881886
11
5.1923622047244091
21
-5.7565834645669289
0
LINE
8
BLACK
6
CONTINUOUS
10
5.1923622047244091
20
-5.7565834645669289
11
5.1323622047244095
21
-5.7565834645669289
0
LINE
8
BLACK
6
CONTINUOUS
10
5.1323622047244095
20
-5.7565834645669289
11
5.1293489370078742
21
-5.7559840944881886
0
LINE
8
BLACK
6
CONTINUOUS
10
5.1293489370078742
20
-5.7559840944881886
11
5.1267944488188979
21
-5.7542772047244091
0
LINE
8
BLACK
6
CONTINUOUS
10
5.1267944488188979
20
-5.7542772047244091
11
5.1250875590551184
21
-5.7517227165354328
0
LINE
8
BLACK
6
CONTINUOUS
10
5.1250875590551184
20
-5.7517227165354328
11
5.124488188976378
21
-5.7487094488188974
0
LINE
8
BLACK
6
CONTINUOUS
10
5.124488188976378
20
-5.7487094488188974
11
5.124488188976378
21
-5.6887094488188978
0
LINE
8
BLACK
6
CONTINUOUS
10
5.124488188976378
20
-5.6887094488188978
11
5.1250875590551184
21
-5.6856961811023616
0
LINE
8
BLACK
6
CONTINUOUS
10
5.1250875590551184
20
-5.6856961811023616
11
5.1267944488188979
21
-5.6831416929133853
0
LINE
8
BLACK
6
CONTINUOUS
10
5.1267944488188979
20
-5.6831416929133853
11
5.1293489370078742
21
-5.6814348031496058
0
LINE
8
BLACK
6
CONTINUOUS
10
5.1293489370078742
20
-5.6814348031496058
11
5.1323622047244095
21
-5.6808354330708664
0
LINE
8
BLACK
6
CONTINUOUS
10
5.1323622047244095
20
-5.6808354330708664
11
5.1923622047244091
21
-5.6808354330708664
0
LINE
8
BLACK
6
CONTINUOUS
10
5.1923622047244091
20
-5.6808354330708664
11
5.1953754724409444
21
-5.6814348031496058
0
LINE
8
BLACK
6
CONTINUOUS
10
5.295375472440945
20
-5.6814348031496058
11
5.2979299606299213
21
-5.6831416929133853
0
LINE
8
BLACK
6
CONTINUOUS
10
5.2979299606299213
20
-5.6831416929133853
11
5.2996368503937008
21
-5.6856961811023616
0
LINE
8
BLACK
6
CONTINUOUS
10
5.2996368503937008
20
-5.6856961811023616
11
5.3002362204724411
21
-5.6887094488188978
0
LINE
8
BLACK
6
CONTINUOUS
10
5.3002362204724411
20
-5.6887094488188978
11
5.3002362204724411
21
-5.7487094488188974
0
LINE
8
BLACK
6
CONTINUOUS
10
5.3002362204724411
20
-5.7487094488188974
11
5.2996368503937008
21
-5.7517227165354328
0
LINE
8
BLACK
6
CONTINUOUS
10
5.2996368503937008
20
-5.7517227165354328
11
5.2979299606299213
21
-5.7542772047244091
0
LINE
8
BLACK
6
CONTINUOUS
10
5.2979299606299213
20
-5.7542772047244091
11
5.295375472440945
21
-5.7559840944881886
0
LINE
8
BLACK
6
CONTINUOUS
10
5.295375472440945
20
-5.7559840944881886
11
5.2923622047244097
21
-5.7565834645669289
0
LINE
8
BLACK
6
CONTINUOUS
10
5.2923622047244097
20
-5.7565834645669289
11
5.2323622047244092
21
-5.7565834645669289
0
LINE
8
BLACK
6
CONTINUOUS
10
5.2323622047244092
20
-5.7565834645669289
11
5.2293489370078738
21
-5.7559840944881886
0
LINE
8
BLACK
6
CONTINUOUS
10
5.2293489370078738
20
-5.7559840944881886
11
5.2267944488188975
21
-5.7542772047244091
0
LINE
8
BLACK
6
CONTINUOUS
10
5.2267944488188975
20
-5.7542772047244091
11
5.225087559055118
21
-5.7517227165354328
0
LINE
8
BLACK
6
CONTINUOUS
10
5.225087559055118
20
-5.7517227165354328
11
5.2244881889763777
21
-5.7487094488188974
0
LINE
8
BLACK
6
CONTINUOUS
10
5.2244881889763777
20
-5.7487094488188974
11
5.2244881889763777
21
-5.6887094488188978
0
LINE
8
BLACK
6
CONTINUOUS
10
5.2244881889763777
20
-5.6887094488188978
11
5.225087559055118
21
-5.6856961811023616
0
LINE
8
BLACK
6
CONTINUOUS
10
5.225087559055118
20
-5.6856961811023616
11
5.2267944488188975
21
-5.6831416929133853
0
LINE
8
BLACK
6
CONTINUOUS
10
5.2267944488188975
20
-5.6831416929133853
11
5.2293489370078738
21
-5.6814348031496058
0
LINE
8
BLACK
6
CONTINUOUS
10
5.2293489370078738
20
-5.6814348031496058
11
5.2323622047244092
21
-5.6808354330708664
0
LINE
8
BLACK
6
CONTINUOUS
10
5.2323622047244092
20
-5.6808354330708664
11
5.2923622047244097
21
-5.6808354330708664
0
LINE
8
BLACK
6
CONTINUOUS
10
5.2923622047244097
20
-5.6808354330708664
11
5.295375472440945
21
-5.6814348031496058
0
LINE
8
BLACK
6
CONTINUOUS
10
5.4453754724409444
20
-5.6814348031496058
11
5.4479299606299207
21
-5.6831416929133853
0
LINE
8
BLACK
6
CONTINUOUS
10
5.4479299606299207
20
-5.6831416929133853
11
5.4496368503937003
21
-5.6856961811023616
0
LINE
8
BLACK
6
CONTINUOUS
10
5.4496368503937003
20
-5.6856961811023616
11
5.4502362204724406
21
-5.6887094488188978
0
LINE
8
BLACK
6
CONTINUOUS
10
5.4502362204724406
20
-5.6887094488188978
11
5.4502362204724406
21
-5.7487094488188974
0
LINE
8
BLACK
6
CONTINUOUS
10
5.4502362204724406
20
-5.7487094488188974
11
5.4496368503937003
21
-5.7517227165354328
0
LINE
8
BLACK
6
CONTINUOUS
10
5.4496368503937003
20
-5.7517227165354328
11
5.4479299606299207
21
-5.7542772047244091
0
LINE
8
BLACK
6
CONTINUOUS
10
5.4479299606299207
20
-5.7542772047244091
11
5.4453754724409444
21
-5.7559840944881886
0
LINE
8
BLACK
6
CONTINUOUS
10
5.4453754724409444
20
-5.7559840944881886
11
5.4423622047244091
21
-5.7565834645669289
0
LINE
8
BLACK
6
CONTINUOUS
10
5.4423622047244091
20
-5.7565834645669289
11
5.3823622047244095
21
-5.7565834645669289
0
LINE
8
BLACK
6
CONTINUOUS
10
5.3823622047244095
20
-5.7565834645669289
11
5.3793489370078742
21
-5.7559840944881886
0
LINE
8
BLACK
6
CONTINUOUS
10
5.3793489370078742
20
-5.7559840944881886
11
5.3767944488188979
21
-5.7542772047244091
0
LINE
8
BLACK
6
CONTINUOUS
10
5.3767944488188979
20
-5.7542772047244091
11
5.3750875590551184
21
-5.7517227165354328
0
LINE
8
BLACK
6
CONTINUOUS
10
5.3750875590551184
20
-5.7517227165354328
11
5.374488188976378
21
-5.7487094488188974
0
LINE
8
BLACK
6
CONTINUOUS
10
5.374488188976378
20
-5.7487094488188974
11
5.374488188976378
21
-5.6887094488188978
0
LINE
8
BLACK
6
CONTINUOUS
10
5.374488188976378
20
-5.6887094488188978
11
5.3750875590551184
21
-5.6856961811023616
0
LINE
8
BLACK
6
CONTINUOUS
10
5.3750875590551184
20
-5.6856961811023616
11
5.3767944488188979
21
-5.6831416929133853
0
LINE
8
BLACK
6
CONTINUOUS
10
5.3767944488188979
20
-5.6831416929133853
11
5.3793489370078742
21
-5.6814348031496058
0
LINE
8
BLACK
6
CONTINUOUS
10
5.3793489370078742
20
-5.6814348031496058
11
5.3823622047244095
21
-5.6808354330708664
0
LINE
8
BLACK
6
CONTINUOUS
10
5.3823622047244095
20
-5.6808354330708664
11
5.4423622047244091
21
-5.6808354330708664
0
LINE
8
BLACK
6
CONTINUOUS
10
5.4423622047244091
20
-5.6808354330708664
11
5.4453754724409444
21
-5.6814348031496058
0
LINE
8
BLACK
6
CONTINUOUS
10
5.545375472440945
20
-5.6814348031496058
11
5.5479299606299213
21
-5.6831416929133853
0
LINE
8
BLACK
6
CONTINUOUS
10
5.5479299606299213
20
-5.6831416929133853
11
5.5496368503937008
21
-5.6856961811023616
0
LINE
8
BLACK
6
CONTINUOUS
10
5.5496368503937008
20
-5.6856961811023616
11
5.5502362204724411
21
-5.6887094488188978
0
LINE
8
BLACK
6
CONTINUOUS
10
5.5502362204724411
20
-5.6887094488188978
11
5.5502362204724411
21
-5.7487094488188974
0
LINE
8
BLACK
6
CONTINUOUS
10
5.5502362204724411
20
-5.7487094488188974
11
5.5496368503937008
21
-5.7517227165354328
0
LINE
8
BLACK
6
CONTINUOUS
10
5.5496368503937008
20
-5.7517227165354328
11
5.5479299606299213
21
-5.7542772047244091
0
LINE
8
BLACK
6
CONTINUOUS
10
5.5479299606299213
20
-5.7542772047244091
11
5.545375472440945
21
-5.7559840944881886
0
LINE
8
BLACK
6
CONTINUOUS
10
5.545375472440945
20
-5.7559840944881886
11
5.5423622047244097
21
-5.7565834645669289
0
LINE
8
BLACK
6
CONTINUOUS
10
5.5423622047244097
20
-5.7565834645669289
11
5.4823622047244092
21
-5.7565834645669289
0
LINE
8
BLACK
6
CONTINUOUS
10
5.4823622047244092
20
-5.7565834645669289
11
5.4793489370078738
21
-5.7559840944881886
0
LINE
8
BLACK
6
CONTINUOUS
10
5.4793489370078738
20
-5.7559840944881886
11
5.4767944488188975
21
-5.7542772047244091
0
LINE
8
BLACK
6
CONTINUOUS
10
5.4767944488188975
20
-5.7542772047244091
11
5.475087559055118
21
-5.7517227165354328
0
LINE
8
BLACK
6
CONTINUOUS
10
5.475087559055118
20
-5.7517227165354328
11
5.4744881889763777
21
-5.7487094488188974
0
LINE
8
BLACK
6
CONTINUOUS
10
5.4744881889763777
20
-5.7487094488188974
11
5.4744881889763777
21
-5.6887094488188978
0
LINE
8
BLACK
6
CONTINUOUS
10
5.4744881889763777
20
-5.6887094488188978
11
5.475087559055118
21
-5.6856961811023616
0
LINE
8
BLACK
6
CONTINUOUS
10
5.475087559055118
20
-5.6856961811023616
11
5.4767944488188975
21
-5.6831416929133853
0
LINE
8
BLACK
6
CONTINUOUS
10
5.4767944488188975
20
-5.6831416929133853
11
5.4793489370078738
21
-5.6814348031496058
0
LINE
8
BLACK
6
CONTINUOUS
10
5.4793489370078738
20
-5.6814348031496058
11
5.4823622047244092
21
-5.6808354330708664
0
LINE
8
BLACK
6
CONTINUOUS
10
5.4823622047244092
20
-5.6808354330708664
11
5.5423622047244097
21
-5.6808354330708664
0
LINE
8
BLACK
6
CONTINUOUS
10
5.5423622047244097
20
-5.6808354330708664
11
5.545375472440945
21
-5.6814348031496058
0
LINE
8
BLACK
6
CONTINUOUS
10
5.6953754724409444
20
-5.6814348031496058
11
5.6979299606299207
21
-5.6831416929133853
0
LINE
8
BLACK
6
CONTINUOUS
10
5.6979299606299207
20
-5.6831416929133853
11
5.6996368503937003
21
-5.6856961811023616
0
LINE
8
BLACK
6
CONTINUOUS
10
5.6996368503937003
20
-5.6856961811023616
11
5.7002362204724406
21
-5.6887094488188978
0
LINE
8
BLACK
6
CONTINUOUS
10
5.7002362204724406
20
-5.6887094488188978
11
5.7002362204724406
21
-5.7487094488188974
0
LINE
8
BLACK
6
CONTINUOUS
10
5.7002362204724406
20
-5.7487094488188974
11
5.6996368503937003
21
-5.7517227165354328
0
LINE
8
BLACK
6
CONTINUOUS
10
5.6996368503937003
20
-5.7517227165354328
11
5.6979299606299207
21
-5.7542772047244091
0
LINE
8
BLACK
6
CONTINUOUS
10
5.6979299606299207
20
-5.7542772047244091
11
5.6953754724409444
21
-5.7559840944881886
0
LINE
8
BLACK
6
CONTINUOUS
10
5.6953754724409444
20
-5.7559840944881886
11
5.6923622047244091
21
-5.7565834645669289
0
LINE
8
BLACK
6
CONTINUOUS
10
5.6923622047244091
20
-5.7565834645669289
11
5.6323622047244095
21
-5.7565834645669289
0
LINE
8
BLACK
6
CONTINUOUS
10
5.6323622047244095
20
-5.7565834645669289
11
5.6293489370078742
21
-5.7559840944881886
0
LINE
8
BLACK
6
CONTINUOUS
10
5.6293489370078742
20
-5.7559840944881886
11
5.6267944488188979
21
-5.7542772047244091
0
LINE
8
BLACK
6
CONTINUOUS
10
5.6267944488188979
20
-5.7542772047244091
11
5.6250875590551184
21
-5.7517227165354328
0
LINE
8
BLACK
6
CONTINUOUS
10
5.6250875590551184
20
-5.7517227165354328
11
5.624488188976378
21
-5.7487094488188974
0
LINE
8
BLACK
6
CONTINUOUS
10
5.624488188976378
20
-5.7487094488188974
11
5.624488188976378
21
-5.6887094488188978
0
LINE
8
BLACK
6
CONTINUOUS
10
5.624488188976378
20
-5.6887094488188978
11
5.6250875590551184
21
-5.6856961811023616
0
LINE
8
BLACK
6
CONTINUOUS
10
5.6250875590551184
20
-5.6856961811023616
11
5.6267944488188979
21
-5.6831416929133853
0
LINE
8
BLACK
6
CONTINUOUS
10
5.6267944488188979
20
-5.6831416929133853
11
5.6293489370078742
21
-5.6814348031496058
0
LINE
8
BLACK
6
CONTINUOUS
10
5.6293489370078742
20
-5.6814348031496058
11
5.6323622047244095
21
-5.6808354330708664
0
LINE
8
BLACK
6
CONTINUOUS
10
5.6323622047244095
20
-5.6808354330708664
11
5.6923622047244091
21
-5.6808354330708664
0
LINE
8
BLACK
6
CONTINUOUS
10
5.6923622047244091
20
-5.6808354330708664
11
5.6953754724409444
21
-5.6814348031496058
0
LINE
8
BLACK
6
CONTINUOUS
10
5.795375472440945
20
-5.6814348031496058
11
5.7979299606299213
21
-5.6831416929133853
0
LINE
8
BLACK
6
CONTINUOUS
10
5.7979299606299213
20
-5.6831416929133853
11
5.7996368503937008
21
-5.6856961811023616
0
LINE
8
BLACK
6
CONTINUOUS
10
5.7996368503937008
20
-5.6856961811023616
11
5.8002362204724411
21
-5.6887094488188978
0
LINE
8
BLACK
6
CONTINUOUS
10
5.8002362204724411
20
-5.6887094488188978
11
5.8002362204724411
21
-5.7487094488188974
0
LINE
8
BLACK
6
CONTINUOUS
10
5.8002362204724411
20
-5.7487094488188974
11
5.7996368503937008
21
-5.7517227165354328
0
LINE
8
BLACK
6
CONTINUOUS
10
5.7996368503937008
20
-5.7517227165354328
11
5.7979299606299213
21
-5.7542772047244091
0
LINE
8
BLACK
6
CONTINUOUS
10
5.7979299606299213
20
-5.7542772047244091
11
5.795375472440945
21
-5.7559840944881886
0
LINE
8
BLACK
6
CONTINUOUS
10
5.795375472440945
20
-5.7559840944881886
11
5.7923622047244097
21
-5.7565834645669289
0
LINE
8
BLACK
6
CONTINUOUS
10
5.7923622047244097
20
-5.7565834645669289
11
5.7323622047244092
21
-5.7565834645669289
0
LINE
8
BLACK
6
CONTINUOUS
10
5.7323622047244092
20
-5.7565834645669289
11
5.7293489370078738
21
-5.7559840944881886
0
LINE
8
BLACK
6
CONTINUOUS
10
5.7293489370078738
20
-5.7559840944881886
11
5.7267944488188975
21
-5.7542772047244091
0
LINE
8
BLACK
6
CONTINUOUS
10
5.7267944488188975
20
-5.7542772047244091
11
5.725087559055118
21
-5.7517227165354328
0
LINE
8
BLACK
6
CONTINUOUS
10
5.725087559055118
20
-5.7517227165354328
11
5.7244881889763777
21
-5.7487094488188974
0
LINE
8
BLACK
6
CONTINUOUS
10
5.7244881889763777
20
-5.7487094488188974
11
5.7244881889763777
21
-5.6887094488188978
0
LINE
8
BLACK
6
CONTINUOUS
10
5.7244881889763777
20
-5.6887094488188978
11
5.725087559055118
21
-5.6856961811023616
0
LINE
8
BLACK
6
CONTINUOUS
10
5.725087559055118
20
-5.6856961811023616
11
5.7267944488188975
21
-5.6831416929133853
0
LINE
8
BLACK
6
CONTINUOUS
10
5.7267944488188975
20
-5.6831416929133853
11
5.7293489370078738
21
-5.6814348031496058
0
LINE
8
BLACK
6
CONTINUOUS
10
5.7293489370078738
20
-5.6814348031496058
11
5.7323622047244092
21
-5.6808354330708664
0
LINE
8
BLACK
6
CONTINUOUS
10
5.7323622047244092
20
-5.6808354330708664
11
5.7923622047244097
21
-5.6808354330708664
0
LINE
8
BLACK
6
CONTINUOUS
10
5.7923622047244097
20
-5.6808354330708664
11
5.795375472440945
21
-5.6814348031496058
0
LINE
8
BLACK
6
CONTINUOUS
10
4.9418321653543309
20
-5.5856867716535428
11
4.9443866535433072
21
-5.5873936614173223
0
LINE
8
BLACK
6
CONTINUOUS
10
4.9443866535433072
20
-5.5873936614173223
11
4.9460935433070867
21
-5.5899481496062995
0
LINE
8
BLACK
6
CONTINUOUS
10
4.9460935433070867
20
-5.5899481496062995
11
4.9466929133858271
21
-5.5929614173228348
0
LINE
8
BLACK
6
CONTINUOUS
10
4.9466929133858271
20
-5.5929614173228348
11
4.9466929133858271
21
-5.6529614173228344
0
LINE
8
BLACK
6
CONTINUOUS
10
4.9466929133858271
20
-5.6529614173228344
11
4.9460935433070867
21
-5.6559746850393697
0
LINE
8
BLACK
6
CONTINUOUS
10
4.9460935433070867
20
-5.6559746850393697
11
4.9443866535433072
21
-5.658529173228346
0
LINE
8
BLACK
6
CONTINUOUS
10
4.9443866535433072
20
-5.658529173228346
11
4.9418321653543309
21
-5.6602360629921256
0
LINE
8
BLACK
6
CONTINUOUS
10
4.9418321653543309
20
-5.6602360629921256
11
4.9388188976377956
21
-5.6608354330708659
0
LINE
8
BLACK
6
CONTINUOUS
10
4.9388188976377956
20
-5.6608354330708659
11
4.8788188976377951
21
-5.6608354330708659
0
LINE
8
BLACK
6
CONTINUOUS
10
4.8788188976377951
20
-5.6608354330708659
11
4.8758056299212598
21
-5.6602360629921256
0
LINE
8
BLACK
6
CONTINUOUS
10
4.8758056299212598
20
-5.6602360629921256
11
4.8732511417322835
21
-5.658529173228346
0
LINE
8
BLACK
6
CONTINUOUS
10
4.8732511417322835
20
-5.658529173228346
11
4.8715442519685039
21
-5.6559746850393697
0
LINE
8
BLACK
6
CONTINUOUS
10
4.8715442519685039
20
-5.6559746850393697
11
4.8709448818897636
21
-5.6529614173228344
0
LINE
8
BLACK
6
CONTINUOUS
10
4.8709448818897636
20
-5.6529614173228344
11
4.8709448818897636
21
-5.5929614173228348
0
LINE
8
BLACK
6
CONTINUOUS
10
4.8709448818897636
20
-5.5929614173228348
11
4.8715442519685039
21
-5.5899481496062995
0
LINE
8
BLACK
6
CONTINUOUS
10
4.8715442519685039
20
-5.5899481496062995
11
4.8732511417322835
21
-5.5873936614173223
0
LINE
8
BLACK
6
CONTINUOUS
10
4.8732511417322835
20
-5.5873936614173223
11
4.8758056299212598
21
-5.5856867716535428
0
LINE
8
BLACK
6
CONTINUOUS
10
4.8758056299212598
20
-5.5856867716535428
11
4.8788188976377951
21
-5.5850874015748033
0
LINE
8
BLACK
6
CONTINUOUS
10
4.8788188976377951
20
-5.5850874015748033
11
4.9388188976377956
21
-5.5850874015748033
0
LINE
8
BLACK
6
CONTINUOUS
10
4.9388188976377956
20
-5.5850874015748033
11
4.9418321653543309
21
-5.5856867716535428
0
LINE
8
BLACK
6
CONTINUOUS
10
5.0418321653543305
20
-5.5856867716535428
11
5.0443866535433068
21
-5.5873936614173223
0
LINE
8
BLACK
6
CONTINUOUS
10
5.0443866535433068
20
-5.5873936614173223
11
5.0460935433070864
21
-5.5899481496062995
0
LINE
8
BLACK
6
CONTINUOUS
10
5.0460935433070864
20
-5.5899481496062995
11
5.0466929133858267
21
-5.5929614173228348
0
LINE
8
BLACK
6
CONTINUOUS
10
5.0466929133858267
20
-5.5929614173228348
11
5.0466929133858267
21
-5.6529614173228344
0
LINE
8
BLACK
6
CONTINUOUS
10
5.0466929133858267
20
-5.6529614173228344
11
5.0460935433070864
21
-5.6559746850393697
0
LINE
8
BLACK
6
CONTINUOUS
10
5.0460935433070864
20
-5.6559746850393697
11
5.0443866535433068
21
-5.658529173228346
0
LINE
8
BLACK
6
CONTINUOUS
10
5.0443866535433068
20
-5.658529173228346
11
5.0418321653543305
21
-5.6602360629921256
0
LINE
8
BLACK
6
CONTINUOUS
10
5.0418321653543305
20
-5.6602360629921256
11
5.0388188976377952
21
-5.6608354330708659
0
LINE
8
BLACK
6
CONTINUOUS
10
5.0388188976377952
20
-5.6608354330708659
11
4.9788188976377947
21
-5.6608354330708659
0
LINE
8
BLACK
6
CONTINUOUS
10
4.9788188976377947
20
-5.6608354330708659
11
4.9758056299212594
21
-5.6602360629921256
0
LINE
8
BLACK
6
CONTINUOUS
10
4.9758056299212594
20
-5.6602360629921256
11
4.9732511417322831
21
-5.658529173228346
0
LINE
8
BLACK
6
CONTINUOUS
10
4.9732511417322831
20
-5.658529173228346
11
4.9715442519685036
21
-5.6559746850393697
0
LINE
8
BLACK
6
CONTINUOUS
10
4.9715442519685036
20
-5.6559746850393697
11
4.9709448818897632
21
-5.6529614173228344
0
LINE
8
BLACK
6
CONTINUOUS
10
4.9709448818897632
20
-5.6529614173228344
11
4.9709448818897632
21
-5.5929614173228348
0
LINE
8
BLACK
6
CONTINUOUS
10
4.9709448818897632
20
-5.5929614173228348
11
4.9715442519685036
21
-5.5899481496062995
0
LINE
8
BLACK
6
CONTINUOUS
10
4.9715442519685036
20
-5.5899481496062995
11
4.9732511417322831
21
-5.5873936614173223
0
LINE
8
BLACK
6
CONTINUOUS
10
4.9732511417322831
20
-5.5873936614173223
11
4.9758056299212594
21
-5.5856867716535428
0
LINE
8
BLACK
6
CONTINUOUS
10
4.9758056299212594
20
-5.5856867716535428
11
4.9788188976377947
21
-5.5850874015748033
0
LINE
8
BLACK
6
CONTINUOUS
10
4.9788188976377947
20
-5.5850874015748033
11
5.0388188976377952
21
-5.5850874015748033
0
LINE
8
BLACK
6
CONTINUOUS
10
5.0388188976377952
20
-5.5850874015748033
11
5.0418321653543305
21
-5.5856867716535428
0
LINE
8
BLACK
6
CONTINUOUS
10
5.9440132677165352
20
-5.5837253543307082
11
5.9465677559055115
21
-5.5854322440944877
0
LINE
8
BLACK
6
CONTINUOUS
10
5.9465677559055115
20
-5.5854322440944877
11
5.948274645669291
21
-5.5879867322834649
0
LINE
8
BLACK
6
CONTINUOUS
10
5.948274645669291
20
-5.5879867322834649
11
5.9488740157480313
21
-5.5910000000000002
0
LINE
8
BLACK
6
CONTINUOUS
10
5.9488740157480313
20
-5.5910000000000002
11
5.9488740157480313
21
-5.6509999999999998
0
LINE
8
BLACK
6
CONTINUOUS
10
5.9488740157480313
20
-5.6509999999999998
11
5.948274645669291
21
-5.6540132677165351
0
LINE
8
BLACK
6
CONTINUOUS
10
5.948274645669291
20
-5.6540132677165351
11
5.9465677559055115
21
-5.6565677559055114
0
LINE
8
BLACK
6
CONTINUOUS
10
5.9465677559055115
20
-5.6565677559055114
11
5.9440132677165352
21
-5.6582746456692909
0
LINE
8
BLACK
6
CONTINUOUS
10
5.9440132677165352
20
-5.6582746456692909
11
5.9409999999999998
21
-5.6588740157480313
0
LINE
8
BLACK
6
CONTINUOUS
10
5.9409999999999998
20
-5.6588740157480313
11
5.8810000000000002
21
-5.6588740157480313
0
LINE
8
BLACK
6
CONTINUOUS
10
5.8810000000000002
20
-5.6588740157480313
11
5.877986732283464
21
-5.6582746456692909
0
LINE
8
BLACK
6
CONTINUOUS
10
5.877986732283464
20
-5.6582746456692909
11
5.8754322440944877
21
-5.6565677559055114
0
LINE
8
BLACK
6
CONTINUOUS
10
5.8754322440944877
20
-5.6565677559055114
11
5.8737253543307082
21
-5.6540132677165351
0
LINE
8
BLACK
6
CONTINUOUS
10
5.8737253543307082
20
-5.6540132677165351
11
5.8731259842519687
21
-5.6509999999999998
0
LINE
8
BLACK
6
CONTINUOUS
10
5.8731259842519687
20
-5.6509999999999998
11
5.8731259842519687
21
-5.5910000000000002
0
LINE
8
BLACK
6
CONTINUOUS
10
5.8731259842519687
20
-5.5910000000000002
11
5.8737253543307082
21
-5.5879867322834649
0
LINE
8
BLACK
6
CONTINUOUS
10
5.8737253543307082
20
-5.5879867322834649
11
5.8754322440944877
21
-5.5854322440944877
0
LINE
8
BLACK
6
CONTINUOUS
10
5.8754322440944877
20
-5.5854322440944877
11
5.877986732283464
21
-5.5837253543307082
0
LINE
8
BLACK
6
CONTINUOUS
10
5.877986732283464
20
-5.5837253543307082
11
5.8810000000000002
21
-5.5831259842519687
0
LINE
8
BLACK
6
CONTINUOUS
10
5.8810000000000002
20
-5.5831259842519687
11
5.9409999999999998
21
-5.5831259842519687
0
LINE
8
BLACK
6
CONTINUOUS
10
5.9409999999999998
20
-5.5831259842519687
11
5.9440132677165352
21
-5.5837253543307082
0
LINE
8
BLACK
6
CONTINUOUS
10
6.0440132677165357
20
-5.5837253543307082
11
6.046567755905512
21
-5.5854322440944877
0
LINE
8
BLACK
6
CONTINUOUS
10
6.046567755905512
20
-5.5854322440944877
11
6.0482746456692915
21
-5.5879867322834649
0
LINE
8
BLACK
6
CONTINUOUS
10
6.0482746456692915
20
-5.5879867322834649
11
6.048874015748031
21
-5.5910000000000002
0
LINE
8
BLACK
6
CONTINUOUS
10
6.048874015748031
20
-5.5910000000000002
11
6.048874015748031
21
-5.6509999999999998
0
LINE
8
BLACK
6
CONTINUOUS
10
6.048874015748031
20
-5.6509999999999998
11
6.0482746456692915
21
-5.6540132677165351
0
LINE
8
BLACK
6
CONTINUOUS
10
6.0482746456692915
20
-5.6540132677165351
11
6.046567755905512
21
-5.6565677559055114
0
LINE
8
BLACK
6
CONTINUOUS
10
6.046567755905512
20
-5.6565677559055114
11
6.0440132677165357
21
-5.6582746456692909
0
LINE
8
BLACK
6
CONTINUOUS
10
6.0440132677165357
20
-5.6582746456692909
11
6.0409999999999995
21
-5.6588740157480313
0
LINE
8
BLACK
6
CONTINUOUS
10
6.0409999999999995
20
-5.6588740157480313
11
5.9809999999999999
21
-5.6588740157480313
0
LINE
8
BLACK
6
CONTINUOUS
10
5.9809999999999999
20
-5.6588740157480313
11
5.9779867322834646
21
-5.6582746456692909
0
LINE
8
BLACK
6
CONTINUOUS
10
5.9779867322834646
20
-5.6582746456692909
11
5.9754322440944883
21
-5.6565677559055114
0
LINE
8
BLACK
6
CONTINUOUS
10
5.9754322440944883
20
-5.6565677559055114
11
5.9737253543307087
21
-5.6540132677165351
0
LINE
8
BLACK
6
CONTINUOUS
10
5.9737253543307087
20
-5.6540132677165351
11
5.9731259842519684
21
-5.6509999999999998
0
LINE
8
BLACK
6
CONTINUOUS
10
5.9731259842519684
20
-5.6509999999999998
11
5.9731259842519684
21
-5.5910000000000002
0
LINE
8
BLACK
6
CONTINUOUS
10
5.9731259842519684
20
-5.5910000000000002
11
5.9737253543307087
21
-5.5879867322834649
0
LINE
8
BLACK
6
CONTINUOUS
10
5.9737253543307087
20
-5.5879867322834649
11
5.9754322440944883
21
-5.5854322440944877
0
LINE
8
BLACK
6
CONTINUOUS
10
5.9754322440944883
20
-5.5854322440944877
11
5.9779867322834646
21
-5.5837253543307082
0
LINE
8
BLACK
6
CONTINUOUS
10
5.9779867322834646
20
-5.5837253543307082
11
5.9809999999999999
21
-5.5831259842519687
0
LINE
8
BLACK
6
CONTINUOUS
10
5.9809999999999999
20
-5.5831259842519687
11
6.0409999999999995
21
-5.5831259842519687
0
LINE
8
BLACK
6
CONTINUOUS
10
6.0409999999999995
20
-5.5831259842519687
11
6.0440132677165357
21
-5.5837253543307082
0
LINE
8
BLACK
6
CONTINUOUS
10
4.4469502755905514
20
-5.583324566929134
11
4.4495047637795277
21
-5.5850314566929136
0
LINE
8
BLACK
6
CONTINUOUS
10
4.4495047637795277
20
-5.5850314566929136
11
4.4512116535433073
21
-5.5875859448818899
0
LINE
8
BLACK
6
CONTINUOUS
10
4.4512116535433073
20
-5.5875859448818899
11
4.4518110236220467
21
-5.5905992125984252
0
LINE
8
BLACK
6
CONTINUOUS
10
4.4518110236220467
20
-5.5905992125984252
11
4.4518110236220467
21
-5.6505992125984248
0
LINE
8
BLACK
6
CONTINUOUS
10
4.4518110236220467
20
-5.6505992125984248
11
4.4512116535433073
21
-5.6536124803149601
0
LINE
8
BLACK
6
CONTINUOUS
10
4.4512116535433073
20
-5.6536124803149601
11
4.4495047637795277
21
-5.6561669685039373
0
LINE
8
BLACK
6
CONTINUOUS
10
4.4495047637795277
20
-5.6561669685039373
11
4.4469502755905514
21
-5.6578738582677168
0
LINE
8
BLACK
6
CONTINUOUS
10
4.4469502755905514
20
-5.6578738582677168
11
4.4439370078740152
21
-5.6584732283464563
0
LINE
8
BLACK
6
CONTINUOUS
10
4.4439370078740152
20
-5.6584732283464563
11
4.3839370078740156
21
-5.6584732283464563
0
LINE
8
BLACK
6
CONTINUOUS
10
4.3839370078740156
20
-5.6584732283464563
11
4.3809237401574803
21
-5.6578738582677168
0
LINE
8
BLACK
6
CONTINUOUS
10
4.3809237401574803
20
-5.6578738582677168
11
4.378369251968504
21
-5.6561669685039373
0
LINE
8
BLACK
6
CONTINUOUS
10
4.378369251968504
20
-5.6561669685039373
11
4.3766623622047245
21
-5.6536124803149601
0
LINE
8
BLACK
6
CONTINUOUS
10
4.3766623622047245
20
-5.6536124803149601
11
4.3760629921259842
21
-5.6505992125984248
0
LINE
8
BLACK
6
CONTINUOUS
10
4.3760629921259842
20
-5.6505992125984248
11
4.3760629921259842
21
-5.5905992125984252
0
LINE
8
BLACK
6
CONTINUOUS
10
4.3760629921259842
20
-5.5905992125984252
11
4.3766623622047245
21
-5.5875859448818899
0
LINE
8
BLACK
6
CONTINUOUS
10
4.3766623622047245
20
-5.5875859448818899
11
4.378369251968504
21
-5.5850314566929136
0
LINE
8
BLACK
6
CONTINUOUS
10
4.378369251968504
20
-5.5850314566929136
11
4.3809237401574803
21
-5.583324566929134
0
LINE
8
BLACK
6
CONTINUOUS
10
4.3809237401574803
20
-5.583324566929134
11
4.3839370078740156
21
-5.5827251968503937
0
LINE
8
BLACK
6
CONTINUOUS
10
4.3839370078740156
20
-5.5827251968503937
11
4.4439370078740152
21
-5.5827251968503937
0
LINE
8
BLACK
6
CONTINUOUS
10
4.4439370078740152
20
-5.5827251968503937
11
4.4469502755905514
21
-5.583324566929134
0
LINE
8
BLACK
6
CONTINUOUS
10
4.5469502755905511
20
-5.583324566929134
11
4.5495047637795274
21
-5.5850314566929136
0
LINE
8
BLACK
6
CONTINUOUS
10
4.5495047637795274
20
-5.5850314566929136
11
4.5512116535433069
21
-5.5875859448818899
0
LINE
8
BLACK
6
CONTINUOUS
10
4.5512116535433069
20
-5.5875859448818899
11
4.5518110236220473
21
-5.5905992125984252
0
LINE
8
BLACK
6
CONTINUOUS
10
4.5518110236220473
20
-5.5905992125984252
11
4.5518110236220473
21
-5.6505992125984248
0
LINE
8
BLACK
6
CONTINUOUS
10
4.5518110236220473
20
-5.6505992125984248
11
4.5512116535433069
21
-5.6536124803149601
0
LINE
8
BLACK
6
CONTINUOUS
10
4.5512116535433069
20
-5.6536124803149601
11
4.5495047637795274
21
-5.6561669685039373
0
LINE
8
BLACK
6
CONTINUOUS
10
4.5495047637795274
20
-5.6561669685039373
11
4.5469502755905511
21
-5.6578738582677168
0
LINE
8
BLACK
6
CONTINUOUS
10
4.5469502755905511
20
-5.6578738582677168
11
4.5439370078740158
21
-5.6584732283464563
0
LINE
8
BLACK
6
CONTINUOUS
10
4.5439370078740158
20
-5.6584732283464563
11
4.4839370078740153
21
-5.6584732283464563
0
LINE
8
BLACK
6
CONTINUOUS
10
4.4839370078740153
20
-5.6584732283464563
11
4.48092374015748
21
-5.6578738582677168
0
LINE
8
BLACK
6
CONTINUOUS
10
4.48092374015748
20
-5.6578738582677168
11
4.4783692519685037
21
-5.6561669685039373
0
LINE
8
BLACK
6
CONTINUOUS
10
4.4783692519685037
20
-5.6561669685039373
11
4.4766623622047241
21
-5.6536124803149601
0
LINE
8
BLACK
6
CONTINUOUS
10
4.4766623622047241
20
-5.6536124803149601
11
4.4760629921259838
21
-5.6505992125984248
0
LINE
8
BLACK
6
CONTINUOUS
10
4.4760629921259838
20
-5.6505992125984248
11
4.4760629921259838
21
-5.5905992125984252
0
LINE
8
BLACK
6
CONTINUOUS
10
4.4760629921259838
20
-5.5905992125984252
11
4.4766623622047241
21
-5.5875859448818899
0
LINE
8
BLACK
6
CONTINUOUS
10
4.4766623622047241
20
-5.5875859448818899
11
4.4783692519685037
21
-5.5850314566929136
0
LINE
8
BLACK
6
CONTINUOUS
10
4.4783692519685037
20
-5.5850314566929136
11
4.48092374015748
21
-5.583324566929134
0
LINE
8
BLACK
6
CONTINUOUS
10
4.48092374015748
20
-5.583324566929134
11
4.4839370078740153
21
-5.5827251968503937
0
LINE
8
BLACK
6
CONTINUOUS
10
4.4839370078740153
20
-5.5827251968503937
11
4.5439370078740158
21
-5.5827251968503937
0
LINE
8
BLACK
6
CONTINUOUS
10
4.5439370078740158
20
-5.5827251968503937
11
4.5469502755905511
21
-5.583324566929134
0
LINE
8
BLACK
6
CONTINUOUS
10
4.6953754724409444
20
-5.5814348031496062
11
4.6979299606299207
21
-5.5831416929133857
0
LINE
8
BLACK
6
CONTINUOUS
10
4.6979299606299207
20
-5.5831416929133857
11
4.6996368503937003
21
-5.585696181102362
0
LINE
8
BLACK
6
CONTINUOUS
10
4.6996368503937003
20
-5.585696181102362
11
4.7002362204724406
21
-5.5887094488188973
0
LINE
8
BLACK
6
CONTINUOUS
10
4.7002362204724406
20
-5.5887094488188973
11
4.7002362204724406
21
-5.6487094488188978
0
LINE
8
BLACK
6
CONTINUOUS
10
4.7002362204724406
20
-5.6487094488188978
11
4.6996368503937003
21
-5.6517227165354331
0
LINE
8
BLACK
6
CONTINUOUS
10
4.6996368503937003
20
-5.6517227165354331
11
4.6979299606299207
21
-5.6542772047244094
0
LINE
8
BLACK
6
CONTINUOUS
10
4.6979299606299207
20
-5.6542772047244094
11
4.6953754724409444
21
-5.655984094488189
0
LINE
8
BLACK
6
CONTINUOUS
10
4.6953754724409444
20
-5.655984094488189
11
4.6923622047244091
21
-5.6565834645669293
0
LINE
8
BLACK
6
CONTINUOUS
10
4.6923622047244091
20
-5.6565834645669293
11
4.6323622047244095
21
-5.6565834645669293
0
LINE
8
BLACK
6
CONTINUOUS
10
4.6323622047244095
20
-5.6565834645669293
11
4.6293489370078742
21
-5.655984094488189
0
LINE
8
BLACK
6
CONTINUOUS
10
4.6293489370078742
20
-5.655984094488189
11
4.6267944488188979
21
-5.6542772047244094
0
LINE
8
BLACK
6
CONTINUOUS
10
4.6267944488188979
20
-5.6542772047244094
11
4.6250875590551184
21
-5.6517227165354331
0
LINE
8
BLACK
6
CONTINUOUS
10
4.6250875590551184
20
-5.6517227165354331
11
4.624488188976378
21
-5.6487094488188978
0
LINE
8
BLACK
6
CONTINUOUS
10
4.624488188976378
20
-5.6487094488188978
11
4.624488188976378
21
-5.5887094488188973
0
LINE
8
BLACK
6
CONTINUOUS
10
4.624488188976378
20
-5.5887094488188973
11
4.6250875590551184
21
-5.585696181102362
0
LINE
8
BLACK
6
CONTINUOUS
10
4.6250875590551184
20
-5.585696181102362
11
4.6267944488188979
21
-5.5831416929133857
0
LINE
8
BLACK
6
CONTINUOUS
10
4.6267944488188979
20
-5.5831416929133857
11
4.6293489370078742
21
-5.5814348031496062
0
LINE
8
BLACK
6
CONTINUOUS
10
4.6293489370078742
20
-5.5814348031496062
11
4.6323622047244095
21
-5.5808354330708658
0
LINE
8
BLACK
6
CONTINUOUS
10
4.6323622047244095
20
-5.5808354330708658
11
4.6923622047244091
21
-5.5808354330708658
0
LINE
8
BLACK
6
CONTINUOUS
10
4.6923622047244091
20
-5.5808354330708658
11
4.6953754724409444
21
-5.5814348031496062
0
LINE
8
BLACK
6
CONTINUOUS
10
4.795375472440945
20
-5.5814348031496062
11
4.7979299606299213
21
-5.5831416929133857
0
LINE
8
BLACK
6
CONTINUOUS
10
4.7979299606299213
20
-5.5831416929133857
11
4.7996368503937008
21
-5.585696181102362
0
LINE
8
BLACK
6
CONTINUOUS
10
4.7996368503937008
20
-5.585696181102362
11
4.8002362204724411
21
-5.5887094488188973
0
LINE
8
BLACK
6
CONTINUOUS
10
4.8002362204724411
20
-5.5887094488188973
11
4.8002362204724411
21
-5.6487094488188978
0
LINE
8
BLACK
6
CONTINUOUS
10
4.8002362204724411
20
-5.6487094488188978
11
4.7996368503937008
21
-5.6517227165354331
0
LINE
8
BLACK
6
CONTINUOUS
10
4.7996368503937008
20
-5.6517227165354331
11
4.7979299606299213
21
-5.6542772047244094
0
LINE
8
BLACK
6
CONTINUOUS
10
4.7979299606299213
20
-5.6542772047244094
11
4.795375472440945
21
-5.655984094488189
0
LINE
8
BLACK
6
CONTINUOUS
10
4.795375472440945
20
-5.655984094488189
11
4.7923622047244097
21
-5.6565834645669293
0
LINE
8
BLACK
6
CONTINUOUS
10
4.7923622047244097
20
-5.6565834645669293
11
4.7323622047244092
21
-5.6565834645669293
0
LINE
8
BLACK
6
CONTINUOUS
10
4.7323622047244092
20
-5.6565834645669293
11
4.7293489370078738
21
-5.655984094488189
0
LINE
8
BLACK
6
CONTINUOUS
10
4.7293489370078738
20
-5.655984094488189
11
4.7267944488188975
21
-5.6542772047244094
0
LINE
8
BLACK
6
CONTINUOUS
10
4.7267944488188975
20
-5.6542772047244094
11
4.725087559055118
21
-5.6517227165354331
0
LINE
8
BLACK
6
CONTINUOUS
10
4.725087559055118
20
-5.6517227165354331
11
4.7244881889763777
21
-5.6487094488188978
0
LINE
8
BLACK
6
CONTINUOUS
10
4.7244881889763777
20
-5.6487094488188978
11
4.7244881889763777
21
-5.5887094488188973
0
LINE
8
BLACK
6
CONTINUOUS
10
4.7244881889763777
20
-5.5887094488188973
11
4.725087559055118
21
-5.585696181102362
0
LINE
8
BLACK
6
CONTINUOUS
10
4.725087559055118
20
-5.585696181102362
11
4.7267944488188975
21
-5.5831416929133857
0
LINE
8
BLACK
6
CONTINUOUS
10
4.7267944488188975
20
-5.5831416929133857
11
4.7293489370078738
21
-5.5814348031496062
0
LINE
8
BLACK
6
CONTINUOUS
10
4.7293489370078738
20
-5.5814348031496062
11
4.7323622047244092
21
-5.5808354330708658
0
LINE
8
BLACK
6
CONTINUOUS
10
4.7323622047244092
20
-5.5808354330708658
11
4.7923622047244097
21
-5.5808354330708658
0
LINE
8
BLACK
6
CONTINUOUS
10
4.7923622047244097
20
-5.5808354330708658
11
4.795375472440945
21
-5.5814348031496062
0
LINE
8
BLACK
6
CONTINUOUS
10
5.1953754724409444
20
-5.5814348031496062
11
5.1979299606299207
21
-5.5831416929133857
0
LINE
8
BLACK
6
CONTINUOUS
10
5.1979299606299207
20
-5.5831416929133857
11
5.1996368503937003
21
-5.585696181102362
0
LINE
8
BLACK
6
CONTINUOUS
10
5.1996368503937003
20
-5.585696181102362
11
5.2002362204724406
21
-5.5887094488188973
0
LINE
8
BLACK
6
CONTINUOUS
10
5.2002362204724406
20
-5.5887094488188973
11
5.2002362204724406
21
-5.6487094488188978
0
LINE
8
BLACK
6
CONTINUOUS
10
5.2002362204724406
20
-5.6487094488188978
11
5.1996368503937003
21
-5.6517227165354331
0
LINE
8
BLACK
6
CONTINUOUS
10
5.1996368503937003
20
-5.6517227165354331
11
5.1979299606299207
21
-5.6542772047244094
0
LINE
8
BLACK
6
CONTINUOUS
10
5.1979299606299207
20
-5.6542772047244094
11
5.1953754724409444
21
-5.655984094488189
0
LINE
8
BLACK
6
CONTINUOUS
10
5.1953754724409444
20
-5.655984094488189
11
5.1923622047244091
21
-5.6565834645669293
0
LINE
8
BLACK
6
CONTINUOUS
10
5.1923622047244091
20
-5.6565834645669293
11
5.1323622047244095
21
-5.6565834645669293
0
LINE
8
BLACK
6
CONTINUOUS
10
5.1323622047244095
20
-5.6565834645669293
11
5.1293489370078742
21
-5.655984094488189
0
LINE
8
BLACK
6
CONTINUOUS
10
5.1293489370078742
20
-5.655984094488189
11
5.1267944488188979
21
-5.6542772047244094
0
LINE
8
BLACK
6
CONTINUOUS
10
5.1267944488188979
20
-5.6542772047244094
11
5.1250875590551184
21
-5.6517227165354331
0
LINE
8
BLACK
6
CONTINUOUS
10
5.1250875590551184
20
-5.6517227165354331
11
5.124488188976378
21
-5.6487094488188978
0
LINE
8
BLACK
6
CONTINUOUS
10
5.124488188976378
20
-5.6487094488188978
11
5.124488188976378
21
-5.5887094488188973
0
LINE
8
BLACK
6
CONTINUOUS
10
5.124488188976378
20
-5.5887094488188973
11
5.1250875590551184
21
-5.585696181102362
0
LINE
8
BLACK
6
CONTINUOUS
10
5.1250875590551184
20
-5.585696181102362
11
5.1267944488188979
21
-5.5831416929133857
0
LINE
8
BLACK
6
CONTINUOUS
10
5.1267944488188979
20
-5.5831416929133857
11
5.1293489370078742
21
-5.5814348031496062
0
LINE
8
BLACK
6
CONTINUOUS
10
5.1293489370078742
20
-5.5814348031496062
11
5.1323622047244095
21
-5.5808354330708658
0
LINE
8
BLACK
6
CONTINUOUS
10
5.1323622047244095
20
-5.5808354330708658
11
5.1923622047244091
21
-5.5808354330708658
0
LINE
8
BLACK
6
CONTINUOUS
10
5.1923622047244091
20
-5.5808354330708658
11
5.1953754724409444
21
-5.5814348031496062
0
LINE
8
BLACK
6
CONTINUOUS
10
5.295375472440945
20
-5.5814348031496062
11
5.2979299606299213
21
-5.5831416929133857
0
LINE
8
BLACK
6
CONTINUOUS
10
5.2979299606299213
20
-5.5831416929133857
11
5.2996368503937008
21
-5.585696181102362
0
LINE
8
BLACK
6
CONTINUOUS
10
5.2996368503937008
20
-5.585696181102362
11
5.3002362204724411
21
-5.5887094488188973
0
LINE
8
BLACK
6
CONTINUOUS
10
5.3002362204724411
20
-5.5887094488188973
11
5.3002362204724411
21
-5.6487094488188978
0
LINE
8
BLACK
6
CONTINUOUS
10
5.3002362204724411
20
-5.6487094488188978
11
5.2996368503937008
21
-5.6517227165354331
0
LINE
8
BLACK
6
CONTINUOUS
10
5.2996368503937008
20
-5.6517227165354331
11
5.2979299606299213
21
-5.6542772047244094
0
LINE
8
BLACK
6
CONTINUOUS
10
5.2979299606299213
20
-5.6542772047244094
11
5.295375472440945
21
-5.655984094488189
0
LINE
8
BLACK
6
CONTINUOUS
10
5.295375472440945
20
-5.655984094488189
11
5.2923622047244097
21
-5.6565834645669293
0
LINE
8
BLACK
6
CONTINUOUS
10
5.2923622047244097
20
-5.6565834645669293
11
5.2323622047244092
21
-5.6565834645669293
0
LINE
8
BLACK
6
CONTINUOUS
10
5.2323622047244092
20
-5.6565834645669293
11
5.2293489370078738
21
-5.655984094488189
0
LINE
8
BLACK
6
CONTINUOUS
10
5.2293489370078738
20
-5.655984094488189
11
5.2267944488188975
21
-5.6542772047244094
0
LINE
8
BLACK
6
CONTINUOUS
10
5.2267944488188975
20
-5.6542772047244094
11
5.225087559055118
21
-5.6517227165354331
0
LINE
8
BLACK
6
CONTINUOUS
10
5.225087559055118
20
-5.6517227165354331
11
5.2244881889763777
21
-5.6487094488188978
0
LINE
8
BLACK
6
CONTINUOUS
10
5.2244881889763777
20
-5.6487094488188978
11
5.2244881889763777
21
-5.5887094488188973
0
LINE
8
BLACK
6
CONTINUOUS
10
5.2244881889763777
20
-5.5887094488188973
11
5.225087559055118
21
-5.585696181102362
0
LINE
8
BLACK
6
CONTINUOUS
10
5.225087559055118
20
-5.585696181102362
11
5.2267944488188975
21
-5.5831416929133857
0
LINE
8
BLACK
6
CONTINUOUS
10
5.2267944488188975
20
-5.5831416929133857
11
5.2293489370078738
21
-5.5814348031496062
0
LINE
8
BLACK
6
CONTINUOUS
10
5.2293489370078738
20
-5.5814348031496062
11
5.2323622047244092
21
-5.5808354330708658
0
LINE
8
BLACK
6
CONTINUOUS
10
5.2323622047244092
20
-5.5808354330708658
11
5.2923622047244097
21
-5.5808354330708658
0
LINE
8
BLACK
6
CONTINUOUS
10
5.2923622047244097
20
-5.5808354330708658
11
5.295375472440945
21
-5.5814348031496062
0
LINE
8
BLACK
6
CONTINUOUS
10
5.4453754724409444
20
-5.5814348031496062
11
5.4479299606299207
21
-5.5831416929133857
0
LINE
8
BLACK
6
CONTINUOUS
10
5.4479299606299207
20
-5.5831416929133857
11
5.4496368503937003
21
-5.585696181102362
0
LINE
8
BLACK
6
CONTINUOUS
10
5.4496368503937003
20
-5.585696181102362
11
5.4502362204724406
21
-5.5887094488188973
0
LINE
8
BLACK
6
CONTINUOUS
10
5.4502362204724406
20
-5.5887094488188973
11
5.4502362204724406
21
-5.6487094488188978
0
LINE
8
BLACK
6
CONTINUOUS
10
5.4502362204724406
20
-5.6487094488188978
11
5.4496368503937003
21
-5.6517227165354331
0
LINE
8
BLACK
6
CONTINUOUS
10
5.4496368503937003
20
-5.6517227165354331
11
5.4479299606299207
21
-5.6542772047244094
0
LINE
8
BLACK
6
CONTINUOUS
10
5.4479299606299207
20
-5.6542772047244094
11
5.4453754724409444
21
-5.655984094488189
0
LINE
8
BLACK
6
CONTINUOUS
10
5.4453754724409444
20
-5.655984094488189
11
5.4423622047244091
21
-5.6565834645669293
0
LINE
8
BLACK
6
CONTINUOUS
10
5.4423622047244091
20
-5.6565834645669293
11
5.3823622047244095
21
-5.6565834645669293
0
LINE
8
BLACK
6
CONTINUOUS
10
5.3823622047244095
20
-5.6565834645669293
11
5.3793489370078742
21
-5.655984094488189
0
LINE
8
BLACK
6
CONTINUOUS
10
5.3793489370078742
20
-5.655984094488189
11
5.3767944488188979
21
-5.6542772047244094
0
LINE
8
BLACK
6
CONTINUOUS
10
5.3767944488188979
20
-5.6542772047244094
11
5.3750875590551184
21
-5.6517227165354331
0
LINE
8
BLACK
6
CONTINUOUS
10
5.3750875590551184
20
-5.6517227165354331
11
5.374488188976378
21
-5.6487094488188978
0
LINE
8
BLACK
6
CONTINUOUS
10
5.374488188976378
20
-5.6487094488188978
11
5.374488188976378
21
-5.5887094488188973
0
LINE
8
BLACK
6
CONTINUOUS
10
5.374488188976378
20
-5.5887094488188973
11
5.3750875590551184
21
-5.585696181102362
0
LINE
8
BLACK
6
CONTINUOUS
10
5.3750875590551184
20
-5.585696181102362
11
5.3767944488188979
21
-5.5831416929133857
0
LINE
8
BLACK
6
CONTINUOUS
10
5.3767944488188979
20
-5.5831416929133857
11
5.3793489370078742
21
-5.5814348031496062
0
LINE
8
BLACK
6
CONTINUOUS
10
5.3793489370078742
20
-5.5814348031496062
11
5.3823622047244095
21
-5.5808354330708658
0
LINE
8
BLACK
6
CONTINUOUS
10
5.3823622047244095
20
-5.5808354330708658
11
5.4423622047244091
21
-5.5808354330708658
0
LINE
8
BLACK
6
CONTINUOUS
10
5.4423622047244091
20
-5.5808354330708658
11
5.4453754724409444
21
-5.5814348031496062
0
LINE
8
BLACK
6
CONTINUOUS
10
5.545375472440945
20
-5.5814348031496062
11
5.5479299606299213
21
-5.5831416929133857
0
LINE
8
BLACK
6
CONTINUOUS
10
5.5479299606299213
20
-5.5831416929133857
11
5.5496368503937008
21
-5.585696181102362
0
LINE
8
BLACK
6
CONTINUOUS
10
5.5496368503937008
20
-5.585696181102362
11
5.5502362204724411
21
-5.5887094488188973
0
LINE
8
BLACK
6
CONTINUOUS
10
5.5502362204724411
20
-5.5887094488188973
11
5.5502362204724411
21
-5.6487094488188978
0
LINE
8
BLACK
6
CONTINUOUS
10
5.5502362204724411
20
-5.6487094488188978
11
5.5496368503937008
21
-5.6517227165354331
0
LINE
8
BLACK
6
CONTINUOUS
10
5.5496368503937008
20
-5.6517227165354331
11
5.5479299606299213
21
-5.6542772047244094
0
LINE
8
BLACK
6
CONTINUOUS
10
5.5479299606299213
20
-5.6542772047244094
11
5.545375472440945
21
-5.655984094488189
0
LINE
8
BLACK
6
CONTINUOUS
10
5.545375472440945
20
-5.655984094488189
11
5.5423622047244097
21
-5.6565834645669293
0
LINE
8
BLACK
6
CONTINUOUS
10
5.5423622047244097
20
-5.6565834645669293
11
5.4823622047244092
21
-5.6565834645669293
0
LINE
8
BLACK
6
CONTINUOUS
10
5.4823622047244092
20
-5.6565834645669293
11
5.4793489370078738
21
-5.655984094488189
0
LINE
8
BLACK
6
CONTINUOUS
10
5.4793489370078738
20
-5.655984094488189
11
5.4767944488188975
21
-5.6542772047244094
0
LINE
8
BLACK
6
CONTINUOUS
10
5.4767944488188975
20
-5.6542772047244094
11
5.475087559055118
21
-5.6517227165354331
0
LINE
8
BLACK
6
CONTINUOUS
10
5.475087559055118
20
-5.6517227165354331
11
5.4744881889763777
21
-5.6487094488188978
0
LINE
8
BLACK
6
CONTINUOUS
10
5.4744881889763777
20
-5.6487094488188978
11
5.4744881889763777
21
-5.5887094488188973
0
LINE
8
BLACK
6
CONTINUOUS
10
5.4744881889763777
20
-5.5887094488188973
11
5.475087559055118
21
-5.585696181102362
0
LINE
8
BLACK
6
CONTINUOUS
10
5.475087559055118
20
-5.585696181102362
11
5.4767944488188975
21
-5.5831416929133857
0
LINE
8
BLACK
6
CONTINUOUS
10
5.4767944488188975
20
-5.5831416929133857
11
5.4793489370078738
21
-5.5814348031496062
0
LINE
8
BLACK
6
CONTINUOUS
10
5.4793489370078738
20
-5.5814348031496062
11
5.4823622047244092
21
-5.5808354330708658
0
LINE
8
BLACK
6
CONTINUOUS
10
5.4823622047244092
20
-5.5808354330708658
11
5.5423622047244097
21
-5.5808354330708658
0
LINE
8
BLACK
6
CONTINUOUS
10
5.5423622047244097
20
-5.5808354330708658
11
5.545375472440945
21
-5.5814348031496062
0
LINE
8
BLACK
6
CONTINUOUS
10
5.6953754724409444
20
-5.5814348031496062
11
5.6979299606299207
21
-5.5831416929133857
0
LINE
8
BLACK
6
CONTINUOUS
10
5.6979299606299207
20
-5.5831416929133857
11
5.6996368503937003
21
-5.585696181102362
0
LINE
8
BLACK
6
CONTINUOUS
10
5.6996368503937003
20
-5.585696181102362
11
5.7002362204724406
21
-5.5887094488188973
0
LINE
8
BLACK
6
CONTINUOUS
10
5.7002362204724406
20
-5.5887094488188973
11
5.7002362204724406
21
-5.6487094488188978
0
LINE
8
BLACK
6
CONTINUOUS
10
5.7002362204724406
20
-5.6487094488188978
11
5.6996368503937003
21
-5.6517227165354331
0
LINE
8
BLACK
6
CONTINUOUS
10
5.6996368503937003
20
-5.6517227165354331
11
5.6979299606299207
21
-5.6542772047244094
0
LINE
8
BLACK
6
CONTINUOUS
10
5.6979299606299207
20
-5.6542772047244094
11
5.6953754724409444
21
-5.655984094488189
0
LINE
8
BLACK
6
CONTINUOUS
10
5.6953754724409444
20
-5.655984094488189
11
5.6923622047244091
21
-5.6565834645669293
0
LINE
8
BLACK
6
CONTINUOUS
10
5.6923622047244091
20
-5.6565834645669293
11
5.6323622047244095
21
-5.6565834645669293
0
LINE
8
BLACK
6
CONTINUOUS
10
5.6323622047244095
20
-5.6565834645669293
11
5.6293489370078742
21
-5.655984094488189
0
LINE
8
BLACK
6
CONTINUOUS
10
5.6293489370078742
20
-5.655984094488189
11
5.6267944488188979
21
-5.6542772047244094
0
LINE
8
BLACK
6
CONTINUOUS
10
5.6267944488188979
20
-5.6542772047244094
11
5.6250875590551184
21
-5.6517227165354331
0
LINE
8
BLACK
6
CONTINUOUS
10
5.6250875590551184
20
-5.6517227165354331
11
5.624488188976378
21
-5.6487094488188978
0
LINE
8
BLACK
6
CONTINUOUS
10
5.624488188976378
20
-5.6487094488188978
11
5.624488188976378
21
-5.5887094488188973
0
LINE
8
BLACK
6
CONTINUOUS
10
5.624488188976378
20
-5.5887094488188973
11
5.6250875590551184
21
-5.585696181102362
0
LINE
8
BLACK
6
CONTINUOUS
10
5.6250875590551184
20
-5.585696181102362
11
5.6267944488188979
21
-5.5831416929133857
0
LINE
8
BLACK
6
CONTINUOUS
10
5.6267944488188979
20
-5.5831416929133857
11
5.6293489370078742
21
-5.5814348031496062
0
LINE
8
BLACK
6
CONTINUOUS
10
5.6293489370078742
20
-5.5814348031496062
11
5.6323622047244095
21
-5.5808354330708658
0
LINE
8
BLACK
6
CONTINUOUS
10
5.6323622047244095
20
-5.5808354330708658
11
5.6923622047244091
21
-5.5808354330708658
0
LINE
8
BLACK
6
CONTINUOUS
10
5.6923622047244091
20
-5.5808354330708658
11
5.6953754724409444
21
-5.5814348031496062
0
LINE
8
BLACK
6
CONTINUOUS
10
5.795375472440945
20
-5.5814348031496062
11
5.7979299606299213
21
-5.5831416929133857
0
LINE
8
BLACK
6
CONTINUOUS
10
5.7979299606299213
20
-5.5831416929133857
11
5.7996368503937008
21
-5.585696181102362
0
LINE
8
BLACK
6
CONTINUOUS
10
5.7996368503937008
20
-5.585696181102362
11
5.8002362204724411
21
-5.5887094488188973
0
LINE
8
BLACK
6
CONTINUOUS
10
5.8002362204724411
20
-5.5887094488188973
11
5.8002362204724411
21
-5.6487094488188978
0
LINE
8
BLACK
6
CONTINUOUS
10
5.8002362204724411
20
-5.6487094488188978
11
5.7996368503937008
21
-5.6517227165354331
0
LINE
8
BLACK
6
CONTINUOUS
10
5.7996368503937008
20
-5.6517227165354331
11
5.7979299606299213
21
-5.6542772047244094
0
LINE
8
BLACK
6
CONTINUOUS
10
5.7979299606299213
20
-5.6542772047244094
11
5.795375472440945
21
-5.655984094488189
0
LINE
8
BLACK
6
CONTINUOUS
10
5.795375472440945
20
-5.655984094488189
11
5.7923622047244097
21
-5.6565834645669293
0
LINE
8
BLACK
6
CONTINUOUS
10
5.7923622047244097
20
-5.6565834645669293
11
5.7323622047244092
21
-5.6565834645669293
0
LINE
8
BLACK
6
CONTINUOUS
10
5.7323622047244092
20
-5.6565834645669293
11
5.7293489370078738
21
-5.655984094488189
0
LINE
8
BLACK
6
CONTINUOUS
10
5.7293489370078738
20
-5.655984094488189
11
5.7267944488188975
21
-5.6542772047244094
0
LINE
8
BLACK
6
CONTINUOUS
10
5.7267944488188975
20
-5.6542772047244094
11
5.725087559055118
21
-5.6517227165354331
0
LINE
8
BLACK
6
CONTINUOUS
10
5.725087559055118
20
-5.6517227165354331
11
5.7244881889763777
21
-5.6487094488188978
0
LINE
8
BLACK
6
CONTINUOUS
10
5.7244881889763777
20
-5.6487094488188978
11
5.7244881889763777
21
-5.5887094488188973
0
LINE
8
BLACK
6
CONTINUOUS
10
5.7244881889763777
20
-5.5887094488188973
11
5.725087559055118
21
-5.585696181102362
0
LINE
8
BLACK
6
CONTINUOUS
10
5.725087559055118
20
-5.585696181102362
11
5.7267944488188975
21
-5.5831416929133857
0
LINE
8
BLACK
6
CONTINUOUS
10
5.7267944488188975
20
-5.5831416929133857
11
5.7293489370078738
21
-5.5814348031496062
0
LINE
8
BLACK
6
CONTINUOUS
10
5.7293489370078738
20
-5.5814348031496062
11
5.7323622047244092
21
-5.5808354330708658
0
LINE
8
BLACK
6
CONTINUOUS
10
5.7323622047244092
20
-5.5808354330708658
11
5.7923622047244097
21
-5.5808354330708658
0
LINE
8
BLACK
6
CONTINUOUS
10
5.7923622047244097
20
-5.5808354330708658
11
5.795375472440945
21
-5.5814348031496062
0
LINE
8
BLACK
6
CONTINUOUS
10
4.4148931496062991
20
-5.134748937007874
11
4.424451968503937
21
-5.1376974409448817
0
LINE
8
BLACK
6
CONTINUOUS
10
4.424451968503937
20
-5.1376974409448817
11
4.4334645669291337
21
-5.1420376771653542
0
LINE
8
BLACK
6
CONTINUOUS
10
4.4334645669291337
20
-5.1420376771653542
11
4.441729645669291
21
-5.147672677165354
0
LINE
8
BLACK
6
CONTINUOUS
10
4.441729645669291
20
-5.147672677165354
11
4.4490625196850395
21
-5.1544766141732286
0
LINE
8
BLACK
6
CONTINUOUS
10
4.4490625196850395
20
-5.1544766141732286
11
4.4552994488188977
21
-5.1622974803149608
0
LINE
8
BLACK
6
CONTINUOUS
10
4.4552994488188977
20
-5.1622974803149608
11
4.4603010629921256
21
-5.1709605511811025
0
LINE
8
BLACK
6
CONTINUOUS
10
4.4603010629921256
20
-5.1709605511811025
11
4.4639556692913382
21
-5.1802722834645669
0
LINE
8
BLACK
6
CONTINUOUS
10
4.4639556692913382
20
-5.1802722834645669
11
4.4661815748031497
21
-5.1900247244094491
0
LINE
8
BLACK
6
CONTINUOUS
10
4.4661815748031497
20
-5.1900247244094491
11
4.466929133858268
21
-5.2000000000000002
0
LINE
8
BLACK
6
CONTINUOUS
10
4.466929133858268
20
-5.2000000000000002
11
4.4661815748031497
21
-5.2099752755905513
0
LINE
8
BLACK
6
CONTINUOUS
10
4.4661815748031497
20
-5.2099752755905513
11
4.4639556692913382
21
-5.2197277165354325
0
LINE
8
BLACK
6
CONTINUOUS
10
4.4639556692913382
20
-5.2197277165354325
11
4.4603010629921256
21
-5.2290394488188978
0
LINE
8
BLACK
6
CONTINUOUS
10
4.4603010629921256
20
-5.2290394488188978
11
4.4552994488188977
21
-5.2377025196850395
0
LINE
8
BLACK
6
CONTINUOUS
10
4.4552994488188977
20
-5.2377025196850395
11
4.4490625196850395
21
-5.2455233858267718
0
LINE
8
BLACK
6
CONTINUOUS
10
4.4490625196850395
20
-5.2455233858267718
11
4.441729645669291
21
-5.2523273228346454
0
LINE
8
BLACK
6
CONTINUOUS
10
4.441729645669291
20
-5.2523273228346454
11
4.4334645669291337
21
-5.2579623228346453
0
LINE
8
BLACK
6
CONTINUOUS
10
4.4334645669291337
20
-5.2579623228346453
11
4.424451968503937
21
-5.2623025590551178
0
LINE
8
BLACK
6
CONTINUOUS
10
4.424451968503937
20
-5.2623025590551178
11
4.4148931496062991
21
-5.2652510629921263
0
LINE
8
BLACK
6
CONTINUOUS
10
4.4148931496062991
20
-5.2652510629921263
11
4.4050016141732282
21
-5.2667419685039372
0
LINE
8
BLACK
6
CONTINUOUS
10
4.4050016141732282
20
-5.2667419685039372
11
4.3949983858267716
21
-5.2667419685039372
0
LINE
8
BLACK
6
CONTINUOUS
10
4.3949983858267716
20
-5.2667419685039372
11
4.3851068503937007
21
-5.2652510629921263
0
LINE
8
BLACK
6
CONTINUOUS
10
4.3851068503937007
20
-5.2652510629921263
11
4.3755480314960629
21
-5.2623025590551178
0
LINE
8
BLACK
6
CONTINUOUS
10
4.3755480314960629
20
-5.2623025590551178
11
4.3665354330708661
21
-5.2579623228346453
0
LINE
8
BLACK
6
CONTINUOUS
10
4.3665354330708661
20
-5.2579623228346453
11
4.3582703543307089
21
-5.2523273228346454
0
LINE
8
BLACK
6
CONTINUOUS
10
4.3582703543307089
20
-5.2523273228346454
11
4.3509374803149603
21
-5.2455233858267718
0
LINE
8
BLACK
6
CONTINUOUS
10
4.3509374803149603
20
-5.2455233858267718
11
4.3447005511811021
21
-5.2377025196850395
0
LINE
8
BLACK
6
CONTINUOUS
10
4.3447005511811021
20
-5.2377025196850395
11
4.3396989370078742
21
-5.2290394488188978
0
LINE
8
BLACK
6
CONTINUOUS
10
4.3396989370078742
20
-5.2290394488188978
11
4.3360443307086616
21
-5.2197277165354325
0
LINE
8
BLACK
6
CONTINUOUS
10
4.3360443307086616
20
-5.2197277165354325
11
4.3338184251968501
21
-5.2099752755905513
0
LINE
8
BLACK
6
CONTINUOUS
10
4.3338184251968501
20
-5.2099752755905513
11
4.3330708661417319
21
-5.2000000000000002
0
LINE
8
BLACK
6
CONTINUOUS
10
4.3330708661417319
20
-5.2000000000000002
11
4.3338184251968501
21
-5.1900247244094491
0
LINE
8
BLACK
6
CONTINUOUS
10
4.3338184251968501
20
-5.1900247244094491
11
4.3360443307086616
21
-5.1802722834645669
0
LINE
8
BLACK
6
CONTINUOUS
10
4.3360443307086616
20
-5.1802722834645669
11
4.3396989370078742
21
-5.1709605511811025
0
LINE
8
BLACK
6
CONTINUOUS
10
4.3396989370078742
20
-5.1709605511811025
11
4.3447005511811021
21
-5.1622974803149608
0
LINE
8
BLACK
6
CONTINUOUS
10
4.3447005511811021
20
-5.1622974803149608
11
4.3509374803149603
21
-5.1544766141732286
0
LINE
8
BLACK
6
CONTINUOUS
10
4.3509374803149603
20
-5.1544766141732286
11
4.3582703543307089
21
-5.147672677165354
0
LINE
8
BLACK
6
CONTINUOUS
10
4.3582703543307089
20
-5.147672677165354
11
4.3665354330708661
21
-5.1420376771653542
0
LINE
8
BLACK
6
CONTINUOUS
10
4.3665354330708661
20
-5.1420376771653542
11
4.3755480314960629
21
-5.1376974409448817
0
LINE
8
BLACK
6
CONTINUOUS
10
4.3755480314960629
20
-5.1376974409448817
11
4.3851068503937007
21
-5.134748937007874
0
LINE
8
BLACK
6
CONTINUOUS
10
4.3851068503937007
20
-5.134748937007874
11
4.3949983858267716
21
-5.1332580314960632
0
LINE
8
BLACK
6
CONTINUOUS
10
4.3949983858267716
20
-5.1332580314960632
11
4.4050016141732282
21
-5.1332580314960632
0
LINE
8
BLACK
6
CONTINUOUS
10
4.4050016141732282
20
-5.1332580314960632
11
4.4148931496062991
21
-5.134748937007874
0
LINE
8
BLACK
6
CONTINUOUS
10
6.0148931496062987
20
-5.134748937007874
11
6.0244519685039366
21
-5.1376974409448817
0
LINE
8
BLACK
6
CONTINUOUS
10
6.0244519685039366
20
-5.1376974409448817
11
6.0334645669291334
21
-5.1420376771653542
0
LINE
8
BLACK
6
CONTINUOUS
10
6.0334645669291334
20
-5.1420376771653542
11
6.0417296456692915
21
-5.147672677165354
0
LINE
8
BLACK
6
CONTINUOUS
10
6.0417296456692915
20
-5.147672677165354
11
6.0490625196850392
21
-5.1544766141732286
0
LINE
8
BLACK
6
CONTINUOUS
10
6.0490625196850392
20
-5.1544766141732286
11
6.0552994488188974
21
-5.1622974803149608
0
LINE
8
BLACK
6
CONTINUOUS
10
6.0552994488188974
20
-5.1622974803149608
11
6.0603010629921261
21
-5.1709605511811025
0
LINE
8
BLACK
6
CONTINUOUS
10
6.0603010629921261
20
-5.1709605511811025
11
6.0639556692913388
21
-5.1802722834645669
0
LINE
8
BLACK
6
CONTINUOUS
10
6.0639556692913388
20
-5.1802722834645669
11
6.0661815748031493
21
-5.1900247244094491
0
LINE
8
BLACK
6
CONTINUOUS
10
6.0661815748031493
20
-5.1900247244094491
11
6.0669291338582676
21
-5.2000000000000002
0
LINE
8
BLACK
6
CONTINUOUS
10
6.0669291338582676
20
-5.2000000000000002
11
6.0661815748031493
21
-5.2099752755905513
0
LINE
8
BLACK
6
CONTINUOUS
10
6.0661815748031493
20
-5.2099752755905513
11
6.0639556692913388
21
-5.2197277165354325
0
LINE
8
BLACK
6
CONTINUOUS
10
6.0639556692913388
20
-5.2197277165354325
11
6.0603010629921261
21
-5.2290394488188978
0
LINE
8
BLACK
6
CONTINUOUS
10
6.0603010629921261
20
-5.2290394488188978
11
6.0552994488188974
21
-5.2377025196850395
0
LINE
8
BLACK
6
CONTINUOUS
10
6.0552994488188974
20
-5.2377025196850395
11
6.0490625196850392
21
-5.2455233858267718
0
LINE
8
BLACK
6
CONTINUOUS
10
6.0490625196850392
20
-5.2455233858267718
11
6.0417296456692915
21
-5.2523273228346454
0
LINE
8
BLACK
6
CONTINUOUS
10
6.0417296456692915
20
-5.2523273228346454
11
6.0334645669291334
21
-5.2579623228346453
0
LINE
8
BLACK
6
CONTINUOUS
10
6.0334645669291334
20
-5.2579623228346453
11
6.0244519685039366
21
-5.2623025590551178
0
LINE
8
BLACK
6
CONTINUOUS
10
6.0244519685039366
20
-5.2623025590551178
11
6.0148931496062987
21
-5.2652510629921263
0
LINE
8
BLACK
6
CONTINUOUS
10
6.0148931496062987
20
-5.2652510629921263
11
6.0050016141732279
21
-5.2667419685039372
0
LINE
8
BLACK
6
CONTINUOUS
10
6.0050016141732279
20
-5.2667419685039372
11
5.9949983858267712
21
-5.2667419685039372
0
LINE
8
BLACK
6
CONTINUOUS
10
5.9949983858267712
20
-5.2667419685039372
11
5.9851068503937004
21
-5.2652510629921263
0
LINE
8
BLACK
6
CONTINUOUS
10
5.9851068503937004
20
-5.2652510629921263
11
5.9755480314960625
21
-5.2623025590551178
0
LINE
8
BLACK
6
CONTINUOUS
10
5.9755480314960625
20
-5.2623025590551178
11
5.9665354330708658
21
-5.2579623228346453
0
LINE
8
BLACK
6
CONTINUOUS
10
5.9665354330708658
20
-5.2579623228346453
11
5.9582703543307085
21
-5.2523273228346454
0
LINE
8
BLACK
6
CONTINUOUS
10
5.9582703543307085
20
-5.2523273228346454
11
5.9509374803149608
21
-5.2455233858267718
0
LINE
8
BLACK
6
CONTINUOUS
10
5.9509374803149608
20
-5.2455233858267718
11
5.9447005511811026
21
-5.2377025196850395
0
LINE
8
BLACK
6
CONTINUOUS
10
5.9447005511811026
20
-5.2377025196850395
11
5.9396989370078739
21
-5.2290394488188978
0
LINE
8
BLACK
6
CONTINUOUS
10
5.9396989370078739
20
-5.2290394488188978
11
5.9360443307086612
21
-5.2197277165354325
0
LINE
8
BLACK
6
CONTINUOUS
10
5.9360443307086612
20
-5.2197277165354325
11
5.9338184251968507
21
-5.2099752755905513
0
LINE
8
BLACK
6
CONTINUOUS
10
5.9338184251968507
20
-5.2099752755905513
11
5.9330708661417324
21
-5.2000000000000002
0
LINE
8
BLACK
6
CONTINUOUS
10
5.9330708661417324
20
-5.2000000000000002
11
5.9338184251968507
21
-5.1900247244094491
0
LINE
8
BLACK
6
CONTINUOUS
10
5.9338184251968507
20
-5.1900247244094491
11
5.9360443307086612
21
-5.1802722834645669
0
LINE
8
BLACK
6
CONTINUOUS
10
5.9360443307086612
20
-5.1802722834645669
11
5.9396989370078739
21
-5.1709605511811025
0
LINE
8
BLACK
6
CONTINUOUS
10
5.9396989370078739
20
-5.1709605511811025
11
5.9447005511811026
21
-5.1622974803149608
0
LINE
8
BLACK
6
CONTINUOUS
10
5.9447005511811026
20
-5.1622974803149608
11
5.9509374803149608
21
-5.1544766141732286
0
LINE
8
BLACK
6
CONTINUOUS
10
5.9509374803149608
20
-5.1544766141732286
11
5.9582703543307085
21
-5.147672677165354
0
LINE
8
BLACK
6
CONTINUOUS
10
5.9582703543307085
20
-5.147672677165354
11
5.9665354330708658
21
-5.1420376771653542
0
LINE
8
BLACK
6
CONTINUOUS
10
5.9665354330708658
20
-5.1420376771653542
11
5.9755480314960625
21
-5.1376974409448817
0
LINE
8
BLACK
6
CONTINUOUS
10
5.9755480314960625
20
-5.1376974409448817
11
5.9851068503937004
21
-5.134748937007874
0
LINE
8
BLACK
6
CONTINUOUS
10
5.9851068503937004
20
-5.134748937007874
11
5.9949983858267712
21
-5.1332580314960632
0
LINE
8
BLACK
6
CONTINUOUS
10
5.9949983858267712
20
-5.1332580314960632
11
6.0050016141732279
21
-5.1332580314960632
0
LINE
8
BLACK
6
CONTINUOUS
10
6.0050016141732279
20
-5.1332580314960632
11
6.0148931496062987
21
-5.134748937007874
  0
ENDSEC
  0
EOF
