%TF.GenerationSoftware,KiCad,Pcbnew,7.0.11+1*%
%TF.CreationDate,2024-07-03T20:29:20+00:00*%
%TF.ProjectId,SPIEX01,53504945-5830-4312-9e6b-696361645f70,rev?*%
%TF.SameCoordinates,Original*%
%TF.FileFunction,Legend,Bot*%
%TF.FilePolarity,Positive*%
%FSLAX46Y46*%
G04 Gerber Fmt 4.6, Leading zero omitted, Abs format (unit mm)*
G04 Created by KiCad (PCBNEW 7.0.11+1) date 2024-07-03 20:29:20*
%MOMM*%
%LPD*%
G01*
G04 APERTURE LIST*
%ADD10C,0.150000*%
%ADD11C,3.000000*%
G04 APERTURE END LIST*
D10*
X127891666Y-161880116D02*
X127939285Y-161927736D01*
X127939285Y-161927736D02*
X128082142Y-161975355D01*
X128082142Y-161975355D02*
X128177380Y-161975355D01*
X128177380Y-161975355D02*
X128320237Y-161927736D01*
X128320237Y-161927736D02*
X128415475Y-161832497D01*
X128415475Y-161832497D02*
X128463094Y-161737259D01*
X128463094Y-161737259D02*
X128510713Y-161546783D01*
X128510713Y-161546783D02*
X128510713Y-161403926D01*
X128510713Y-161403926D02*
X128463094Y-161213450D01*
X128463094Y-161213450D02*
X128415475Y-161118212D01*
X128415475Y-161118212D02*
X128320237Y-161022974D01*
X128320237Y-161022974D02*
X128177380Y-160975355D01*
X128177380Y-160975355D02*
X128082142Y-160975355D01*
X128082142Y-160975355D02*
X127939285Y-161022974D01*
X127939285Y-161022974D02*
X127891666Y-161070593D01*
X127558332Y-160975355D02*
X126939285Y-160975355D01*
X126939285Y-160975355D02*
X127272618Y-161356307D01*
X127272618Y-161356307D02*
X127129761Y-161356307D01*
X127129761Y-161356307D02*
X127034523Y-161403926D01*
X127034523Y-161403926D02*
X126986904Y-161451545D01*
X126986904Y-161451545D02*
X126939285Y-161546783D01*
X126939285Y-161546783D02*
X126939285Y-161784878D01*
X126939285Y-161784878D02*
X126986904Y-161880116D01*
X126986904Y-161880116D02*
X127034523Y-161927736D01*
X127034523Y-161927736D02*
X127129761Y-161975355D01*
X127129761Y-161975355D02*
X127415475Y-161975355D01*
X127415475Y-161975355D02*
X127510713Y-161927736D01*
X127510713Y-161927736D02*
X127558332Y-161880116D01*
X119307136Y-161180039D02*
X119307136Y-161989562D01*
X119307136Y-161989562D02*
X119259517Y-162084800D01*
X119259517Y-162084800D02*
X119211898Y-162132420D01*
X119211898Y-162132420D02*
X119116660Y-162180039D01*
X119116660Y-162180039D02*
X118926184Y-162180039D01*
X118926184Y-162180039D02*
X118830946Y-162132420D01*
X118830946Y-162132420D02*
X118783327Y-162084800D01*
X118783327Y-162084800D02*
X118735708Y-161989562D01*
X118735708Y-161989562D02*
X118735708Y-161180039D01*
X118354755Y-161180039D02*
X117735708Y-161180039D01*
X117735708Y-161180039D02*
X118069041Y-161560991D01*
X118069041Y-161560991D02*
X117926184Y-161560991D01*
X117926184Y-161560991D02*
X117830946Y-161608610D01*
X117830946Y-161608610D02*
X117783327Y-161656229D01*
X117783327Y-161656229D02*
X117735708Y-161751467D01*
X117735708Y-161751467D02*
X117735708Y-161989562D01*
X117735708Y-161989562D02*
X117783327Y-162084800D01*
X117783327Y-162084800D02*
X117830946Y-162132420D01*
X117830946Y-162132420D02*
X117926184Y-162180039D01*
X117926184Y-162180039D02*
X118211898Y-162180039D01*
X118211898Y-162180039D02*
X118307136Y-162132420D01*
X118307136Y-162132420D02*
X118354755Y-162084800D01*
X156116580Y-158931553D02*
X156164200Y-158883934D01*
X156164200Y-158883934D02*
X156211819Y-158741077D01*
X156211819Y-158741077D02*
X156211819Y-158645839D01*
X156211819Y-158645839D02*
X156164200Y-158502982D01*
X156164200Y-158502982D02*
X156068961Y-158407744D01*
X156068961Y-158407744D02*
X155973723Y-158360125D01*
X155973723Y-158360125D02*
X155783247Y-158312506D01*
X155783247Y-158312506D02*
X155640390Y-158312506D01*
X155640390Y-158312506D02*
X155449914Y-158360125D01*
X155449914Y-158360125D02*
X155354676Y-158407744D01*
X155354676Y-158407744D02*
X155259438Y-158502982D01*
X155259438Y-158502982D02*
X155211819Y-158645839D01*
X155211819Y-158645839D02*
X155211819Y-158741077D01*
X155211819Y-158741077D02*
X155259438Y-158883934D01*
X155259438Y-158883934D02*
X155307057Y-158931553D01*
X156211819Y-159883934D02*
X156211819Y-159312506D01*
X156211819Y-159598220D02*
X155211819Y-159598220D01*
X155211819Y-159598220D02*
X155354676Y-159502982D01*
X155354676Y-159502982D02*
X155449914Y-159407744D01*
X155449914Y-159407744D02*
X155497533Y-159312506D01*
X134209580Y-162335333D02*
X134257200Y-162287714D01*
X134257200Y-162287714D02*
X134304819Y-162144857D01*
X134304819Y-162144857D02*
X134304819Y-162049619D01*
X134304819Y-162049619D02*
X134257200Y-161906762D01*
X134257200Y-161906762D02*
X134161961Y-161811524D01*
X134161961Y-161811524D02*
X134066723Y-161763905D01*
X134066723Y-161763905D02*
X133876247Y-161716286D01*
X133876247Y-161716286D02*
X133733390Y-161716286D01*
X133733390Y-161716286D02*
X133542914Y-161763905D01*
X133542914Y-161763905D02*
X133447676Y-161811524D01*
X133447676Y-161811524D02*
X133352438Y-161906762D01*
X133352438Y-161906762D02*
X133304819Y-162049619D01*
X133304819Y-162049619D02*
X133304819Y-162144857D01*
X133304819Y-162144857D02*
X133352438Y-162287714D01*
X133352438Y-162287714D02*
X133400057Y-162335333D01*
X133400057Y-162716286D02*
X133352438Y-162763905D01*
X133352438Y-162763905D02*
X133304819Y-162859143D01*
X133304819Y-162859143D02*
X133304819Y-163097238D01*
X133304819Y-163097238D02*
X133352438Y-163192476D01*
X133352438Y-163192476D02*
X133400057Y-163240095D01*
X133400057Y-163240095D02*
X133495295Y-163287714D01*
X133495295Y-163287714D02*
X133590533Y-163287714D01*
X133590533Y-163287714D02*
X133733390Y-163240095D01*
X133733390Y-163240095D02*
X134304819Y-162668667D01*
X134304819Y-162668667D02*
X134304819Y-163287714D01*
X131795904Y-161380039D02*
X131795904Y-162189562D01*
X131795904Y-162189562D02*
X131748285Y-162284800D01*
X131748285Y-162284800D02*
X131700666Y-162332420D01*
X131700666Y-162332420D02*
X131605428Y-162380039D01*
X131605428Y-162380039D02*
X131414952Y-162380039D01*
X131414952Y-162380039D02*
X131319714Y-162332420D01*
X131319714Y-162332420D02*
X131272095Y-162284800D01*
X131272095Y-162284800D02*
X131224476Y-162189562D01*
X131224476Y-162189562D02*
X131224476Y-161380039D01*
X130224476Y-162380039D02*
X130795904Y-162380039D01*
X130510190Y-162380039D02*
X130510190Y-161380039D01*
X130510190Y-161380039D02*
X130605428Y-161522896D01*
X130605428Y-161522896D02*
X130700666Y-161618134D01*
X130700666Y-161618134D02*
X130795904Y-161665753D01*
X149411904Y-161007039D02*
X149411904Y-161816562D01*
X149411904Y-161816562D02*
X149364285Y-161911800D01*
X149364285Y-161911800D02*
X149316666Y-161959420D01*
X149316666Y-161959420D02*
X149221428Y-162007039D01*
X149221428Y-162007039D02*
X149030952Y-162007039D01*
X149030952Y-162007039D02*
X148935714Y-161959420D01*
X148935714Y-161959420D02*
X148888095Y-161911800D01*
X148888095Y-161911800D02*
X148840476Y-161816562D01*
X148840476Y-161816562D02*
X148840476Y-161007039D01*
X148411904Y-161102277D02*
X148364285Y-161054658D01*
X148364285Y-161054658D02*
X148269047Y-161007039D01*
X148269047Y-161007039D02*
X148030952Y-161007039D01*
X148030952Y-161007039D02*
X147935714Y-161054658D01*
X147935714Y-161054658D02*
X147888095Y-161102277D01*
X147888095Y-161102277D02*
X147840476Y-161197515D01*
X147840476Y-161197515D02*
X147840476Y-161292753D01*
X147840476Y-161292753D02*
X147888095Y-161435610D01*
X147888095Y-161435610D02*
X148459523Y-162007039D01*
X148459523Y-162007039D02*
X147840476Y-162007039D01*
X132310094Y-164699419D02*
X132310094Y-163699419D01*
X132310094Y-163699419D02*
X132071999Y-163699419D01*
X132071999Y-163699419D02*
X131929142Y-163747038D01*
X131929142Y-163747038D02*
X131833904Y-163842276D01*
X131833904Y-163842276D02*
X131786285Y-163937514D01*
X131786285Y-163937514D02*
X131738666Y-164127990D01*
X131738666Y-164127990D02*
X131738666Y-164270847D01*
X131738666Y-164270847D02*
X131786285Y-164461323D01*
X131786285Y-164461323D02*
X131833904Y-164556561D01*
X131833904Y-164556561D02*
X131929142Y-164651800D01*
X131929142Y-164651800D02*
X132071999Y-164699419D01*
X132071999Y-164699419D02*
X132310094Y-164699419D01*
X130786285Y-164699419D02*
X131357713Y-164699419D01*
X131071999Y-164699419D02*
X131071999Y-163699419D01*
X131071999Y-163699419D02*
X131167237Y-163842276D01*
X131167237Y-163842276D02*
X131262475Y-163937514D01*
X131262475Y-163937514D02*
X131357713Y-163985133D01*
%TO.C,C3*%
X127416000Y-158654000D02*
X127416000Y-159354000D01*
X128616000Y-159354000D02*
X128616000Y-158654000D01*
%TO.C,U3*%
X117470000Y-159283684D02*
X117585000Y-159283684D01*
X117470000Y-159283684D02*
X117470000Y-155133684D01*
X126255000Y-159283684D02*
X126255000Y-160658684D01*
X126370000Y-159283684D02*
X126255000Y-159283684D01*
X126370000Y-159283684D02*
X126370000Y-155133684D01*
X117470000Y-155133684D02*
X117585000Y-155133684D01*
X126370000Y-155133684D02*
X126255000Y-155133684D01*
%TO.C,C1*%
X154457000Y-159448220D02*
X154457000Y-158748220D01*
X153257000Y-158748220D02*
X153257000Y-159448220D01*
%TO.C,C2*%
X130968000Y-163160000D02*
X131668000Y-163160000D01*
X131668000Y-161960000D02*
X130968000Y-161960000D01*
%TO.C,U1*%
X138749000Y-155212220D02*
X138634000Y-155212220D01*
X138749000Y-155212220D02*
X138749000Y-159362220D01*
X129964000Y-155212220D02*
X129964000Y-153837220D01*
X129849000Y-155212220D02*
X129964000Y-155212220D01*
X129849000Y-155212220D02*
X129849000Y-159362220D01*
X138749000Y-159362220D02*
X138634000Y-159362220D01*
X129849000Y-159362220D02*
X129964000Y-159362220D01*
%TO.C,U2*%
X146575000Y-151727220D02*
X146575000Y-151842220D01*
X146575000Y-151727220D02*
X150725000Y-151727220D01*
X146575000Y-160512220D02*
X145200000Y-160512220D01*
X146575000Y-160627220D02*
X146575000Y-160512220D01*
X146575000Y-160627220D02*
X150725000Y-160627220D01*
X150725000Y-151727220D02*
X150725000Y-151842220D01*
X150725000Y-160627220D02*
X150725000Y-160512220D01*
%TO.C,D1*%
X132172000Y-165469600D02*
X130972000Y-165469600D01*
X130972000Y-167219600D02*
X132172000Y-167219600D01*
%TD*%
D11*
%TO.C,P10*%
X111760000Y-172720000D03*
%TD*%
%TO.C,P11*%
X152400000Y-172720000D03*
%TD*%
%TO.C,P12*%
X111760000Y-132080000D03*
%TD*%
%TO.C,P13*%
X152400000Y-132080000D03*
%TD*%
M02*
