M48
; DRILL file {KiCad 7.0.11+1} date Wed Jul  3 20:29:20 2024
; FORMAT={3:3/ absolute / metric / suppress leading zeros}
; #@! TF.CreationDate,2024-07-03T20:29:20+00:00
; #@! TF.GenerationSoftware,Kicad,Pcbnew,7.0.11+1
; #@! TF.FileFunction,Plated,1,2,PTH
FMAT,2
METRIC,TZ
; #@! TA.AperFunction,Plated,PTH,ViaDrill
T1C0.400
; #@! TA.AperFunction,Plated,PTH,ComponentDrill
T2C0.889
%
G90
G05
T1
X110744Y-138938
X114808Y-137922
X114808Y-161036
X116078Y-139954
X117094Y-138938
X119380Y-152908
X120904Y-137922
X121895Y-161722
X122301Y-139954
X123190Y-162306
X123190Y-156000
X123317Y-138938
X125730Y-155956
X127229Y-137938
X128651Y-139954
X129667Y-138938
X131759Y-156177
X133604Y-137922
X135017Y-139973
X136017Y-138938
X138108Y-158584
X139234Y-154925
X139954Y-137922
X141351Y-139954
X142367Y-138938
X144586Y-158717
X146355Y-137938
X147400Y-159903
X147534Y-152325
X147844Y-139954
X148795Y-139097
X151317Y-160876
X152654Y-138176
X152900Y-158525
T2
X112114Y-142763
X112114Y-145303
X112114Y-147843
X112268Y-153285
X112268Y-155825
X112268Y-158365
X114654Y-142763
X114654Y-145303
X114654Y-147843
X114808Y-153285
X114808Y-155825
X114808Y-158365
X118424Y-142715
X118424Y-145255
X118424Y-147795
X120964Y-142715
X120964Y-145255
X120964Y-147795
X124684Y-142823
X124684Y-145363
X124684Y-147903
X127224Y-142823
X127224Y-145363
X127224Y-147903
X130353Y-169469
X130353Y-172009
X131124Y-142715
X131124Y-145255
X131124Y-147795
X132893Y-169469
X132893Y-172009
X133664Y-142715
X133664Y-145255
X133664Y-147795
X135433Y-169469
X135433Y-172009
X137474Y-142715
X137474Y-145255
X137474Y-147795
X140014Y-142715
X140014Y-145255
X140014Y-147795
X143824Y-142715
X143824Y-145255
X143824Y-147795
X146364Y-142715
X146364Y-145255
X146364Y-147795
X150139Y-142773
X150139Y-145313
X150139Y-147853
X152679Y-142773
X152679Y-145313
X152679Y-147853
M30
