%TF.GenerationSoftware,KiCad,Pcbnew,7.0.11+1*%
%TF.CreationDate,2024-07-03T20:29:20+00:00*%
%TF.ProjectId,SPIEX01,53504945-5830-4312-9e6b-696361645f70,rev?*%
%TF.SameCoordinates,Original*%
%TF.FileFunction,Legend,Top*%
%TF.FilePolarity,Positive*%
%FSLAX46Y46*%
G04 Gerber Fmt 4.6, Leading zero omitted, Abs format (unit mm)*
G04 Created by KiCad (PCBNEW 7.0.11+1) date 2024-07-03 20:29:20*
%MOMM*%
%LPD*%
G01*
G04 APERTURE LIST*
%ADD10C,0.300000*%
%ADD11C,0.150000*%
%ADD12C,0.050000*%
%ADD13R,1.524000X1.524000*%
G04 APERTURE END LIST*
D10*
X130913428Y-175112900D02*
X132056286Y-175112900D01*
X131484857Y-175684328D02*
X131484857Y-174541471D01*
X133484857Y-174184328D02*
X132770571Y-174184328D01*
X132770571Y-174184328D02*
X132699143Y-174898614D01*
X132699143Y-174898614D02*
X132770571Y-174827185D01*
X132770571Y-174827185D02*
X132913429Y-174755757D01*
X132913429Y-174755757D02*
X133270571Y-174755757D01*
X133270571Y-174755757D02*
X133413429Y-174827185D01*
X133413429Y-174827185D02*
X133484857Y-174898614D01*
X133484857Y-174898614D02*
X133556286Y-175041471D01*
X133556286Y-175041471D02*
X133556286Y-175398614D01*
X133556286Y-175398614D02*
X133484857Y-175541471D01*
X133484857Y-175541471D02*
X133413429Y-175612900D01*
X133413429Y-175612900D02*
X133270571Y-175684328D01*
X133270571Y-175684328D02*
X132913429Y-175684328D01*
X132913429Y-175684328D02*
X132770571Y-175612900D01*
X132770571Y-175612900D02*
X132699143Y-175541471D01*
X133984857Y-174184328D02*
X134484857Y-175684328D01*
X134484857Y-175684328D02*
X134984857Y-174184328D01*
X144532796Y-157521328D02*
X144389939Y-157449900D01*
X144389939Y-157449900D02*
X144318510Y-157378471D01*
X144318510Y-157378471D02*
X144247082Y-157235614D01*
X144247082Y-157235614D02*
X144247082Y-156807042D01*
X144247082Y-156807042D02*
X144318510Y-156664185D01*
X144318510Y-156664185D02*
X144389939Y-156592757D01*
X144389939Y-156592757D02*
X144532796Y-156521328D01*
X144532796Y-156521328D02*
X144747082Y-156521328D01*
X144747082Y-156521328D02*
X144889939Y-156592757D01*
X144889939Y-156592757D02*
X144961368Y-156664185D01*
X144961368Y-156664185D02*
X145032796Y-156807042D01*
X145032796Y-156807042D02*
X145032796Y-157235614D01*
X145032796Y-157235614D02*
X144961368Y-157378471D01*
X144961368Y-157378471D02*
X144889939Y-157449900D01*
X144889939Y-157449900D02*
X144747082Y-157521328D01*
X144747082Y-157521328D02*
X144532796Y-157521328D01*
X146604225Y-156021328D02*
X147104225Y-157521328D01*
X147104225Y-157521328D02*
X147604225Y-156021328D01*
X148961367Y-157378471D02*
X148889939Y-157449900D01*
X148889939Y-157449900D02*
X148675653Y-157521328D01*
X148675653Y-157521328D02*
X148532796Y-157521328D01*
X148532796Y-157521328D02*
X148318510Y-157449900D01*
X148318510Y-157449900D02*
X148175653Y-157307042D01*
X148175653Y-157307042D02*
X148104224Y-157164185D01*
X148104224Y-157164185D02*
X148032796Y-156878471D01*
X148032796Y-156878471D02*
X148032796Y-156664185D01*
X148032796Y-156664185D02*
X148104224Y-156378471D01*
X148104224Y-156378471D02*
X148175653Y-156235614D01*
X148175653Y-156235614D02*
X148318510Y-156092757D01*
X148318510Y-156092757D02*
X148532796Y-156021328D01*
X148532796Y-156021328D02*
X148675653Y-156021328D01*
X148675653Y-156021328D02*
X148889939Y-156092757D01*
X148889939Y-156092757D02*
X148961367Y-156164185D01*
X150461367Y-157378471D02*
X150389939Y-157449900D01*
X150389939Y-157449900D02*
X150175653Y-157521328D01*
X150175653Y-157521328D02*
X150032796Y-157521328D01*
X150032796Y-157521328D02*
X149818510Y-157449900D01*
X149818510Y-157449900D02*
X149675653Y-157307042D01*
X149675653Y-157307042D02*
X149604224Y-157164185D01*
X149604224Y-157164185D02*
X149532796Y-156878471D01*
X149532796Y-156878471D02*
X149532796Y-156664185D01*
X149532796Y-156664185D02*
X149604224Y-156378471D01*
X149604224Y-156378471D02*
X149675653Y-156235614D01*
X149675653Y-156235614D02*
X149818510Y-156092757D01*
X149818510Y-156092757D02*
X150032796Y-156021328D01*
X150032796Y-156021328D02*
X150175653Y-156021328D01*
X150175653Y-156021328D02*
X150389939Y-156092757D01*
X150389939Y-156092757D02*
X150461367Y-156164185D01*
X144532796Y-159936328D02*
X144389939Y-159864900D01*
X144389939Y-159864900D02*
X144318510Y-159793471D01*
X144318510Y-159793471D02*
X144247082Y-159650614D01*
X144247082Y-159650614D02*
X144247082Y-159222042D01*
X144247082Y-159222042D02*
X144318510Y-159079185D01*
X144318510Y-159079185D02*
X144389939Y-159007757D01*
X144389939Y-159007757D02*
X144532796Y-158936328D01*
X144532796Y-158936328D02*
X144747082Y-158936328D01*
X144747082Y-158936328D02*
X144889939Y-159007757D01*
X144889939Y-159007757D02*
X144961368Y-159079185D01*
X144961368Y-159079185D02*
X145032796Y-159222042D01*
X145032796Y-159222042D02*
X145032796Y-159650614D01*
X145032796Y-159650614D02*
X144961368Y-159793471D01*
X144961368Y-159793471D02*
X144889939Y-159864900D01*
X144889939Y-159864900D02*
X144747082Y-159936328D01*
X144747082Y-159936328D02*
X144532796Y-159936328D01*
X146818510Y-159936328D02*
X146818510Y-158436328D01*
X146818510Y-158436328D02*
X147318510Y-159507757D01*
X147318510Y-159507757D02*
X147818510Y-158436328D01*
X147818510Y-158436328D02*
X147818510Y-159936328D01*
X148818511Y-158436328D02*
X149104225Y-158436328D01*
X149104225Y-158436328D02*
X149247082Y-158507757D01*
X149247082Y-158507757D02*
X149389939Y-158650614D01*
X149389939Y-158650614D02*
X149461368Y-158936328D01*
X149461368Y-158936328D02*
X149461368Y-159436328D01*
X149461368Y-159436328D02*
X149389939Y-159722042D01*
X149389939Y-159722042D02*
X149247082Y-159864900D01*
X149247082Y-159864900D02*
X149104225Y-159936328D01*
X149104225Y-159936328D02*
X148818511Y-159936328D01*
X148818511Y-159936328D02*
X148675654Y-159864900D01*
X148675654Y-159864900D02*
X148532796Y-159722042D01*
X148532796Y-159722042D02*
X148461368Y-159436328D01*
X148461368Y-159436328D02*
X148461368Y-158936328D01*
X148461368Y-158936328D02*
X148532796Y-158650614D01*
X148532796Y-158650614D02*
X148675654Y-158507757D01*
X148675654Y-158507757D02*
X148818511Y-158436328D01*
X150032797Y-159864900D02*
X150247083Y-159936328D01*
X150247083Y-159936328D02*
X150604225Y-159936328D01*
X150604225Y-159936328D02*
X150747083Y-159864900D01*
X150747083Y-159864900D02*
X150818511Y-159793471D01*
X150818511Y-159793471D02*
X150889940Y-159650614D01*
X150889940Y-159650614D02*
X150889940Y-159507757D01*
X150889940Y-159507757D02*
X150818511Y-159364900D01*
X150818511Y-159364900D02*
X150747083Y-159293471D01*
X150747083Y-159293471D02*
X150604225Y-159222042D01*
X150604225Y-159222042D02*
X150318511Y-159150614D01*
X150318511Y-159150614D02*
X150175654Y-159079185D01*
X150175654Y-159079185D02*
X150104225Y-159007757D01*
X150104225Y-159007757D02*
X150032797Y-158864900D01*
X150032797Y-158864900D02*
X150032797Y-158722042D01*
X150032797Y-158722042D02*
X150104225Y-158579185D01*
X150104225Y-158579185D02*
X150175654Y-158507757D01*
X150175654Y-158507757D02*
X150318511Y-158436328D01*
X150318511Y-158436328D02*
X150675654Y-158436328D01*
X150675654Y-158436328D02*
X150889940Y-158507757D01*
X151532796Y-159936328D02*
X151532796Y-158436328D01*
X144532796Y-162351328D02*
X144389939Y-162279900D01*
X144389939Y-162279900D02*
X144318510Y-162208471D01*
X144318510Y-162208471D02*
X144247082Y-162065614D01*
X144247082Y-162065614D02*
X144247082Y-161637042D01*
X144247082Y-161637042D02*
X144318510Y-161494185D01*
X144318510Y-161494185D02*
X144389939Y-161422757D01*
X144389939Y-161422757D02*
X144532796Y-161351328D01*
X144532796Y-161351328D02*
X144747082Y-161351328D01*
X144747082Y-161351328D02*
X144889939Y-161422757D01*
X144889939Y-161422757D02*
X144961368Y-161494185D01*
X144961368Y-161494185D02*
X145032796Y-161637042D01*
X145032796Y-161637042D02*
X145032796Y-162065614D01*
X145032796Y-162065614D02*
X144961368Y-162208471D01*
X144961368Y-162208471D02*
X144889939Y-162279900D01*
X144889939Y-162279900D02*
X144747082Y-162351328D01*
X144747082Y-162351328D02*
X144532796Y-162351328D01*
X147604225Y-160922757D02*
X147461368Y-160851328D01*
X147461368Y-160851328D02*
X147247082Y-160851328D01*
X147247082Y-160851328D02*
X147032796Y-160922757D01*
X147032796Y-160922757D02*
X146889939Y-161065614D01*
X146889939Y-161065614D02*
X146818510Y-161208471D01*
X146818510Y-161208471D02*
X146747082Y-161494185D01*
X146747082Y-161494185D02*
X146747082Y-161708471D01*
X146747082Y-161708471D02*
X146818510Y-161994185D01*
X146818510Y-161994185D02*
X146889939Y-162137042D01*
X146889939Y-162137042D02*
X147032796Y-162279900D01*
X147032796Y-162279900D02*
X147247082Y-162351328D01*
X147247082Y-162351328D02*
X147389939Y-162351328D01*
X147389939Y-162351328D02*
X147604225Y-162279900D01*
X147604225Y-162279900D02*
X147675653Y-162208471D01*
X147675653Y-162208471D02*
X147675653Y-161708471D01*
X147675653Y-161708471D02*
X147389939Y-161708471D01*
X148318510Y-162351328D02*
X148318510Y-160851328D01*
X148318510Y-160851328D02*
X149175653Y-162351328D01*
X149175653Y-162351328D02*
X149175653Y-160851328D01*
X149889939Y-162351328D02*
X149889939Y-160851328D01*
X149889939Y-160851328D02*
X150247082Y-160851328D01*
X150247082Y-160851328D02*
X150461368Y-160922757D01*
X150461368Y-160922757D02*
X150604225Y-161065614D01*
X150604225Y-161065614D02*
X150675654Y-161208471D01*
X150675654Y-161208471D02*
X150747082Y-161494185D01*
X150747082Y-161494185D02*
X150747082Y-161708471D01*
X150747082Y-161708471D02*
X150675654Y-161994185D01*
X150675654Y-161994185D02*
X150604225Y-162137042D01*
X150604225Y-162137042D02*
X150461368Y-162279900D01*
X150461368Y-162279900D02*
X150247082Y-162351328D01*
X150247082Y-162351328D02*
X149889939Y-162351328D01*
X137577428Y-154276900D02*
X137791714Y-154348328D01*
X137791714Y-154348328D02*
X138148856Y-154348328D01*
X138148856Y-154348328D02*
X138291714Y-154276900D01*
X138291714Y-154276900D02*
X138363142Y-154205471D01*
X138363142Y-154205471D02*
X138434571Y-154062614D01*
X138434571Y-154062614D02*
X138434571Y-153919757D01*
X138434571Y-153919757D02*
X138363142Y-153776900D01*
X138363142Y-153776900D02*
X138291714Y-153705471D01*
X138291714Y-153705471D02*
X138148856Y-153634042D01*
X138148856Y-153634042D02*
X137863142Y-153562614D01*
X137863142Y-153562614D02*
X137720285Y-153491185D01*
X137720285Y-153491185D02*
X137648856Y-153419757D01*
X137648856Y-153419757D02*
X137577428Y-153276900D01*
X137577428Y-153276900D02*
X137577428Y-153134042D01*
X137577428Y-153134042D02*
X137648856Y-152991185D01*
X137648856Y-152991185D02*
X137720285Y-152919757D01*
X137720285Y-152919757D02*
X137863142Y-152848328D01*
X137863142Y-152848328D02*
X138220285Y-152848328D01*
X138220285Y-152848328D02*
X138434571Y-152919757D01*
X139077427Y-154348328D02*
X139077427Y-152848328D01*
X139077427Y-152848328D02*
X139648856Y-152848328D01*
X139648856Y-152848328D02*
X139791713Y-152919757D01*
X139791713Y-152919757D02*
X139863142Y-152991185D01*
X139863142Y-152991185D02*
X139934570Y-153134042D01*
X139934570Y-153134042D02*
X139934570Y-153348328D01*
X139934570Y-153348328D02*
X139863142Y-153491185D01*
X139863142Y-153491185D02*
X139791713Y-153562614D01*
X139791713Y-153562614D02*
X139648856Y-153634042D01*
X139648856Y-153634042D02*
X139077427Y-153634042D01*
X140577427Y-154348328D02*
X140577427Y-152848328D01*
X142434570Y-154348328D02*
X142434570Y-152848328D01*
X142434570Y-152848328D02*
X143005999Y-152848328D01*
X143005999Y-152848328D02*
X143148856Y-152919757D01*
X143148856Y-152919757D02*
X143220285Y-152991185D01*
X143220285Y-152991185D02*
X143291713Y-153134042D01*
X143291713Y-153134042D02*
X143291713Y-153348328D01*
X143291713Y-153348328D02*
X143220285Y-153491185D01*
X143220285Y-153491185D02*
X143148856Y-153562614D01*
X143148856Y-153562614D02*
X143005999Y-153634042D01*
X143005999Y-153634042D02*
X142434570Y-153634042D01*
X143934570Y-154348328D02*
X143934570Y-153348328D01*
X143934570Y-152848328D02*
X143863142Y-152919757D01*
X143863142Y-152919757D02*
X143934570Y-152991185D01*
X143934570Y-152991185D02*
X144005999Y-152919757D01*
X144005999Y-152919757D02*
X143934570Y-152848328D01*
X143934570Y-152848328D02*
X143934570Y-152991185D01*
X144648856Y-153348328D02*
X144648856Y-154348328D01*
X144648856Y-153491185D02*
X144720285Y-153419757D01*
X144720285Y-153419757D02*
X144863142Y-153348328D01*
X144863142Y-153348328D02*
X145077428Y-153348328D01*
X145077428Y-153348328D02*
X145220285Y-153419757D01*
X145220285Y-153419757D02*
X145291714Y-153562614D01*
X145291714Y-153562614D02*
X145291714Y-154348328D01*
X146220285Y-154348328D02*
X146077428Y-154276900D01*
X146077428Y-154276900D02*
X146005999Y-154205471D01*
X146005999Y-154205471D02*
X145934571Y-154062614D01*
X145934571Y-154062614D02*
X145934571Y-153634042D01*
X145934571Y-153634042D02*
X146005999Y-153491185D01*
X146005999Y-153491185D02*
X146077428Y-153419757D01*
X146077428Y-153419757D02*
X146220285Y-153348328D01*
X146220285Y-153348328D02*
X146434571Y-153348328D01*
X146434571Y-153348328D02*
X146577428Y-153419757D01*
X146577428Y-153419757D02*
X146648857Y-153491185D01*
X146648857Y-153491185D02*
X146720285Y-153634042D01*
X146720285Y-153634042D02*
X146720285Y-154062614D01*
X146720285Y-154062614D02*
X146648857Y-154205471D01*
X146648857Y-154205471D02*
X146577428Y-154276900D01*
X146577428Y-154276900D02*
X146434571Y-154348328D01*
X146434571Y-154348328D02*
X146220285Y-154348328D01*
X148006000Y-153348328D02*
X148006000Y-154348328D01*
X147363142Y-153348328D02*
X147363142Y-154134042D01*
X147363142Y-154134042D02*
X147434571Y-154276900D01*
X147434571Y-154276900D02*
X147577428Y-154348328D01*
X147577428Y-154348328D02*
X147791714Y-154348328D01*
X147791714Y-154348328D02*
X147934571Y-154276900D01*
X147934571Y-154276900D02*
X148006000Y-154205471D01*
X148506000Y-153348328D02*
X149077428Y-153348328D01*
X148720285Y-152848328D02*
X148720285Y-154134042D01*
X148720285Y-154134042D02*
X148791714Y-154276900D01*
X148791714Y-154276900D02*
X148934571Y-154348328D01*
X148934571Y-154348328D02*
X149077428Y-154348328D01*
X135161774Y-157521328D02*
X135161774Y-156021328D01*
X135161774Y-156021328D02*
X135661774Y-157092757D01*
X135661774Y-157092757D02*
X136161774Y-156021328D01*
X136161774Y-156021328D02*
X136161774Y-157521328D01*
X136876060Y-157521328D02*
X136876060Y-156021328D01*
X137518918Y-157449900D02*
X137733204Y-157521328D01*
X137733204Y-157521328D02*
X138090346Y-157521328D01*
X138090346Y-157521328D02*
X138233204Y-157449900D01*
X138233204Y-157449900D02*
X138304632Y-157378471D01*
X138304632Y-157378471D02*
X138376061Y-157235614D01*
X138376061Y-157235614D02*
X138376061Y-157092757D01*
X138376061Y-157092757D02*
X138304632Y-156949900D01*
X138304632Y-156949900D02*
X138233204Y-156878471D01*
X138233204Y-156878471D02*
X138090346Y-156807042D01*
X138090346Y-156807042D02*
X137804632Y-156735614D01*
X137804632Y-156735614D02*
X137661775Y-156664185D01*
X137661775Y-156664185D02*
X137590346Y-156592757D01*
X137590346Y-156592757D02*
X137518918Y-156449900D01*
X137518918Y-156449900D02*
X137518918Y-156307042D01*
X137518918Y-156307042D02*
X137590346Y-156164185D01*
X137590346Y-156164185D02*
X137661775Y-156092757D01*
X137661775Y-156092757D02*
X137804632Y-156021328D01*
X137804632Y-156021328D02*
X138161775Y-156021328D01*
X138161775Y-156021328D02*
X138376061Y-156092757D01*
X139304632Y-156021328D02*
X139590346Y-156021328D01*
X139590346Y-156021328D02*
X139733203Y-156092757D01*
X139733203Y-156092757D02*
X139876060Y-156235614D01*
X139876060Y-156235614D02*
X139947489Y-156521328D01*
X139947489Y-156521328D02*
X139947489Y-157021328D01*
X139947489Y-157021328D02*
X139876060Y-157307042D01*
X139876060Y-157307042D02*
X139733203Y-157449900D01*
X139733203Y-157449900D02*
X139590346Y-157521328D01*
X139590346Y-157521328D02*
X139304632Y-157521328D01*
X139304632Y-157521328D02*
X139161775Y-157449900D01*
X139161775Y-157449900D02*
X139018917Y-157307042D01*
X139018917Y-157307042D02*
X138947489Y-157021328D01*
X138947489Y-157021328D02*
X138947489Y-156521328D01*
X138947489Y-156521328D02*
X139018917Y-156235614D01*
X139018917Y-156235614D02*
X139161775Y-156092757D01*
X139161775Y-156092757D02*
X139304632Y-156021328D01*
X142518918Y-157521328D02*
X141661775Y-157521328D01*
X142090346Y-157521328D02*
X142090346Y-156021328D01*
X142090346Y-156021328D02*
X141947489Y-156235614D01*
X141947489Y-156235614D02*
X141804632Y-156378471D01*
X141804632Y-156378471D02*
X141661775Y-156449900D01*
X137304631Y-159793471D02*
X137233203Y-159864900D01*
X137233203Y-159864900D02*
X137018917Y-159936328D01*
X137018917Y-159936328D02*
X136876060Y-159936328D01*
X136876060Y-159936328D02*
X136661774Y-159864900D01*
X136661774Y-159864900D02*
X136518917Y-159722042D01*
X136518917Y-159722042D02*
X136447488Y-159579185D01*
X136447488Y-159579185D02*
X136376060Y-159293471D01*
X136376060Y-159293471D02*
X136376060Y-159079185D01*
X136376060Y-159079185D02*
X136447488Y-158793471D01*
X136447488Y-158793471D02*
X136518917Y-158650614D01*
X136518917Y-158650614D02*
X136661774Y-158507757D01*
X136661774Y-158507757D02*
X136876060Y-158436328D01*
X136876060Y-158436328D02*
X137018917Y-158436328D01*
X137018917Y-158436328D02*
X137233203Y-158507757D01*
X137233203Y-158507757D02*
X137304631Y-158579185D01*
X138661774Y-159936328D02*
X137947488Y-159936328D01*
X137947488Y-159936328D02*
X137947488Y-158436328D01*
X139161774Y-159936328D02*
X139161774Y-158436328D01*
X140018917Y-159936328D02*
X139376060Y-159079185D01*
X140018917Y-158436328D02*
X139161774Y-159293471D01*
X142018917Y-159936328D02*
X141876060Y-159864900D01*
X141876060Y-159864900D02*
X141804631Y-159793471D01*
X141804631Y-159793471D02*
X141733203Y-159650614D01*
X141733203Y-159650614D02*
X141733203Y-159222042D01*
X141733203Y-159222042D02*
X141804631Y-159079185D01*
X141804631Y-159079185D02*
X141876060Y-159007757D01*
X141876060Y-159007757D02*
X142018917Y-158936328D01*
X142018917Y-158936328D02*
X142233203Y-158936328D01*
X142233203Y-158936328D02*
X142376060Y-159007757D01*
X142376060Y-159007757D02*
X142447489Y-159079185D01*
X142447489Y-159079185D02*
X142518917Y-159222042D01*
X142518917Y-159222042D02*
X142518917Y-159650614D01*
X142518917Y-159650614D02*
X142447489Y-159793471D01*
X142447489Y-159793471D02*
X142376060Y-159864900D01*
X142376060Y-159864900D02*
X142233203Y-159936328D01*
X142233203Y-159936328D02*
X142018917Y-159936328D01*
X137733204Y-162279900D02*
X137947490Y-162351328D01*
X137947490Y-162351328D02*
X138304632Y-162351328D01*
X138304632Y-162351328D02*
X138447490Y-162279900D01*
X138447490Y-162279900D02*
X138518918Y-162208471D01*
X138518918Y-162208471D02*
X138590347Y-162065614D01*
X138590347Y-162065614D02*
X138590347Y-161922757D01*
X138590347Y-161922757D02*
X138518918Y-161779900D01*
X138518918Y-161779900D02*
X138447490Y-161708471D01*
X138447490Y-161708471D02*
X138304632Y-161637042D01*
X138304632Y-161637042D02*
X138018918Y-161565614D01*
X138018918Y-161565614D02*
X137876061Y-161494185D01*
X137876061Y-161494185D02*
X137804632Y-161422757D01*
X137804632Y-161422757D02*
X137733204Y-161279900D01*
X137733204Y-161279900D02*
X137733204Y-161137042D01*
X137733204Y-161137042D02*
X137804632Y-160994185D01*
X137804632Y-160994185D02*
X137876061Y-160922757D01*
X137876061Y-160922757D02*
X138018918Y-160851328D01*
X138018918Y-160851328D02*
X138376061Y-160851328D01*
X138376061Y-160851328D02*
X138590347Y-160922757D01*
X139161775Y-162279900D02*
X139376061Y-162351328D01*
X139376061Y-162351328D02*
X139733203Y-162351328D01*
X139733203Y-162351328D02*
X139876061Y-162279900D01*
X139876061Y-162279900D02*
X139947489Y-162208471D01*
X139947489Y-162208471D02*
X140018918Y-162065614D01*
X140018918Y-162065614D02*
X140018918Y-161922757D01*
X140018918Y-161922757D02*
X139947489Y-161779900D01*
X139947489Y-161779900D02*
X139876061Y-161708471D01*
X139876061Y-161708471D02*
X139733203Y-161637042D01*
X139733203Y-161637042D02*
X139447489Y-161565614D01*
X139447489Y-161565614D02*
X139304632Y-161494185D01*
X139304632Y-161494185D02*
X139233203Y-161422757D01*
X139233203Y-161422757D02*
X139161775Y-161279900D01*
X139161775Y-161279900D02*
X139161775Y-161137042D01*
X139161775Y-161137042D02*
X139233203Y-160994185D01*
X139233203Y-160994185D02*
X139304632Y-160922757D01*
X139304632Y-160922757D02*
X139447489Y-160851328D01*
X139447489Y-160851328D02*
X139804632Y-160851328D01*
X139804632Y-160851328D02*
X140018918Y-160922757D01*
X142018917Y-162351328D02*
X141876060Y-162279900D01*
X141876060Y-162279900D02*
X141804631Y-162208471D01*
X141804631Y-162208471D02*
X141733203Y-162065614D01*
X141733203Y-162065614D02*
X141733203Y-161637042D01*
X141733203Y-161637042D02*
X141804631Y-161494185D01*
X141804631Y-161494185D02*
X141876060Y-161422757D01*
X141876060Y-161422757D02*
X142018917Y-161351328D01*
X142018917Y-161351328D02*
X142233203Y-161351328D01*
X142233203Y-161351328D02*
X142376060Y-161422757D01*
X142376060Y-161422757D02*
X142447489Y-161494185D01*
X142447489Y-161494185D02*
X142518917Y-161637042D01*
X142518917Y-161637042D02*
X142518917Y-162065614D01*
X142518917Y-162065614D02*
X142447489Y-162208471D01*
X142447489Y-162208471D02*
X142376060Y-162279900D01*
X142376060Y-162279900D02*
X142233203Y-162351328D01*
X142233203Y-162351328D02*
X142018917Y-162351328D01*
X112666001Y-166504520D02*
X112880287Y-166575948D01*
X112880287Y-166575948D02*
X113237429Y-166575948D01*
X113237429Y-166575948D02*
X113380287Y-166504520D01*
X113380287Y-166504520D02*
X113451715Y-166433091D01*
X113451715Y-166433091D02*
X113523144Y-166290234D01*
X113523144Y-166290234D02*
X113523144Y-166147377D01*
X113523144Y-166147377D02*
X113451715Y-166004520D01*
X113451715Y-166004520D02*
X113380287Y-165933091D01*
X113380287Y-165933091D02*
X113237429Y-165861662D01*
X113237429Y-165861662D02*
X112951715Y-165790234D01*
X112951715Y-165790234D02*
X112808858Y-165718805D01*
X112808858Y-165718805D02*
X112737429Y-165647377D01*
X112737429Y-165647377D02*
X112666001Y-165504520D01*
X112666001Y-165504520D02*
X112666001Y-165361662D01*
X112666001Y-165361662D02*
X112737429Y-165218805D01*
X112737429Y-165218805D02*
X112808858Y-165147377D01*
X112808858Y-165147377D02*
X112951715Y-165075948D01*
X112951715Y-165075948D02*
X113308858Y-165075948D01*
X113308858Y-165075948D02*
X113523144Y-165147377D01*
X114166000Y-166575948D02*
X114166000Y-165075948D01*
X114166000Y-165075948D02*
X114737429Y-165075948D01*
X114737429Y-165075948D02*
X114880286Y-165147377D01*
X114880286Y-165147377D02*
X114951715Y-165218805D01*
X114951715Y-165218805D02*
X115023143Y-165361662D01*
X115023143Y-165361662D02*
X115023143Y-165575948D01*
X115023143Y-165575948D02*
X114951715Y-165718805D01*
X114951715Y-165718805D02*
X114880286Y-165790234D01*
X114880286Y-165790234D02*
X114737429Y-165861662D01*
X114737429Y-165861662D02*
X114166000Y-165861662D01*
X115666000Y-166575948D02*
X115666000Y-165075948D01*
X116380286Y-165790234D02*
X116880286Y-165790234D01*
X117094572Y-166575948D02*
X116380286Y-166575948D01*
X116380286Y-166575948D02*
X116380286Y-165075948D01*
X116380286Y-165075948D02*
X117094572Y-165075948D01*
X117594572Y-165075948D02*
X118594572Y-166575948D01*
X118594572Y-165075948D02*
X117594572Y-166575948D01*
X119451715Y-165075948D02*
X119594572Y-165075948D01*
X119594572Y-165075948D02*
X119737429Y-165147377D01*
X119737429Y-165147377D02*
X119808858Y-165218805D01*
X119808858Y-165218805D02*
X119880286Y-165361662D01*
X119880286Y-165361662D02*
X119951715Y-165647377D01*
X119951715Y-165647377D02*
X119951715Y-166004520D01*
X119951715Y-166004520D02*
X119880286Y-166290234D01*
X119880286Y-166290234D02*
X119808858Y-166433091D01*
X119808858Y-166433091D02*
X119737429Y-166504520D01*
X119737429Y-166504520D02*
X119594572Y-166575948D01*
X119594572Y-166575948D02*
X119451715Y-166575948D01*
X119451715Y-166575948D02*
X119308858Y-166504520D01*
X119308858Y-166504520D02*
X119237429Y-166433091D01*
X119237429Y-166433091D02*
X119166000Y-166290234D01*
X119166000Y-166290234D02*
X119094572Y-166004520D01*
X119094572Y-166004520D02*
X119094572Y-165647377D01*
X119094572Y-165647377D02*
X119166000Y-165361662D01*
X119166000Y-165361662D02*
X119237429Y-165218805D01*
X119237429Y-165218805D02*
X119308858Y-165147377D01*
X119308858Y-165147377D02*
X119451715Y-165075948D01*
X121380286Y-166575948D02*
X120523143Y-166575948D01*
X120951714Y-166575948D02*
X120951714Y-165075948D01*
X120951714Y-165075948D02*
X120808857Y-165290234D01*
X120808857Y-165290234D02*
X120666000Y-165433091D01*
X120666000Y-165433091D02*
X120523143Y-165504520D01*
X121951714Y-166147377D02*
X122666000Y-166147377D01*
X121808857Y-166575948D02*
X122308857Y-165075948D01*
X122308857Y-165075948D02*
X122808857Y-166575948D01*
D11*
X130841999Y-167564128D02*
X130841999Y-166064128D01*
X130841999Y-166064128D02*
X131413428Y-166064128D01*
X131413428Y-166064128D02*
X131556285Y-166135557D01*
X131556285Y-166135557D02*
X131627714Y-166206985D01*
X131627714Y-166206985D02*
X131699142Y-166349842D01*
X131699142Y-166349842D02*
X131699142Y-166564128D01*
X131699142Y-166564128D02*
X131627714Y-166706985D01*
X131627714Y-166706985D02*
X131556285Y-166778414D01*
X131556285Y-166778414D02*
X131413428Y-166849842D01*
X131413428Y-166849842D02*
X130841999Y-166849842D01*
X132199142Y-166064128D02*
X132556285Y-167564128D01*
X132556285Y-167564128D02*
X132841999Y-166492700D01*
X132841999Y-166492700D02*
X133127714Y-167564128D01*
X133127714Y-167564128D02*
X133484857Y-166064128D01*
X134913428Y-167564128D02*
X134413428Y-166849842D01*
X134056285Y-167564128D02*
X134056285Y-166064128D01*
X134056285Y-166064128D02*
X134627714Y-166064128D01*
X134627714Y-166064128D02*
X134770571Y-166135557D01*
X134770571Y-166135557D02*
X134842000Y-166206985D01*
X134842000Y-166206985D02*
X134913428Y-166349842D01*
X134913428Y-166349842D02*
X134913428Y-166564128D01*
X134913428Y-166564128D02*
X134842000Y-166706985D01*
X134842000Y-166706985D02*
X134770571Y-166778414D01*
X134770571Y-166778414D02*
X134627714Y-166849842D01*
X134627714Y-166849842D02*
X134056285Y-166849842D01*
D12*
X130581509Y-173516942D02*
X130581509Y-173802656D01*
X130581509Y-173659799D02*
X130081509Y-173659799D01*
X130081509Y-173659799D02*
X130152938Y-173707418D01*
X130152938Y-173707418D02*
X130200557Y-173755037D01*
X130200557Y-173755037D02*
X130224366Y-173802656D01*
D11*
X117892700Y-159446362D02*
X117964128Y-159232077D01*
X117964128Y-159232077D02*
X117964128Y-158874934D01*
X117964128Y-158874934D02*
X117892700Y-158732077D01*
X117892700Y-158732077D02*
X117821271Y-158660648D01*
X117821271Y-158660648D02*
X117678414Y-158589219D01*
X117678414Y-158589219D02*
X117535557Y-158589219D01*
X117535557Y-158589219D02*
X117392700Y-158660648D01*
X117392700Y-158660648D02*
X117321271Y-158732077D01*
X117321271Y-158732077D02*
X117249842Y-158874934D01*
X117249842Y-158874934D02*
X117178414Y-159160648D01*
X117178414Y-159160648D02*
X117106985Y-159303505D01*
X117106985Y-159303505D02*
X117035557Y-159374934D01*
X117035557Y-159374934D02*
X116892700Y-159446362D01*
X116892700Y-159446362D02*
X116749842Y-159446362D01*
X116749842Y-159446362D02*
X116606985Y-159374934D01*
X116606985Y-159374934D02*
X116535557Y-159303505D01*
X116535557Y-159303505D02*
X116464128Y-159160648D01*
X116464128Y-159160648D02*
X116464128Y-158803505D01*
X116464128Y-158803505D02*
X116535557Y-158589219D01*
X117964128Y-157946363D02*
X116464128Y-157946363D01*
X116464128Y-157946363D02*
X116464128Y-157374934D01*
X116464128Y-157374934D02*
X116535557Y-157232077D01*
X116535557Y-157232077D02*
X116606985Y-157160648D01*
X116606985Y-157160648D02*
X116749842Y-157089220D01*
X116749842Y-157089220D02*
X116964128Y-157089220D01*
X116964128Y-157089220D02*
X117106985Y-157160648D01*
X117106985Y-157160648D02*
X117178414Y-157232077D01*
X117178414Y-157232077D02*
X117249842Y-157374934D01*
X117249842Y-157374934D02*
X117249842Y-157946363D01*
X117964128Y-156446363D02*
X116464128Y-156446363D01*
X117392700Y-155732077D02*
X117392700Y-154589220D01*
X117964128Y-153874934D02*
X116464128Y-153874934D01*
X117964128Y-153160648D02*
X116464128Y-153160648D01*
X116464128Y-153160648D02*
X117964128Y-152303505D01*
X117964128Y-152303505D02*
X116464128Y-152303505D01*
D12*
X110759857Y-153513929D02*
X110474143Y-153513929D01*
X110617000Y-153513929D02*
X110617000Y-153013929D01*
X110617000Y-153013929D02*
X110569381Y-153085358D01*
X110569381Y-153085358D02*
X110521762Y-153132977D01*
X110521762Y-153132977D02*
X110474143Y-153156786D01*
D11*
X130144000Y-140281920D02*
X130358286Y-140353348D01*
X130358286Y-140353348D02*
X130715428Y-140353348D01*
X130715428Y-140353348D02*
X130858286Y-140281920D01*
X130858286Y-140281920D02*
X130929714Y-140210491D01*
X130929714Y-140210491D02*
X131001143Y-140067634D01*
X131001143Y-140067634D02*
X131001143Y-139924777D01*
X131001143Y-139924777D02*
X130929714Y-139781920D01*
X130929714Y-139781920D02*
X130858286Y-139710491D01*
X130858286Y-139710491D02*
X130715428Y-139639062D01*
X130715428Y-139639062D02*
X130429714Y-139567634D01*
X130429714Y-139567634D02*
X130286857Y-139496205D01*
X130286857Y-139496205D02*
X130215428Y-139424777D01*
X130215428Y-139424777D02*
X130144000Y-139281920D01*
X130144000Y-139281920D02*
X130144000Y-139139062D01*
X130144000Y-139139062D02*
X130215428Y-138996205D01*
X130215428Y-138996205D02*
X130286857Y-138924777D01*
X130286857Y-138924777D02*
X130429714Y-138853348D01*
X130429714Y-138853348D02*
X130786857Y-138853348D01*
X130786857Y-138853348D02*
X131001143Y-138924777D01*
X131643999Y-140353348D02*
X131643999Y-138853348D01*
X131643999Y-138853348D02*
X132215428Y-138853348D01*
X132215428Y-138853348D02*
X132358285Y-138924777D01*
X132358285Y-138924777D02*
X132429714Y-138996205D01*
X132429714Y-138996205D02*
X132501142Y-139139062D01*
X132501142Y-139139062D02*
X132501142Y-139353348D01*
X132501142Y-139353348D02*
X132429714Y-139496205D01*
X132429714Y-139496205D02*
X132358285Y-139567634D01*
X132358285Y-139567634D02*
X132215428Y-139639062D01*
X132215428Y-139639062D02*
X131643999Y-139639062D01*
X133143999Y-140353348D02*
X133143999Y-138853348D01*
X133715428Y-138853348D02*
X134644000Y-138853348D01*
X134644000Y-138853348D02*
X134144000Y-139424777D01*
X134144000Y-139424777D02*
X134358285Y-139424777D01*
X134358285Y-139424777D02*
X134501143Y-139496205D01*
X134501143Y-139496205D02*
X134572571Y-139567634D01*
X134572571Y-139567634D02*
X134644000Y-139710491D01*
X134644000Y-139710491D02*
X134644000Y-140067634D01*
X134644000Y-140067634D02*
X134572571Y-140210491D01*
X134572571Y-140210491D02*
X134501143Y-140281920D01*
X134501143Y-140281920D02*
X134358285Y-140353348D01*
X134358285Y-140353348D02*
X133929714Y-140353348D01*
X133929714Y-140353348D02*
X133786857Y-140281920D01*
X133786857Y-140281920D02*
X133715428Y-140210491D01*
D12*
X129615857Y-142943929D02*
X129330143Y-142943929D01*
X129473000Y-142943929D02*
X129473000Y-142443929D01*
X129473000Y-142443929D02*
X129425381Y-142515358D01*
X129425381Y-142515358D02*
X129377762Y-142562977D01*
X129377762Y-142562977D02*
X129330143Y-142586786D01*
D11*
X111134000Y-140329920D02*
X111348286Y-140401348D01*
X111348286Y-140401348D02*
X111705428Y-140401348D01*
X111705428Y-140401348D02*
X111848286Y-140329920D01*
X111848286Y-140329920D02*
X111919714Y-140258491D01*
X111919714Y-140258491D02*
X111991143Y-140115634D01*
X111991143Y-140115634D02*
X111991143Y-139972777D01*
X111991143Y-139972777D02*
X111919714Y-139829920D01*
X111919714Y-139829920D02*
X111848286Y-139758491D01*
X111848286Y-139758491D02*
X111705428Y-139687062D01*
X111705428Y-139687062D02*
X111419714Y-139615634D01*
X111419714Y-139615634D02*
X111276857Y-139544205D01*
X111276857Y-139544205D02*
X111205428Y-139472777D01*
X111205428Y-139472777D02*
X111134000Y-139329920D01*
X111134000Y-139329920D02*
X111134000Y-139187062D01*
X111134000Y-139187062D02*
X111205428Y-139044205D01*
X111205428Y-139044205D02*
X111276857Y-138972777D01*
X111276857Y-138972777D02*
X111419714Y-138901348D01*
X111419714Y-138901348D02*
X111776857Y-138901348D01*
X111776857Y-138901348D02*
X111991143Y-138972777D01*
X112633999Y-140401348D02*
X112633999Y-138901348D01*
X112633999Y-138901348D02*
X113205428Y-138901348D01*
X113205428Y-138901348D02*
X113348285Y-138972777D01*
X113348285Y-138972777D02*
X113419714Y-139044205D01*
X113419714Y-139044205D02*
X113491142Y-139187062D01*
X113491142Y-139187062D02*
X113491142Y-139401348D01*
X113491142Y-139401348D02*
X113419714Y-139544205D01*
X113419714Y-139544205D02*
X113348285Y-139615634D01*
X113348285Y-139615634D02*
X113205428Y-139687062D01*
X113205428Y-139687062D02*
X112633999Y-139687062D01*
X114133999Y-140401348D02*
X114133999Y-138901348D01*
X115134000Y-138901348D02*
X115276857Y-138901348D01*
X115276857Y-138901348D02*
X115419714Y-138972777D01*
X115419714Y-138972777D02*
X115491143Y-139044205D01*
X115491143Y-139044205D02*
X115562571Y-139187062D01*
X115562571Y-139187062D02*
X115634000Y-139472777D01*
X115634000Y-139472777D02*
X115634000Y-139829920D01*
X115634000Y-139829920D02*
X115562571Y-140115634D01*
X115562571Y-140115634D02*
X115491143Y-140258491D01*
X115491143Y-140258491D02*
X115419714Y-140329920D01*
X115419714Y-140329920D02*
X115276857Y-140401348D01*
X115276857Y-140401348D02*
X115134000Y-140401348D01*
X115134000Y-140401348D02*
X114991143Y-140329920D01*
X114991143Y-140329920D02*
X114919714Y-140258491D01*
X114919714Y-140258491D02*
X114848285Y-140115634D01*
X114848285Y-140115634D02*
X114776857Y-139829920D01*
X114776857Y-139829920D02*
X114776857Y-139472777D01*
X114776857Y-139472777D02*
X114848285Y-139187062D01*
X114848285Y-139187062D02*
X114919714Y-139044205D01*
X114919714Y-139044205D02*
X114991143Y-138972777D01*
X114991143Y-138972777D02*
X115134000Y-138901348D01*
D12*
X110605857Y-142991929D02*
X110320143Y-142991929D01*
X110463000Y-142991929D02*
X110463000Y-142491929D01*
X110463000Y-142491929D02*
X110415381Y-142563358D01*
X110415381Y-142563358D02*
X110367762Y-142610977D01*
X110367762Y-142610977D02*
X110320143Y-142634786D01*
D11*
X136494000Y-140281920D02*
X136708286Y-140353348D01*
X136708286Y-140353348D02*
X137065428Y-140353348D01*
X137065428Y-140353348D02*
X137208286Y-140281920D01*
X137208286Y-140281920D02*
X137279714Y-140210491D01*
X137279714Y-140210491D02*
X137351143Y-140067634D01*
X137351143Y-140067634D02*
X137351143Y-139924777D01*
X137351143Y-139924777D02*
X137279714Y-139781920D01*
X137279714Y-139781920D02*
X137208286Y-139710491D01*
X137208286Y-139710491D02*
X137065428Y-139639062D01*
X137065428Y-139639062D02*
X136779714Y-139567634D01*
X136779714Y-139567634D02*
X136636857Y-139496205D01*
X136636857Y-139496205D02*
X136565428Y-139424777D01*
X136565428Y-139424777D02*
X136494000Y-139281920D01*
X136494000Y-139281920D02*
X136494000Y-139139062D01*
X136494000Y-139139062D02*
X136565428Y-138996205D01*
X136565428Y-138996205D02*
X136636857Y-138924777D01*
X136636857Y-138924777D02*
X136779714Y-138853348D01*
X136779714Y-138853348D02*
X137136857Y-138853348D01*
X137136857Y-138853348D02*
X137351143Y-138924777D01*
X137993999Y-140353348D02*
X137993999Y-138853348D01*
X137993999Y-138853348D02*
X138565428Y-138853348D01*
X138565428Y-138853348D02*
X138708285Y-138924777D01*
X138708285Y-138924777D02*
X138779714Y-138996205D01*
X138779714Y-138996205D02*
X138851142Y-139139062D01*
X138851142Y-139139062D02*
X138851142Y-139353348D01*
X138851142Y-139353348D02*
X138779714Y-139496205D01*
X138779714Y-139496205D02*
X138708285Y-139567634D01*
X138708285Y-139567634D02*
X138565428Y-139639062D01*
X138565428Y-139639062D02*
X137993999Y-139639062D01*
X139493999Y-140353348D02*
X139493999Y-138853348D01*
X140851143Y-139353348D02*
X140851143Y-140353348D01*
X140494000Y-138781920D02*
X140136857Y-139853348D01*
X140136857Y-139853348D02*
X141065428Y-139853348D01*
D12*
X135965857Y-142943929D02*
X135680143Y-142943929D01*
X135823000Y-142943929D02*
X135823000Y-142443929D01*
X135823000Y-142443929D02*
X135775381Y-142515358D01*
X135775381Y-142515358D02*
X135727762Y-142562977D01*
X135727762Y-142562977D02*
X135680143Y-142586786D01*
D11*
X117444000Y-140281920D02*
X117658286Y-140353348D01*
X117658286Y-140353348D02*
X118015428Y-140353348D01*
X118015428Y-140353348D02*
X118158286Y-140281920D01*
X118158286Y-140281920D02*
X118229714Y-140210491D01*
X118229714Y-140210491D02*
X118301143Y-140067634D01*
X118301143Y-140067634D02*
X118301143Y-139924777D01*
X118301143Y-139924777D02*
X118229714Y-139781920D01*
X118229714Y-139781920D02*
X118158286Y-139710491D01*
X118158286Y-139710491D02*
X118015428Y-139639062D01*
X118015428Y-139639062D02*
X117729714Y-139567634D01*
X117729714Y-139567634D02*
X117586857Y-139496205D01*
X117586857Y-139496205D02*
X117515428Y-139424777D01*
X117515428Y-139424777D02*
X117444000Y-139281920D01*
X117444000Y-139281920D02*
X117444000Y-139139062D01*
X117444000Y-139139062D02*
X117515428Y-138996205D01*
X117515428Y-138996205D02*
X117586857Y-138924777D01*
X117586857Y-138924777D02*
X117729714Y-138853348D01*
X117729714Y-138853348D02*
X118086857Y-138853348D01*
X118086857Y-138853348D02*
X118301143Y-138924777D01*
X118943999Y-140353348D02*
X118943999Y-138853348D01*
X118943999Y-138853348D02*
X119515428Y-138853348D01*
X119515428Y-138853348D02*
X119658285Y-138924777D01*
X119658285Y-138924777D02*
X119729714Y-138996205D01*
X119729714Y-138996205D02*
X119801142Y-139139062D01*
X119801142Y-139139062D02*
X119801142Y-139353348D01*
X119801142Y-139353348D02*
X119729714Y-139496205D01*
X119729714Y-139496205D02*
X119658285Y-139567634D01*
X119658285Y-139567634D02*
X119515428Y-139639062D01*
X119515428Y-139639062D02*
X118943999Y-139639062D01*
X120443999Y-140353348D02*
X120443999Y-138853348D01*
X121944000Y-140353348D02*
X121086857Y-140353348D01*
X121515428Y-140353348D02*
X121515428Y-138853348D01*
X121515428Y-138853348D02*
X121372571Y-139067634D01*
X121372571Y-139067634D02*
X121229714Y-139210491D01*
X121229714Y-139210491D02*
X121086857Y-139281920D01*
D12*
X116915857Y-142943929D02*
X116630143Y-142943929D01*
X116773000Y-142943929D02*
X116773000Y-142443929D01*
X116773000Y-142443929D02*
X116725381Y-142515358D01*
X116725381Y-142515358D02*
X116677762Y-142562977D01*
X116677762Y-142562977D02*
X116630143Y-142586786D01*
D11*
X142844000Y-140281920D02*
X143058286Y-140353348D01*
X143058286Y-140353348D02*
X143415428Y-140353348D01*
X143415428Y-140353348D02*
X143558286Y-140281920D01*
X143558286Y-140281920D02*
X143629714Y-140210491D01*
X143629714Y-140210491D02*
X143701143Y-140067634D01*
X143701143Y-140067634D02*
X143701143Y-139924777D01*
X143701143Y-139924777D02*
X143629714Y-139781920D01*
X143629714Y-139781920D02*
X143558286Y-139710491D01*
X143558286Y-139710491D02*
X143415428Y-139639062D01*
X143415428Y-139639062D02*
X143129714Y-139567634D01*
X143129714Y-139567634D02*
X142986857Y-139496205D01*
X142986857Y-139496205D02*
X142915428Y-139424777D01*
X142915428Y-139424777D02*
X142844000Y-139281920D01*
X142844000Y-139281920D02*
X142844000Y-139139062D01*
X142844000Y-139139062D02*
X142915428Y-138996205D01*
X142915428Y-138996205D02*
X142986857Y-138924777D01*
X142986857Y-138924777D02*
X143129714Y-138853348D01*
X143129714Y-138853348D02*
X143486857Y-138853348D01*
X143486857Y-138853348D02*
X143701143Y-138924777D01*
X144343999Y-140353348D02*
X144343999Y-138853348D01*
X144343999Y-138853348D02*
X144915428Y-138853348D01*
X144915428Y-138853348D02*
X145058285Y-138924777D01*
X145058285Y-138924777D02*
X145129714Y-138996205D01*
X145129714Y-138996205D02*
X145201142Y-139139062D01*
X145201142Y-139139062D02*
X145201142Y-139353348D01*
X145201142Y-139353348D02*
X145129714Y-139496205D01*
X145129714Y-139496205D02*
X145058285Y-139567634D01*
X145058285Y-139567634D02*
X144915428Y-139639062D01*
X144915428Y-139639062D02*
X144343999Y-139639062D01*
X145843999Y-140353348D02*
X145843999Y-138853348D01*
X147272571Y-138853348D02*
X146558285Y-138853348D01*
X146558285Y-138853348D02*
X146486857Y-139567634D01*
X146486857Y-139567634D02*
X146558285Y-139496205D01*
X146558285Y-139496205D02*
X146701143Y-139424777D01*
X146701143Y-139424777D02*
X147058285Y-139424777D01*
X147058285Y-139424777D02*
X147201143Y-139496205D01*
X147201143Y-139496205D02*
X147272571Y-139567634D01*
X147272571Y-139567634D02*
X147344000Y-139710491D01*
X147344000Y-139710491D02*
X147344000Y-140067634D01*
X147344000Y-140067634D02*
X147272571Y-140210491D01*
X147272571Y-140210491D02*
X147201143Y-140281920D01*
X147201143Y-140281920D02*
X147058285Y-140353348D01*
X147058285Y-140353348D02*
X146701143Y-140353348D01*
X146701143Y-140353348D02*
X146558285Y-140281920D01*
X146558285Y-140281920D02*
X146486857Y-140210491D01*
D12*
X142315857Y-142943929D02*
X142030143Y-142943929D01*
X142173000Y-142943929D02*
X142173000Y-142443929D01*
X142173000Y-142443929D02*
X142125381Y-142515358D01*
X142125381Y-142515358D02*
X142077762Y-142562977D01*
X142077762Y-142562977D02*
X142030143Y-142586786D01*
D11*
X123704000Y-140389920D02*
X123918286Y-140461348D01*
X123918286Y-140461348D02*
X124275428Y-140461348D01*
X124275428Y-140461348D02*
X124418286Y-140389920D01*
X124418286Y-140389920D02*
X124489714Y-140318491D01*
X124489714Y-140318491D02*
X124561143Y-140175634D01*
X124561143Y-140175634D02*
X124561143Y-140032777D01*
X124561143Y-140032777D02*
X124489714Y-139889920D01*
X124489714Y-139889920D02*
X124418286Y-139818491D01*
X124418286Y-139818491D02*
X124275428Y-139747062D01*
X124275428Y-139747062D02*
X123989714Y-139675634D01*
X123989714Y-139675634D02*
X123846857Y-139604205D01*
X123846857Y-139604205D02*
X123775428Y-139532777D01*
X123775428Y-139532777D02*
X123704000Y-139389920D01*
X123704000Y-139389920D02*
X123704000Y-139247062D01*
X123704000Y-139247062D02*
X123775428Y-139104205D01*
X123775428Y-139104205D02*
X123846857Y-139032777D01*
X123846857Y-139032777D02*
X123989714Y-138961348D01*
X123989714Y-138961348D02*
X124346857Y-138961348D01*
X124346857Y-138961348D02*
X124561143Y-139032777D01*
X125203999Y-140461348D02*
X125203999Y-138961348D01*
X125203999Y-138961348D02*
X125775428Y-138961348D01*
X125775428Y-138961348D02*
X125918285Y-139032777D01*
X125918285Y-139032777D02*
X125989714Y-139104205D01*
X125989714Y-139104205D02*
X126061142Y-139247062D01*
X126061142Y-139247062D02*
X126061142Y-139461348D01*
X126061142Y-139461348D02*
X125989714Y-139604205D01*
X125989714Y-139604205D02*
X125918285Y-139675634D01*
X125918285Y-139675634D02*
X125775428Y-139747062D01*
X125775428Y-139747062D02*
X125203999Y-139747062D01*
X126703999Y-140461348D02*
X126703999Y-138961348D01*
X127346857Y-139104205D02*
X127418285Y-139032777D01*
X127418285Y-139032777D02*
X127561143Y-138961348D01*
X127561143Y-138961348D02*
X127918285Y-138961348D01*
X127918285Y-138961348D02*
X128061143Y-139032777D01*
X128061143Y-139032777D02*
X128132571Y-139104205D01*
X128132571Y-139104205D02*
X128204000Y-139247062D01*
X128204000Y-139247062D02*
X128204000Y-139389920D01*
X128204000Y-139389920D02*
X128132571Y-139604205D01*
X128132571Y-139604205D02*
X127275428Y-140461348D01*
X127275428Y-140461348D02*
X128204000Y-140461348D01*
D12*
X123175857Y-143051929D02*
X122890143Y-143051929D01*
X123033000Y-143051929D02*
X123033000Y-142551929D01*
X123033000Y-142551929D02*
X122985381Y-142623358D01*
X122985381Y-142623358D02*
X122937762Y-142670977D01*
X122937762Y-142670977D02*
X122890143Y-142694786D01*
D11*
X149159400Y-140340100D02*
X149373686Y-140411528D01*
X149373686Y-140411528D02*
X149730828Y-140411528D01*
X149730828Y-140411528D02*
X149873686Y-140340100D01*
X149873686Y-140340100D02*
X149945114Y-140268671D01*
X149945114Y-140268671D02*
X150016543Y-140125814D01*
X150016543Y-140125814D02*
X150016543Y-139982957D01*
X150016543Y-139982957D02*
X149945114Y-139840100D01*
X149945114Y-139840100D02*
X149873686Y-139768671D01*
X149873686Y-139768671D02*
X149730828Y-139697242D01*
X149730828Y-139697242D02*
X149445114Y-139625814D01*
X149445114Y-139625814D02*
X149302257Y-139554385D01*
X149302257Y-139554385D02*
X149230828Y-139482957D01*
X149230828Y-139482957D02*
X149159400Y-139340100D01*
X149159400Y-139340100D02*
X149159400Y-139197242D01*
X149159400Y-139197242D02*
X149230828Y-139054385D01*
X149230828Y-139054385D02*
X149302257Y-138982957D01*
X149302257Y-138982957D02*
X149445114Y-138911528D01*
X149445114Y-138911528D02*
X149802257Y-138911528D01*
X149802257Y-138911528D02*
X150016543Y-138982957D01*
X150659399Y-140411528D02*
X150659399Y-138911528D01*
X150659399Y-138911528D02*
X151230828Y-138911528D01*
X151230828Y-138911528D02*
X151373685Y-138982957D01*
X151373685Y-138982957D02*
X151445114Y-139054385D01*
X151445114Y-139054385D02*
X151516542Y-139197242D01*
X151516542Y-139197242D02*
X151516542Y-139411528D01*
X151516542Y-139411528D02*
X151445114Y-139554385D01*
X151445114Y-139554385D02*
X151373685Y-139625814D01*
X151373685Y-139625814D02*
X151230828Y-139697242D01*
X151230828Y-139697242D02*
X150659399Y-139697242D01*
X152159399Y-140411528D02*
X152159399Y-138911528D01*
X153516543Y-138911528D02*
X153230828Y-138911528D01*
X153230828Y-138911528D02*
X153087971Y-138982957D01*
X153087971Y-138982957D02*
X153016543Y-139054385D01*
X153016543Y-139054385D02*
X152873685Y-139268671D01*
X152873685Y-139268671D02*
X152802257Y-139554385D01*
X152802257Y-139554385D02*
X152802257Y-140125814D01*
X152802257Y-140125814D02*
X152873685Y-140268671D01*
X152873685Y-140268671D02*
X152945114Y-140340100D01*
X152945114Y-140340100D02*
X153087971Y-140411528D01*
X153087971Y-140411528D02*
X153373685Y-140411528D01*
X153373685Y-140411528D02*
X153516543Y-140340100D01*
X153516543Y-140340100D02*
X153587971Y-140268671D01*
X153587971Y-140268671D02*
X153659400Y-140125814D01*
X153659400Y-140125814D02*
X153659400Y-139768671D01*
X153659400Y-139768671D02*
X153587971Y-139625814D01*
X153587971Y-139625814D02*
X153516543Y-139554385D01*
X153516543Y-139554385D02*
X153373685Y-139482957D01*
X153373685Y-139482957D02*
X153087971Y-139482957D01*
X153087971Y-139482957D02*
X152945114Y-139554385D01*
X152945114Y-139554385D02*
X152873685Y-139625814D01*
X152873685Y-139625814D02*
X152802257Y-139768671D01*
D12*
X148631257Y-143002109D02*
X148345543Y-143002109D01*
X148488400Y-143002109D02*
X148488400Y-142502109D01*
X148488400Y-142502109D02*
X148440781Y-142573538D01*
X148440781Y-142573538D02*
X148393162Y-142621157D01*
X148393162Y-142621157D02*
X148345543Y-142644966D01*
D11*
%TO.C,J1*%
X129082800Y-173278800D02*
X129082800Y-168198800D01*
X136702800Y-173278800D02*
X129082800Y-173278800D01*
X129082800Y-168198800D02*
X136702800Y-168198800D01*
X136702800Y-168198800D02*
X136702800Y-173278800D01*
%TO.C,P1*%
X110998000Y-152015220D02*
X116078000Y-152015220D01*
X110998000Y-159635220D02*
X110998000Y-152015220D01*
X116078000Y-152015220D02*
X116078000Y-159635220D01*
X116078000Y-159635220D02*
X110998000Y-159635220D01*
%TO.C,P2*%
X129854000Y-141445220D02*
X134934000Y-141445220D01*
X129854000Y-149065220D02*
X129854000Y-141445220D01*
X134934000Y-141445220D02*
X134934000Y-149065220D01*
X134934000Y-149065220D02*
X129854000Y-149065220D01*
%TO.C,P3*%
X110844000Y-141493220D02*
X115924000Y-141493220D01*
X110844000Y-149113220D02*
X110844000Y-141493220D01*
X115924000Y-141493220D02*
X115924000Y-149113220D01*
X115924000Y-149113220D02*
X110844000Y-149113220D01*
%TO.C,P4*%
X136204000Y-141445220D02*
X141284000Y-141445220D01*
X136204000Y-149065220D02*
X136204000Y-141445220D01*
X141284000Y-141445220D02*
X141284000Y-149065220D01*
X141284000Y-149065220D02*
X136204000Y-149065220D01*
%TO.C,P5*%
X117154000Y-141445220D02*
X122234000Y-141445220D01*
X117154000Y-149065220D02*
X117154000Y-141445220D01*
X122234000Y-141445220D02*
X122234000Y-149065220D01*
X122234000Y-149065220D02*
X117154000Y-149065220D01*
%TO.C,P6*%
X142554000Y-141445220D02*
X147634000Y-141445220D01*
X142554000Y-149065220D02*
X142554000Y-141445220D01*
X147634000Y-141445220D02*
X147634000Y-149065220D01*
X147634000Y-149065220D02*
X142554000Y-149065220D01*
%TO.C,P7*%
X123414000Y-141553220D02*
X128494000Y-141553220D01*
X123414000Y-149173220D02*
X123414000Y-141553220D01*
X128494000Y-141553220D02*
X128494000Y-149173220D01*
X128494000Y-149173220D02*
X123414000Y-149173220D01*
%TO.C,P8*%
X148869400Y-141503400D02*
X153949400Y-141503400D01*
X148869400Y-149123400D02*
X148869400Y-141503400D01*
X153949400Y-141503400D02*
X153949400Y-149123400D01*
X153949400Y-149123400D02*
X148869400Y-149123400D01*
%TD*%
D13*
%TO.C,J1*%
X130352800Y-172008800D03*
X130352800Y-169468800D03*
X132892800Y-172008800D03*
X132892800Y-169468800D03*
X135432800Y-172008800D03*
X135432800Y-169468800D03*
%TD*%
%TO.C,P1*%
X112268000Y-153285220D03*
X114808000Y-153285220D03*
X112268000Y-155825220D03*
X114808000Y-155825220D03*
X112268000Y-158365220D03*
X114808000Y-158365220D03*
%TD*%
%TO.C,P2*%
X131124000Y-142715220D03*
X133664000Y-142715220D03*
X131124000Y-145255220D03*
X133664000Y-145255220D03*
X131124000Y-147795220D03*
X133664000Y-147795220D03*
%TD*%
%TO.C,P3*%
X112114000Y-142763220D03*
X114654000Y-142763220D03*
X112114000Y-145303220D03*
X114654000Y-145303220D03*
X112114000Y-147843220D03*
X114654000Y-147843220D03*
%TD*%
%TO.C,P4*%
X137474000Y-142715220D03*
X140014000Y-142715220D03*
X137474000Y-145255220D03*
X140014000Y-145255220D03*
X137474000Y-147795220D03*
X140014000Y-147795220D03*
%TD*%
%TO.C,P5*%
X118424000Y-142715220D03*
X120964000Y-142715220D03*
X118424000Y-145255220D03*
X120964000Y-145255220D03*
X118424000Y-147795220D03*
X120964000Y-147795220D03*
%TD*%
%TO.C,P6*%
X143824000Y-142715220D03*
X146364000Y-142715220D03*
X143824000Y-145255220D03*
X146364000Y-145255220D03*
X143824000Y-147795220D03*
X146364000Y-147795220D03*
%TD*%
%TO.C,P7*%
X124684000Y-142823220D03*
X127224000Y-142823220D03*
X124684000Y-145363220D03*
X127224000Y-145363220D03*
X124684000Y-147903220D03*
X127224000Y-147903220D03*
%TD*%
%TO.C,P8*%
X150139400Y-142773400D03*
X152679400Y-142773400D03*
X150139400Y-145313400D03*
X152679400Y-145313400D03*
X150139400Y-147853400D03*
X152679400Y-147853400D03*
%TD*%
M02*
