%TF.GenerationSoftware,KiCad,Pcbnew,7.0.11+1*%
%TF.CreationDate,2024-07-03T20:29:20+00:00*%
%TF.ProjectId,SPIEX01,53504945-5830-4312-9e6b-696361645f70,rev?*%
%TF.SameCoordinates,Original*%
%TF.FileFunction,Soldermask,Top*%
%TF.FilePolarity,Negative*%
%FSLAX46Y46*%
G04 Gerber Fmt 4.6, Leading zero omitted, Abs format (unit mm)*
G04 Created by KiCad (PCBNEW 7.0.11+1) date 2024-07-03 20:29:20*
%MOMM*%
%LPD*%
G01*
G04 APERTURE LIST*
G04 Aperture macros list*
%AMRoundRect*
0 Rectangle with rounded corners*
0 $1 Rounding radius*
0 $2 $3 $4 $5 $6 $7 $8 $9 X,Y pos of 4 corners*
0 Add a 4 corners polygon primitive as box body*
4,1,4,$2,$3,$4,$5,$6,$7,$8,$9,$2,$3,0*
0 Add four circle primitives for the rounded corners*
1,1,$1+$1,$2,$3*
1,1,$1+$1,$4,$5*
1,1,$1+$1,$6,$7*
1,1,$1+$1,$8,$9*
0 Add four rect primitives between the rounded corners*
20,1,$1+$1,$2,$3,$4,$5,0*
20,1,$1+$1,$4,$5,$6,$7,0*
20,1,$1+$1,$6,$7,$8,$9,0*
20,1,$1+$1,$8,$9,$2,$3,0*%
G04 Aperture macros list end*
%ADD10RoundRect,0.200000X0.762000X-0.762000X0.762000X0.762000X-0.762000X0.762000X-0.762000X-0.762000X0*%
%ADD11RoundRect,0.200000X-0.762000X-0.762000X0.762000X-0.762000X0.762000X0.762000X-0.762000X0.762000X0*%
%ADD12C,3.400000*%
G04 APERTURE END LIST*
D10*
%TO.C,J1*%
X130352800Y-172008800D03*
X130352800Y-169468800D03*
X132892800Y-172008800D03*
X132892800Y-169468800D03*
X135432800Y-172008800D03*
X135432800Y-169468800D03*
%TD*%
D11*
%TO.C,P1*%
X112268000Y-153285220D03*
X114808000Y-153285220D03*
X112268000Y-155825220D03*
X114808000Y-155825220D03*
X112268000Y-158365220D03*
X114808000Y-158365220D03*
%TD*%
%TO.C,P2*%
X131124000Y-142715220D03*
X133664000Y-142715220D03*
X131124000Y-145255220D03*
X133664000Y-145255220D03*
X131124000Y-147795220D03*
X133664000Y-147795220D03*
%TD*%
%TO.C,P3*%
X112114000Y-142763220D03*
X114654000Y-142763220D03*
X112114000Y-145303220D03*
X114654000Y-145303220D03*
X112114000Y-147843220D03*
X114654000Y-147843220D03*
%TD*%
%TO.C,P4*%
X137474000Y-142715220D03*
X140014000Y-142715220D03*
X137474000Y-145255220D03*
X140014000Y-145255220D03*
X137474000Y-147795220D03*
X140014000Y-147795220D03*
%TD*%
%TO.C,P5*%
X118424000Y-142715220D03*
X120964000Y-142715220D03*
X118424000Y-145255220D03*
X120964000Y-145255220D03*
X118424000Y-147795220D03*
X120964000Y-147795220D03*
%TD*%
%TO.C,P6*%
X143824000Y-142715220D03*
X146364000Y-142715220D03*
X143824000Y-145255220D03*
X146364000Y-145255220D03*
X143824000Y-147795220D03*
X146364000Y-147795220D03*
%TD*%
%TO.C,P7*%
X124684000Y-142823220D03*
X127224000Y-142823220D03*
X124684000Y-145363220D03*
X127224000Y-145363220D03*
X124684000Y-147903220D03*
X127224000Y-147903220D03*
%TD*%
%TO.C,P8*%
X150139400Y-142773400D03*
X152679400Y-142773400D03*
X150139400Y-145313400D03*
X152679400Y-145313400D03*
X150139400Y-147853400D03*
X152679400Y-147853400D03*
%TD*%
D12*
%TO.C,P10*%
X111760000Y-172720000D03*
%TD*%
%TO.C,P11*%
X152400000Y-172720000D03*
%TD*%
%TO.C,P12*%
X111760000Y-132080000D03*
%TD*%
%TO.C,P13*%
X152400000Y-132080000D03*
%TD*%
M02*
