%TF.GenerationSoftware,KiCad,Pcbnew,7.0.11+1*%
%TF.CreationDate,2024-07-03T20:29:20+00:00*%
%TF.ProjectId,SPIEX01,53504945-5830-4312-9e6b-696361645f70,rev?*%
%TF.SameCoordinates,Original*%
%TF.FileFunction,Copper,L1,Top*%
%TF.FilePolarity,Positive*%
%FSLAX46Y46*%
G04 Gerber Fmt 4.6, Leading zero omitted, Abs format (unit mm)*
G04 Created by KiCad (PCBNEW 7.0.11+1) date 2024-07-03 20:29:20*
%MOMM*%
%LPD*%
G01*
G04 APERTURE LIST*
%TA.AperFunction,ComponentPad*%
%ADD10R,1.524000X1.524000*%
%TD*%
%TA.AperFunction,ViaPad*%
%ADD11C,0.800000*%
%TD*%
%TA.AperFunction,Conductor*%
%ADD12C,0.400000*%
%TD*%
G04 APERTURE END LIST*
D10*
%TO.P,J1,1*%
%TO.N,GND*%
X130352800Y-172008800D03*
%TO.P,J1,2*%
X130352800Y-169468800D03*
%TO.P,J1,3*%
%TO.N,VCC*%
X132892800Y-172008800D03*
%TO.P,J1,4*%
X132892800Y-169468800D03*
%TO.P,J1,5*%
%TO.N,GND*%
X135432800Y-172008800D03*
%TO.P,J1,6*%
X135432800Y-169468800D03*
%TD*%
%TO.P,P1,1*%
%TO.N,/MISO-OUT*%
X112268000Y-153285220D03*
%TO.P,P1,2*%
%TO.N,VCC*%
X114808000Y-153285220D03*
%TO.P,P1,3*%
%TO.N,/CLK-IN*%
X112268000Y-155825220D03*
%TO.P,P1,4*%
%TO.N,/MOSI-IN*%
X114808000Y-155825220D03*
%TO.P,P1,5*%
%TO.N,/SS-IN*%
X112268000Y-158365220D03*
%TO.P,P1,6*%
%TO.N,GND*%
X114808000Y-158365220D03*
%TD*%
%TO.P,P2,1*%
%TO.N,/MISO*%
X131124000Y-142715220D03*
%TO.P,P2,2*%
%TO.N,VCC*%
X133664000Y-142715220D03*
%TO.P,P2,3*%
%TO.N,/CLK*%
X131124000Y-145255220D03*
%TO.P,P2,4*%
%TO.N,/MOSI*%
X133664000Y-145255220D03*
%TO.P,P2,5*%
%TO.N,/SS3*%
X131124000Y-147795220D03*
%TO.P,P2,6*%
%TO.N,GND*%
X133664000Y-147795220D03*
%TD*%
%TO.P,P3,1*%
%TO.N,/MISO*%
X112114000Y-142763220D03*
%TO.P,P3,2*%
%TO.N,VCC*%
X114654000Y-142763220D03*
%TO.P,P3,3*%
%TO.N,/CLK*%
X112114000Y-145303220D03*
%TO.P,P3,4*%
%TO.N,/MOSI*%
X114654000Y-145303220D03*
%TO.P,P3,5*%
%TO.N,/SS0*%
X112114000Y-147843220D03*
%TO.P,P3,6*%
%TO.N,GND*%
X114654000Y-147843220D03*
%TD*%
%TO.P,P4,1*%
%TO.N,/MISO*%
X137474000Y-142715220D03*
%TO.P,P4,2*%
%TO.N,VCC*%
X140014000Y-142715220D03*
%TO.P,P4,3*%
%TO.N,/CLK*%
X137474000Y-145255220D03*
%TO.P,P4,4*%
%TO.N,/MOSI*%
X140014000Y-145255220D03*
%TO.P,P4,5*%
%TO.N,/SS4*%
X137474000Y-147795220D03*
%TO.P,P4,6*%
%TO.N,GND*%
X140014000Y-147795220D03*
%TD*%
%TO.P,P5,1*%
%TO.N,/MISO*%
X118424000Y-142715220D03*
%TO.P,P5,2*%
%TO.N,VCC*%
X120964000Y-142715220D03*
%TO.P,P5,3*%
%TO.N,/CLK*%
X118424000Y-145255220D03*
%TO.P,P5,4*%
%TO.N,/MOSI*%
X120964000Y-145255220D03*
%TO.P,P5,5*%
%TO.N,/SS1*%
X118424000Y-147795220D03*
%TO.P,P5,6*%
%TO.N,GND*%
X120964000Y-147795220D03*
%TD*%
%TO.P,P6,1*%
%TO.N,/MISO*%
X143824000Y-142715220D03*
%TO.P,P6,2*%
%TO.N,VCC*%
X146364000Y-142715220D03*
%TO.P,P6,3*%
%TO.N,/CLK*%
X143824000Y-145255220D03*
%TO.P,P6,4*%
%TO.N,/MOSI*%
X146364000Y-145255220D03*
%TO.P,P6,5*%
%TO.N,/SS5*%
X143824000Y-147795220D03*
%TO.P,P6,6*%
%TO.N,GND*%
X146364000Y-147795220D03*
%TD*%
%TO.P,P7,1*%
%TO.N,/MISO*%
X124684000Y-142823220D03*
%TO.P,P7,2*%
%TO.N,VCC*%
X127224000Y-142823220D03*
%TO.P,P7,3*%
%TO.N,/CLK*%
X124684000Y-145363220D03*
%TO.P,P7,4*%
%TO.N,/MOSI*%
X127224000Y-145363220D03*
%TO.P,P7,5*%
%TO.N,/SS2*%
X124684000Y-147903220D03*
%TO.P,P7,6*%
%TO.N,GND*%
X127224000Y-147903220D03*
%TD*%
%TO.P,P8,1*%
%TO.N,/MISO*%
X150139400Y-142773400D03*
%TO.P,P8,2*%
%TO.N,VCC*%
X152679400Y-142773400D03*
%TO.P,P8,3*%
%TO.N,/CLK*%
X150139400Y-145313400D03*
%TO.P,P8,4*%
%TO.N,/MOSI*%
X152679400Y-145313400D03*
%TO.P,P8,5*%
%TO.N,/SS6*%
X150139400Y-147853400D03*
%TO.P,P8,6*%
%TO.N,GND*%
X152679400Y-147853400D03*
%TD*%
D11*
%TO.N,VCC*%
X133604000Y-137922000D03*
X114808000Y-137922000D03*
X120904000Y-137922000D03*
X147399961Y-159903212D03*
X151317000Y-160876220D03*
X146354800Y-137937998D03*
X139954000Y-137922000D03*
X125730000Y-155956000D03*
X152654000Y-138176008D03*
X127228600Y-137937990D03*
%TO.N,GND*%
X114808000Y-161036000D03*
X121894600Y-161721800D03*
X147534000Y-152325220D03*
X152900002Y-158525220D03*
X139234000Y-154925220D03*
%TO.N,Net-(U1-Pad2)*%
X131759000Y-156177220D03*
X138108303Y-158583524D03*
%TO.N,/MOSI*%
X135016990Y-139972957D03*
X147843990Y-139954000D03*
X141351000Y-139954000D03*
X122301000Y-139954000D03*
X128651000Y-139954000D03*
X144586000Y-158717220D03*
X116078000Y-139954000D03*
X123189996Y-162306000D03*
%TO.N,/CLK*%
X136017000Y-138938000D03*
X129667000Y-138938000D03*
X110744000Y-138937990D03*
X142367000Y-138938008D03*
X123317000Y-138937994D03*
X117094000Y-138938000D03*
X148795482Y-139097484D03*
%TO.N,/CLK-IN*%
X119380000Y-152908000D03*
%TO.N,/SS-IN*%
X123190000Y-156000010D03*
%TD*%
D12*
%TO.N,VCC*%
X152679400Y-142773400D02*
X152679400Y-138201408D01*
X146364000Y-137947198D02*
X146354800Y-137937998D01*
X150343992Y-159903212D02*
X147965646Y-159903212D01*
X147965646Y-159903212D02*
X147399961Y-159903212D01*
X140014000Y-137982000D02*
X139954000Y-137922000D01*
X151317000Y-160876220D02*
X150343992Y-159903212D01*
X127224000Y-142823220D02*
X127224000Y-137942590D01*
X115970000Y-153285220D02*
X117684780Y-155000000D01*
X140014000Y-142715220D02*
X140014000Y-137982000D01*
X152679400Y-138201408D02*
X152654000Y-138176008D01*
X133664000Y-137982000D02*
X133604000Y-137922000D01*
X127224000Y-137942590D02*
X127228600Y-137937990D01*
X117684780Y-155000000D02*
X124774000Y-155000000D01*
X146364000Y-142715220D02*
X146364000Y-137947198D01*
X114808000Y-153285220D02*
X115970000Y-153285220D01*
X114654000Y-138076000D02*
X114808000Y-137922000D01*
X120964000Y-142715220D02*
X120964000Y-137982000D01*
X133664000Y-142715220D02*
X133664000Y-137982000D01*
X114654000Y-142763220D02*
X114654000Y-138076000D01*
X124774000Y-155000000D02*
X125730000Y-155956000D01*
X120964000Y-137982000D02*
X120904000Y-137922000D01*
%TO.N,Net-(U1-Pad2)*%
X135701999Y-156177220D02*
X137708304Y-158183525D01*
X137708304Y-158183525D02*
X138108303Y-158583524D01*
X131759000Y-156177220D02*
X135701999Y-156177220D01*
%TO.N,/MOSI*%
X128651000Y-140519685D02*
X128651000Y-139954000D01*
X140014000Y-145255220D02*
X141176000Y-145255220D01*
X116078000Y-140519685D02*
X116078000Y-139954000D01*
X116078000Y-145041220D02*
X116078000Y-140519685D01*
X135128000Y-140649652D02*
X135016990Y-140538642D01*
X115816000Y-145303220D02*
X116078000Y-145041220D01*
X128386000Y-145363220D02*
X128651000Y-145098220D01*
X147955000Y-140630695D02*
X147843990Y-140519685D01*
X146364000Y-145255220D02*
X147526000Y-145255220D01*
X141376400Y-145054820D02*
X141376400Y-140545085D01*
X127224000Y-145363220D02*
X128386000Y-145363220D01*
X122301000Y-140519685D02*
X122301000Y-139954000D01*
X122326400Y-145054820D02*
X122326400Y-140545085D01*
X141176000Y-145255220D02*
X141376400Y-145054820D01*
X147955000Y-144826220D02*
X147955000Y-140630695D01*
X114654000Y-145303220D02*
X115816000Y-145303220D01*
X123501685Y-162306000D02*
X123189996Y-162306000D01*
X122126000Y-145255220D02*
X122326400Y-145054820D01*
X141351000Y-140519685D02*
X141351000Y-139954000D01*
X147843990Y-140519685D02*
X147843990Y-139954000D01*
X147526000Y-145255220D02*
X147955000Y-144826220D01*
X133664000Y-145255220D02*
X134826000Y-145255220D01*
X144586000Y-158717220D02*
X140997220Y-162306000D01*
X122326400Y-140545085D02*
X122301000Y-140519685D01*
X140997220Y-162306000D02*
X123501685Y-162306000D01*
X134826000Y-145255220D02*
X135128000Y-144953220D01*
X128651000Y-145098220D02*
X128651000Y-140519685D01*
X141376400Y-140545085D02*
X141351000Y-140519685D01*
X135016990Y-140538642D02*
X135016990Y-139972957D01*
X135128000Y-144953220D02*
X135128000Y-140649652D01*
X120964000Y-145255220D02*
X122126000Y-145255220D01*
%TO.N,/CLK*%
X124684000Y-145363220D02*
X123522000Y-145363220D01*
X129667000Y-139503685D02*
X129667000Y-138938000D01*
X117061999Y-145055219D02*
X117061999Y-140577003D01*
X118424000Y-145255220D02*
X117262000Y-145255220D01*
X136312000Y-145255220D02*
X135991600Y-144934820D01*
X117094000Y-140545002D02*
X117094000Y-139503685D01*
X129667000Y-140418002D02*
X129667000Y-139503685D01*
X129962000Y-145255220D02*
X129641600Y-144934820D01*
X143824000Y-145255220D02*
X142662000Y-145255220D01*
X142367000Y-139503693D02*
X142367000Y-138938008D01*
X148777366Y-144777366D02*
X148777366Y-140611638D01*
X117262000Y-145255220D02*
X117061999Y-145055219D01*
X129641600Y-140443402D02*
X129667000Y-140418002D01*
X110744000Y-139503675D02*
X110744000Y-138937990D01*
X123317000Y-139503679D02*
X123317000Y-138937994D01*
X148844000Y-140545004D02*
X148844000Y-139146002D01*
X136017000Y-140672002D02*
X136017000Y-139573000D01*
X117094000Y-139503685D02*
X117094000Y-138938000D01*
X112114000Y-145303220D02*
X110952000Y-145303220D01*
X142367000Y-144960220D02*
X142367000Y-139503693D01*
X149954000Y-145323220D02*
X149323220Y-145323220D01*
X148844000Y-139146002D02*
X148795482Y-139097484D01*
X117061999Y-140577003D02*
X117094000Y-140545002D01*
X129641600Y-144934820D02*
X129641600Y-140443402D01*
X135991600Y-140697402D02*
X136017000Y-140672002D01*
X136017000Y-139573000D02*
X136017000Y-138938000D01*
X135991600Y-144934820D02*
X135991600Y-140697402D01*
X148777366Y-140611638D02*
X148844000Y-140545004D01*
X110744000Y-145095220D02*
X110744000Y-139503675D01*
X123317000Y-145158220D02*
X123317000Y-139503679D01*
X137474000Y-145255220D02*
X136312000Y-145255220D01*
X131124000Y-145255220D02*
X129962000Y-145255220D01*
X123522000Y-145363220D02*
X123317000Y-145158220D01*
X142662000Y-145255220D02*
X142367000Y-144960220D01*
X110952000Y-145303220D02*
X110744000Y-145095220D01*
X149323220Y-145323220D02*
X148777366Y-144777366D01*
%TO.N,/CLK-IN*%
X112268000Y-155825220D02*
X111106000Y-155825220D01*
X111106000Y-155825220D02*
X110905999Y-155625219D01*
X118980001Y-152508001D02*
X119380000Y-152908000D01*
X111920818Y-151028400D02*
X117500400Y-151028400D01*
X117500400Y-151028400D02*
X118980001Y-152508001D01*
X110905999Y-155625219D02*
X110905999Y-152043219D01*
X110905999Y-152043219D02*
X111920818Y-151028400D01*
%TO.N,/SS-IN*%
X112268000Y-159527220D02*
X112468001Y-159727221D01*
X116170001Y-159607221D02*
X116170001Y-157829999D01*
X117999990Y-156000010D02*
X122624315Y-156000010D01*
X112268000Y-158365220D02*
X112268000Y-159527220D01*
X122624315Y-156000010D02*
X123190000Y-156000010D01*
X112468001Y-159727221D02*
X116050001Y-159727221D01*
X116050001Y-159727221D02*
X116170001Y-159607221D01*
X116170001Y-157829999D02*
X117999990Y-156000010D01*
%TD*%
%TA.AperFunction,Conductor*%
%TO.N,GND*%
G36*
X113627096Y-156878291D02*
G01*
X113638868Y-156891877D01*
X113682738Y-156950481D01*
X113799792Y-157038107D01*
X113799794Y-157038108D01*
X113799796Y-157038109D01*
X113858875Y-157060144D01*
X113936795Y-157089208D01*
X113936803Y-157089210D01*
X113997350Y-157095719D01*
X113997355Y-157095719D01*
X113997362Y-157095720D01*
X113997368Y-157095720D01*
X115598119Y-157095720D01*
X115666240Y-157115722D01*
X115712733Y-157169378D01*
X115722837Y-157239652D01*
X115693343Y-157304232D01*
X115687089Y-157310940D01*
X115686732Y-157311296D01*
X115681317Y-157316387D01*
X115635785Y-157356725D01*
X115601238Y-157406773D01*
X115596732Y-157412897D01*
X115559229Y-157460768D01*
X115559223Y-157460778D01*
X115555036Y-157470079D01*
X115543847Y-157489920D01*
X115538046Y-157498325D01*
X115516483Y-157555182D01*
X115513571Y-157562210D01*
X115488614Y-157617664D01*
X115488610Y-157617677D01*
X115486771Y-157627710D01*
X115480652Y-157649660D01*
X115477035Y-157659198D01*
X115469706Y-157719553D01*
X115468562Y-157727070D01*
X115457599Y-157786905D01*
X115461271Y-157847607D01*
X115461501Y-157855215D01*
X115461501Y-158892721D01*
X115441499Y-158960842D01*
X115387843Y-159007335D01*
X115335501Y-159018721D01*
X113664500Y-159018721D01*
X113596379Y-158998719D01*
X113549886Y-158945063D01*
X113538500Y-158892721D01*
X113538500Y-157554587D01*
X113538499Y-157554570D01*
X113531990Y-157494023D01*
X113531988Y-157494015D01*
X113480889Y-157357017D01*
X113480887Y-157357012D01*
X113393261Y-157239958D01*
X113334657Y-157196088D01*
X113292110Y-157139252D01*
X113287046Y-157068436D01*
X113321071Y-157006124D01*
X113334657Y-156994352D01*
X113393261Y-156950481D01*
X113437132Y-156891877D01*
X113493968Y-156849330D01*
X113564784Y-156844266D01*
X113627096Y-156878291D01*
G37*
%TD.AperFunction*%
%TA.AperFunction,Conductor*%
G36*
X157092621Y-127349502D02*
G01*
X157139114Y-127403158D01*
X157150500Y-127455500D01*
X157150500Y-177344500D01*
X157130498Y-177412621D01*
X157076842Y-177459114D01*
X157024500Y-177470500D01*
X107135500Y-177470500D01*
X107067379Y-177450498D01*
X107020886Y-177396842D01*
X107009500Y-177344500D01*
X107009500Y-172851182D01*
X110009500Y-172851182D01*
X110031224Y-172995311D01*
X110048604Y-173110619D01*
X110125933Y-173361314D01*
X110125938Y-173361327D01*
X110239773Y-173597706D01*
X110239777Y-173597713D01*
X110387562Y-173814472D01*
X110387567Y-173814479D01*
X110566019Y-174006805D01*
X110771143Y-174170386D01*
X110771146Y-174170388D01*
X110998352Y-174301566D01*
X110998356Y-174301567D01*
X110998357Y-174301568D01*
X111242584Y-174397420D01*
X111498370Y-174455802D01*
X111694506Y-174470500D01*
X111694507Y-174470500D01*
X111825493Y-174470500D01*
X111825494Y-174470500D01*
X112021630Y-174455802D01*
X112277416Y-174397420D01*
X112521643Y-174301568D01*
X112521645Y-174301566D01*
X112521647Y-174301566D01*
X112635250Y-174235977D01*
X112748857Y-174170386D01*
X112953981Y-174006805D01*
X113132433Y-173814479D01*
X113280228Y-173597704D01*
X113394063Y-173361323D01*
X113421372Y-173272789D01*
X113471395Y-173110619D01*
X113485505Y-173017007D01*
X113510500Y-172851182D01*
X113510500Y-172819449D01*
X131622300Y-172819449D01*
X131628809Y-172879996D01*
X131628811Y-172880004D01*
X131679910Y-173017002D01*
X131679912Y-173017007D01*
X131767538Y-173134061D01*
X131884592Y-173221687D01*
X131884594Y-173221688D01*
X131884596Y-173221689D01*
X131943675Y-173243724D01*
X132021595Y-173272788D01*
X132021603Y-173272790D01*
X132082150Y-173279299D01*
X132082155Y-173279299D01*
X132082162Y-173279300D01*
X132082168Y-173279300D01*
X133703432Y-173279300D01*
X133703438Y-173279300D01*
X133703445Y-173279299D01*
X133703449Y-173279299D01*
X133763996Y-173272790D01*
X133763999Y-173272789D01*
X133764001Y-173272789D01*
X133901004Y-173221689D01*
X134018061Y-173134061D01*
X134105689Y-173017004D01*
X134156789Y-172880001D01*
X134159888Y-172851182D01*
X150649500Y-172851182D01*
X150671224Y-172995311D01*
X150688604Y-173110619D01*
X150765933Y-173361314D01*
X150765938Y-173361327D01*
X150879773Y-173597706D01*
X150879777Y-173597713D01*
X151027562Y-173814472D01*
X151027567Y-173814479D01*
X151206019Y-174006805D01*
X151411143Y-174170386D01*
X151411146Y-174170388D01*
X151638352Y-174301566D01*
X151638356Y-174301567D01*
X151638357Y-174301568D01*
X151882584Y-174397420D01*
X152138370Y-174455802D01*
X152334506Y-174470500D01*
X152334507Y-174470500D01*
X152465493Y-174470500D01*
X152465494Y-174470500D01*
X152661630Y-174455802D01*
X152917416Y-174397420D01*
X153161643Y-174301568D01*
X153161645Y-174301566D01*
X153161647Y-174301566D01*
X153275250Y-174235977D01*
X153388857Y-174170386D01*
X153593981Y-174006805D01*
X153772433Y-173814479D01*
X153920228Y-173597704D01*
X154034063Y-173361323D01*
X154061372Y-173272789D01*
X154111395Y-173110619D01*
X154125505Y-173017007D01*
X154150500Y-172851182D01*
X154150500Y-172588818D01*
X154111396Y-172329385D01*
X154111395Y-172329383D01*
X154111395Y-172329380D01*
X154034066Y-172078685D01*
X154034061Y-172078672D01*
X153985854Y-171978570D01*
X153920228Y-171842296D01*
X153920226Y-171842293D01*
X153920222Y-171842286D01*
X153772437Y-171625527D01*
X153772433Y-171625521D01*
X153593981Y-171433195D01*
X153388857Y-171269614D01*
X153388852Y-171269611D01*
X153388853Y-171269611D01*
X153161647Y-171138433D01*
X153161639Y-171138430D01*
X152917419Y-171042581D01*
X152917417Y-171042580D01*
X152661633Y-170984198D01*
X152514528Y-170973174D01*
X152465494Y-170969500D01*
X152334506Y-170969500D01*
X152295278Y-170972439D01*
X152138366Y-170984198D01*
X151882582Y-171042580D01*
X151882580Y-171042581D01*
X151638360Y-171138430D01*
X151638352Y-171138433D01*
X151411146Y-171269611D01*
X151206018Y-171433195D01*
X151027566Y-171625522D01*
X151027562Y-171625527D01*
X150879777Y-171842286D01*
X150879773Y-171842293D01*
X150765938Y-172078672D01*
X150765933Y-172078685D01*
X150688604Y-172329380D01*
X150666879Y-172473514D01*
X150649500Y-172588818D01*
X150649500Y-172851182D01*
X134159888Y-172851182D01*
X134163299Y-172819449D01*
X134163300Y-172819432D01*
X134163300Y-171198167D01*
X134163299Y-171198150D01*
X134156790Y-171137603D01*
X134156788Y-171137595D01*
X134105689Y-171000597D01*
X134105687Y-171000592D01*
X134018061Y-170883538D01*
X133959457Y-170839668D01*
X133916910Y-170782832D01*
X133911846Y-170712016D01*
X133945871Y-170649704D01*
X133959457Y-170637932D01*
X134018061Y-170594061D01*
X134105687Y-170477007D01*
X134105687Y-170477006D01*
X134105689Y-170477004D01*
X134156789Y-170340001D01*
X134163300Y-170279438D01*
X134163300Y-168658162D01*
X134163299Y-168658150D01*
X134156790Y-168597603D01*
X134156788Y-168597595D01*
X134105689Y-168460597D01*
X134105687Y-168460592D01*
X134018061Y-168343538D01*
X133901007Y-168255912D01*
X133901002Y-168255910D01*
X133764004Y-168204811D01*
X133763996Y-168204809D01*
X133703449Y-168198300D01*
X133703438Y-168198300D01*
X132082162Y-168198300D01*
X132082150Y-168198300D01*
X132021603Y-168204809D01*
X132021595Y-168204811D01*
X131884597Y-168255910D01*
X131884592Y-168255912D01*
X131767538Y-168343538D01*
X131679912Y-168460592D01*
X131679910Y-168460597D01*
X131628811Y-168597595D01*
X131628809Y-168597603D01*
X131622300Y-168658150D01*
X131622300Y-170279449D01*
X131628809Y-170339996D01*
X131628811Y-170340004D01*
X131679910Y-170477002D01*
X131679912Y-170477007D01*
X131767539Y-170594061D01*
X131826143Y-170637933D01*
X131868689Y-170694769D01*
X131873753Y-170765584D01*
X131839728Y-170827896D01*
X131826143Y-170839667D01*
X131767539Y-170883538D01*
X131679912Y-171000592D01*
X131679910Y-171000597D01*
X131628811Y-171137595D01*
X131628809Y-171137603D01*
X131622300Y-171198150D01*
X131622300Y-172819449D01*
X113510500Y-172819449D01*
X113510500Y-172588818D01*
X113471396Y-172329385D01*
X113471395Y-172329383D01*
X113471395Y-172329380D01*
X113394066Y-172078685D01*
X113394061Y-172078672D01*
X113345854Y-171978570D01*
X113280228Y-171842296D01*
X113280226Y-171842293D01*
X113280222Y-171842286D01*
X113132437Y-171625527D01*
X113132433Y-171625521D01*
X112953981Y-171433195D01*
X112748857Y-171269614D01*
X112748852Y-171269611D01*
X112748853Y-171269611D01*
X112521647Y-171138433D01*
X112521639Y-171138430D01*
X112277419Y-171042581D01*
X112277417Y-171042580D01*
X112021633Y-170984198D01*
X111874528Y-170973174D01*
X111825494Y-170969500D01*
X111694506Y-170969500D01*
X111655278Y-170972439D01*
X111498366Y-170984198D01*
X111242582Y-171042580D01*
X111242580Y-171042581D01*
X110998360Y-171138430D01*
X110998352Y-171138433D01*
X110771146Y-171269611D01*
X110566018Y-171433195D01*
X110387566Y-171625522D01*
X110387562Y-171625527D01*
X110239777Y-171842286D01*
X110239773Y-171842293D01*
X110125938Y-172078672D01*
X110125933Y-172078685D01*
X110048604Y-172329380D01*
X110026879Y-172473514D01*
X110009500Y-172588818D01*
X110009500Y-172851182D01*
X107009500Y-172851182D01*
X107009500Y-162306000D01*
X122276492Y-162306000D01*
X122296453Y-162495927D01*
X122326522Y-162588470D01*
X122355469Y-162677556D01*
X122355472Y-162677561D01*
X122450954Y-162842941D01*
X122450961Y-162842951D01*
X122578740Y-162984864D01*
X122619814Y-163014706D01*
X122733244Y-163097118D01*
X122907708Y-163174794D01*
X123094509Y-163214500D01*
X123285483Y-163214500D01*
X123472284Y-163174794D01*
X123646748Y-163097118D01*
X123727340Y-163038563D01*
X123794208Y-163014706D01*
X123801401Y-163014500D01*
X140972002Y-163014500D01*
X140979610Y-163014730D01*
X141040313Y-163018402D01*
X141100171Y-163007432D01*
X141107618Y-163006299D01*
X141168021Y-162998965D01*
X141177550Y-162995350D01*
X141199524Y-162989226D01*
X141209549Y-162987389D01*
X141265017Y-162962423D01*
X141272022Y-162959522D01*
X141328895Y-162937954D01*
X141337286Y-162932161D01*
X141357142Y-162920961D01*
X141366446Y-162916775D01*
X141414360Y-162879235D01*
X141420415Y-162874780D01*
X141470493Y-162840215D01*
X141510847Y-162794663D01*
X141516032Y-162789156D01*
X144401978Y-159903212D01*
X146486457Y-159903212D01*
X146506418Y-160093139D01*
X146515416Y-160120831D01*
X146565434Y-160274768D01*
X146593802Y-160323903D01*
X146660919Y-160440153D01*
X146660926Y-160440163D01*
X146788705Y-160582076D01*
X146829779Y-160611918D01*
X146943209Y-160694330D01*
X147117673Y-160772006D01*
X147304474Y-160811712D01*
X147495448Y-160811712D01*
X147682249Y-160772006D01*
X147856713Y-160694330D01*
X147937305Y-160635775D01*
X148004173Y-160611918D01*
X148011366Y-160611712D01*
X149998332Y-160611712D01*
X150066453Y-160631714D01*
X150087427Y-160648617D01*
X150382334Y-160943524D01*
X150416360Y-161005836D01*
X150418549Y-161019447D01*
X150423457Y-161066147D01*
X150453526Y-161158690D01*
X150482473Y-161247776D01*
X150482476Y-161247781D01*
X150577958Y-161413161D01*
X150577965Y-161413171D01*
X150705744Y-161555084D01*
X150736594Y-161577498D01*
X150860248Y-161667338D01*
X151034712Y-161745014D01*
X151221513Y-161784720D01*
X151412487Y-161784720D01*
X151599288Y-161745014D01*
X151773752Y-161667338D01*
X151928253Y-161555086D01*
X152056040Y-161413164D01*
X152151527Y-161247776D01*
X152210542Y-161066148D01*
X152230504Y-160876220D01*
X152210542Y-160686292D01*
X152151527Y-160504664D01*
X152056040Y-160339276D01*
X152056038Y-160339274D01*
X152056034Y-160339268D01*
X151928255Y-160197355D01*
X151773752Y-160085102D01*
X151599288Y-160007426D01*
X151446431Y-159974935D01*
X151383957Y-159941206D01*
X151383533Y-159940783D01*
X150862819Y-159420069D01*
X150857602Y-159414528D01*
X150822265Y-159374641D01*
X150817265Y-159368997D01*
X150817264Y-159368996D01*
X150817263Y-159368995D01*
X150767212Y-159334446D01*
X150761085Y-159329938D01*
X150713218Y-159292437D01*
X150713214Y-159292435D01*
X150703911Y-159288247D01*
X150684061Y-159277052D01*
X150675667Y-159271258D01*
X150658839Y-159264876D01*
X150618813Y-159249695D01*
X150611786Y-159246784D01*
X150556324Y-159221824D01*
X150556322Y-159221823D01*
X150556321Y-159221823D01*
X150546278Y-159219982D01*
X150524328Y-159213862D01*
X150514793Y-159210247D01*
X150514792Y-159210246D01*
X150514790Y-159210246D01*
X150514786Y-159210245D01*
X150454425Y-159202916D01*
X150446906Y-159201771D01*
X150408380Y-159194712D01*
X150387086Y-159190810D01*
X150387085Y-159190810D01*
X150336124Y-159193892D01*
X150326382Y-159194482D01*
X150318774Y-159194712D01*
X148011366Y-159194712D01*
X147943245Y-159174710D01*
X147937305Y-159170648D01*
X147856713Y-159112094D01*
X147682249Y-159034418D01*
X147495448Y-158994712D01*
X147304474Y-158994712D01*
X147117672Y-159034418D01*
X146943208Y-159112094D01*
X146788705Y-159224347D01*
X146660926Y-159366260D01*
X146660919Y-159366270D01*
X146565437Y-159531650D01*
X146565434Y-159531657D01*
X146506418Y-159713284D01*
X146486457Y-159903212D01*
X144401978Y-159903212D01*
X144652536Y-159652654D01*
X144714846Y-159618630D01*
X144715136Y-159618567D01*
X144868288Y-159586014D01*
X145042752Y-159508338D01*
X145197253Y-159396086D01*
X145221646Y-159368995D01*
X145325034Y-159254171D01*
X145325035Y-159254169D01*
X145325040Y-159254164D01*
X145420527Y-159088776D01*
X145479542Y-158907148D01*
X145499504Y-158717220D01*
X145479542Y-158527292D01*
X145420527Y-158345664D01*
X145325040Y-158180276D01*
X145325038Y-158180274D01*
X145325034Y-158180268D01*
X145197255Y-158038355D01*
X145042752Y-157926102D01*
X144868288Y-157848426D01*
X144681487Y-157808720D01*
X144490513Y-157808720D01*
X144303711Y-157848426D01*
X144129247Y-157926102D01*
X143974744Y-158038355D01*
X143846965Y-158180268D01*
X143846958Y-158180278D01*
X143751476Y-158345658D01*
X143751473Y-158345665D01*
X143692459Y-158527287D01*
X143687550Y-158573990D01*
X143660536Y-158639646D01*
X143651335Y-158649912D01*
X140740653Y-161560596D01*
X140678343Y-161594620D01*
X140651560Y-161597500D01*
X123801401Y-161597500D01*
X123733280Y-161577498D01*
X123727340Y-161573436D01*
X123646748Y-161514882D01*
X123472284Y-161437206D01*
X123285483Y-161397500D01*
X123094509Y-161397500D01*
X122907707Y-161437206D01*
X122733243Y-161514882D01*
X122578740Y-161627135D01*
X122450961Y-161769048D01*
X122450954Y-161769058D01*
X122355472Y-161934438D01*
X122355469Y-161934445D01*
X122296453Y-162116072D01*
X122276492Y-162306000D01*
X107009500Y-162306000D01*
X107009500Y-155668312D01*
X110193597Y-155668312D01*
X110198318Y-155694077D01*
X110204558Y-155728129D01*
X110205703Y-155735652D01*
X110213032Y-155796013D01*
X110213033Y-155796017D01*
X110216649Y-155805552D01*
X110222770Y-155827508D01*
X110224611Y-155837551D01*
X110249571Y-155893013D01*
X110252482Y-155900040D01*
X110267663Y-155940066D01*
X110274045Y-155956894D01*
X110279839Y-155965288D01*
X110291034Y-155985138D01*
X110295222Y-155994441D01*
X110295224Y-155994445D01*
X110332725Y-156042312D01*
X110337233Y-156048439D01*
X110371782Y-156098490D01*
X110417315Y-156138829D01*
X110422856Y-156144046D01*
X110587171Y-156308361D01*
X110592387Y-156313902D01*
X110632724Y-156359432D01*
X110632727Y-156359435D01*
X110682768Y-156393976D01*
X110688899Y-156398487D01*
X110736774Y-156435995D01*
X110746070Y-156440178D01*
X110765935Y-156451383D01*
X110774320Y-156457171D01*
X110774322Y-156457172D01*
X110774325Y-156457174D01*
X110774329Y-156457175D01*
X110774332Y-156457177D01*
X110831176Y-156478735D01*
X110838208Y-156481647D01*
X110893671Y-156506609D01*
X110894212Y-156506708D01*
X110894570Y-156506888D01*
X110900948Y-156508876D01*
X110900617Y-156509936D01*
X110957611Y-156538661D01*
X110993671Y-156599818D01*
X110997500Y-156630644D01*
X110997500Y-156635869D01*
X111004009Y-156696416D01*
X111004011Y-156696424D01*
X111055110Y-156833422D01*
X111055112Y-156833427D01*
X111142739Y-156950481D01*
X111201343Y-156994353D01*
X111243889Y-157051189D01*
X111248953Y-157122004D01*
X111214928Y-157184316D01*
X111201343Y-157196087D01*
X111142739Y-157239958D01*
X111055112Y-157357012D01*
X111055110Y-157357017D01*
X111004011Y-157494015D01*
X111004009Y-157494023D01*
X110997500Y-157554570D01*
X110997500Y-159175869D01*
X111004009Y-159236416D01*
X111004011Y-159236424D01*
X111055110Y-159373422D01*
X111055112Y-159373427D01*
X111142738Y-159490481D01*
X111259792Y-159578107D01*
X111259794Y-159578108D01*
X111259796Y-159578109D01*
X111290615Y-159589604D01*
X111396795Y-159629208D01*
X111396803Y-159629210D01*
X111457350Y-159635719D01*
X111457355Y-159635719D01*
X111457362Y-159635720D01*
X111462576Y-159635720D01*
X111530697Y-159655722D01*
X111577190Y-159709378D01*
X111586511Y-159739001D01*
X111586612Y-159739552D01*
X111611572Y-159795014D01*
X111614483Y-159802041D01*
X111629664Y-159842067D01*
X111636046Y-159858895D01*
X111641840Y-159867289D01*
X111653035Y-159887139D01*
X111657223Y-159896442D01*
X111657225Y-159896446D01*
X111694726Y-159944313D01*
X111699234Y-159950440D01*
X111733783Y-160000491D01*
X111733784Y-160000492D01*
X111733785Y-160000493D01*
X111764055Y-160027310D01*
X111779316Y-160040830D01*
X111784857Y-160046047D01*
X111949172Y-160210362D01*
X111954388Y-160215903D01*
X111994725Y-160261433D01*
X111994728Y-160261436D01*
X112044769Y-160295977D01*
X112050900Y-160300488D01*
X112098775Y-160337996D01*
X112108071Y-160342179D01*
X112127936Y-160353384D01*
X112136321Y-160359172D01*
X112136323Y-160359173D01*
X112136326Y-160359175D01*
X112136330Y-160359176D01*
X112136333Y-160359178D01*
X112193177Y-160380736D01*
X112200209Y-160383648D01*
X112255672Y-160408610D01*
X112265705Y-160410448D01*
X112287669Y-160416572D01*
X112297196Y-160420185D01*
X112297198Y-160420185D01*
X112297200Y-160420186D01*
X112357606Y-160427520D01*
X112365043Y-160428652D01*
X112424908Y-160439623D01*
X112485611Y-160435951D01*
X112493219Y-160435721D01*
X116024783Y-160435721D01*
X116032391Y-160435951D01*
X116093094Y-160439623D01*
X116152952Y-160428653D01*
X116160399Y-160427520D01*
X116220802Y-160420186D01*
X116230331Y-160416571D01*
X116252305Y-160410447D01*
X116262330Y-160408610D01*
X116317798Y-160383644D01*
X116324803Y-160380743D01*
X116381676Y-160359175D01*
X116390067Y-160353382D01*
X116409923Y-160342182D01*
X116419227Y-160337996D01*
X116467141Y-160300456D01*
X116473196Y-160296001D01*
X116523274Y-160261436D01*
X116563628Y-160215884D01*
X116568813Y-160210377D01*
X116653157Y-160126033D01*
X116658664Y-160120848D01*
X116704216Y-160080494D01*
X116738761Y-160030447D01*
X116743272Y-160024315D01*
X116780776Y-159976446D01*
X116784956Y-159967156D01*
X116796160Y-159947290D01*
X116801955Y-159938896D01*
X116823518Y-159882034D01*
X116826424Y-159875019D01*
X116851390Y-159819550D01*
X116853228Y-159809514D01*
X116859348Y-159787561D01*
X116862966Y-159778022D01*
X116870300Y-159717617D01*
X116871433Y-159710171D01*
X116882403Y-159650313D01*
X116878731Y-159589604D01*
X116878501Y-159581997D01*
X116878501Y-158175659D01*
X116898503Y-158107538D01*
X116915406Y-158086564D01*
X118256555Y-156745415D01*
X118318867Y-156711389D01*
X118345650Y-156708510D01*
X122578595Y-156708510D01*
X122646716Y-156728512D01*
X122652655Y-156732573D01*
X122733248Y-156791128D01*
X122907712Y-156868804D01*
X123094513Y-156908510D01*
X123285487Y-156908510D01*
X123472288Y-156868804D01*
X123646752Y-156791128D01*
X123801253Y-156678876D01*
X123918391Y-156548781D01*
X123929034Y-156536961D01*
X123929035Y-156536959D01*
X123929040Y-156536954D01*
X124024527Y-156371566D01*
X124083542Y-156189938D01*
X124103504Y-156000010D01*
X124087493Y-155847670D01*
X124100265Y-155777832D01*
X124148768Y-155725985D01*
X124212803Y-155708500D01*
X124428340Y-155708500D01*
X124496461Y-155728502D01*
X124517435Y-155745405D01*
X124795334Y-156023304D01*
X124829360Y-156085616D01*
X124831549Y-156099227D01*
X124836457Y-156145927D01*
X124866526Y-156238470D01*
X124895473Y-156327556D01*
X124920881Y-156371564D01*
X124990958Y-156492941D01*
X124990965Y-156492951D01*
X125118744Y-156634864D01*
X125179319Y-156678874D01*
X125273248Y-156747118D01*
X125447712Y-156824794D01*
X125634513Y-156864500D01*
X125825487Y-156864500D01*
X126012288Y-156824794D01*
X126186752Y-156747118D01*
X126341253Y-156634866D01*
X126345055Y-156630644D01*
X126469034Y-156492951D01*
X126469035Y-156492949D01*
X126469040Y-156492944D01*
X126564527Y-156327556D01*
X126613375Y-156177220D01*
X130845496Y-156177220D01*
X130865457Y-156367147D01*
X130887828Y-156435995D01*
X130924473Y-156548776D01*
X130924476Y-156548781D01*
X131019958Y-156714161D01*
X131019965Y-156714171D01*
X131147744Y-156856084D01*
X131188818Y-156885926D01*
X131302248Y-156968338D01*
X131476712Y-157046014D01*
X131663513Y-157085720D01*
X131854487Y-157085720D01*
X132041288Y-157046014D01*
X132215752Y-156968338D01*
X132296344Y-156909783D01*
X132363212Y-156885926D01*
X132370405Y-156885720D01*
X135356339Y-156885720D01*
X135424460Y-156905722D01*
X135445434Y-156922625D01*
X137173637Y-158650828D01*
X137207663Y-158713140D01*
X137209852Y-158726751D01*
X137214760Y-158773451D01*
X137244829Y-158865994D01*
X137273776Y-158955080D01*
X137273779Y-158955085D01*
X137369261Y-159120465D01*
X137369268Y-159120475D01*
X137497047Y-159262388D01*
X137497050Y-159262390D01*
X137651551Y-159374642D01*
X137826015Y-159452318D01*
X138012816Y-159492024D01*
X138203790Y-159492024D01*
X138390591Y-159452318D01*
X138565055Y-159374642D01*
X138719556Y-159262390D01*
X138719558Y-159262388D01*
X138847337Y-159120475D01*
X138847338Y-159120473D01*
X138847343Y-159120468D01*
X138942830Y-158955080D01*
X139001845Y-158773452D01*
X139021807Y-158583524D01*
X139001845Y-158393596D01*
X138942830Y-158211968D01*
X138847343Y-158046580D01*
X138847341Y-158046578D01*
X138847337Y-158046572D01*
X138719558Y-157904659D01*
X138565055Y-157792406D01*
X138390591Y-157714730D01*
X138237734Y-157682239D01*
X138175260Y-157648510D01*
X138174836Y-157648087D01*
X136220826Y-155694077D01*
X136215609Y-155688536D01*
X136175272Y-155643005D01*
X136175271Y-155643004D01*
X136175270Y-155643003D01*
X136125219Y-155608454D01*
X136119092Y-155603946D01*
X136071225Y-155566445D01*
X136071221Y-155566443D01*
X136061918Y-155562255D01*
X136042068Y-155551060D01*
X136033674Y-155545266D01*
X136016846Y-155538884D01*
X135976820Y-155523703D01*
X135969793Y-155520792D01*
X135914331Y-155495832D01*
X135914329Y-155495831D01*
X135914328Y-155495831D01*
X135904285Y-155493990D01*
X135882335Y-155487870D01*
X135872800Y-155484255D01*
X135872799Y-155484254D01*
X135872797Y-155484254D01*
X135872793Y-155484253D01*
X135812432Y-155476924D01*
X135804913Y-155475779D01*
X135766387Y-155468720D01*
X135745093Y-155464818D01*
X135745092Y-155464818D01*
X135694131Y-155467900D01*
X135684389Y-155468490D01*
X135676781Y-155468720D01*
X132370405Y-155468720D01*
X132302284Y-155448718D01*
X132296344Y-155444656D01*
X132215752Y-155386102D01*
X132041288Y-155308426D01*
X131854487Y-155268720D01*
X131663513Y-155268720D01*
X131476711Y-155308426D01*
X131302247Y-155386102D01*
X131147744Y-155498355D01*
X131019965Y-155640268D01*
X131019958Y-155640278D01*
X130924476Y-155805658D01*
X130924473Y-155805664D01*
X130914113Y-155837548D01*
X130865457Y-155987292D01*
X130845496Y-156177220D01*
X126613375Y-156177220D01*
X126623542Y-156145928D01*
X126643504Y-155956000D01*
X126623542Y-155766072D01*
X126564527Y-155584444D01*
X126469040Y-155419056D01*
X126469038Y-155419054D01*
X126469034Y-155419048D01*
X126341255Y-155277135D01*
X126186752Y-155164882D01*
X126012288Y-155087206D01*
X125859431Y-155054715D01*
X125796957Y-155020986D01*
X125796533Y-155020563D01*
X125292827Y-154516857D01*
X125287610Y-154511316D01*
X125247273Y-154465785D01*
X125247272Y-154465784D01*
X125247271Y-154465783D01*
X125197220Y-154431234D01*
X125191093Y-154426726D01*
X125143226Y-154389225D01*
X125143222Y-154389223D01*
X125133919Y-154385035D01*
X125114069Y-154373840D01*
X125105675Y-154368046D01*
X125088847Y-154361664D01*
X125048821Y-154346483D01*
X125041794Y-154343572D01*
X124986332Y-154318612D01*
X124986330Y-154318611D01*
X124986329Y-154318611D01*
X124976286Y-154316770D01*
X124954336Y-154310650D01*
X124944801Y-154307035D01*
X124944800Y-154307034D01*
X124944798Y-154307034D01*
X124944794Y-154307033D01*
X124884433Y-154299704D01*
X124876914Y-154298559D01*
X124838388Y-154291500D01*
X124817094Y-154287598D01*
X124817093Y-154287598D01*
X124766132Y-154290680D01*
X124756390Y-154291270D01*
X124748782Y-154291500D01*
X118030440Y-154291500D01*
X117962319Y-154271498D01*
X117941345Y-154254595D01*
X116488827Y-152802077D01*
X116483610Y-152796536D01*
X116443271Y-152751003D01*
X116393220Y-152716454D01*
X116387093Y-152711946D01*
X116339226Y-152674445D01*
X116339222Y-152674443D01*
X116329919Y-152670255D01*
X116310069Y-152659060D01*
X116301675Y-152653266D01*
X116284847Y-152646884D01*
X116244821Y-152631703D01*
X116237794Y-152628792D01*
X116182332Y-152603832D01*
X116182330Y-152603831D01*
X116182329Y-152603831D01*
X116181779Y-152603730D01*
X116181411Y-152603544D01*
X116175058Y-152601565D01*
X116175387Y-152600508D01*
X116118384Y-152571774D01*
X116082327Y-152510615D01*
X116078500Y-152479796D01*
X116078500Y-152474587D01*
X116078499Y-152474570D01*
X116071990Y-152414023D01*
X116071988Y-152414015D01*
X116020889Y-152277017D01*
X116020887Y-152277012D01*
X115933261Y-152159958D01*
X115816207Y-152072332D01*
X115816202Y-152072330D01*
X115679204Y-152021231D01*
X115679196Y-152021229D01*
X115618649Y-152014720D01*
X115618638Y-152014720D01*
X113997362Y-152014720D01*
X113997350Y-152014720D01*
X113936803Y-152021229D01*
X113936795Y-152021231D01*
X113799797Y-152072330D01*
X113799792Y-152072332D01*
X113682738Y-152159959D01*
X113638867Y-152218563D01*
X113582031Y-152261109D01*
X113511216Y-152266173D01*
X113448904Y-152232148D01*
X113437133Y-152218563D01*
X113393261Y-152159959D01*
X113276207Y-152072332D01*
X113276202Y-152072330D01*
X113139204Y-152021231D01*
X113139196Y-152021229D01*
X113078649Y-152014720D01*
X113078638Y-152014720D01*
X112240658Y-152014720D01*
X112172537Y-151994718D01*
X112126044Y-151941062D01*
X112115940Y-151870788D01*
X112145434Y-151806208D01*
X112151563Y-151799625D01*
X112177383Y-151773805D01*
X112239695Y-151739779D01*
X112266478Y-151736900D01*
X117154740Y-151736900D01*
X117222861Y-151756902D01*
X117243835Y-151773805D01*
X118445334Y-152975304D01*
X118479360Y-153037616D01*
X118481549Y-153051227D01*
X118486457Y-153097927D01*
X118516526Y-153190470D01*
X118545473Y-153279556D01*
X118545476Y-153279561D01*
X118640958Y-153444941D01*
X118640965Y-153444951D01*
X118768744Y-153586864D01*
X118768747Y-153586866D01*
X118923248Y-153699118D01*
X119097712Y-153776794D01*
X119284513Y-153816500D01*
X119475487Y-153816500D01*
X119662288Y-153776794D01*
X119836752Y-153699118D01*
X119991253Y-153586866D01*
X120119040Y-153444944D01*
X120214527Y-153279556D01*
X120273542Y-153097928D01*
X120293504Y-152908000D01*
X120273542Y-152718072D01*
X120214527Y-152536444D01*
X120119040Y-152371056D01*
X120119038Y-152371054D01*
X120119034Y-152371048D01*
X119991255Y-152229135D01*
X119836752Y-152116882D01*
X119662288Y-152039206D01*
X119509431Y-152006715D01*
X119446957Y-151972986D01*
X119446533Y-151972563D01*
X118019227Y-150545257D01*
X118014010Y-150539716D01*
X117973671Y-150494183D01*
X117923620Y-150459634D01*
X117917493Y-150455126D01*
X117869626Y-150417625D01*
X117869622Y-150417623D01*
X117860319Y-150413435D01*
X117840469Y-150402240D01*
X117832075Y-150396446D01*
X117815247Y-150390064D01*
X117775221Y-150374883D01*
X117768194Y-150371972D01*
X117712732Y-150347012D01*
X117712730Y-150347011D01*
X117712729Y-150347011D01*
X117702686Y-150345170D01*
X117680736Y-150339050D01*
X117671201Y-150335435D01*
X117671200Y-150335434D01*
X117671198Y-150335434D01*
X117671194Y-150335433D01*
X117610833Y-150328104D01*
X117603314Y-150326959D01*
X117564788Y-150319900D01*
X117543494Y-150315998D01*
X117543493Y-150315998D01*
X117492532Y-150319080D01*
X117482790Y-150319670D01*
X117475182Y-150319900D01*
X111946040Y-150319900D01*
X111938434Y-150319670D01*
X111936358Y-150319544D01*
X111877724Y-150315997D01*
X111877723Y-150315998D01*
X111817907Y-150326959D01*
X111810385Y-150328104D01*
X111750020Y-150335433D01*
X111750013Y-150335435D01*
X111740479Y-150339051D01*
X111718529Y-150345170D01*
X111708496Y-150347009D01*
X111708483Y-150347013D01*
X111653029Y-150371970D01*
X111646001Y-150374882D01*
X111589144Y-150396445D01*
X111580739Y-150402246D01*
X111560898Y-150413435D01*
X111551597Y-150417622D01*
X111551587Y-150417628D01*
X111503716Y-150455131D01*
X111497592Y-150459637D01*
X111447544Y-150494184D01*
X111407206Y-150539716D01*
X111401990Y-150545256D01*
X110422855Y-151524391D01*
X110417315Y-151529607D01*
X110371783Y-151569945D01*
X110337236Y-151619993D01*
X110332730Y-151626117D01*
X110295227Y-151673988D01*
X110295221Y-151673998D01*
X110291034Y-151683299D01*
X110279845Y-151703140D01*
X110274044Y-151711545D01*
X110252481Y-151768402D01*
X110249569Y-151775430D01*
X110224612Y-151830884D01*
X110224608Y-151830897D01*
X110222769Y-151840930D01*
X110216650Y-151862880D01*
X110213033Y-151872418D01*
X110205704Y-151932773D01*
X110204560Y-151940290D01*
X110193597Y-152000125D01*
X110197269Y-152060827D01*
X110197499Y-152068435D01*
X110197499Y-155600001D01*
X110197268Y-155607609D01*
X110193597Y-155668312D01*
X107009500Y-155668312D01*
X107009500Y-138937990D01*
X109830496Y-138937990D01*
X109850457Y-139127917D01*
X109868851Y-139184525D01*
X109909473Y-139309546D01*
X109909486Y-139309569D01*
X110004958Y-139474931D01*
X110008843Y-139480278D01*
X110007233Y-139481447D01*
X110033853Y-139536915D01*
X110035500Y-139557219D01*
X110035500Y-145070002D01*
X110035270Y-145077610D01*
X110031598Y-145138312D01*
X110042559Y-145198130D01*
X110043704Y-145205653D01*
X110051033Y-145266014D01*
X110051034Y-145266018D01*
X110054650Y-145275553D01*
X110060771Y-145297509D01*
X110062612Y-145307552D01*
X110087572Y-145363014D01*
X110090483Y-145370041D01*
X110099032Y-145392580D01*
X110112046Y-145426895D01*
X110117840Y-145435289D01*
X110129035Y-145455139D01*
X110133223Y-145464442D01*
X110133225Y-145464446D01*
X110170726Y-145512313D01*
X110175234Y-145518440D01*
X110203222Y-145558985D01*
X110209785Y-145568493D01*
X110255315Y-145608829D01*
X110260840Y-145614030D01*
X110433187Y-145786378D01*
X110438402Y-145791918D01*
X110478727Y-145837435D01*
X110528777Y-145871983D01*
X110534896Y-145876485D01*
X110582774Y-145913994D01*
X110582777Y-145913995D01*
X110582778Y-145913996D01*
X110592065Y-145918176D01*
X110611927Y-145929377D01*
X110620325Y-145935174D01*
X110677210Y-145956747D01*
X110684202Y-145959643D01*
X110723962Y-145977538D01*
X110739667Y-145984607D01*
X110739668Y-145984607D01*
X110739670Y-145984608D01*
X110740200Y-145984705D01*
X110740557Y-145984885D01*
X110746944Y-145986875D01*
X110746613Y-145987936D01*
X110803602Y-146016652D01*
X110839668Y-146077805D01*
X110843500Y-146108643D01*
X110843500Y-146113869D01*
X110850009Y-146174416D01*
X110850011Y-146174424D01*
X110901110Y-146311422D01*
X110901112Y-146311427D01*
X110988739Y-146428481D01*
X111047343Y-146472353D01*
X111089889Y-146529189D01*
X111094953Y-146600004D01*
X111060928Y-146662316D01*
X111047343Y-146674087D01*
X110988739Y-146717958D01*
X110901112Y-146835012D01*
X110901110Y-146835017D01*
X110850011Y-146972015D01*
X110850009Y-146972023D01*
X110843500Y-147032570D01*
X110843500Y-148653869D01*
X110850009Y-148714416D01*
X110850011Y-148714424D01*
X110901110Y-148851422D01*
X110901112Y-148851427D01*
X110988738Y-148968481D01*
X111105792Y-149056107D01*
X111105794Y-149056108D01*
X111105796Y-149056109D01*
X111164875Y-149078144D01*
X111242795Y-149107208D01*
X111242803Y-149107210D01*
X111303350Y-149113719D01*
X111303355Y-149113719D01*
X111303362Y-149113720D01*
X111303368Y-149113720D01*
X112924632Y-149113720D01*
X112924638Y-149113720D01*
X112924645Y-149113719D01*
X112924649Y-149113719D01*
X112985196Y-149107210D01*
X112985199Y-149107209D01*
X112985201Y-149107209D01*
X113122204Y-149056109D01*
X113239261Y-148968481D01*
X113326887Y-148851427D01*
X113326887Y-148851426D01*
X113326889Y-148851424D01*
X113377989Y-148714421D01*
X113378049Y-148713869D01*
X113384499Y-148653869D01*
X113384500Y-148653852D01*
X113384500Y-147032587D01*
X113384499Y-147032570D01*
X113377990Y-146972023D01*
X113377988Y-146972015D01*
X113326889Y-146835017D01*
X113326887Y-146835012D01*
X113239261Y-146717958D01*
X113180657Y-146674088D01*
X113138110Y-146617252D01*
X113133046Y-146546436D01*
X113167071Y-146484124D01*
X113180657Y-146472352D01*
X113239261Y-146428481D01*
X113283132Y-146369877D01*
X113339968Y-146327330D01*
X113410784Y-146322266D01*
X113473096Y-146356291D01*
X113484868Y-146369877D01*
X113528738Y-146428481D01*
X113645792Y-146516107D01*
X113645794Y-146516108D01*
X113645796Y-146516109D01*
X113704875Y-146538144D01*
X113782795Y-146567208D01*
X113782803Y-146567210D01*
X113843350Y-146573719D01*
X113843355Y-146573719D01*
X113843362Y-146573720D01*
X113843368Y-146573720D01*
X115464632Y-146573720D01*
X115464638Y-146573720D01*
X115464645Y-146573719D01*
X115464649Y-146573719D01*
X115525196Y-146567210D01*
X115525199Y-146567209D01*
X115525201Y-146567209D01*
X115662204Y-146516109D01*
X115685813Y-146498436D01*
X115779261Y-146428481D01*
X115866887Y-146311427D01*
X115866887Y-146311426D01*
X115866889Y-146311424D01*
X115917989Y-146174421D01*
X115918049Y-146173869D01*
X115924499Y-146113869D01*
X115924500Y-146113852D01*
X115924500Y-146108644D01*
X115944502Y-146040523D01*
X115998158Y-145994030D01*
X116027800Y-145984706D01*
X116027936Y-145984680D01*
X116028329Y-145984609D01*
X116083797Y-145959643D01*
X116090808Y-145956740D01*
X116147675Y-145935174D01*
X116156066Y-145929381D01*
X116175922Y-145918181D01*
X116185226Y-145913995D01*
X116233140Y-145876455D01*
X116239195Y-145872000D01*
X116289273Y-145837435D01*
X116329627Y-145791883D01*
X116334812Y-145786376D01*
X116473906Y-145647282D01*
X116536216Y-145613258D01*
X116607031Y-145618323D01*
X116652094Y-145647284D01*
X116743171Y-145738361D01*
X116748387Y-145743902D01*
X116788724Y-145789432D01*
X116788727Y-145789435D01*
X116838768Y-145823976D01*
X116844899Y-145828487D01*
X116892774Y-145865995D01*
X116902070Y-145870178D01*
X116921935Y-145881383D01*
X116930320Y-145887171D01*
X116930322Y-145887172D01*
X116930325Y-145887174D01*
X116930329Y-145887175D01*
X116930332Y-145887177D01*
X116987176Y-145908735D01*
X116994208Y-145911647D01*
X117001315Y-145914845D01*
X117049671Y-145936609D01*
X117050212Y-145936708D01*
X117050570Y-145936888D01*
X117056948Y-145938876D01*
X117056617Y-145939936D01*
X117113611Y-145968661D01*
X117149671Y-146029818D01*
X117153500Y-146060644D01*
X117153500Y-146065869D01*
X117160009Y-146126416D01*
X117160011Y-146126424D01*
X117211110Y-146263422D01*
X117211112Y-146263427D01*
X117298739Y-146380481D01*
X117357343Y-146424353D01*
X117399889Y-146481189D01*
X117404953Y-146552004D01*
X117370928Y-146614316D01*
X117357343Y-146626087D01*
X117298739Y-146669958D01*
X117211112Y-146787012D01*
X117211110Y-146787017D01*
X117160011Y-146924015D01*
X117160009Y-146924023D01*
X117153500Y-146984570D01*
X117153500Y-148605869D01*
X117160009Y-148666416D01*
X117160011Y-148666424D01*
X117211110Y-148803422D01*
X117211112Y-148803427D01*
X117298738Y-148920481D01*
X117415792Y-149008107D01*
X117415794Y-149008108D01*
X117415796Y-149008109D01*
X117470415Y-149028481D01*
X117552795Y-149059208D01*
X117552803Y-149059210D01*
X117613350Y-149065719D01*
X117613355Y-149065719D01*
X117613362Y-149065720D01*
X117613368Y-149065720D01*
X119234632Y-149065720D01*
X119234638Y-149065720D01*
X119234645Y-149065719D01*
X119234649Y-149065719D01*
X119295196Y-149059210D01*
X119295199Y-149059209D01*
X119295201Y-149059209D01*
X119303513Y-149056109D01*
X119314045Y-149052180D01*
X119432204Y-149008109D01*
X119549261Y-148920481D01*
X119593336Y-148861604D01*
X119636887Y-148803427D01*
X119636887Y-148803426D01*
X119636889Y-148803424D01*
X119687989Y-148666421D01*
X119688246Y-148664038D01*
X119694499Y-148605869D01*
X119694500Y-148605852D01*
X119694500Y-146984587D01*
X119694499Y-146984570D01*
X119687990Y-146924023D01*
X119687988Y-146924015D01*
X119636889Y-146787017D01*
X119636887Y-146787012D01*
X119549261Y-146669958D01*
X119490657Y-146626088D01*
X119448110Y-146569252D01*
X119443046Y-146498436D01*
X119477071Y-146436124D01*
X119490657Y-146424352D01*
X119549261Y-146380481D01*
X119593132Y-146321877D01*
X119649968Y-146279330D01*
X119720784Y-146274266D01*
X119783096Y-146308291D01*
X119794868Y-146321877D01*
X119838738Y-146380481D01*
X119955792Y-146468107D01*
X119955794Y-146468108D01*
X119955796Y-146468109D01*
X120010415Y-146488481D01*
X120092795Y-146519208D01*
X120092803Y-146519210D01*
X120153350Y-146525719D01*
X120153355Y-146525719D01*
X120153362Y-146525720D01*
X120153368Y-146525720D01*
X121774632Y-146525720D01*
X121774638Y-146525720D01*
X121774645Y-146525719D01*
X121774649Y-146525719D01*
X121835196Y-146519210D01*
X121835199Y-146519209D01*
X121835201Y-146519209D01*
X121843513Y-146516109D01*
X121854045Y-146512180D01*
X121972204Y-146468109D01*
X122030657Y-146424352D01*
X122089261Y-146380481D01*
X122176887Y-146263427D01*
X122176887Y-146263426D01*
X122176889Y-146263424D01*
X122223738Y-146137818D01*
X122227988Y-146126424D01*
X122227990Y-146126416D01*
X122234499Y-146065869D01*
X122234500Y-146065852D01*
X122234500Y-146060644D01*
X122254502Y-145992523D01*
X122308158Y-145946030D01*
X122337800Y-145936706D01*
X122337936Y-145936680D01*
X122338329Y-145936609D01*
X122393797Y-145911643D01*
X122400802Y-145908742D01*
X122457675Y-145887174D01*
X122466066Y-145881381D01*
X122485922Y-145870181D01*
X122495226Y-145865995D01*
X122543140Y-145828455D01*
X122549195Y-145824000D01*
X122599273Y-145789435D01*
X122599604Y-145789062D01*
X122602836Y-145785412D01*
X122639618Y-145743892D01*
X122644802Y-145738386D01*
X122680906Y-145702282D01*
X122743216Y-145668258D01*
X122814031Y-145673323D01*
X122859094Y-145702284D01*
X123003171Y-145846361D01*
X123008387Y-145851902D01*
X123048724Y-145897432D01*
X123048727Y-145897435D01*
X123098768Y-145931976D01*
X123104899Y-145936487D01*
X123152774Y-145973995D01*
X123162070Y-145978178D01*
X123181935Y-145989383D01*
X123190320Y-145995171D01*
X123190322Y-145995172D01*
X123190325Y-145995174D01*
X123190329Y-145995175D01*
X123190332Y-145995177D01*
X123247176Y-146016735D01*
X123254208Y-146019647D01*
X123309671Y-146044609D01*
X123310212Y-146044708D01*
X123310570Y-146044888D01*
X123316948Y-146046876D01*
X123316617Y-146047936D01*
X123373611Y-146076661D01*
X123409671Y-146137818D01*
X123413500Y-146168644D01*
X123413500Y-146173869D01*
X123420009Y-146234416D01*
X123420011Y-146234424D01*
X123471110Y-146371422D01*
X123471112Y-146371427D01*
X123558739Y-146488481D01*
X123617343Y-146532353D01*
X123659889Y-146589189D01*
X123664953Y-146660004D01*
X123630928Y-146722316D01*
X123617343Y-146734087D01*
X123558739Y-146777958D01*
X123471112Y-146895012D01*
X123471110Y-146895017D01*
X123420011Y-147032015D01*
X123420009Y-147032023D01*
X123413500Y-147092570D01*
X123413500Y-148713869D01*
X123420009Y-148774416D01*
X123420011Y-148774424D01*
X123471110Y-148911422D01*
X123471112Y-148911427D01*
X123558738Y-149028481D01*
X123675792Y-149116107D01*
X123675794Y-149116108D01*
X123675796Y-149116109D01*
X123734875Y-149138144D01*
X123812795Y-149167208D01*
X123812803Y-149167210D01*
X123873350Y-149173719D01*
X123873355Y-149173719D01*
X123873362Y-149173720D01*
X123873368Y-149173720D01*
X125494632Y-149173720D01*
X125494638Y-149173720D01*
X125494645Y-149173719D01*
X125494649Y-149173719D01*
X125555196Y-149167210D01*
X125555199Y-149167209D01*
X125555201Y-149167209D01*
X125692204Y-149116109D01*
X125695396Y-149113720D01*
X125809261Y-149028481D01*
X125896887Y-148911427D01*
X125896887Y-148911426D01*
X125896889Y-148911424D01*
X125947989Y-148774421D01*
X125954440Y-148714421D01*
X125954499Y-148713869D01*
X125954500Y-148713852D01*
X125954500Y-147092587D01*
X125954499Y-147092570D01*
X125947990Y-147032023D01*
X125947988Y-147032015D01*
X125907708Y-146924023D01*
X125896889Y-146895016D01*
X125896888Y-146895014D01*
X125896887Y-146895012D01*
X125809261Y-146777958D01*
X125750657Y-146734088D01*
X125708110Y-146677252D01*
X125703046Y-146606436D01*
X125737071Y-146544124D01*
X125750657Y-146532352D01*
X125809261Y-146488481D01*
X125853132Y-146429877D01*
X125909968Y-146387330D01*
X125980784Y-146382266D01*
X126043096Y-146416291D01*
X126054868Y-146429877D01*
X126098738Y-146488481D01*
X126215792Y-146576107D01*
X126215794Y-146576108D01*
X126215796Y-146576109D01*
X126251460Y-146589411D01*
X126352795Y-146627208D01*
X126352803Y-146627210D01*
X126413350Y-146633719D01*
X126413355Y-146633719D01*
X126413362Y-146633720D01*
X126413368Y-146633720D01*
X128034632Y-146633720D01*
X128034638Y-146633720D01*
X128034645Y-146633719D01*
X128034649Y-146633719D01*
X128095196Y-146627210D01*
X128095199Y-146627209D01*
X128095201Y-146627209D01*
X128098207Y-146626088D01*
X128140846Y-146610184D01*
X128232204Y-146576109D01*
X128235396Y-146573720D01*
X128349261Y-146488481D01*
X128436887Y-146371427D01*
X128436887Y-146371426D01*
X128436889Y-146371424D01*
X128487989Y-146234421D01*
X128494440Y-146174421D01*
X128494499Y-146173869D01*
X128494500Y-146173852D01*
X128494500Y-146168644D01*
X128514502Y-146100523D01*
X128568158Y-146054030D01*
X128597800Y-146044706D01*
X128597936Y-146044680D01*
X128598329Y-146044609D01*
X128653797Y-146019643D01*
X128660802Y-146016742D01*
X128717675Y-145995174D01*
X128726066Y-145989381D01*
X128745922Y-145978181D01*
X128755226Y-145973995D01*
X128803140Y-145936455D01*
X128809195Y-145932000D01*
X128859273Y-145897435D01*
X128899627Y-145851883D01*
X128904812Y-145846376D01*
X129134156Y-145617032D01*
X129139676Y-145611836D01*
X129144731Y-145607358D01*
X129208980Y-145577155D01*
X129279362Y-145586483D01*
X129317382Y-145612572D01*
X129443171Y-145738361D01*
X129448387Y-145743902D01*
X129488724Y-145789432D01*
X129488727Y-145789435D01*
X129538768Y-145823976D01*
X129544899Y-145828487D01*
X129592774Y-145865995D01*
X129602070Y-145870178D01*
X129621935Y-145881383D01*
X129630320Y-145887171D01*
X129630322Y-145887172D01*
X129630325Y-145887174D01*
X129630329Y-145887175D01*
X129630332Y-145887177D01*
X129687176Y-145908735D01*
X129694208Y-145911647D01*
X129701315Y-145914845D01*
X129749671Y-145936609D01*
X129750212Y-145936708D01*
X129750570Y-145936888D01*
X129756948Y-145938876D01*
X129756617Y-145939936D01*
X129813611Y-145968661D01*
X129849671Y-146029818D01*
X129853500Y-146060644D01*
X129853500Y-146065869D01*
X129860009Y-146126416D01*
X129860011Y-146126424D01*
X129911110Y-146263422D01*
X129911112Y-146263427D01*
X129998739Y-146380481D01*
X130057343Y-146424353D01*
X130099889Y-146481189D01*
X130104953Y-146552004D01*
X130070928Y-146614316D01*
X130057343Y-146626087D01*
X129998739Y-146669958D01*
X129911112Y-146787012D01*
X129911110Y-146787017D01*
X129860011Y-146924015D01*
X129860009Y-146924023D01*
X129853500Y-146984570D01*
X129853500Y-148605869D01*
X129860009Y-148666416D01*
X129860011Y-148666424D01*
X129911110Y-148803422D01*
X129911112Y-148803427D01*
X129998738Y-148920481D01*
X130115792Y-149008107D01*
X130115794Y-149008108D01*
X130115796Y-149008109D01*
X130170415Y-149028481D01*
X130252795Y-149059208D01*
X130252803Y-149059210D01*
X130313350Y-149065719D01*
X130313355Y-149065719D01*
X130313362Y-149065720D01*
X130313368Y-149065720D01*
X131934632Y-149065720D01*
X131934638Y-149065720D01*
X131934645Y-149065719D01*
X131934649Y-149065719D01*
X131995196Y-149059210D01*
X131995199Y-149059209D01*
X131995201Y-149059209D01*
X132003513Y-149056109D01*
X132014045Y-149052180D01*
X132132204Y-149008109D01*
X132249261Y-148920481D01*
X132293336Y-148861604D01*
X132336887Y-148803427D01*
X132336887Y-148803426D01*
X132336889Y-148803424D01*
X132387989Y-148666421D01*
X132388246Y-148664038D01*
X132394499Y-148605869D01*
X132394500Y-148605852D01*
X132394500Y-146984587D01*
X132394499Y-146984570D01*
X132387990Y-146924023D01*
X132387988Y-146924015D01*
X132336889Y-146787017D01*
X132336887Y-146787012D01*
X132249261Y-146669958D01*
X132190657Y-146626088D01*
X132148110Y-146569252D01*
X132143046Y-146498436D01*
X132177071Y-146436124D01*
X132190657Y-146424352D01*
X132249261Y-146380481D01*
X132293132Y-146321877D01*
X132349968Y-146279330D01*
X132420784Y-146274266D01*
X132483096Y-146308291D01*
X132494868Y-146321877D01*
X132538738Y-146380481D01*
X132655792Y-146468107D01*
X132655794Y-146468108D01*
X132655796Y-146468109D01*
X132710415Y-146488481D01*
X132792795Y-146519208D01*
X132792803Y-146519210D01*
X132853350Y-146525719D01*
X132853355Y-146525719D01*
X132853362Y-146525720D01*
X132853368Y-146525720D01*
X134474632Y-146525720D01*
X134474638Y-146525720D01*
X134474645Y-146525719D01*
X134474649Y-146525719D01*
X134535196Y-146519210D01*
X134535199Y-146519209D01*
X134535201Y-146519209D01*
X134543513Y-146516109D01*
X134554045Y-146512180D01*
X134672204Y-146468109D01*
X134730657Y-146424352D01*
X134789261Y-146380481D01*
X134876887Y-146263427D01*
X134876887Y-146263426D01*
X134876889Y-146263424D01*
X134923738Y-146137818D01*
X134927988Y-146126424D01*
X134927990Y-146126416D01*
X134934499Y-146065869D01*
X134934500Y-146065852D01*
X134934500Y-146060644D01*
X134954502Y-145992523D01*
X135008158Y-145946030D01*
X135037800Y-145936706D01*
X135037936Y-145936680D01*
X135038329Y-145936609D01*
X135093797Y-145911643D01*
X135100802Y-145908742D01*
X135157675Y-145887174D01*
X135166066Y-145881381D01*
X135185922Y-145870181D01*
X135195226Y-145865995D01*
X135243140Y-145828455D01*
X135249195Y-145824000D01*
X135299273Y-145789435D01*
X135339611Y-145743902D01*
X135344803Y-145738385D01*
X135479906Y-145603283D01*
X135542217Y-145569259D01*
X135613033Y-145574324D01*
X135658095Y-145603285D01*
X135793171Y-145738361D01*
X135798387Y-145743902D01*
X135838724Y-145789432D01*
X135838727Y-145789435D01*
X135888768Y-145823976D01*
X135894899Y-145828487D01*
X135942774Y-145865995D01*
X135952070Y-145870178D01*
X135971935Y-145881383D01*
X135980320Y-145887171D01*
X135980322Y-145887172D01*
X135980325Y-145887174D01*
X135980329Y-145887175D01*
X135980332Y-145887177D01*
X136037176Y-145908735D01*
X136044208Y-145911647D01*
X136051315Y-145914845D01*
X136099671Y-145936609D01*
X136100212Y-145936708D01*
X136100570Y-145936888D01*
X136106948Y-145938876D01*
X136106617Y-145939936D01*
X136163611Y-145968661D01*
X136199671Y-146029818D01*
X136203500Y-146060644D01*
X136203500Y-146065869D01*
X136210009Y-146126416D01*
X136210011Y-146126424D01*
X136261110Y-146263422D01*
X136261112Y-146263427D01*
X136348739Y-146380481D01*
X136407343Y-146424353D01*
X136449889Y-146481189D01*
X136454953Y-146552004D01*
X136420928Y-146614316D01*
X136407343Y-146626087D01*
X136348739Y-146669958D01*
X136261112Y-146787012D01*
X136261110Y-146787017D01*
X136210011Y-146924015D01*
X136210009Y-146924023D01*
X136203500Y-146984570D01*
X136203500Y-148605869D01*
X136210009Y-148666416D01*
X136210011Y-148666424D01*
X136261110Y-148803422D01*
X136261112Y-148803427D01*
X136348738Y-148920481D01*
X136465792Y-149008107D01*
X136465794Y-149008108D01*
X136465796Y-149008109D01*
X136520415Y-149028481D01*
X136602795Y-149059208D01*
X136602803Y-149059210D01*
X136663350Y-149065719D01*
X136663355Y-149065719D01*
X136663362Y-149065720D01*
X136663368Y-149065720D01*
X138284632Y-149065720D01*
X138284638Y-149065720D01*
X138284645Y-149065719D01*
X138284649Y-149065719D01*
X138345196Y-149059210D01*
X138345199Y-149059209D01*
X138345201Y-149059209D01*
X138353513Y-149056109D01*
X138364045Y-149052180D01*
X138482204Y-149008109D01*
X138599261Y-148920481D01*
X138643336Y-148861604D01*
X138686887Y-148803427D01*
X138686887Y-148803426D01*
X138686889Y-148803424D01*
X138737989Y-148666421D01*
X138738246Y-148664038D01*
X138744499Y-148605869D01*
X138744500Y-148605852D01*
X138744500Y-146984587D01*
X138744499Y-146984570D01*
X138737990Y-146924023D01*
X138737988Y-146924015D01*
X138686889Y-146787017D01*
X138686887Y-146787012D01*
X138599261Y-146669958D01*
X138540657Y-146626088D01*
X138498110Y-146569252D01*
X138493046Y-146498436D01*
X138527071Y-146436124D01*
X138540657Y-146424352D01*
X138599261Y-146380481D01*
X138643132Y-146321877D01*
X138699968Y-146279330D01*
X138770784Y-146274266D01*
X138833096Y-146308291D01*
X138844868Y-146321877D01*
X138888738Y-146380481D01*
X139005792Y-146468107D01*
X139005794Y-146468108D01*
X139005796Y-146468109D01*
X139060415Y-146488481D01*
X139142795Y-146519208D01*
X139142803Y-146519210D01*
X139203350Y-146525719D01*
X139203355Y-146525719D01*
X139203362Y-146525720D01*
X139203368Y-146525720D01*
X140824632Y-146525720D01*
X140824638Y-146525720D01*
X140824645Y-146525719D01*
X140824649Y-146525719D01*
X140885196Y-146519210D01*
X140885199Y-146519209D01*
X140885201Y-146519209D01*
X140893513Y-146516109D01*
X140904045Y-146512180D01*
X141022204Y-146468109D01*
X141080657Y-146424352D01*
X141139261Y-146380481D01*
X141226887Y-146263427D01*
X141226887Y-146263426D01*
X141226889Y-146263424D01*
X141273738Y-146137818D01*
X141277988Y-146126424D01*
X141277990Y-146126416D01*
X141284499Y-146065869D01*
X141284500Y-146065852D01*
X141284500Y-146060644D01*
X141304502Y-145992523D01*
X141358158Y-145946030D01*
X141387800Y-145936706D01*
X141387936Y-145936680D01*
X141388329Y-145936609D01*
X141443797Y-145911643D01*
X141450802Y-145908742D01*
X141507675Y-145887174D01*
X141516066Y-145881381D01*
X141535922Y-145870181D01*
X141545226Y-145865995D01*
X141593140Y-145828455D01*
X141599195Y-145824000D01*
X141649273Y-145789435D01*
X141689625Y-145743885D01*
X141694795Y-145738393D01*
X141829906Y-145603283D01*
X141892217Y-145569259D01*
X141963033Y-145574324D01*
X142008095Y-145603285D01*
X142143171Y-145738361D01*
X142148387Y-145743902D01*
X142188724Y-145789432D01*
X142188727Y-145789435D01*
X142238768Y-145823976D01*
X142244899Y-145828487D01*
X142292774Y-145865995D01*
X142302070Y-145870178D01*
X142321935Y-145881383D01*
X142330320Y-145887171D01*
X142330322Y-145887172D01*
X142330325Y-145887174D01*
X142330329Y-145887175D01*
X142330332Y-145887177D01*
X142387176Y-145908735D01*
X142394208Y-145911647D01*
X142401315Y-145914845D01*
X142449671Y-145936609D01*
X142450212Y-145936708D01*
X142450570Y-145936888D01*
X142456948Y-145938876D01*
X142456617Y-145939936D01*
X142513611Y-145968661D01*
X142549671Y-146029818D01*
X142553500Y-146060644D01*
X142553500Y-146065869D01*
X142560009Y-146126416D01*
X142560011Y-146126424D01*
X142611110Y-146263422D01*
X142611112Y-146263427D01*
X142698739Y-146380481D01*
X142757343Y-146424353D01*
X142799889Y-146481189D01*
X142804953Y-146552004D01*
X142770928Y-146614316D01*
X142757343Y-146626087D01*
X142698739Y-146669958D01*
X142611112Y-146787012D01*
X142611110Y-146787017D01*
X142560011Y-146924015D01*
X142560009Y-146924023D01*
X142553500Y-146984570D01*
X142553500Y-148605869D01*
X142560009Y-148666416D01*
X142560011Y-148666424D01*
X142611110Y-148803422D01*
X142611112Y-148803427D01*
X142698738Y-148920481D01*
X142815792Y-149008107D01*
X142815794Y-149008108D01*
X142815796Y-149008109D01*
X142870415Y-149028481D01*
X142952795Y-149059208D01*
X142952803Y-149059210D01*
X143013350Y-149065719D01*
X143013355Y-149065719D01*
X143013362Y-149065720D01*
X143013368Y-149065720D01*
X144634632Y-149065720D01*
X144634638Y-149065720D01*
X144634645Y-149065719D01*
X144634649Y-149065719D01*
X144695196Y-149059210D01*
X144695199Y-149059209D01*
X144695201Y-149059209D01*
X144703513Y-149056109D01*
X144714045Y-149052180D01*
X144832204Y-149008109D01*
X144949261Y-148920481D01*
X144993336Y-148861604D01*
X145036887Y-148803427D01*
X145036887Y-148803426D01*
X145036889Y-148803424D01*
X145087989Y-148666421D01*
X145088246Y-148664038D01*
X145094499Y-148605869D01*
X145094500Y-148605852D01*
X145094500Y-146984587D01*
X145094499Y-146984570D01*
X145087990Y-146924023D01*
X145087988Y-146924015D01*
X145036889Y-146787017D01*
X145036887Y-146787012D01*
X144949261Y-146669958D01*
X144890657Y-146626088D01*
X144848110Y-146569252D01*
X144843046Y-146498436D01*
X144877071Y-146436124D01*
X144890657Y-146424352D01*
X144949261Y-146380481D01*
X144993132Y-146321877D01*
X145049968Y-146279330D01*
X145120784Y-146274266D01*
X145183096Y-146308291D01*
X145194868Y-146321877D01*
X145238738Y-146380481D01*
X145355792Y-146468107D01*
X145355794Y-146468108D01*
X145355796Y-146468109D01*
X145410415Y-146488481D01*
X145492795Y-146519208D01*
X145492803Y-146519210D01*
X145553350Y-146525719D01*
X145553355Y-146525719D01*
X145553362Y-146525720D01*
X145553368Y-146525720D01*
X147174632Y-146525720D01*
X147174638Y-146525720D01*
X147174645Y-146525719D01*
X147174649Y-146525719D01*
X147235196Y-146519210D01*
X147235199Y-146519209D01*
X147235201Y-146519209D01*
X147243513Y-146516109D01*
X147254045Y-146512180D01*
X147372204Y-146468109D01*
X147430657Y-146424352D01*
X147489261Y-146380481D01*
X147576887Y-146263427D01*
X147576887Y-146263426D01*
X147576889Y-146263424D01*
X147623738Y-146137818D01*
X147627988Y-146126424D01*
X147627990Y-146126416D01*
X147634499Y-146065869D01*
X147634500Y-146065852D01*
X147634500Y-146060644D01*
X147654502Y-145992523D01*
X147708158Y-145946030D01*
X147737800Y-145936706D01*
X147737936Y-145936680D01*
X147738329Y-145936609D01*
X147793797Y-145911643D01*
X147800802Y-145908742D01*
X147857675Y-145887174D01*
X147866066Y-145881381D01*
X147885922Y-145870181D01*
X147895226Y-145865995D01*
X147943140Y-145828455D01*
X147949195Y-145824000D01*
X147999273Y-145789435D01*
X148039619Y-145743892D01*
X148044813Y-145738376D01*
X148301516Y-145481673D01*
X148363827Y-145447649D01*
X148434643Y-145452714D01*
X148479705Y-145481675D01*
X148804391Y-145806361D01*
X148809608Y-145811902D01*
X148832228Y-145837435D01*
X148837212Y-145843060D01*
X148867413Y-145907313D01*
X148868900Y-145926614D01*
X148868900Y-146124049D01*
X148875409Y-146184596D01*
X148875411Y-146184604D01*
X148926510Y-146321602D01*
X148926512Y-146321607D01*
X149014139Y-146438661D01*
X149072743Y-146482533D01*
X149115289Y-146539369D01*
X149120353Y-146610184D01*
X149086328Y-146672496D01*
X149072743Y-146684267D01*
X149014139Y-146728138D01*
X148926512Y-146845192D01*
X148926510Y-146845197D01*
X148875411Y-146982195D01*
X148875409Y-146982203D01*
X148868900Y-147042750D01*
X148868900Y-148664049D01*
X148875409Y-148724596D01*
X148875411Y-148724604D01*
X148926510Y-148861602D01*
X148926512Y-148861607D01*
X149014138Y-148978661D01*
X149131192Y-149066287D01*
X149131194Y-149066288D01*
X149131196Y-149066289D01*
X149190275Y-149088324D01*
X149268195Y-149117388D01*
X149268203Y-149117390D01*
X149328750Y-149123899D01*
X149328755Y-149123899D01*
X149328762Y-149123900D01*
X149328768Y-149123900D01*
X150950032Y-149123900D01*
X150950038Y-149123900D01*
X150950045Y-149123899D01*
X150950049Y-149123899D01*
X151010596Y-149117390D01*
X151010599Y-149117389D01*
X151010601Y-149117389D01*
X151147604Y-149066289D01*
X151148366Y-149065719D01*
X151264661Y-148978661D01*
X151352287Y-148861607D01*
X151352287Y-148861606D01*
X151352289Y-148861604D01*
X151403389Y-148724601D01*
X151404484Y-148714424D01*
X151409899Y-148664049D01*
X151409900Y-148664032D01*
X151409900Y-147042767D01*
X151409899Y-147042750D01*
X151403390Y-146982203D01*
X151403388Y-146982195D01*
X151352289Y-146845197D01*
X151352287Y-146845192D01*
X151264661Y-146728138D01*
X151206057Y-146684268D01*
X151163510Y-146627432D01*
X151158446Y-146556616D01*
X151192471Y-146494304D01*
X151206057Y-146482532D01*
X151264661Y-146438661D01*
X151308532Y-146380057D01*
X151365368Y-146337510D01*
X151436184Y-146332446D01*
X151498496Y-146366471D01*
X151510268Y-146380057D01*
X151554138Y-146438661D01*
X151671192Y-146526287D01*
X151671194Y-146526288D01*
X151671196Y-146526289D01*
X151719013Y-146544124D01*
X151808195Y-146577388D01*
X151808203Y-146577390D01*
X151868750Y-146583899D01*
X151868755Y-146583899D01*
X151868762Y-146583900D01*
X151868768Y-146583900D01*
X153490032Y-146583900D01*
X153490038Y-146583900D01*
X153490045Y-146583899D01*
X153490049Y-146583899D01*
X153550596Y-146577390D01*
X153550599Y-146577389D01*
X153550601Y-146577389D01*
X153561779Y-146573220D01*
X153577897Y-146567208D01*
X153687604Y-146526289D01*
X153688366Y-146525719D01*
X153804661Y-146438661D01*
X153892287Y-146321607D01*
X153892287Y-146321606D01*
X153892289Y-146321604D01*
X153943389Y-146184601D01*
X153944484Y-146174424D01*
X153949899Y-146124049D01*
X153949900Y-146124032D01*
X153949900Y-144502767D01*
X153949899Y-144502750D01*
X153943390Y-144442203D01*
X153943388Y-144442195D01*
X153892289Y-144305197D01*
X153892287Y-144305192D01*
X153804661Y-144188138D01*
X153746057Y-144144268D01*
X153703510Y-144087432D01*
X153698446Y-144016616D01*
X153732471Y-143954304D01*
X153746057Y-143942532D01*
X153804661Y-143898661D01*
X153892287Y-143781607D01*
X153892287Y-143781606D01*
X153892289Y-143781604D01*
X153943389Y-143644601D01*
X153944484Y-143634421D01*
X153949899Y-143584049D01*
X153949900Y-143584032D01*
X153949900Y-141962767D01*
X153949899Y-141962750D01*
X153943390Y-141902203D01*
X153943388Y-141902195D01*
X153892289Y-141765197D01*
X153892287Y-141765192D01*
X153804661Y-141648138D01*
X153687607Y-141560512D01*
X153687602Y-141560510D01*
X153550604Y-141509411D01*
X153550596Y-141509409D01*
X153500432Y-141504017D01*
X153434840Y-141476848D01*
X153394348Y-141418531D01*
X153387900Y-141378739D01*
X153387900Y-138755616D01*
X153404781Y-138692616D01*
X153433947Y-138642099D01*
X153488527Y-138547564D01*
X153547542Y-138365936D01*
X153567504Y-138176008D01*
X153547542Y-137986080D01*
X153488527Y-137804452D01*
X153393040Y-137639064D01*
X153393038Y-137639062D01*
X153393034Y-137639056D01*
X153265255Y-137497143D01*
X153110752Y-137384890D01*
X152936288Y-137307214D01*
X152749487Y-137267508D01*
X152558513Y-137267508D01*
X152371711Y-137307214D01*
X152197247Y-137384890D01*
X152042744Y-137497143D01*
X151914965Y-137639056D01*
X151914958Y-137639066D01*
X151819476Y-137804446D01*
X151819473Y-137804453D01*
X151760457Y-137986080D01*
X151740496Y-138176008D01*
X151760457Y-138365935D01*
X151777576Y-138418619D01*
X151819473Y-138547564D01*
X151819476Y-138547569D01*
X151914958Y-138712950D01*
X151914960Y-138712952D01*
X151926638Y-138725922D01*
X151938536Y-138739135D01*
X151969253Y-138803142D01*
X151970900Y-138823446D01*
X151970900Y-141378739D01*
X151950898Y-141446860D01*
X151897242Y-141493353D01*
X151858368Y-141504017D01*
X151808203Y-141509409D01*
X151808195Y-141509411D01*
X151671197Y-141560510D01*
X151671192Y-141560512D01*
X151554138Y-141648139D01*
X151510267Y-141706743D01*
X151453431Y-141749289D01*
X151382616Y-141754353D01*
X151320304Y-141720328D01*
X151308533Y-141706743D01*
X151264661Y-141648139D01*
X151147607Y-141560512D01*
X151147602Y-141560510D01*
X151010604Y-141509411D01*
X151010596Y-141509409D01*
X150950049Y-141502900D01*
X150950038Y-141502900D01*
X149611866Y-141502900D01*
X149543745Y-141482898D01*
X149497252Y-141429242D01*
X149485866Y-141376900D01*
X149485866Y-140873632D01*
X149494052Y-140828956D01*
X149497519Y-140819813D01*
X149500428Y-140812791D01*
X149509697Y-140792197D01*
X149525389Y-140757333D01*
X149527227Y-140747297D01*
X149533347Y-140725344D01*
X149536965Y-140715805D01*
X149544299Y-140655400D01*
X149545432Y-140647954D01*
X149556402Y-140588096D01*
X149552730Y-140527387D01*
X149552500Y-140519780D01*
X149552500Y-139637050D01*
X149569380Y-139574051D01*
X149630009Y-139469040D01*
X149689024Y-139287412D01*
X149708986Y-139097484D01*
X149689024Y-138907556D01*
X149630009Y-138725928D01*
X149534522Y-138560540D01*
X149534520Y-138560538D01*
X149534516Y-138560532D01*
X149406737Y-138418619D01*
X149252234Y-138306366D01*
X149077770Y-138228690D01*
X148890969Y-138188984D01*
X148699995Y-138188984D01*
X148513193Y-138228690D01*
X148338729Y-138306366D01*
X148184226Y-138418619D01*
X148056447Y-138560532D01*
X148056440Y-138560542D01*
X147960958Y-138725922D01*
X147960955Y-138725929D01*
X147901939Y-138907556D01*
X147899300Y-138932671D01*
X147872287Y-138998328D01*
X147814065Y-139038957D01*
X147773990Y-139045500D01*
X147748503Y-139045500D01*
X147561701Y-139085206D01*
X147387238Y-139162882D01*
X147272560Y-139246200D01*
X147205693Y-139270058D01*
X147136541Y-139253977D01*
X147087061Y-139203063D01*
X147072500Y-139144263D01*
X147072500Y-138545253D01*
X147091331Y-138481119D01*
X147090538Y-138480661D01*
X147092425Y-138477390D01*
X147092502Y-138477132D01*
X147092973Y-138476442D01*
X147093837Y-138474945D01*
X147093840Y-138474942D01*
X147189327Y-138309554D01*
X147248342Y-138127926D01*
X147268304Y-137937998D01*
X147248342Y-137748070D01*
X147189327Y-137566442D01*
X147093840Y-137401054D01*
X147093835Y-137401048D01*
X147093834Y-137401046D01*
X146966055Y-137259133D01*
X146811552Y-137146880D01*
X146637088Y-137069204D01*
X146450287Y-137029498D01*
X146259313Y-137029498D01*
X146072511Y-137069204D01*
X145898047Y-137146880D01*
X145743544Y-137259133D01*
X145615765Y-137401046D01*
X145615758Y-137401056D01*
X145520276Y-137566436D01*
X145520273Y-137566443D01*
X145461257Y-137748070D01*
X145441296Y-137937998D01*
X145461257Y-138127925D01*
X145481097Y-138188984D01*
X145520273Y-138309554D01*
X145520276Y-138309559D01*
X145615758Y-138474940D01*
X145615764Y-138474947D01*
X145623134Y-138483132D01*
X145653853Y-138547138D01*
X145655500Y-138567444D01*
X145655500Y-141320559D01*
X145635498Y-141388680D01*
X145581842Y-141435173D01*
X145542968Y-141445837D01*
X145492803Y-141451229D01*
X145492795Y-141451231D01*
X145355797Y-141502330D01*
X145355792Y-141502332D01*
X145238738Y-141589959D01*
X145194867Y-141648563D01*
X145138031Y-141691109D01*
X145067216Y-141696173D01*
X145004904Y-141662148D01*
X144993133Y-141648563D01*
X144949261Y-141589959D01*
X144832207Y-141502332D01*
X144832202Y-141502330D01*
X144695204Y-141451231D01*
X144695196Y-141451229D01*
X144634649Y-141444720D01*
X144634638Y-141444720D01*
X143201500Y-141444720D01*
X143133379Y-141424718D01*
X143086886Y-141371062D01*
X143075500Y-141318720D01*
X143075500Y-139557237D01*
X143095502Y-139489116D01*
X143102208Y-139480333D01*
X143102157Y-139480296D01*
X143106033Y-139474958D01*
X143106040Y-139474952D01*
X143201527Y-139309564D01*
X143260542Y-139127936D01*
X143280504Y-138938008D01*
X143260542Y-138748080D01*
X143201527Y-138566452D01*
X143106040Y-138401064D01*
X143106035Y-138401058D01*
X143106034Y-138401056D01*
X142978255Y-138259143D01*
X142823752Y-138146890D01*
X142649288Y-138069214D01*
X142462487Y-138029508D01*
X142271513Y-138029508D01*
X142084711Y-138069214D01*
X141910247Y-138146890D01*
X141755744Y-138259143D01*
X141627965Y-138401056D01*
X141627958Y-138401066D01*
X141532476Y-138566446D01*
X141532473Y-138566453D01*
X141473457Y-138748080D01*
X141454057Y-138932670D01*
X141427044Y-138998327D01*
X141368822Y-139038957D01*
X141328747Y-139045500D01*
X141255513Y-139045500D01*
X141068711Y-139085206D01*
X140899749Y-139160433D01*
X140829382Y-139169867D01*
X140765085Y-139139761D01*
X140727271Y-139079672D01*
X140722500Y-139045326D01*
X140722500Y-138441678D01*
X140739382Y-138378677D01*
X140788524Y-138293561D01*
X140788523Y-138293561D01*
X140788527Y-138293556D01*
X140847542Y-138111928D01*
X140867504Y-137922000D01*
X140847542Y-137732072D01*
X140788527Y-137550444D01*
X140693040Y-137385056D01*
X140693038Y-137385054D01*
X140693034Y-137385048D01*
X140565255Y-137243135D01*
X140410752Y-137130882D01*
X140236288Y-137053206D01*
X140049487Y-137013500D01*
X139858513Y-137013500D01*
X139671711Y-137053206D01*
X139497247Y-137130882D01*
X139342744Y-137243135D01*
X139214965Y-137385048D01*
X139214958Y-137385058D01*
X139150246Y-137497143D01*
X139119473Y-137550444D01*
X139114277Y-137566435D01*
X139060457Y-137732072D01*
X139040496Y-137922000D01*
X139060457Y-138111927D01*
X139065656Y-138127926D01*
X139119473Y-138293556D01*
X139128712Y-138309559D01*
X139214961Y-138458946D01*
X139255298Y-138503743D01*
X139269104Y-138519077D01*
X139273135Y-138523553D01*
X139303853Y-138587561D01*
X139305500Y-138607865D01*
X139305500Y-141320559D01*
X139285498Y-141388680D01*
X139231842Y-141435173D01*
X139192968Y-141445837D01*
X139142803Y-141451229D01*
X139142795Y-141451231D01*
X139005797Y-141502330D01*
X139005792Y-141502332D01*
X138888738Y-141589959D01*
X138844867Y-141648563D01*
X138788031Y-141691109D01*
X138717216Y-141696173D01*
X138654904Y-141662148D01*
X138643133Y-141648563D01*
X138599261Y-141589959D01*
X138482207Y-141502332D01*
X138482202Y-141502330D01*
X138345204Y-141451231D01*
X138345196Y-141451229D01*
X138284649Y-141444720D01*
X138284638Y-141444720D01*
X136826100Y-141444720D01*
X136757979Y-141424718D01*
X136711486Y-141371062D01*
X136700100Y-141318720D01*
X136700100Y-140891905D01*
X136708287Y-140847227D01*
X136709965Y-140842803D01*
X136717299Y-140782400D01*
X136718432Y-140774953D01*
X136729402Y-140715095D01*
X136725730Y-140654392D01*
X136725500Y-140646784D01*
X136725500Y-139557229D01*
X136745502Y-139489108D01*
X136752208Y-139480325D01*
X136752157Y-139480288D01*
X136756035Y-139474949D01*
X136756040Y-139474944D01*
X136851527Y-139309556D01*
X136910542Y-139127928D01*
X136930504Y-138938000D01*
X136910542Y-138748072D01*
X136851527Y-138566444D01*
X136756040Y-138401056D01*
X136756038Y-138401054D01*
X136756034Y-138401048D01*
X136628255Y-138259135D01*
X136473752Y-138146882D01*
X136299288Y-138069206D01*
X136112487Y-138029500D01*
X135921513Y-138029500D01*
X135734711Y-138069206D01*
X135560247Y-138146882D01*
X135405744Y-138259135D01*
X135277965Y-138401048D01*
X135277958Y-138401058D01*
X135182478Y-138566435D01*
X135182473Y-138566444D01*
X135182470Y-138566453D01*
X135123457Y-138748072D01*
X135103496Y-138938001D01*
X135103496Y-138938457D01*
X135103421Y-138938710D01*
X135102806Y-138944567D01*
X135101735Y-138944454D01*
X135083494Y-139006578D01*
X135029838Y-139053071D01*
X134977496Y-139064457D01*
X134921503Y-139064457D01*
X134734701Y-139104163D01*
X134654747Y-139139761D01*
X134560238Y-139181839D01*
X134560236Y-139181839D01*
X134554206Y-139184525D01*
X134553545Y-139183041D01*
X134492499Y-139197848D01*
X134425409Y-139174624D01*
X134381524Y-139118816D01*
X134372500Y-139071991D01*
X134372500Y-138441678D01*
X134389382Y-138378677D01*
X134438524Y-138293561D01*
X134438523Y-138293561D01*
X134438527Y-138293556D01*
X134497542Y-138111928D01*
X134517504Y-137922000D01*
X134497542Y-137732072D01*
X134438527Y-137550444D01*
X134343040Y-137385056D01*
X134343038Y-137385054D01*
X134343034Y-137385048D01*
X134215255Y-137243135D01*
X134060752Y-137130882D01*
X133886288Y-137053206D01*
X133699487Y-137013500D01*
X133508513Y-137013500D01*
X133321711Y-137053206D01*
X133147247Y-137130882D01*
X132992744Y-137243135D01*
X132864965Y-137385048D01*
X132864958Y-137385058D01*
X132800246Y-137497143D01*
X132769473Y-137550444D01*
X132764277Y-137566435D01*
X132710457Y-137732072D01*
X132690496Y-137922000D01*
X132710457Y-138111927D01*
X132715656Y-138127926D01*
X132769473Y-138293556D01*
X132778712Y-138309559D01*
X132864961Y-138458946D01*
X132905298Y-138503743D01*
X132919104Y-138519077D01*
X132923135Y-138523553D01*
X132953853Y-138587561D01*
X132955500Y-138607865D01*
X132955500Y-141320559D01*
X132935498Y-141388680D01*
X132881842Y-141435173D01*
X132842968Y-141445837D01*
X132792803Y-141451229D01*
X132792795Y-141451231D01*
X132655797Y-141502330D01*
X132655792Y-141502332D01*
X132538738Y-141589959D01*
X132494867Y-141648563D01*
X132438031Y-141691109D01*
X132367216Y-141696173D01*
X132304904Y-141662148D01*
X132293133Y-141648563D01*
X132249261Y-141589959D01*
X132132207Y-141502332D01*
X132132202Y-141502330D01*
X131995204Y-141451231D01*
X131995196Y-141451229D01*
X131934649Y-141444720D01*
X131934638Y-141444720D01*
X130476100Y-141444720D01*
X130407979Y-141424718D01*
X130361486Y-141371062D01*
X130350100Y-141318720D01*
X130350100Y-140637905D01*
X130358287Y-140593227D01*
X130359965Y-140588803D01*
X130367299Y-140528400D01*
X130368432Y-140520953D01*
X130379402Y-140461095D01*
X130375730Y-140400392D01*
X130375500Y-140392784D01*
X130375500Y-139557229D01*
X130395502Y-139489108D01*
X130402208Y-139480325D01*
X130402157Y-139480288D01*
X130406035Y-139474949D01*
X130406040Y-139474944D01*
X130501527Y-139309556D01*
X130560542Y-139127928D01*
X130580504Y-138938000D01*
X130560542Y-138748072D01*
X130501527Y-138566444D01*
X130406040Y-138401056D01*
X130406038Y-138401054D01*
X130406034Y-138401048D01*
X130278255Y-138259135D01*
X130123752Y-138146882D01*
X129949288Y-138069206D01*
X129762487Y-138029500D01*
X129571513Y-138029500D01*
X129384711Y-138069206D01*
X129210247Y-138146882D01*
X129055744Y-138259135D01*
X128927965Y-138401048D01*
X128927958Y-138401058D01*
X128832478Y-138566435D01*
X128832473Y-138566444D01*
X128832470Y-138566453D01*
X128773457Y-138748072D01*
X128754056Y-138932670D01*
X128727043Y-138998327D01*
X128668821Y-139038957D01*
X128628746Y-139045500D01*
X128555513Y-139045500D01*
X128368711Y-139085206D01*
X128194247Y-139162882D01*
X128132561Y-139207700D01*
X128065693Y-139231559D01*
X127996541Y-139215478D01*
X127947061Y-139164564D01*
X127932500Y-139105764D01*
X127932500Y-138562327D01*
X127952502Y-138494206D01*
X127964868Y-138478012D01*
X127967640Y-138474934D01*
X128063127Y-138309546D01*
X128122142Y-138127918D01*
X128142104Y-137937990D01*
X128122142Y-137748062D01*
X128063127Y-137566434D01*
X127967640Y-137401046D01*
X127967638Y-137401044D01*
X127967634Y-137401038D01*
X127839855Y-137259125D01*
X127685352Y-137146872D01*
X127510888Y-137069196D01*
X127324087Y-137029490D01*
X127133113Y-137029490D01*
X126946311Y-137069196D01*
X126771847Y-137146872D01*
X126617344Y-137259125D01*
X126489565Y-137401038D01*
X126489558Y-137401048D01*
X126403304Y-137550445D01*
X126394073Y-137566434D01*
X126394070Y-137566443D01*
X126335057Y-137748062D01*
X126315096Y-137937990D01*
X126335057Y-138127917D01*
X126360904Y-138207464D01*
X126394073Y-138309546D01*
X126394078Y-138309554D01*
X126489559Y-138474933D01*
X126491432Y-138477510D01*
X126492054Y-138479254D01*
X126492862Y-138480653D01*
X126492606Y-138480800D01*
X126515294Y-138544377D01*
X126515500Y-138551576D01*
X126515500Y-141428559D01*
X126495498Y-141496680D01*
X126441842Y-141543173D01*
X126402968Y-141553837D01*
X126352803Y-141559229D01*
X126352795Y-141559231D01*
X126215797Y-141610330D01*
X126215792Y-141610332D01*
X126098738Y-141697959D01*
X126054867Y-141756563D01*
X125998031Y-141799109D01*
X125927216Y-141804173D01*
X125864904Y-141770148D01*
X125853133Y-141756563D01*
X125809261Y-141697959D01*
X125692207Y-141610332D01*
X125692202Y-141610330D01*
X125555204Y-141559231D01*
X125555196Y-141559229D01*
X125494649Y-141552720D01*
X125494638Y-141552720D01*
X124151500Y-141552720D01*
X124083379Y-141532718D01*
X124036886Y-141479062D01*
X124025500Y-141426720D01*
X124025500Y-139557223D01*
X124045502Y-139489102D01*
X124052208Y-139480319D01*
X124052157Y-139480282D01*
X124056033Y-139474944D01*
X124056040Y-139474938D01*
X124151527Y-139309550D01*
X124210542Y-139127922D01*
X124230504Y-138937994D01*
X124210542Y-138748066D01*
X124151527Y-138566438D01*
X124056040Y-138401050D01*
X124056038Y-138401048D01*
X124056034Y-138401042D01*
X123928255Y-138259129D01*
X123773752Y-138146876D01*
X123599288Y-138069200D01*
X123412487Y-138029494D01*
X123221513Y-138029494D01*
X123034711Y-138069200D01*
X122860247Y-138146876D01*
X122705744Y-138259129D01*
X122577965Y-138401042D01*
X122577958Y-138401052D01*
X122482476Y-138566432D01*
X122482473Y-138566438D01*
X122482468Y-138566453D01*
X122423457Y-138748066D01*
X122417669Y-138803142D01*
X122404055Y-138932671D01*
X122377043Y-138998327D01*
X122318822Y-139038957D01*
X122278746Y-139045500D01*
X122205513Y-139045500D01*
X122018711Y-139085206D01*
X121849749Y-139160433D01*
X121779382Y-139169867D01*
X121715085Y-139139761D01*
X121677271Y-139079672D01*
X121672500Y-139045326D01*
X121672500Y-138441678D01*
X121689382Y-138378677D01*
X121738524Y-138293561D01*
X121738523Y-138293561D01*
X121738527Y-138293556D01*
X121797542Y-138111928D01*
X121817504Y-137922000D01*
X121797542Y-137732072D01*
X121738527Y-137550444D01*
X121643040Y-137385056D01*
X121643038Y-137385054D01*
X121643034Y-137385048D01*
X121515255Y-137243135D01*
X121360752Y-137130882D01*
X121186288Y-137053206D01*
X120999487Y-137013500D01*
X120808513Y-137013500D01*
X120621711Y-137053206D01*
X120447247Y-137130882D01*
X120292744Y-137243135D01*
X120164965Y-137385048D01*
X120164958Y-137385058D01*
X120100246Y-137497143D01*
X120069473Y-137550444D01*
X120064277Y-137566435D01*
X120010457Y-137732072D01*
X119990496Y-137922000D01*
X120010457Y-138111927D01*
X120015656Y-138127926D01*
X120069473Y-138293556D01*
X120078712Y-138309559D01*
X120164961Y-138458946D01*
X120205298Y-138503743D01*
X120219104Y-138519077D01*
X120223135Y-138523553D01*
X120253853Y-138587561D01*
X120255500Y-138607865D01*
X120255500Y-141320559D01*
X120235498Y-141388680D01*
X120181842Y-141435173D01*
X120142968Y-141445837D01*
X120092803Y-141451229D01*
X120092795Y-141451231D01*
X119955797Y-141502330D01*
X119955792Y-141502332D01*
X119838738Y-141589959D01*
X119794867Y-141648563D01*
X119738031Y-141691109D01*
X119667216Y-141696173D01*
X119604904Y-141662148D01*
X119593133Y-141648563D01*
X119549261Y-141589959D01*
X119432207Y-141502332D01*
X119432202Y-141502330D01*
X119295204Y-141451231D01*
X119295196Y-141451229D01*
X119234649Y-141444720D01*
X119234638Y-141444720D01*
X117896499Y-141444720D01*
X117828378Y-141424718D01*
X117781885Y-141371062D01*
X117770499Y-141318720D01*
X117770499Y-140792197D01*
X117774646Y-140764950D01*
X117774013Y-140764834D01*
X117775387Y-140757333D01*
X117775388Y-140757331D01*
X117777226Y-140747299D01*
X117783350Y-140725334D01*
X117786965Y-140715803D01*
X117794301Y-140655384D01*
X117795438Y-140647918D01*
X117806401Y-140588095D01*
X117802730Y-140527402D01*
X117802500Y-140519795D01*
X117802500Y-139557229D01*
X117822502Y-139489108D01*
X117829208Y-139480325D01*
X117829157Y-139480288D01*
X117833035Y-139474949D01*
X117833040Y-139474944D01*
X117928527Y-139309556D01*
X117987542Y-139127928D01*
X118007504Y-138938000D01*
X117987542Y-138748072D01*
X117928527Y-138566444D01*
X117833040Y-138401056D01*
X117833038Y-138401054D01*
X117833034Y-138401048D01*
X117705255Y-138259135D01*
X117550752Y-138146882D01*
X117376288Y-138069206D01*
X117189487Y-138029500D01*
X116998513Y-138029500D01*
X116811711Y-138069206D01*
X116637247Y-138146882D01*
X116482744Y-138259135D01*
X116354965Y-138401048D01*
X116354958Y-138401058D01*
X116259478Y-138566435D01*
X116259473Y-138566444D01*
X116259470Y-138566453D01*
X116200457Y-138748072D01*
X116181056Y-138932670D01*
X116154043Y-138998327D01*
X116095821Y-139038957D01*
X116055746Y-139045500D01*
X115982513Y-139045500D01*
X115795711Y-139085206D01*
X115621248Y-139162882D01*
X115562560Y-139205521D01*
X115495692Y-139229379D01*
X115426541Y-139213298D01*
X115377061Y-139162383D01*
X115362500Y-139103584D01*
X115362500Y-138706299D01*
X115382502Y-138638178D01*
X115414441Y-138604361D01*
X115419253Y-138600866D01*
X115530431Y-138477390D01*
X115547034Y-138458951D01*
X115547038Y-138458946D01*
X115547040Y-138458944D01*
X115642527Y-138293556D01*
X115701542Y-138111928D01*
X115721504Y-137922000D01*
X115701542Y-137732072D01*
X115642527Y-137550444D01*
X115547040Y-137385056D01*
X115547038Y-137385054D01*
X115547034Y-137385048D01*
X115419255Y-137243135D01*
X115264752Y-137130882D01*
X115090288Y-137053206D01*
X114903487Y-137013500D01*
X114712513Y-137013500D01*
X114525711Y-137053206D01*
X114351247Y-137130882D01*
X114196744Y-137243135D01*
X114068965Y-137385048D01*
X114068958Y-137385058D01*
X114004246Y-137497143D01*
X113973473Y-137550444D01*
X113968277Y-137566435D01*
X113914457Y-137732072D01*
X113894496Y-137922000D01*
X113914457Y-138111927D01*
X113939333Y-138188484D01*
X113945500Y-138227421D01*
X113945500Y-141368559D01*
X113925498Y-141436680D01*
X113871842Y-141483173D01*
X113832968Y-141493837D01*
X113782803Y-141499229D01*
X113782795Y-141499231D01*
X113645797Y-141550330D01*
X113645792Y-141550332D01*
X113528738Y-141637959D01*
X113484867Y-141696563D01*
X113428031Y-141739109D01*
X113357216Y-141744173D01*
X113294904Y-141710148D01*
X113283133Y-141696563D01*
X113239261Y-141637959D01*
X113122207Y-141550332D01*
X113122202Y-141550330D01*
X112985204Y-141499231D01*
X112985196Y-141499229D01*
X112924649Y-141492720D01*
X112924638Y-141492720D01*
X111578500Y-141492720D01*
X111510379Y-141472718D01*
X111463886Y-141419062D01*
X111452500Y-141366720D01*
X111452500Y-139557219D01*
X111472502Y-139489098D01*
X111479208Y-139480315D01*
X111479157Y-139480278D01*
X111483036Y-139474938D01*
X111483040Y-139474934D01*
X111578527Y-139309546D01*
X111637542Y-139127918D01*
X111657504Y-138937990D01*
X111637542Y-138748062D01*
X111578527Y-138566434D01*
X111483040Y-138401046D01*
X111483038Y-138401044D01*
X111483034Y-138401038D01*
X111355255Y-138259125D01*
X111200752Y-138146872D01*
X111026288Y-138069196D01*
X110839487Y-138029490D01*
X110648513Y-138029490D01*
X110461711Y-138069196D01*
X110287247Y-138146872D01*
X110132744Y-138259125D01*
X110004965Y-138401038D01*
X110004958Y-138401048D01*
X109911844Y-138562327D01*
X109909473Y-138566434D01*
X109898287Y-138600861D01*
X109850457Y-138748062D01*
X109830496Y-138937990D01*
X107009500Y-138937990D01*
X107009500Y-132211182D01*
X110009500Y-132211182D01*
X110031224Y-132355311D01*
X110048604Y-132470619D01*
X110125933Y-132721314D01*
X110125938Y-132721327D01*
X110239773Y-132957706D01*
X110239777Y-132957713D01*
X110387562Y-133174472D01*
X110387567Y-133174479D01*
X110566019Y-133366805D01*
X110771143Y-133530386D01*
X110771146Y-133530388D01*
X110998352Y-133661566D01*
X110998356Y-133661567D01*
X110998357Y-133661568D01*
X111242584Y-133757420D01*
X111498370Y-133815802D01*
X111694506Y-133830500D01*
X111694507Y-133830500D01*
X111825493Y-133830500D01*
X111825494Y-133830500D01*
X112021630Y-133815802D01*
X112277416Y-133757420D01*
X112521643Y-133661568D01*
X112521645Y-133661566D01*
X112521647Y-133661566D01*
X112635250Y-133595977D01*
X112748857Y-133530386D01*
X112953981Y-133366805D01*
X113132433Y-133174479D01*
X113280228Y-132957704D01*
X113394063Y-132721323D01*
X113471396Y-132470615D01*
X113510500Y-132211182D01*
X150649500Y-132211182D01*
X150671224Y-132355311D01*
X150688604Y-132470619D01*
X150765933Y-132721314D01*
X150765938Y-132721327D01*
X150879773Y-132957706D01*
X150879777Y-132957713D01*
X151027562Y-133174472D01*
X151027567Y-133174479D01*
X151206019Y-133366805D01*
X151411143Y-133530386D01*
X151411146Y-133530388D01*
X151638352Y-133661566D01*
X151638356Y-133661567D01*
X151638357Y-133661568D01*
X151882584Y-133757420D01*
X152138370Y-133815802D01*
X152334506Y-133830500D01*
X152334507Y-133830500D01*
X152465493Y-133830500D01*
X152465494Y-133830500D01*
X152661630Y-133815802D01*
X152917416Y-133757420D01*
X153161643Y-133661568D01*
X153161645Y-133661566D01*
X153161647Y-133661566D01*
X153275250Y-133595977D01*
X153388857Y-133530386D01*
X153593981Y-133366805D01*
X153772433Y-133174479D01*
X153920228Y-132957704D01*
X154034063Y-132721323D01*
X154111396Y-132470615D01*
X154150500Y-132211182D01*
X154150500Y-131948818D01*
X154111396Y-131689385D01*
X154111395Y-131689383D01*
X154111395Y-131689380D01*
X154034066Y-131438685D01*
X154034061Y-131438672D01*
X153985854Y-131338570D01*
X153920228Y-131202296D01*
X153920226Y-131202293D01*
X153920222Y-131202286D01*
X153772437Y-130985527D01*
X153772433Y-130985521D01*
X153593981Y-130793195D01*
X153388857Y-130629614D01*
X153388852Y-130629611D01*
X153388853Y-130629611D01*
X153161647Y-130498433D01*
X153161639Y-130498430D01*
X152917419Y-130402581D01*
X152917417Y-130402580D01*
X152661633Y-130344198D01*
X152514528Y-130333174D01*
X152465494Y-130329500D01*
X152334506Y-130329500D01*
X152295278Y-130332439D01*
X152138366Y-130344198D01*
X151882582Y-130402580D01*
X151882580Y-130402581D01*
X151638360Y-130498430D01*
X151638352Y-130498433D01*
X151411146Y-130629611D01*
X151206018Y-130793195D01*
X151027566Y-130985522D01*
X151027562Y-130985527D01*
X150879777Y-131202286D01*
X150879773Y-131202293D01*
X150765938Y-131438672D01*
X150765933Y-131438685D01*
X150688604Y-131689380D01*
X150666879Y-131833514D01*
X150649500Y-131948818D01*
X150649500Y-132211182D01*
X113510500Y-132211182D01*
X113510500Y-131948818D01*
X113471396Y-131689385D01*
X113471395Y-131689383D01*
X113471395Y-131689380D01*
X113394066Y-131438685D01*
X113394061Y-131438672D01*
X113345854Y-131338570D01*
X113280228Y-131202296D01*
X113280226Y-131202293D01*
X113280222Y-131202286D01*
X113132437Y-130985527D01*
X113132433Y-130985521D01*
X112953981Y-130793195D01*
X112748857Y-130629614D01*
X112748852Y-130629611D01*
X112748853Y-130629611D01*
X112521647Y-130498433D01*
X112521639Y-130498430D01*
X112277419Y-130402581D01*
X112277417Y-130402580D01*
X112021633Y-130344198D01*
X111874528Y-130333174D01*
X111825494Y-130329500D01*
X111694506Y-130329500D01*
X111655278Y-130332439D01*
X111498366Y-130344198D01*
X111242582Y-130402580D01*
X111242580Y-130402581D01*
X110998360Y-130498430D01*
X110998352Y-130498433D01*
X110771146Y-130629611D01*
X110566018Y-130793195D01*
X110387566Y-130985522D01*
X110387562Y-130985527D01*
X110239777Y-131202286D01*
X110239773Y-131202293D01*
X110125938Y-131438672D01*
X110125933Y-131438685D01*
X110048604Y-131689380D01*
X110026879Y-131833514D01*
X110009500Y-131948818D01*
X110009500Y-132211182D01*
X107009500Y-132211182D01*
X107009500Y-127455500D01*
X107029502Y-127387379D01*
X107083158Y-127340886D01*
X107135500Y-127329500D01*
X157024500Y-127329500D01*
X157092621Y-127349502D01*
G37*
%TD.AperFunction*%
%TD*%
M02*
